<!--
 SPDX-License-Identifier: Apache-2.0
 This conversation was marked as resolved by abbyhu2000
 
 The OpenSearch Contributors require contributions made to
 this file be licensed under the Apache-2.0 license or a
 compatible open source license.
 
 Licensed to Elasticsearch B.V. under one or more contributor
 license agreements. See the NOTICE file distributed with
 this work for additional information regarding copyright
 ownership. Elasticsearch B.V. licenses this file to you under
 the Apache License, Version 2.0 (the "License"); you may
 not use this file except in compliance with the License.
 You may obtain a copy of the License at
 
    http://www.apache.org/licenses/LICENSE-2.0
 
 Unless required by applicable law or agreed to in writing,
 software distributed under the License is distributed on an
 "AS IS" BASIS, WITHOUT WARRANTIES OR CONDITIONS OF ANY
 KIND, either express or implied.  See the License for the
 specific language governing permissions and limitations
 under the License.
 
 Modifications Copyright OpenSearch Contributors. See
 GitHub history for details.
 -->

<svg height="28" viewBox="0 0 148 16" fill="none" xmlns="http://www.w3.org/2000/svg">
      <path
        d="M13.7235 5.87915C13.4537 5.87915 13.2349 6.0979 13.2349 6.36775C13.2349 10.3884 9.97556 13.6478 5.9549 13.6478C5.68506 13.6478 5.46631 13.8665 5.46631 14.1364C5.46631 14.4062 5.68506 14.625 5.9549 14.625C10.5153 14.625 14.2121 10.9281 14.2121 6.36775C14.2121 6.0979 13.9934 5.87915 13.7235 5.87915Z"
        fill="#00A3E0"
      />
      <path
        d="M10.7745 9.01016C11.2444 8.24366 11.6988 7.22165 11.6094 5.79085C11.4242 2.82702 8.73978 0.578615 6.20494 0.822281C5.2126 0.917672 4.19366 1.72655 4.28418 3.17539C4.32353 3.80502 4.63169 4.17662 5.1325 4.46232C5.60919 4.73425 6.22161 4.90651 6.91587 5.10178C7.75449 5.33765 8.72724 5.60259 9.47489 6.15355C10.371 6.81389 10.9835 7.57936 10.7745 9.01016Z"
        fill="#B9D9EB"
      />
      <path
        d="M1.23781 3.82764C0.767944 4.59414 0.313536 5.61614 0.402937 7.04694C0.588128 10.0108 3.27257 12.2592 5.8074 12.0155C6.79974 11.9201 7.81869 11.1112 7.72816 9.6624C7.68882 9.03278 7.38065 8.66118 6.87984 8.37548C6.40315 8.10354 5.79073 7.93129 5.09647 7.73602C4.25786 7.50015 3.2851 7.23521 2.53745 6.68425C1.64138 6.02391 1.02884 5.25844 1.23781 3.82764Z"
        fill="#00A3E0"
      />
      <path
        fillRule="evenodd"
        clipRule="evenodd"
        d="M78.6723 6.85077V11.8175H80.6158V6.41888C80.6158 5.42394 80.4214 4.67231 80.0325 4.16247C79.6437 3.64768 79.0572 3.39563 78.2944 3.39563C77.4668 3.39563 76.8037 3.87952 76.4049 4.69131H76.2969C76.3263 4.27216 76.353 4.03206 76.3724 3.85673C76.3925 3.67593 76.4049 3.564 76.4049 3.39563V0.264404H74.4613V11.8175H76.5128V7.82253C76.5128 6.92659 76.5428 6.26372 76.7272 5.78852C76.9117 5.30838 77.2332 5.06831 77.6919 5.06831C78.3051 5.06831 78.6723 5.63804 78.6723 6.85077ZM50.4594 11.2192C50.9845 10.6762 51.2471 9.89426 51.2471 8.8732C51.2471 8.23566 51.1032 7.66785 50.8154 7.16977C50.5326 6.67169 50.0301 6.18357 49.308 5.70541C48.7728 5.35676 48.3966 5.04546 48.1795 4.77151C47.9674 4.49757 47.8613 4.17631 47.8613 3.80773C47.8613 3.43417 47.9497 3.1403 48.1264 2.92613C48.3082 2.70697 48.5658 2.59739 48.899 2.59739C49.202 2.59739 49.4848 2.65218 49.7474 2.76176C50.015 2.87134 50.27 2.99586 50.5124 3.13532L51.1941 1.5066C50.4114 1.0384 49.5959 0.804306 48.7475 0.804306C47.8588 0.804306 47.1493 1.07825 46.6191 1.62614C46.094 2.17403 45.8314 2.91616 45.8314 3.85255C45.8314 4.34067 45.897 4.76902 46.0283 5.1376C46.1646 5.50618 46.354 5.83989 46.5964 6.13874C46.8438 6.43261 47.2049 6.74142 47.6795 7.06517C48.2249 7.43375 48.6162 7.76995 48.8536 8.07378C49.0909 8.37263 49.2096 8.70385 49.2096 9.06745C49.2096 9.43603 49.1086 9.72741 48.9066 9.94158C48.7097 10.1558 48.4143 10.2628 48.0204 10.2628C47.3286 10.2628 46.5686 9.99637 45.7405 9.46342V11.4732C46.4171 11.8467 47.2377 12.0335 48.2022 12.0335C49.1869 12.0335 49.9393 11.7621 50.4594 11.2192ZM52.5803 10.9266C53.1862 11.6645 54.0124 12.0334 55.059 12.0334C55.9553 12.0334 56.7239 11.8415 57.3649 11.4576V9.81976C56.6839 10.2236 56.0179 10.4255 55.3669 10.4255C54.8562 10.4255 54.4556 10.246 54.1651 9.88707C53.8747 9.52311 53.7455 8.99726 53.7304 8.25438H57.7254V7.16483C57.7254 5.97323 57.4625 5.04837 56.9368 4.39025C56.411 3.72714 55.6924 3.39559 54.7811 3.39559C53.8046 3.39559 53.0435 3.78199 52.4977 4.55478C51.9518 5.32758 51.6789 6.40201 51.6789 7.77808C51.6789 9.13422 51.9794 10.1837 52.5803 10.9266ZM54.06 5.38491C54.2453 5.08078 54.4806 4.92871 54.766 4.92871C55.0715 4.92871 55.3118 5.08577 55.4871 5.39987C55.6624 5.71397 55.7719 6.24247 55.7819 6.85073H53.7304C53.7605 6.21754 53.8747 5.68406 54.06 5.38491ZM62.5843 11.8175L62.2603 10.7378H62.1524C61.8547 11.2255 61.5683 11.5731 61.2505 11.7572C60.9326 11.9414 60.5316 12.0334 60.0472 12.0334C59.4267 12.0334 58.9373 11.8045 58.5791 11.3466C58.226 10.8887 58.0494 10.2516 58.0494 9.43537C58.0494 8.55939 58.2915 7.90987 58.7759 7.48681C59.2652 7.05878 59.9943 6.82236 60.9629 6.77757L62.0829 6.73277V6.13551C62.0829 5.35908 61.7424 4.97086 61.0613 4.97086C60.5568 4.97086 59.9766 5.16497 59.3207 5.55319L58.6245 4.17949C59.462 3.65689 60.3588 3.39559 61.3426 3.39559C62.2355 3.39559 62.928 3.64942 63.3921 4.15709C63.8613 4.65979 64.0959 5.37401 64.0959 6.29976V11.8175H62.5843ZM60.8721 10.4806C61.2404 10.4806 61.533 10.3188 61.7499 9.9953C61.9719 9.66681 62.0829 9.2313 62.0829 8.68879V7.98702L61.4624 8.01688C61.0033 8.04176 60.6652 8.17117 60.4483 8.4051C60.2364 8.63902 60.1305 8.98742 60.1305 9.4503C60.1305 10.1371 60.3777 10.4806 60.8721 10.4806ZM69.0627 3.55755C68.8316 3.48306 68.4876 3.39559 68.2467 3.39559C67.9075 3.39559 67.61 3.50733 67.3544 3.7308C67.0987 3.95428 66.9036 4.16982 66.6872 4.69127H66.5793L66.2554 3.61154H64.7437V11.8175H66.7873V7.49857C66.7873 6.77352 66.8332 6.30574 67.0889 5.92831C67.3445 5.54592 67.7108 5.35473 68.1877 5.35473C68.409 5.35473 68.6011 5.39742 68.7387 5.44708L69.0627 3.55755ZM72.0859 12.0334C71.1018 12.0334 70.3484 11.7048 69.8341 10.9818C69.3198 10.2589 69.0626 9.19692 69.0626 7.79592C69.0626 6.3301 69.305 5.23572 69.7896 4.51279C70.2792 3.78985 71.0098 3.39559 72.0286 3.39559C72.3352 3.39559 72.6802 3.47325 73.0164 3.563C73.3527 3.65274 73.7624 3.76594 74.0294 3.93546L73.3577 5.49997C72.9472 5.25567 72.5837 5.13352 72.2672 5.13352C71.8469 5.13352 71.5427 5.35538 71.3548 5.79912C71.1718 6.23787 71.0803 6.89848 71.0803 7.78096C71.0803 8.6435 71.1718 9.28916 71.3548 9.71794C71.5378 10.1417 71.837 10.3536 72.2524 10.3536C72.7469 10.3536 73.2637 10.1791 73.8028 9.83012V11.5801C73.2835 11.9042 72.714 12.0334 72.0859 12.0334Z"
        fill="#B9D9EB"
      />
      <path
        fillRule="evenodd"
        clipRule="evenodd"
        d="M23.6656 10.5785C24.3455 9.6085 24.6855 8.2207 24.6855 6.41507C24.6855 4.60945 24.348 3.22414 23.6731 2.25915C22.9981 1.28918 22.0282 0.804199 20.7632 0.804199C19.4833 0.804199 18.5034 1.28669 17.8234 2.25169C17.1434 3.2117 16.8035 4.59452 16.8035 6.40015C16.8035 8.2207 17.1434 9.61596 17.8234 10.5859C18.5034 11.5509 19.4783 12.0334 20.7482 12.0334C22.0132 12.0334 22.9856 11.5484 23.6656 10.5785ZM19.3608 9.25782C19.0458 8.6062 18.8883 7.65862 18.8883 6.41507C18.8883 5.16655 19.0458 4.21897 19.3608 3.57233C19.6758 2.92071 20.1433 2.5949 20.7632 2.5949C21.9832 2.5949 22.5931 3.86829 22.5931 6.41507C22.5931 8.96185 21.9782 10.2352 20.7482 10.2352C20.1383 10.2352 19.6758 9.90943 19.3608 9.25782ZM28.0729 11.817C28.3501 11.977 28.6482 12.0334 29.0046 12.0334C29.7668 12.0334 30.3867 11.6721 30.8272 10.9021C31.2677 10.1322 31.4879 9.06988 31.4879 7.71505C31.4879 6.34022 31.2751 5.27785 30.8495 4.52795C30.4238 3.77304 29.8349 3.39559 29.0826 3.39559C28.3006 3.39559 27.6878 3.86137 27.277 4.69127H27.169L26.8451 3.61154H25.3335V15.5966H27.277V12.0334C27.277 11.8935 27.2482 11.4177 27.169 10.7378H27.277C27.4389 11.2236 27.8007 11.6521 28.0729 11.817ZM27.5755 5.63781C27.7487 5.27285 28.0284 5.09038 28.4144 5.09038C28.7757 5.09038 29.0405 5.30535 29.2088 5.7353C29.382 6.16524 29.4686 6.81516 29.4686 7.68505C29.4686 9.45483 29.1222 10.3397 28.4293 10.3397C28.0284 10.3397 27.7413 10.1297 27.5681 9.7098C27.3949 9.28985 27.3082 8.61993 27.3082 7.70005V7.43758C27.3181 6.59769 27.4072 5.99776 27.5755 5.63781ZM35.2998 12.0334C34.2532 12.0334 33.427 11.6645 32.8211 10.9266C32.2202 10.1837 31.9197 9.13422 31.9197 7.77808C31.9197 6.40201 32.1927 5.32758 32.7385 4.55478C33.2843 3.78199 34.0454 3.39559 35.0219 3.39559C35.9332 3.39559 36.6518 3.72714 37.1776 4.39025C37.7034 5.04837 37.9662 5.97323 37.9662 7.16483V8.25438H33.9712C33.9863 8.99726 34.1155 9.52311 34.4059 9.88707C34.6964 10.246 35.097 10.4255 35.6077 10.4255C36.2587 10.4255 36.9247 10.2236 37.6057 9.81976V11.4576C36.9648 11.8415 36.1961 12.0334 35.2998 12.0334ZM35.0068 4.92871C34.7214 4.92871 34.4861 5.08078 34.3008 5.38491C34.1155 5.68406 34.0013 6.21754 33.9712 6.85073H36.0227C36.0127 6.24247 35.9032 5.71397 35.7279 5.39987C35.5527 5.08577 35.3123 4.92871 35.0068 4.92871ZM42.8251 6.85073V11.8175H44.7686V6.46184C44.7686 5.4598 44.5791 4.69824 44.2002 4.17718C43.8263 3.65612 43.2605 3.39559 42.5027 3.39559C42.054 3.39559 41.6627 3.50581 41.3286 3.72626C40.9946 3.9417 40.7371 4.30548 40.5576 4.69127H40.4496L40.1797 3.61154H38.6141V11.8175H40.6656V7.87648C40.6656 6.8594 40.703 6.16624 40.9024 5.74037C41.1018 5.30949 41.4159 5.09405 41.8446 5.09405C42.1687 5.09405 42.403 5.24937 42.5476 5.56C42.6922 5.87063 42.8251 6.2445 42.8251 6.85073Z"
        fill="#00A3E0"
      />
      <path
        d="M90.8237 6.37217C90.8237 8.1429 90.4617 9.49785 89.7378 10.437C89.0187 11.3713 87.9817 11.8384 86.6267 11.8384H84V1.11134H86.8689C88.1162 1.11134 89.0872 1.57358 89.7818 2.49808C90.4764 3.41769 90.8237 4.70905 90.8237 6.37217ZM88.7766 6.43086C88.7766 4.03402 88.1162 2.8356 86.7955 2.8356H85.9957V10.0922H86.6414C87.3703 10.0922 87.9083 9.78889 88.2556 9.18235C88.6029 8.57091 88.7766 7.65374 88.7766 6.43086Z"
        fill="#D9E1E2"
      />
      <path
        d="M95.8318 11.8384L95.4429 10.7232H95.3989C95.1103 11.2025 94.8119 11.5327 94.5038 11.7137C94.1956 11.8947 93.8067 11.9852 93.3371 11.9852C92.7355 11.9852 92.261 11.7602 91.9137 11.3102C91.5713 10.8601 91.4001 10.234 91.4001 9.43181C91.4001 8.5709 91.6349 7.93256 92.1045 7.51678C92.5789 7.09611 93.2858 6.86376 94.2249 6.81974L95.3109 6.77572V6.18873C95.3109 5.42566 94.9807 5.04412 94.3203 5.04412C93.8312 5.04412 93.2686 5.23489 92.6328 5.61643L91.9577 4.26637C92.7697 3.75276 93.6526 3.49595 94.6065 3.49595C95.4723 3.49595 96.1302 3.74542 96.5802 4.24435C97.0351 4.7384 97.2626 5.44033 97.2626 6.35015V11.8384H95.8318ZM94.1369 10.459C94.494 10.459 94.7777 10.3001 94.988 9.98211C95.2032 9.65927 95.3109 9.23126 95.3109 8.69808V8.00838L94.7092 8.03773C94.2641 8.06219 93.9363 8.18937 93.726 8.41927C93.5206 8.64917 93.4178 8.99158 93.4178 9.44649C93.4178 10.1215 93.6575 10.459 94.1369 10.459Z"
        fill="#D9E1E2"
      />
      <path
        d="M102.777 9.44649C102.777 10.2438 102.542 10.8675 102.073 11.3175C101.608 11.7626 100.921 11.9852 100.011 11.9852C99.2037 11.9852 98.536 11.8262 98.0078 11.5083V9.81335C98.2768 9.99923 98.5898 10.1533 98.9469 10.2756C99.3089 10.3979 99.6268 10.459 99.9008 10.459C100.204 10.459 100.434 10.3857 100.59 10.2389C100.752 10.0873 100.833 9.88917 100.833 9.64459C100.833 9.39513 100.749 9.17745 100.583 8.99158C100.417 8.8057 100.111 8.57824 99.666 8.30921C99.0741 7.95702 98.6485 7.58282 98.3893 7.1866C98.1349 6.7855 98.0078 6.31347 98.0078 5.77051C98.0078 5.07591 98.245 4.52562 98.7195 4.11962C99.1988 3.71362 99.8543 3.51063 100.686 3.51063C101.41 3.51063 102.092 3.7014 102.733 4.08293L102.095 5.48435C101.571 5.20065 101.111 5.05879 100.715 5.05879C100.466 5.05879 100.277 5.12483 100.15 5.2569C100.028 5.38897 99.9668 5.55039 99.9668 5.74116C99.9668 5.96128 100.043 6.15694 100.194 6.32814C100.351 6.49935 100.639 6.71213 101.06 6.96649C101.569 7.27465 101.926 7.53635 102.131 7.75158C102.337 7.9668 102.496 8.21138 102.608 8.4853C102.721 8.75923 102.777 9.07962 102.777 9.44649Z"
        fill="#D9E1E2"
      />
      <path
        d="M107.631 11.8384V6.96649C107.631 5.76806 107.33 5.16885 106.729 5.16885C106.279 5.16885 105.963 5.40609 105.782 5.88057C105.601 6.35015 105.511 7.02763 105.511 7.913V11.8384H103.559V0.421631H105.511V2.96033C105.511 3.28806 105.481 3.8726 105.423 4.71394H105.525C105.917 3.91173 106.518 3.51063 107.33 3.51063C108.079 3.51063 108.644 3.76499 109.025 4.2737C109.407 4.77753 109.597 5.52104 109.597 6.50424V11.8384H107.631Z"
        fill="#D9E1E2"
      />
      <path
        d="M114.415 3.51063C115.158 3.51063 115.743 3.87994 116.168 4.61856C116.594 5.35718 116.807 6.39662 116.807 7.7369C116.807 9.09185 116.592 10.1386 116.161 10.8773C115.736 11.6159 115.144 11.9852 114.385 11.9852C114.019 11.9852 113.693 11.9069 113.41 11.7504C113.131 11.589 112.867 11.3077 112.617 10.9066H112.492L112.162 11.8384H110.724V0.421631H112.676V3.0924C112.676 3.20491 112.673 3.3223 112.669 3.44459C112.664 3.56688 112.632 3.99489 112.573 4.72861H112.676C112.916 4.27859 113.175 3.96309 113.454 3.78211C113.732 3.60112 114.053 3.51063 114.415 3.51063ZM113.74 5.16885C113.368 5.16885 113.099 5.3425 112.933 5.6898C112.771 6.0371 112.686 6.64854 112.676 7.52412V7.72223C112.676 8.67118 112.759 9.33887 112.925 9.7253C113.097 10.1117 113.373 10.3049 113.754 10.3049C114.459 10.3049 114.811 9.43915 114.811 7.70755C114.811 6.01508 114.454 5.16885 113.74 5.16885Z"
        fill="#D9E1E2"
      />
      <path
        d="M123.781 7.7369C123.781 9.07718 123.498 10.1215 122.93 10.8699C122.363 11.6134 121.585 11.9852 120.597 11.9852C119.971 11.9852 119.418 11.814 118.939 11.4716C118.459 11.1292 118.09 10.6376 117.831 9.99678C117.571 9.3511 117.442 8.59781 117.442 7.7369C117.442 6.4113 117.723 5.37674 118.286 4.63323C118.848 3.88483 119.628 3.51063 120.626 3.51063C121.59 3.51063 122.355 3.89216 122.923 4.65524C123.495 5.41343 123.781 6.44065 123.781 7.7369ZM119.438 7.7369C119.438 8.58802 119.531 9.23126 119.716 9.66661C119.902 10.102 120.201 10.3196 120.612 10.3196C121.394 10.3196 121.786 9.45872 121.786 7.7369C121.786 6.88088 121.69 6.24254 121.499 5.82187C121.314 5.39631 121.018 5.18353 120.612 5.18353C120.201 5.18353 119.902 5.39631 119.716 5.82187C119.531 6.24254 119.438 6.88088 119.438 7.7369Z"
        fill="#D9E1E2"
      />
      <path
        d="M128.709 11.8384L128.32 10.7232H128.276C127.987 11.2025 127.689 11.5327 127.381 11.7137C127.072 11.8947 126.684 11.9852 126.214 11.9852C125.612 11.9852 125.138 11.7602 124.791 11.3102C124.448 10.8601 124.277 10.234 124.277 9.43181C124.277 8.5709 124.512 7.93256 124.981 7.51678C125.456 7.09611 126.163 6.86376 127.102 6.81974L128.188 6.77572V6.18873C128.188 5.42566 127.858 5.04412 127.197 5.04412C126.708 5.04412 126.146 5.23489 125.51 5.61643L124.835 4.26637C125.647 3.75276 126.53 3.49595 127.483 3.49595C128.349 3.49595 129.007 3.74542 129.457 4.24435C129.912 4.7384 130.139 5.44033 130.139 6.35015V11.8384H128.709ZM127.014 10.459C127.371 10.459 127.655 10.3001 127.865 9.98211C128.08 9.65927 128.188 9.23126 128.188 8.69808V8.00838L127.586 8.03773C127.141 8.06219 126.813 8.18937 126.603 8.41927C126.397 8.64917 126.295 8.99158 126.295 9.44649C126.295 10.1215 126.534 10.459 127.014 10.459Z"
        fill="#D9E1E2"
      />
      <path
        d="M134.751 3.51063C134.991 3.51063 135.226 3.54731 135.456 3.62069L135.228 5.5137C135.091 5.46479 134.913 5.44033 134.693 5.44033C134.218 5.44033 133.854 5.62866 133.599 6.0053C133.345 6.37706 133.218 6.92002 133.218 7.63418V11.8384H131.266V3.66471H132.873L133.093 4.9414H133.159C133.374 4.42779 133.609 4.06092 133.864 3.8408C134.118 3.62069 134.414 3.51063 134.751 3.51063Z"
        fill="#D9E1E2"
      />
      <path
        d="M138.028 11.9852C137.275 11.9852 136.68 11.6134 136.245 10.8699C135.81 10.1264 135.592 9.09185 135.592 7.76625C135.592 6.43576 135.805 5.39386 136.23 4.64057C136.656 3.88727 137.243 3.51063 137.991 3.51063C138.363 3.51063 138.683 3.60357 138.952 3.78944C139.226 3.97043 139.478 4.2786 139.708 4.71394H139.826C139.767 3.97043 139.738 3.44948 139.738 3.1511V0.421631H141.689V11.8384H140.236L139.906 10.7745H139.84C139.424 11.5816 138.82 11.9852 138.028 11.9852ZM138.659 10.3343C139.021 10.3343 139.285 10.1704 139.451 9.8427C139.618 9.51008 139.708 8.90842 139.723 8.03773V7.78092C139.723 6.83197 139.637 6.16428 139.466 5.77785C139.3 5.39142 139.023 5.1982 138.637 5.1982C138.275 5.1982 138.011 5.42076 137.844 5.86589C137.683 6.30613 137.602 6.94937 137.602 7.7956C137.602 8.64183 137.686 9.27773 137.852 9.70329C138.018 10.124 138.287 10.3343 138.659 10.3343Z"
        fill="#D9E1E2"
      />
      <path
        d="M147.27 9.44649C147.27 10.2438 147.035 10.8675 146.565 11.3175C146.101 11.7626 145.413 11.9852 144.504 11.9852C143.696 11.9852 143.029 11.8262 142.5 11.5083V9.81335C142.769 9.99923 143.083 10.1533 143.44 10.2756C143.802 10.3979 144.12 10.459 144.393 10.459C144.697 10.459 144.927 10.3857 145.083 10.2389C145.245 10.0873 145.325 9.88917 145.325 9.64459C145.325 9.39513 145.242 9.17745 145.076 8.99158C144.91 8.8057 144.604 8.57824 144.159 8.30921C143.567 7.95702 143.141 7.58282 142.882 7.1866C142.628 6.7855 142.5 6.31347 142.5 5.77051C142.5 5.07591 142.738 4.52562 143.212 4.11962C143.692 3.71362 144.347 3.51063 145.179 3.51063C145.902 3.51063 146.585 3.7014 147.226 4.08293L146.587 5.48435C146.064 5.20065 145.604 5.05879 145.208 5.05879C144.958 5.05879 144.77 5.12483 144.643 5.2569C144.521 5.38897 144.459 5.55039 144.459 5.74116C144.459 5.96128 144.535 6.15694 144.687 6.32814C144.843 6.49935 145.132 6.71213 145.553 6.96649C146.061 7.27465 146.419 7.53635 146.624 7.75158C146.829 7.9668 146.988 8.21138 147.101 8.4853C147.213 8.75923 147.27 9.07962 147.27 9.44649Z"
        fill="#D9E1E2"
      />
    </svg>