<svg width="243" height="186" viewBox="0 0 243 186" fill="none" xmlns="http://www.w3.org/2000/svg">
<g opacity="0.5">
<path d="M0 98.6C0 97.1641 1.14799 96 2.5641 96H97.4359C98.852 96 100 97.1641 100 98.6V119.4C100 120.836 98.852 122 97.4359 122H2.5641C1.14799 122 0 120.836 0 119.4V98.6Z" fill="#EFF4F9"/>
<path fill-rule="evenodd" clip-rule="evenodd" d="M97.4359 98.6H2.5641L2.5641 119.4H97.4359V98.6ZM2.5641 96C1.14799 96 0 97.1641 0 98.6V119.4C0 120.836 1.14799 122 2.5641 122H97.4359C98.852 122 100 120.836 100 119.4V98.6C100 97.1641 98.852 96 97.4359 96H2.5641Z" fill="#343741"/>
<path d="M15.155 103.091L14.6642 105.413H16.4707L16.0426 107.433H14.2361L13.359 111.723C13.3102 112.016 13.3329 112.238 13.4268 112.387C13.5208 112.537 13.7558 112.617 14.1317 112.629C14.2779 112.635 14.5772 112.62 15.0297 112.586L14.7791 114.692C14.2013 114.847 13.5852 114.919 12.9308 114.908C11.8657 114.896 11.0687 114.637 10.5396 114.131C10.0105 113.625 9.79474 112.937 9.8922 112.068L10.8111 107.433H9.41187L9.82955 105.413H11.2288L11.7196 103.091H15.155Z" fill="#4A7194"/>
<path fill-rule="evenodd" clip-rule="evenodd" d="M22.353 109C22.353 108.347 22.9324 107.818 23.6471 107.818H34.0001C34.7148 107.818 35.2942 108.347 35.2942 109C35.2942 109.653 34.7148 110.182 34.0001 110.182H23.6471C22.9324 110.182 22.353 109.653 22.353 109Z" fill="#343741"/>
<path fill-rule="evenodd" clip-rule="evenodd" d="M43.5293 109C43.5293 108.347 44.0999 107.818 44.8038 107.818L88.1371 107.818C88.841 107.818 89.4117 108.347 89.4117 109C89.4117 109.653 88.841 110.182 88.1371 110.182L44.8038 110.182C44.0999 110.182 43.5293 109.653 43.5293 109Z" fill="#343741"/>
<path d="M0 66.6C0 65.1641 1.14799 64 2.5641 64H97.4359C98.852 64 100 65.1641 100 66.6V87.4C100 88.8359 98.852 90 97.4359 90H2.5641C1.14799 90 0 88.8359 0 87.4V66.6Z" fill="#EFF4F9"/>
<path fill-rule="evenodd" clip-rule="evenodd" d="M97.4359 66.6H2.5641L2.5641 87.4H97.4359V66.6ZM2.5641 64C1.14799 64 0 65.1641 0 66.6V87.4C0 88.8359 1.14799 90 2.5641 90H97.4359C98.852 90 100 88.8359 100 87.4V66.6C100 65.1641 98.852 64 97.4359 64H2.5641Z" fill="#343741"/>
<path d="M15.155 69.9092L14.6642 72.4633H16.4707L16.0426 74.6852H14.2361L13.359 79.4042C13.3102 79.727 13.3329 79.9707 13.4268 80.1353C13.5208 80.2999 13.7558 80.3885 14.1317 80.4012C14.2779 80.4075 14.5772 80.3917 15.0297 80.3537L14.7791 82.6705C14.2013 82.8414 13.5852 82.9205 12.9308 82.9079C11.8657 82.8952 11.0687 82.6104 10.5396 82.0533C10.0105 81.4963 9.79474 80.7398 9.8922 79.784L10.8111 74.6852H9.41187L9.82955 72.4633H11.2288L11.7196 69.9092H15.155Z" fill="#4A7194"/>
<path fill-rule="evenodd" clip-rule="evenodd" d="M22.353 76.9999C22.353 76.3472 22.9324 75.8181 23.6471 75.8181H34.0001C34.7148 75.8181 35.2942 76.3472 35.2942 76.9999C35.2942 77.6526 34.7148 78.1818 34.0001 78.1818H23.6471C22.9324 78.1818 22.353 77.6526 22.353 76.9999Z" fill="#343741"/>
<path fill-rule="evenodd" clip-rule="evenodd" d="M43.5293 76.9999C43.5293 76.3472 44.0999 75.8181 44.8038 75.8181L88.1371 75.8181C88.841 75.8181 89.4117 76.3472 89.4117 76.9999C89.4117 77.6526 88.841 78.1818 88.1371 78.1818L44.8038 78.1817C44.0999 78.1817 43.5293 77.6526 43.5293 76.9999Z" fill="#343741"/>
<path d="M0 34.6C0 33.1641 1.14799 32 2.5641 32H97.4359C98.852 32 100 33.1641 100 34.6V55.4C100 56.8359 98.852 58 97.4359 58H2.5641C1.14799 58 0 56.8359 0 55.4V34.6Z" fill="#EFF4F9"/>
<path fill-rule="evenodd" clip-rule="evenodd" d="M97.4359 34.6H2.5641L2.5641 55.4H97.4359V34.6ZM2.5641 32C1.14799 32 0 33.1641 0 34.6V55.4C0 56.8359 1.14799 58 2.5641 58H97.4359C98.852 58 100 56.8359 100 55.4V34.6C100 33.1641 98.852 32 97.4359 32H2.5641Z" fill="#343741"/>
<path d="M15.155 37.9092L14.6642 40.4633H16.4707L16.0426 42.6852H14.2361L13.359 47.4042C13.3102 47.727 13.3329 47.9707 13.4268 48.1353C13.5208 48.2999 13.7558 48.3885 14.1317 48.4012C14.2779 48.4075 14.5772 48.3917 15.0297 48.3537L14.7791 50.6705C14.2013 50.8414 13.5852 50.9205 12.9308 50.9079C11.8657 50.8952 11.0687 50.6104 10.5396 50.0533C10.0105 49.4963 9.79474 48.7398 9.8922 47.784L10.8111 42.6852H9.41187L9.82955 40.4633H11.2288L11.7196 37.9092H15.155Z" fill="#4A7194"/>
<path fill-rule="evenodd" clip-rule="evenodd" d="M22.353 44.9999C22.353 44.3472 22.9324 43.8181 23.6471 43.8181H34.0001C34.7148 43.8181 35.2942 44.3472 35.2942 44.9999C35.2942 45.6526 34.7148 46.1818 34.0001 46.1818H23.6471C22.9324 46.1818 22.353 45.6526 22.353 44.9999Z" fill="#343741"/>
<path fill-rule="evenodd" clip-rule="evenodd" d="M43.5293 44.9999C43.5293 44.3472 44.0999 43.8181 44.8038 43.8181L88.1371 43.8181C88.841 43.8181 89.4117 44.3472 89.4117 44.9999C89.4117 45.6526 88.841 46.1818 88.1371 46.1818L44.8038 46.1817C44.0999 46.1817 43.5293 45.6526 43.5293 44.9999Z" fill="#343741"/>
<path d="M0 2.6C0 1.16406 1.14799 0 2.5641 0H97.4359C98.852 0 100 1.16406 100 2.6V23.4C100 24.8359 98.852 26 97.4359 26H2.5641C1.14799 26 0 24.8359 0 23.4V2.6Z" fill="#EFF4F9"/>
<path fill-rule="evenodd" clip-rule="evenodd" d="M97.4359 2.6H2.5641L2.5641 23.4H97.4359V2.6ZM2.5641 0C1.14799 0 0 1.16406 0 2.6V23.4C0 24.8359 1.14799 26 2.5641 26H97.4359C98.852 26 100 24.8359 100 23.4V2.6C100 1.16406 98.852 0 97.4359 0H2.5641Z" fill="#343741"/>
<path d="M15.155 5.90918L14.6642 8.46334H16.4707L16.0426 10.6852H14.2361L13.359 15.4042C13.3102 15.727 13.3329 15.9707 13.4268 16.1353C13.5208 16.2999 13.7558 16.3885 14.1317 16.4012C14.2779 16.4075 14.5772 16.3917 15.0297 16.3537L14.7791 18.6705C14.2013 18.8414 13.5852 18.9205 12.9308 18.9079C11.8657 18.8952 11.0687 18.6104 10.5396 18.0533C10.0105 17.4963 9.79474 16.7398 9.8922 15.784L10.8111 10.6852H9.41187L9.82955 8.46334H11.2288L11.7196 5.90918H15.155Z" fill="#4A7194"/>
<path fill-rule="evenodd" clip-rule="evenodd" d="M22.353 12.9999C22.353 12.3472 22.9324 11.8181 23.6471 11.8181H34.0001C34.7148 11.8181 35.2942 12.3472 35.2942 12.9999C35.2942 13.6526 34.7148 14.1818 34.0001 14.1818H23.6471C22.9324 14.1818 22.353 13.6526 22.353 12.9999Z" fill="#343741"/>
<path fill-rule="evenodd" clip-rule="evenodd" d="M43.5293 12.9999C43.5293 12.3472 44.0999 11.8181 44.8038 11.8181L88.1371 11.8181C88.841 11.8181 89.4117 12.3472 89.4117 12.9999C89.4117 13.6526 88.841 14.1818 88.1371 14.1818L44.8038 14.1817C44.0999 14.1817 43.5293 13.6526 43.5293 12.9999Z" fill="#343741"/>
<path d="M0 130.6C0 129.164 1.14799 128 2.5641 128H97.4359C98.852 128 100 129.164 100 130.6V151.4C100 152.836 98.852 154 97.4359 154H2.5641C1.14799 154 0 152.836 0 151.4V130.6Z" fill="#EFF4F9"/>
<path fill-rule="evenodd" clip-rule="evenodd" d="M97.4359 130.6H2.5641L2.5641 151.4H97.4359V130.6ZM2.5641 128C1.14799 128 0 129.164 0 130.6V151.4C0 152.836 1.14799 154 2.5641 154H97.4359C98.852 154 100 152.836 100 151.4V130.6C100 129.164 98.852 128 97.4359 128H2.5641Z" fill="#343741"/>
<path d="M12.6653 143.581H11.4987L10.4188 146.909H8.83443L9.91433 143.581H8.23535L8.48759 142.096H10.3873L11.0888 139.953H9.41773L9.67786 138.468H11.5697L12.6653 135.091H14.2419L13.1462 138.468H14.3207L15.4164 135.091H17.0007L15.9051 138.468H17.6471L17.3949 139.953H15.4321L14.7306 142.096H16.4569L16.2046 143.581H14.2497L13.1777 146.909H11.5933L12.6653 143.581ZM11.9717 142.096H13.1383L13.8477 139.953H12.6732L11.9717 142.096Z" fill="#387765"/>
<path fill-rule="evenodd" clip-rule="evenodd" d="M22.353 141C22.353 140.347 22.9324 139.818 23.6471 139.818H34.0001C34.7148 139.818 35.2942 140.347 35.2942 141C35.2942 141.653 34.7148 142.182 34.0001 142.182H23.6471C22.9324 142.182 22.353 141.653 22.353 141Z" fill="#343741"/>
<path fill-rule="evenodd" clip-rule="evenodd" d="M43.5293 141C43.5293 140.347 44.0999 139.818 44.8038 139.818L88.1371 139.818C88.841 139.818 89.4117 140.347 89.4117 141C89.4117 141.653 88.841 142.182 88.1371 142.182L44.8038 142.182C44.0999 142.182 43.5293 141.653 43.5293 141Z" fill="#343741"/>
<path d="M0 162.6C0 161.164 1.14799 160 2.5641 160H97.4359C98.852 160 100 161.164 100 162.6V183.4C100 184.836 98.852 186 97.4359 186H2.5641C1.14799 186 0 184.836 0 183.4V162.6Z" fill="#EFF4F9"/>
<path fill-rule="evenodd" clip-rule="evenodd" d="M97.4359 162.6H2.5641L2.5641 183.4H97.4359V162.6ZM2.5641 160C1.14799 160 0 161.164 0 162.6V183.4C0 184.836 1.14799 186 2.5641 186H97.4359C98.852 186 100 184.836 100 183.4V162.6C100 161.164 98.852 160 97.4359 160H2.5641Z" fill="#343741"/>
<path fill-rule="evenodd" clip-rule="evenodd" d="M18.8236 178.398C18.8236 179.333 18.1451 180.091 17.3066 180.091H9.75239C8.91455 180.091 8.23535 179.334 8.23535 178.398V169.966C8.23535 169.031 8.9138 168.273 9.75239 168.273H11.4118V167.687C11.4118 167.395 11.6059 167.151 11.8483 167.101L11.9412 167.091C12.2336 167.091 12.4706 167.344 12.4706 167.687V168.273H14.5883V167.687C14.5883 167.395 14.7823 167.151 15.0248 167.101L15.1177 167.091C15.4101 167.091 15.6471 167.344 15.6471 167.687V168.273H17.3066C18.1444 168.273 18.8236 169.03 18.8236 169.966V178.398ZM9.29418 171.818V178.117C9.29418 178.555 9.61176 178.909 10.0042 178.909H17.0547C17.4473 178.909 17.7648 178.555 17.7648 178.117V171.818H9.29418ZM10.8824 176.545C11.1423 176.545 11.3585 176.762 11.4033 177.033L11.4118 177.136C11.4118 177.426 11.2178 177.668 10.9753 177.718L10.8824 177.727C10.59 177.727 10.353 177.453 10.353 177.136C10.353 176.846 10.547 176.605 10.7895 176.555L10.8824 176.545ZM13.5295 176.545C13.7894 176.545 14.0055 176.762 14.0504 177.033L14.0589 177.136C14.0589 177.426 13.8648 177.668 13.6224 177.718L13.5295 177.727C13.2371 177.727 13.0001 177.453 13.0001 177.136C13.0001 176.846 13.1941 176.605 13.4366 176.555L13.5295 176.545ZM16.1765 176.545C16.4364 176.545 16.6526 176.762 16.6974 177.033L16.7059 177.136C16.7059 177.426 16.5119 177.668 16.2694 177.718L16.1765 177.727C15.8841 177.727 15.6471 177.453 15.6471 177.136C15.6471 176.846 15.8412 176.605 16.0836 176.555L16.1765 176.545ZM10.8824 174.773C11.1423 174.773 11.3585 174.989 11.4033 175.26L11.4118 175.364C11.4118 175.654 11.2178 175.895 10.9753 175.945L10.8824 175.955C10.59 175.955 10.353 175.68 10.353 175.364C10.353 175.074 10.547 174.832 10.7895 174.782L10.8824 174.773ZM13.5295 174.773C13.7894 174.773 14.0055 174.989 14.0504 175.26L14.0589 175.364C14.0589 175.654 13.8648 175.895 13.6224 175.945L13.5295 175.955C13.2371 175.955 13.0001 175.68 13.0001 175.364C13.0001 175.074 13.1941 174.832 13.4366 174.782L13.5295 174.773ZM16.1765 174.773C16.4364 174.773 16.6526 174.989 16.6974 175.26L16.7059 175.364C16.7059 175.654 16.5119 175.895 16.2694 175.945L16.1765 175.955C15.8841 175.955 15.6471 175.68 15.6471 175.364C15.6471 175.074 15.8412 174.832 16.0836 174.782L16.1765 174.773ZM10.8824 173C11.1423 173 11.3585 173.217 11.4033 173.487L11.4118 173.591C11.4118 173.881 11.2178 174.122 10.9753 174.172L10.8824 174.182C10.59 174.182 10.353 173.908 10.353 173.591C10.353 173.301 10.547 173.06 10.7895 173.01L10.8824 173ZM13.5295 173C13.7894 173 14.0055 173.217 14.0504 173.487L14.0589 173.591C14.0589 173.881 13.8648 174.122 13.6224 174.172L13.5295 174.182C13.2371 174.182 13.0001 173.908 13.0001 173.591C13.0001 173.301 13.1941 173.06 13.4366 173.01L13.5295 173ZM16.1765 173C16.4364 173 16.6526 173.217 16.6974 173.487L16.7059 173.591C16.7059 173.881 16.5119 174.122 16.2694 174.172L16.1765 174.182C15.8841 174.182 15.6471 173.908 15.6471 173.591C15.6471 173.301 15.8412 173.06 16.0836 173.01L16.1765 173ZM9.29418 170.636H17.7648V170.247C17.7648 169.809 17.4472 169.455 17.0547 169.455H10.0042C9.61166 169.455 9.29418 169.809 9.29418 170.247V170.636Z" fill="#7B705A"/>
<path fill-rule="evenodd" clip-rule="evenodd" d="M22.353 173C22.353 172.347 22.9324 171.818 23.6471 171.818H34.0001C34.7148 171.818 35.2942 172.347 35.2942 173C35.2942 173.653 34.7148 174.182 34.0001 174.182H23.6471C22.9324 174.182 22.353 173.653 22.353 173Z" fill="#343741"/>
<path fill-rule="evenodd" clip-rule="evenodd" d="M43.5293 173C43.5293 172.347 44.0999 171.818 44.8038 171.818L88.1371 171.818C88.841 171.818 89.4117 172.347 89.4117 173C89.4117 173.653 88.841 174.182 88.1371 174.182L44.8038 174.182C44.0999 174.182 43.5293 173.653 43.5293 173Z" fill="#343741"/>
</g>
<g opacity="0.5">
<path d="M143 66.6C143 65.1641 144.148 64 145.564 64H240.436C241.852 64 243 65.1641 243 66.6V87.4C243 88.8359 241.852 90 240.436 90H145.564C144.148 90 143 88.8359 143 87.4V66.6Z" fill="#EFF4F9"/>
<path fill-rule="evenodd" clip-rule="evenodd" d="M240.436 66.6H145.564L145.564 87.4H240.436V66.6ZM145.564 64C144.148 64 143 65.1641 143 66.6V87.4C143 88.8359 144.148 90 145.564 90H240.436C241.852 90 243 88.8359 243 87.4V66.6C243 65.1641 241.852 64 240.436 64H145.564Z" fill="#343741"/>
<path fill-rule="evenodd" clip-rule="evenodd" d="M220 77C220 76.4477 220.149 76 220.333 76L231.667 76C231.851 76 232 76.4477 232 77C232 77.5523 231.851 78 231.667 78L220.333 78C220.149 78 220 77.5523 220 77Z" fill="#343741"/>
<path fill-rule="evenodd" clip-rule="evenodd" d="M226 71C226.552 71 227 71.1492 227 71.3333L227 82.6667C227 82.8508 226.552 83 226 83C225.448 83 225 82.8508 225 82.6667L225 71.3333C225 71.1492 225.448 71 226 71Z" fill="#343741"/>
<path d="M143 98.6C143 97.1641 144.148 96 145.564 96H240.436C241.852 96 243 97.1641 243 98.6V119.4C243 120.836 241.852 122 240.436 122H145.564C144.148 122 143 120.836 143 119.4V98.6Z" fill="#EFF4F9"/>
<path fill-rule="evenodd" clip-rule="evenodd" d="M240.436 98.6H145.564L145.564 119.4H240.436V98.6ZM145.564 96C144.148 96 143 97.1641 143 98.6V119.4C143 120.836 144.148 122 145.564 122H240.436C241.852 122 243 120.836 243 119.4V98.6C243 97.1641 241.852 96 240.436 96H145.564Z" fill="#343741"/>
<path fill-rule="evenodd" clip-rule="evenodd" d="M220 109C220 108.448 220.149 108 220.333 108L231.667 108C231.851 108 232 108.448 232 109C232 109.552 231.851 110 231.667 110L220.333 110C220.149 110 220 109.552 220 109Z" fill="#343741"/>
<path fill-rule="evenodd" clip-rule="evenodd" d="M226 103C226.552 103 227 103.149 227 103.333L227 114.667C227 114.851 226.552 115 226 115C225.448 115 225 114.851 225 114.667L225 103.333C225 103.149 225.448 103 226 103Z" fill="#343741"/>
<path d="M143 130.6C143 129.164 144.148 128 145.564 128H240.436C241.852 128 243 129.164 243 130.6V151.4C243 152.836 241.852 154 240.436 154H145.564C144.148 154 143 152.836 143 151.4V130.6Z" fill="#EFF4F9"/>
<path fill-rule="evenodd" clip-rule="evenodd" d="M240.436 130.6H145.564L145.564 151.4H240.436V130.6ZM145.564 128C144.148 128 143 129.164 143 130.6V151.4C143 152.836 144.148 154 145.564 154H240.436C241.852 154 243 152.836 243 151.4V130.6C243 129.164 241.852 128 240.436 128H145.564Z" fill="#343741"/>
<path fill-rule="evenodd" clip-rule="evenodd" d="M220 141C220 140.448 220.149 140 220.333 140L231.667 140C231.851 140 232 140.448 232 141C232 141.552 231.851 142 231.667 142L220.333 142C220.149 142 220 141.552 220 141Z" fill="#343741"/>
<path fill-rule="evenodd" clip-rule="evenodd" d="M226 135C226.552 135 227 135.149 227 135.333L227 146.667C227 146.851 226.552 147 226 147C225.448 147 225 146.851 225 146.667L225 135.333C225 135.149 225.448 135 226 135Z" fill="#343741"/>
<path d="M143 162.6C143 161.164 144.148 160 145.564 160H240.436C241.852 160 243 161.164 243 162.6V183.4C243 184.836 241.852 186 240.436 186H145.564C144.148 186 143 184.836 143 183.4V162.6Z" fill="#EFF4F9"/>
<path fill-rule="evenodd" clip-rule="evenodd" d="M240.436 162.6H145.564L145.564 183.4H240.436V162.6ZM145.564 160C144.148 160 143 161.164 143 162.6V183.4C143 184.836 144.148 186 145.564 186H240.436C241.852 186 243 184.836 243 183.4V162.6C243 161.164 241.852 160 240.436 160H145.564Z" fill="#343741"/>
<path fill-rule="evenodd" clip-rule="evenodd" d="M220 173C220 172.448 220.149 172 220.333 172L231.667 172C231.851 172 232 172.448 232 173C232 173.552 231.851 174 231.667 174L220.333 174C220.149 174 220 173.552 220 173Z" fill="#343741"/>
<path fill-rule="evenodd" clip-rule="evenodd" d="M226 167C226.552 167 227 167.149 227 167.333L227 178.667C227 178.851 226.552 179 226 179C225.448 179 225 178.851 225 178.667L225 167.333C225 167.149 225.448 167 226 167Z" fill="#343741"/>
<path d="M143 34.6C143 33.1641 144.148 32 145.564 32H240.436C241.852 32 243 33.1641 243 34.6V55.4C243 56.8359 241.852 58 240.436 58H145.564C144.148 58 143 56.8359 143 55.4V34.6Z" fill="#EFF4F9"/>
<path fill-rule="evenodd" clip-rule="evenodd" d="M240.436 34.6H145.564L145.564 55.4H240.436V34.6ZM145.564 32C144.148 32 143 33.1641 143 34.6V55.4C143 56.8359 144.148 58 145.564 58H240.436C241.852 58 243 56.8359 243 55.4V34.6C243 33.1641 241.852 32 240.436 32H145.564Z" fill="#343741"/>
<path fill-rule="evenodd" clip-rule="evenodd" d="M220 45C220 44.4477 220.149 44 220.333 44L231.667 44C231.851 44 232 44.4477 232 45C232 45.5523 231.851 46 231.667 46L220.333 46C220.149 46 220 45.5523 220 45Z" fill="#343741"/>
<path fill-rule="evenodd" clip-rule="evenodd" d="M226 39C226.552 39 227 39.1492 227 39.3333L227 50.6667C227 50.8508 226.552 51 226 51C225.448 51 225 50.8508 225 50.6667L225 39.3333C225 39.1492 225.448 39 226 39Z" fill="#343741"/>
<path d="M143 2.6C143 1.16406 144.148 0 145.564 0H240.436C241.852 0 243 1.16406 243 2.6V23.4C243 24.8359 241.852 26 240.436 26H145.564C144.148 26 143 24.8359 143 23.4V2.6Z" fill="#EFF4F9"/>
<path fill-rule="evenodd" clip-rule="evenodd" d="M240.436 2.6H145.564L145.564 23.4H240.436V2.6ZM145.564 0C144.148 0 143 1.16406 143 2.6V23.4C143 24.8359 144.148 26 145.564 26H240.436C241.852 26 243 24.8359 243 23.4V2.6C243 1.16406 241.852 0 240.436 0H145.564Z" fill="#343741"/>
<path fill-rule="evenodd" clip-rule="evenodd" d="M220 13C220 12.4477 220.149 12 220.333 12L231.667 12C231.851 12 232 12.4477 232 13C232 13.5523 231.851 14 231.667 14L220.333 14C220.149 14 220 13.5523 220 13Z" fill="#343741"/>
<path fill-rule="evenodd" clip-rule="evenodd" d="M226 7C226.552 7 227 7.14924 227 7.33333L227 18.6667C227 18.8508 226.552 19 226 19C225.448 19 225 18.8508 225 18.6667L225 7.33333C225 7.14924 225.448 7 226 7Z" fill="#343741"/>
</g>
<line opacity="0.5" x1="121.5" y1="1.5" x2="121.5" y2="184.5" stroke="#343741" stroke-width="3" stroke-linecap="round"/>
</svg>
