<svg width="336" height="220" viewBox="0 0 336 220" fill="none" xmlns="http://www.w3.org/2000/svg">
<rect x="118" y="2" width="216" height="216" rx="2" fill="url(#paint0_diamond_169_44976)" stroke="#006BB4" stroke-width="4" stroke-linecap="round" stroke-dasharray="80 80"/>
<g opacity="0.5">
<path d="M0 99.6C0 98.1641 1.14799 97 2.5641 97H97.4359C98.852 97 100 98.1641 100 99.6V120.4C100 121.836 98.852 123 97.4359 123H2.5641C1.14799 123 0 121.836 0 120.4V99.6Z" fill="#EFF4F9"/>
<path fill-rule="evenodd" clip-rule="evenodd" d="M97.4359 99.6H2.5641L2.5641 120.4H97.4359V99.6ZM2.5641 97C1.14799 97 0 98.1641 0 99.6V120.4C0 121.836 1.14799 123 2.5641 123H97.4359C98.852 123 100 121.836 100 120.4V99.6C100 98.1641 98.852 97 97.4359 97H2.5641Z" fill="#343741"/>
<path d="M15.155 104.091L14.6642 106.413H16.4707L16.0426 108.433H14.2361L13.359 112.723C13.3102 113.016 13.3329 113.238 13.4268 113.387C13.5208 113.537 13.7558 113.618 14.1317 113.629C14.2779 113.635 14.5772 113.62 15.0297 113.586L14.7791 115.692C14.2013 115.847 13.5852 115.919 12.9308 115.908C11.8657 115.896 11.0687 115.637 10.5396 115.131C10.0105 114.625 9.79474 113.937 9.8922 113.068L10.8111 108.433H9.41187L9.82955 106.413H11.2288L11.7196 104.091H15.155Z" fill="#4A7194"/>
<path fill-rule="evenodd" clip-rule="evenodd" d="M22.353 110C22.353 109.347 22.9324 108.818 23.6471 108.818H34.0001C34.7148 108.818 35.2942 109.347 35.2942 110C35.2942 110.653 34.7148 111.182 34.0001 111.182H23.6471C22.9324 111.182 22.353 110.653 22.353 110Z" fill="#343741"/>
<path fill-rule="evenodd" clip-rule="evenodd" d="M43.5293 110C43.5293 109.347 44.0999 108.818 44.8038 108.818L88.1371 108.818C88.841 108.818 89.4117 109.347 89.4117 110C89.4117 110.653 88.841 111.182 88.1371 111.182L44.8038 111.182C44.0999 111.182 43.5293 110.653 43.5293 110Z" fill="#343741"/>
<path d="M0 67.6C0 66.1641 1.14799 65 2.5641 65H97.4359C98.852 65 100 66.1641 100 67.6V88.4C100 89.8359 98.852 91 97.4359 91H2.5641C1.14799 91 0 89.8359 0 88.4V67.6Z" fill="#EFF4F9"/>
<path fill-rule="evenodd" clip-rule="evenodd" d="M97.4359 67.6H2.5641L2.5641 88.4H97.4359V67.6ZM2.5641 65C1.14799 65 0 66.1641 0 67.6V88.4C0 89.8359 1.14799 91 2.5641 91H97.4359C98.852 91 100 89.8359 100 88.4V67.6C100 66.1641 98.852 65 97.4359 65H2.5641Z" fill="#343741"/>
<path d="M15.155 70.9091L14.6642 73.4633H16.4707L16.0426 75.6851H14.2361L13.359 80.4041C13.3102 80.727 13.3329 80.9707 13.4268 81.1353C13.5208 81.2998 13.7558 81.3885 14.1317 81.4011C14.2779 81.4075 14.5772 81.3916 15.0297 81.3536L14.7791 83.6704C14.2013 83.8413 13.5852 83.9205 12.9308 83.9078C11.8657 83.8951 11.0687 83.6103 10.5396 83.0533C10.0105 82.4962 9.79474 81.7398 9.8922 80.7839L10.8111 75.6851H9.41187L9.82955 73.4633H11.2288L11.7196 70.9091H15.155Z" fill="#4A7194"/>
<path fill-rule="evenodd" clip-rule="evenodd" d="M22.353 78C22.353 77.3473 22.9324 76.8182 23.6471 76.8182H34.0001C34.7148 76.8182 35.2942 77.3473 35.2942 78C35.2942 78.6527 34.7148 79.1818 34.0001 79.1818H23.6471C22.9324 79.1818 22.353 78.6527 22.353 78Z" fill="#343741"/>
<path fill-rule="evenodd" clip-rule="evenodd" d="M43.5293 78C43.5293 77.3473 44.0999 76.8182 44.8038 76.8182L88.1371 76.8182C88.841 76.8182 89.4117 77.3473 89.4117 78C89.4117 78.6527 88.841 79.1818 88.1371 79.1818L44.8038 79.1818C44.0999 79.1818 43.5293 78.6527 43.5293 78Z" fill="#343741"/>
<path d="M0 35.6C0 34.1641 1.14799 33 2.5641 33H97.4359C98.852 33 100 34.1641 100 35.6V56.4C100 57.8359 98.852 59 97.4359 59H2.5641C1.14799 59 0 57.8359 0 56.4V35.6Z" fill="#EFF4F9"/>
<path fill-rule="evenodd" clip-rule="evenodd" d="M97.4359 35.6H2.5641L2.5641 56.4H97.4359V35.6ZM2.5641 33C1.14799 33 0 34.1641 0 35.6V56.4C0 57.8359 1.14799 59 2.5641 59H97.4359C98.852 59 100 57.8359 100 56.4V35.6C100 34.1641 98.852 33 97.4359 33H2.5641Z" fill="#343741"/>
<path d="M15.155 38.9091L14.6642 41.4633H16.4707L16.0426 43.6851H14.2361L13.359 48.4041C13.3102 48.727 13.3329 48.9707 13.4268 49.1353C13.5208 49.2998 13.7558 49.3885 14.1317 49.4011C14.2779 49.4075 14.5772 49.3916 15.0297 49.3536L14.7791 51.6704C14.2013 51.8413 13.5852 51.9205 12.9308 51.9078C11.8657 51.8951 11.0687 51.6103 10.5396 51.0533C10.0105 50.4962 9.79474 49.7398 9.8922 48.7839L10.8111 43.6851H9.41187L9.82955 41.4633H11.2288L11.7196 38.9091H15.155Z" fill="#4A7194"/>
<path fill-rule="evenodd" clip-rule="evenodd" d="M22.353 46C22.353 45.3473 22.9324 44.8182 23.6471 44.8182H34.0001C34.7148 44.8182 35.2942 45.3473 35.2942 46C35.2942 46.6527 34.7148 47.1818 34.0001 47.1818H23.6471C22.9324 47.1818 22.353 46.6527 22.353 46Z" fill="#343741"/>
<path fill-rule="evenodd" clip-rule="evenodd" d="M43.5293 46C43.5293 45.3473 44.0999 44.8182 44.8038 44.8182L88.1371 44.8182C88.841 44.8182 89.4117 45.3473 89.4117 46C89.4117 46.6527 88.841 47.1818 88.1371 47.1818L44.8038 47.1818C44.0999 47.1818 43.5293 46.6527 43.5293 46Z" fill="#343741"/>
<path d="M0 131.6C0 130.164 1.14799 129 2.5641 129H97.4359C98.852 129 100 130.164 100 131.6V152.4C100 153.836 98.852 155 97.4359 155H2.5641C1.14799 155 0 153.836 0 152.4V131.6Z" fill="#EFF4F9"/>
<path fill-rule="evenodd" clip-rule="evenodd" d="M97.4359 131.6H2.5641L2.5641 152.4H97.4359V131.6ZM2.5641 129C1.14799 129 0 130.164 0 131.6V152.4C0 153.836 1.14799 155 2.5641 155H97.4359C98.852 155 100 153.836 100 152.4V131.6C100 130.164 98.852 129 97.4359 129H2.5641Z" fill="#343741"/>
<path d="M12.6653 144.581H11.4987L10.4188 147.909H8.83443L9.91433 144.581H8.23535L8.48759 143.096H10.3873L11.0888 140.953H9.41773L9.67786 139.468H11.5697L12.6653 136.091H14.2419L13.1462 139.468H14.3207L15.4164 136.091H17.0007L15.9051 139.468H17.6471L17.3949 140.953H15.4321L14.7306 143.096H16.4569L16.2046 144.581H14.2497L13.1777 147.909H11.5933L12.6653 144.581ZM11.9717 143.096H13.1383L13.8477 140.953H12.6732L11.9717 143.096Z" fill="#387765"/>
<path fill-rule="evenodd" clip-rule="evenodd" d="M22.353 142C22.353 141.347 22.9324 140.818 23.6471 140.818H34.0001C34.7148 140.818 35.2942 141.347 35.2942 142C35.2942 142.653 34.7148 143.182 34.0001 143.182H23.6471C22.9324 143.182 22.353 142.653 22.353 142Z" fill="#343741"/>
<path fill-rule="evenodd" clip-rule="evenodd" d="M43.5293 142C43.5293 141.347 44.0999 140.818 44.8038 140.818L88.1371 140.818C88.841 140.818 89.4117 141.347 89.4117 142C89.4117 142.653 88.841 143.182 88.1371 143.182L44.8038 143.182C44.0999 143.182 43.5293 142.653 43.5293 142Z" fill="#343741"/>
<path d="M0 163.6C0 162.164 1.14799 161 2.5641 161H97.4359C98.852 161 100 162.164 100 163.6V184.4C100 185.836 98.852 187 97.4359 187H2.5641C1.14799 187 0 185.836 0 184.4V163.6Z" fill="#EFF4F9"/>
<path fill-rule="evenodd" clip-rule="evenodd" d="M97.4359 163.6H2.5641L2.5641 184.4H97.4359V163.6ZM2.5641 161C1.14799 161 0 162.164 0 163.6V184.4C0 185.836 1.14799 187 2.5641 187H97.4359C98.852 187 100 185.836 100 184.4V163.6C100 162.164 98.852 161 97.4359 161H2.5641Z" fill="#343741"/>
<path fill-rule="evenodd" clip-rule="evenodd" d="M18.8236 179.398C18.8236 180.333 18.1451 181.091 17.3066 181.091H9.75239C8.91455 181.091 8.23535 180.334 8.23535 179.398V170.966C8.23535 170.031 8.9138 169.273 9.75239 169.273H11.4118V168.687C11.4118 168.395 11.6059 168.151 11.8483 168.1L11.9412 168.091C12.2336 168.091 12.4706 168.344 12.4706 168.687V169.273H14.5883V168.687C14.5883 168.395 14.7823 168.151 15.0248 168.1L15.1177 168.091C15.4101 168.091 15.6471 168.344 15.6471 168.687V169.273H17.3066C18.1444 169.273 18.8236 170.03 18.8236 170.966V179.398ZM9.29418 172.818V179.117C9.29418 179.555 9.61176 179.909 10.0042 179.909H17.0547C17.4473 179.909 17.7648 179.555 17.7648 179.117V172.818H9.29418ZM10.8824 177.545C11.1423 177.545 11.3585 177.762 11.4033 178.033L11.4118 178.136C11.4118 178.426 11.2178 178.668 10.9753 178.718L10.8824 178.727C10.59 178.727 10.353 178.453 10.353 178.136C10.353 177.846 10.547 177.605 10.7895 177.555L10.8824 177.545ZM13.5295 177.545C13.7894 177.545 14.0055 177.762 14.0504 178.033L14.0589 178.136C14.0589 178.426 13.8648 178.668 13.6224 178.718L13.5295 178.727C13.2371 178.727 13.0001 178.453 13.0001 178.136C13.0001 177.846 13.1941 177.605 13.4366 177.555L13.5295 177.545ZM16.1765 177.545C16.4364 177.545 16.6526 177.762 16.6974 178.033L16.7059 178.136C16.7059 178.426 16.5119 178.668 16.2694 178.718L16.1765 178.727C15.8841 178.727 15.6471 178.453 15.6471 178.136C15.6471 177.846 15.8412 177.605 16.0836 177.555L16.1765 177.545ZM10.8824 175.773C11.1423 175.773 11.3585 175.989 11.4033 176.26L11.4118 176.364C11.4118 176.654 11.2178 176.895 10.9753 176.945L10.8824 176.955C10.59 176.955 10.353 176.68 10.353 176.364C10.353 176.074 10.547 175.832 10.7895 175.782L10.8824 175.773ZM13.5295 175.773C13.7894 175.773 14.0055 175.989 14.0504 176.26L14.0589 176.364C14.0589 176.654 13.8648 176.895 13.6224 176.945L13.5295 176.955C13.2371 176.955 13.0001 176.68 13.0001 176.364C13.0001 176.074 13.1941 175.832 13.4366 175.782L13.5295 175.773ZM16.1765 175.773C16.4364 175.773 16.6526 175.989 16.6974 176.26L16.7059 176.364C16.7059 176.654 16.5119 176.895 16.2694 176.945L16.1765 176.955C15.8841 176.955 15.6471 176.68 15.6471 176.364C15.6471 176.074 15.8412 175.832 16.0836 175.782L16.1765 175.773ZM10.8824 174C11.1423 174 11.3585 174.217 11.4033 174.487L11.4118 174.591C11.4118 174.881 11.2178 175.122 10.9753 175.172L10.8824 175.182C10.59 175.182 10.353 174.908 10.353 174.591C10.353 174.301 10.547 174.06 10.7895 174.009L10.8824 174ZM13.5295 174C13.7894 174 14.0055 174.217 14.0504 174.487L14.0589 174.591C14.0589 174.881 13.8648 175.122 13.6224 175.172L13.5295 175.182C13.2371 175.182 13.0001 174.908 13.0001 174.591C13.0001 174.301 13.1941 174.06 13.4366 174.009L13.5295 174ZM16.1765 174C16.4364 174 16.6526 174.217 16.6974 174.487L16.7059 174.591C16.7059 174.881 16.5119 175.122 16.2694 175.172L16.1765 175.182C15.8841 175.182 15.6471 174.908 15.6471 174.591C15.6471 174.301 15.8412 174.06 16.0836 174.009L16.1765 174ZM9.29418 171.636H17.7648V171.247C17.7648 170.809 17.4472 170.455 17.0547 170.455H10.0042C9.61166 170.455 9.29418 170.809 9.29418 171.247V171.636Z" fill="#7B705A"/>
<path fill-rule="evenodd" clip-rule="evenodd" d="M22.353 174C22.353 173.347 22.9324 172.818 23.6471 172.818H34.0001C34.7148 172.818 35.2942 173.347 35.2942 174C35.2942 174.653 34.7148 175.182 34.0001 175.182H23.6471C22.9324 175.182 22.353 174.653 22.353 174Z" fill="#343741"/>
<path fill-rule="evenodd" clip-rule="evenodd" d="M43.5293 174C43.5293 173.347 44.0999 172.818 44.8038 172.818L88.1371 172.818C88.841 172.818 89.4117 173.347 89.4117 174C89.4117 174.653 88.841 175.182 88.1371 175.182L44.8038 175.182C44.0999 175.182 43.5293 174.653 43.5293 174Z" fill="#343741"/>
</g>
<defs>
<radialGradient id="paint0_diamond_169_44976" cx="0" cy="0" r="1" gradientUnits="userSpaceOnUse" gradientTransform="translate(226 110) rotate(90) scale(264.688)">
<stop stop-color="#EFF7FF"/>
<stop offset="1" stop-color="#DBEDFF"/>
</radialGradient>
</defs>
</svg>
