<svg width="206" height="68" viewBox="0 0 206 68" fill="none" xmlns="http://www.w3.org/2000/svg">
<g filter="url(#filter0_d_268_49515)">
<rect x="2" y="2" width="176" height="40" rx="2" fill="#EFF4F9" stroke="#343741" stroke-width="4"/>
<path d="M23.6411 10L22.8172 14.7154H25.8498L25.1311 18.8172H22.0985L20.6261 27.5293C20.5443 28.1253 20.5822 28.5752 20.74 28.879C20.8978 29.1829 21.2922 29.3465 21.9232 29.3699C22.1686 29.3815 22.6711 29.3523 23.4308 29.2822L23.01 33.5593C22.0401 33.8749 21.0059 34.021 19.9074 33.9976C18.1194 33.9742 16.7813 33.4483 15.8932 32.4199C15.005 31.3916 14.6427 29.9951 14.8063 28.2304L16.3489 18.8172H14L14.7012 14.7154H17.0501L17.874 10H23.6411Z" fill="#4A7194"/>
<line x1="37" y1="22" x2="53" y2="22" stroke="#343741" stroke-width="4" stroke-linecap="round"/>
<line x1="69" y1="22" x2="162" y2="22" stroke="#343741" stroke-width="4" stroke-linecap="round"/>
</g>
<g filter="url(#filter1_d_268_49515)">
<path fill-rule="evenodd" clip-rule="evenodd" d="M192.347 61.1429L189.898 56.2449L187.449 61.1429H177.653V58.6045C177.653 56.5994 169.816 51.0126 169.816 51.0126C168.734 50.2086 167.857 48.4761 167.857 47.1112V38.2857C167.857 35.4807 170.05 33.2064 172.755 33.2064V40.8254H175.204V28.974C175.204 27.8045 176.118 26.8572 177.245 26.8572C179.5 26.8572 181.327 28.7518 181.327 31.0896V30.2438C181.327 29.0743 182.24 28.127 183.368 28.127C185.622 28.127 187.449 30.0216 187.449 32.3594V31.5137C187.449 30.3442 188.362 29.3969 189.49 29.3062C191.745 29.3969 193.571 31.2915 193.571 33.6292V32.7835C193.571 31.614 194.485 30.6667 195.613 30.6667C197.867 30.6667 199.694 32.5613 199.694 34.8991V46.4596C199.694 47.8063 199.113 49.8316 198.407 50.9975C198.407 50.9975 194.796 56.5994 194.796 58.6045V61.1429H192.347ZM182.551 41.551H185V51.3469H182.551V41.551ZM187.449 41.551H189.898V51.3469H187.449V41.551ZM192.347 41.551H194.796V51.3469H192.347V41.551Z" fill="white"/>
</g>
<g filter="url(#filter2_d_268_49515)">
<path fill-rule="evenodd" clip-rule="evenodd" d="M189.898 56.2449L192.347 61.1429H194.796V58.6044C194.796 57.6331 195.643 55.8178 196.517 54.2041C196.916 53.4667 197.321 52.7714 197.653 52.218C198.094 51.4824 198.407 50.9974 198.407 50.9974C199.113 49.8315 199.694 47.8062 199.694 46.4595V34.899C199.694 32.6255 197.966 30.7711 195.797 30.6709C195.736 30.6681 195.675 30.6667 195.613 30.6667C194.485 30.6667 193.571 31.614 193.571 32.7835V33.6292C193.571 33.3396 193.543 33.0569 193.49 32.7835C193.258 31.5969 192.548 30.587 191.578 29.9655C191.005 29.5985 190.342 29.3669 189.632 29.3142C189.585 29.3107 189.538 29.308 189.49 29.3061C188.362 29.3968 187.449 30.3441 187.449 31.5137V32.3594C187.449 32.0697 187.421 31.7869 187.368 31.5137C187.134 30.3206 186.417 29.3099 185.438 28.7111C184.88 28.3697 184.237 28.1622 183.549 28.1311C183.489 28.1284 183.429 28.127 183.368 28.127C182.24 28.127 181.327 29.0743 181.327 30.2438V31.0895C181.327 30.7999 181.298 30.5171 181.245 30.2438C181.012 29.0529 180.297 28.0436 179.321 27.4444C178.713 27.0713 178.003 26.8571 177.245 26.8571C176.118 26.8571 175.204 27.8044 175.204 28.974V40.8254H172.755V33.2063C172.618 33.2063 172.482 33.2122 172.347 33.2237C171.438 33.3016 170.598 33.6371 169.898 34.1597C168.662 35.0818 167.857 36.5864 167.857 38.2857V47.1112C167.857 48.4761 168.734 50.2086 169.816 51.0125C169.816 51.0125 177.653 56.5994 177.653 58.6044V61.1429H187.449L189.898 56.2449ZM187.449 41.551V51.3469H189.898V41.551H187.449ZM185 41.551H182.551V51.3469H185V41.551ZM192.347 41.551V51.3469H194.796V41.551H192.347ZM168.157 53.3389L168.134 53.3226L168.112 53.3057C167.123 52.5713 166.376 51.5446 165.879 50.5568C165.381 49.5683 165 48.3521 165 47.1112V38.2857C165 34.1356 168.167 30.5784 172.347 30.3598V28.974C172.347 26.3253 174.443 24 177.245 24C178.93 24 180.445 24.6015 181.627 25.5894C182.163 25.3836 182.748 25.2698 183.368 25.2698C185.037 25.2698 186.541 25.8607 187.718 26.833C188.201 26.6309 188.721 26.5017 189.261 26.4582L189.433 26.4444L189.605 26.4513C191.236 26.5169 192.72 27.1363 193.884 28.1243C194.417 27.9215 194.998 27.8095 195.613 27.8095C199.542 27.8095 202.551 31.0821 202.551 34.899V46.4595C202.551 47.484 202.341 48.6031 202.063 49.5784C201.784 50.5573 201.376 51.6108 200.851 52.477L200.83 52.5115M200.809 52.5451L200.802 52.5553L200.776 52.5959L200.671 52.7625C200.578 52.9094 200.445 53.1241 200.284 53.389C199.96 53.921 199.532 54.6442 199.108 55.4197C198.679 56.2043 198.28 56.9962 197.995 57.6751C197.777 58.1941 197.698 58.4841 197.669 58.5894C197.654 58.6466 197.653 58.6493 197.653 58.6044V64H190.581L189.898 62.6337L189.215 64H174.796V59.0728C174.695 58.933 174.54 58.7411 174.317 58.4975C173.708 57.8293 172.84 57.037 171.896 56.2435C170.967 55.4622 170.029 54.7334 169.318 54.1965C168.964 53.9292 168.67 53.7121 168.466 53.5629C168.364 53.4884 168.285 53.431 168.232 53.3929L168.174 53.3506L168.157 53.3389M174.933 59.2893C174.932 59.289 174.924 59.2751 174.912 59.2486C174.928 59.2764 174.934 59.2896 174.933 59.2893Z" fill="#343741"/>
</g>
<defs>
<filter id="filter0_d_268_49515" x="0" y="0" width="188" height="52" filterUnits="userSpaceOnUse" color-interpolation-filters="sRGB">
<feFlood flood-opacity="0" result="BackgroundImageFix"/>
<feColorMatrix in="SourceAlpha" type="matrix" values="0 0 0 0 0 0 0 0 0 0 0 0 0 0 0 0 0 0 127 0" result="hardAlpha"/>
<feOffset dx="4" dy="4"/>
<feGaussianBlur stdDeviation="2"/>
<feComposite in2="hardAlpha" operator="out"/>
<feColorMatrix type="matrix" values="0 0 0 0 0 0 0 0 0 0 0 0 0 0 0 0 0 0 0.15 0"/>
<feBlend mode="normal" in2="BackgroundImageFix" result="effect1_dropShadow_268_49515"/>
<feBlend mode="normal" in="SourceGraphic" in2="effect1_dropShadow_268_49515" result="shape"/>
</filter>
<filter id="filter1_d_268_49515" x="164.857" y="24.8572" width="37.8367" height="40.2856" filterUnits="userSpaceOnUse" color-interpolation-filters="sRGB">
<feFlood flood-opacity="0" result="BackgroundImageFix"/>
<feColorMatrix in="SourceAlpha" type="matrix" values="0 0 0 0 0 0 0 0 0 0 0 0 0 0 0 0 0 0 127 0" result="hardAlpha"/>
<feOffset dy="1"/>
<feGaussianBlur stdDeviation="1.5"/>
<feColorMatrix type="matrix" values="0 0 0 0 0 0 0 0 0 0 0 0 0 0 0 0 0 0 0.2 0"/>
<feBlend mode="normal" in2="BackgroundImageFix" result="effect1_dropShadow_268_49515"/>
<feBlend mode="normal" in="SourceGraphic" in2="effect1_dropShadow_268_49515" result="shape"/>
</filter>
<filter id="filter2_d_268_49515" x="162" y="22" width="43.551" height="46" filterUnits="userSpaceOnUse" color-interpolation-filters="sRGB">
<feFlood flood-opacity="0" result="BackgroundImageFix"/>
<feColorMatrix in="SourceAlpha" type="matrix" values="0 0 0 0 0 0 0 0 0 0 0 0 0 0 0 0 0 0 127 0" result="hardAlpha"/>
<feOffset dy="1"/>
<feGaussianBlur stdDeviation="1.5"/>
<feColorMatrix type="matrix" values="0 0 0 0 0 0 0 0 0 0 0 0 0 0 0 0 0 0 0.2 0"/>
<feBlend mode="normal" in2="BackgroundImageFix" result="effect1_dropShadow_268_49515"/>
<feBlend mode="normal" in="SourceGraphic" in2="effect1_dropShadow_268_49515" result="shape"/>
</filter>
</defs>
</svg>
