<svg width="14" height="14" viewBox="0 0 14 14" fill="none" xmlns="http://www.w3.org/2000/svg">
<path fill-rule="evenodd" clip-rule="evenodd" d="M5.25 6.125H8.75C9.47487 6.125 10.0625 5.53737 10.0625 4.8125V1.3125C10.0625 0.587626 9.47487 0 8.75 0H5.25C4.52513 0 3.9375 0.587626 3.9375 1.3125V4.8125C3.9375 5.53737 4.52513 6.125 5.25 6.125ZM4.8125 1.3125C4.8125 1.07088 5.00838 0.875 5.25 0.875H8.75C8.99162 0.875 9.1875 1.07088 9.1875 1.3125V4.8125C9.1875 5.05412 8.99162 5.25 8.75 5.25H5.25C5.00838 5.25 4.8125 5.05412 4.8125 4.8125V1.3125ZM7.4375 7V7.875H12.6875V10.5H11.8125V8.75H7.4375V10.5H6.5625V8.75H2.1875V10.5H1.3125V7.875H6.5625V7H7.4375Z" fill="#343741"/>
<path fill-rule="evenodd" clip-rule="evenodd" d="M8.3125 1.75H5.6875V2.625H8.3125V1.75ZM1.75 14C1.02513 14 0.4375 13.4124 0.4375 12.6875C0.4375 11.9626 1.02513 11.375 1.75 11.375C2.47487 11.375 3.0625 11.9626 3.0625 12.6875C3.0625 13.4124 2.47487 14 1.75 14ZM1.75 12.25C1.50838 12.25 1.3125 12.4459 1.3125 12.6875C1.3125 12.9291 1.50838 13.125 1.75 13.125C1.99162 13.125 2.1875 12.9291 2.1875 12.6875C2.1875 12.4459 1.99162 12.25 1.75 12.25ZM7 14C6.27513 14 5.6875 13.4124 5.6875 12.6875C5.6875 11.9626 6.27513 11.375 7 11.375C7.72487 11.375 8.3125 11.9626 8.3125 12.6875C8.3125 13.4124 7.72487 14 7 14ZM7 12.25C6.75838 12.25 6.5625 12.4459 6.5625 12.6875C6.5625 12.9291 6.75838 13.125 7 13.125C7.24162 13.125 7.4375 12.9291 7.4375 12.6875C7.4375 12.4459 7.24162 12.25 7 12.25ZM12.25 14C11.5251 14 10.9375 13.4124 10.9375 12.6875C10.9375 11.9626 11.5251 11.375 12.25 11.375C12.9749 11.375 13.5625 11.9626 13.5625 12.6875C13.5625 13.4124 12.9749 14 12.25 14ZM12.25 12.25C12.0084 12.25 11.8125 12.4459 11.8125 12.6875C11.8125 12.9291 12.0084 13.125 12.25 13.125C12.4916 13.125 12.6875 12.9291 12.6875 12.6875C12.6875 12.4459 12.4916 12.25 12.25 12.25ZM5.6875 3.5H8.3125V4.375H5.6875V3.5Z" fill="#017D73"/>
</svg>
