<svg width="32" height="33" viewBox="0 0 32 33" fill="none" xmlns="http://www.w3.org/2000/svg">
<path d="M10 3C10 2.44771 10.4477 2 11 2H29C29.5523 2 30 2.44772 30 3V12C30 12.5523 29.5523 13 29 13H11C10.4477 13 10 12.5523 10 12V3Z" fill="white"/>
<path fill-rule="evenodd" clip-rule="evenodd" d="M29 3H11V12H29V3ZM11 2C10.4477 2 10 2.44771 10 3V12C10 12.5523 10.4477 13 11 13H29C29.5523 13 30 12.5523 30 12V3C30 2.44772 29.5523 2 29 2H11Z" fill="#017D73"/>
<path d="M2 10C2 9.44771 2.44772 9 3 9H21C21.5523 9 22 9.44772 22 10V19C22 19.5523 21.5523 20 21 20H3C2.44772 20 2 19.5523 2 19V10Z" fill="white"/>
<path fill-rule="evenodd" clip-rule="evenodd" d="M21 10H3V19H21V10ZM3 9C2.44772 9 2 9.44771 2 10V19C2 19.5523 2.44772 20 3 20H21C21.5523 20 22 19.5523 22 19V10C22 9.44772 21.5523 9 21 9H3Z" fill="#017D73"/>
<g filter="url(#filter0_d_201_310)">
<path fill-rule="evenodd" clip-rule="evenodd" d="M23.4285 29L22.5714 27.2857L21.7143 29H18.2857V28.1116C18.2857 27.4098 15.5427 25.4544 15.5427 25.4544C15.1641 25.173 14.8571 24.5666 14.8571 24.0889V21C14.8571 20.0182 15.6247 19.2222 16.5714 19.2222V21.8889H17.4285V17.7409C17.4285 17.3316 17.7483 17 18.143 17C18.932 17 19.5714 17.6631 19.5714 18.4813V18.1853C19.5714 17.776 19.8911 17.4444 20.2858 17.4444C21.0748 17.4444 21.7143 18.1076 21.7143 18.9258V18.6298C21.7143 18.2204 22.034 17.8889 22.4287 17.8571C23.2177 17.8889 23.8571 18.552 23.8571 19.3702V19.0742C23.8571 18.6649 24.1768 18.3333 24.5715 18.3333C25.3605 18.3333 26 18.9964 26 19.8147V23.8608C26 24.3322 25.7966 25.041 25.5496 25.4491C25.5496 25.4491 24.2857 27.4098 24.2857 28.1116V29H23.4285ZM20 22.1428H20.8571V25.5714H20V22.1428V22.1428ZM21.7142 22.1428H22.5714V25.5714H21.7142V22.1428V22.1428ZM23.4286 22.1428H24.2857V25.5714H23.4286V22.1428V22.1428Z" fill="white"/>
</g>
<path fill-rule="evenodd" clip-rule="evenodd" d="M22.5714 27.2857L23.4285 29H24.2857V28.1116C24.2857 27.7716 24.5823 27.1362 24.8881 26.5714C25.0278 26.3133 25.1695 26.07 25.2857 25.8763C25.4402 25.6188 25.5496 25.4491 25.5496 25.4491C25.7966 25.041 26 24.3322 26 23.8608V19.8147C26 19.0189 25.3952 18.3699 24.6362 18.3348C24.6148 18.3338 24.5932 18.3333 24.5715 18.3333C24.1768 18.3333 23.8571 18.6649 23.8571 19.0742V19.3702C23.8571 19.2689 23.8473 19.1699 23.8286 19.0742C23.7475 18.6589 23.4991 18.3055 23.1595 18.0879C22.959 17.9595 22.7267 17.8784 22.4782 17.86C22.4618 17.8588 22.4453 17.8578 22.4287 17.8571C22.034 17.8889 21.7143 18.2204 21.7143 18.6298V18.9258C21.7143 18.8244 21.7044 18.7254 21.6857 18.6298C21.6041 18.2122 21.3532 17.8585 21.0104 17.6489C20.8151 17.5294 20.5899 17.4568 20.3493 17.4459C20.3283 17.4449 20.3071 17.4444 20.2858 17.4444C19.8911 17.4444 19.5714 17.776 19.5714 18.1853V18.4813C19.5714 18.38 19.5616 18.281 19.5429 18.1853C19.4614 17.7685 19.2112 17.4153 18.8694 17.2055C18.6566 17.0749 18.4082 17 18.143 17C17.7483 17 17.4285 17.3316 17.4285 17.7409V21.8889H16.5714V19.2222C16.5233 19.2222 16.4756 19.2243 16.4285 19.2283C16.1102 19.2555 15.8166 19.373 15.5714 19.5559C15.1388 19.8786 14.8571 20.4052 14.8571 21V24.0889C14.8571 24.5666 15.1641 25.173 15.5427 25.4544C15.5427 25.4544 18.2857 27.4098 18.2857 28.1116V29H21.7143L22.5714 27.2857ZM21.7142 22.1428V25.5714H22.5714V22.1428H21.7142ZM20.8571 22.1428H20V25.5714H20.8571V22.1428ZM23.4286 22.1428V25.5714H24.2857V22.1428H23.4286ZM14.9622 26.2686L14.9542 26.2629L14.9462 26.257C14.6003 25.9999 14.3387 25.6406 14.1647 25.2949C13.9905 24.9489 13.8571 24.5232 13.8571 24.0889V21C13.8571 19.5475 14.9657 18.3024 16.4285 18.2259V17.7409C16.4285 16.8139 17.162 16 18.143 16C18.7325 16 19.2629 16.2105 19.6765 16.5563C19.864 16.4843 20.0689 16.4444 20.2858 16.4444C20.8702 16.4444 21.3963 16.6512 21.8083 16.9915C21.9775 16.9208 22.1593 16.8756 22.3485 16.8604L22.4086 16.8555L22.4689 16.858C23.0398 16.8809 23.5592 17.0977 23.9666 17.4435C24.1529 17.3725 24.3563 17.3333 24.5715 17.3333C25.9468 17.3333 27 18.4787 27 19.8147V23.8608C27 24.2194 26.9264 24.6111 26.8292 24.9524C26.7317 25.2951 26.5886 25.6638 26.405 25.967L26.3977 25.979M26.3901 25.9908L26.3879 25.9943L26.3788 26.0086L26.3419 26.0669C26.3096 26.1183 26.2628 26.1934 26.2064 26.2861C26.0931 26.4724 25.9435 26.7255 25.795 26.9969C25.6449 27.2715 25.505 27.5487 25.4053 27.7863C25.3291 27.9679 25.3015 28.0694 25.2914 28.1063C25.2859 28.1263 25.2857 28.1272 25.2857 28.1116V30H22.8105L22.5714 29.5218L22.3323 30H17.2857V28.2755C17.2502 28.2266 17.1959 28.1594 17.1182 28.0741C16.9049 27.8403 16.601 27.563 16.2706 27.2852C15.9454 27.0118 15.6172 26.7567 15.3685 26.5688C15.2446 26.4752 15.1417 26.3992 15.0703 26.347C15.0347 26.3209 15.0069 26.3008 14.9885 26.2875L14.9679 26.2727L14.9622 26.2686M17.3337 28.3513C17.3337 28.3513 17.3305 28.3463 17.3265 28.337C17.3321 28.3467 17.3337 28.3513 17.3337 28.3513Z" fill="#017D73"/>
<path fill-rule="evenodd" clip-rule="evenodd" d="M9 15H5V14H9V15Z" fill="#017D73"/>
<path fill-rule="evenodd" clip-rule="evenodd" d="M17 8H13V7H17V8Z" fill="#017D73"/>
<path fill-rule="evenodd" clip-rule="evenodd" d="M20 15H11V14H20V15Z" fill="#017D73"/>
<path fill-rule="evenodd" clip-rule="evenodd" d="M28 8H19V7H28V8Z" fill="#017D73"/>
<defs>
<filter id="filter0_d_201_310" x="11.8571" y="15" width="17.1429" height="18" filterUnits="userSpaceOnUse" color-interpolation-filters="sRGB">
<feFlood flood-opacity="0" result="BackgroundImageFix"/>
<feColorMatrix in="SourceAlpha" type="matrix" values="0 0 0 0 0 0 0 0 0 0 0 0 0 0 0 0 0 0 127 0" result="hardAlpha"/>
<feOffset dy="1"/>
<feGaussianBlur stdDeviation="1.5"/>
<feColorMatrix type="matrix" values="0 0 0 0 0 0 0 0 0 0 0 0 0 0 0 0 0 0 0.2 0"/>
<feBlend mode="normal" in2="BackgroundImageFix" result="effect1_dropShadow_201_310"/>
<feBlend mode="normal" in="SourceGraphic" in2="effect1_dropShadow_201_310" result="shape"/>
</filter>
</defs>
</svg>
