<svg width="16" height="16" viewBox="0 0 16 16" fill="none" xmlns="http://www.w3.org/2000/svg">
<g clip-path="url(#clip0_5838_74108)">
<path d="M16 0H0V16H16V0Z" fill="url(#paint0_linear_5838_74108)"/>
<path fill-rule="evenodd" clip-rule="evenodd" d="M11.0117 9.35547C11.0117 8.57361 10.3714 7.93753 9.58432 7.93753C8.79722 7.93753 8.15708 8.57361 8.15708 9.35547C8.15708 10.1373 8.79722 10.7734 9.58432 10.7734C10.3714 10.7734 11.0117 10.1373 11.0117 9.35547ZM11.4138 9.35547C11.4138 10.3576 10.5932 11.1728 9.58432 11.1728C8.57566 11.1728 7.75499 10.3576 7.75499 9.35547C7.75499 8.35332 8.57566 7.5381 9.58432 7.5381C10.5932 7.5381 11.4138 8.35332 11.4138 9.35547ZM13.1018 12.0947L11.7001 10.8405C11.5869 10.9989 11.4561 11.1435 11.3107 11.2727L12.7104 12.5267C12.8298 12.6337 13.0156 12.6237 13.1235 12.5051C13.2309 12.3865 13.2213 12.2022 13.1018 12.0947ZM9.58432 11.5323C10.7928 11.5323 11.7759 10.5557 11.7759 9.35547C11.7759 8.15501 10.7928 7.17862 9.58432 7.17862C8.37602 7.17862 7.3929 8.15501 7.3929 9.35547C7.3929 10.5557 8.37602 11.5323 9.58432 11.5323ZM13.4223 12.7725C13.2852 12.9233 13.0956 13 12.9056 13C12.7399 13 12.5739 12.9417 12.4414 12.8235L10.986 11.5197C10.5813 11.7794 10.101 11.9317 9.58432 11.9317C8.15427 11.9317 6.99081 10.776 6.99081 9.35547C6.99081 7.93493 8.15427 6.7792 9.58432 6.7792C11.0146 6.7792 12.178 7.93493 12.178 9.35547C12.178 9.76308 12.0797 10.1473 11.9092 10.4902L13.371 11.7981C13.6549 12.0532 13.6778 12.4899 13.4223 12.7725ZM4.25597 5.87851C4.25597 5.98236 4.2624 6.08581 4.27467 6.18586C4.2817 6.24278 4.26401 6.2997 4.22581 6.34263C4.19545 6.37678 4.15464 6.39935 4.11001 6.40694C3.61563 6.53376 2.802 6.9176 2.802 8.06914C2.802 8.93868 3.28471 9.41858 3.68982 9.66822C3.82814 9.7549 3.99179 9.80103 4.16449 9.80283L6.58892 9.80502L6.58852 10.2044L4.16228 10.2022C3.91318 10.1997 3.67675 10.1322 3.47671 10.0069C3.07522 9.75949 2.3999 9.17793 2.3999 8.06914C2.3999 6.73247 3.31989 6.23838 3.85991 6.06384C3.85588 6.00233 3.85387 5.94042 3.85387 5.87851C3.85387 4.78649 4.59956 3.65393 5.58831 3.24432C6.74473 2.76301 7.96991 3.00167 8.86517 3.88219C9.14262 4.155 9.3708 4.48632 9.54592 4.86957C9.78114 4.67605 10.0711 4.5692 10.3766 4.5692C10.9772 4.5692 11.6531 5.02195 11.7735 6.01211C12.3358 6.14093 13.524 6.59107 13.524 8.08451C13.524 8.68085 13.3359 9.17334 12.9645 9.54839L12.6778 9.2682C12.9726 8.97063 13.1219 8.57241 13.1219 8.08451C13.1219 6.7782 12.021 6.45327 11.5473 6.37439C11.4935 6.3654 11.4458 6.33505 11.415 6.29031C11.3851 6.24717 11.3736 6.19425 11.3827 6.14292C11.3169 5.3321 10.832 4.96862 10.3766 4.96862C10.0893 4.96862 9.81994 5.10762 9.63739 5.35007C9.59296 5.40879 9.52079 5.43874 9.4468 5.42796C9.37382 5.41717 9.3125 5.36725 9.28737 5.29835C9.12271 4.8452 8.88548 4.46415 8.5823 4.16618C7.80646 3.40309 6.74553 3.19619 5.74331 3.61298C4.90917 3.95848 4.25597 4.95344 4.25597 5.87851Z" fill="white"/>
</g>
<defs>
<linearGradient id="paint0_linear_5838_74108" x1="0" y1="16" x2="16" y2="0" gradientUnits="userSpaceOnUse">
<stop stop-color="#B0084D"/>
<stop offset="1" stop-color="#FF4F8B"/>
</linearGradient>
<clipPath id="clip0_5838_74108">
<rect width="16" height="16" fill="white"/>
</clipPath>
</defs>
</svg>
