<?xml version="1.0" encoding="UTF-8"?>
<svg fill="none" viewBox="0 0 128 128" xmlns="http://www.w3.org/2000/svg">
<g clip-path="url(#b)">
<path d="m54.17 2.63-38.4 22.17c-6.08 3.51-9.83 10-9.83 17.03v44.34c0 7.03 3.75 13.52 9.83 17.03l38.4 22.17c6.08 3.51 13.58 3.51 19.66 0l38.4-22.17c6.08-3.51 9.83-10 9.83-17.03v-44.34c0-7.02-3.75-13.52-9.83-17.03l-38.4-22.17c-6.08-3.51-13.58-3.51-19.66 0z" fill="url(#a)"/>
<path d="m100.98 35.15-30.49-17.6c-1.79-1.03-4.14-1.55-6.5-1.55s-4.71 0.52-6.5 1.55l-30.49 17.6c-3.57 2.06-6.5 7.13-6.5 11.25v35.2c0 4.13 2.92 9.19 6.5 11.25l30.49 17.6c1.79 1.03 4.14 1.55 6.5 1.55s4.71-0.52 6.5-1.55l30.49-17.6c3.57-2.06 6.5-7.13 6.5-11.25v-35.2c0-4.13-2.92-9.19-6.5-11.25zm-34.49 68.38c-0.28 0.16-1.17 0.48-2.5 0.48s-2.21-0.31-2.5-0.48l-30.49-17.6c-1.1-0.63-2.5-3.06-2.5-4.32v-35.2c0-1.27 1.4-3.69 2.5-4.32l30.49-17.6c0.28-0.16 1.17-0.48 2.5-0.48s2.21 0.31 2.5 0.48l30.49 17.6c1.1 0.63 2.5 3.06 2.5 4.32v33.47l-27.48-15.86v-3.29c0-0.82-0.44-1.58-1.15-2l-5.7-3.29c-0.36-0.21-0.75-0.31-1.15-0.31s-0.8 0.1-1.15 0.31l-5.7 3.29c-0.71 0.41-1.15 1.17-1.15 2v6.58c0 0.82 0.44 1.58 1.15 2l5.7 3.29c0.36 0.21 0.75 0.31 1.15 0.31s0.8-0.1 1.15-0.31l2.85-1.64 27.48 15.86-28.98 16.73-0.01-0.02z" fill="#fff"/>
</g>
<defs>
<linearGradient id="a" x1="115.52" x2="18.86" y1="-9.57" y2="128.46" gradientUnits="userSpaceOnUse">
<stop stop-color="#A7F8FF" offset="0"/>
<stop stop-color="#9DF1FF" offset=".03"/>
<stop stop-color="#84E1FF" offset=".08"/>
<stop stop-color="#5AC7FF" offset=".15"/>
<stop stop-color="#21A2FF" offset=".22"/>
<stop stop-color="#008DFF" offset=".26"/>
<stop stop-color="#7F33FF" offset=".66"/>
<stop stop-color="#39127D" offset=".99"/>
</linearGradient>
<clipPath id="b">
<rect width="128" height="128" fill="#fff"/>
</clipPath>
</defs>
</svg>
