<?xml version="1.0" encoding="UTF-8"?>
<svg id="Layer_2" data-name="Layer 2" xmlns="http://www.w3.org/2000/svg" xmlns:xlink="http://www.w3.org/1999/xlink" viewBox="0 0 436.42 255">
  <defs>
    <style>
      .cls-1 {
        fill: rgba(149, 160, 177, .4);
      }

      .cls-1, .cls-2, .cls-3, .cls-4, .cls-5, .cls-6, .cls-7, .cls-8, .cls-9, .cls-10, .cls-11, .cls-12, .cls-13, .cls-14, .cls-15, .cls-16, .cls-17, .cls-18, .cls-19, .cls-20, .cls-21, .cls-22, .cls-23 {
        stroke-width: 0px;
      }

      .cls-24 {
        stroke-linecap: round;
        stroke-linejoin: round;
      }

      .cls-24, .cls-3, .cls-25, .cls-26, .cls-27, .cls-28, .cls-29, .cls-30 {
        fill: none;
      }

      .cls-24, .cls-31 {
        stroke: #bcb7b7;
      }

      .cls-2 {
        fill: rgba(168, 177, 254, .44);
      }

      .cls-32 {
        clip-path: url(#clippath);
      }

      .cls-33, .cls-34, .cls-35, .cls-36, .cls-5, .cls-7, .cls-8, .cls-37 {
        isolation: isolate;
      }

      .cls-33, .cls-34, .cls-35, .cls-36, .cls-38, .cls-37 {
        opacity: .94;
      }

      .cls-33, .cls-34, .cls-35, .cls-36, .cls-37, .cls-29 {
        stroke: #d8c6c6;
      }

      .cls-33, .cls-8, .cls-20 {
        fill: #fff;
      }

      .cls-34 {
        fill: #5193f4;
      }

      .cls-35 {
        fill: #52d2bc;
      }

      .cls-25 {
        stroke: #526cd7;
        stroke-miterlimit: 4;
        stroke-width: 2px;
      }

      .cls-36 {
        fill: rgba(60, 89, 211, .68);
      }

      .cls-26, .cls-27, .cls-28 {
        stroke-width: 2px;
      }

      .cls-26, .cls-30 {
        stroke: #8a85c2;
      }

      .cls-27 {
        stroke: #3db15e;
      }

      .cls-28 {
        stroke: #ffb300;
      }

      .cls-4 {
        fill: url(#linear-gradient);
      }

      .cls-4, .cls-6, .cls-9 {
        fill-rule: evenodd;
      }

      .cls-5 {
        fill: #5275a0;
        opacity: .2;
      }

      .cls-39 {
        clip-path: url(#clippath-1);
      }

      .cls-6 {
        fill: url(#linear-gradient-2);
      }

      .cls-7 {
        fill: #707070;
        opacity: .32;
      }

      .cls-8 {
        opacity: .17;
      }

      .cls-40 {
        opacity: .6;
      }

      .cls-41 {
        opacity: .54;
      }

      .cls-42 {
        opacity: .5;
      }

      .cls-43 {
        opacity: .84;
      }

      .cls-44 {
        opacity: .7;
      }

      .cls-9 {
        fill: #963cbd;
      }

      .cls-37 {
        fill: rgba(56, 217, 223, .59);
      }

      .cls-10 {
        fill: #536260;
      }

      .cls-11 {
        fill: #5f6fff;
      }

      .cls-12 {
        fill: #43ccba;
      }

      .cls-13 {
        fill: #3a5155;
      }

      .cls-14 {
        fill: #55f6f3;
      }

      .cls-15 {
        fill: #3db15e;
      }

      .cls-16 {
        fill: #4066e9;
      }

      .cls-17 {
        fill: #c8dbfb;
      }

      .cls-18 {
        fill: #ff746f;
      }

      .cls-19 {
        fill: #687d8d;
      }

      .cls-21 {
        fill: #ffd980;
      }

      .cls-22 {
        fill: #fcfeff;
      }

      .cls-23 {
        fill: rgba(197, 182, 182, .25);
      }

      .cls-31 {
        fill: rgba(149, 160, 177, .44);
      }
    </style>
    <clipPath id="clippath">
      <rect class="cls-3" x="151.48" y="105.94" width="190.28" height="133"/>
    </clipPath>
    <clipPath id="clippath-1">
      <rect class="cls-3" x="202.55" width="187.44" height="130.73"/>
    </clipPath>
    <linearGradient id="linear-gradient" x1="-69.01" y1="1260.21" x2="-222.69" y2="1093.55" gradientTransform="translate(564 1316.1) scale(1 -1)" gradientUnits="userSpaceOnUse">
      <stop offset="0" stop-color="#f65275"/>
      <stop offset="1" stop-color="#f65275" stop-opacity="0"/>
    </linearGradient>
    <linearGradient id="linear-gradient-2" x1="-194.24" y1="1164.69" x2="-194.24" y2="1067.32" gradientTransform="translate(564 1316.1) scale(1 -1)" gradientUnits="userSpaceOnUse">
      <stop offset="0" stop-color="#00a3e0"/>
      <stop offset="1" stop-color="#00a3e0" stop-opacity="0"/>
    </linearGradient>
  </defs>
  <g id="Layer_1-2" data-name="Layer 1">
    <g class="cls-40">
      <path class="cls-25" d="m46.59,129.45h0c1.93-1.02,4.32-.28,5.34,1.65h0c1.02,1.93.28,4.32-1.65,5.34h0c-1.93,1.02-4.32.28-5.34-1.65h0c-1.02-1.93-.28-4.32,1.65-5.34Z"/>
      <path class="cls-25" d="m417.06,231.88h0c1.93-1.02,4.32-.28,5.34,1.65h0c1.02,1.93.28,4.32-1.65,5.34h0c-1.93,1.02-4.32.28-5.34-1.65h0c-1.02-1.93-.28-4.32,1.65-5.34Z"/>
      <circle class="cls-28" cx="381.14" cy="146.2" r="3.74"/>
      <circle class="cls-28" cx="254.55" cy="250.26" r="3.74" transform="translate(-33.25 461.44) rotate(-80.78)"/>
      <circle class="cls-28" cx="356.8" cy="80.47" r="3.74"/>
      <path class="cls-27" d="m24.19,47.61c.12-1.54,1.85-2.37,3.12-1.5l1.41.96c1.27.87,1.13,2.79-.26,3.45l-1.53.74c-1.39.67-2.98-.42-2.86-1.95l.13-1.7Z"/>
      <path class="cls-18" d="m58.19,212.85l6.36,3.51c.29.16.4.53.24.82h0c-.16.29-.53.4-.82.24l-6.36-3.51c-.29-.16-.4-.53-.24-.82h0c.16-.29.53-.4.82-.24Z"/>
      <path class="cls-18" d="m63.36,212.25l-3.51,6.36c-.16.29-.53.4-.82.24h0c-.29-.16-.4-.53-.24-.82l3.51-6.36c.16-.29.53-.4.82-.24h0c.29.16.4.53.24.82Z"/>
      <path class="cls-18" d="m429.1,189.86l6.43-3.38c.3-.16.66-.04.82.25h0c.16.3.04.66-.25.82l-6.43,3.38c-.3.16-.66.04-.82-.25h0c-.16-.3-.04-.66.25-.82Z"/>
      <path class="cls-18" d="m431.45,185.21l3.38,6.43c.16.3.04.66-.25.82h0c-.3.16-.66.04-.82-.25l-3.38-6.43c-.16-.3-.04-.66.25-.82h0c.3-.16.66-.04.82.25Z"/>
      <path class="cls-18" d="m1.04,77.47l5.14,5.14c.24.24.24.62,0,.86h0c-.24.24-.62.24-.86,0L.18,78.32c-.24-.24-.24-.62,0-.86H.18c.24-.24.62-.24.86,0Z"/>
      <path class="cls-18" d="m6.17,78.32l-5.14,5.14c-.24.24-.62.24-.86,0H.18c-.24-.24-.24-.62,0-.86l5.14-5.14c.24-.24.62-.24.86,0h0c.24.24.24.62,0,.86Z"/>
      <g class="cls-42">
        <g>
          <path class="cls-23" d="m175.53,32.5h-87.49c-5.73,0-10.37,4.61-10.37,10.3v121.81c.01,5.69,4.65,10.3,10.38,10.3h87.49c5.73,0,10.37-4.61,10.37-10.3V42.8c0-5.69-4.65-10.3-10.38-10.3Z"/>
          <path class="cls-26" d="m175.53,33.14h-87.49c-5.37,0-9.72,4.32-9.72,9.66v121.81c.01,5.33,4.36,9.66,9.73,9.66h87.49c5.37,0,9.72-4.33,9.72-9.66V42.8c-.01-5.33-4.36-9.66-9.73-9.66Z"/>
        </g>
        <path class="cls-16" d="m131.61,98.13c9.29,0,16.81-7.48,16.81-16.7,0-9.23-7.53-16.7-16.81-16.7s-16.81,7.48-16.81,16.7c0,9.23,7.53,16.7,16.81,16.7Z"/>
        <path class="cls-16" d="m151.68,108.45h-41.38c-4.97,0-9.01,4.01-9,8.95h0c0,4.94,4.03,8.95,9.01,8.95h41.38c4.97,0,9.01-4.01,9-8.95h0c0-4.94-4.03-8.95-9.01-8.95Z"/>
        <path class="cls-19" d="m155.63,139.23h-48.03c-.66,0-1.2.53-1.2,1.19h0c0,.66.54,1.19,1.2,1.19h48.03c.66,0,1.2-.53,1.2-1.19h0c0-.66-.54-1.19-1.2-1.19Z"/>
        <path class="cls-19" d="m165.27,151.48h-67.31c-.66,0-1.2.53-1.2,1.19h0c0,.66.54,1.19,1.2,1.19h67.31c.66,0,1.2-.53,1.2-1.19h0c0-.66-.54-1.19-1.2-1.19Z"/>
        <path class="cls-13" d="m177.6,53.61c0,2.3-.68,4.54-1.97,6.45-1.28,1.91-3.11,3.4-5.25,4.28-2.13.88-4.49,1.11-6.75.66-2.27-.45-4.35-1.55-5.99-3.18-1.63-1.62-2.75-3.69-3.2-5.95-.45-2.25-.22-4.59.67-6.71.88-2.12,2.38-3.94,4.3-5.21,1.92-1.28,4.18-1.96,6.49-1.96,1.54,0,3.05.3,4.47.88,1.42.58,2.71,1.44,3.79,2.52,1.09,1.08,1.95,2.36,2.53,3.77.59,1.41.89,2.92.89,4.44Z"/>
        <path class="cls-20" d="m165.09,58.27l-5.58-7.13,5.05,2.1,11.62-10.1-11.1,15.13Z"/>
        <path class="cls-19" d="m108.76,45h-30.02v10.74h30.02v-10.74Z"/>
      </g>
      <g class="cls-32">
        <g class="cls-44">
          <path class="cls-5" d="m337.4,238.48l-180.89.39c-1.18-.02-2.3-.5-3.12-1.34-.82-.84-1.27-1.98-1.26-3.15l-.25-123.53c-.02-1.17.42-2.31,1.24-3.16.82-.85,1.94-1.33,3.12-1.36l180.89-.38c1.18.02,2.3.5,3.12,1.34.82.84,1.27,1.98,1.26,3.15l.25,123.53c.02,1.17-.42,2.31-1.24,3.16-.82.85-1.94,1.33-3.12,1.36Z"/>
          <path class="cls-2" d="m337,238.56l-180.89.38c-1.18-.02-2.3-.5-3.12-1.34-.82-.84-1.27-1.98-1.26-3.15l-.25-123.53c-.02-1.17.43-2.31,1.24-3.16.82-.85,1.94-1.34,3.12-1.36l180.89-.38c1.18.02,2.3.5,3.12,1.34.82.84,1.27,1.97,1.26,3.15l.25,123.53c.02,1.18-.42,2.31-1.24,3.16s-1.94,1.33-3.12,1.36Z"/>
          <path class="cls-10" d="m336.44,106.02l-180.1.38c-1.28.03-2.5.56-3.39,1.48-.89.92-1.38,2.16-1.35,3.44v4.26s189.63-.4,189.63-.4v-4.26c0-.63-.12-1.26-.35-1.85-.23-.59-.58-1.12-1.03-1.58-.44-.45-.97-.82-1.56-1.07-.58-.25-1.21-.38-1.85-.39Z"/>
          <path class="cls-1" d="m156.72,238.95l28.16-.06-.26-123.37-33.08.07.24,118.47c0,.64.13,1.28.38,1.88.25.59.61,1.13,1.07,1.59.46.45,1,.81,1.6,1.06.6.25,1.24.37,1.88.37Z"/>
          <path class="cls-12" d="m156.15,237.84l180.89-.39c.87,0,1.68-.35,2.3-.99.62-.65.97-1.51.97-2.43l-.25-123.53c0-1.88-1.47-3.4-3.27-3.4h0l-180.89.39c-.87,0-1.68.35-2.3.99-.62.65-.97,1.51-.97,2.43l.25,123.53c0,1.88,1.47,3.4,3.27,3.4h0Zm0,1.1c-2.41,0-4.37-2.01-4.37-4.49l-.25-123.53c0-2.49,1.95-4.51,4.36-4.51l180.89-.39h.01c2.41,0,4.36,2.01,4.37,4.49l.25,123.53c0,2.49-1.95,4.51-4.36,4.51l-180.89.38h0Z"/>
          <path class="cls-20" d="m158.53,218.57l21.48-.04c.49,0,.96.19,1.3.54.35.34.54.81.54,1.29,0,.49-.19.95-.54,1.3-.34.35-.81.54-1.3.54l-21.48.04c-.49,0-.96-.19-1.3-.53-.35-.34-.54-.81-.54-1.3h0c0-.49.19-.95.54-1.3.34-.34.81-.54,1.3-.54h0Z"/>
          <path class="cls-20" d="m175.02,121.09l-13.59.03c-3.1,0-5.61,2.52-5.61,5.61l.03,13.54c0,3.09,2.53,5.59,5.63,5.59l13.59-.03c3.1,0,5.61-2.52,5.61-5.61l-.03-13.54c0-3.09-2.53-5.59-5.63-5.58Z"/>
          <path class="cls-21" d="m191.21,197.92l60.34-.12c.64,0,1.25.25,1.7.7.45.45.7,1.06.71,1.69,0,.63-.25,1.24-.7,1.69-.45.45-1.06.7-1.7.7l-60.33.12c-.64,0-1.25-.25-1.7-.7-.45-.45-.71-1.06-.71-1.69h0c0-.63.25-1.24.7-1.69.45-.45,1.06-.7,1.7-.7h0Z"/>
          <path class="cls-31" d="m189.88,143.37c-.36-.35-.56-.84-.56-1.34,0-.5.2-.98.55-1.34s.84-.56,1.34-.56h.5s59.83-.12,59.83-.12c.5,0,.99.2,1.34.55.36.35.56.83.56,1.34,0,.5-.2.98-.55,1.34l.35.35-.35-.35c-.36.36-.84.56-1.34.56l-60.33.12c-.51,0-.99-.2-1.35-.55Z"/>
          <path class="cls-31" d="m189.68,135.07c-.22-.35-.36-.87-.36-1.43,0-.56.14-1.08.35-1.43.22-.36.46-.46.61-.46h.5s36.49-.07,36.49-.07c.16,0,.39.1.62.46.22.35.36.87.36,1.43,0,.56-.14,1.07-.35,1.43-.22.36-.46.46-.61.46h0l-36.99.07c-.16,0-.39-.1-.62-.46Z"/>
          <path class="cls-31" d="m261.47,175.79l65.09-.13c1.05,0,1.91.85,1.91,1.89h0c0,1.04-.85,1.9-1.9,1.9l-65.09.13c-1.05,0-1.91-.85-1.91-1.89h0c0-1.05.85-1.9,1.9-1.9Z"/>
          <path class="cls-21" d="m251.57,207.7l-60.33.12c-1.33,0-2.4,1.08-2.4,2.4,0,1.32,1.08,2.39,2.41,2.39l60.33-.12c1.33,0,2.4-1.08,2.4-2.4,0-1.32-1.08-2.39-2.4-2.39Z"/>
          <path class="cls-21" d="m251.58,217.61l-60.33.12c-1.32,0-2.4,1.08-2.4,2.4,0,1.32,1.08,2.39,2.4,2.39l60.33-.12c1.33,0,2.4-1.08,2.4-2.4,0-1.32-1.08-2.39-2.41-2.39Z"/>
          <path class="cls-31" d="m265.72,189.38l56.67-.12c3.38,0,6.12,2.71,6.13,6.08l.05,22.03c0,3.36-2.72,6.1-6.1,6.1l-56.67.12c-3.38,0-6.12-2.72-6.13-6.08l-.05-22.03c0-3.36,2.72-6.1,6.1-6.1Z"/>
          <path class="cls-17" d="m162.34,110.9c0,.31-.09.62-.26.88-.17.26-.42.46-.71.58-.29.12-.61.15-.92.09-.31-.06-.59-.21-.81-.43-.22-.22-.37-.5-.44-.81-.06-.31-.03-.62.09-.91.12-.29.32-.54.58-.71.26-.17.57-.27.88-.27.21,0,.41.04.61.12.19.08.37.19.52.34.15.15.26.32.34.51.08.19.12.4.12.61Z"/>
          <path class="cls-17" d="m167.47,112.46c.88,0,1.59-.71,1.59-1.58s-.71-1.58-1.59-1.58-1.59.71-1.59,1.58.71,1.58,1.59,1.58Z"/>
          <path class="cls-17" d="m175.76,110.87c0,.31-.09.62-.26.88-.17.26-.42.46-.71.58-.29.12-.61.15-.92.09-.31-.06-.59-.21-.81-.43-.22-.22-.37-.5-.44-.81-.06-.31-.03-.62.09-.91.12-.29.32-.54.58-.71.26-.17.57-.27.88-.27.21,0,.41.04.61.12.19.08.37.19.52.34.15.15.26.32.34.51.08.19.12.4.12.6Z"/>
          <path class="cls-20" d="m158.55,147.9l20.2-.04c.24,0,.47.09.64.26.17.17.27.4.27.64,0,.24-.1.47-.26.64-.17.17-.4.27-.64.27l-20.2.04c-.24,0-.47-.09-.64-.26-.17-.17-.27-.4-.27-.64h0c0-.24.09-.47.26-.64.17-.17.4-.26.64-.27h0Z"/>
          <path class="cls-20" d="m158.56,151.77l20.2-.04c.24,0,.47.1.64.26.17.17.27.4.27.64,0,.24-.1.47-.26.64s-.4.26-.64.27l-20.2.04c-.12,0-.24-.02-.35-.07-.11-.04-.21-.11-.29-.19-.08-.08-.15-.18-.2-.29-.05-.11-.07-.23-.07-.35,0-.24.1-.47.26-.64s.4-.27.64-.27h0Z"/>
          <path class="cls-31" d="m195.26,150.21l52.3-.11c3.38,0,6.12,2.72,6.13,6.08l.06,26.91c0,3.36-2.72,6.1-6.1,6.1l-52.3.11c-3.38,0-6.12-2.72-6.13-6.08l-.06-26.91c0-3.36,2.72-6.1,6.1-6.1Z"/>
          <path class="cls-24" d="m247.56,150.15l-52.3.11c-3.35,0-6.06,2.72-6.05,6.05l.06,26.91c0,3.34,2.73,6.04,6.08,6.03l52.3-.11c3.35,0,6.06-2.72,6.05-6.05l-.06-26.91c0-3.34-2.73-6.04-6.08-6.03Z"/>
          <path class="cls-31" d="m265.58,128.24l55.85-.26c3.38-.02,6.13,2.7,6.14,6.06l.12,26.44c.02,3.36-2.71,6.1-6.09,6.12l-55.85.26c-3.38.02-6.13-2.7-6.14-6.06l-.12-26.44c-.02-3.36,2.71-6.1,6.09-6.12Z"/>
        </g>
      </g>
      <g class="cls-44">
        <g class="cls-39">
          <g>
            <path class="cls-7" d="m381.5,0h-170.47c-1.12,0-2.22.27-3.25.8-1.03.53-1.96,1.31-2.75,2.29-.79.98-1.41,2.14-1.84,3.42-.43,1.28-.65,2.65-.65,4.04v109.64c0,1.38.22,2.76.65,4.04.43,1.28,1.05,2.44,1.84,3.42.79.98,1.72,1.76,2.75,2.29,1.03.53,2.13.8,3.25.8h170.47c2.25,0,4.41-1.11,6-3.09,1.59-1.98,2.49-4.66,2.49-7.46V10.55c0-1.38-.22-2.76-.65-4.04-.43-1.28-1.05-2.44-1.84-3.42s-1.72-1.76-2.75-2.29C383.72.27,382.61,0,381.5,0Zm0,113.39c0,1.24-.2,2.46-.58,3.61-.38,1.14-.94,2.18-1.64,3.06-.7.88-1.54,1.57-2.46,2.04-.92.47-1.91.72-2.9.72h-155.3c-1,0-1.98-.24-2.9-.72-.92-.47-1.76-1.17-2.46-2.04-.7-.88-1.26-1.92-1.64-3.06s-.58-2.37-.58-3.61V17.34c0-1.24.2-2.46.58-3.61.38-1.14.94-2.18,1.64-3.06.7-.88,1.54-1.57,2.46-2.04.92-.47,1.91-.72,2.9-.72h155.3c1,0,1.98.24,2.9.72.92.47,1.76,1.17,2.46,2.04.7.88,1.26,1.92,1.64,3.06.38,1.14.58,2.37.58,3.61v96.05Z"/>
            <path class="cls-8" d="m381.5,17.34v96.05c0,1.24-.2,2.46-.58,3.61-.38,1.14-.94,2.18-1.64,3.06-.7.88-1.54,1.57-2.46,2.04-.92.47-1.91.72-2.9.72h-155.3c-2.01,0-3.94-1-5.36-2.76s-2.22-4.17-2.22-6.67V17.34c0-1.24.2-2.46.58-3.61.38-1.14.94-2.18,1.64-3.06.7-.88,1.54-1.57,2.46-2.04.92-.47,1.91-.72,2.9-.72h155.3c2.01,0,3.94,1,5.36,2.76,1.42,1.77,2.22,4.17,2.22,6.67Z"/>
            <path class="cls-12" d="m381.5,56.97v56.42c0,1.24-.2,2.46-.58,3.61-.38,1.14-.94,2.18-1.64,3.06-.7.88-1.54,1.57-2.46,2.04-.92.47-1.91.72-2.9.72h-155.3c-2.01,0-3.94-1-5.36-2.76-1.42-1.77-2.22-4.17-2.22-6.67v-23.52c4.47-7.9,8.6-16.07,12.39-24.5,8.42-18.32,18.35,24,23.53,29.76,5.19,5.76,10.32-14.87,13.92-15.77,5.11-1.27,8.93,12.04,12.48,13.73,3.55,1.69,11.34-48.66,18.96-53.06,8.05-4.66,9,30.86,14.46,36.96,5.46,6.1,11-15.51,15.82-17.3,8.05-2.97,13.64,35.83,22.37,35.19,8.73-.64,10.7-19.71,13.51-19.84,5.52-.25,4.22,30.05,9.69,25.66,5.46-4.39,10.04-36.27,13.34-43.73Z"/>
            <path class="cls-15" d="m245.93,62.31c-8.77,0-13.39-5.41-17.87-10.64-4.5-5.25-8.75-10.22-17.03-10.22v-1.53c8.77,0,13.39,5.41,17.87,10.64,4.5,5.25,8.75,10.22,17.03,10.22s12.04-8.46,16.14-17.42c4.1-8.96,8.33-18.19,17.21-18.19s13.27,8.67,17.53,17.06c4.27,8.41,8.31,16.35,16.5,16.35s12.34-4.69,16.63-9.67c4.28-4.96,8.7-10.08,17.47-10.08s13.19,5.12,17.47,10.08c4.29,4.97,8.35,9.67,16.63,9.67v1.53c-8.76,0-13.19-5.12-17.47-10.08-4.29-4.97-8.35-9.67-16.63-9.67s-12.34,4.69-16.63,9.67c-4.28,4.96-8.7,10.08-17.47,10.08s-13.27-8.67-17.53-17.06c-4.27-8.41-8.31-16.35-16.49-16.35s-12.04,8.46-16.14,17.42c-4.1,8.96-8.33,18.19-17.21,18.19Z"/>
            <path class="cls-14" d="m222.5,44.63h-.65v.9h.65v-.9Z"/>
            <path class="cls-14" d="m222.5,119.16h-.65v-1.84h.65v1.84Zm0-4.6h-.65v-1.84h.65v1.84Zm0-4.6h-.65v-1.84h.65v1.84Zm0-4.6h-.65v-1.84h.65v1.84Zm0-4.6h-.65v-1.84h.65v1.84Zm0-4.6h-.65v-1.84h.65v1.84Zm0-4.6h-.65v-1.84h.65v1.84Zm0-4.6h-.65v-1.84h.65v1.84Zm0-4.6h-.65v-1.84h.65v1.84Zm0-4.6h-.65v-1.84h.65v1.84Zm0-4.6h-.65v-1.84h.65v1.84Zm0-4.6h-.65v-1.84h.65v1.84Zm0-4.6h-.65v-1.84h.65v1.84Zm0-4.6h-.65v-1.84h.65v1.84Zm0-4.6h-.65v-1.84h.65v1.84Zm0-4.6h-.65v-1.85h.65v1.85Z"/>
            <path class="cls-14" d="m222.5,121.92h-.65v.9h.65v-.9Z"/>
            <path class="cls-14" d="m262.16,47.82h-.65v.88h.65v-.88Z"/>
            <path class="cls-14" d="m262.16,119.3h-.65v-1.76h.65v1.76Zm0-4.41h-.65v-1.76h.65v1.76Zm0-4.41h-.65v-1.77h.65v1.77Zm0-4.41h-.65v-1.77h.65v1.77Zm0-4.41h-.65v-1.76h.65v1.76Zm0-4.41h-.65v-1.77h.65v1.77Zm0-4.41h-.65v-1.76h.65v1.76Zm0-4.41h-.65v-1.76h.65v1.76Zm0-4.41h-.65v-1.77h.65v1.77Zm0-4.41h-.65v-1.77h.65v1.77Zm0-4.41h-.65v-1.77h.65v1.77Zm0-4.41h-.65v-1.76h.65v1.76Zm0-4.41h-.65v-1.77h.65v1.77Zm0-4.41h-.65v-1.77h.65v1.77Zm0-4.41h-.65v-1.77h.65v1.77Zm0-4.41h-.65v-1.77h.65v1.77Z"/>
            <path class="cls-14" d="m262.16,121.94h-.65v.88h.65v-.88Z"/>
            <path class="cls-14" d="m279.61,25.95h-.65v1.01h.65v-1.01Z"/>
            <path class="cls-14" d="m279.61,118.76h-.65v-2.04h.65v2.04Zm0-5.1h-.65v-2.04h.65v2.04Zm0-5.1h-.65v-2.04h.65v2.04Zm0-5.1h-.65v-2.04h.65v2.04Zm0-5.1h-.65v-2.04h.65v2.04Zm0-5.1h-.65v-2.04h.65v2.04Zm0-5.1h-.65v-2.05h.65v2.05Zm0-5.1h-.65v-2.04h.65v2.04Zm0-5.1h-.65v-2.04h.65v2.04Zm0-5.1h-.65v-2.04h.65v2.04Zm0-5.1h-.65v-2.04h.65v2.04Zm0-5.1h-.65v-2.04h.65v2.04Zm0-5.1h-.65v-2.05h.65v2.05Zm0-5.1h-.65v-2.04h.65v2.04Zm0-5.1h-.65v-2.04h.65v2.04Zm0-5.1h-.65v-2.04h.65v2.04Zm0-5.1h-.65v-2.04h.65v2.04Zm0-5.1h-.65v-2.04h.65v2.04Z"/>
            <path class="cls-14" d="m279.61,121.82h-.65v1.01h.65v-1.01Z"/>
            <path class="cls-14" d="m308.08,58.99h-.65v.82h.65v-.82Z"/>
            <path class="cls-14" d="m308.08,119.61h-.65v-1.59h.65v1.59Zm0-3.99h-.65v-1.6h.65v1.6Zm0-3.99h-.65v-1.6h.65v1.6Zm0-3.99h-.65v-1.6h.65v1.6Zm0-3.99h-.65v-1.6h.65v1.6Zm0-3.99h-.65v-1.6h.65v1.6Zm0-3.99h-.65v-1.6h.65v1.6Zm0-3.99h-.65v-1.6h.65v1.6Zm0-3.99h-.65v-1.6h.65v1.6Zm0-3.99h-.65v-1.6h.65v1.6Zm0-3.99h-.65v-1.6h.65v1.6Zm0-3.99h-.65v-1.6h.65v1.6Zm0-3.99h-.65v-1.6h.65v1.6Zm0-3.99h-.65v-1.6h.65v1.6Zm0-3.99h-.65v-1.6h.65v1.6Z"/>
            <path class="cls-14" d="m308.08,122.01h-.65v.82h.65v-.82Z"/>
            <path class="cls-14" d="m371.55,55.94h-.65v.83h.65v-.83Z"/>
            <path class="cls-14" d="m371.55,119.47h-.65v-1.68h.65v1.68Zm0-4.18h-.65v-1.68h.65v1.68Zm0-4.18h-.65v-1.68h.65v1.68Zm0-4.18h-.65v-1.67h.65v1.67Zm0-4.18h-.65v-1.68h.65v1.68Zm0-4.18h-.65v-1.68h.65v1.68Zm0-4.18h-.65v-1.68h.65v1.68Zm0-4.18h-.65v-1.68h.65v1.68Zm0-4.18h-.65v-1.68h.65v1.68Zm0-4.18h-.65v-1.68h.65v1.68Zm0-4.18h-.65v-1.68h.65v1.68Zm0-4.18h-.65v-1.68h.65v1.68Zm0-4.18h-.65v-1.68h.65v1.68Zm0-4.18h-.65v-1.68h.65v1.68Zm0-4.18h-.65v-1.68h.65v1.68Z"/>
            <path class="cls-14" d="m371.55,121.99h-.65v.84h.65v-.84Z"/>
            <path class="cls-14" d="m346.93,39.6h-.65v.93h.65v-.93Z"/>
            <path class="cls-14" d="m346.93,119.12h-.65v-1.85h.65v1.85Zm0-4.62h-.65v-1.85h.65v1.85Zm0-4.62h-.65v-1.85h.65v1.85Zm0-4.62h-.65v-1.85h.65v1.85Zm0-4.62h-.65v-1.85h.65v1.85Zm0-4.62h-.65v-1.85h.65v1.85Zm0-4.62h-.65v-1.85h.65v1.85Zm0-4.62h-.65v-1.85h.65v1.85Zm0-4.62h-.65v-1.85h.65v1.85Zm0-4.62h-.65v-1.85h.65v1.85Zm0-4.62h-.65v-1.85h.65v1.85Zm0-4.62h-.65v-1.85h.65v1.85Zm0-4.62h-.65v-1.86h.65v1.86Zm0-4.62h-.65v-1.85h.65v1.85Zm0-4.62h-.65v-1.85h.65v1.85Zm0-4.62h-.65v-1.85h.65v1.85Zm0-4.62h-.65v-1.85h.65v1.85Z"/>
            <path class="cls-14" d="m346.93,121.89h-.65v.93h.65v-.93Z"/>
            <path class="cls-11" d="m223.83,44.63c0-.41-.1-.8-.28-1.14-.18-.34-.44-.6-.74-.76-.3-.16-.64-.2-.96-.12-.32.08-.62.28-.85.56-.23.29-.39.65-.45,1.05-.06.4-.03.81.1,1.19.12.38.34.7.61.92.27.23.59.35.92.35.44,0,.86-.22,1.17-.6.31-.39.49-.91.49-1.45Z"/>
            <path class="cls-11" d="m280.93,25.94c0-.41-.1-.8-.28-1.14-.18-.34-.44-.6-.74-.76-.3-.16-.63-.2-.96-.12-.32.08-.61.28-.85.56-.23.29-.39.65-.45,1.05-.06.4-.03.81.09,1.19s.34.7.61.92c.27.23.59.35.92.35.22,0,.43-.05.63-.16.2-.1.38-.26.54-.45.15-.19.28-.42.36-.67.08-.25.13-.52.13-.79Z"/>
            <path class="cls-11" d="m263.49,47.27c0-.41-.1-.8-.28-1.14-.18-.34-.44-.6-.74-.76-.3-.16-.64-.2-.96-.12-.32.08-.62.28-.85.56-.23.29-.39.65-.45,1.05-.06.4-.03.81.09,1.19.12.38.34.7.61.92.27.23.59.35.92.35.22,0,.43-.05.63-.16.2-.1.38-.25.54-.45.15-.19.27-.42.36-.67.08-.25.13-.52.13-.79Z"/>
            <path class="cls-11" d="m307.76,60.05c.92,0,1.66-.92,1.66-2.06s-.74-2.06-1.66-2.06-1.65.92-1.65,2.06.74,2.06,1.65,2.06Z"/>
            <path class="cls-11" d="m348.26,39.59c0-.41-.1-.81-.28-1.14-.18-.34-.44-.6-.74-.76-.3-.16-.63-.2-.96-.12-.32.08-.62.28-.85.56-.23.29-.39.65-.45,1.05s-.03.81.09,1.19c.13.38.34.7.61.92.27.23.59.35.92.35.22,0,.43-.05.63-.16.2-.1.38-.25.54-.45.15-.19.27-.42.36-.67.08-.25.13-.52.13-.79Z"/>
            <path class="cls-11" d="m372.88,55.93c0-.41-.1-.8-.28-1.14-.18-.34-.44-.6-.74-.76-.3-.16-.64-.2-.96-.12-.32.08-.62.28-.85.56-.23.29-.39.65-.45,1.05-.06.4-.03.81.09,1.19.13.38.34.7.61.92.27.23.59.35.92.35.44,0,.86-.22,1.17-.6.31-.39.49-.91.49-1.45Z"/>
          </g>
        </g>
        <rect class="cls-30" x="203.05" y=".5" width="186.28" height="130.03" rx="11.5" ry="11.5"/>
      </g>
      <g class="cls-40">
        <path class="cls-9" d="m398.74,249.13c2.84-1.08,2.77-4.5,2.77-7.3v-11.26h6.47c8.44,0,15.29-6.23,15.29-13.91v-51.33c0-7.68-6.84-13.91-15.29-13.91h-76.43c-8.44,0-15.29,6.23-15.29,13.91v51.33c0,7.68,6.84,13.91,15.29,13.91h38.9l21.61,16.19c2.19,1.97,3.84,3.46,6.69,2.38Z"/>
        <path class="cls-4" d="m398.74,249.13c2.84-1.08,2.77-4.5,2.77-7.3v-11.26h6.47c8.44,0,15.29-6.23,15.29-13.91v-51.33c0-7.68-6.84-13.91-15.29-13.91h-76.43c-8.44,0-15.29,6.23-15.29,13.91v51.33c0,7.68,6.84,13.91,15.29,13.91h38.9l21.61,16.19c2.19,1.97,3.84,3.46,6.69,2.38Z"/>
        <path class="cls-6" d="m398.74,249.13c2.84-1.08,2.77-4.5,2.77-7.3v-11.26h6.47c8.44,0,15.29-6.23,15.29-13.91v-51.33c0-7.68-6.84-13.91-15.29-13.91h-76.43c-8.44,0-15.29,6.23-15.29,13.91v51.33c0,7.68,6.84,13.91,15.29,13.91h38.9l21.61,16.19c2.19,1.97,3.84,3.46,6.69,2.38Z"/>
        <path class="cls-22" d="m398.77,183.25c-1.22,0-2.21.99-2.21,2.21,0,18.16-14.72,32.88-32.88,32.88-1.22,0-2.21.99-2.21,2.21s.99,2.21,2.21,2.21c20.6,0,37.29-16.7,37.29-37.29,0-1.22-.99-2.21-2.21-2.21Z"/>
        <path class="cls-22" d="m385.45,197.39c2.12-3.46,4.17-8.08,3.77-14.54-.84-13.38-12.96-23.54-24.41-22.44-4.48.43-9.08,4.08-8.67,10.63.18,2.84,1.57,4.52,3.83,5.81,2.15,1.23,4.92,2.01,8.05,2.89,3.79,1.07,8.18,2.26,11.56,4.75,4.05,2.98,6.81,6.44,5.87,12.9Z"/>
        <path class="cls-22" d="m342.38,173.98c-2.12,3.46-4.17,8.08-3.77,14.54.84,13.39,12.96,23.54,24.41,22.44,4.48-.43,9.08-4.08,8.67-10.63-.18-2.84-1.57-4.52-3.83-5.81-2.15-1.23-4.92-2.01-8.05-2.89-3.79-1.06-8.18-2.26-11.56-4.75-4.05-2.98-6.81-6.44-5.87-12.9Z"/>
      </g>
      <g class="cls-41">
        <g class="cls-38">
          <path class="cls-35" d="m150.79,132.28h0c-2.75-2.89-5.4-4.33-7.78-4.81-2.37-.48-4.52-.03-6.29.92-1.78.96-3.18,2.41-4.04,3.93-.87,1.53-1.15,3.03-.82,4.1.76,2.49,1.75,5.89,1.79,9.12.04,3.25-.89,6.44-4.07,8.39-2.75,1.68-3.82,4.82-3.44,8.12.38,3.3,2.21,6.69,5.12,8.74,1.55,1.09,2.6,2.14,3.21,3.26.62,1.13.76,2.3.59,3.6-.17,1.27-.64,2.68-1.26,4.31-.23.61-.48,1.24-.75,1.91-.46,1.16-.96,2.43-1.49,3.87-.76,2.09-.31,4.22.87,6.29,1.19,2.07,3.08,4.04,5.12,5.75,2.03,1.7,4.16,3.13,5.79,4.13.81.5,1.5.89,1.98,1.16.24.13.43.24.56.3.02,0,.03.02.05.03.01,0,.03.01.04.02,5.73-.06,10.29-1.22,13.55-3.35,3.27-2.14,5.27-5.27,5.84-9.35.56-3.98-1.94-7.35-4.32-10.29-.13-.16-.26-.32-.4-.49-1.02-1.25-1.99-2.45-2.54-3.53-.31-.62-.52-1.25-.49-1.88.02-.65.29-1.24.81-1.76h0c2.08-2.07,4.18-5.94,4.58-10.08.4-4.1-.88-8.43-5.5-11.54-2.48-1.66-3.77-3.43-4.39-5.29-.61-1.83-.53-3.69-.36-5.48.03-.33.07-.66.1-.99.34-3.24.66-6.24-2.08-9.11Z"/>
          <path class="cls-33" d="m155.8,161.97l-.42-.27s.03-.07.02-.1c0-.04-.03-.07-.06-.08-.03-.02-.06-.03-.1-.02-.03,0-.06.03-.08.06l-.42-.27.42.27c-2.62,4.06-4.86,8.37-6.66,12.85l-.96-.13c-.25-2.13-.5-4.25-.76-6.33v-.03s0,0,0,0c0,0,0-.02,0-.04-1.69-13.51-3.51-25.2-3.54-25.42h0s0-.02,0-.02c0-.02,0-.03-.02-.05,0-.01-.02-.03-.04-.04l.3-.4-.3.4s-.03-.02-.05-.02c-.02,0-.03,0-.05,0l-.08-.49.08.49s-.03,0-.05.02c-.01,0-.03.02-.04.04l-.41-.29.41.29s-.02.03-.02.05c0,.02,0,.04,0,.05h0s0,.01,0,.01c.03.22,1.65,10.61,3.25,23.11l.19,1.51-1.05-1.1c-1.6-1.68-3.77-2.92-5.6-3.76-1.82-.84-3.26-1.26-3.38-1.29h-.02s-.02-.01-.02-.01c-.02,0-.03,0-.05,0-.02,0-.03,0-.05.01-.02,0-.03.02-.04.03l-.39-.32.39.32s-.02.03-.02.05c0,.02,0,.04,0,.05l-.5.07.5-.07s0,.04.02.05c0,.02.02.03.04.04.01.01.03.02.05.02h.01s.01,0,.01,0c.06.01,1.92.56,4.1,1.64,2.16,1.08,4.72,2.74,6.06,5.02l.05.09v.1c.83,6.51,1.61,13.42,2.15,19.67l.13,1.47-.99-1.09c-1.58-1.73-4.04-3.18-6.19-4.23-2.12-1.04-3.89-1.65-4.07-1.71h0s0,0,0,0c-.02,0-.03,0-.05,0-.02,0-.03,0-.05.01-.01,0-.03.02-.04.03-.01.01-.02.03-.03.04,0,.02,0,.04,0,.05,0,.02,0,.04.01.05,0,.02.02.03.03.04.01.01.03.02.05.02h.01c.06.02,2.41.83,4.97,2.17,1.28.67,2.63,1.48,3.78,2.39,1.14.91,2.13,1.96,2.62,3.12l.03.08v.08c.38,4.84.59,9.17.51,12.44,0,.03.01.06.03.09.02.03.05.04.08.05h0s0,0,0,0h0s.06-.01.09-.04c.02-.02.04-.06.04-.09h.5m5.66-40.74l-.42-.27c-.04.06-1.65,2.56-3.38,5.76-1.72,3.18-3.58,7.11-4.07,10.01v.07s0,.07,0,.07c.48,4.33.9,8.6,1.21,12.54v.03s0,.04,0,.04c.38,4.89.58,9.24.5,12.5h.5m5.66-40.74c-.07.1-6.43,9.96-7.38,15.57.48,4.33.9,8.62,1.21,12.56,0,.02,0,.04,0,.06.38,4.89.59,9.27.5,12.55m5.66-40.75l-5.86,41.19c.12-.12.19-.27.2-.44"/>
        </g>
        <g class="cls-38">
          <path class="cls-34" d="m133.22,191.93c3.39-3.32,5.59-6.96,6.77-10.15.6-1.62.93-3.12,1.03-4.39.1-1.28-.05-2.31-.37-3.01-.31-.68-.97-1.32-1.88-1.95-.79-.54-1.71-1.05-2.66-1.58-.15-.08-.29-.16-.44-.24-1.09-.6-2.19-1.24-3.07-1.96-.87-.71-1.58-1.56-1.78-2.62-.31-1.63-1.79-4.3-4.42-6.41-2.61-2.1-6.3-3.62-11-3.02-2.31.29-3.83,1.28-4.73,2.59-.91,1.32-1.23,3.04-1.01,4.85.44,3.65,3.03,7.53,6.92,9.04,2.05.8,4.46,2.01,6.24,3.98,1.8,1.99,2.95,4.71,2.5,8.45-.2,1.68.2,2.88.88,3.76.69.89,1.7,1.5,2.78,1.9,1.08.4,2.19.6,3.03.69.42.05.78.07,1.02.07.07,0,.13,0,.19,0Z"/>
          <path class="cls-33" d="m135.45,208.97h0c.03-.06.04-.13.04-.2h0c-.01-.7-.24-9.26-1.96-18.56-.86-4.65-2.09-9.46-3.84-13.56-1.76-4.11-4.02-7.42-6.89-9.17l.26-.43-.26.43c-.1-.06-.22-.08-.34-.05-.11.03-.21.1-.27.2-.06.1-.08.22-.05.34.03.12.1.22.2.28,2.92,1.78,5.12,5.23,6.78,9.31,1.67,4.1,2.83,8.91,3.64,13.5,1.61,9.14,1.84,17.47,1.84,17.72h0c0,.11.04.2.1.28.06.08.15.13.25.15.1.02.2,0,.29-.04.09-.04.16-.12.2-.21Z"/>
        </g>
        <path class="cls-36" d="m130.85,237.96v.02s0,.02,0,.02c.07.9.47,1.75,1.11,2.39.64.63,1.48,1.02,2.38,1.09h23.92c.9-.07,1.74-.45,2.39-1.08.64-.64,1.04-1.49,1.11-2.39v-.02s0-.02,0-.02l4.84-33.06h-40.6l4.84,33.06Z"/>
        <g class="cls-38">
          <path class="cls-37" d="m154.67,197.41c-.02-.06-.05-.15-.08-.26-.08-.25-.18-.6-.29-1.04-.22-.87-.48-2.05-.61-3.28-.13-1.24-.13-2.5.14-3.56.26-1.05.78-1.84,1.63-2.26.65-.32,1.24-.58,1.77-.83.31-.14.61-.28.89-.41.75-.35,1.4-.69,1.9-1.09.52-.41.89-.9,1.07-1.56.18-.64.16-1.38-.02-2.29-.3-1.59.16-3.27,1.08-4.47.92-1.2,2.22-1.84,3.58-1.54,1.85.41,3.31-.44,4.4-1.6,1.08-1.15,1.88-2.66,2.44-3.76.19-.38.71-.77,1.47-.99.75-.22,1.65-.25,2.53,0,.87.24,1.69.76,2.31,1.66.61.9,1.04,2.2,1.02,4.06l-25.24,23.22Zm0,0c1.94,1.82,3.81,2.88,5.55,3.22,1.74.34,3.38-.05,4.86-1.21,1.4-1.09,1.65-2.95,1.81-4.75,0-.1.02-.2.02-.3.07-.76.13-1.52.31-2.1.1-.34.26-.67.52-.92.28-.26.63-.4,1.04-.41,1.33-.02,3.26-.63,4.72-1.86,1.43-1.22,2.37-3.02,1.84-5.5-.31-1.43-.17-2.53.26-3.42.42-.88,1.1-1.52,1.75-2.07.12-.1.24-.21.36-.3,1.19-1,2.19-1.84,2.2-3.59l-25.24,23.22Z"/>
          <path class="cls-29" d="m174.21,175.09h0m0,0h0m0,0v.04s.02.03.02.03l.03.13-.05-.19Zm-9.13,12.78c.09-.05.18-.1.28-.15l-.09-.11c-.06.09-.13.17-.19.26Z"/>
        </g>
        <g class="cls-43">
          <g class="cls-38">
            <path class="cls-35" d="m150.79,132.28h0c-2.75-2.89-5.4-4.33-7.78-4.81-2.37-.48-4.52-.03-6.29.92-1.78.96-3.18,2.41-4.04,3.93-.87,1.53-1.15,3.03-.82,4.1.76,2.49,1.75,5.89,1.79,9.12.04,3.25-.89,6.44-4.07,8.39-2.75,1.68-3.82,4.82-3.44,8.12.38,3.3,2.21,6.69,5.12,8.74,1.55,1.09,2.6,2.14,3.21,3.26.62,1.13.76,2.3.59,3.6-.17,1.27-.64,2.68-1.26,4.31-.23.61-.48,1.24-.75,1.91-.46,1.16-.96,2.43-1.49,3.87-.76,2.09-.31,4.22.87,6.29,1.19,2.07,3.08,4.04,5.12,5.75,2.03,1.7,4.16,3.13,5.79,4.13.81.5,1.5.89,1.98,1.16.24.13.43.24.56.3.02,0,.03.02.05.03.01,0,.03.01.04.02,5.73-.06,10.29-1.22,13.55-3.35,3.27-2.14,5.27-5.27,5.84-9.35.56-3.98-1.94-7.35-4.32-10.29-.13-.16-.26-.32-.4-.49-1.02-1.25-1.99-2.45-2.54-3.53-.31-.62-.52-1.25-.49-1.88.02-.65.29-1.24.81-1.76h0c2.08-2.07,4.18-5.94,4.58-10.08.4-4.1-.88-8.43-5.5-11.54-2.48-1.66-3.77-3.43-4.39-5.29-.61-1.83-.53-3.69-.36-5.48.03-.33.07-.66.1-.99.34-3.24.66-6.24-2.08-9.11Z"/>
            <path class="cls-33" d="m155.8,161.97l-.42-.27s.03-.07.02-.1c0-.04-.03-.07-.06-.08-.03-.02-.06-.03-.1-.02-.03,0-.06.03-.08.06l-.42-.27.42.27c-2.62,4.06-4.86,8.37-6.66,12.85l-.96-.13c-.25-2.13-.5-4.25-.76-6.33v-.03s0,0,0,0c0,0,0-.02,0-.04-1.69-13.51-3.51-25.2-3.54-25.42h0s0-.02,0-.02c0-.02,0-.03-.02-.05,0-.01-.02-.03-.04-.04l.3-.4-.3.4s-.03-.02-.05-.02c-.02,0-.03,0-.05,0l-.08-.49.08.49s-.03,0-.05.02c-.01,0-.03.02-.04.04l-.41-.29.41.29s-.02.03-.02.05c0,.02,0,.04,0,.05h0s0,.01,0,.01c.03.22,1.65,10.61,3.25,23.11l.19,1.51-1.05-1.1c-1.6-1.68-3.77-2.92-5.6-3.76-1.82-.84-3.26-1.26-3.38-1.29h-.02s-.02-.01-.02-.01c-.02,0-.03,0-.05,0-.02,0-.03,0-.05.01-.02,0-.03.02-.04.03l-.39-.32.39.32s-.02.03-.02.05c0,.02,0,.04,0,.05l-.5.07.5-.07s0,.04.02.05c0,.02.02.03.04.04.01.01.03.02.05.02h.01s.01,0,.01,0c.06.01,1.92.56,4.1,1.64,2.16,1.08,4.72,2.74,6.06,5.02l.05.09v.1c.83,6.51,1.61,13.42,2.15,19.67l.13,1.47-.99-1.09c-1.58-1.73-4.04-3.18-6.19-4.23-2.12-1.04-3.89-1.65-4.07-1.71h0s0,0,0,0c-.02,0-.03,0-.05,0-.02,0-.03,0-.05.01-.01,0-.03.02-.04.03-.01.01-.02.03-.03.04,0,.02,0,.04,0,.05,0,.02,0,.04.01.05,0,.02.02.03.03.04.01.01.03.02.05.02h.01c.06.02,2.41.83,4.97,2.17,1.28.67,2.63,1.48,3.78,2.39,1.14.91,2.13,1.96,2.62,3.12l.03.08v.08c.38,4.84.59,9.17.51,12.44,0,.03.01.06.03.09.02.03.05.04.08.05h0s0,0,0,0h0s.06-.01.09-.04c.02-.02.04-.06.04-.09h.5m5.66-40.74l-.42-.27c-.04.06-1.65,2.56-3.38,5.76-1.72,3.18-3.58,7.11-4.07,10.01v.07s0,.07,0,.07c.48,4.33.9,8.6,1.21,12.54v.03s0,.04,0,.04c.38,4.89.58,9.24.5,12.5h.5m5.66-40.74c-.07.1-6.43,9.96-7.38,15.57.48,4.33.9,8.62,1.21,12.56,0,.02,0,.04,0,.06.38,4.89.59,9.27.5,12.55m5.66-40.75l-5.86,41.19c.12-.12.19-.27.2-.44"/>
          </g>
          <g class="cls-38">
            <path class="cls-34" d="m133.22,191.93c3.39-3.32,5.59-6.96,6.77-10.15.6-1.62.93-3.12,1.03-4.39.1-1.28-.05-2.31-.37-3.01-.31-.68-.97-1.32-1.88-1.95-.79-.54-1.71-1.05-2.66-1.58-.15-.08-.29-.16-.44-.24-1.09-.6-2.19-1.24-3.07-1.96-.87-.71-1.58-1.56-1.78-2.62-.31-1.63-1.79-4.3-4.42-6.41-2.61-2.1-6.3-3.62-11-3.02-2.31.29-3.83,1.28-4.73,2.59-.91,1.32-1.23,3.04-1.01,4.85.44,3.65,3.03,7.53,6.92,9.04,2.05.8,4.46,2.01,6.24,3.98,1.8,1.99,2.95,4.71,2.5,8.45-.2,1.68.2,2.88.88,3.76.69.89,1.7,1.5,2.78,1.9,1.08.4,2.19.6,3.03.69.42.05.78.07,1.02.07.07,0,.13,0,.19,0Z"/>
            <path class="cls-33" d="m135.45,208.97h0c.03-.06.04-.13.04-.2h0c-.01-.7-.24-9.26-1.96-18.56-.86-4.65-2.09-9.46-3.84-13.56-1.76-4.11-4.02-7.42-6.89-9.17l.26-.43-.26.43c-.1-.06-.22-.08-.34-.05-.11.03-.21.1-.27.2-.06.1-.08.22-.05.34.03.12.1.22.2.28,2.92,1.78,5.12,5.23,6.78,9.31,1.67,4.1,2.83,8.91,3.64,13.5,1.61,9.14,1.84,17.47,1.84,17.72h0c0,.11.04.2.1.28.06.08.15.13.25.15.1.02.2,0,.29-.04.09-.04.16-.12.2-.21Z"/>
          </g>
          <path class="cls-36" d="m130.85,237.95v.02s0,.02,0,.02c.07.9.47,1.75,1.11,2.39.64.63,1.48,1.02,2.38,1.08h23.92c.9-.06,1.74-.45,2.39-1.08.64-.64,1.04-1.49,1.11-2.39v-.02s0-.02,0-.02l4.84-33.06h-40.6l4.84,33.06Z"/>
          <g class="cls-38">
            <path class="cls-37" d="m154.67,197.41c-.02-.06-.05-.15-.08-.26-.08-.25-.18-.6-.29-1.04-.22-.87-.48-2.05-.61-3.28-.13-1.24-.13-2.5.14-3.56.26-1.05.78-1.84,1.63-2.26.65-.32,1.24-.58,1.77-.83.31-.14.61-.28.89-.41.75-.35,1.4-.69,1.9-1.09.52-.41.89-.9,1.07-1.56.18-.64.16-1.38-.02-2.29-.3-1.59.16-3.27,1.08-4.47.92-1.2,2.22-1.84,3.58-1.54,1.85.41,3.31-.44,4.4-1.6,1.08-1.15,1.88-2.66,2.44-3.76.19-.38.71-.77,1.47-.99.75-.22,1.65-.25,2.53,0,.87.24,1.69.76,2.31,1.66.61.9,1.04,2.2,1.02,4.06l-25.24,23.22Zm0,0c1.94,1.82,3.81,2.88,5.55,3.22,1.74.34,3.38-.05,4.86-1.21,1.4-1.09,1.65-2.95,1.81-4.75,0-.1.02-.2.02-.3.07-.76.13-1.52.31-2.1.1-.34.26-.67.52-.92.28-.26.63-.4,1.04-.41,1.33-.02,3.26-.63,4.72-1.86,1.43-1.22,2.37-3.02,1.84-5.5-.31-1.43-.17-2.53.26-3.42.42-.88,1.1-1.52,1.75-2.07.12-.1.24-.21.36-.3,1.19-1,2.19-1.84,2.2-3.59l-25.24,23.22Z"/>
            <path class="cls-29" d="m174.21,175.09h0m0,0h0m0,0v.04s.02.03.02.03l.03.13-.05-.19Zm-9.13,12.78c.09-.05.18-.1.28-.15l-.09-.11c-.06.09-.13.17-.19.26Z"/>
          </g>
        </g>
      </g>
    </g>
  </g>
</svg>
