<?xml version="1.0" standalone="no"?>
<!DOCTYPE svg PUBLIC "-//W3C//DTD SVG 20010904//EN"
 "http://www.w3.org/TR/2001/REC-SVG-20010904/DTD/svg10.dtd">
<svg version="1.0" xmlns="http://www.w3.org/2000/svg"
 width="256.000000pt" height="256.000000pt" viewBox="0 0 256.000000 256.000000"
 preserveAspectRatio="xMidYMid meet">
<metadata>
Created by potrace 1.11, written by Peter Selinger 2001-2013
</metadata>
<g transform="translate(0.000000,256.000000) scale(0.100000,-0.100000)"
fill="#000000" stroke="none">
<path d="M1762 2539 c-212 -54 -380 -214 -454 -431 -17 -50 -21 -87 -22 -183
0 -136 9 -175 66 -294 69 -145 209 -264 378 -322 83 -28 237 -35 330 -14 216
49 403 223 473 438 29 91 32 243 7 342 -55 216 -226 395 -440 460 -84 25 -248
28 -338 4z m315 -167 c126 -48 214 -126 268 -237 44 -89 55 -141 51 -240 -11
-246 -204 -440 -451 -451 -271 -12 -490 187 -501 457 -9 228 136 424 359 483
73 20 208 14 274 -12z"/>
<path d="M540 2223 c-226 -77 -292 -362 -124 -529 67 -65 124 -88 224 -88 100
-1 159 23 225 89 65 65 89 125 89 225 0 100 -24 160 -89 225 -81 82 -218 115
-325 78z m184 -169 c125 -85 83 -270 -66 -290 -113 -16 -205 98 -169 209 13
38 53 81 91 96 41 16 108 9 144 -15z"/>
<path d="M468 1255 c-113 -32 -194 -81 -280 -167 -86 -86 -147 -194 -172 -306
-18 -78 -17 -221 1 -287 8 -27 15 -55 16 -61 2 -7 20 -46 41 -89 55 -111 162
-217 277 -273 110 -55 188 -71 314 -67 167 5 299 61 420 180 209 204 253 515
109 772 -50 91 -161 198 -252 246 -145 77 -323 96 -474 52z m329 -163 c193
-74 310 -232 319 -427 4 -100 -7 -150 -51 -241 -39 -81 -130 -174 -206 -211
-192 -95 -420 -55 -566 99 -93 99 -136 216 -129 353 10 211 152 384 359 439
73 20 208 14 274 -12z"/>
<path d="M1801 1104 c-86 -23 -167 -72 -229 -139 -93 -99 -133 -205 -128 -339
5 -138 50 -240 148 -333 217 -205 562 -165 727 84 205 309 -9 725 -379 738
-52 2 -106 -2 -139 -11z m255 -176 c258 -129 236 -497 -36 -591 -65 -22 -172
-16 -235 14 -61 29 -122 90 -155 155 -34 68 -35 196 -1 266 39 81 106 141 191
171 64 23 174 16 236 -15z"/>
</g>
</svg>
