<svg xmlns="http://www.w3.org/2000/svg" version="1.0" viewBox="0 0 700 700"><path d="M297.9.4c-.2.2-3.5.7-7.3 1.1-21.4 2.1-46.6 14.5-63 31C213.5 46.7 202.3 68 199.4 86c-.3 1.9-1 5.5-1.5 8-1.4 7.3-.4 34.5 1.6 42 7.4 28 29.4 47.8 69.5 62.4 4.1 1.5 8.4 3.1 9.5 3.6 4.2 1.8 30 9.6 41 12.5 12.5 3.2 51.3 14.8 63 18.8 30.3 10.4 53 20.9 70.5 32.7 18.6 12.6 40.1 32.3 50.8 46.5 10.4 13.9 20.4 38 22.8 55 1 6.8 1.1 34.6.1 42l-.7 6 5.8-10c9.6-16.7 17.9-34.9 23.7-52.2 3.8-11.1 8.9-32.3 10.1-41.8.2-1.7.6-4.1.9-5.5 2.5-12.4 2.5-57.4 0-71-.1-.8-.6-3.5-1-6-9.9-65-44.8-126.1-97-169.5-8-6.7-21-16.2-27.2-20-19.7-12-33.1-18.8-49.4-24.8-9.9-3.7-28.1-9.1-34-10.1-1.9-.3-4.5-.8-5.9-1.1-1.4-.3-4.7-.8-7.5-1.1-2.7-.3-5.7-.8-6.5-1.1-1.7-.6-39.5-1.5-40.1-.9zM37.8 161.8c-9.1 15.4-21.7 42.8-24.3 53.2-.1.3-.4 1.2-.8 2-2.6 6.5-7.6 27.4-9.3 38.9-.4 2.5-.8 5.5-1 6.6-2.2 11.7-2.5 53.8-.5 68 2 14.9 2.2 15.6 4.7 27 5.7 25.8 16.5 53.4 29.1 75 4.4 7.4 13.6 21.8 14.4 22.5.3.3 1.9 2.5 3.6 5 10.8 15.8 31 36.6 50.6 52.4 8.9 7.2 28 20.6 29.2 20.6.1 0 3.2 1.7 6.6 3.8 9.4 5.6 25.6 13.3 36.4 17.2 29.2 10.5 50.8 14.4 79 14.4 19.7 0 29.5-1.3 43-5.9 16.6-5.6 29.6-13.6 42.1-25.9 15.2-15.1 24-31.8 29-54.6 2.1-9.8 2.6-33.9.8-43.4-5.8-30.7-24.7-49.7-66.1-66.6-5.1-2.1-9.3-3.6-9.3-3.3 0 .3-.6.1-1.2-.4-1.8-1.4-21.9-7.6-58.9-18.2-49.7-14.2-71.7-21.9-93.7-33-25-12.5-42.6-25.2-62.4-45.3-20-20.2-31.4-41.7-36.2-68.2-1.5-8.5-1.9-34.6-.6-43.6.4-3 .7-5.6.6-5.7-.1-.2-2.3 3.2-4.8 7.5z"/><path d="M664.3 260c-10.3 5.2-13.4 11.3-13.8 28-.4 14.1-1.8 33.2-3 41-.3 1.9-.8 4.8-1 6.5-.5 3.8-1.3 8.6-2.5 15-.5 2.7-1.1 6.1-1.4 7.5-.8 4.8-6.7 27.5-9.3 35.5-6.5 20.4-26.1 65.5-28.5 65.5-.4 0-.8.6-.8 1.4 0 1.7-.9 3.3-15 24.6-17.8 27.1-39.4 52.3-61.4 71.5-3.1 2.8-7.1 6.3-8.9 7.8-22 19.4-59.7 42.7-90.2 55.7-5.5 2.3-10.9 4.6-12 5.1-3.7 1.6-16 6.1-17.5 6.4-.8.2-5.1 1.5-9.5 2.9-10.2 3.2-25.1 6.9-38.5 9.5-13.9 2.7-15 2.9-22.8 3.6-3.7.4-7.8.8-9.2 1.1-3.5.5-17.3 1.4-31.2 1.9-13.3.4-18.2 2-23.5 7.5-11.9 12.3-8.6 31.2 7 39.7 6.3 3.5 52.3 1.6 78.7-3.2 1.4-.3 3.9-.7 5.5-1 2.6-.5 8.2-1.6 15-2.9 1.1-.3 4-.9 6.5-1.5 2.5-.7 5.4-1.4 6.4-1.6 53.2-12.4 117.1-44.1 159.5-79 19.6-16.2 31.1-26.9 47.1-44.2 18.7-20.1 40.4-49.4 52.2-70.3 1.4-2.5 4.1-7.2 6-10.5 5.9-10.5 15.5-30.5 21.2-44.6 4.9-12 14.1-38.8 15-43.6.2-1 .9-3.8 1.6-6.3.7-2.5 1.3-5.2 1.5-6l2-8c.9-3.6 2.1-8.8 2.6-11.5.4-2.8 1.1-6.1 1.4-7.5.3-1.4.8-4.5 1.1-7 .3-2.5.7-5.2.9-6 .3-.8.7-3.8 1-6.5.3-2.8.7-6.6 1-8.5 1.1-7.9 2-26.3 2-39.5 0-11.5-.3-14.6-1.8-17.2-3.3-6.1-7.7-10.2-13.3-12.3-7.7-2.8-12.9-2.6-20.1 1z"/></svg>
