<?xml version="1.0" standalone="no"?>
<!DOCTYPE svg PUBLIC "-//W3C//DTD SVG 20010904//EN"
 "http://www.w3.org/TR/2001/REC-SVG-20010904/DTD/svg10.dtd">
<svg version="1.0" xmlns="http://www.w3.org/2000/svg"
 width="700.000000pt" height="700.000000pt" viewBox="0 0 700.000000 700.000000"
 preserveAspectRatio="xMidYMid meet">
<metadata>
Created by potrace 1.14, written by Peter Selinger 2001-2017
</metadata>
<g transform="translate(0.000000,700.000000) scale(0.100000,-0.100000)"
fill="#000000" stroke="none">
<path d="M2979 6996 c-2 -2 -35 -7 -73 -11 -214 -21 -466 -145 -630 -310 -141
-142 -253 -355 -282 -535 -3 -19 -10 -55 -15 -80 -14 -73 -4 -345 16 -420 74
-280 294 -478 695 -624 41 -15 84 -31 95 -36 42 -18 300 -96 410 -125 125 -32
513 -148 630 -188 303 -104 530 -209 705 -327 186 -126 401 -323 508 -465 104
-139 204 -380 228 -550 10 -68 11 -346 1 -420 l-7 -60 58 100 c96 167 179 349
237 522 38 111 89 323 101 418 2 17 6 41 9 55 25 124 25 574 0 710 -1 8 -6 35
-10 60 -99 650 -448 1261 -970 1695 -80 67 -210 162 -272 200 -197 120 -331
188 -494 248 -99 37 -281 91 -340 101 -19 3 -45 8 -59 11 -14 3 -47 8 -75 11
-27 3 -57 8 -65 11 -17 6 -395 15 -401 9z"/>
<path d="M378 5382 c-91 -154 -217 -428 -243 -532 -1 -3 -4 -12 -8 -20 -26
-65 -76 -274 -93 -389 -4 -25 -8 -55 -10 -66 -22 -117 -25 -538 -5 -680 20
-149 22 -156 47 -270 57 -258 165 -534 291 -750 44 -74 136 -218 144 -225 3
-3 19 -25 36 -50 108 -158 310 -366 506 -524 89 -72 280 -206 292 -206 1 0 32
-17 66 -38 94 -56 256 -133 364 -172 292 -105 508 -144 790 -144 197 0 295 13
430 59 166 56 296 136 421 259 152 151 240 318 290 546 21 98 26 339 8 434
-58 307 -247 497 -661 666 -51 21 -93 36 -93 33 0 -3 -6 -1 -12 4 -18 14 -219
76 -589 182 -497 142 -717 219 -937 330 -250 125 -426 252 -624 453 -200 202
-314 417 -362 682 -15 85 -19 346 -6 436 4 30 7 56 6 57 -1 2 -23 -32 -48 -75z"/>
<path d="M6643 4400 c-103 -52 -134 -113 -138 -280 -4 -141 -18 -332 -30 -410
-3 -19 -8 -48 -10 -65 -5 -38 -13 -86 -25 -150 -5 -27 -11 -61 -14 -75 -8 -48
-67 -275 -93 -355 -65 -204 -261 -655 -285 -655 -4 0 -8 -6 -8 -14 0 -17 -9
-33 -150 -246 -178 -271 -394 -523 -614 -715 -31 -28 -71 -63 -89 -78 -220
-194 -597 -427 -902 -557 -55 -23 -109 -46 -120 -51 -37 -16 -160 -61 -175
-64 -8 -2 -51 -15 -95 -29 -102 -32 -251 -69 -385 -95 -139 -27 -150 -29 -228
-36 -37 -4 -78 -8 -92 -11 -35 -5 -173 -14 -312 -19 -133 -4 -182 -20 -235
-75 -119 -123 -86 -312 70 -397 63 -35 523 -16 787 32 14 3 39 7 55 10 26 5
82 16 150 29 11 3 40 9 65 15 25 7 54 14 64 16 532 124 1171 441 1595 790 196
162 311 269 471 442 187 201 404 494 522 703 14 25 41 72 60 105 59 105 155
305 212 446 49 120 141 388 150 436 2 10 9 38 16 63 7 25 13 52 15 60 2 8 11
44 20 80 9 36 21 88 26 115 4 28 11 61 14 75 3 14 8 45 11 70 3 25 7 52 9 60
3 8 7 38 10 65 3 28 7 66 10 85 11 79 20 263 20 395 0 115 -3 146 -18 172 -33
61 -77 102 -133 123 -77 28 -129 26 -201 -10z"/>
</g>
</svg>
