<svg width="16" height="16" viewBox="0 0 16 16" fill="none" xmlns="http://www.w3.org/2000/svg">
<path fill-rule="evenodd" clip-rule="evenodd" d="M-2.57503e-07 8C-2.57268e-07 3.58172 3.58172 -1.48667e-07 8 -1.48557e-07C12.4183 -1.48447e-07 16 3.58172 16 8C16 12.4183 12.4183 16 8 16C3.58172 16 -2.57738e-07 12.4183 -2.57503e-07 8ZM8.4653 13.7382C8.23213 13.9683 8.07605 14 8 14C7.92395 14 7.76787 13.9683 7.5347 13.7382C7.29723 13.5038 7.03751 13.1151 6.79783 12.5558C6.40914 11.6489 6.12491 10.4144 6.03237 9L9.96763 9C9.87509 10.4144 9.59086 11.6489 9.20218 12.5558C8.96249 13.1151 8.70277 13.5038 8.4653 13.7382ZM11.9714 9C11.8822 10.5464 11.5877 11.9709 11.1336 13.1177C12.5825 12.2287 13.6249 10.7415 13.917 9L11.9714 9ZM13.917 7L11.9714 7C11.8822 5.45361 11.5877 4.02907 11.1336 2.88228C12.5825 3.77135 13.6249 5.25848 13.917 7ZM9.96763 7L6.03237 7C6.12491 5.58559 6.40914 4.3511 6.79783 3.44417C7.03751 2.8849 7.29723 2.4962 7.5347 2.26184C7.76787 2.03172 7.92395 2 8 2C8.07605 2 8.23213 2.03172 8.4653 2.26184C8.70277 2.4962 8.96249 2.8849 9.20218 3.44417C9.59086 4.3511 9.87509 5.58559 9.96763 7ZM4.02863 7C4.11784 5.45361 4.41228 4.02907 4.86644 2.88228C3.41752 3.77135 2.37513 5.25848 2.08296 7L4.02863 7ZM2.08296 9C2.37513 10.7415 3.41752 12.2287 4.86644 13.1177C4.41228 11.9709 4.11784 10.5464 4.02863 9L2.08296 9Z" fill="currentColor"/>
</svg>
