<svg width="17" height="17" viewBox="0 0 17 17" fill="none" xmlns="http://www.w3.org/2000/svg">
<path d="M15.102 3.5773L10.852 2.16063H10.8024C10.7694 2.15731 10.7362 2.15731 10.7032 2.16063H10.5403H10.4482H10.3987L6.37533 3.54188L2.35199 2.16063C2.24547 2.1255 2.13213 2.11618 2.0213 2.13342C1.91047 2.15066 1.80531 2.19397 1.71449 2.2598C1.62295 2.32497 1.54822 2.411 1.49649 2.51076C1.44476 2.61053 1.41751 2.72117 1.41699 2.83355V12.7502C1.41661 12.8987 1.46291 13.0436 1.54934 13.1643C1.63577 13.2851 1.75797 13.3756 1.89866 13.4231L6.14866 14.8398C6.29135 14.8863 6.44514 14.8863 6.58783 14.8398V14.8398L10.6253 13.494L14.6487 14.8752C14.7239 14.8854 14.8001 14.8854 14.8753 14.8752C15.0234 14.8773 15.168 14.8299 15.2862 14.7406C15.3777 14.6754 15.4524 14.5894 15.5042 14.4897C15.5559 14.3899 15.5831 14.2793 15.5837 14.1669V4.25021C15.584 4.10171 15.5377 3.95685 15.4513 3.8361C15.3649 3.71535 15.2427 3.62481 15.102 3.5773V3.5773ZM5.66699 13.1823L2.83366 12.2402V3.81813L5.66699 4.76021V13.1823ZM9.91699 12.2402L7.08366 13.1823V4.76021L9.91699 3.81813V12.2402ZM14.167 13.1823L11.3337 12.2402V3.81813L14.167 4.76021V13.1823Z" fill="currentColor"/>
</svg>
