<svg width="16" height="16" viewBox="0 0 16 16" fill="none" xmlns="http://www.w3.org/2000/svg">
    <path d="M7.38477 1C10.9057 1 13.7694 3.86387 13.7695 7.38477C13.7695 8.78478 13.3151 10.0801 12.5479 11.1338L15.707 14.293L14.293 15.707L11.1338 12.5479C10.0802 13.315 8.78499 13.7695 7.38477 13.7695C3.86387 13.7694 1 10.9047 1 7.38477C1.00013 3.86395 3.86395 1.00013 7.38477 1ZM7.38477 3C4.96695 3.00013 3.00013 4.96695 3 7.38477C3 9.80269 4.96687 11.7694 7.38477 11.7695C9.80277 11.7695 11.7695 9.80277 11.7695 7.38477C11.7694 4.96687 9.80269 3 7.38477 3ZM10.5 8.5H4.5V6.5H10.5V8.5Z" fill="currentColor"/>
</svg>
