<?xml version="1.0" encoding="UTF-8"?>
<svg width="50px" height="48px" viewBox="0 0 50 48" version="1.1" xmlns="http://www.w3.org/2000/svg" xmlns:xlink="http://www.w3.org/1999/xlink">
    <title>Cw Icons / ServiceMapFilled / apigateway</title>
    <g id="Cw-Icons-/-ServiceMapFilled-/-apigateway" stroke="none" stroke-width="1" fill="none" fill-rule="evenodd">
        <path d="M36.4812053,0.152004581 L49.4812053,6.50200458 C49.8213708,6.66866339 50.0381698,7.01321907 50.0412053,7.39200458 L50.0412053,42.6820046 C50.0632674,43.1328656 49.7805438,43.5426099 49.3512053,43.6820046 L36.3312053,48.0020046 C36.2217392,48.0173307 36.1106715,48.0173307 36.001202,48.0020046 C35.7893789,48.002759 35.5827845,47.9362286 35.4112053,47.8120046 C35.1527911,47.6231732 35.000375,47.3220585 35.001202,47.0020046 L35.0012053,36.0020046 L32.0012053,36.0020046 L32.0012053,34.0020046 L35.0012053,34.0020046 L35.0012053,14.0020046 L32.0012053,14.0020046 L32.0012053,12.0020046 L35.0012053,12.0020046 L35.001202,1.00200458 C35.0026549,0.654518136 35.1843897,0.332696081 35.4812053,0.152004581 C35.7906064,-0.0266282137 36.1718043,-0.0266282137 36.4812053,0.152004581 Z M14.5312063,0.152003067 C14.8241918,0.335119033 15.0018974,0.65650276 15.0012087,1.00200458 L15.001,12.002 L17.0012053,12.0020046 L17.0012053,14.0020046 L15.001,14.002 L15.001,34.002 L17.0012053,34.0020046 L17.0012053,36.0020046 L15.001,36.002 L15.0012087,47.0020046 C15.0020356,47.3220585 14.8496196,47.6231732 14.5912053,47.8120046 C14.4196262,47.9362286 14.2130318,48.002759 14.0012053,48.0020046 C13.8983716,48.0163743 13.7940391,48.0163743 13.6912053,48.0020046 L0.691205332,43.6820046 C0.261866839,43.5426099 -0.0208566888,43.1328656 0.00120533243,42.6820046 L0.00120533243,7.34200458 C0.00424082934,6.96321907 0.221039908,6.61866339 0.561205332,6.45200458 L13.5612053,0.102004581 C13.8714655,-0.0500172183 14.2382207,-0.0311128994 14.5312063,0.152003067 Z M29.0012053,34.0020046 L29.0012053,36.0020046 L26.0012053,36.0020046 L26.0012053,34.0020046 L29.0012053,34.0020046 Z M23.0012053,34.0020046 L23.0012053,36.0020046 L20.0012053,36.0020046 L20.0012053,34.0020046 L23.0012053,34.0020046 Z M26.0397453,17.7923299 L27.9343896,18.4328946 L23.9596859,30.1891623 L22.0650416,29.5485976 L26.0397453,17.7923299 Z M20.6012053,19.5020046 L21.9012053,21.0020046 L19.0012053,23.4720046 L21.8712053,25.9220046 L20.6112053,27.4420046 L16.8512053,24.2320046 C16.6290389,24.0420163 16.5011284,23.7643288 16.5011284,23.4720046 C16.5011284,23.1796804 16.6290389,22.9019928 16.8512053,22.7120046 L20.6012053,19.5020046 Z M29.3912053,19.4820046 L33.1512053,22.6820046 C33.3733717,22.8719928 33.5012823,23.1496804 33.5012823,23.4420046 C33.5012823,23.7343288 33.3733717,24.0120163 33.1512053,24.2020046 L29.4012053,27.4420046 L28.1012053,25.9220046 L31.0012053,23.4620046 L28.1012053,21.0020046 L29.3912053,19.4820046 Z M29.0012053,12.0020046 L29.0012053,14.0020046 L26.0012053,14.0020046 L26.0012053,12.0020046 L29.0012053,12.0020046 Z M23.0012053,12.0020046 L23.0012053,14.0020046 L20.0012053,14.0020046 L20.0012053,12.0020046 L23.0012053,12.0020046 Z" id="Combined-Shape" fill="currentColor"></path>
    </g>
</svg>