<svg width="21" height="22" viewBox="0 0 21 22" fill="none" xmlns="http://www.w3.org/2000/svg">
<g clip-path="url(#clip0_5209_82767)">
<path d="M10.5039 0L0 5.52821L10.5039 11.0489L21 5.52821L10.5039 0Z" fill="#7D8998"/>
<path d="M10.5039 12.6558C10.3802 12.6558 10.2488 12.6258 10.1329 12.5656L3.57858 9.11328L0 11.0011L10.5039 16.5293L21 11.0011L17.4214 9.11328L10.8671 12.5581C10.7512 12.6182 10.6275 12.6483 10.5039 12.6483V12.6558Z" fill="currentColor"/>
<path d="M17.4291 14.5898L10.867 18.0422C10.7511 18.1023 10.6274 18.1324 10.4961 18.1324C10.3647 18.1324 10.241 18.1023 10.1251 18.0422L3.56304 14.5898L-0.0078125 16.4702L10.4961 21.9984L20.9999 16.4702L17.4291 14.5898Z" fill="currentColor"/>
</g>
<defs>
<clipPath id="clip0_5209_82767">
<rect width="21" height="22" fill="white"/>
</clipPath>
</defs>
</svg>
