<?xml version="1.0" encoding="UTF-8"?>
<svg width="40px" height="47px" viewBox="0 0 40 47" version="1.1" xmlns="http://www.w3.org/2000/svg" xmlns:xlink="http://www.w3.org/1999/xlink">
    <title>Cw Icons / ServiceMapFilled / appmesh</title>
    <g id="Cw-Icons-/-ServiceMapFilled-/-appmesh" stroke="none" stroke-width="1" fill="none" fill-rule="evenodd">
        <path d="M20.3214726,-1.20204251 L40.2343443,9.48556428 L40.2180093,12.2224804 C40.0912709,11.7902862 39.8519345,11.3769345 39.5,11.025 L39.5,11.025 L39.3651599,10.9002363 C38.8451385,10.4550567 38.1514694,10.2476091 37.4696131,10.2778934 L37.4696131,10.2778934 L37.5,10.225 L31.8,7.125 L30.8,8.925 L35.3573959,11.4049495 C34.9710016,11.9317242 34.8167308,12.5739354 34.8945834,13.2055648 L34.8945834,13.2055648 L30.7,15.225 L31.6,17.025 L35.8606959,14.9730669 C36.0537933,15.1370209 36.2699073,15.2739926 36.4998464,15.3793865 L36.4998464,15.3793865 L36.5,22.525 L38.5,22.525 L38.5009425,15.4614978 C38.873565,15.3246323 39.2184832,15.1065168 39.5,14.825 C39.8429116,14.5132622 40.0789247,14.1334981 40.2080392,13.7250909 L40.0700154,34.2595692 C39.9332725,33.9501251 39.7395994,33.6645994 39.5,33.425 C39.2185222,33.1435222 38.8736607,32.9412742 38.5010976,32.8182559 L38.5010976,32.8182559 L38.5,24.525 L36.5,24.525 L36.499765,32.8927451 C36.2037175,33.0169917 35.9305901,33.1944099 35.7,33.425 C34.8520833,34.1958333 34.6577691,35.3825955 35.1170573,36.3898645 L35.1170573,36.3898645 L30.3,38.925 L31.2,40.725 L36.66523,37.8488206 C36.9643395,37.9631534 37.2821698,38.025 37.6,38.025 C38.3,38.025 39,37.725 39.5,37.225 C39.7308478,36.9941522 39.919063,36.7206718 40.0548041,36.4242422 L40.0428744,38.1909312 L20.4285275,48.5480969 L-0.0290446091,37.8217833 L-0.090655708,9.8606854 L20.3214726,-1.20204251 Z M21.3,34.725 L19.3,34.725 L19.3001155,41.8134381 C18.9767134,41.950897 18.670249,42.154751 18.4,42.425 C18.2765823,42.5484177 18.1653501,42.684021 18.0678074,42.828802 L18.0678074,42.828802 L13,40.125 L12.1,41.925 L17.6649136,44.8936702 C17.7785124,45.3919421 18.0363636,45.8613636 18.4,46.225 C18.9,46.725 19.6,47.025 20.3,47.025 C21,47.025 21.6,46.725 22.2,46.225 C22.5788153,45.8806225 22.8271751,45.4532279 22.9450794,44.9959104 L22.9450794,44.9959104 L28.3,42.225 L27.4,40.425 L22.5929657,42.9119032 C22.4829778,42.7404334 22.3519892,42.5769892 22.2,42.425 C21.9399068,42.1388975 21.6324597,41.9272083 21.3005321,41.7899325 L21.3005321,41.7899325 L21.3,34.725 Z M20.3,43.525 C20.4,43.525 20.6,43.625 20.8,43.725 C21.1,44.025 21.1,44.425 20.8,44.725 C20.5,45.025 20.1,45.025 19.8,44.725 C19.5,44.425 19.5,44.025 19.8,43.725 C19.9,43.625 20.1,43.525 20.3,43.525 Z M3.7,24.525 L1.7,24.525 L1.70028272,32.8529206 C1.36556144,32.9778369 1.05646998,33.16853 0.8,33.425 C0.3,33.925 0,34.625 0,35.325 C0,36.025 0.3,36.725 0.8,37.225 C1.3,37.725 2,38.025 2.7,38.025 C3.09661734,38.025 3.49323467,37.9286906 3.85347299,37.7542614 L3.85347299,37.7542614 L9.1,40.525 L10,38.725 L5.24158761,36.2119687 C5.34454684,35.9269086 5.4,35.6259543 5.4,35.325 C5.4,34.625 5.1,33.925 4.6,33.425 L4.6,33.425 L4.46515986,33.3002363 C4.23827155,33.1060019 3.97832721,32.9570228 3.70073049,32.853299 L3.70073049,32.853299 L3.7,24.525 Z M2.7,34.625 C2.9,34.625 3.1,34.725 3.2,34.825 L3.2,34.825 L3.24953704,34.8828704 C3.33055556,34.9916667 3.4,35.1583333 3.4,35.325 C3.4,35.525 3.3,35.725 3.2,35.825 C2.9,36.125 2.5,36.125 2.2,35.825 C2.1,35.725 2,35.525 2,35.325 C2,35.125 2.1,34.925 2.2,34.825 C2.3,34.725 2.5,34.625 2.7,34.625 Z M37.6,34.625 C37.8,34.625 38,34.725 38.1,34.825 C38.4,35.125 38.4,35.525 38.1,35.825 C37.8,36.125 37.4,36.125 37.1,35.825 C36.8,35.525 36.8,35.125 37.1,34.825 C37.2,34.725 37.4,34.625 37.6,34.625 Z M27.1,17.025 L21.8079169,19.5735515 C20.9783357,18.9726602 19.8667474,18.9436238 18.9604371,19.4864425 L18.9604371,19.4864425 L14.3,17.025 L13.4,18.825 L17.7053544,21.1006552 C17.6365348,21.336437 17.6,21.5807185 17.6,21.825 C17.6,22.525 17.9,23.225 18.4,23.725 C18.6562917,23.9812917 18.9651318,24.1850351 19.2995849,24.3227624 L19.2995849,24.3227624 L19.3,31.625 L21.3,31.625 L21.3005975,24.344714 C21.6083871,24.2193891 21.9041935,24.0208065 22.2,23.725 C22.9121589,23.0775828 23.1632539,22.1367614 22.953285,21.2553092 L22.953285,21.2553092 L28,18.825 L27.1,17.025 Z M20.3,21.125 C20.4,21.125 20.6,21.225 20.8,21.325 C21.1,21.625 21.1,22.025 20.8,22.325 C20.5,22.625 20.1,22.625 19.8,22.325 C19.5,22.025 19.5,21.625 19.8,21.325 C19.9,21.225 20.1,21.125 20.3,21.125 Z M8.8,7.225 L3.12059405,10.3053179 C2.28956448,10.1845775 1.40052847,10.4244715 0.8,11.025 C0.3,11.525 0,12.225 0,12.925 C0,13.625 0.3,14.325 0.8,14.825 C1.05629173,15.0812917 1.36513182,15.2850351 1.69958485,15.4227624 L1.69958485,15.4227624 L1.7,22.525 L3.7,22.525 L3.70142044,15.4223482 C4.03548704,15.2846267 4.34396507,15.0810349 4.6,14.825 C4.73773275,14.6872673 4.86028925,14.5343583 4.96557924,14.3704535 L4.96557924,14.3704535 L9.8,16.925 L10.7,15.125 L5.4,12.325 L5.35040513,12.4280801 C5.29323013,12.1408507 5.18800873,11.8618982 5.04199589,11.6057325 L5.04199589,11.6057325 L9.8,9.025 L8.8,7.225 Z M2.7,12.225 C2.9,12.225 3.1,12.325 3.2,12.425 C3.3,12.525 3.4,12.725 3.4,12.925 C3.4,13.125 3.3,13.325 3.2,13.425 C2.9,13.725 2.5,13.725 2.2,13.425 C2.1,13.325 2,13.125 2,12.925 C2,12.725 2.1,12.525 2.2,12.425 C2.3,12.325 2.5,12.225 2.7,12.225 Z M37.6,12.225 C37.8,12.225 38,12.325 38.1,12.425 C38.4,12.725 38.4,13.125 38.1,13.425 C37.8,13.725 37.4,13.725 37.1,13.425 C36.8,13.125 36.8,12.725 37.1,12.425 C37.2,12.325 37.4,12.225 37.6,12.225 Z M22.2,0.825 C21.2,-0.275 19.5,-0.275 18.4,0.825 C17.9645933,1.2604067 17.6808498,1.84747659 17.6148047,2.45413934 L17.6148047,2.45413934 L17.6,2.425 L12.3,5.325 L13.3,7.125 L18.2247226,4.43174512 C18.279997,4.49894241 18.3384848,4.56348485 18.4,4.625 C18.9,5.125 19.6,5.425 20.3,5.425 C21,5.425 21.6,5.125 22.2,4.625 C22.2821605,4.55030864 22.3581843,4.47171212 22.4280714,4.38975214 L22.4280714,4.38975214 L27.3,7.025 L28.3,5.225 L22.9925445,2.35321011 C22.9050928,1.80322068 22.6409113,1.26591131 22.2,0.825 Z M20.3,2.025 C20.4,2.025 20.6,2.025 20.8,2.225 C21.1,2.525 21.1,2.925 20.8,3.225 C20.5,3.525 20.1,3.525 19.8,3.225 C19.5,2.925 19.5,2.525 19.8,2.225 C19.9,2.125 20.1,2.025 20.3,2.025 Z" id="Combined-Shape" fill="currentColor"></path>
    </g>
</svg>