<?xml version="1.0" encoding="UTF-8"?>
<svg width="49px" height="45px" viewBox="0 0 49 45" version="1.1" xmlns="http://www.w3.org/2000/svg" xmlns:xlink="http://www.w3.org/1999/xlink">
    <title>Cw Icons / ServiceMapFilled / appsync</title>
    <g id="Cw-Icons-/-ServiceMapFilled-/-appsync" stroke="none" stroke-width="1" fill="none" fill-rule="evenodd">
        <path d="M24.84,45.4000225 C21.0243794,45.4000225 17.2709905,44.433048 13.93,42.5900225 L14.93,40.8400225 C23.1635508,45.3463875 33.3990704,43.7457305 39.8637349,36.9408206 C46.3283993,30.1359107 47.4023994,19.8318101 42.48,11.8400225 L41.48,16.8400225 L39.48,16.4500225 L40.93,9.12002247 C41.0674413,8.60303914 41.5874012,8.28577543 42.11,8.40002247 L49.44,9.85002247 L49.05,11.8500225 L44.15,10.8500225 C48.4192989,17.8500763 48.5857648,26.6074018 44.5855787,33.7646484 C40.5853925,40.9218949 33.0391878,45.3686076 24.84,45.4000225 Z M7.5,36.7100225 L7.25,36.7100225 L0,34.8600225 L0.49,32.9200225 L5.16,34.0900225 C0.0379917764,25.2904396 1.40788307,14.1559379 8.5101038,6.86031675 C15.6123245,-0.435304351 26.7060132,-2.1037779 35.64,2.78002247 L34.72,4.53002247 C26.5087448,0 16.2774367,1.5592342 9.78841472,8.32967385 C3.29939271,15.1001135 2.17561481,25.3883667 7.05,33.4000225 L8.35,28.2500225 L10.29,28.7300225 L8.47,35.9500225 C8.35970723,36.3961449 7.95955365,36.7100225 7.5,36.7100225 Z M32.72,32.4000225 C30.8933951,32.4032259 29.2966491,31.1686286 28.84,29.4000225 L20.62,29.4000225 C20.1011489,31.4093284 18.1318482,32.6881503 16.085234,32.3448027 C14.0386199,32.0014552 12.5944693,30.1499802 12.7597466,28.0813573 C12.9250238,26.0127345 14.6448325,24.4140511 16.72,24.4000225 C17.0812176,24.4002607 17.4408806,24.4473194 17.79,24.5400225 L21.97,17.3000225 C20.7806652,16.1740444 20.3978916,14.4367913 21.0038898,12.9152427 C21.609888,11.3936942 23.0822137,10.395285 24.72,10.395285 C26.3577863,10.395285 27.830112,11.3936942 28.4361102,12.9152427 C29.0421084,14.4367913 28.6593348,16.1740444 27.47,17.3000225 L31.72,24.5400225 C32.0464514,24.4531181 32.3822341,24.4061085 32.72,24.4000225 C34.929139,24.4000225 36.7199999,26.1908835 36.7199999,28.4000225 C36.7199999,30.6091614 34.929139,32.4000224 32.72,32.4000225 Z M20.59,27.4000225 L28.84,27.4000225 C29.0259715,26.6911915 29.3989733,26.0453457 29.92,25.5300225 L25.72,18.2700225 C25.0640888,18.439378 24.3759112,18.439378 23.72,18.2700225 L19.52,25.5500225 C20.0529389,26.0513005 20.4341232,26.6923832 20.62,27.4000225 L20.59,27.4000225 Z" id="Shape" fill="currentColor"></path>
    </g>
</svg>