<?xml version="1.0" encoding="UTF-8"?>
<svg width="50px" height="50px" viewBox="0 0 50 50" version="1.1" xmlns="http://www.w3.org/2000/svg" xmlns:xlink="http://www.w3.org/1999/xlink">
    <title>Cw Icons / ServiceMapFilled / autoscaling</title>
    <g id="Cw-Icons-/-ServiceMapFilled-/-autoscaling" stroke="none" stroke-width="1" fill="none" fill-rule="evenodd">
        <path d="M26,36.8657983 L26,46.455 L30.66,41.7957983 L32.07,43.2057983 L25.71,49.5757983 C25.5212812,49.7629848 25.265803,49.8673351 25,49.8658151 C24.735233,49.8621148 24.4816338,49.7585321 24.29,49.5757983 L17.93,43.2057983 L19.34,41.7957983 L24,46.455 L24,36.8657983 L26,36.8657983 Z M25.52,15.0157983 L33.041,19.236 L33.5289423,18.9541655 L34.5310577,20.6849933 L34.03,20.974 L34.03,29.3757983 C34.0293783,29.7365624 33.8344869,30.0690242 33.52,30.2457983 L26,34.474 L26,34.8667361 L24,34.8667361 L24,34.453 L16.52,30.2457983 C16.2055131,30.0690242 16.0106217,29.7365624 16.01,29.3757983 L16.01,21.001 L15.4802496,20.6947582 L16.4823649,18.9639304 L16.976,19.249 L24.52,15.0157983 C24.8294011,14.8371655 25.2105989,14.8371655 25.52,15.0157983 Z M6.28,17.8657983 L12.64,24.2257983 C12.8271865,24.4145172 12.9315368,24.6699953 12.9300167,24.9357983 C12.9315368,25.2016013 12.8271865,25.4570795 12.64,25.6457983 L6.28,32.0057983 L4.86,30.5857983 L9.588,25.865 L0,25.8657983 L0,23.8657983 L9.45,23.865 L4.86,19.2757983 L6.28,17.8657983 Z M43.72,17.8657983 L45.14,19.2757983 L40.55,23.865 L50,23.8657983 L50,25.8657983 L40.412,25.865 L45.14,30.5857983 L43.72,32.0057983 L37.36,25.6457983 C37.1728135,25.4570795 37.0684632,25.2016013 37.0699833,24.9357983 C37.0684632,24.6699953 37.1728135,24.4145172 37.36,24.2257983 L43.72,17.8657983 Z M25,0 C25.2666375,0 25.5222334,0.106485674 25.71,0.295798324 L32.07,6.65579832 L30.66,8.07579832 L26,3.415 L26,12.8657983 L24,12.8657983 L24,3.415 L19.34,8.07579832 L17.93,6.65579832 L24.29,0.295798324 C24.4777666,0.106485674 24.7333625,0 25,0 Z" id="Combined-Shape" fill="currentColor"></path>
    </g>
</svg>