<?xml version="1.0" encoding="UTF-8"?>
<svg width="50px" height="29px" viewBox="0 0 50 29" version="1.1" xmlns="http://www.w3.org/2000/svg" xmlns:xlink="http://www.w3.org/1999/xlink">
    <title>Cw Icons / ServiceMapFilled / cloudtrail</title>
    <g id="Cw-Icons-/-ServiceMapFilled-/-cloudtrail" stroke="none" stroke-width="1" fill="none" fill-rule="evenodd">
        <path d="M31.27,3.6142161 C32.377101,4.7211439 33.2808705,6.01417734 33.94,7.4342161 C35.4116687,6.3276836 37.3326353,6.01375132 39.08,6.5942161 C41.36,7.3542161 42.79,9.4142161 43,12.1742161 C46.49,13.0342161 50,15.6442161 49.9701909,20.6742161 C49.9701909,26.9128126 44.8639925,29.0974848 42.0296258,29.4092914 L41.88,29.4242161 L21,29.4242161 L21,27.4242161 C20.9892328,27.4158442 20.9784721,27.4074775 20.9677179,27.3991161 L31,27.3997642 L31,21.4301631 L21.01,21.4299074 L21.01,17.3719074 L6,17.3719074 L5.999,17.394 L5.51,17.3942161 C6.38315014,15.07844 8.2452028,13.2805213 10.5778559,12.4848543 L10.86,12.3942161 L10.86,11.8542161 C10.9495355,7.18648144 13.6886626,2.97691651 17.92,1.0042161 C22.4790168,-0.993470786 27.799027,0.0466210925 31.27,3.6142161 Z M2,27.4242161 L2,29.4242161 L0,29.4242161 L0,27.4242161 L2,27.4242161 Z M11,27.4242161 L11,29.4242161 L4,29.4242161 L4,27.4242161 L11,27.4242161 Z M19,27.4242161 L19,29.4242161 L13,29.4242161 L13,27.4242161 L19,27.4242161 Z M10,23.4242161 L10,25.4242161 L1,25.4242161 L1,23.4242161 L10,23.4242161 Z M29,23.4242161 L29,25.4242161 L17,25.4242161 L17,23.4242161 L29,23.4242161 Z M15,23.4242161 L15,25.4242161 L12,25.4242161 L12,23.4242161 L15,23.4242161 Z M11,19.4242161 L11,21.4242161 L3,21.4242161 L3,19.4242161 L11,19.4242161 Z M19,19.4242161 L19,21.4242161 L13,21.4242161 L13,19.4242161 L19,19.4242161 Z" id="Combined-Shape" fill="currentColor"></path>
    </g>
</svg>