<?xml version="1.0" encoding="UTF-8"?>
<svg width="50px" height="50px" viewBox="0 0 50 50" version="1.1" xmlns="http://www.w3.org/2000/svg" xmlns:xlink="http://www.w3.org/1999/xlink">
    <title>Cw Icons / ServiceMapFilled / cloudfront</title>
    <g id="Cw-Icons-/-ServiceMapFilled-/-cloudfront" stroke="none" stroke-width="1" fill="none" fill-rule="evenodd">
        <path d="M37.22,3.22365384 C44.5362565,7.32592352 49.3077062,14.8238163 49.9253309,23.1889084 C50.5429555,31.5540004 46.9244352,39.6713547 40.29,44.8036538 C38.1169554,46.4887493 35.6763474,47.7969423 33.07,48.6736538 C30.4753066,49.575244 27.746859,50.0316758 25,50.0237578 C11.1928813,50.0237578 0,38.8307726 0,25.0236538 C0,24.5136538 0,24.0236538 0.05,23.5136538 C0.666817155,13.0177365 7.78476496,4.02937901 17.86,1.02365384 C24.3452872,-0.891499543 31.3297826,-0.0978068829 37.22,3.22365384 Z M34.13,41.6136538 C33.5692085,43.5730962 32.8085466,45.4697245 31.86,47.2736538 L31.86,47.2736538 L33.64,48.1936538 C34.645541,46.2739702 35.4530374,44.2569046 36.05,42.1736538 L36.05,42.1736538 Z M11.02,28.7636538 C10.95,29.1336538 10.87,29.4936538 10.8,29.8436538 C10.4210168,31.389518 10.2131016,32.9723561 10.18,34.5636538 C10.2424439,38.6933713 11.1156476,42.7705868 12.75,46.5636538 L12.75,46.5636538 L14.6,45.8036538 C13.0791778,42.2487044 12.2705738,38.4299192 12.22,34.5636538 C12.2560981,33.110176 12.4505809,31.6649678 12.8,30.2536538 C12.87,29.8936538 12.95,29.5336538 13.02,29.1536538 L13.02,29.1536538 Z M39.28,40.6236538 L37.49,41.5136538 C37.95,42.4436538 38.37,43.3636538 38.74,44.3636538 L38.74,44.3636538 L40.61,43.6236538 C40.2171395,42.6020312 39.7732477,41.6007715 39.28,40.6236538 L39.28,40.6236538 Z M37.4822282,31.7037446 C35.827175,31.0149128 33.9201152,31.3914525 32.6510698,32.6576333 C31.3820243,33.923814 31.0011759,35.8300181 31.6862657,37.4866236 C32.3713554,39.1432292 33.9873232,40.2236652 35.78,40.2236652 C36.9539885,40.2263099 38.0808036,39.7618055 38.9118784,38.9326067 C39.7429533,38.1034078 40.2100114,36.9776454 40.2100114,35.8036538 C40.2140467,34.0109816 39.1372813,32.3925763 37.4822282,31.7037446 Z M35.78,33.3736538 C37.1220519,33.3736538 38.21,34.4616019 38.21,35.8036538 C38.21,37.1457058 37.1220519,38.2336538 35.78,38.2336538 C34.4379481,38.2336538 33.35,37.1457058 33.35,35.8036538 C33.35,34.4616019 34.4379481,33.3736538 35.78,33.3736538 Z M20,23.5236538 L19.3,25.4236538 C23.49758,26.8972542 27.3135799,29.2886597 30.47,32.4236538 L30.47,32.4236538 L31.85,31.0236538 C28.50671,27.6737563 24.4584645,25.1115756 20,23.5236538 L20,23.5236538 Z M31.89,13.1136538 L30.22,14.2036538 C33.3261251,18.8753801 35.1440291,24.2842482 35.49,29.8836538 L35.49,29.8836538 L37.49,29.7636538 C37.1229148,23.8171939 35.1910406,18.073318 31.89,13.1136538 L31.89,13.1136538 Z M15.5202198,18.8953925 C13.8665509,18.1939308 11.9529865,18.5605015 10.6756273,19.8234435 C9.39826807,21.0863856 9.01000135,22.995666 9.69264807,24.6571902 C10.3752948,26.3187144 11.9937068,27.4035394 13.79,27.4036538 C16.2150074,27.3984135 18.1872352,25.4484456 18.22,23.0236538 C18.2402742,21.227475 17.1738887,19.5968541 15.5202198,18.8953925 Z M13.79,20.5436538 C14.4432334,20.5435155 15.0690132,20.8063848 15.5261916,21.2729701 C15.98337,21.7395555 16.233441,22.3705587 16.22,23.0236538 C16.1925209,24.3588516 15.0927074,25.4216533 13.7573513,25.4034275 C12.4219951,25.3852016 11.3515975,24.2927794 11.3605693,22.957329 C11.3695411,21.6218787 12.4545196,20.5439366 13.79,20.5436538 Z M7.59,21.7336538 C5.30759899,21.7821445 3.03738356,22.0805923 0.82,22.6236538 L0.82,22.6236538 L1.28,24.5636538 L1.97081623,24.4041498 C3.81750655,24.0010907 5.69922457,23.7764533 7.59,23.7336538 L7.59,23.7336538 Z M21.37,10.6736538 C19.2771074,12.533341 17.4679034,14.6895617 16,17.0736538 L16,17.0736538 L17.68,18.1636538 C19.0475046,15.9352724 20.7356008,13.9203393 22.69,12.1836538 L22.69,12.1836538 Z M27.43,4.59365384 C24.9833786,4.59365384 23,6.5770324 23,9.02365384 C23,11.4702753 24.9833786,13.4536538 27.43,13.4536538 C28.604909,13.4536538 29.7316969,12.986923 30.562483,12.1561369 C31.3932692,11.3253507 31.86,10.1985629 31.86,9.02365384 C31.86,6.5770324 29.8766214,4.59365384 27.43,4.59365384 Z M27.43,6.60365384 C28.7681564,6.60365384 29.8544932,7.68550879 29.8600207,9.02365384 C29.8640484,10.007397 29.2745715,10.8965276 28.3668707,11.2757983 C27.45917,11.655069 26.4123477,11.4496441 25.7152976,10.7554625 C25.0182474,10.0612809 24.8085075,9.01531462 25.1840319,8.10605756 C25.5595563,7.19680049 26.4462485,6.60365384 27.43,6.60365384 Z M36.54,3.10365384 C34.9500042,3.41582887 33.3881495,3.85729531 31.87,4.42365384 L31.87,4.42365384 L32.55,6.30365384 C33.9670759,5.78198735 35.4255614,5.38056931 36.91,5.10365384 L36.91,5.10365384 Z M18.6,1.13365384 L17.69,2.91365384 C19.3123696,3.71928364 20.8586523,4.66981234 22.31,5.75365384 L22.31,5.75365384 L23.52,4.13365384 C21.9737425,2.9874529 20.3270424,1.9833675 18.6,1.13365384 L18.6,1.13365384 Z" id="Combined-Shape" fill="currentColor"></path>
    </g>
</svg>