<?xml version="1.0" encoding="UTF-8"?>
<svg width="50px" height="45px" viewBox="0 0 50 45" version="1.1" xmlns="http://www.w3.org/2000/svg" xmlns:xlink="http://www.w3.org/1999/xlink">
    <title>Cw Icons / ServiceMapFilled / cloudwatch</title>
    <g id="Cw-Icons-/-ServiceMapFilled-/-cloudwatch" stroke="none" stroke-width="1" fill="none" fill-rule="evenodd">
        <rect id="Rectangle" fill="#D8D8D8" opacity="0" x="0" y="0" width="50.0124877" height="45"></rect>
        <path d="M40.7565926,33.6697747 L47.480615,40.4292333 C48.0756236,41.0263044 48.0756236,41.9921622 47.480615,42.5892333 C46.8750071,43.16321 45.9262228,43.16321 45.320615,42.5892333 L45.320615,42.5892333 L38.6409229,35.9095412 L40.7565926,33.6697747 Z M35.3959894,19.6423359 C38.6068492,20.9714284 40.700615,24.1041664 40.700615,27.5792333 C40.6961524,32.3175015 36.8569877,36.1602962 32.1168406,36.1692455 C28.6436596,36.1725165 25.508945,34.0817107 24.1768202,30.8721092 C22.8446953,27.6625074 23.5776157,23.9664656 26.0336992,21.5080606 C28.4897827,19.0496557 32.1851304,18.3132438 35.3959894,19.6423359 Z M29.130615,4.04923329 C30.3820784,5.32766209 31.3977038,6.81724608 32.130615,8.44923329 C33.172703,7.60813814 34.4714403,7.14934507 35.810615,7.14923329 C38.530615,7.14923329 41.590615,9.21923329 42.150615,13.7392333 C44.720615,14.3492333 50.000615,16.4392333 50.000615,23.2392333 C50.178926,26.7152407 48.3369759,29.9824629 45.270615,31.6292333 L41.8184231,31.8096034 C42.3845737,30.5139351 42.6991988,29.0832312 42.700615,27.5792333 C42.700615,23.2950685 40.119359,19.4329391 36.1609194,17.794396 C32.2024798,16.1558528 27.6467484,17.0637226 24.6188178,20.0945152 C21.5908871,23.1253078 20.6873217,27.6818949 22.3296037,31.6387847 C22.4958539,32.0393454 22.6848775,32.4257715 22.8948044,32.7968157 L19.010615,32.9992333 L8.01061495,32.9992333 C6.89699147,32.9834004 5.80975313,32.6579214 4.87061495,32.0592333 C1.78169856,30.1741245 -0.0699567555,26.7870431 0.0106149542,23.1692333 C-0.191371416,18.9714063 2.5075893,15.1812884 6.54061495,13.9992333 L6.54061495,13.2192333 C6.64260697,8.03770215 9.66178976,3.35796884 14.340615,1.12923329 C19.3928573,-1.11587845 25.3107071,0.0524867512 29.130615,4.04923329 Z M29.4769832,22.2475447 C27.691188,23.010462 26.4564174,24.6780787 26.2477564,26.6087697 C26.0477896,28.4590153 26.8200652,30.2745773 28.2767543,31.4144402 L28.470615,31.5592333 L29.660615,29.9992333 C28.9241499,29.4619443 28.442755,28.6439348 28.330615,27.7392333 C28.1316571,26.3915381 28.763673,25.0566094 29.9322232,24.3563545 C31.0392708,23.6929552 32.4215556,23.7228093 33.4947172,24.4173304 L33.670615,24.5392333 L34.860615,22.9292333 C33.3213363,21.7452871 31.2627785,21.4846274 29.4769832,22.2475447 Z" id="Combined-Shape" fill="currentColor"></path>
    </g>
</svg>