<?xml version="1.0" encoding="UTF-8"?>
<svg width="50px" height="43px" viewBox="0 0 50 43" version="1.1" xmlns="http://www.w3.org/2000/svg" xmlns:xlink="http://www.w3.org/1999/xlink">
    <title>Cw Icons / ServiceMapFilled / cloudformation</title>
    <g id="Cw-Icons-/-ServiceMapFilled-/-cloudformation" stroke="none" stroke-width="1" fill="none" fill-rule="evenodd">
        <path d="M23,9.23949772 C23.5522847,9.23949772 24,9.68721297 24,10.2394977 L24,20.239 L5,20.2394977 L5,22.2394977 L24,22.239 L24,42.2394977 C24,42.7917825 23.5522847,43.2394977 23,43.2394977 L1,43.2394977 C0.44771525,43.2394977 0,42.7917825 0,42.2394977 L0,10.2394977 C0,9.68721297 0.44771525,9.23949772 1,9.23949772 L23,9.23949772 Z M11.92,30.2394977 L5,30.2394977 L5,32.2394977 L11.88,32.2394977 L11.92,30.2394977 Z M19,30.2394977 L14,30.2394977 L14,32.2394977 L19,32.2394977 L19,30.2394977 Z M32.88,3.34949772 C33.870599,4.35067613 34.682342,5.51417447 35.28,6.78949772 C36.6436458,5.79867944 38.4029633,5.53030897 40,6.06949772 C42.158694,6.87788798 43.594711,8.93445523 43.61,11.2394977 C46.83,12.0394977 50,14.4694977 50,19.1094977 C50.0790099,23.3751591 46.796712,26.9522479 42.54,27.2394977 L28,27.2394977 L28,22.239 L35,22.2394977 L35,20.2394977 L28,20.239 L28,8.23949772 C28,7.72666189 27.6139598,7.30399056 27.1166211,7.24622546 L27,7.23949772 L14.8,7.23949772 C15.8140697,4.44987689 17.8976633,2.17915568 20.59,0.929497724 C24.7887926,-0.921013883 29.6962119,0.0452964963 32.88,3.34949772 Z M16,25.2394977 L5,25.2394977 L5,27.2394977 L16,27.2394977 L16,25.2394977 Z M41,20.2394977 L37,20.2394977 L37,22.2394977 L41,22.2394977 L41,20.2394977 Z M13,15.2394977 L5,15.2394977 L5,17.2394977 L13,17.2394977 L13,15.2394977 Z" id="Combined-Shape" fill="currentColor"></path>
    </g>
</svg>