<?xml version="1.0" encoding="UTF-8"?>
<svg width="33px" height="30px" viewBox="0 0 33 30" version="1.1" xmlns="http://www.w3.org/2000/svg" xmlns:xlink="http://www.w3.org/1999/xlink">
    <g id="Icons" stroke="none" stroke-width="1" fill="none" fill-rule="evenodd">
        <g id="Group-2" transform="translate(1.000000, -75.000000)" stroke="currentColor" stroke-width="1.03488372">
            <path d="M28.0232558,76 C29.6672662,76 31,77.3327338 31,78.9767442 L31,101.023256 C31,102.667266 29.6672662,104 28.0232558,104 L2.97674419,104 C1.33273377,104 1.97769005e-15,102.667266 0,101.023256 L0,78.9767442 C-2.0133321e-16,77.3327338 1.33273377,76 2.97674419,76 L28.0232558,76 Z M7.25581395,81 L5.74418605,81 C5.33318344,81 5,81.3331834 5,81.744186 L5,81.744186 L5,98.255814 C5,98.6668166 5.33318344,99 5.74418605,99 L5.74418605,99 L7.25581395,99 C7.66681656,99 8,98.6668166 8,98.255814 L8,98.255814 L8,81.744186 C8,81.3331834 7.66681656,81 7.25581395,81 L7.25581395,81 Z M13.255814,81 L11.744186,81 C11.3331834,81 11,81.3331834 11,81.744186 L11,81.744186 L11,98.255814 C11,98.6668166 11.3331834,99 11.744186,99 L11.744186,99 L13.255814,99 C13.6668166,99 14,98.6668166 14,98.255814 L14,98.255814 L14,81.744186 C14,81.3331834 13.6668166,81 13.255814,81 L13.255814,81 Z M19.255814,81 L17.744186,81 C17.3331834,81 17,81.3331834 17,81.744186 L17,81.744186 L17,98.255814 C17,98.6668166 17.3331834,99 17.744186,99 L17.744186,99 L19.255814,99 C19.6668166,99 20,98.6668166 20,98.255814 L20,98.255814 L20,81.744186 C20,81.3331834 19.6668166,81 19.255814,81 L19.255814,81 Z M25.255814,81 L23.744186,81 C23.3331834,81 23,81.3331834 23,81.744186 L23,81.744186 L23,98.255814 C23,98.6668166 23.3331834,99 23.744186,99 L23.744186,99 L25.255814,99 C25.6668166,99 26,98.6668166 26,98.255814 L26,98.255814 L26,81.744186 C26,81.3331834 25.6668166,81 25.255814,81 L25.255814,81 Z" id="Combined-Shape-Copy-4"></path>
        </g>
    </g>
</svg>
