<?xml version="1.0" encoding="UTF-8"?>
<svg width="42px" height="50px" viewBox="0 0 42 50" version="1.1" xmlns="http://www.w3.org/2000/svg" xmlns:xlink="http://www.w3.org/1999/xlink">
    <title>Cw Icons / ServiceMapFilled / dynamodb</title>
    <g id="Cw-Icons-/-ServiceMapFilled-/-dynamodb" stroke="none" stroke-width="1" fill="none" fill-rule="evenodd">
        <path d="M29.22,2.00840289 L28.46,3.84840289 C24.7818721,2.55488773 20.8973902,1.94814928 17,2.05840289 C8.42,2.05840289 2,4.67840289 2,7.05840289 C2,9.43840289 8.42,12.0584029 17,12.0584029 L17.71,12.0584029 L17.79,14.0584029 L15.07,20.0084029 L15.069,20.008 L15,22.0084029 C10.1642917,21.7834862 5.8994493,20.7857049 3.16022182,19.2455155 C2.55269627,19.7293247 2,20.3418298 2,21.0084029 C2,23.3584029 8.42,26.0084029 17,26.0084029 C17.87,26.0084029 18.73,26.0084029 19.57,25.9184029 L19.71,27.9184029 L19.71,27.9184029 L17.355,34.008 L17.39,34.0084029 L17.39,36.0084029 L17,36.0084029 C11.4169824,36.0084029 6.3286775,34.9748065 3.18815268,33.223137 C2.5698047,33.7105222 2,34.3315917 2,35.0084029 C2,37.3584029 8.42,40.0084029 17,40.0084029 C25.58,40.0084029 32,37.3884029 32,35.0084029 C32,34.3113621 31.4227833,33.6833363 30.8001034,33.2038401 C30.3555391,33.4627636 29.8943978,33.6904904 29.42,33.8884029 L28.66,32.0084029 C29.2317204,31.7762743 29.7807287,31.4917273 30.3,31.1584029 C31.08,30.6584029 32,29.8684029 32,29.0084029 L34,29.0084029 C34,30.0854432 33.4923727,31.0924659 32.4815752,32.0116433 C33.6539682,33.0767192 33.97127,34.1068981 33.9980841,34.8955456 L34,35.0084029 L34,43.0084029 C34,47.5684029 25.24,50.0084029 17,50.0084029 C8.82128424,50.0084029 0.130274624,47.6045625 0.00144986138,43.1097947 L0.000343991934,43.084134 L0.000343991934,43.084134 L0,35.0084029 C0,34.2114452 0.285813689,33.1286739 1.49522902,32.0233029 C0.297196747,30.911151 0,29.8158853 0,29.0684029 L0,21.0084029 C0,20.2132089 0.284550076,19.1334648 1.48721327,18.0306411 C0.294282317,16.9003924 0,15.8122112 0,15.0684029 L0,7.00840289 C0,2.45840289 8.76,0.00840288694 17,0.00840288694 C21.1618349,-0.0844963175 25.3049269,0.593587484 29.22,2.00840289 Z M5,41.8084029 C4.30964406,41.8084029 3.75,42.3680469 3.75,43.0584029 C3.75,43.7487588 4.30964406,44.3084029 5,44.3084029 C5.69035594,44.3084029 6.25,43.7487588 6.25,43.0584029 C6.25,42.3680469 5.69035594,41.8084029 5,41.8084029 Z M37.54,5.02839951 C37.8600539,5.02757257 38.1611686,5.17998865 38.35,5.43840289 C38.5418363,5.70093616 38.5940535,6.04034811 38.49,6.34840289 L35.93,14.0283995 L41.5,14.0283995 C41.9012802,14.0287299 42.2635008,14.2688979 42.42,14.6384029 C42.5747,15.0060715 42.4960999,15.430512 42.22,15.7184029 L20.22,38.7184029 C20.0374135,38.9265184 19.776718,39.0496246 19.5,39.0584029 C19.3239138,39.0565742 19.1514328,39.0082795 19,38.9184029 C18.5991539,38.6875895 18.4089137,38.2119892 18.54,37.7684029 L24.16,19.0084029 L18.5,19.0084029 C18.1554218,19.0522092 17.8188592,18.8819481 17.65,18.5784029 C17.4713672,18.2690018 17.4713672,17.887804 17.65,17.5784029 L23.65,5.57840289 C23.8194502,5.24212324 24.1634418,5.02954419 24.54,5.02839951 L37.54,5.02839951 Z M5,27.8084029 C4.30964406,27.8084029 3.75,28.3680469 3.75,29.0584029 C3.75,29.7487588 4.30964406,30.3084029 5,30.3084029 C5.69035594,30.3084029 6.25,29.7487588 6.25,29.0584029 C6.25,28.3680469 5.69035594,27.8084029 5,27.8084029 Z M5,13.8084029 C4.30964406,13.8084029 3.75,14.3680469 3.75,15.0584029 C3.75,15.7487588 4.30964406,16.3084029 5,16.3084029 C5.69035594,16.3084029 6.25,15.7487588 6.25,15.0584029 C6.25,14.3680469 5.69035594,13.8084029 5,13.8084029 Z" id="Combined-Shape" fill="currentColor"></path>
    </g>
</svg>