<?xml version="1.0" encoding="UTF-8"?>
<svg width="50px" height="50px" viewBox="0 0 50 50" version="1.1" xmlns="http://www.w3.org/2000/svg" xmlns:xlink="http://www.w3.org/1999/xlink">
    <title>Cw Icons / ServiceMapFilled / ebs</title>
    <g id="Cw-Icons-/-ServiceMapFilled-/-ebs" stroke="none" stroke-width="1" fill="none" fill-rule="evenodd">
        <path d="M9.48442636,39.0924423 L10.8986399,40.5066558 L3.405,48 L10,48 L10,50 L1,50 C0.44771525,50 0,49.5522847 0,49 L0,40 L2,40 L2,46.576 L9.48442636,39.0924423 Z M40.612203,39.1961966 L48,46.584 L48,40 L50,40 L50,49 C50,49.5522847 49.5522847,50 49,50 L40,50 L40,48 L46.588,48 L39.1979895,40.6104102 L40.612203,39.1961966 Z M25,11.52 C30.297168,11.52 35.9725016,12.8435797 35.9999004,15.738931 L36,15.74 L36,34.26 C36,37.17 30.3,38.5 25,38.5 C19.7,38.5 14,37.17 14,34.26 L14,15.74 L14.001,15.739 L14.0056065,15.6028382 C14.2067835,12.802076 19.7865455,11.52 25,11.52 Z M25,13.5 L25,13.52 C19.17,13.52 16,15.11 16,15.76 C16,16.41 19.15,18 25,18 C30.85,18 34,16.41 34,15.76 C34,15.11 30.81,13.5 25,13.5 Z M10,0 L10,2 L3.414,2 L10.9028968,9.4890873 L9.48868325,10.9033009 L2,3.414 L2,10 L0,10 L0,1 C0,0.44771525 0.44771525,0 1,0 L10,0 Z M49,0 C49.5522847,0 50,0.44771525 50,1 L50,10 L48,10 L48,3.422 L40.6157492,10.8073496 L39.2015357,9.39313603 L46.593,2 L40,2 L40,0 L49,0 Z" id="Combined-Shape" fill="currentColor"></path>
    </g>
</svg>