<?xml version="1.0" encoding="UTF-8"?>
<svg width="50px" height="50px" viewBox="0 0 50 50" version="1.1" xmlns="http://www.w3.org/2000/svg" xmlns:xlink="http://www.w3.org/1999/xlink">
    <title>Cw Icons / ServiceMapFilled / ec2</title>
    <g id="Cw-Icons-/-ServiceMapFilled-/-ec2" stroke="none" stroke-width="1" fill="none" fill-rule="evenodd">
        <path d="M7,22 L7,24 L2,24 L2,48 L26,48 L26,43 L28,43 L28,48 C28,49.1045695 27.1045695,50 26,50 L2,50 C0.8954305,50 0,49.1045695 0,48 L0,24 C0,22.8954305 0.8954305,22 2,22 L7,22 Z M16,9 L16,12 L19,12 L19,9 L21,9 L21,12 L24,12 L24,9 L26,9 L26,12 L29,12 L29,9 L31,9 L31,12 L34,12 L34,9 L36,9 L36.0006686,12.0081746 C37.0584967,12.0994563 37.9011089,12.9423762 37.9919123,14.0003412 L41,14 L41,16 L38,16 L38,19 L41,19 L41,21 L38,21 L38,24 L41,24 L41,26 L38,26 L38,29 L41,29 L41,31 L38,31 L38,34 L41,34 L41,36 L37.9918254,36.0006686 C37.9005727,37.0581602 37.0581602,37.9005727 36.0006686,37.9918254 L36,41 L34,41 L34,38 L31,38 L31,41 L29,41 L29,38 L26,38 L26,41 L24,41 L24,38 L21,38 L21,41 L19,41 L19,38 L16,38 L16,41 L14,41 L13.9998342,37.9918568 C12.9427607,37.9009195 12.0996904,37.0589575 12.0082102,36.0010757 L9,36 L9,34 L12,34 L12,31 L9,31 L9,29 L12,29 L12,26 L9,26 L9,24 L12,24 L12,21 L9,21 L9,19 L12,19 L12,16 L9,16 L9,14 L12.0081234,13.9999306 C12.0991558,12.9415765 12.9424256,12.0991093 13.9998342,12.0081432 L14,9 L16,9 Z M48,0 C49.1045695,0 50,0.8954305 50,2 L50,26 C50,27.1045695 49.1045695,28 48,28 L43,28 L43,26 L48,26 L48,2 L24,2 L24,7 L22,7 L22,2 C22,0.8954305 22.8954305,0 24,0 L48,0 Z" id="Combined-Shape" fill="currentColor"></path>
    </g>
</svg>