<?xml version="1.0" encoding="UTF-8"?>
<svg width="48px" height="54px" viewBox="0 0 48 54" version="1.1" xmlns="http://www.w3.org/2000/svg" xmlns:xlink="http://www.w3.org/1999/xlink">
    <title>Cw Icons / ServiceMapFilled / ecs</title>
    <g id="Cw-Icons-/-ServiceMapFilled-/-ecs" stroke="none" stroke-width="1" fill="none" fill-rule="evenodd">
        <rect id="Rectangle" fill="#D8D8D8" opacity="0" x="0" y="0" width="48" height="54"></rect>
        <path d="M21.0007146,2.83889777 L21.0007146,11.9988978 L10.5307146,17.9988978 C10.2037097,18.1853069 10.001502,18.5324938 10.0007146,18.9088978 L10.0007146,18.9088978 L10.0007146,33.7588978 C9.99041693,34.13822 10.1957019,34.4906904 10.5307146,34.6688978 L10.5307146,34.6688978 L23.7807146,42.3288978 C24.1168183,42.5278294 24.534611,42.5278294 24.8707146,42.3288978 L24.8707146,42.3288978 L35.5207146,36.2188978 L43.5207146,40.8388978 L24.3307146,51.8888978 L2.00071461,38.9988978 L2.00071461,13.8388978 L21.0007146,2.83889777 Z M27.0007146,2.83889777 L46.0007146,13.8388978 L46.0007146,35.5988978 L38.0007146,30.9988978 L38.0007146,18.8888978 C37.9999272,18.5124938 37.7977195,18.1653069 37.4707146,17.9788978 L37.4707146,17.9788978 L27.0007146,11.9788978 L27.0007146,2.83889777 Z" id="Combined-Shape" fill="currentColor"></path>
    </g>
</svg>