<?xml version="1.0" encoding="UTF-8"?>
<svg width="48px" height="54px" viewBox="0 0 48 54" version="1.1" xmlns="http://www.w3.org/2000/svg" xmlns:xlink="http://www.w3.org/1999/xlink">
    <title>Cw Icons / ServiceMapFilled / eks</title>
    <g id="Cw-Icons-/-ServiceMapFilled-/-eks" stroke="none" stroke-width="1" fill="none" fill-rule="evenodd">
        <rect id="Rectangle" fill="#D8D8D8" opacity="0" x="0" y="0" width="48" height="54"></rect>
        <path d="M21.0000157,2.7339746 L21.0000157,12.0039746 L10.5000157,18.1339746 C10.2238965,18.2933888 10.042469,18.5734021 10.0065608,18.885575 L10.0000157,19.0039746 L10.0000157,34.0039746 C10.0109923,34.3052638 10.1570115,34.5830391 10.3933356,34.763036 L10.5000157,34.8339746 L23.5000157,42.3439746 C23.7707417,42.5002783 24.096437,42.5198163 24.3809053,42.4025885 L24.5000157,42.3439746 L35.0000157,36.2539746 L43.0000157,40.8739746 L24.0000157,51.8739746 L2.00001574,39.1639746 L2.00001574,13.7339746 L21.0000157,2.7339746 Z M27.0000157,2.8439746 L46.0000157,13.7639746 L46.0000157,35.7039746 L38.0000157,31.1239746 L38.0000355,18.8782676 C37.9817852,18.5875953 37.8372862,18.318827 37.6048858,18.1432892 L37.5000157,18.0739746 L27.0000157,12.0739746 L27.0000157,2.8439746 Z M21.0000157,19.0039746 L21.0000157,25.8339746 L27.5200157,19.0039746 L30.1600157,19.0039746 L23.3800157,26.3039746 L30.7500157,34.0039746 L28.0000157,34.0039746 L21.0000157,27.0039746 L21.0000157,34.0039746 L19.0000157,34.0039746 L19.0000157,19.0039746 L21.0000157,19.0039746 Z" id="Combined-Shape" fill="currentColor"></path>
    </g>
</svg>