<?xml version="1.0" encoding="UTF-8"?>
<svg width="49px" height="50px" viewBox="0 0 49 50" version="1.1" xmlns="http://www.w3.org/2000/svg" xmlns:xlink="http://www.w3.org/1999/xlink">
    <title>Cw Icons / ServiceMapFilled / elasticloadbalancing</title>
    <g id="Cw-Icons-/-ServiceMapFilled-/-elasticloadbalancing" stroke="none" stroke-width="1" fill="none" fill-rule="evenodd">
        <path d="M42.8472282,0.476525095 C45.1711597,1.44241452 46.6840461,3.71351949 46.6800081,6.23018071 C46.6744834,9.66148596 43.8913097,12.4401807 40.46,12.4401807 C39.0320957,12.4401807 37.6840265,11.951976 36.609132,11.1048104 L27.5692393,18.7219568 C28.3493376,20.3403278 28.8376869,22.1257783 28.9660492,24.0100704 L36.4008773,24.0103597 C36.6060233,22.7512419 37.1973566,21.5579417 38.1382589,20.6155244 C39.9163772,18.8345428 42.5924929,18.3005506 44.9179755,19.2626995 C47.2434581,20.2248485 48.76,22.4935162 48.76,25.0101807 C48.7545136,28.439216 45.9790221,31.2191769 42.55,31.2301888 C40.0333388,31.2342268 37.7622338,29.7213404 36.7963444,27.3974089 C36.6084955,26.9454443 36.4772147,26.4801265 36.4006837,26.0106433 L28.9646832,26.0107091 C28.8339934,27.8924904 28.3447984,29.6754988 27.5649245,31.2919082 L36.6061171,38.9076456 C37.6657436,38.0701195 39.0044883,37.5701807 40.46,37.5701807 C43.8952111,37.5701807 46.68,40.3549696 46.68,43.7901807 C46.6744941,47.2231086 43.8929279,50.0046748 40.46,50.0101807 C37.0247889,50.0101807 34.24,47.2253919 34.24,43.7901807 C34.24,42.5323188 34.6133803,41.3616644 35.2553538,40.3830048 L26.5550505,33.0566572 C23.9538164,36.9428995 19.526278,39.5032622 14.5,39.5101807 C6.49187113,39.5101807 0,33.0183096 0,25.0101807 C0,17.0020518 6.49187113,10.5101807 14.5,10.5101807 C19.5284002,10.5101807 23.9589801,13.0697533 26.559932,16.9570906 L35.2575769,9.62993885 C35.0464733,9.30773134 34.8634259,8.96289373 34.7125188,8.5981562 C33.7503699,6.27267356 34.2843621,3.59655786 36.0653437,1.81843958 C37.8463253,0.0403212958 40.5232967,-0.489364327 42.8472282,0.476525095 Z" id="Combined-Shape" fill="currentColor"></path>
    </g>
</svg>