<?xml version="1.0" encoding="UTF-8"?>
<svg width="50px" height="45px" viewBox="0 0 50 45" version="1.1" xmlns="http://www.w3.org/2000/svg" xmlns:xlink="http://www.w3.org/1999/xlink">
    <title>Cw Icons / ServiceMapFilled / elasticbeanstalk</title>
    <g id="Cw-Icons-/-ServiceMapFilled-/-elasticbeanstalk" stroke="none" stroke-width="1" fill="none" fill-rule="evenodd">
        <path d="M24.0073304,11.1172598 L24.0073304,11.1572598 C25.891678,11.1571324 27.4254194,12.6730396 27.4473304,14.5572598 C27.4473304,16.1089947 26.4198999,17.4207605 25.0082082,17.8493878 L25.0073304,36.9962598 L31.0073304,36.9972598 L31.0064527,30.5693878 C29.5947609,30.1407605 28.5673304,28.8289947 28.5673304,27.2772598 C28.5673304,25.3774002 30.1074709,23.8372598 32.0073304,23.8372598 C33.9049103,23.8427521 35.4418381,25.3796799 35.4473304,27.2772598 C35.4473304,28.8293608 34.4194151,30.1413794 33.007209,30.569691 L33.0073304,37.9972598 C33.0073304,38.5495445 32.5596152,38.9972598 32.0073304,38.9972598 L25.0073304,38.9962598 L25.0073304,44.9972598 L23.0073304,44.9972598 L23.0073304,33.9962598 L16.0073304,33.9972598 C15.4550457,33.9972598 15.0073304,33.5495445 15.0073304,32.9972598 L15.0064527,28.0393878 C13.5947609,27.6107605 12.5673304,26.2989947 12.5673304,24.7472598 C12.5673304,22.8474002 14.1074709,21.3072598 16.0073304,21.3072598 C17.9071899,21.3072598 19.4473304,22.8474002 19.4473304,24.7472598 C19.4473304,26.2993608 18.4194151,27.6113794 17.007209,28.039691 L17.0073304,31.9972598 L23,31.996 L22.9996373,19.9041104 L23.007,19.905 L23.0074518,17.849691 C21.6528664,17.4388553 20.6518519,16.2149553 20.5724205,14.7460029 L20.5673304,14.5572598 C20.5673304,12.6574002 22.1074709,11.1172598 24.0073304,11.1172598 Z M29.1173304,3.92725976 C30.3656171,5.16652999 31.3816812,6.61950178 32.1173304,8.21725976 C33.1715413,7.38530068 34.4743851,6.93106593 35.8173304,6.92725976 C38.6173304,6.92725976 41.5673304,8.92725976 42.1173304,13.3372598 C47.2173304,14.5972598 50.0073304,17.8572598 50.0073304,22.5872598 C50.0073304,29.5172598 44.8473304,31.9972598 40.0073304,31.9972598 L34.7052732,31.9979757 C36.3409823,31.059674 37.443627,29.2974764 37.4473304,27.2772598 C37.4473304,25.0769851 36.121917,23.0933637 34.0891283,22.2513551 C32.0563396,21.4093465 29.7164986,21.8747698 28.1606695,23.4305989 C27.7282661,23.8630023 27.380088,24.3559645 27.1207942,24.886063 L26.9985759,25.1540985 L26.9998073,19.0963526 C28.4719785,18.1227597 29.4438539,16.4536943 29.4473304,14.5572598 C29.4473304,11.5528307 27.0117594,9.11725976 24.0073304,9.11725976 C21.0029014,9.11725976 18.5673304,11.5528307 18.5673304,14.5572598 C18.5673304,16.3634885 19.4476135,17.9641161 20.8025686,18.9535314 L20.9993189,19.0906747 L21.0008923,22.5786569 C20.4514396,21.3083813 19.4255739,20.2670801 18.0960667,19.7142309 C16.0636017,18.8690705 13.7221224,19.3320223 12.1642191,20.8870617 C10.6063159,22.4421012 10.1390568,24.7827247 10.9804761,26.8167413 C11.3684342,27.7545772 11.9993479,28.5420018 12.7824601,29.1183418 L12.9997415,29.2702463 L12.999,31.997 L9.8573304,31.9972598 C4.75372191,32.1368507 0.429996986,28.2652513 0.00733040386,23.1772598 L0.00733040386,22.5172598 C-0.159802828,18.381327 2.54655167,14.6761495 6.5373304,13.5772598 L6.5373304,12.8472598 C6.6785055,7.75657937 9.70995279,3.1919417 14.3473304,1.08725976 C19.3881357,-1.0760247 25.2382336,0.0488417954 29.1173304,3.92725976 Z M21.0006915,26.8994506 L20.9991795,29.9992598 L18.9991795,29.9992598 L19.0001001,29.2807663 C19.8778555,28.7014391 20.5778883,27.8745593 21.0006915,26.8994506 Z" id="Combined-Shape" fill="currentColor"></path>
    </g>
</svg>