<?xml version="1.0" encoding="UTF-8"?>
<svg width="51px" height="45px" viewBox="0 0 51 45" version="1.1" xmlns="http://www.w3.org/2000/svg" xmlns:xlink="http://www.w3.org/1999/xlink">
    <title>Cw Icons / ServiceMapFilled / elasticache</title>
    <g id="Cw-Icons-/-ServiceMapFilled-/-elasticache" stroke="none" stroke-width="1" fill="none" fill-rule="evenodd">
        <path d="M25.55,12 C32.1383333,12 38.8330306,13.6921528 39.054357,16.933834 L39.06,17.1 L39.06,39.9 C39.06,43.25 32.25,45 25.55,45 C18.85,45 12.06,43.25 12.06,39.9 L12.06,17.1 C12.06,13.75 18.85,12 25.55,12 Z M14.06,32.3 L12.06,32.3 C12.06,35.65 18.85,37.4 25.55,37.4 C32.1383333,37.4 38.8330306,35.7078472 39.054357,32.466166 L39.06,32.3 L37.06,32.3 C37.06,33.35 32.99,35.4 25.55,35.4 C18.11,35.4 14.06,33.35 14.06,32.3 Z M14.06,24.7 L12.06,24.7 C12.06,28.05 18.85,29.8 25.55,29.8 C32.1383333,29.8 38.8330306,28.1078472 39.054357,24.866166 L39.06,24.7 L37.06,24.7 C37.06,25.75 32.99,27.8 25.55,27.8 C18.11,27.8 14.06,25.75 14.06,24.7 Z M50.06,0 C50.6122847,0 51.06,0.44771525 51.06,1 L51.06,3.19 C51.06,3.74228475 50.6122847,4.19 50.06,4.19 C48.9046437,4.25460593 48.0145286,5.23373253 48.06,6.39 C48.0089047,7.55008699 48.9005869,8.53539572 50.06,8.6 C50.6122847,8.6 51.06,9.04771525 51.06,9.6 L51.06,27 C51.06,27.5522847 50.6122847,28 50.06,28 L41.06,28 L41.06,21 L44.06,21 C44.5728358,21 44.9955072,20.6139598 45.0532723,20.1166211 L45.06,20 L45.06,5 C45.06,4.48716416 44.6739598,4.06449284 44.1766211,4.00672773 L44.06,4 L37.06,4 C36.5471642,4 36.1244928,4.38604019 36.0667277,4.88337887 L36.06,5 L36.0610739,11.1020634 C35.7392473,10.9707897 35.4059585,10.8475746 35.0612074,10.732418 L35.06,5 C35.06,4.48716416 34.6739598,4.06449284 34.1766211,4.00672773 L34.06,4 L27.06,4 C26.5471642,4 26.1244928,4.38604019 26.0667277,4.88337887 L26.06,5 L26.06099,9.49844398 C25.8755309,9.49788165 25.6885343,9.49840032 25.5,9.5 L25.06,9.505 L25.06,5 C25.06,4.48716416 24.6739598,4.06449284 24.1766211,4.00672773 L24.06,4 L17.06,4 C16.5471642,4 16.1244928,4.38604019 16.0667277,4.88337887 L16.06,5 L16.0601767,10.8012352 C15.7152257,10.9154991 15.3819521,11.0372773 15.060356,11.1665698 L15.06,5 C15.06,4.48716416 14.6739598,4.06449284 14.1766211,4.00672773 L14.06,4 L7.06,4 C6.54716416,4 6.12449284,4.38604019 6.06672773,4.88337887 L6.06,5 L6.06,20 C6.06,20.5128358 6.44604019,20.9355072 6.94337887,20.9932723 L7.06,21 L10.06,21 L10.06,28 L1,28 C0.44771525,28 0,27.5522847 0,27 L0,9.6 C0,9.04771525 0.44771525,8.6 1,8.6 C1.56772432,8.5844474 2.1054694,8.3417529 2.4927154,7.92630938 C2.8799614,7.51086586 3.08432353,6.9574162 3.06,6.39 C3.11109525,5.22991301 2.21941314,4.24460428 1.06,4.18 C0.50771525,4.18 0.06,3.73228475 0.06,3.18 L0.06,1 C0.06,0.44771525 0.50771525,0 1.06,0 L50.06,0 Z M25.55,14 C18.11,14 14.06,16.05 14.06,17.1 C14.06,18.15 18.11,20.2 25.55,20.2 C32.99,20.2 37.06,18.15 37.06,17.1 C37.06,16.05 32.98,14 25.55,14 Z M13.06,6 L13.06,12 L13.3270442,12.0001521 C11.9471178,12.7904076 10.858103,13.7678598 10.06,14.9325087 L10.06,19 L8.06,19 L8.06,6 L13.06,6 Z M43.06,6 L43.06,19 L41.06,19 L41.06,14.9325087 C40.2655925,13.7680142 39.2049848,12.7906714 37.878177,12.0004803 L38.06,12 L38.06,6 L43.06,6 Z M23.06,6 L23.0603509,9.58194864 C21.2200293,9.69366866 19.5531812,9.9170158 18.0598064,10.2519901 L18.06,6 L23.06,6 Z M33.06,6 L33.0613957,10.1829501 C31.5661754,9.85116148 29.8994479,9.63995076 28.0612132,9.54931795 L28.06,6 L33.06,6 Z" id="Combined-Shape" fill="currentColor"></path>
    </g>
</svg>