<?xml version="1.0" encoding="UTF-8"?>
<svg width="49px" height="50px" viewBox="0 0 49 50" version="1.1" xmlns="http://www.w3.org/2000/svg" xmlns:xlink="http://www.w3.org/1999/xlink">
    <title>Cw Icons / ServiceMapFilled / emr</title>
    <g id="Cw-Icons-/-ServiceMapFilled-/-emr" stroke="none" stroke-width="1" fill="none" fill-rule="evenodd">
        <path d="M25.0058748,0.41892592 C27.0615667,-0.432686606 29.4278602,0.0382274428 31.0008809,1.61198698 C32.0328894,2.64351118 32.6127065,4.04284895 32.6127065,5.50198698 C32.6127065,6.96112501 32.0328894,8.36046278 31.0008809,9.39198698 L31.0008809,9.39198698 L30.9308809,9.46198698 L34.8408809,16.931987 L38.3908809,15.831987 C37.9741618,13.9893304 38.5287304,12.0615441 39.8608809,10.721987 C40.8924051,9.68997845 42.2917429,9.11016136 43.7508809,9.11016136 C45.2100189,9.11016136 46.6093567,9.68997845 47.6408809,10.721987 C49.4564892,12.5402743 49.7711445,15.3733884 48.398751,17.5457461 C47.0263574,19.7181039 44.332699,20.6507066 41.9108809,19.791987 L41.9108809,19.791987 L39.1108809,25.071987 L41.4108809,29.421987 C42.1476936,29.0701294 42.9543715,28.8889687 43.7708809,28.891987 L43.756,28.891 L43.962088,28.8963542 C46.8237256,29.0095455 49.1233224,31.3091423 49.2365137,34.1707798 L49.2408809,34.391987 C49.2408809,37.4295531 46.778447,39.891987 43.7408809,39.891987 C40.7033148,39.891987 38.2408809,37.4295531 38.2408809,34.391987 L38.2408809,34.391987 L38.2408809,34.311987 L34.7908809,33.221987 L30.9108809,40.551987 L30.9708809,40.611987 C33.0446989,42.684516 33.1281927,46.0194444 31.160684,48.1931526 C29.1931753,50.3668608 25.8664481,50.6150642 23.5981619,48.7573841 C21.3298758,46.8997039 20.9175691,43.5893078 22.6608809,41.231987 L22.6608809,41.231987 L18.4008809,35.321987 C13.3250233,38.4180542 6.75190201,37.3676813 2.89367229,32.8439632 C-0.964557431,28.320245 -0.964557431,21.6637289 2.89367229,17.1400108 C6.75190201,12.6162926 13.3250233,11.5659198 18.4008809,14.661987 L18.4008809,14.661987 L22.6808809,8.76198698 C21.9805948,7.8198649 21.6051062,6.67585293 21.6108809,5.50198698 C21.6101422,3.27687739 22.9501828,1.27053845 25.0058748,0.41892592 Z M23.3008809,29.581987 C22.7027608,31.0813469 21.8043583,32.4425629 20.6608809,33.581987 C20.4608809,33.781987 20.2608809,33.971987 20.0408809,34.161987 L20.0408809,34.161987 L24.1608809,39.891987 C25.6907875,38.9180462 27.6024806,38.7609208 29.2708809,39.471987 L29.2708809,39.471987 L32.8808809,32.581987 Z M37.9908809,27.251987 L35.7708809,31.461987 L38.6708809,32.371987 L38.6708809,32.341987 C38.9219294,31.7089399 39.2996512,31.1338499 39.7808809,30.651987 L39.7808809,30.651987 L37.9908809,27.251987 Z M33.8308809,19.371987 L23.9008809,22.441987 C24.2857926,24.1775687 24.2857926,25.9764053 23.9008809,27.711987 L23.9008809,27.711987 L33.8308809,30.851987 L36.8308809,25.111987 L33.8308809,19.371987 Z M13.1108809,20.001987 L11.1108809,20.001987 L11.1108809,24.001987 L7.11088089,24.001987 L7.11088089,26.001987 L11.1108809,26.001987 L11.1108809,30.001987 L13.1108809,30.001987 L13.1108809,26.001987 L17.1108809,26.001987 L17.1108809,24.001987 L13.1108809,24.001987 L13.1108809,20.001987 Z M39.2108809,17.681987 L35.8008809,18.741987 L38.0108809,22.931987 L40.2008809,18.791987 L39.8808809,18.501987 C39.6298066,18.2525452 39.4052727,17.9777425 39.2108809,17.681987 L39.2108809,17.681987 Z M24.1608809,10.111987 L20.0208809,15.921987 C20.2408809,16.111987 20.4508809,16.311987 20.6608809,16.521987 C21.8238116,17.6708246 22.7333237,19.0504216 23.3308809,20.571987 L23.3308809,20.571987 L32.9008809,17.571987 L29.2408809,10.571987 C28.5664632,10.8552881 27.8423852,11.0014635 27.1108809,11.001987 C26.0623231,10.9958309 25.0378885,10.6867642 24.1608809,10.111987 L24.1608809,10.111987 Z" id="Combined-Shape" fill="currentColor"></path>
    </g>
</svg>