<?xml version="1.0" encoding="UTF-8"?>
<svg width="43px" height="44px" viewBox="0 0 43 44" version="1.1" xmlns="http://www.w3.org/2000/svg" xmlns:xlink="http://www.w3.org/1999/xlink">
    <title>Cw Icons / ServiceMapFilled / events</title>
    <g id="Cw-Icons-/-ServiceMapFilled-/-events" stroke="none" stroke-width="1" fill="none" fill-rule="evenodd">
        <path d="M30.7192872,34.636 L27.6161763,29.438 L31.6522355,22.5 C31.8315712,22.19 31.8315712,21.81 31.6522355,21.5 L26.9975691,13.5 C26.8182335,13.19 26.4857573,13 26.125071,13 L17.8010766,13 L15.0243968,8.349 C15.9865627,7.468 16.6001324,6.217 16.6001324,4.818 C16.6001324,2.162 14.4229172,0 11.7459802,0 C9.0680358,0 6.89082059,2.162 6.89082059,4.818 C6.89082059,7.475 9.0680358,9.636 11.7459802,9.636 C12.2880172,9.636 12.8008365,9.527 13.2884682,9.364 L15.8535722,13.659 L11.2926036,21.5 C11.1122605,21.81 11.1122605,22.19 11.2926036,22.5 L15.9462626,30.5 C16.1255982,30.81 16.4580744,31 16.8187607,31 L26.125071,31 C26.1512661,31 26.1754462,30.992 26.1996263,30.99 L28.9833586,35.651 C28.0211927,36.532 27.4076231,37.783 27.4076231,39.182 C27.4076231,41.838 29.5848382,44 32.2617752,44 C34.9387122,44 37.1159273,41.838 37.1159273,39.182 C37.1159273,36.525 34.9387122,34.364 32.2617752,34.364 C31.7197383,34.364 31.206919,34.473 30.7192872,34.636 Z M39.9792525,16.539 C41.0734013,15.655 41.7877213,14.325 41.7877213,12.818 C41.7877213,10.162 39.6105062,8 36.9335692,8 C36.2958194,8 35.6903098,8.13 35.1331603,8.353 L32.4048407,4.432 C32.21543,4.162 31.9051189,4 31.5746578,4 L22.5071257,4 L22.5071257,6 L31.0467259,6 L33.4576819,9.466 C32.6083564,10.334 32.0784096,11.515 32.0784096,12.818 C32.0784096,15.475 34.2556247,17.636 36.9335692,17.636 C37.3678032,17.636 37.7818872,17.561 38.1838811,17.454 L40.8295855,22 L36.9809219,28.616 L38.725918,29.616 L42.8647426,22.5 C43.0450858,22.19 43.0450858,21.81 42.8647426,21.5 L39.9792525,16.539 Z M9.6221627,34.647 C10.7928819,33.767 11.5626146,32.386 11.5626146,30.818 C11.5626146,28.162 9.3853994,26 6.70846244,26 C6.00723997,26 5.34430263,26.155 4.742823,26.421 L2.17066642,22 L6.64297471,14.311 L4.89797855,13.311 L0.13450173,21.5 C-0.04483391,21.81 -0.04483391,22.19 0.13450173,22.5 L3.10865223,27.614 C2.33791201,28.468 1.8533028,29.583 1.8533028,30.818 C1.8533028,33.475 4.03051799,35.636 6.70846244,35.636 C7.0762012,35.636 7.4308425,35.588 7.7744012,35.511 L10.5954112,39.568 C10.7838143,39.838 11.0931179,40 11.4245866,40 L20.4921186,40 L20.4921186,38 L11.9545335,38 L9.6221627,34.647 Z" id="AWS-EventBridge_Icon_48_Squid" fill="currentColor"></path>
    </g>
</svg>