<?xml version="1.0" encoding="UTF-8"?>
<svg width="52px" height="52px" viewBox="0 0 52 52" version="1.1" xmlns="http://www.w3.org/2000/svg" xmlns:xlink="http://www.w3.org/1999/xlink">
    <title>Cw Icons / ServiceMapFilled / fargate</title>
    <g id="Cw-Icons-/-ServiceMapFilled-/-fargate" stroke="none" stroke-width="1" fill="none" fill-rule="evenodd">
        <path d="M31.984,36.702 L36.9199762,38.9180453 L36.919,45.23 L32.999,43.548 L32.9898145,48.5495001 C32.9885833,49.1471386 32.6326972,49.6870237 32.0839342,49.9237354 L27.919,51.7191892 L27.9199762,45.5712346 L32.7185833,43.4158571 C32.2605782,43.1490499 31.9728925,42.6559844 31.9740032,42.1168251 L31.975,41.558 L27.1729762,43.7152346 L22.033,41.4071892 L26.4083884,39.5459478 C26.7836487,39.3862697 27.207749,39.3862697 27.5830094,39.5459478 L31.975,41.415 L31.984,36.702 Z M22.026,36.863 L22.0158145,42.1233109 C22.0148286,42.6018547 21.7864522,43.0433694 21.413741,43.3218581 L25.9199762,45.3442346 L25.919,51.6561892 L21.8825185,49.9245637 C21.3302831,49.6876056 20.9727652,49.1439399 20.9740032,48.5430143 L20.982,43.552 L16.945,45.293 L16.9459762,39.1450453 L22.026,36.863 Z M44,36.863 L43.9898145,42.1233109 C43.9885833,42.7209493 43.6326972,43.2608344 43.0839342,43.4975462 L38.919,45.293 L38.9199762,39.1450453 L44,36.863 Z M10.01,36.702 L14.9459762,38.9180453 L14.945,45.23 L10.9085185,43.4983744 C10.3562831,43.2614163 9.99876522,42.7177506 10.0000032,42.1168251 L10.01,36.702 Z M16.6090094,33.1197586 L21.1148769,35.0370632 L21.162,35.06 L16.1989762,37.2890453 L11.059,34.981 L15.4343884,33.1197586 C15.8096487,32.9600805 16.233749,32.9600805 16.6090094,33.1197586 Z M38.5830094,33.1197586 L43.0888769,35.0370632 L43.136,35.06 L38.1729762,37.2890453 L33.033,34.981 L37.4083884,33.1197586 C37.7836487,32.9600805 38.207749,32.9600805 38.5830094,33.1197586 Z M43.28,16.1978143 C48.9,17.8478143 52,20.2678143 52,23.0178143 C52,28.8578143 38.6,32.0178143 26,32.0178143 C13.4,32.0178143 0,28.8578143 0,23.0178143 C0,20.2778143 3.1,17.8578143 8.72,16.1978143 L9.28,18.1178143 C4.79,19.4378143 2,21.3078143 2,23.0178143 C2,26.3278143 11.86,30.0178143 26,30.0178143 C40.14,30.0178143 50,26.3278143 50,23.0178143 C50,21.3178143 47.21,19.4478143 42.72,18.1178143 L43.28,16.1978143 Z M39.999301,8.093 L40.0000191,21.7878143 C40.0036138,23.5311847 38.9866261,25.1153387 37.4,25.8378143 C34.103496,27.2307134 30.5715105,27.9711241 26.9994399,28.0216812 L26.999301,13.9325302 L39.999301,8.093 Z M11.997301,7.864 L24.999301,13.7055302 L24.9993275,28.0111766 C22.7621834,27.960277 20.536101,27.667662 18.36,27.1378143 L17.87,27.0178143 L17,26.7278143 C16.41,26.5378143 15.89,26.3478143 15.42,26.1678143 L15.17,26.0678143 L15,26.0178143 L14.9,25.9678143 L14.59,25.8278143 L14.09,25.5678143 L14,25.5178143 C13.84,25.3978143 13.68,25.2778143 13.53,25.1478143 C13.4422548,25.0834059 13.3617809,25.0096382 13.29,24.9278143 L13.09,24.7178143 C12.3858523,23.9041756 11.9988331,22.8638397 11.999888,21.7878143 L11.997301,7.864 Z M26.68,0.15781431 L39.1,6.01781431 C39.197939,6.06349252 39.289622,6.1185747 39.3741596,6.18170705 L26.252301,12.0765302 L12.8339462,6.04787613 L12.9,6.01781431 L25.35,0.15781431 C25.7683656,-0.0526047699 26.2616344,-0.0526047699 26.68,0.15781431 Z" id="Combined-Shape" fill="currentColor"></path>
    </g>
</svg>