<?xml version="1.0" encoding="UTF-8"?>
<svg width="48px" height="50px" viewBox="0 0 48 50" version="1.1" xmlns="http://www.w3.org/2000/svg" xmlns:xlink="http://www.w3.org/1999/xlink">
    <title>Cw Icons / ServiceMapFilled / glacier</title>
    <g id="Cw-Icons-/-ServiceMapFilled-/-glacier" stroke="none" stroke-width="1" fill="none" fill-rule="evenodd">
        <path d="M22.5737183,0 C33.2437183,0 45.1337183,3.26 45.0037183,7.96 L45.0074365,8.025 L45.0074365,8.025 L45.0037183,8.09 L45.0037183,8.53 L45.0002291,8.58 L45.0002291,8.58 L45.0037183,8.63 L43.253,22.111 L43.2510246,22.1103321 L42.844,25.045 L42.8037183,25.33 L42.78,25.502 L42.6554411,26.4065266 L42.658,26.408 L42.639,26.549 L41.9270777,26.3626278 L40.8486885,26.0414636 L39.5309238,25.5773789 C35.1435799,24.007876 30.809631,22.2133169 26.5693311,20.2081033 L25.743,19.812 L25.7297079,19.7507941 C25.3803084,18.3303641 24.0979397,17.28 22.5737183,17.28 C20.7787928,17.28 19.3237183,18.7350746 19.3237183,20.53 C19.3237183,22.3249254 20.7787928,23.78 22.5737183,23.78 L22.7965402,23.7724364 C23.1657605,23.7473085 23.5233761,23.659992 23.85653,23.5167967 L24.043,23.429 L23.967,23.392 L24.8108048,23.7995282 C29.7281013,26.1419439 34.7964267,28.1973448 39.9734901,29.9473404 L40.9290777,30.1820822 L41.189,30.252 L38.4737183,30.7350017 L34.7019725,29.4528411 L33.7325886,32.3115755 L30.5165871,31.48 L29.4837183,35.3502125 L26.2045981,38.3019587 L28.5054104,40.74 L25.9601993,43.3541611 L28.9437183,46.3873761 L29.4837183,49.56 C27.1919348,49.8518871 24.8840144,49.9988459 22.5737183,50 C15.8807183,50 5.31090398,48.513402 4.8761899,44.5441438 L4.86371827,44.37 L0.063718268,8.63 L0.0601268286,8.565 L0.0601268286,8.565 L0.063718268,8.5 L0.003718268,8.06 C-0.00123942267,8.01680847 -0.00123942267,7.97319153 0.003718268,7.93 C0.003718268,3.26 11.8937183,0 22.5737183,0 Z M35.4437183,31.48 L37.3737183,32 L36.4937183,35.31 L38.4737183,38.74 L40.4237183,35.36 L39.5637183,31.99 L41.5037183,31.49 L42.2037183,34.23 L44.9737183,33.49 L45.4937183,35.42 L42.1837183,36.31 L40.2037183,39.74 L44.1137183,39.74 L46.6037183,37.31 L47.9937183,38.74 L45.9737183,40.71 L48.0037183,42.75 L46.5937183,44.16 L44.1737183,41.74 L40.2037183,41.74 L42.1537183,45.12 L45.5037183,46.06 L44.9637183,47.99 L42.2437183,47.22 L41.5037183,50 L39.5737183,49.48 L40.4537183,46.17 L38.4737183,42.74 L36.5237183,46.12 L37.3837183,49.49 L35.4437183,49.99 L34.7437183,47.25 L31.9737183,47.99 L31.4537183,46.06 L34.7637183,45.17 L36.7437183,41.74 L32.8337183,41.74 L30.3437183,44.17 L28.9537183,42.74 L30.9737183,40.77 L28.9437183,38.73 L30.3537183,37.32 L32.7737183,39.74 L36.7437183,39.74 L34.7937183,36.36 L31.4437183,35.42 L31.9837183,33.49 L34.7037183,34.26 L35.4437183,31.48 Z M22.5737183,18.28 C23.7996568,18.28 24.7965962,19.2604617 24.8231742,20.4800229 L24.8637183,20.5 C29.9645417,22.97382 35.207,25.1442645 40.5637183,27 L41.6737183,27.33 L42.5137183,27.55 L43.0137037,27.6690889 L43.4652343,27.7661808 C43.6079311,27.7950875 43.7429457,27.8206414 43.8706716,27.843156 L44.2323772,27.901895 C44.3459194,27.9186443 44.4525667,27.9326676 44.5527124,27.9442784 L44.834039,27.9721866 L45.0787183,27.9875 L45.2891119,27.9920991 L45.5455823,27.983022 L45.6805933,27.9690625 L45.8350594,27.9409621 L45.9094471,27.9201968 L45.9637183,27.9 L45.9391565,27.8469773 L45.9023333,27.7805008 L45.8180461,27.6545383 L45.7384449,27.5523833 L45.5770001,27.3707126 L45.4373002,27.2299587 L45.2687111,27.0729475 L45.0684613,26.8992118 C45.032294,26.8688362 44.9946921,26.8377443 44.9555977,26.8059263 L44.7026609,26.6062277 L44.4111353,26.3886365 C44.359178,26.3508543 44.3054973,26.3123071 44.2500356,26.2729851 L43.8954305,26.0276788 C43.8326136,25.985219 43.7679001,25.941965 43.7012323,25.8979071 L43.2773123,25.6238344 L42.8037183,25.33 L43.1137183,23.19 C43.3288907,23.3113793 43.5363104,23.4309037 43.7361054,23.5486715 L44.3127441,23.8968039 C46.6211618,25.3262188 47.758201,26.4965517 47.9737183,27.6 C48.0621956,28.1484098 47.9049324,28.7079741 47.5437183,29.13 C46.9521708,29.7359446 46.1159477,30.0380164 45.2737183,29.95 C44.2601057,29.9194092 43.2534256,29.7717627 42.2737183,29.51 L41.1637183,29.21 L40.2937183,29 C35.1541156,27.2626671 30.122464,25.2221389 25.2252151,22.8892947 L23.9779658,22.288114 C23.5930749,22.5959372 23.1048917,22.78 22.5737183,22.78 C21.3310776,22.78 20.3237183,21.7726407 20.3237183,20.53 C20.3237183,19.2873593 21.3310776,18.28 22.5737183,18.28 Z M22.5737183,20.28 C22.4356471,20.28 22.3237183,20.3919288 22.3237183,20.53 C22.3237183,20.8 22.8237183,20.8 22.8237183,20.53 C22.8237183,20.3919288 22.7117895,20.28 22.5737183,20.28 Z M22.5737183,2 C10.7374362,2 2.36071202,5.68369822 2.01318558,7.84651534 L2.00371827,7.93 L2.00371827,8.17 L2.050114,8.24740284 L2.10371827,8.32 C2.138502,8.38966082 2.17862165,8.45652691 2.22371827,8.52 C2.27017572,8.59188803 2.32378159,8.65889536 2.38371827,8.72 C2.53359869,8.89361687 2.70117113,9.05113496 2.88371827,9.19 C3.56171611,9.68665493 4.3012047,10.0933737 5.08371827,10.4 C5.30371827,10.4933333 5.53260716,10.5866667 5.7733479,10.677037 L6.14371827,10.81 L6.73371827,11.01 C7.00038493,11.0966667 7.27594049,11.1833333 7.5633479,11.267037 L8.00371827,11.39 L9.47371827,11.75 C10.7837183,12.05 12.2037183,12.31 13.7837183,12.53 C14.1937183,12.59 14.4937183,12.61 15.0437183,12.68 C15.5937183,12.75 16.2937183,12.8 16.7437183,12.85 C17.1937183,12.9 17.6637183,12.96 18.1337183,12.96 C19.5537183,13.1 21.0437183,13.1 22.6037183,13.1 C24.1637183,13.1 25.6537183,13.05 27.0737183,12.96 C27.5437183,12.93 27.8837183,12.89 28.4637183,12.85 C29.0437183,12.81 29.6137183,12.75 30.1637183,12.68 C30.5903849,12.64 31.0103849,12.59 31.4237183,12.53 C32.0012183,12.4475 32.5562183,12.365 33.092937,12.2740625 L33.6237183,12.18 L34.9737183,11.92 L35.7337183,11.75 C36.2437183,11.6225 36.7593433,11.489375 37.251062,11.3464062 L37.7337183,11.2 L38.3537183,11.01 C38.7337183,10.89 39.0837183,10.77 39.4137183,10.64 C39.6144496,10.5703807 39.8113874,10.4902704 40.0037183,10.4 C40.7069312,10.1245299 41.3776459,9.77240461 42.0037183,9.35 C42.3014128,9.16661611 42.5680718,8.9370868 42.7937183,8.67 C42.853655,8.60889536 42.9072608,8.54188803 42.9537183,8.47 C42.9988149,8.40652691 43.0389345,8.33966082 43.0737183,8.27 L43.1069467,8.19629139 L43.1069467,8.19629139 L43.1337183,8.12 L43.1337183,7.88 C43.0037183,5.78 34.5637183,2 22.5737183,2 Z" id="Combined-Shape" fill="currentColor"></path>
    </g>
</svg>