<svg width="76" height="60" viewBox="0 0 76 60" fill="none" xmlns="http://www.w3.org/2000/svg">
<g clip-path="url(#clip0_4486_65465)">
<path d="M32.0161 36.8642L31.9979 36.895L31.9842 36.928L29.4976 42.9507C27.4437 41.4626 25.847 39.429 24.8889 37.0805L31.3388 35.9731C31.7311 35.9883 31.9917 36.2359 32.0193 36.4617L32.0261 36.5166L32.0446 36.5687C32.0618 36.617 32.0682 36.6685 32.0632 36.7196C32.0583 36.7707 32.0422 36.8201 32.0161 36.8642ZM34.7426 25.1277L34.7419 25.1402V25.1527C34.7419 25.4831 34.4334 25.7986 34.0236 25.7986C33.9473 25.7986 33.9132 25.7868 33.8052 25.7494C33.7706 25.7374 33.7284 25.7228 33.6747 25.705L28.2867 21.8764C29.9886 20.3574 32.0452 19.2846 34.2716 18.7595L35.0694 18.6003L34.7426 25.1277ZM30.4919 30.6297L30.4704 30.6545L30.4522 30.682C30.4136 30.7403 30.3929 30.7538 30.3795 30.7619C30.3545 30.7769 30.3048 30.7989 30.1737 30.832L30.1656 30.8341L30.1577 30.8364L23.8113 32.6664C23.7451 30.1218 24.3454 27.6036 25.5526 25.3623L30.3947 29.6814L30.403 29.6889L30.4117 29.6959C30.4795 29.7512 30.5355 29.8194 30.5764 29.8967C30.6173 29.974 30.6422 30.0587 30.6497 30.1458C30.6572 30.233 30.6471 30.3207 30.62 30.4038C30.5929 30.4869 30.5493 30.5638 30.4919 30.6297ZM40.0935 25.5067L40.0639 25.4655L40.0267 25.431C40.0086 25.4144 39.9943 25.3941 39.9845 25.3716C39.9747 25.3491 39.9698 25.3248 39.9699 25.3002L39.97 25.284L39.969 25.2678L39.5737 18.6306C42.1036 19.0192 44.4629 20.1468 46.3544 21.8713L40.9945 25.6608C40.672 25.8338 40.2698 25.7527 40.0935 25.5067ZM38.898 33.1193L37.3949 33.8439L35.8866 33.1192L35.4986 31.5059L36.5602 30.1672H38.2272L39.2886 31.5056L38.898 33.1193Z" fill="#232F3E" stroke="#879596"/>
<mask id="path-2-inside-1_4486_65465" fill="white">
<path d="M68.8612 36.6215L63.4149 13.1803C63.0591 12.0344 62.1965 11.1026 61.1199 10.5296L39.2591 0.0620141C38.6862 -0.224467 38.0408 -0.296875 37.4678 -0.296875C36.8949 -0.296875 36.2495 -0.296875 35.6765 -0.155208L13.8095 10.3848C13.271 10.631 12.7968 10.9984 12.4238 11.4582C12.0508 11.918 11.7891 12.4579 11.6593 13.0355L6.28228 36.6215C6.06821 37.8398 6.35469 39.0581 7.06932 40.0624L22.1962 58.7718C23.0556 59.6313 24.2739 60.2074 25.4923 60.2798H49.5788C50.8695 60.4215 52.0878 59.8485 52.878 58.7718L68.0049 40.0624C68.7195 39.0581 69.006 37.8398 68.8612 36.6215ZM59.9047 38.1987C59.7599 38.1987 59.6906 38.1987 59.5458 38.1263C59.4765 38.0539 59.4765 38.0539 59.4041 38.0539C59.2593 38.0539 59.19 37.9846 59.1145 37.9846C58.828 37.9122 58.6139 37.7705 58.3275 37.6257C58.1748 37.6119 58.0273 37.5635 57.8962 37.484H57.8269C57.0846 37.1952 56.316 36.979 55.5319 36.8387H55.4626C55.2512 36.8333 55.0458 36.91 54.8897 37.0528C54.8897 37.0528 54.8897 37.1252 54.8173 37.1252L54.2412 37.0496C52.9243 41.1295 50.1728 44.5935 46.4967 46.7994L46.7108 47.3724C46.7108 47.3724 46.6415 47.3724 46.6415 47.4416C46.5768 47.5484 46.537 47.6684 46.525 47.7926C46.513 47.9169 46.5292 48.0423 46.5723 48.1594C46.8588 48.8772 47.2176 49.5918 47.7182 50.2372V50.3789C47.8351 50.4797 47.9322 50.6014 48.0047 50.7378C48.2116 50.9464 48.381 51.1892 48.5052 51.4555C48.5776 51.5248 48.6501 51.5972 48.6501 51.6696C48.6501 51.6696 48.7193 51.6696 48.7193 51.7389C48.851 52.0823 48.8762 52.4575 48.7917 52.8155C48.7486 52.9861 48.6685 53.1451 48.5569 53.2811C48.4454 53.4171 48.3052 53.5269 48.1463 53.6026C47.9323 53.6718 47.7875 53.7442 47.5702 53.7442C47.2875 53.7335 47.0126 53.6484 46.7733 53.4975C46.534 53.3466 46.3387 53.1353 46.2071 52.8848C46.1378 52.8848 46.1378 52.8155 46.1378 52.8155C46.0686 52.7431 46.0686 52.6739 45.993 52.6015C45.8513 52.3874 45.7789 52.1009 45.7065 51.8144L45.5617 51.3831V51.3139C45.3264 50.5436 45.0142 49.799 44.6299 49.0913C44.4918 48.8881 44.2903 48.7365 44.0569 48.66C44.0569 48.5876 44.0569 48.5876 43.9845 48.5876L43.698 48.087C42.9802 48.3011 42.1901 48.5876 41.403 48.7324C40.1123 49.0913 38.8215 49.2329 37.5339 49.2329C35.4014 49.2479 33.2854 48.8591 31.2975 48.087L31.011 48.66C31.011 48.7324 31.011 48.7324 30.9386 48.7324C30.7048 48.8082 30.5032 48.96 30.3656 49.1637C30.0067 49.8815 29.6478 50.5961 29.4338 51.3863L29.2921 51.8176C29.2197 52.104 29.078 52.3181 29.0056 52.6046C28.9364 52.677 28.8639 52.7463 28.8639 52.8187C28.7915 52.8187 28.7915 52.8879 28.7915 52.8879C28.6607 53.139 28.4656 53.3509 28.2261 53.5019C27.9866 53.6529 27.7113 53.7376 27.4284 53.7474C27.254 53.7326 27.0841 53.6846 26.9278 53.6057C26.6043 53.4161 26.3651 53.1105 26.2587 52.7509C26.1523 52.3913 26.1867 52.0047 26.3549 51.6696C26.4273 51.6696 26.4273 51.5972 26.4273 51.5972C26.4965 51.5248 26.4965 51.4555 26.5689 51.3831C26.783 51.0966 26.9278 50.8102 27.0695 50.6653C27.2112 50.5205 27.2836 50.4513 27.356 50.3065V50.234C27.8071 49.5819 28.1911 48.8858 28.5019 48.1563C28.5437 48.0387 28.5588 47.9134 28.5463 47.7893C28.5338 47.6651 28.4939 47.5453 28.4295 47.4385C28.4295 47.4385 28.3602 47.4385 28.3602 47.3692L28.7191 46.8655C28.0309 46.5033 27.3821 46.0707 26.783 45.5748C24.022 43.4368 21.9729 40.513 20.9054 37.1881L20.2601 37.2574C20.2601 37.2574 20.2601 37.1881 20.1876 37.1881C20.0322 37.0442 19.8264 36.9673 19.6147 36.974H19.5454C18.7383 37.1121 17.9465 37.3282 17.1812 37.6194H17.1056C16.9639 37.6194 16.8191 37.6918 16.6743 37.7642C16.4602 37.8335 16.1738 37.9783 15.8873 38.0507C15.818 38.0507 15.6008 37.9815 15.6008 38.0507C15.6008 38.1231 15.6008 38.1231 15.5284 38.1231C15.3867 38.1955 15.3143 38.1955 15.1695 38.1955C14.8493 38.2294 14.5277 38.1464 14.2639 37.9619C14.0001 37.7773 13.8119 37.5036 13.7339 37.1913C13.6982 37.0075 13.6996 36.8184 13.7382 36.6351C13.7768 36.4519 13.8517 36.2782 13.9585 36.1244C14.0653 35.9707 14.2019 35.8398 14.3602 35.7397C14.5184 35.6396 14.6951 35.5723 14.8799 35.5416C14.9523 35.4692 14.9523 35.4692 15.0247 35.4692C15.1664 35.4692 15.2388 35.4 15.3112 35.4C15.5976 35.4 15.8841 35.3276 16.1706 35.3276C16.3123 35.2583 16.4571 35.2583 16.6019 35.2583C17.4258 35.191 18.2416 35.0466 19.0386 34.827C19.2526 34.6822 19.4699 34.5405 19.5423 34.3233C19.5423 34.3233 19.6115 34.3233 19.6115 34.254L20.1845 34.1092C19.5391 30.0229 20.471 25.8674 22.6936 22.354C22.7628 22.2124 22.8352 22.14 22.9076 21.9952L22.4952 21.5796C22.4929 21.5999 22.4887 21.6199 22.4826 21.6394V21.567L22.4952 21.5796C22.5267 21.375 22.3976 21.1231 22.2686 20.994C21.6956 20.4211 20.9778 19.9898 20.2601 19.5616L19.8319 19.3444C19.5608 19.2164 19.297 19.0734 19.0417 18.9163C18.9725 18.9163 18.8276 18.7746 18.8276 18.7746C18.8276 18.7746 18.8276 18.7022 18.7584 18.7022C18.4746 18.4589 18.2887 18.1208 18.2355 17.7508C18.1822 17.3808 18.2651 17.004 18.4688 16.6905C18.6828 16.3316 19.0417 16.19 19.473 16.19C19.8376 16.1988 20.1897 16.3246 20.4773 16.5489L20.5497 16.6213C20.6189 16.6905 20.6914 16.6905 20.7638 16.7629C20.9778 16.9802 21.1226 17.1942 21.3367 17.4083C21.4091 17.4776 21.5508 17.55 21.6232 17.6948C22.1238 18.2678 22.7691 18.8407 23.4145 19.3444C23.5562 19.4137 23.701 19.4861 23.8458 19.4861C23.9875 19.4861 24.0599 19.4137 24.1323 19.4137H24.2047L24.636 19.7002C26.9992 17.173 30.0742 15.4231 33.4539 14.682C34.3134 14.5372 35.1004 14.3955 35.8906 14.3231L35.963 13.7502V13.6085C36.1771 13.4668 36.2495 13.2496 36.3219 13.0355C36.3219 12.1761 36.3219 11.3859 36.1802 10.5989V10.5265C36.1802 10.3848 36.1802 10.24 36.1078 10.0952C36.0255 9.81557 35.978 9.52692 35.9662 9.23572V8.87998C35.9662 8.52109 36.1078 8.1622 36.3975 7.87572C36.7563 7.51683 37.1845 7.30275 37.6158 7.37516C37.9719 7.42457 38.2959 7.60753 38.5222 7.88696C38.7484 8.16638 38.8599 8.52137 38.8341 8.87998V9.31127C38.7617 9.59775 38.7617 9.88424 38.6925 10.1707C38.6925 10.3124 38.6201 10.4572 38.6201 10.5989V10.6713C38.4689 11.5307 38.4689 12.3209 38.4689 13.1079C38.5413 13.322 38.6106 13.5361 38.8278 13.6809V13.6085L38.9002 14.1815C42.292 14.5357 45.5184 15.8262 48.2188 17.9089C48.7949 18.4818 49.4371 19.0548 50.0101 19.6278L50.5862 19.2689H50.6554C50.7247 19.3413 50.8695 19.3413 50.9419 19.3413C51.0867 19.3413 51.2284 19.2689 51.3732 19.1996C52.0186 18.7683 52.6639 18.1953 53.1645 17.6224C53.2338 17.55 53.3786 17.4776 53.451 17.3359C53.5958 17.1218 53.8099 16.9046 54.0271 16.6905C54.0963 16.6905 54.1688 16.6213 54.2412 16.5489L54.3104 16.4765C54.5978 16.254 54.9483 16.1284 55.3115 16.1176C55.6704 16.1176 56.1017 16.3316 56.3158 16.6213C56.8163 17.2666 56.6715 18.1261 56.0293 18.6266C56.0293 18.699 56.0986 18.699 56.0293 18.7715C55.9569 18.8407 55.8845 18.8407 55.8152 18.9131C55.5256 19.0548 55.3115 19.1996 55.025 19.3444L54.5938 19.5585C53.8801 19.9708 53.2075 20.4505 52.5852 20.9909C52.4436 21.1357 52.3712 21.4222 52.3712 21.6363V21.7087L51.943 22.14C53.0889 23.9313 53.9515 25.9398 54.4521 28.0176C54.8834 30.0953 55.025 32.2455 54.7386 34.3233L55.3115 34.4681C55.3558 34.5821 55.4236 34.6856 55.5103 34.7718C55.5971 34.858 55.701 34.9251 55.8152 34.9687C56.6023 35.1827 57.4617 35.3276 58.2488 35.4H58.3212C58.4574 35.4568 58.6052 35.4805 58.7525 35.4692C59.0389 35.4692 59.3254 35.4692 59.6087 35.5416C59.7536 35.5416 59.8984 35.5416 59.8984 35.614C59.8984 35.6833 59.9676 35.6833 60.04 35.6833C60.3867 35.7665 60.6982 35.9571 60.93 36.2279C61.1618 36.4987 61.3021 36.8359 61.3308 37.1913C61.2227 37.4836 61.0286 37.7363 60.774 37.9162C60.5194 38.096 60.2163 38.1945 59.9047 38.1987Z"/>
</mask>
<path d="M68.8612 36.6215L63.4149 13.1803C63.0591 12.0344 62.1965 11.1026 61.1199 10.5296L39.2591 0.0620141C38.6862 -0.224467 38.0408 -0.296875 37.4678 -0.296875C36.8949 -0.296875 36.2495 -0.296875 35.6765 -0.155208L13.8095 10.3848C13.271 10.631 12.7968 10.9984 12.4238 11.4582C12.0508 11.918 11.7891 12.4579 11.6593 13.0355L6.28228 36.6215C6.06821 37.8398 6.35469 39.0581 7.06932 40.0624L22.1962 58.7718C23.0556 59.6313 24.2739 60.2074 25.4923 60.2798H49.5788C50.8695 60.4215 52.0878 59.8485 52.878 58.7718L68.0049 40.0624C68.7195 39.0581 69.006 37.8398 68.8612 36.6215ZM59.9047 38.1987C59.7599 38.1987 59.6906 38.1987 59.5458 38.1263C59.4765 38.0539 59.4765 38.0539 59.4041 38.0539C59.2593 38.0539 59.19 37.9846 59.1145 37.9846C58.828 37.9122 58.6139 37.7705 58.3275 37.6257C58.1748 37.6119 58.0273 37.5635 57.8962 37.484H57.8269C57.0846 37.1952 56.316 36.979 55.5319 36.8387H55.4626C55.2512 36.8333 55.0458 36.91 54.8897 37.0528C54.8897 37.0528 54.8897 37.1252 54.8173 37.1252L54.2412 37.0496C52.9243 41.1295 50.1728 44.5935 46.4967 46.7994L46.7108 47.3724C46.7108 47.3724 46.6415 47.3724 46.6415 47.4416C46.5768 47.5484 46.537 47.6684 46.525 47.7926C46.513 47.9169 46.5292 48.0423 46.5723 48.1594C46.8588 48.8772 47.2176 49.5918 47.7182 50.2372V50.3789C47.8351 50.4797 47.9322 50.6014 48.0047 50.7378C48.2116 50.9464 48.381 51.1892 48.5052 51.4555C48.5776 51.5248 48.6501 51.5972 48.6501 51.6696C48.6501 51.6696 48.7193 51.6696 48.7193 51.7389C48.851 52.0823 48.8762 52.4575 48.7917 52.8155C48.7486 52.9861 48.6685 53.1451 48.5569 53.2811C48.4454 53.4171 48.3052 53.5269 48.1463 53.6026C47.9323 53.6718 47.7875 53.7442 47.5702 53.7442C47.2875 53.7335 47.0126 53.6484 46.7733 53.4975C46.534 53.3466 46.3387 53.1353 46.2071 52.8848C46.1378 52.8848 46.1378 52.8155 46.1378 52.8155C46.0686 52.7431 46.0686 52.6739 45.993 52.6015C45.8513 52.3874 45.7789 52.1009 45.7065 51.8144L45.5617 51.3831V51.3139C45.3264 50.5436 45.0142 49.799 44.6299 49.0913C44.4918 48.8881 44.2903 48.7365 44.0569 48.66C44.0569 48.5876 44.0569 48.5876 43.9845 48.5876L43.698 48.087C42.9802 48.3011 42.1901 48.5876 41.403 48.7324C40.1123 49.0913 38.8215 49.2329 37.5339 49.2329C35.4014 49.2479 33.2854 48.8591 31.2975 48.087L31.011 48.66C31.011 48.7324 31.011 48.7324 30.9386 48.7324C30.7048 48.8082 30.5032 48.96 30.3656 49.1637C30.0067 49.8815 29.6478 50.5961 29.4338 51.3863L29.2921 51.8176C29.2197 52.104 29.078 52.3181 29.0056 52.6046C28.9364 52.677 28.8639 52.7463 28.8639 52.8187C28.7915 52.8187 28.7915 52.8879 28.7915 52.8879C28.6607 53.139 28.4656 53.3509 28.2261 53.5019C27.9866 53.6529 27.7113 53.7376 27.4284 53.7474C27.254 53.7326 27.0841 53.6846 26.9278 53.6057C26.6043 53.4161 26.3651 53.1105 26.2587 52.7509C26.1523 52.3913 26.1867 52.0047 26.3549 51.6696C26.4273 51.6696 26.4273 51.5972 26.4273 51.5972C26.4965 51.5248 26.4965 51.4555 26.5689 51.3831C26.783 51.0966 26.9278 50.8102 27.0695 50.6653C27.2112 50.5205 27.2836 50.4513 27.356 50.3065V50.234C27.8071 49.5819 28.1911 48.8858 28.5019 48.1563C28.5437 48.0387 28.5588 47.9134 28.5463 47.7893C28.5338 47.6651 28.4939 47.5453 28.4295 47.4385C28.4295 47.4385 28.3602 47.4385 28.3602 47.3692L28.7191 46.8655C28.0309 46.5033 27.3821 46.0707 26.783 45.5748C24.022 43.4368 21.9729 40.513 20.9054 37.1881L20.2601 37.2574C20.2601 37.2574 20.2601 37.1881 20.1876 37.1881C20.0322 37.0442 19.8264 36.9673 19.6147 36.974H19.5454C18.7383 37.1121 17.9465 37.3282 17.1812 37.6194H17.1056C16.9639 37.6194 16.8191 37.6918 16.6743 37.7642C16.4602 37.8335 16.1738 37.9783 15.8873 38.0507C15.818 38.0507 15.6008 37.9815 15.6008 38.0507C15.6008 38.1231 15.6008 38.1231 15.5284 38.1231C15.3867 38.1955 15.3143 38.1955 15.1695 38.1955C14.8493 38.2294 14.5277 38.1464 14.2639 37.9619C14.0001 37.7773 13.8119 37.5036 13.7339 37.1913C13.6982 37.0075 13.6996 36.8184 13.7382 36.6351C13.7768 36.4519 13.8517 36.2782 13.9585 36.1244C14.0653 35.9707 14.2019 35.8398 14.3602 35.7397C14.5184 35.6396 14.6951 35.5723 14.8799 35.5416C14.9523 35.4692 14.9523 35.4692 15.0247 35.4692C15.1664 35.4692 15.2388 35.4 15.3112 35.4C15.5976 35.4 15.8841 35.3276 16.1706 35.3276C16.3123 35.2583 16.4571 35.2583 16.6019 35.2583C17.4258 35.191 18.2416 35.0466 19.0386 34.827C19.2526 34.6822 19.4699 34.5405 19.5423 34.3233C19.5423 34.3233 19.6115 34.3233 19.6115 34.254L20.1845 34.1092C19.5391 30.0229 20.471 25.8674 22.6936 22.354C22.7628 22.2124 22.8352 22.14 22.9076 21.9952L22.4952 21.5796C22.4929 21.5999 22.4887 21.6199 22.4826 21.6394V21.567L22.4952 21.5796C22.5267 21.375 22.3976 21.1231 22.2686 20.994C21.6956 20.4211 20.9778 19.9898 20.2601 19.5616L19.8319 19.3444C19.5608 19.2164 19.297 19.0734 19.0417 18.9163C18.9725 18.9163 18.8276 18.7746 18.8276 18.7746C18.8276 18.7746 18.8276 18.7022 18.7584 18.7022C18.4746 18.4589 18.2887 18.1208 18.2355 17.7508C18.1822 17.3808 18.2651 17.004 18.4688 16.6905C18.6828 16.3316 19.0417 16.19 19.473 16.19C19.8376 16.1988 20.1897 16.3246 20.4773 16.5489L20.5497 16.6213C20.6189 16.6905 20.6914 16.6905 20.7638 16.7629C20.9778 16.9802 21.1226 17.1942 21.3367 17.4083C21.4091 17.4776 21.5508 17.55 21.6232 17.6948C22.1238 18.2678 22.7691 18.8407 23.4145 19.3444C23.5562 19.4137 23.701 19.4861 23.8458 19.4861C23.9875 19.4861 24.0599 19.4137 24.1323 19.4137H24.2047L24.636 19.7002C26.9992 17.173 30.0742 15.4231 33.4539 14.682C34.3134 14.5372 35.1004 14.3955 35.8906 14.3231L35.963 13.7502V13.6085C36.1771 13.4668 36.2495 13.2496 36.3219 13.0355C36.3219 12.1761 36.3219 11.3859 36.1802 10.5989V10.5265C36.1802 10.3848 36.1802 10.24 36.1078 10.0952C36.0255 9.81557 35.978 9.52692 35.9662 9.23572V8.87998C35.9662 8.52109 36.1078 8.1622 36.3975 7.87572C36.7563 7.51683 37.1845 7.30275 37.6158 7.37516C37.9719 7.42457 38.2959 7.60753 38.5222 7.88696C38.7484 8.16638 38.8599 8.52137 38.8341 8.87998V9.31127C38.7617 9.59775 38.7617 9.88424 38.6925 10.1707C38.6925 10.3124 38.6201 10.4572 38.6201 10.5989V10.6713C38.4689 11.5307 38.4689 12.3209 38.4689 13.1079C38.5413 13.322 38.6106 13.5361 38.8278 13.6809V13.6085L38.9002 14.1815C42.292 14.5357 45.5184 15.8262 48.2188 17.9089C48.7949 18.4818 49.4371 19.0548 50.0101 19.6278L50.5862 19.2689H50.6554C50.7247 19.3413 50.8695 19.3413 50.9419 19.3413C51.0867 19.3413 51.2284 19.2689 51.3732 19.1996C52.0186 18.7683 52.6639 18.1953 53.1645 17.6224C53.2338 17.55 53.3786 17.4776 53.451 17.3359C53.5958 17.1218 53.8099 16.9046 54.0271 16.6905C54.0963 16.6905 54.1688 16.6213 54.2412 16.5489L54.3104 16.4765C54.5978 16.254 54.9483 16.1284 55.3115 16.1176C55.6704 16.1176 56.1017 16.3316 56.3158 16.6213C56.8163 17.2666 56.6715 18.1261 56.0293 18.6266C56.0293 18.699 56.0986 18.699 56.0293 18.7715C55.9569 18.8407 55.8845 18.8407 55.8152 18.9131C55.5256 19.0548 55.3115 19.1996 55.025 19.3444L54.5938 19.5585C53.8801 19.9708 53.2075 20.4505 52.5852 20.9909C52.4436 21.1357 52.3712 21.4222 52.3712 21.6363V21.7087L51.943 22.14C53.0889 23.9313 53.9515 25.9398 54.4521 28.0176C54.8834 30.0953 55.025 32.2455 54.7386 34.3233L55.3115 34.4681C55.3558 34.5821 55.4236 34.6856 55.5103 34.7718C55.5971 34.858 55.701 34.9251 55.8152 34.9687C56.6023 35.1827 57.4617 35.3276 58.2488 35.4H58.3212C58.4574 35.4568 58.6052 35.4805 58.7525 35.4692C59.0389 35.4692 59.3254 35.4692 59.6087 35.5416C59.7536 35.5416 59.8984 35.5416 59.8984 35.614C59.8984 35.6833 59.9676 35.6833 60.04 35.6833C60.3867 35.7665 60.6982 35.9571 60.93 36.2279C61.1618 36.4987 61.3021 36.8359 61.3308 37.1913C61.2227 37.4836 61.0286 37.7363 60.774 37.9162C60.5194 38.096 60.2163 38.1945 59.9047 38.1987Z" fill="#232F3E"/>
<path d="M68.8612 36.6215L69.8542 36.5034L69.8477 36.4488L69.8352 36.3951L68.8612 36.6215ZM63.4149 13.1803L64.3889 12.954L64.3807 12.9186L64.3699 12.8839L63.4149 13.1803ZM61.1199 10.5296L61.5896 9.64682L61.5709 9.63685L61.5517 9.62767L61.1199 10.5296ZM39.2591 0.0620141L38.8119 0.956441L38.8196 0.96026L38.8273 0.963948L39.2591 0.0620141ZM35.6765 -0.155208L35.4365 -1.12597L35.3358 -1.10107L35.2423 -1.05603L35.6765 -0.155208ZM13.8095 10.3848L14.2253 11.2942L14.2346 11.29L14.2437 11.2856L13.8095 10.3848ZM11.6593 13.0355L12.6343 13.2578L12.635 13.2548L11.6593 13.0355ZM6.28228 36.6215L5.3073 36.3992L5.30172 36.4237L5.29737 36.4484L6.28228 36.6215ZM7.06932 40.0624L6.25455 40.6422L6.27237 40.6672L6.29169 40.6911L7.06932 40.0624ZM22.1962 58.7718L21.4185 59.4005L21.4517 59.4416L21.4891 59.4789L22.1962 58.7718ZM25.4923 60.2798L25.433 61.278L25.4626 61.2798H25.4923V60.2798ZM49.5788 60.2798L49.6879 59.2858L49.6335 59.2798H49.5788V60.2798ZM52.878 58.7718L52.1004 58.1431L52.0857 58.1613L52.0718 58.1802L52.878 58.7718ZM68.0049 40.0624L68.7825 40.6911L68.8018 40.6672L68.8196 40.6422L68.0049 40.0624ZM59.9047 38.1987V39.1988L59.9181 39.1986L59.9047 38.1987ZM59.5458 38.1263L58.8231 38.8175L58.9432 38.943L59.0986 39.0207L59.5458 38.1263ZM59.1145 37.9846L58.8694 38.9541L58.9901 38.9846H59.1145V37.9846ZM58.3275 37.6257L58.7786 36.7333L58.6079 36.647L58.4174 36.6298L58.3275 37.6257ZM57.8962 37.484L58.4143 36.6287L58.1754 36.484H57.8962V37.484ZM57.8269 37.484L57.4642 38.416L57.6392 38.484H57.8269V37.484ZM55.5319 36.8387L55.7081 35.8543L55.6207 35.8387H55.5319V36.8387ZM55.4626 36.8387L55.4373 37.8384L55.45 37.8387H55.4626V36.8387ZM54.8897 37.0528H53.8897V39.3215L55.5643 37.7909L54.8897 37.0528ZM54.8173 37.1252L54.6872 38.1167L54.752 38.1252H54.8173V37.1252ZM54.2412 37.0496L54.3712 36.0581L53.5454 35.9498L53.2895 36.7424L54.2412 37.0496ZM46.4967 46.7994L45.9822 45.942L45.2688 46.3701L45.56 47.1494L46.4967 46.7994ZM46.7108 47.3724L46.7108 48.3724L48.1519 48.3723L47.6475 47.0224L46.7108 47.3724ZM46.6415 47.4416L47.4967 47.96L47.6415 47.7211V47.4416H46.6415ZM46.5723 48.1594L45.6338 48.5047L45.6385 48.5175L45.6435 48.5301L46.5723 48.1594ZM47.7182 50.2372H48.7182V49.8948L48.5084 49.6243L47.7182 50.2372ZM47.7182 50.3789H46.7182V50.8368L47.0649 51.136L47.7182 50.3789ZM48.0047 50.7378L47.1216 51.207L47.1908 51.3373L47.2947 51.442L48.0047 50.7378ZM48.5052 51.4555L47.599 51.8783L47.6784 52.0484L47.814 52.1782L48.5052 51.4555ZM48.6501 51.6696H47.6501V52.6695L48.65 52.6696L48.6501 51.6696ZM48.7193 51.7389H47.7193V51.924L47.7856 52.0968L48.7193 51.7389ZM48.7917 52.8155L49.7613 53.0604L49.7632 53.0528L49.765 53.0452L48.7917 52.8155ZM48.1463 53.6026L48.4542 54.554L48.5169 54.5337L48.5764 54.5054L48.1463 53.6026ZM47.5702 53.7442L47.5323 54.7435L47.5513 54.7442H47.5702V53.7442ZM46.2071 52.8848L47.0924 52.4198L46.8114 51.8848L46.2071 51.8848L46.2071 52.8848ZM46.1378 52.8155L47.1378 52.8155L47.1378 52.4143L46.8605 52.1243L46.1378 52.8155ZM45.993 52.6015L45.1591 53.1533L45.2206 53.2463L45.3011 53.3234L45.993 52.6015ZM45.7065 51.8144L46.676 51.5694L46.6667 51.5323L46.6545 51.4961L45.7065 51.8144ZM45.5617 51.3831H44.5617V51.5465L44.6137 51.7014L45.5617 51.3831ZM45.5617 51.3139H46.5617V51.1645L46.5181 51.0217L45.5617 51.3139ZM44.6299 49.0913L45.5087 48.6141L45.4849 48.5703L45.4569 48.5291L44.6299 49.0913ZM44.0569 48.66L43.0569 48.66L43.0569 49.3846L43.7455 49.6102L44.0569 48.66ZM43.9845 48.5876L43.1166 49.0843L43.4046 49.5876H43.9845V48.5876ZM43.698 48.087L44.5659 47.5903L44.1721 46.9021L43.4122 47.1287L43.698 48.087ZM41.403 48.7324L41.2221 47.7489L41.1781 47.757L41.1351 47.7689L41.403 48.7324ZM37.5339 49.2329L37.5339 48.2329L37.5269 48.233L37.5339 49.2329ZM31.2975 48.087L31.6595 47.1548L30.8104 46.8251L30.403 47.6398L31.2975 48.087ZM31.011 48.66L30.1166 48.2128L30.011 48.4239V48.66H31.011ZM30.9386 48.7324V47.7324H30.7804L30.6299 47.7812L30.9386 48.7324ZM30.3656 49.1637L29.5369 48.6039L29.5004 48.6581L29.4712 48.7165L30.3656 49.1637ZM29.4338 51.3863L30.3838 51.6983L30.3921 51.6732L30.399 51.6478L29.4338 51.3863ZM29.2921 51.8176L28.342 51.5055L28.3311 51.5387L28.3226 51.5725L29.2921 51.8176ZM29.0056 52.6046L29.7283 53.2958L29.9105 53.1053L29.9751 52.8496L29.0056 52.6046ZM28.8639 52.8187V53.8187H29.8639V52.8187H28.8639ZM28.7915 52.8879L29.6784 53.3499L29.7915 53.1328L29.7915 52.888L28.7915 52.8879ZM27.4284 53.7474L27.3442 54.7438L27.4035 54.7488L27.4629 54.7468L27.4284 53.7474ZM26.9278 53.6057L26.4221 54.4684L26.4493 54.4843L26.4773 54.4985L26.9278 53.6057ZM26.3549 51.6696V50.6696H25.7379L25.4611 51.221L26.3549 51.6696ZM26.4273 51.5972L25.7046 50.906L25.4273 51.1959L25.4273 51.5972L26.4273 51.5972ZM26.5689 51.3831L27.2761 52.0902L27.3269 52.0393L27.37 51.9817L26.5689 51.3831ZM27.356 50.3065L28.2504 50.7537L28.356 50.5425V50.3065H27.356ZM27.356 50.234L26.5336 49.6651L26.356 49.9219V50.234H27.356ZM28.5019 48.1563L29.4219 48.5483L29.4339 48.5199L29.4443 48.4909L28.5019 48.1563ZM28.4295 47.4385L29.286 46.9224L28.9944 46.4385L28.4295 46.4385L28.4295 47.4385ZM28.3602 47.3692L27.5458 46.789L27.3602 47.0494V47.3692H28.3602ZM28.7191 46.8655L29.5336 47.4458L30.1977 46.5137L29.1849 45.9806L28.7191 46.8655ZM26.783 45.5748L27.4207 44.8045L27.4081 44.7941L27.3953 44.7841L26.783 45.5748ZM20.9054 37.1881L21.8576 36.8824L21.6086 36.1069L20.7987 36.1938L20.9054 37.1881ZM20.2601 37.2574L19.2601 37.2574L19.2601 38.3704L20.3668 38.2517L20.2601 37.2574ZM20.1876 37.1881L19.5084 37.922L19.7959 38.1881H20.1876V37.1881ZM19.6147 36.974V37.974H19.6305L19.6463 37.9735L19.6147 36.974ZM19.5454 36.974V35.974H19.4605L19.3769 35.9884L19.5454 36.974ZM17.1812 37.6194V38.6194H17.365L17.5368 38.5541L17.1812 37.6194ZM16.6743 37.7642L16.9821 38.7157L17.054 38.6924L17.1215 38.6587L16.6743 37.7642ZM15.8873 38.0507V39.0507H16.0117L16.1323 39.0202L15.8873 38.0507ZM15.5284 38.1231V37.1231H15.2876L15.0733 37.2327L15.5284 38.1231ZM15.1695 38.1955V37.1955H15.1167L15.0643 37.2011L15.1695 38.1955ZM13.7339 37.1913L12.7524 37.3823L12.7574 37.408L12.7637 37.4334L13.7339 37.1913ZM14.8799 35.5416L15.0435 36.5282L15.3601 36.4757L15.587 36.2487L14.8799 35.5416ZM16.1706 35.3276V36.3276H16.402L16.6098 36.226L16.1706 35.3276ZM16.6019 35.2583V36.2583H16.6427L16.6833 36.255L16.6019 35.2583ZM19.0386 34.827L19.3042 35.7911L19.4627 35.7474L19.5989 35.6553L19.0386 34.827ZM19.5423 34.3233L19.5423 33.3233L18.8215 33.3233L18.5936 34.0071L19.5423 34.3233ZM19.6115 34.254L19.3665 33.2845L18.6115 33.4753V34.254H19.6115ZM20.1845 34.1092L20.4295 35.0787L21.3147 34.855L21.1723 33.9532L20.1845 34.1092ZM22.6936 22.354L23.5387 22.8887L23.5679 22.8424L23.592 22.7933L22.6936 22.354ZM22.9076 21.9952L23.8021 22.4424L24.1231 21.8003L23.6174 21.2907L22.9076 21.9952ZM22.4826 21.6394H21.4826L23.4382 21.9342L22.4826 21.6394ZM22.4826 21.567L23.1897 20.8599L21.4826 19.153V21.567H22.4826ZM22.2686 20.994L22.9757 20.2869L22.2686 20.994ZM20.2601 19.5616L20.7723 18.7028L20.743 18.6853L20.7125 18.6699L20.2601 19.5616ZM19.8319 19.3444L20.2844 18.4526L20.2718 18.4463L20.2591 18.4402L19.8319 19.3444ZM19.0417 18.9163L19.5659 18.0647L19.3248 17.9163H19.0417V18.9163ZM18.8276 18.7746L17.8276 18.7746L17.8277 19.1953L18.1284 19.4894L18.8276 18.7746ZM18.7584 18.7022L18.1076 19.4615L18.3885 19.7022H18.7584V18.7022ZM18.4688 16.6905L19.3073 17.2354L19.3178 17.2193L19.3276 17.2028L18.4688 16.6905ZM19.473 16.19L19.4972 15.1903L19.4851 15.19H19.473V16.19ZM20.4773 16.5489L21.1844 15.8418L21.1408 15.7982L21.0922 15.7603L20.4773 16.5489ZM20.5497 16.6213L21.2568 15.9142L21.2568 15.9142L20.5497 16.6213ZM20.7638 16.7629L21.476 16.061L21.4709 16.0558L20.7638 16.7629ZM21.3367 17.4083L20.6296 18.1154L20.6375 18.1233L20.6455 18.131L21.3367 17.4083ZM21.6232 17.6948L20.7288 18.142L20.786 18.2564L20.8701 18.3527L21.6232 17.6948ZM23.4145 19.3444L22.7992 20.1327L22.8815 20.197L22.9753 20.2428L23.4145 19.3444ZM24.2047 19.4137L24.758 18.5807L24.5065 18.4137H24.2047V19.4137ZM24.636 19.7002L24.0827 20.5331L24.788 21.0017L25.3664 20.3832L24.636 19.7002ZM33.4539 14.682L33.2878 13.6959L33.2637 13.7L33.2398 13.7052L33.4539 14.682ZM35.8906 14.3231L35.9819 15.319L36.782 15.2456L36.8827 14.4485L35.8906 14.3231ZM35.963 13.7502L36.9551 13.8755L36.963 13.8131V13.7502H35.963ZM35.963 13.6085L35.4111 12.7746L34.963 13.0711V13.6085H35.963ZM36.3219 13.0355L37.2692 13.3559L37.3219 13.2001V13.0355H36.3219ZM36.1802 10.5989H35.1802V10.6881L35.1961 10.776L36.1802 10.5989ZM36.1078 10.0952L35.1485 10.3775L35.1736 10.4628L35.2134 10.5424L36.1078 10.0952ZM35.9662 9.23572H34.9662V9.25598L34.967 9.27623L35.9662 9.23572ZM36.3975 7.87572L37.1007 8.58669L37.1046 8.58282L36.3975 7.87572ZM37.6158 7.37516L37.4502 8.36136L37.4643 8.36372L37.4784 8.36567L37.6158 7.37516ZM38.8341 8.87998L37.8367 8.80827L37.8341 8.84407V8.87998H38.8341ZM38.8341 9.31127L39.8036 9.55631L39.8341 9.43569V9.31127H38.8341ZM38.6925 10.1707L37.7205 9.93573L37.6925 10.0516V10.1707H38.6925ZM38.6201 10.6713L39.6049 10.8444L39.6201 10.7585V10.6713H38.6201ZM38.4689 13.1079H37.4689V13.2725L37.5217 13.4283L38.4689 13.1079ZM38.8278 13.6809L38.2731 14.513L39.8278 15.5494V13.6809H38.8278ZM38.8278 13.6085L39.8199 13.4831L37.8278 13.6085H38.8278ZM38.9002 14.1815L37.9081 14.3068L38.0076 15.0937L38.7964 15.176L38.9002 14.1815ZM48.2188 17.9089L48.9239 17.1998L48.8793 17.1554L48.8295 17.117L48.2188 17.9089ZM50.0101 19.6278L49.3029 20.3349L49.8646 20.8965L50.5388 20.4765L50.0101 19.6278ZM50.5862 19.2689V18.2689H50.3002L50.0574 18.4201L50.5862 19.2689ZM50.6554 19.2689L51.3781 18.5776L51.0827 18.2689H50.6554V19.2689ZM51.3732 19.1996L51.8047 20.1017L51.8693 20.0708L51.9288 20.031L51.3732 19.1996ZM53.1645 17.6224L52.4419 16.9312L52.4263 16.9475L52.4114 16.9645L53.1645 17.6224ZM53.451 17.3359L52.6227 16.7756L52.5884 16.8263L52.5605 16.8808L53.451 17.3359ZM54.0271 16.6905V15.6905H53.6171L53.3252 15.9783L54.0271 16.6905ZM54.2412 16.5489L54.9483 17.256L54.9561 17.2481L54.9638 17.2401L54.2412 16.5489ZM54.3104 16.4765L53.6983 15.6857L53.6393 15.7313L53.5878 15.7852L54.3104 16.4765ZM55.3115 16.1176L55.3115 15.1176H55.2967L55.2818 15.118L55.3115 16.1176ZM56.3158 16.6213L55.5116 17.2157L55.5185 17.225L55.5256 17.2341L56.3158 16.6213ZM56.0293 18.6266L55.4146 17.8379L55.0293 18.1382V18.6266H56.0293ZM56.0293 18.7715L56.7205 19.4941L56.7366 19.4787L56.752 19.4627L56.0293 18.7715ZM55.8152 18.9131L56.2546 19.8114L56.4147 19.7331L56.5379 19.6043L55.8152 18.9131ZM55.025 19.3444L55.4697 20.2402L55.4762 20.2369L55.025 19.3444ZM54.5938 19.5585L54.1492 18.6628L54.1209 18.6768L54.0935 18.6926L54.5938 19.5585ZM52.5852 20.9909L51.9295 20.2359L51.8988 20.2625L51.8704 20.2916L52.5852 20.9909ZM52.3712 21.7087L53.0809 22.4132L53.3712 22.1207V21.7087H52.3712ZM51.943 22.14L51.2333 21.4355L50.6689 22.004L51.1006 22.6789L51.943 22.14ZM54.4521 28.0176L55.4312 27.8143L55.428 27.7988L55.4243 27.7834L54.4521 28.0176ZM54.7386 34.3233L53.7479 34.1867L53.6257 35.0735L54.4935 35.2928L54.7386 34.3233ZM55.3115 34.4681L56.2436 34.1058L56.0567 33.625L55.5566 33.4986L55.3115 34.4681ZM55.8152 34.9687L55.4587 35.903L55.505 35.9206L55.5528 35.9336L55.8152 34.9687ZM58.2488 35.4L58.1571 36.3958L58.2028 36.4H58.2488V35.4ZM58.3212 35.4L58.706 34.477L58.5213 34.4H58.3212V35.4ZM58.7525 35.4692L58.7525 34.4692H58.7142L58.676 34.4722L58.7525 35.4692ZM59.6087 35.5416L59.3612 36.5105L59.483 36.5416H59.6087V35.5416ZM60.04 35.6833L60.2733 34.7109L60.1583 34.6833H60.04V35.6833ZM61.3308 37.1913L62.2687 37.5381L62.3453 37.331L62.3275 37.1109L61.3308 37.1913ZM69.8352 36.3951L64.3889 12.954L62.4408 13.4067L67.8871 36.8478L69.8352 36.3951ZM64.3699 12.8839C63.9232 11.4451 62.858 10.3218 61.5896 9.64682L60.6501 11.4124C61.535 11.8833 62.195 12.6238 62.4598 13.4768L64.3699 12.8839ZM61.5517 9.62767L39.691 -0.83992L38.8273 0.963948L60.688 11.4315L61.5517 9.62767ZM39.7063 -0.832413C38.9335 -1.21884 38.1092 -1.29688 37.4678 -1.29688V0.703125C37.9724 0.703125 38.4388 0.769907 38.8119 0.956441L39.7063 -0.832413ZM37.4678 -1.29688C36.9207 -1.29688 36.1489 -1.30212 35.4365 -1.12597L35.9166 0.815559C36.3501 0.708374 36.8691 0.703125 37.4678 0.703125V-1.29688ZM35.2423 -1.05603L13.3753 9.48397L14.2437 11.2856L36.1107 0.745609L35.2423 -1.05603ZM13.3937 9.47535C12.715 9.78566 12.1173 10.2487 11.6472 10.8282L13.2004 12.0882C13.4763 11.7481 13.8271 11.4763 14.2253 11.2942L13.3937 9.47535ZM11.6472 10.8282C11.177 11.4078 10.8473 12.0882 10.6837 12.8163L12.635 13.2548C12.731 12.8275 12.9245 12.4283 13.2004 12.0882L11.6472 10.8282ZM10.6843 12.8133L5.3073 36.3992L7.25727 36.8437L12.6343 13.2578L10.6843 12.8133ZM5.29737 36.4484C5.03594 37.9363 5.38827 39.4248 6.25455 40.6422L7.88409 39.4826C7.32111 38.6914 7.10048 37.7433 7.26719 36.7945L5.29737 36.4484ZM6.29169 40.6911L21.4185 59.4005L22.9738 58.1431L7.84695 39.4337L6.29169 40.6911ZM21.4891 59.4789C22.5112 60.5011 23.9561 61.1903 25.433 61.278L25.5516 59.2815C24.5918 59.2245 23.6 58.7615 22.9033 58.0647L21.4891 59.4789ZM25.4923 61.2798H49.5788V59.2798H25.4923V61.2798ZM49.4697 61.2738C51.1418 61.4573 52.6988 60.7061 53.6842 59.3635L52.0718 58.1802C51.4768 58.9909 50.5972 59.3856 49.6879 59.2858L49.4697 61.2738ZM53.6556 59.4005L68.7825 40.6911L67.2272 39.4337L52.1004 58.1431L53.6556 59.4005ZM68.8196 40.6422C69.6861 39.4245 70.0267 37.9547 69.8542 36.5034L67.8681 36.7395C67.9853 37.7249 67.7529 38.6917 67.1901 39.4826L68.8196 40.6422ZM59.9047 37.1987C59.8856 37.1987 59.8733 37.1987 59.8624 37.1986C59.8521 37.1985 59.8477 37.1983 59.8467 37.1983C59.8455 37.1983 59.8639 37.1989 59.892 37.2036C59.9221 37.2087 59.95 37.2162 59.9727 37.2242C59.9929 37.2313 60.0013 37.236 59.993 37.2318L59.0986 39.0207C59.2326 39.0877 59.3818 39.1457 59.5585 39.1756C59.7105 39.2013 59.8526 39.1987 59.9047 39.1987V37.1987ZM60.2684 37.435C60.2589 37.425 60.2239 37.3879 60.1882 37.3546C60.1502 37.319 60.062 37.2393 59.9313 37.1725C59.7837 37.0971 59.6467 37.07 59.547 37.06C59.5038 37.0557 59.4679 37.0546 59.4482 37.0542C59.4291 37.0538 59.4103 37.0539 59.4041 37.0539V39.0539C59.441 39.0539 59.397 39.055 59.3471 39.05C59.27 39.0422 59.1508 39.0197 59.021 38.9533C58.908 38.8956 58.8373 38.8295 58.821 38.8142C58.8071 38.8012 58.7981 38.7913 58.8231 38.8175L60.2684 37.435ZM59.4041 37.0539C59.4501 37.0539 59.4944 37.0597 59.534 37.0688C59.5711 37.0774 59.5957 37.0872 59.5934 37.0863C59.5851 37.0831 59.5916 37.0855 59.5679 37.0762C59.5534 37.0705 59.524 37.059 59.4889 37.0472C59.4199 37.0241 59.2857 36.9846 59.1145 36.9846V38.9846C58.9811 38.9846 58.8838 38.9538 58.8536 38.9436C58.8379 38.9384 58.8284 38.9345 58.8344 38.9368C58.8377 38.9381 58.8395 38.9389 58.8474 38.942C58.8537 38.9445 58.8629 38.9481 58.8733 38.9522C58.9158 38.9686 58.9896 38.9957 59.0828 39.0173C59.1785 39.0394 59.2857 39.0539 59.4041 39.0539V37.0539ZM59.3595 37.0151C59.216 36.9788 59.1864 36.9394 58.7786 36.7333L57.8763 38.5182C58.0414 38.6016 58.44 38.8456 58.8694 38.9541L59.3595 37.0151ZM58.4174 36.6298C58.4163 36.6297 58.4152 36.6293 58.4143 36.6287L57.3781 38.3394C57.6393 38.4976 57.9333 38.5942 58.2375 38.6217L58.4174 36.6298ZM57.8962 36.484H57.8269V38.484H57.8962V36.484ZM58.1896 36.5521C57.3869 36.2398 56.5559 36.0061 55.7081 35.8543L55.3557 37.823C56.0761 37.952 56.7822 38.1506 57.4642 38.416L58.1896 36.5521ZM55.5319 35.8387H55.4626V37.8387H55.5319V35.8387ZM55.488 35.839C55.0181 35.8271 54.5619 35.9975 54.215 36.3146L55.5643 37.7909C55.5297 37.8225 55.4842 37.8395 55.4373 37.8384L55.488 35.839ZM54.8897 37.0528C53.8897 37.0527 53.8897 37.0522 53.8897 37.0517C53.8897 37.0516 53.8897 37.0511 53.8897 37.0508C53.8897 37.0501 53.8897 37.0495 53.8897 37.0488C53.8897 37.0475 53.8897 37.0462 53.8897 37.0448C53.8897 37.0422 53.8898 37.0395 53.8898 37.0368C53.8899 37.0314 53.89 37.0259 53.8902 37.0202C53.8906 37.009 53.8912 36.9971 53.8921 36.9846C53.8938 36.96 53.8969 36.9314 53.9022 36.8996C53.9119 36.8409 53.9334 36.7474 53.9862 36.6417C54.041 36.5321 54.1389 36.3921 54.3045 36.2818C54.4763 36.1672 54.6604 36.1252 54.8173 36.1252V38.1252C55.0103 38.1252 55.2216 38.074 55.4138 37.9459C55.5997 37.822 55.7112 37.6639 55.775 37.5362C55.8369 37.4124 55.8629 37.3008 55.8749 37.2285C55.8814 37.19 55.885 37.1557 55.887 37.1271C55.888 37.1127 55.8887 37.0992 55.8891 37.0869C55.8893 37.0807 55.8895 37.0748 55.8895 37.0691C55.8896 37.0663 55.8896 37.0635 55.8896 37.0608C55.8897 37.0594 55.8897 37.0581 55.8897 37.0567C55.8897 37.0561 55.8897 37.0554 55.8897 37.0547C55.8897 37.0544 55.8897 37.0539 55.8897 37.0538C55.8897 37.0533 55.8897 37.0528 54.8897 37.0528ZM54.9473 36.1336L54.3712 36.0581L54.1111 38.0411L54.6872 38.1167L54.9473 36.1336ZM53.2895 36.7424C52.0469 40.592 49.4507 43.8605 45.9822 45.942L47.0113 47.6569C50.8948 45.3264 53.8016 41.6669 55.1928 37.3568L53.2895 36.7424ZM45.56 47.1494L45.774 47.7224L47.6475 47.0224L47.4335 46.4494L45.56 47.1494ZM46.7108 47.3724C46.7107 46.3724 46.7102 46.3724 46.7098 46.3724C46.7096 46.3724 46.7091 46.3724 46.7088 46.3724C46.7081 46.3724 46.7074 46.3724 46.7068 46.3724C46.7055 46.3724 46.7041 46.3724 46.7027 46.3724C46.7 46.3724 46.6972 46.3725 46.6944 46.3725C46.6887 46.3726 46.6828 46.3727 46.6766 46.373C46.6643 46.3734 46.6509 46.374 46.6365 46.3751C46.608 46.3771 46.5739 46.3807 46.5355 46.3871C46.4635 46.3991 46.3523 46.4249 46.2289 46.4866C46.1016 46.5503 45.9439 46.6614 45.8203 46.8469C45.6925 47.0386 45.6415 47.2493 45.6415 47.4416H47.6415C47.6415 47.5993 47.5992 47.784 47.4844 47.9563C47.3738 48.1223 47.2334 48.2205 47.1234 48.2754C47.0174 48.3285 46.9234 48.35 46.8644 48.3598C46.8326 48.3652 46.8038 48.3682 46.7791 48.37C46.7666 48.3709 46.7547 48.3715 46.7434 48.3718C46.7377 48.372 46.7322 48.3722 46.7268 48.3723C46.7241 48.3723 46.7214 48.3723 46.7187 48.3723C46.7174 48.3724 46.7161 48.3724 46.7148 48.3724C46.7141 48.3724 46.7135 48.3724 46.7128 48.3724C46.7125 48.3724 46.712 48.3724 46.7118 48.3724C46.7113 48.3724 46.7108 48.3724 46.7108 47.3724ZM45.7864 46.9233C45.6438 47.1585 45.556 47.4228 45.5296 47.6966L47.5204 47.8887C47.5179 47.9139 47.5098 47.9383 47.4967 47.96L45.7864 46.9233ZM45.5296 47.6966C45.5032 47.9704 45.5388 48.2466 45.6338 48.5047L47.5108 47.8141C47.5195 47.8379 47.5228 47.8634 47.5204 47.8887L45.5296 47.6966ZM45.6435 48.5301C45.9508 49.3 46.3511 50.1062 46.928 50.8501L48.5084 49.6243C48.0842 49.0774 47.7667 48.4544 47.501 47.7887L45.6435 48.5301ZM46.7182 50.2372V50.3789H48.7182V50.2372H46.7182ZM47.0649 51.136C47.0881 51.1559 47.1073 51.18 47.1216 51.207L48.8877 50.2685C48.7572 50.0228 48.5821 49.8035 48.3715 49.6217L47.0649 51.136ZM47.2947 51.442C47.4205 51.5688 47.5235 51.7164 47.599 51.8783L49.4115 51.0327C49.2385 50.662 49.0027 50.3239 48.7146 50.0335L47.2947 51.442ZM47.814 52.1782C47.8565 52.2188 47.8359 52.2024 47.808 52.1656C47.7907 52.1428 47.7549 52.0924 47.7219 52.0171C47.6879 51.9397 47.6501 51.8202 47.6501 51.6696H49.6501C49.6501 51.3067 49.475 51.054 49.4016 50.9572C49.3194 50.8487 49.2264 50.7615 49.1965 50.7329L47.814 52.1782ZM48.6501 51.6696C48.65 52.6696 48.6495 52.6696 48.649 52.6696C48.6489 52.6696 48.6484 52.6696 48.648 52.6696C48.6474 52.6696 48.6467 52.6696 48.6461 52.6696C48.6448 52.6696 48.6434 52.6696 48.6421 52.6696C48.6395 52.6695 48.6368 52.6695 48.6341 52.6695C48.6287 52.6694 48.6231 52.6692 48.6175 52.6691C48.6062 52.6687 48.5942 52.6681 48.5817 52.6672C48.557 52.6654 48.5283 52.6624 48.4964 52.6571C48.4374 52.6472 48.3435 52.6257 48.2374 52.5727C48.1274 52.5177 47.9871 52.4195 47.8764 52.2535C47.7616 52.0813 47.7193 51.8965 47.7193 51.7389H49.7193C49.7193 51.5466 49.6684 51.3359 49.5406 51.1441C49.4169 50.9587 49.2592 50.8475 49.1319 50.7839C49.0086 50.7222 48.8973 50.6963 48.8253 50.6843C48.787 50.6779 48.7528 50.6743 48.7243 50.6723C48.7099 50.6713 48.6965 50.6706 48.6842 50.6702C48.678 50.67 48.6721 50.6698 48.6664 50.6697C48.6636 50.6697 48.6608 50.6697 48.6581 50.6696C48.6567 50.6696 48.6554 50.6696 48.6541 50.6696C48.6534 50.6696 48.6527 50.6696 48.6521 50.6696C48.6517 50.6696 48.6513 50.6696 48.6511 50.6696C48.6506 50.6696 48.6501 50.6696 48.6501 51.6696ZM47.7856 52.0968C47.8454 52.2528 47.8568 52.4232 47.8185 52.5858L49.765 53.0452C49.8956 52.4918 49.8566 51.9119 49.6531 51.3809L47.7856 52.0968ZM47.8222 52.5706C47.8151 52.5986 47.8019 52.6247 47.7836 52.647L49.3302 53.9152C49.535 53.6654 49.6822 53.3736 49.7613 53.0604L47.8222 52.5706ZM47.7836 52.647C47.7653 52.6694 47.7423 52.6874 47.7163 52.6998L48.5764 54.5054C48.868 54.3664 49.1254 54.1649 49.3302 53.9152L47.7836 52.647ZM47.8385 52.6511C47.7703 52.6732 47.707 52.6957 47.6653 52.7104C47.6182 52.7269 47.5939 52.7351 47.5748 52.7407C47.5495 52.7483 47.5574 52.7442 47.5702 52.7442V54.7442C47.9952 54.7442 48.381 54.5777 48.4542 54.554L47.8385 52.6511ZM47.6082 52.745C47.5012 52.7409 47.3972 52.7087 47.3066 52.6516L46.24 54.3434C46.6281 54.5881 47.0738 54.7261 47.5323 54.7435L47.6082 52.745ZM47.3066 52.6516C47.2161 52.5945 47.1422 52.5145 47.0924 52.4198L45.3218 53.3498C45.5351 53.756 45.8518 54.0987 46.24 54.3434L47.3066 52.6516ZM46.2071 51.8848C46.3648 51.8848 46.5495 51.9271 46.7217 52.0419C46.8877 52.1526 46.9859 52.2929 47.0409 52.4029C47.0939 52.509 47.1155 52.6029 47.1253 52.6619C47.1306 52.6938 47.1337 52.7225 47.1354 52.7472C47.1363 52.7598 47.1369 52.7717 47.1373 52.783C47.1375 52.7886 47.1376 52.7942 47.1377 52.7996C47.1377 52.8023 47.1378 52.805 47.1378 52.8076C47.1378 52.809 47.1378 52.8103 47.1378 52.8116C47.1378 52.8122 47.1378 52.8129 47.1378 52.8136C47.1378 52.8139 47.1378 52.8144 47.1378 52.8145C47.1378 52.815 47.1378 52.8155 46.1378 52.8155C45.1378 52.8155 45.1378 52.816 45.1378 52.8165C45.1378 52.8167 45.1378 52.8172 45.1378 52.8175C45.1378 52.8182 45.1378 52.8188 45.1378 52.8195C45.1378 52.8208 45.1378 52.8222 45.1379 52.8235C45.1379 52.8262 45.1379 52.829 45.138 52.8319C45.1381 52.8375 45.1382 52.8435 45.1384 52.8496C45.1388 52.8619 45.1395 52.8754 45.1405 52.8898C45.1425 52.9182 45.1461 52.9524 45.1525 52.9908C45.1645 53.0628 45.1904 53.174 45.2521 53.2974C45.3157 53.4247 45.4269 53.5824 45.6124 53.706C45.8041 53.8338 46.0148 53.8848 46.2071 53.8848V51.8848ZM46.8605 52.1243C46.9414 52.2089 46.9832 52.3024 46.9582 52.2534C46.9483 52.234 46.9178 52.1734 46.8734 52.1059C46.8252 52.0326 46.764 51.9552 46.6849 51.8795L45.3011 53.3234C45.2598 53.2839 45.227 53.2423 45.2022 53.2046C45.1812 53.1727 45.1691 53.1475 45.1773 53.1636C45.1885 53.1855 45.265 53.3498 45.4152 53.5068L46.8605 52.1243ZM46.8269 52.0496C46.7979 52.0057 46.7603 51.9027 46.676 51.5694L44.737 52.0595C44.7976 52.2991 44.9048 52.769 45.1591 53.1533L46.8269 52.0496ZM46.6545 51.4961L46.5097 51.0648L44.6137 51.7014L44.7585 52.1327L46.6545 51.4961ZM46.5617 51.3831V51.3139H44.5617V51.3831H46.5617ZM46.5181 51.0217C46.2632 50.1873 45.925 49.3807 45.5087 48.6141L43.7511 49.5685C44.1034 50.2173 44.3896 50.9 44.6054 51.6061L46.5181 51.0217ZM45.4569 48.5291C45.1946 48.1432 44.8118 47.855 44.3683 47.7097L43.7455 49.6102C43.7688 49.6179 43.789 49.6331 43.8028 49.6534L45.4569 48.5291ZM45.0569 48.66C45.0569 48.654 45.0569 48.6349 45.0566 48.6157C45.0562 48.5974 45.0551 48.5568 45.0497 48.5077C45.0417 48.4365 45.0073 48.1419 44.755 47.8895C44.5026 47.6372 44.208 47.6027 44.1368 47.5948C44.0877 47.5894 44.0471 47.5883 44.0288 47.5879C44.0096 47.5875 43.9905 47.5876 43.9845 47.5876V49.5876C44.027 49.5876 43.9741 49.589 43.9159 49.5826C43.865 49.5769 43.584 49.547 43.3407 49.3037C43.0974 49.0604 43.0675 48.7794 43.0619 48.7285C43.0554 48.6703 43.0569 48.6174 43.0569 48.66H45.0569ZM44.8524 48.0908L44.5659 47.5903L42.8301 48.5837L43.1166 49.0843L44.8524 48.0908ZM43.4122 47.1287C42.6164 47.3661 41.9384 47.6171 41.2221 47.7489L41.584 49.7159C42.4417 49.5581 43.3441 49.2361 43.9838 49.0453L43.4122 47.1287ZM41.1351 47.7689C39.9462 48.0995 38.7475 48.2329 37.5339 48.2329V50.2329C38.8955 50.2329 40.2783 50.083 41.6709 49.6958L41.1351 47.7689ZM37.5269 48.233C35.5206 48.247 33.5298 47.8812 31.6595 47.1548L30.9354 49.0192C33.041 49.8369 35.2823 50.2487 37.5409 50.2329L37.5269 48.233ZM30.403 47.6398L30.1166 48.2128L31.9054 49.1072L32.1919 48.5342L30.403 47.6398ZM30.011 48.66C30.011 48.7025 30.0095 48.6496 30.016 48.5914C30.0216 48.5406 30.0515 48.2596 30.2948 48.0163C30.5381 47.7729 30.8191 47.743 30.87 47.7374C30.9282 47.7309 30.9811 47.7324 30.9386 47.7324V49.7324C30.9446 49.7324 30.9636 49.7324 30.9829 49.732C31.0012 49.7317 31.0418 49.7306 31.0909 49.7251C31.1621 49.7172 31.4567 49.6828 31.7091 49.4304C31.9614 49.1781 31.9958 48.8835 32.0037 48.8123C32.0092 48.7631 32.0103 48.7226 32.0106 48.7043C32.011 48.685 32.011 48.666 32.011 48.66H30.011ZM30.6299 47.7812C30.184 47.9259 29.7993 48.2155 29.5369 48.6039L31.1943 49.7234C31.207 49.7046 31.2256 49.6906 31.2472 49.6836L30.6299 47.7812ZM29.4712 48.7165C29.12 49.4189 28.7131 50.2221 28.4686 51.1248L30.399 51.6478C30.5826 50.9701 30.8935 50.344 31.26 49.6109L29.4712 48.7165ZM28.4837 51.0742L28.342 51.5055L30.2422 52.1296L30.3838 51.6983L28.4837 51.0742ZM28.3226 51.5725C28.3084 51.6287 28.2862 51.685 28.2294 51.8179C28.1792 51.9353 28.0943 52.1292 28.0361 52.3596L29.9751 52.8496C29.9893 52.7935 30.0115 52.7372 30.0683 52.6043C30.1185 52.4869 30.2034 52.2929 30.2616 52.0626L28.3226 51.5725ZM28.283 51.9134C28.276 51.9206 28.1829 52.0136 28.1109 52.1088C28.0423 52.1997 27.8639 52.4528 27.8639 52.8187H29.8639C29.8639 52.9702 29.8257 53.0907 29.791 53.1691C29.7576 53.2446 29.7218 53.2944 29.7067 53.3145C29.6908 53.3354 29.6807 53.3457 29.6872 53.3387C29.6971 53.328 29.7002 53.3251 29.7283 53.2958L28.283 51.9134ZM28.8639 51.8187C28.6797 51.8187 28.4746 51.8651 28.2844 51.9863C28.0984 52.105 27.9826 52.2594 27.9144 52.39C27.8486 52.5159 27.8206 52.6303 27.8075 52.7054C27.8006 52.7453 27.7967 52.7808 27.7945 52.8105C27.7933 52.8255 27.7926 52.8395 27.7922 52.8523C27.7919 52.8587 27.7918 52.8649 27.7917 52.8708C27.7916 52.8738 27.7916 52.8767 27.7916 52.8796C27.7916 52.881 27.7915 52.8824 27.7915 52.8838C27.7915 52.8845 27.7915 52.8852 27.7915 52.8859C27.7915 52.8862 27.7915 52.8867 27.7915 52.8869C27.7915 52.8874 27.7915 52.8879 28.7915 52.8879C29.7915 52.888 29.7915 52.8885 29.7915 52.889C29.7915 52.8892 29.7915 52.8897 29.7915 52.89C29.7915 52.8907 29.7915 52.8914 29.7915 52.8921C29.7915 52.8934 29.7915 52.8948 29.7915 52.8962C29.7915 52.899 29.7914 52.9018 29.7914 52.9046C29.7913 52.9103 29.7912 52.9161 29.7909 52.922C29.7905 52.9338 29.7899 52.9463 29.7889 52.9595C29.787 52.9853 29.7836 53.0155 29.7778 53.0488C29.767 53.1109 29.7435 53.2081 29.6868 53.3166C29.6276 53.4299 29.5254 53.567 29.3598 53.6726C29.1899 53.7809 29.012 53.8187 28.8639 53.8187V51.8187ZM27.9047 52.4259C27.8556 52.52 27.7825 52.5994 27.6928 52.656L28.7595 54.3478C29.1487 54.1024 29.4658 53.758 29.6784 53.3499L27.9047 52.4259ZM27.6928 52.656C27.6031 52.7126 27.4999 52.7443 27.3939 52.748L27.4629 54.7468C27.9228 54.7309 28.3702 54.5932 28.7595 54.3478L27.6928 52.656ZM27.5126 52.7509C27.4658 52.747 27.4202 52.7341 27.3784 52.7129L26.4773 54.4985C26.7479 54.635 27.0422 54.7183 27.3442 54.7438L27.5126 52.7509ZM27.4335 52.743C27.3291 52.6818 27.2519 52.5832 27.2176 52.4671L25.2998 53.0347C25.4783 53.6378 25.8795 54.1504 26.4221 54.4684L27.4335 52.743ZM27.2176 52.4671C27.1832 52.3511 27.1943 52.2263 27.2486 52.1182L25.4611 51.221C25.179 51.7831 25.1213 52.4316 25.2998 53.0347L27.2176 52.4671ZM26.3549 52.6696C26.5479 52.6696 26.7592 52.6185 26.9514 52.4903C27.1373 52.3664 27.2488 52.2083 27.3126 52.0806C27.3745 51.9569 27.4005 51.8452 27.4125 51.7729C27.419 51.7344 27.4226 51.7001 27.4246 51.6715C27.4256 51.6571 27.4263 51.6436 27.4267 51.6313C27.4269 51.6251 27.4271 51.6192 27.4271 51.6135C27.4272 51.6107 27.4272 51.6079 27.4272 51.6052C27.4273 51.6038 27.4273 51.6025 27.4273 51.6011C27.4273 51.6005 27.4273 51.5998 27.4273 51.5992C27.4273 51.5988 27.4273 51.5983 27.4273 51.5982C27.4273 51.5977 27.4273 51.5972 26.4273 51.5972C25.4273 51.5972 25.4273 51.5967 25.4273 51.5962C25.4273 51.5961 25.4273 51.5956 25.4273 51.5953C25.4273 51.5946 25.4273 51.5939 25.4273 51.5933C25.4273 51.592 25.4273 51.5906 25.4273 51.5893C25.4273 51.5867 25.4274 51.584 25.4274 51.5813C25.4275 51.5759 25.4276 51.5704 25.4278 51.5647C25.4282 51.5534 25.4288 51.5415 25.4297 51.5291C25.4314 51.5045 25.4345 51.4758 25.4398 51.4441C25.4495 51.3854 25.471 51.2918 25.5238 51.1862C25.5786 51.0766 25.6765 50.9366 25.842 50.8262C26.0139 50.7117 26.198 50.6696 26.3549 50.6696V52.6696ZM27.1499 52.2884C27.3014 52.1301 27.3768 51.9665 27.3914 51.9374C27.4011 51.918 27.3899 51.9418 27.3711 51.9715C27.3483 52.0076 27.3169 52.0494 27.2761 52.0902L25.8618 50.676C25.7027 50.8352 25.625 50.998 25.6025 51.043C25.5817 51.0847 25.6225 50.9919 25.7046 50.906L27.1499 52.2884ZM27.37 51.9817C27.5033 51.8034 27.6153 51.6242 27.6876 51.5117C27.7275 51.4497 27.7543 51.4091 27.776 51.3787C27.7987 51.3467 27.8003 51.3483 27.7843 51.3646L26.3547 49.966C26.1994 50.1248 26.0734 50.3242 26.0051 50.4305C25.9161 50.569 25.8487 50.6764 25.7679 50.7845L27.37 51.9817ZM27.7843 51.3646C27.9059 51.2404 28.0961 51.0623 28.2504 50.7537L26.4616 49.8592C26.4594 49.8635 26.4608 49.8602 26.4655 49.8531C26.4703 49.8459 26.4737 49.8419 26.4724 49.8435C26.4696 49.8467 26.4616 49.8559 26.4411 49.8775C26.4185 49.9011 26.395 49.9249 26.3547 49.966L27.7843 51.3646ZM28.356 50.3065V50.234H26.356V50.3065H28.356ZM28.1784 50.803C28.6679 50.0953 29.0846 49.3399 29.4219 48.5483L27.5819 47.7643C27.2976 48.4317 26.9463 49.0685 26.5336 49.6651L28.1784 50.803ZM29.4443 48.4909C29.5355 48.234 29.5686 47.9601 29.5412 47.6889L27.5513 47.8896C27.549 47.8666 27.5518 47.8434 27.5596 47.8216L29.4443 48.4909ZM29.5412 47.6889C29.5139 47.4177 29.4267 47.1559 29.286 46.9224L27.573 47.9546C27.561 47.9348 27.5537 47.9126 27.5513 47.8896L29.5412 47.6889ZM28.4295 47.4385C28.4295 46.4385 28.43 46.4385 28.4304 46.4385C28.4306 46.4385 28.4311 46.4385 28.4314 46.4385C28.4321 46.4385 28.4327 46.4385 28.4334 46.4385C28.4347 46.4385 28.436 46.4385 28.4374 46.4385C28.44 46.4385 28.4427 46.4386 28.4454 46.4386C28.4508 46.4387 28.4563 46.4388 28.462 46.439C28.4733 46.4394 28.4852 46.44 28.4977 46.4409C28.5224 46.4427 28.5512 46.4457 28.5831 46.451C28.6421 46.4608 28.736 46.4824 28.8421 46.5354C28.9521 46.5904 29.0925 46.6886 29.2031 46.8546C29.318 47.0268 29.3602 47.2116 29.3602 47.3692H27.3602C27.3602 47.5615 27.4112 47.7722 27.539 47.964C27.6627 48.1494 27.8204 48.2606 27.9477 48.3243C28.071 48.386 28.1823 48.4118 28.2543 48.4238C28.2927 48.4302 28.3268 48.4338 28.3553 48.4358C28.3697 48.4368 28.3831 48.4375 28.3954 48.4379C28.4016 48.4381 28.4075 48.4383 28.4132 48.4384C28.416 48.4384 28.4188 48.4384 28.4215 48.4385C28.4229 48.4385 28.4242 48.4385 28.4256 48.4385C28.4262 48.4385 28.4269 48.4385 28.4276 48.4385C28.4279 48.4385 28.4284 48.4385 28.4285 48.4385C28.429 48.4385 28.4295 48.4385 28.4295 47.4385ZM29.1747 47.9495L29.5336 47.4458L27.9047 46.2853L27.5458 46.789L29.1747 47.9495ZM29.1849 45.9806C28.5578 45.6505 27.9666 45.2564 27.4207 44.8045L26.1453 46.3451C26.7976 46.8851 27.504 47.356 28.2533 47.7504L29.1849 45.9806ZM27.3953 44.7841C24.7939 42.7698 22.8633 40.015 21.8576 36.8824L19.9533 37.4938C21.0825 41.011 23.2501 44.1038 26.1708 46.3655L27.3953 44.7841ZM20.7987 36.1938L20.1533 36.2631L20.3668 38.2517L21.0121 38.1824L20.7987 36.1938ZM20.2601 37.2574C21.2601 37.2574 21.2601 37.2569 21.2601 37.2563C21.2601 37.2562 21.2601 37.2557 21.2601 37.2553C21.2601 37.2546 21.2601 37.2539 21.26 37.2532C21.26 37.2519 21.26 37.2504 21.26 37.249C21.26 37.2462 21.26 37.2433 21.2599 37.2403C21.2598 37.2344 21.2597 37.2282 21.2594 37.2218C21.259 37.2089 21.2583 37.1949 21.2571 37.1799C21.2549 37.1503 21.251 37.1147 21.2441 37.0749C21.231 36.9998 21.203 36.8853 21.1372 36.7595C21.069 36.6289 20.9532 36.4744 20.7672 36.3558C20.577 36.2345 20.3719 36.1881 20.1876 36.1881V38.1881C20.0396 38.1881 19.8617 38.1504 19.6918 38.0421C19.5261 37.9364 19.424 37.7993 19.3648 37.686C19.3081 37.5775 19.2846 37.4804 19.2738 37.4182C19.268 37.3849 19.2646 37.3548 19.2627 37.3289C19.2617 37.3158 19.2611 37.3033 19.2606 37.2914C19.2604 37.2855 19.2603 37.2797 19.2602 37.2741C19.2601 37.2712 19.2601 37.2684 19.2601 37.2656C19.2601 37.2643 19.2601 37.2629 19.2601 37.2615C19.2601 37.2608 19.2601 37.2601 19.2601 37.2594C19.2601 37.2591 19.2601 37.2586 19.2601 37.2584C19.2601 37.2579 19.2601 37.2574 20.2601 37.2574ZM20.8669 36.4542C20.5186 36.1318 20.0574 35.9595 19.583 35.9746L19.6463 37.9735C19.5954 37.9752 19.5458 37.9566 19.5084 37.922L20.8669 36.4542ZM19.6147 35.974H19.5454V37.974H19.6147V35.974ZM19.3769 35.9884C18.5059 36.1373 17.6514 36.3706 16.8255 36.6848L17.5368 38.5541C18.2416 38.2859 18.9707 38.0869 19.714 37.9597L19.3769 35.9884ZM17.1812 36.6194H17.1056V38.6194H17.1812V36.6194ZM17.1056 36.6194C16.6808 36.6194 16.3105 36.8281 16.2271 36.8698L17.1215 38.6587C17.1401 38.6494 17.1554 38.6417 17.1703 38.6344C17.1849 38.6272 17.1971 38.6213 17.2078 38.6163C17.2299 38.6059 17.2406 38.6016 17.2439 38.6004C17.2473 38.5991 17.2366 38.6034 17.215 38.6082C17.193 38.6131 17.1553 38.6194 17.1056 38.6194V36.6194ZM16.3665 36.8128C16.2158 36.8615 16.0346 36.9384 15.9352 36.9784C15.8075 37.0297 15.7164 37.0624 15.6422 37.0812L16.1323 39.0202C16.3446 38.9666 16.5401 38.8907 16.6807 38.8342C16.8497 38.7663 16.9188 38.7362 16.9821 38.7157L16.3665 36.8128ZM15.8873 37.0507C15.9775 37.0507 16.0464 37.0669 15.9902 37.0567C15.9788 37.0547 15.9126 37.0421 15.8543 37.0341C15.8157 37.0288 15.6618 37.0062 15.4861 37.0328C15.3997 37.0458 15.196 37.0859 14.9956 37.2421C14.7456 37.4369 14.6008 37.7348 14.6008 38.0507H16.6008C16.6008 38.1803 16.5745 38.3291 16.5021 38.4776C16.4296 38.6262 16.3282 38.7391 16.225 38.8196C16.0367 38.9663 15.8505 39.0004 15.7855 39.0102C15.7056 39.0223 15.6457 39.0201 15.6247 39.0191C15.5992 39.0179 15.583 39.0156 15.5818 39.0154C15.5796 39.0151 15.5819 39.0154 15.5925 39.0173C15.6091 39.0202 15.6098 39.0204 15.6364 39.0252C15.6404 39.0259 15.7624 39.0507 15.8873 39.0507V37.0507ZM14.6008 38.0507C14.6008 38.0932 14.5993 38.0404 14.6058 37.9821C14.6114 37.9313 14.6413 37.6503 14.8846 37.407C15.1279 37.1637 15.4089 37.1338 15.4598 37.1281C15.518 37.1216 15.5709 37.1231 15.5284 37.1231V39.1231C15.5344 39.1231 15.5535 39.1232 15.5727 39.1228C15.591 39.1224 15.6316 39.1213 15.6807 39.1159C15.7519 39.108 16.0465 39.0735 16.2989 38.8212C16.5512 38.5688 16.5856 38.2742 16.5935 38.203C16.599 38.1539 16.6001 38.1133 16.6004 38.095C16.6008 38.0758 16.6008 38.0567 16.6008 38.0507H14.6008ZM15.0733 37.2327C15.0682 37.2353 15.079 37.2294 15.1014 37.2215C15.126 37.2129 15.1547 37.2053 15.1846 37.2003C15.2123 37.1956 15.2302 37.1951 15.2283 37.1951C15.227 37.1952 15.2224 37.1953 15.2119 37.1954C15.201 37.1955 15.1886 37.1955 15.1695 37.1955V39.1955C15.2216 39.1955 15.3639 39.1982 15.5157 39.1727C15.6936 39.1428 15.8452 39.0842 15.9835 39.0136L15.0733 37.2327ZM15.0643 37.2011C14.984 37.2096 14.9033 37.1888 14.8371 37.1425L13.6907 38.7813C14.1521 39.1041 14.7147 39.2492 15.2747 39.19L15.0643 37.2011ZM14.8371 37.1425C14.771 37.0962 14.7237 37.0275 14.7042 36.9492L12.7637 37.4334C12.9 37.9798 13.2293 38.4585 13.6907 38.7813L14.8371 37.1425ZM14.7155 37.0003C14.7053 36.9477 14.7057 36.8935 14.7168 36.8411L12.7596 36.4291C12.6935 36.7432 12.6911 37.0673 12.7524 37.3823L14.7155 37.0003ZM14.7168 36.8411C14.7278 36.7887 14.7492 36.739 14.7798 36.695L13.1372 35.5539C12.9541 35.8175 12.8257 36.1151 12.7596 36.4291L14.7168 36.8411ZM14.7798 36.695C14.8104 36.6509 14.8495 36.6135 14.8948 36.5849L13.8256 34.8946C13.5544 35.0662 13.3203 35.2904 13.1372 35.5539L14.7798 36.695ZM14.8948 36.5849C14.94 36.5562 14.9906 36.5369 15.0435 36.5282L14.7163 34.5551C14.3997 34.6076 14.0968 34.7231 13.8256 34.8946L14.8948 36.5849ZM15.587 36.2487C15.6127 36.2231 15.6047 36.2315 15.5918 36.2431C15.5769 36.2565 15.5082 36.3184 15.3995 36.3727C15.2737 36.4356 15.1582 36.4577 15.0812 36.4654C15.0317 36.4704 14.9881 36.4692 15.0247 36.4692V34.4692C15.0185 34.4692 14.9997 34.4692 14.9806 34.4696C14.9609 34.47 14.9252 34.471 14.8822 34.4753C14.7826 34.4853 14.6489 34.5119 14.505 34.5839C14.3783 34.6473 14.2915 34.7227 14.2539 34.7565C14.2184 34.7884 14.1833 34.824 14.1728 34.8345L15.587 36.2487ZM15.0247 36.4692C15.1439 36.4692 15.2514 36.4544 15.3461 36.4323C15.4384 36.4108 15.5116 36.3839 15.554 36.3675C15.5644 36.3635 15.5736 36.3599 15.5801 36.3573C15.5883 36.354 15.5898 36.3534 15.5936 36.3519C15.6002 36.3493 15.5912 36.353 15.5764 36.358C15.5499 36.367 15.4497 36.4 15.3112 36.4V34.4C15.1364 34.4 15 34.4416 14.9352 34.4636C14.9012 34.4751 14.8725 34.4864 14.8585 34.4919C14.8366 34.5005 14.8409 34.4989 14.8338 34.5017C14.8313 34.5027 14.8553 34.4931 14.8919 34.4845C14.931 34.4754 14.9763 34.4692 15.0247 34.4692V36.4692ZM15.3112 36.4C15.528 36.4 15.7339 36.3726 15.8663 36.3559C16.0204 36.3364 16.1009 36.3276 16.1706 36.3276V34.3276C15.9538 34.3276 15.7479 34.3549 15.6155 34.3717C15.4614 34.3911 15.3808 34.4 15.3112 34.4V36.4ZM16.6098 36.226C16.5841 36.2385 16.5601 36.247 16.5402 36.2524C16.5208 36.2577 16.5078 36.2594 16.5044 36.2598C16.5017 36.2601 16.5063 36.2595 16.5233 36.2589C16.5316 36.2587 16.5418 36.2585 16.5551 36.2584C16.5688 36.2583 16.5832 36.2583 16.6019 36.2583V34.2583C16.4863 34.2583 16.1112 34.2435 15.7314 34.4292L16.6098 36.226ZM16.6833 36.255C17.5695 36.1826 18.447 36.0273 19.3042 35.7911L18.7729 33.8629C18.0362 34.066 17.2821 34.1994 16.5205 34.2616L16.6833 36.255ZM19.5989 35.6553C19.6862 35.5962 19.8588 35.4832 20.0105 35.3474C20.1706 35.2041 20.379 34.9754 20.491 34.6395L18.5936 34.0071C18.6331 33.8884 18.6968 33.8391 18.6766 33.8572C18.668 33.8649 18.6499 33.8798 18.6143 33.9054C18.5769 33.9322 18.5376 33.9586 18.4783 33.9987L19.5989 35.6553ZM19.5423 34.3233C19.5422 35.3233 19.5427 35.3233 19.5432 35.3233C19.5434 35.3233 19.5439 35.3233 19.5442 35.3233C19.5449 35.3233 19.5455 35.3233 19.5462 35.3233C19.5475 35.3233 19.5489 35.3233 19.5502 35.3233C19.553 35.3233 19.5557 35.3232 19.5586 35.3232C19.5642 35.3231 19.5702 35.3229 19.5763 35.3227C19.5886 35.3223 19.6021 35.3217 19.6165 35.3206C19.645 35.3186 19.6791 35.315 19.7175 35.3086C19.7895 35.2966 19.9007 35.2708 20.0241 35.2091C20.1514 35.1454 20.3091 35.0343 20.4328 34.8488C20.5606 34.6571 20.6115 34.4464 20.6115 34.254H18.6115C18.6115 34.0964 18.6538 33.9116 18.7687 33.7394C18.8793 33.5734 19.0197 33.4752 19.1297 33.4202C19.2358 33.3672 19.3297 33.3457 19.3887 33.3358C19.4206 33.3305 19.4493 33.3275 19.474 33.3257C19.4866 33.3248 19.4985 33.3242 19.5098 33.3238C19.5154 33.3237 19.521 33.3235 19.5264 33.3234C19.5291 33.3234 19.5318 33.3234 19.5344 33.3233C19.5357 33.3233 19.5371 33.3233 19.5384 33.3233C19.539 33.3233 19.5397 33.3233 19.5404 33.3233C19.5407 33.3233 19.5412 33.3233 19.5413 33.3233C19.5418 33.3233 19.5423 33.3233 19.5423 34.3233ZM19.8566 35.2236L20.4295 35.0787L19.9395 33.1397L19.3665 33.2845L19.8566 35.2236ZM21.1723 33.9532C20.5668 30.1197 21.4388 26.2081 23.5387 22.8887L21.8485 21.8194C19.5032 25.5267 18.5114 29.9262 19.1967 34.2652L21.1723 33.9532ZM23.592 22.7933C23.5948 22.7875 23.597 22.7824 23.6324 22.7291C23.6674 22.6765 23.7353 22.576 23.8021 22.4424L22.0132 21.5479C22.0076 21.5591 22.0031 21.5673 21.9664 21.6225C21.9303 21.677 21.8616 21.7789 21.7952 21.9148L23.592 22.7933ZM23.6174 21.2907L23.205 20.8752L21.7855 22.284L22.1979 22.6996L23.6174 21.2907ZM21.5019 21.4641C21.5066 21.4236 21.5151 21.3836 21.5271 21.3447L23.4382 21.9342C23.4623 21.8562 23.4791 21.7762 23.4885 21.6951L21.5019 21.4641ZM23.4826 21.6394V21.567H21.4826V21.6394H23.4826ZM21.7756 22.2742L21.7882 22.2868L23.2023 20.8725L23.1897 20.8599L21.7756 22.2742ZM23.4836 21.7317C23.5375 21.3811 23.4491 21.0714 23.3625 20.8675C23.2727 20.6561 23.1392 20.4505 22.9757 20.2869L21.5615 21.7012C21.5401 21.6797 21.5309 21.666 21.529 21.6632C21.5264 21.6593 21.5243 21.6556 21.5217 21.6495C21.5194 21.644 21.5123 21.6262 21.5068 21.5953C21.5014 21.5652 21.4947 21.5065 21.5069 21.4275L23.4836 21.7317ZM22.9757 20.2869C22.3001 19.6114 21.4718 19.12 20.7723 18.7028L19.7478 20.4205C20.4839 20.8595 21.0911 21.2308 21.5615 21.7012L22.9757 20.2869ZM20.7125 18.6699L20.2844 18.4526L19.3795 20.2362L19.8076 20.4534L20.7125 18.6699ZM20.2591 18.4402C20.0213 18.3279 19.7899 18.2025 19.5659 18.0647L18.5175 19.7679C18.8042 19.9443 19.1004 20.1048 19.4047 20.2486L20.2591 18.4402ZM19.0417 17.9163C19.1927 17.9163 19.3053 17.9524 19.3562 17.9711C19.4137 17.9921 19.4544 18.014 19.474 18.0252C19.4956 18.0375 19.5102 18.0475 19.5167 18.052C19.5238 18.057 19.5278 18.0601 19.5284 18.0606C19.529 18.061 19.5265 18.0591 19.5228 18.0557C19.5214 18.0545 19.5208 18.0538 19.5212 18.0542C19.5214 18.0544 19.522 18.055 19.5229 18.0559C19.5234 18.0563 19.5239 18.0569 19.5246 18.0575C19.5249 18.0578 19.5253 18.0582 19.5257 18.0586C19.5259 18.0587 19.5261 18.0589 19.5263 18.0591C19.5264 18.0592 19.5265 18.0593 19.5266 18.0595C19.5267 18.0595 19.5268 18.0596 19.5268 18.0596C19.5269 18.0597 19.5269 18.0598 18.8276 18.7746C18.1284 19.4894 18.1284 19.4895 18.1285 19.4896C18.1286 19.4896 18.1286 19.4897 18.1287 19.4898C18.1288 19.4899 18.1289 19.49 18.1291 19.4901C18.1293 19.4904 18.1296 19.4906 18.1298 19.4909C18.1303 19.4914 18.1309 19.4919 18.1315 19.4925C18.1327 19.4937 18.1341 19.495 18.1357 19.4965C18.1387 19.4995 18.1425 19.5031 18.1468 19.5072C18.1554 19.5153 18.1666 19.5257 18.1799 19.5378C18.2055 19.561 18.2436 19.5944 18.2891 19.6303C18.3306 19.6631 18.3993 19.7148 18.4841 19.7631C18.5292 19.7888 18.7463 19.9163 19.0417 19.9163V17.9163ZM18.8276 18.7746C19.8276 18.7746 19.8276 18.7741 19.8276 18.7736C19.8276 18.7735 19.8276 18.773 19.8276 18.7727C19.8276 18.7721 19.8276 18.7714 19.8276 18.7708C19.8276 18.7695 19.8276 18.7682 19.8276 18.7669C19.8276 18.7643 19.8276 18.7617 19.8275 18.7589C19.8274 18.7535 19.8273 18.7478 19.8271 18.7419C19.8267 18.7301 19.8261 18.7172 19.8252 18.7033C19.8233 18.6759 19.82 18.6429 19.8141 18.6058C19.803 18.5366 19.7791 18.4281 19.7211 18.3069C19.6618 18.1829 19.555 18.0219 19.3702 17.8931C19.1769 17.7584 18.9601 17.7022 18.7584 17.7022V19.7022C18.5913 19.7022 18.4004 19.655 18.2266 19.5339C18.0614 19.4187 17.9676 19.2758 17.9169 19.1699C17.8676 19.0668 17.8479 18.9764 17.839 18.9207C17.8342 18.8904 17.8314 18.8631 17.8298 18.8397C17.829 18.8278 17.8285 18.8164 17.8281 18.8057C17.828 18.8003 17.8278 18.795 17.8278 18.7898C17.8277 18.7873 17.8277 18.7847 17.8277 18.7822C17.8277 18.7809 17.8277 18.7796 17.8277 18.7784C17.8277 18.7778 17.8277 18.7771 17.8277 18.7765C17.8277 18.7762 17.8277 18.7757 17.8277 18.7756C17.8277 18.7751 17.8276 18.7746 18.8276 18.7746ZM19.4092 17.9429C19.3093 17.8574 19.244 17.7385 19.2252 17.6083L17.2457 17.8933C17.3335 18.5032 17.6398 19.0604 18.1076 19.4615L19.4092 17.9429ZM19.2252 17.6083C19.2065 17.4781 19.2357 17.3456 19.3073 17.2354L17.6302 16.1457C17.2945 16.6624 17.1578 17.2834 17.2457 17.8933L19.2252 17.6083ZM19.3276 17.2028C19.3322 17.195 19.3323 17.197 19.3261 17.2026C19.32 17.2081 19.3151 17.2106 19.3156 17.2103C19.3191 17.2086 19.3625 17.19 19.473 17.19V15.19C18.8141 15.19 18.0602 15.4234 17.6099 16.1783L19.3276 17.2028ZM19.4489 17.1897C19.599 17.1933 19.7439 17.2451 19.8624 17.3375L21.0922 15.7603C20.6354 15.4041 20.0762 15.2043 19.4972 15.1903L19.4489 17.1897ZM19.7702 17.256L19.8426 17.3284L21.2568 15.9142L21.1844 15.8418L19.7702 17.256ZM19.8426 17.3284C20.0071 17.4929 20.1824 17.5725 20.2123 17.5873C20.2437 17.6029 20.147 17.5604 20.0567 17.47L21.4709 16.0558C21.3081 15.8931 21.139 15.8144 21.0988 15.7945C21.057 15.7739 21.1615 15.8189 21.2568 15.9142L19.8426 17.3284ZM20.0515 17.4649C20.125 17.5395 20.1891 17.6158 20.2827 17.7278C20.3705 17.8329 20.4867 17.9725 20.6296 18.1154L22.0438 16.7012C21.9727 16.63 21.9095 16.5556 21.8178 16.4458C21.7319 16.343 21.6165 16.2036 21.476 16.061L20.0515 17.4649ZM20.6455 18.131C20.6807 18.1647 20.7131 18.1919 20.7363 18.2107C20.7595 18.2296 20.7812 18.2462 20.7948 18.2566C20.8119 18.2696 20.8179 18.2742 20.8271 18.2813C20.8344 18.2869 20.8371 18.2892 20.8376 18.2896C20.8422 18.2935 20.7798 18.244 20.7288 18.142L22.5176 17.2476C22.3942 17.0008 22.2247 16.8427 22.1224 16.7568C22.0737 16.7161 22.024 16.6788 22.0089 16.6673C21.9803 16.6454 22.0004 16.6593 22.0279 16.6857L20.6455 18.131ZM20.8701 18.3527C21.4269 18.9901 22.125 19.6065 22.7992 20.1327L24.0298 18.5561C23.4133 18.0749 22.8206 17.5455 22.3763 17.0369L20.8701 18.3527ZM22.9753 20.2428C23.0525 20.2806 23.4222 20.4861 23.8458 20.4861V18.4861C23.8929 18.4861 23.9288 18.492 23.9499 18.4966C23.9706 18.5011 23.9807 18.5051 23.9773 18.5038C23.9737 18.5025 23.963 18.4983 23.9408 18.488C23.9301 18.4831 23.9179 18.4773 23.9031 18.4701C23.8878 18.4627 23.8729 18.4554 23.8537 18.446L22.9753 20.2428ZM23.8458 20.4861C23.9689 20.4861 24.0797 20.47 24.177 20.4463C24.2716 20.4232 24.3465 20.3945 24.3892 20.3772C24.3997 20.373 24.4091 20.3691 24.4155 20.3664C24.4239 20.363 24.4252 20.3624 24.429 20.3608C24.4355 20.3581 24.426 20.3622 24.4105 20.3677C24.383 20.3774 24.2779 20.4137 24.1323 20.4137V18.4137C23.9504 18.4137 23.8092 18.459 23.7433 18.4823C23.7086 18.4946 23.6793 18.5066 23.6653 18.5124C23.6431 18.5216 23.6478 18.5197 23.6408 18.5225C23.6387 18.5234 23.6643 18.5127 23.7033 18.5032C23.7449 18.4931 23.7935 18.4861 23.8458 18.4861V20.4861ZM24.1323 20.4137H24.2047V18.4137H24.1323V20.4137ZM23.6514 20.2467L24.0827 20.5331L25.1893 18.8672L24.758 18.5807L23.6514 20.2467ZM25.3664 20.3832C27.5913 18.004 30.4863 16.3565 33.6681 15.6588L33.2398 13.7052C29.6622 14.4897 26.4072 16.342 23.9056 19.0171L25.3664 20.3832ZM33.6201 15.6681C34.4982 15.5201 35.2389 15.387 35.9819 15.319L35.7994 13.3273C34.9619 13.404 34.1285 13.5542 33.2878 13.6959L33.6201 15.6681ZM36.8827 14.4485L36.9551 13.8755L34.9709 13.6248L34.8985 14.1977L36.8827 14.4485ZM36.963 13.7502V13.6085H34.963V13.7502H36.963ZM36.5149 14.4424C37.0554 14.0847 37.2122 13.5245 37.2692 13.3559L35.3746 12.7151C35.3651 12.7432 35.3578 12.765 35.3504 12.786C35.3433 12.8065 35.3375 12.8224 35.3324 12.8357C35.3219 12.8627 35.3171 12.8713 35.3178 12.8701C35.3192 12.8676 35.3277 12.8526 35.3453 12.8323C35.3638 12.8111 35.3865 12.7909 35.4111 12.7746L36.5149 14.4424ZM37.3219 13.0355C37.3219 12.1924 37.3246 11.3117 37.1644 10.4217L35.1961 10.776C35.3192 11.4602 35.3219 12.1597 35.3219 13.0355H37.3219ZM37.1802 10.5989V10.5265H35.1802V10.5989H37.1802ZM37.1802 10.5265C37.1802 10.4086 37.1946 10.0327 37.0023 9.64795L35.2134 10.5424C35.2013 10.5182 35.1928 10.495 35.1871 10.4748C35.1816 10.4552 35.1796 10.4414 35.179 10.4367C35.1785 10.4326 35.1791 10.4358 35.1796 10.4513C35.1798 10.4589 35.18 10.4684 35.1801 10.4811C35.1802 10.4943 35.1802 10.5081 35.1802 10.5265H37.1802ZM37.0672 9.81284C37.008 9.61192 36.9738 9.40448 36.9653 9.1952L34.967 9.27623C34.9821 9.64937 35.0431 10.0192 35.1485 10.3775L37.0672 9.81284ZM36.9662 9.23572V8.87998H34.9662V9.23572H36.9662ZM36.9662 8.87998C36.9662 8.79176 36.9984 8.68784 37.1007 8.58668L35.6942 7.16476C35.2172 7.63656 34.9662 8.25042 34.9662 8.87998H36.9662ZM37.1046 8.58282C37.2174 8.46997 37.3128 8.40915 37.3776 8.38102C37.4083 8.3677 37.4283 8.36334 37.4381 8.36192C37.4469 8.36063 37.4499 8.36131 37.4502 8.36136L37.7814 6.38896C36.8979 6.24064 36.1618 6.69719 35.6904 7.16861L37.1046 8.58282ZM37.4784 8.36567C37.5831 8.38021 37.6784 8.43402 37.7449 8.5162L39.2994 7.25771C38.9134 6.78104 38.3607 6.46893 37.7532 6.38465L37.4784 8.36567ZM37.7449 8.5162C37.8115 8.59839 37.8443 8.70279 37.8367 8.80827L39.8316 8.95169C39.8755 8.33995 39.6853 7.73438 39.2994 7.25771L37.7449 8.5162ZM37.8341 8.87998V9.31127H39.8341V8.87998H37.8341ZM37.8646 9.06623C37.8109 9.27875 37.7865 9.48177 37.7697 9.6183C37.7506 9.77287 37.7393 9.85789 37.7205 9.93573L39.6645 10.4057C39.7149 10.1971 39.7382 9.9956 39.7546 9.86369C39.7731 9.71374 39.7849 9.63027 39.8036 9.55631L37.8646 9.06623ZM37.6925 10.1707C37.6925 10.1229 37.6984 10.0924 37.6987 10.0907C37.699 10.0892 37.6986 10.0916 37.6965 10.1004C37.6943 10.1099 37.6916 10.1206 37.6867 10.1398C37.679 10.1704 37.6623 10.2353 37.649 10.3054C37.6351 10.3784 37.6201 10.4802 37.6201 10.5989H39.6201C39.6201 10.6467 39.6141 10.6772 39.6138 10.6789C39.6135 10.6804 39.6139 10.678 39.616 10.6692C39.6182 10.6597 39.6209 10.649 39.6258 10.6298C39.6335 10.5992 39.6502 10.5343 39.6636 10.4642C39.6774 10.3911 39.6925 10.2894 39.6925 10.1707H37.6925ZM37.6201 10.5989V10.6713H39.6201V10.5989H37.6201ZM37.6352 10.4981C37.4668 11.4555 37.4689 12.3291 37.4689 13.1079H39.4689C39.4689 12.3127 39.4711 11.6059 39.6049 10.8444L37.6352 10.4981ZM37.5217 13.4283C37.5785 13.5963 37.7317 14.152 38.2731 14.513L39.3825 12.8489C39.4042 12.8633 39.4256 12.8821 39.444 12.9032C39.4617 12.9234 39.4706 12.939 39.4725 12.9425C39.4737 12.9447 39.4693 12.9369 39.4589 12.91C39.4539 12.8967 39.4481 12.8808 39.4409 12.86C39.4333 12.8382 39.4261 12.8166 39.4162 12.7875L37.5217 13.4283ZM39.8278 13.6809V13.6085H37.8278V13.6809H39.8278ZM37.8357 13.7339L37.9081 14.3068L39.8923 14.0561L39.8199 13.4831L37.8357 13.7339ZM38.7964 15.176C42.0036 15.511 45.0546 16.7313 47.608 18.7007L48.8295 17.117C45.9822 14.9211 42.5803 13.5603 39.0041 13.1869L38.7964 15.176ZM47.5136 18.6179C47.8131 18.9158 48.1281 19.212 48.43 19.4963C48.7358 19.7843 49.0288 20.0607 49.3029 20.3349L50.7172 18.9206C50.4184 18.6219 50.1038 18.3253 49.8012 18.0403C49.4946 17.7516 49.2005 17.4749 48.9239 17.1998L47.5136 18.6179ZM50.5388 20.4765L51.1149 20.1176L50.0574 18.4201L49.4813 18.779L50.5388 20.4765ZM50.5862 20.2689H50.6554V18.2689H50.5862V20.2689ZM49.9328 19.9601C50.1935 20.2327 50.5109 20.2981 50.6319 20.3184C50.779 20.3431 50.912 20.3413 50.9419 20.3413V18.3413C50.8994 18.3413 50.9238 18.3394 50.9631 18.346C50.9861 18.3499 51.0376 18.3601 51.1037 18.3876C51.1697 18.4151 51.2755 18.4705 51.3781 18.5776L49.9328 19.9601ZM50.9419 20.3413C51.3649 20.3413 51.7397 20.1328 51.8047 20.1017L50.9417 18.2975C50.9319 18.3022 50.9221 18.3069 50.9132 18.3111C50.9041 18.3155 50.8959 18.3195 50.8879 18.3233C50.8718 18.331 50.8587 18.3372 50.847 18.3426C50.8229 18.3537 50.8115 18.3582 50.8076 18.3597C50.8039 18.361 50.8145 18.3568 50.8359 18.3521C50.8581 18.3472 50.8946 18.3413 50.9419 18.3413V20.3413ZM51.9288 20.031C52.6497 19.5493 53.361 18.9174 53.9176 18.2803L52.4114 16.9645C51.9669 17.4733 51.3875 17.9873 50.8176 18.3682L51.9288 20.031ZM53.8871 18.3136C53.8506 18.3518 53.8227 18.3717 53.8456 18.3537C53.8507 18.3497 53.9047 18.3083 53.9462 18.2738C54.0403 18.1955 54.2147 18.0389 54.3414 17.791L52.5605 16.8808C52.5885 16.8261 52.6187 16.7875 52.6392 16.7645C52.6587 16.7427 52.6718 16.7324 52.6669 16.7364C52.6647 16.7383 52.6603 16.7419 52.6507 16.7493C52.6458 16.7532 52.6409 16.757 52.634 16.7623C52.6277 16.7672 52.6195 16.7736 52.611 16.7803C52.5945 16.7932 52.57 16.8126 52.5434 16.8355C52.5168 16.8582 52.4807 16.8906 52.4419 16.9312L53.8871 18.3136ZM54.2793 17.8962C54.3598 17.7771 54.5021 17.6264 54.729 17.4028L53.3252 15.9783C53.1176 16.1828 52.8318 16.4665 52.6227 16.7756L54.2793 17.8962ZM54.0271 17.6905C54.3842 17.6905 54.6341 17.5197 54.7258 17.4521C54.8315 17.3743 54.9183 17.2859 54.9483 17.256L53.5341 15.8418C53.4916 15.8842 53.506 15.8666 53.54 15.8416C53.5613 15.8259 53.6101 15.792 53.6832 15.7605C53.7579 15.7282 53.8764 15.6905 54.0271 15.6905V17.6905ZM54.9638 17.2401L55.033 17.1677L53.5878 15.7852L53.5185 15.8576L54.9638 17.2401ZM54.9225 17.2672C55.0427 17.1742 55.1893 17.1216 55.3412 17.1171L55.2818 15.118C54.7072 15.1351 54.1529 15.3338 53.6983 15.6857L54.9225 17.2672ZM55.3115 17.1176C55.3039 17.1176 55.3128 17.1168 55.3372 17.1231C55.3609 17.1293 55.39 17.1399 55.4208 17.1552C55.4515 17.1706 55.4769 17.1873 55.4951 17.2018C55.5139 17.2169 55.5173 17.2234 55.5116 17.2157L57.12 16.0269C56.8998 15.729 56.6031 15.5103 56.3152 15.3664C56.027 15.2223 55.6767 15.1176 55.3115 15.1176V17.1176ZM55.5256 17.2341C55.6086 17.3411 55.6254 17.4421 55.6122 17.5294C55.5983 17.6218 55.5437 17.7373 55.4146 17.8379L56.6441 19.4154C57.6837 18.6051 57.9728 17.126 57.106 16.0084L55.5256 17.2341ZM55.0293 18.6266C55.0293 18.8211 55.0798 18.9818 55.1369 19.1011C55.1605 19.1505 55.1839 19.1893 55.1866 19.1939C55.1971 19.2116 55.174 19.1741 55.1531 19.1305C55.1281 19.0782 55.0877 18.9814 55.0695 18.8522C55.0502 18.7153 55.061 18.579 55.0973 18.4526C55.1313 18.3342 55.1813 18.2462 55.2183 18.191C55.2549 18.1364 55.2887 18.099 55.3067 18.0802L56.752 19.4627C56.807 19.4051 56.9494 19.2493 57.0197 19.0043C57.0593 18.8666 57.0706 18.7201 57.05 18.5736C57.0305 18.4348 56.9868 18.3289 56.9574 18.2676C56.9428 18.237 56.9295 18.2129 56.9217 18.1993C56.9177 18.1922 56.9143 18.1863 56.9122 18.1828C56.9112 18.181 56.9103 18.1794 56.9097 18.1785C56.9094 18.178 56.9091 18.1775 56.9089 18.1772C56.9087 18.1768 56.9086 18.1767 56.9085 18.1765C56.9056 18.1715 56.923 18.2001 56.9412 18.2382C56.9874 18.3349 57.0293 18.4684 57.0293 18.6266H55.0293ZM55.3381 18.0488C55.4274 17.9634 55.5251 17.9213 55.4778 17.9447C55.4321 17.9673 55.2576 18.0494 55.0926 18.2219L56.5379 19.6043C56.4923 19.652 56.4454 19.6878 56.4055 19.7133C56.3723 19.7344 56.3457 19.7467 56.3644 19.7375C56.3887 19.7255 56.5588 19.6488 56.7205 19.4941L55.3381 18.0488ZM55.3758 18.0148C55.1986 18.1015 55.0474 18.1879 54.9214 18.2602C54.7907 18.3351 54.6892 18.3937 54.5739 18.452L55.4762 20.2369C55.6473 20.1504 55.7962 20.0641 55.9166 19.995C56.0416 19.9233 56.1423 19.8664 56.2546 19.8114L55.3758 18.0148ZM54.5805 18.4487L54.1492 18.6628L55.0384 20.4542L55.4696 20.2401L54.5805 18.4487ZM54.0935 18.6926C53.3246 19.1368 52.6 19.6536 51.9295 20.2359L53.2409 21.7459C53.8151 21.2473 54.4356 20.8048 55.094 20.4244L54.0935 18.6926ZM51.8704 20.2916C51.6448 20.5223 51.5295 20.7977 51.4692 20.9938C51.4048 21.2032 51.3712 21.4273 51.3712 21.6363H53.3712C53.3712 21.6374 53.3712 21.6297 53.3733 21.6158C53.3754 21.6021 53.3783 21.5899 53.3809 21.5815C53.3838 21.5722 53.3836 21.5758 53.3762 21.5898C53.3723 21.5973 53.365 21.61 53.3535 21.6264C53.3421 21.6426 53.3248 21.665 53.3001 21.6902L51.8704 20.2916ZM51.3712 21.6363V21.7087H53.3712V21.6363H51.3712ZM51.6615 21.0042L51.2333 21.4355L52.6527 22.8445L53.0809 22.4132L51.6615 21.0042ZM51.1006 22.6789C52.1876 24.378 53.0058 26.2837 53.4799 28.2518L55.4243 27.7834C54.8973 25.5959 53.9903 23.4846 52.7854 21.6011L51.1006 22.6789ZM53.473 28.2208C53.8859 30.2101 54.0159 32.2434 53.7479 34.1867L55.7292 34.4599C56.0342 32.2476 55.8809 29.9806 55.4312 27.8143L53.473 28.2208ZM54.4935 35.2928L55.0665 35.4376L55.5566 33.4986L54.9836 33.3538L54.4935 35.2928ZM54.3795 34.8305C54.4745 35.0747 54.6196 35.2964 54.8054 35.4811L56.2152 34.0625C56.2276 34.0748 56.2372 34.0895 56.2436 34.1058L54.3795 34.8305ZM54.8054 35.4811C54.9913 35.6658 55.2139 35.8095 55.4587 35.903L56.1717 34.0344C56.188 34.0406 56.2028 34.0502 56.2152 34.0625L54.8054 35.4811ZM55.5528 35.9336C56.4026 36.1648 57.3199 36.3187 58.1571 36.3958L58.3404 34.4042C57.6036 34.3364 56.802 34.2007 56.0777 34.0037L55.5528 35.9336ZM58.2488 36.4H58.3212V34.4H58.2488V36.4ZM57.9364 36.323C58.2184 36.4406 58.5243 36.4897 58.8289 36.4663L58.676 34.4722C58.6862 34.4714 58.6965 34.473 58.706 34.477L57.9364 36.323ZM58.7525 36.4692C59.0589 36.4692 59.2194 36.4743 59.3612 36.5105L59.8563 34.5728C59.4314 34.4642 59.019 34.4692 58.7525 34.4692L58.7525 36.4692ZM59.6087 36.5416C59.7116 36.5416 59.6891 36.5447 59.6435 36.5371C59.6256 36.5341 59.4883 36.5134 59.3328 36.4134C59.245 36.357 59.1307 36.262 59.039 36.1123C58.9429 35.9553 58.8984 35.7812 58.8984 35.614H60.8984C60.8984 35.1837 60.65 34.8826 60.4142 34.731C60.227 34.6106 60.0445 34.5763 59.9723 34.5643C59.818 34.5386 59.6508 34.5416 59.6087 34.5416V36.5416ZM58.8984 35.614C58.8984 35.8042 58.9493 36.0487 59.1229 36.2705C59.2895 36.4833 59.4953 36.5805 59.6301 36.6247C59.7591 36.6671 59.8702 36.6767 59.9226 36.6801C59.9776 36.6837 60.0291 36.6833 60.04 36.6833V34.6833C60.0148 34.6833 60.0305 34.6829 60.0521 34.6843C60.0711 34.6856 60.1514 34.6909 60.2541 34.7246C60.3624 34.7602 60.5465 34.8444 60.6978 35.0377C60.8561 35.24 60.8984 35.4585 60.8984 35.614H58.8984ZM59.8068 36.6557C59.9484 36.6897 60.0756 36.7676 60.1703 36.8782L61.6897 35.5776C61.3208 35.1466 60.825 34.8432 60.2733 34.7109L59.8068 36.6557ZM60.1703 36.8782C60.265 36.9888 60.3223 37.1265 60.334 37.2717L62.3275 37.1109C62.2819 36.5453 62.0587 36.0087 61.6897 35.5776L60.1703 36.8782ZM60.3929 36.8444C60.3548 36.9472 60.2866 37.0361 60.197 37.0994L61.3509 38.7329C61.7705 38.4365 62.0905 38.02 62.2687 37.5381L60.3929 36.8444ZM60.197 37.0994C60.1075 37.1627 60.0009 37.1973 59.8912 37.1988L59.9181 39.1986C60.4318 39.1917 60.9314 39.0293 61.3509 38.7329L60.197 37.0994Z" fill="#879596" mask="url(#path-2-inside-1_4486_65465)"/>
<path d="M44.6279 30.9057L44.6133 30.9015L44.5984 30.8982C44.2595 30.8238 44.0313 30.4785 44.1176 30.0732C44.1452 29.9746 44.1963 29.8841 44.2665 29.8096L49.1709 25.3647C49.7801 26.4817 50.2356 27.6771 50.524 28.9183L50.5241 28.9187C50.8112 30.1498 50.9207 31.4146 50.8502 32.6748L44.6279 30.9057ZM48.8186 39.054L48.8088 39.0675L48.7999 39.0817C47.8511 40.5871 46.6099 41.8842 45.1519 42.8973L42.6002 36.752C42.5685 36.6077 42.5854 36.4567 42.6489 36.3227C42.7148 36.1834 42.8268 36.0714 42.9657 36.0053C43.1018 35.9528 43.2448 35.9204 43.3902 35.9093L49.9022 37.0161C49.5975 37.774 49.2485 38.4635 48.8186 39.054ZM37.1514 38.9222C37.2914 38.8942 37.4366 38.9163 37.5617 38.9845C37.7071 39.0826 37.8128 39.1828 37.996 39.3654L41.0659 44.9294C40.8426 44.9745 40.6079 45.0286 40.3566 45.0993C39.3814 45.3095 38.4184 45.4436 37.3953 45.4436C36.1542 45.4436 34.8514 45.2379 33.6198 44.9147L36.8081 39.1237C36.8965 39.0201 37.0173 38.949 37.1514 38.9222Z" fill="#232F3E" stroke="#879596"/>
</g>
<defs>
<clipPath id="clip0_4486_65465">
<rect width="75.5556" height="60" fill="white"/>
</clipPath>
</defs>
</svg>
