<?xml version="1.0" encoding="UTF-8"?>
<svg width="50px" height="50px" viewBox="0 0 50 50" version="1.1" xmlns="http://www.w3.org/2000/svg" xmlns:xlink="http://www.w3.org/1999/xlink">
    <title>Cw Icons / ServiceMapFilled / kinesis</title>
    <g id="Cw-Icons-/-ServiceMapFilled-/-kinesis" stroke="none" stroke-width="1" fill="none" fill-rule="evenodd">
        <path d="M50.0803143,28 L50.0803143,30 L41.2603143,30 C19.6303143,30 2.08031433,38.44 2.08031433,48.77 C2.06680338,49.1806713 2.08351513,49.5917803 2.13031433,50 L0.0803143298,50 C0.0234898609,49.5925197 -0.00324911792,49.1814079 -7.10553578e-15,48.77 C0.0103143298,37.12 18.1303143,28 41.2503143,28 L50.0803143,28 Z M50.0803143,32 L50.0803143,34 L45.9403143,34 C27.3603143,34 13.3503143,40 13.3503143,48.07 L13.3503143,50 L13.3503143,50 L11.3502938,50 L11.3502938,48.07 L11.3502938,48.07 C11.3303143,38.75 25.8903143,32 45.9403143,32 L50.0803143,32 Z M0.0803143298,15.35 C4.20031433,20.75 18.2703143,24 37.8403143,24 L50.0803143,24 L50.0803143,26 L37.8403143,26 C18.2703143,26 4.20031433,29.17 0.0803143298,34.49 L0.0803143298,31.81 C4.35099615,28.0865909 12.1649579,26.091844 19.9194454,25.0697409 L20.4603143,25 L20.464736,24.998 L19.9294604,24.93026 C12.175397,23.9081973 4.3705416,21.9152273 0.0803143298,18.27 L0.0803143298,15.35 Z M2.16031433,0 C2.09893065,0.417073534 2.07217265,0.838512158 2.08031433,1.26 C2.08031433,11.59 19.6503143,20 41.2703143,20 L50.0803143,20 L50.0803143,22 L41.2603143,22 C18.1703143,22 0.0800482131,12.9 0.0800482131,1.26 C0.0770521059,0.838633872 0.103786325,0.417569923 0.16031433,0 L2.16031433,0 Z M13.4003143,0 L13.4003143,1.83 L13.4003143,1.83 C13.4003143,9.83 27.4003143,16 45.9503143,16 L50.0803143,16 L50.0803143,18 L45.9303143,18 C25.8603143,18 11.2903143,11.2 11.2903143,1.83 L11.2903143,0 L11.2903143,0 L13.4003143,0 Z" id="Combined-Shape" fill="currentColor"></path>
    </g>
</svg>