<?xml version="1.0" encoding="UTF-8"?>
<svg width="51px" height="49px" viewBox="0 0 51 49" version="1.1" xmlns="http://www.w3.org/2000/svg" xmlns:xlink="http://www.w3.org/1999/xlink">
    <title>Cw Icons / ServiceMapFilled / kms</title>
    <g id="Cw-Icons-/-ServiceMapFilled-/-kms" stroke="none" stroke-width="1" fill="none" fill-rule="evenodd">
        <path d="M12.57649,4.97380728e-14 C19.4800494,0.0418784713 25.0429114,5.67189774 25.00149,12.5754571 C25.0207086,17.7480947 21.8345137,22.3919737 17.00149,24.2354571 L17.00149,45.0754571 C17.0015093,45.3677689 16.8736278,45.6454544 16.65149,45.8354571 L13.15149,48.8354571 C12.9703482,48.9903627 12.7398346,49.0754571 12.50149,49.0754571 C12.2142629,49.0754571 11.9410599,48.9512414 11.75149,48.7354571 L8.25149003,44.7354571 C8.0907123,44.5531529 8.00183981,44.3185295 8.00149003,44.0754571 L8.00149003,41.4954571 L5.29149003,38.7854571 C5.10217738,38.5976905 4.99569171,38.3420947 4.99569171,38.0754571 C4.99569171,37.8088196 5.10217738,37.5532237 5.29149003,37.3654571 L8.00149003,34.6654571 L8.00149003,33.4954571 L5.29149003,30.7854571 C5.10217738,30.5976905 4.99569171,30.3420947 4.99569171,30.0754571 C4.99569171,29.8088196 5.10217738,29.5532237 5.29149003,29.3654571 L8.00149003,26.6654571 L8.00149003,24.2454571 C3.11691914,22.3767871 -0.0791124143,17.6546505 0.00149003264,12.4254571 C0.0429113889,5.52189774 5.67293066,-0.0409642412 12.57649,4.97380728e-14 Z M49,16 C50.1045695,16 51,16.8954305 51,18 L51,40 C51,41.1045695 50.1045695,42 49,42 L19.001,42 L19.00149,37.0754571 L26.00149,37.0754571 L26.00149,35.0754571 L19.00149,35.0754571 L19.0000852,30.5109269 C19.6820532,31.742026 20.9944425,32.5754571 22.50149,32.5754571 C24.710629,32.5754571 26.50149,30.7845961 26.50149,28.5754571 C26.50149,26.3663181 24.710629,24.5754571 22.50149,24.5754571 C20.9944425,24.5754571 19.6820532,25.4088882 19.0000852,26.6399874 L19.00149,25.2354571 C23.0637382,23.6859743 25.9625476,20.1580899 26.7724257,16.0007095 L49,16 Z M36.00149,35.0754571 L29.00149,35.0754571 L29.00149,37.0754571 L36.00149,37.0754571 L36.00149,35.0754571 Z M46.00149,35.0754571 L39.00149,35.0754571 L39.00149,37.0754571 L46.00149,37.0754571 L46.00149,35.0754571 Z M32.50149,24.5754571 C30.292351,24.5754571 28.50149,26.3663181 28.50149,28.5754571 C28.50149,30.7845961 30.292351,32.5754571 32.50149,32.5754571 C34.710629,32.5754571 36.50149,30.7845961 36.50149,28.5754571 C36.50149,26.3663181 34.710629,24.5754571 32.50149,24.5754571 Z M22.50149,26.5754571 C23.6060595,26.5754571 24.50149,27.4708876 24.50149,28.5754571 C24.50149,29.6800266 23.6060595,30.5754571 22.50149,30.5754571 C21.3969205,30.5754571 20.50149,29.6800266 20.50149,28.5754571 C20.50149,27.4708876 21.3969205,26.5754571 22.50149,26.5754571 Z M32.50149,26.5754571 C33.6060595,26.5754571 34.50149,27.4708876 34.50149,28.5754571 C34.50149,29.6800266 33.6060595,30.5754571 32.50149,30.5754571 C31.3969205,30.5754571 30.50149,29.6800266 30.50149,28.5754571 C30.50149,27.4708876 31.3969205,26.5754571 32.50149,26.5754571 Z M12.50149,4.57545712 C10.0162087,4.57545712 8.00149003,6.59017574 8.00149003,9.07545712 C8.00149003,11.5607385 10.0162087,13.5754571 12.50149,13.5754571 C14.9844899,13.5699576 16.9959906,11.558457 17.00149,9.07545712 C17.00149,6.59017574 14.9867714,4.57545712 12.50149,4.57545712 Z" id="Combined-Shape" fill="currentColor"></path>
    </g>
</svg>