<?xml version="1.0" encoding="UTF-8"?>
<svg width="48px" height="52px" viewBox="0 0 48 52" version="1.1" xmlns="http://www.w3.org/2000/svg" xmlns:xlink="http://www.w3.org/1999/xlink">
    <title>Cw Icons / ServiceMapFilled / lambda</title>
    <g id="Cw-Icons-/-ServiceMapFilled-/-lambda" stroke="none" stroke-width="1" fill="none" fill-rule="evenodd">
        <rect id="Rectangle" fill="#D8D8D8" opacity="0" x="0.35134219" y="0.300574788" width="48" height="52"></rect>
        <path d="M24.4,0 C24.7846594,0.00108889668 25.1345973,0.222716217 25.3,0.57 L42.63,37 L47,37 C47.5522847,37 48,37.4477153 48,38 L48,49 C48,49.5522847 47.5522847,50.0000258 47,50.0000258 L34.69,50.0000258 C34.3017306,50.0027797 33.9469502,49.7805545 33.78,49.43 L16.37,13 L9,13 C8.44771525,13 8,12.5522847 8,12 L8,1 C8,0.44771525 8.44771525,0 9,0 L24.4,0 Z M14.58,19.549996 C14.9623951,19.5492347 15.3117466,19.766609 15.48,20.11 L22,33.54 C22.1327594,33.814806 22.1327594,34.135194 22,34.41 L14.9,49.41 C14.7404169,49.7650848 14.3892681,49.9952823 14,50.000004 L1,50.000004 C0.65449853,50.0006914 0.333115454,49.8229855 0.15,49.53 C-0.028632795,49.2205989 -0.028632795,48.8394011 0.15,48.53 L13.68,20.12 C13.8454027,19.7727162 14.1953406,19.5510889 14.58,19.549996 Z" id="Combined-Shape" fill="currentColor"></path>
    </g>
</svg>