<svg width="19" height="19" viewBox="0 0 19 19" fill="none" xmlns="http://www.w3.org/2000/svg">
<path fill-rule="evenodd" clip-rule="evenodd" d="M14.1956 4.22002C14.6124 4.54183 15.135 4.72727 15.6886 4.72727C17.0191 4.72727 18.0983 3.67136 18.1004 2.36747C18.102 1.41114 17.5153 0.548118 16.6142 0.18108C15.7131 -0.185958 14.6751 0.0153221 13.9845 0.691007C13.2939 1.36669 13.0869 2.38362 13.46 3.2673C13.5184 3.40585 13.5894 3.53684 13.6712 3.65924L10.2986 6.44344C9.29002 4.9664 7.57213 3.99387 5.62245 3.99387C2.51726 3.99387 0 6.46078 0 9.50387C0 12.547 2.51726 15.0139 5.62245 15.0139C7.57136 15.0112 9.28811 14.0384 10.2968 12.5617L13.6704 15.3457C13.4215 15.7175 13.2767 16.1623 13.2767 16.6403C13.2767 17.9456 14.3566 19.0039 15.6886 19.0039C17.0197 19.0018 18.0983 17.9448 18.1004 16.6403C18.1004 15.3349 17.0206 14.2767 15.6886 14.2767C15.1243 14.2767 14.6053 14.4665 14.1945 14.7847L10.6883 11.8912C10.9908 11.2768 11.1806 10.5991 11.2312 9.88387H14.1145C14.1442 10.0623 14.1951 10.2392 14.268 10.411C14.6425 11.2941 15.5231 11.869 16.499 11.8675C17.8286 11.8633 18.9048 10.8069 18.9069 9.50387C18.9069 8.54754 18.3189 7.68544 17.4172 7.31983C16.5155 6.95421 15.4778 7.15713 14.7883 7.8339C14.4235 8.192 14.1942 8.64543 14.1146 9.12387H11.2317C11.182 8.40771 10.9925 7.72912 10.69 7.11405L14.1956 4.22002Z" fill="currentColor"/>
</svg>
