<svg width="50" height="48" viewBox="0 0 50 48" fill="none" xmlns="http://www.w3.org/2000/svg">
<path d="M24.7486 34.2833C23.8956 34.2833 22.872 33.2683 21.0978 30.5131C19.3918 33.2 18.6753 33.9251 17.9588 33.9251C16.9181 33.9251 16.0907 32.5603 14.1629 29.0544C13.6031 27.9809 12.9852 26.9387 12.3119 25.9325C11.6124 26.4272 10.0941 27.8261 8.94256 28.8838C4.38754 33.0806 2.6986 34.471 1.62382 33.5327C1.04378 33.0379 1.35939 32.2532 1.62382 31.6134C3.21062 28.1133 4.9758 24.6968 6.91242 21.3774C11.3139 13.7004 11.8598 13.7004 12.4399 13.7004C13.2929 13.7004 13.8047 14.5108 17.6432 21.2751C18.59 23.0067 19.8865 25.2671 21.149 27.2887L21.4817 26.7513C25.3457 20.4989 26.7532 18.5369 28.0498 18.6052C28.7663 18.6052 30.0799 19.407 32.3659 21.0874C35.2405 15.9694 36.4518 14.1269 37.6545 14.1269C40.0003 14.1269 45.8775 24.6956 47.4896 28.355C49.1018 32.0143 48.8459 33.0721 48.3426 33.6521C47.4043 34.6757 46.0481 33.8568 37.1683 26.9049C35.8462 25.8727 34.3449 24.6956 32.9033 23.6294C28.826 30.8543 26.702 34.2577 24.7657 34.2833H24.7486ZM22.1043 28.8838C23.273 30.7519 24.288 32.2105 24.8169 32.5347C26.122 32.1764 29.5425 26.0604 31.4873 22.5631C30.399 21.6949 29.2208 20.9457 27.973 20.3282C27.0347 20.8912 24.433 25.105 22.855 27.6555C22.6076 28.0991 22.3517 28.5256 22.1043 28.9094V28.8838ZM33.7051 22.0598C34.942 23.0067 36.4177 24.1497 38.1493 25.4718C41.2286 27.8773 45.3059 31.0675 46.9522 31.9546C46.4404 28.8753 39.7359 17.1124 37.6375 15.7988C36.8783 16.5153 35.1638 19.5008 33.7051 22.1196V22.0598ZM12.3801 23.9876C13.2331 23.9876 13.8985 25.0795 15.5789 28.1332C16.2586 29.4571 17.0311 30.7312 17.8905 31.9461C18.6605 30.956 19.3726 29.9222 20.023 28.8497C18.9568 27.1437 17.6687 24.8747 16.0651 22.0257C14.7174 19.6544 13.0967 16.7968 12.2948 15.6623C10.5206 17.9569 5.21495 27.3911 3.47483 31.2381C4.71168 30.2828 6.49445 28.6791 7.73983 27.519C10.913 24.7468 11.7063 24.0473 12.4143 24.0473L12.3801 23.9876ZM28.0498 20.2344L37.4328 15.7476L28.0498 20.2344Z" fill="#687078"/>
</svg>
