<svg width="20px" height="20px" viewBox="0 0 20 20" version="1.1" xmlns="http://www.w3.org/2000/svg" xmlns:xlink="http://www.w3.org/1999/xlink">
    <g transform="translate(2,2)" stroke="none" stroke-width="1" fill="none" fill-rule="evenodd">
        <path d="M8.00007059,-0.999717646 C10.4852393,-0.999717646 12.735262,0.00762039856 14.3639704,1.63630007 C15.9926202,3.26492105 17,5.51483259 17,8.00007059 C17,10.4852715 15.9926245,12.7352576 14.3639411,14.3639411 C12.7352576,15.9926245 10.4852715,17 8.00007059,17 C5.51486591,17 3.26483696,15.9926198 1.6361166,14.3639281 C0.0074039296,12.7352442 -1,10.4852629 -1,8.00007059 C-1,5.51482193 0.00738803273,3.26490176 1.63606898,1.63627829 C3.26479081,0.0076139467 5.51483799,-0.999717646 8.00007059,-0.999717646 Z" id="path4486-path" stroke="#F2F3F3" stroke-width="2" fill="#E6522C" fill-rule="nonzero"></path>
        <path d="M10.2762655,13.0975444 C10.2762655,14.1329357 9.25710958,14.972797 8.00007059,14.972797 C6.7430316,14.972797 5.72387566,14.1330769 5.72387566,13.0975444 L10.2762655,13.0975444 Z M11.7597522,11.1130209 L11.7597522,12.4765073 L4.24010659,12.4765073 L4.24010659,11.1130209 L11.7597522,11.1130209 Z M8.06628255,0.930355678 C7.6341401,1.64259307 8.17823582,2.2531831 8.66190783,3.76786991 C8.84332013,4.33681276 8.82016712,5.29427439 8.96021459,5.90147618 C9.00666178,4.64034306 9.22350948,2.80024353 10.0235589,2.16494754 C9.67061668,2.96499696 10.0757943,3.96608225 10.3529246,4.44735426 C10.8000318,5.22382713 11.0710914,5.81211121 11.0710914,6.92472625 C11.0710914,7.67070491 10.7956553,8.37305992 10.3310422,8.92209683 C10.8593261,8.82299066 11.2241271,8.73362569 11.2241271,8.73362569 L12.9397087,8.39889529 C12.9398498,8.39875411 12.6905314,9.42398066 11.7326463,10.4112306 L4.26156548,10.4112306 C4.23671834,10.3825717 4.2113065,10.3543363 4.18730643,10.3252539 C3.41761005,9.39066291 3.23633893,8.9027556 3.06028433,8.4055306 C3.05831254,8.39461293 3.47378199,8.48327201 3.94770808,8.58784748 L4.23620666,8.65183345 C4.38109147,8.68411213 4.52477566,8.7163174 4.65756664,8.74619043 C4.65756664,8.74619043 4.9992147,8.82524949 5.49869853,8.91630858 C5.01912064,8.35414222 4.73436687,7.63950482 4.73436687,6.90905561 C4.73436687,5.30542737 5.96429989,3.9041056 5.52058094,2.77144345 C5.95244104,2.80659649 6.41437181,3.68288142 6.4455719,5.0530031 C6.90467913,4.41855417 7.09682087,3.25991547 7.09682087,2.54951338 C7.09682087,1.81398181 7.58148112,0.959579293 8.06628255,0.930355678 Z" id="Combined-Shape" fill="#FFFFFF" fill-rule="nonzero"></path>
    </g>
</svg>
