<?xml version="1.0" encoding="UTF-8"?>
<svg width="50px" height="50px" viewBox="0 0 50 50" version="1.1" xmlns="http://www.w3.org/2000/svg" xmlns:xlink="http://www.w3.org/1999/xlink">
    <title>Cw Icons / ServiceMapFilled / rds</title>
    <g id="Cw-Icons-/-ServiceMapFilled-/-rds" stroke="none" stroke-width="1" fill="none" fill-rule="evenodd">
        <path d="M9.48442636,39.0924423 L10.8986399,40.5066558 L3.405,48 L10,48 L10,50 L1,50 C0.44771525,50 0,49.5522847 0,49 L0,40 L2,40 L2,46.576 L9.48442636,39.0924423 Z M40.612203,39.1961966 L48,46.584 L48,40 L50,40 L50,49 C50,49.5522847 49.5522847,50 49,50 L40,50 L40,48 L46.588,48 L39.1979895,40.6104102 L40.612203,39.1961966 Z M25,11.52 C30.297168,11.52 35.9725016,12.8435797 35.9999004,15.738931 L36,15.74 L36,34.26 C36,37.17 30.3,38.5 25,38.5 C19.7,38.5 14,37.17 14,34.26 L14,15.74 L14.001,15.739 L14.0056065,15.6028382 C14.2067835,12.802076 19.7865455,11.52 25,11.52 Z M39.78,15.32 C46.28,17.52 50,21 50,24.75 C50,28.5 46.28,32 39.78,34.18 L39.14,32.28 C44.69,30.41 48,27.59 48,24.75 C48,21.91 44.69,19.09 39.14,17.22 L39.78,15.32 Z M9.66,15.54 L10.34,17.42 C5.15,19.29 2.05,22 2.05,24.75 C2.05,27.5 5.15,30.21 10.34,32.08 L9.66,34 C3.55,31.76 0.05,28.4 0.05,24.75 C0.05,21.1 3.55,17.75 9.66,15.54 Z M16,28.58 L14,28.58 C14,31.49 19.71,32.82 25,32.82 C30.31,32.82 36,31.49 36,28.58 L36,28.58 L34,28.58 C34,29.23 30.85,30.82 25,30.82 C19.15,30.82 16,29.23 16,28.58 L16,28.58 Z M16,22.22 L14,22.22 C14,25.13 19.71,26.45 25,26.45 C30.31,26.45 36,25.13 36,22.22 L36,22.22 L34,22.22 C34,22.87 30.85,24.45 25,24.45 C19.15,24.45 16,22.87 16,22.22 L16,22.22 Z M25,13.5 L25,13.52 C19.17,13.52 16,15.11 16,15.76 C16,16.41 19.15,18 25,18 C30.85,18 34,16.41 34,15.76 C34,15.11 30.81,13.5 25,13.5 Z M10,0 L10,2 L3.414,2 L10.9028968,9.4890873 L9.48868325,10.9033009 L2,3.414 L2,10 L0,10 L0,1 C0,0.44771525 0.44771525,0 1,0 L10,0 Z M49,0 C49.5522847,0 50,0.44771525 50,1 L50,10 L48,10 L48,3.422 L40.6157492,10.8073496 L39.2015357,9.39313603 L46.593,2 L40,2 L40,0 L49,0 Z" id="Combined-Shape" fill="currentColor"></path>
    </g>
</svg>