<?xml version="1.0" encoding="UTF-8"?>
<svg width="34px" height="50px" viewBox="0 0 34 50" version="1.1" xmlns="http://www.w3.org/2000/svg" xmlns:xlink="http://www.w3.org/1999/xlink">
    <title>Cw Icons / ServiceMapFilled / redshift</title>
    <g id="Cw-Icons-/-ServiceMapFilled-/-redshift" stroke="none" stroke-width="1" fill="none" fill-rule="evenodd">
        <path d="M17,0 C25.1205797,0 33.7461962,2.32122663 33.9945084,6.62867781 L34,6.82 L34,43.18 C34,47.61 25.24,50 17,50 C8.76,50 0,47.61 0,43.18 L0,6.82 C0,2.4 8.76,0 17,0 Z M27.8744004,15.7309932 C26.5682775,15.1734705 25.0547384,15.4604478 24.0433519,16.4573859 C23.0319653,17.4543241 22.7232413,18.9635776 23.2619141,20.2775868 C23.5356319,20.9452791 24.0005734,21.4952969 24.5780523,21.8748498 L24.5780523,21.8748498 L22.9398057,26.0273668 C22.7957436,26.0093055 22.6489585,26 22.5,26 C21.0540878,26 19.8129591,26.8767819 19.2792792,28.1276801 L19.2792792,28.1276801 L14.9920265,27.1518689 C14.8696137,25.3299307 13.3529638,23.89 11.5,23.89 C9.56700338,23.89 8,25.4570034 8,27.39 C8,28.4754881 8.49414897,29.4455616 9.26976596,30.0875394 L9.26976596,30.0875394 L7.90255747,33.2928993 C7.77046685,33.277773 7.63614116,33.27 7.5,33.27 C5.56700338,33.27 4,34.8370034 4,36.77 C4,38.7029966 5.56700338,40.27 7.5,40.27 C9.43299662,40.27 11,38.7029966 11,36.77 C11,35.689215 10.5101238,34.7228468 9.74029985,34.0808237 L9.74029985,34.0808237 L11.1105581,30.8685776 C11.2384218,30.8827328 11.3683622,30.89 11.5,30.89 C12.8098703,30.89 13.9516794,30.1704445 14.5517142,29.1050464 L14.5517142,29.1050464 L19.0563897,30.1291294 C19.3527414,31.7618739 20.7817808,33 22.5,33 C24.4329966,33 26,31.4329966 26,29.5 C26,28.4333245 25.5228308,27.4780978 24.770306,26.8361335 L24.770306,26.8361335 L26.5,22.45 C28.4136376,22.4501953 29.9726623,20.9134423 30,19 C30.0202877,17.5800081 29.1805233,16.2885158 27.8744004,15.7309932 Z M7.5,35.27 C8.32842712,35.27 9,35.9415729 9,36.77 C9,37.5984271 8.32842712,38.27 7.5,38.27 C6.67157288,38.27 6,37.5984271 6,36.77 C6,35.9415729 6.67157288,35.27 7.5,35.27 Z M22.5,28 C23.3284271,28 24,28.6715729 24,29.5 C24,30.3284271 23.3284271,31 22.5,31 C21.6715729,31 21,30.3284271 21,29.5 C21,28.6715729 21.6715729,28 22.5,28 Z M11.5,25.89 C12.3284271,25.89 13,26.5615729 13,27.39 C13,28.2184271 12.3284271,28.89 11.5,28.89 C10.6715729,28.89 10,28.2184271 10,27.39 C10,26.5615729 10.6715729,25.89 11.5,25.89 Z M26.5,17.4499998 C26.9066413,17.449774 27.2959497,17.6146543 27.5787368,17.9068676 C27.8615239,18.199081 28.0135548,18.5935846 28,19 C27.972606,19.8213597 27.2893912,20.4677478 26.4677744,20.4496354 C25.6461577,20.4315231 24.9920917,19.7556549 25.0009201,18.933886 C25.0097485,18.112117 25.6781838,17.4504567 26.5,17.4499998 Z M17,2 C7.71,2 2,4.8 2,6.82 C2,8.84 7.71,11.63 17,11.63 C26.29,11.63 32,8.83 32,6.82 C32,4.81 26.29,2 17,2 Z" id="Combined-Shape" fill="currentColor"></path>
    </g>
</svg>