<?xml version="1.0" encoding="UTF-8"?>
<svg width="50px" height="50px" viewBox="0 0 50 50" version="1.1" xmlns="http://www.w3.org/2000/svg" xmlns:xlink="http://www.w3.org/1999/xlink">
    <title>Cw Icons / ServiceMapFilled / route53</title>
    <g id="Cw-Icons-/-ServiceMapFilled-/-route53" stroke="none" stroke-width="1" fill="none" fill-rule="evenodd">
        <path d="M25.01,0 C25.3306977,0 25.6348088,0.14252412 25.84,0.388986252 C27.98,3.18898625 30.18,4.38898625 32.97,4.38898625 C35.8201435,4.23572712 38.4801656,2.9111447 40.32,0.728986252 C40.5291656,0.50128888 40.8318948,0.383150655 41.14,0.408986252 C41.4512126,0.419902112 41.7395771,0.575175273 41.92,0.828986252 C42.4218868,1.51955229 43.563147,2.95201936 44.7929905,4.47188744 L45.1640502,4.92981539 C47.089231,7.30256048 49.0949057,9.72804286 49.13,9.76898625 C49.497485,10.2152339 49.4396524,10.8736358 49,11.2489863 C46.8021383,13.1923919 45.4913121,15.9476547 45.37,18.8789863 C45.37,21.0689863 46.3,22.6889863 47.37,24.5589863 C49.0123541,26.9810541 49.925148,29.8235569 50,32.7489863 C50,38.7489863 45.09,43.2689863 36.87,44.7489863 C32.8155309,45.6132192 28.9867993,47.3163916 25.63,49.7489863 C25.4500524,49.8887065 25.2277903,49.9627939 25,49.959126 C24.7710047,49.9599502 24.5486159,49.8822906 24.37,49.7389863 C21.0104042,47.3112476 17.182735,45.6085478 13.13,44.7389863 C4.91,43.2689863 0,38.7789863 0,32.7489863 C0.0792258648,29.8197501 1.00291632,26.9757558 2.66,24.5589863 C3.74,22.6889863 4.66,21.0689863 4.66,18.8789863 C4.53215448,15.9428077 3.20995035,13.1864094 1,11.2489863 C0.778057588,11.0739632 0.640549459,10.8131904 0.621494874,10.5311825 C0.60244029,10.2491747 0.703619154,9.97227439 0.9,9.76898625 C0.950943396,9.73332587 2.47338199,7.88879045 4.13067458,5.84569548 L4.50063838,5.38906041 C5.9850267,3.55468223 7.49773585,1.6576655 8.1,0.828986252 C8.28042294,0.575175273 8.56878738,0.419902112 8.88,0.408986252 C9.19020468,0.388787381 9.49364033,0.505774618 9.71,0.728986252 C11.5452283,2.91156287 14.2024625,4.23655979 17.05,4.38898625 C19.84,4.38898625 22.05,3.14898625 24.18,0.388986252 C24.3851912,0.14252412 24.6893023,0 25.01,0 Z M25,2.61898625 C23.0677691,5.06612885 20.1179985,6.48939314 17,6.47898625 C13.9926037,6.37496521 11.1353851,5.13921819 9,3.01898625 C7.46,5.06898625 4.43,8.75898625 3.13,10.3489863 C5.38427903,12.6248494 6.6829648,15.6765821 6.76,18.8789863 C6.76,21.6289863 5.59,23.6489863 4.46,25.5989863 C3.24,27.7089863 2.09,29.6889863 2.09,32.7489863 C2.09,40.0689863 10.83,42.2089863 13.5,42.6889863 C17.6264962,43.5456648 21.5378161,45.2258318 25,47.6289863 C28.465176,45.2246046 32.380014,43.5443874 36.51,42.6889863 C39.19,42.2089863 47.93,40.0689863 47.93,32.7489863 C47.93,29.6889863 46.78,27.7489863 45.56,25.5989863 C44.42,23.6489863 43.25,21.5989863 43.25,18.8789863 C43.3256546,15.6743087 44.6286128,12.6209478 46.89,10.3489863 C45.59,8.75898625 42.57,5.06898625 41,3.01898625 C38.8668791,5.14256109 36.0082816,6.3789045 33,6.47898625 C29.8823407,6.48789894 26.9331894,5.06493347 25,2.61898625 Z M25.59,7.08898625 C27.7429678,8.64889031 30.3415391,9.47299863 33,9.43898625 C35.3799843,9.41802701 37.7133862,8.77694465 39.77,7.57898625 C40.1854999,7.36030128 40.6971886,7.46014298 41,7.81898625 L42.6,9.81898625 C42.8625596,10.1448194 42.8944794,10.5996767 42.68,10.9589863 C41.1359896,13.316309 40.3092247,16.0710342 40.3,18.8889863 C40.3,22.4389863 41.74,24.8889863 43.01,27.0989863 C44.11,28.9989863 45.01,30.4989863 45.01,32.7589863 C45.01,37.7589863 38.13,39.4089863 36.01,39.7589863 C32.3139904,40.4844684 28.7694595,41.8373428 25.53,43.7589863 C25.3763037,43.8753444 25.1922511,43.9447982 25,43.9589863 C24.8239138,43.9571575 24.6514328,43.9088628 24.5,43.8189863 C21.2590879,41.9003516 17.7150881,40.5476799 14.02,39.8189863 C11.91,39.4389863 5.02,37.8189863 5.02,32.8189863 C5.02,30.5589863 5.89,29.0589863 7.02,27.1589863 C8.22,25.0789863 9.72,22.4989863 9.72,18.9489863 C9.72019387,16.1123727 8.89687389,13.3367074 7.35,10.9589863 C7.11554235,10.5968699 7.13972957,10.1252191 7.41,9.78898625 C7.93,9.15898625 8.48,8.48898625 9.01,7.78898625 C9.31781687,7.40940628 9.85489403,7.30791139 10.28,7.54898625 C12.3366138,8.74694465 14.6700157,9.38802701 17.05,9.40898625 C19.6951845,9.4473856 22.2825831,8.63400282 24.43,7.08898625 C24.7771643,6.84180822 25.2428357,6.84180822 25.59,7.08898625 Z M35.39,18.2689863 L27,18.2689863 L27,19.9589863 L33.1,19.9589863 L28.73,24.6889863 L28.73,26.0489863 C29.3943341,25.9790752 30.0620056,25.9456916 30.73,25.9489863 C32.83,25.9489863 33.88,26.7789863 33.88,28.4389863 C33.9280315,29.2003073 33.6172428,29.9402804 33.04,30.4389863 C32.3442675,30.9490509 31.4907252,31.1969677 30.63,31.1389863 C29.4646756,31.1009046 28.3112078,30.8993424 27.2032747,30.5407898 L26.79,30.3989863 L26.79,32.1089863 C27.9983701,32.6496291 29.3062143,32.9323142 30.63,32.9389863 C32.0321423,33.0092021 33.4138372,32.5805224 34.53,31.7289863 C35.4931917,30.9384914 36.0329871,29.7442865 35.99,28.4989863 C36.0520361,27.3709451 35.6128821,26.2730601 34.79,25.4989863 C33.9553092,24.7851659 32.8955017,24.3946091 31.8026866,24.3925383 L31.55,24.3989863 L31.14,24.3989863 L35.39,19.8989863 L35.39,18.2689863 Z M23.34,18.2689863 L15.82,18.2689863 L15.42,24.4389863 L15.42,25.8489863 C16.4823475,25.7254215 17.5505343,25.6586598 18.62,25.6489863 C19.5234731,25.5724816 20.4261335,25.8051987 21.18,26.3089863 C21.746933,26.861521 22.0336377,27.6407698 21.96,28.4289863 C21.9927843,29.1856043 21.6888782,29.9179081 21.13,30.4289863 C20.4384058,30.9482039 19.5826283,31.2003209 18.72,31.1389863 C17.534338,31.1016759 16.3602885,30.9002646 15.231225,30.5410686 L14.81,30.3989863 L14.77,32.0489863 C16.0053868,32.6040785 17.3456582,32.8871384 18.7,32.8789863 C20.0956878,32.9442742 21.467527,32.5000258 22.56,31.6289863 C23.5283138,30.8241989 24.0708119,29.6174173 24.03,28.3589863 C24.0976514,27.1476966 23.6382282,25.9663227 22.77,25.1189863 C21.8013494,24.2930341 20.5507577,23.8737813 19.28,23.9489863 C18.7429728,23.9546865 18.2072065,23.9986626 17.6767672,24.080508 L17.28,24.1489863 L17.55,19.9589863 L23.34,19.9589863 L23.34,18.2689863 Z" id="Combined-Shape" fill="currentColor"></path>
    </g>
</svg>