<?xml version="1.0" encoding="UTF-8"?>
<svg width="50px" height="50px" viewBox="0 0 50 50" version="1.1" xmlns="http://www.w3.org/2000/svg" xmlns:xlink="http://www.w3.org/1999/xlink">
    <title>Group 2</title>
    <defs>
        <polygon id="path-1" points="0 0 1.58618497 0 1.58618497 1.55461673 0 1.55461673"></polygon>
    </defs>
    <g id="Page-1" stroke="none" stroke-width="1" fill="none" fill-rule="evenodd">
        <g id="Artboard" transform="translate(-236.000000, -55.000000)">
            <g id="Group-2" transform="translate(236.000000, 55.000115)">
                <path d="M21.0111359,25.4076566 C26.9981601,25.4076566 31.2792918,27.1190306 34.3405732,29.5664926 C30.4032849,31.2129679 27.62327,35.126599 27.62327,39.6731865 C27.62327,42.2448169 28.5126618,44.6139498 29.9976655,46.4848694 L0,46.4857465 C0,32.4336866 7.00412527,25.4076566 21.0111359,25.4076566 Z" id="Shape" fill="currentColor"></path>
                <path d="M9.08870148,12.0709357 C9.08870148,5.40548282 14.4563971,0 21.0806173,0 C27.7024361,0 33.0701317,5.40548282 33.0701317,12.0709357 C33.0701317,18.7363885 27.7024361,24.1418713 21.0806173,24.1418713 C14.4563971,24.1418713 9.08870148,18.7363885 9.08870148,12.0709357" id="Stroke-1-Copy" fill="currentColor"></path>
                <g id="Group" transform="translate(29.166667, 27.916547)">
                    <g id="Group-7-Copy" transform="translate(19.247148, 8.772425)">
                        <mask id="mask-2" fill="white">
                            <use xlink:href="#path-1"></use>
                        </mask>
                        <g id="Clip-6"></g>
                        <path d="M0,1.55461673 L1.53346548,1.55461673 L1.5863436,1.4990947 C1.5863436,0.999396468 1.53346548,0.499698234 1.48058736,0 L0,1.55461673 Z" id="Fill-5" fill="currentColor" mask="url(#mask-2)"></path>
                    </g>
                    <path d="M10.9981616,7.93970524 L16.7089986,1.94332643 C16.3917299,1.72123833 16.1273393,1.49915022 15.8100706,1.33258415 L10.9981616,6.38508851 L10.9981616,7.93970524 Z" id="Fill-8-Copy" fill="currentColor"></path>
                    <path d="M14.7525082,0.777419408 C14.3823613,0.61085333 14.0122145,0.499809278 13.6420676,0.388765226 L10.9981616,3.16486653 L10.9981616,4.77500528 L14.7525082,0.777419408 Z" id="Fill-10-Copy" fill="currentColor"></path>
                    <path d="M12.3729928,0.111044052 C11.8970897,0.055522026 11.4211866,0 10.9452835,0 L10.9452835,1.61013875 L12.3729928,0.111044052 Z" id="Fill-12-Copy" fill="currentColor"></path>
                    <path d="M14.7525082,10.3270413 L19.5644171,5.27453695 C19.4057827,4.94140479 19.1942702,4.60827264 18.9827578,4.33066251 L13.2190427,10.3825633 L14.7525082,10.3270413 Z" id="Fill-14-Copy" fill="currentColor"></path>
                    <path d="M11.6854715,10.3270413 L18.2423583,3.44231009 C18.1366021,3.33126604 18.0308459,3.16469996 17.8722115,3.05365591 L17.5020647,2.66500173 L10.9451778,9.54973295 L10.9451778,10.3825633 L11.6854715,10.3825633 L11.6854715,10.3270413 Z" id="Fill-16-Copy" fill="currentColor"></path>
                    <path d="M17.7664553,10.3270413 L20.4632394,7.49541799 C20.3574831,7.10676381 20.2517269,6.71810962 20.0930925,6.32945544 L16.2858679,10.3270413 L17.7664553,10.3270413 Z" id="Fill-18-Copy" fill="currentColor"></path>
                    <path d="M9.57061675,1.77670483 C4.29910057,1.77670483 0,6.29076043 0,11.8258524 C0,17.3609444 4.29910057,21.875 9.57061675,21.875 C14.8421329,21.875 19.1412335,17.3609444 19.1412335,11.8258524 L9.57061675,11.8258524 L9.57061675,1.77670483 Z" id="Stroke-20-Copy-2" fill="currentColor"></path>
                </g>
            </g>
        </g>
    </g>
</svg>