<?xml version="1.0" encoding="UTF-8"?>
<svg width="48px" height="50px" viewBox="0 0 48 50" version="1.1" xmlns="http://www.w3.org/2000/svg" xmlns:xlink="http://www.w3.org/1999/xlink">
    <title>Cw Icons / ServiceMapFilled / s3</title>
    <g id="Cw-Icons-/-ServiceMapFilled-/-s3" stroke="none" stroke-width="1" fill="none" fill-rule="evenodd">
        <path d="M22.5737183,0 C33.2537183,0 45.1337183,3.26 45.1337183,7.93 L45.1338369,8.03679841 C45.1768435,8.18827711 45.1848905,8.35014242 45.1537183,8.51 L43.272,22.245 L42.9273064,22.0402539 L42.52,25.042 L42.79,23.1444914 C43.0051724,23.2686329 43.2125922,23.3908772 43.4123871,23.511325 L43.9890258,23.8673797 C46.2974435,25.3293232 47.4344828,26.5262889 47.65,27.6548479 C47.7384773,28.2157376 47.5812141,28.7880356 47.22,29.2196654 C46.6284526,29.8393993 45.7922294,30.1483452 44.95,30.0583258 C43.9363874,30.0270388 42.9297074,29.8760325 41.95,29.6083129 L40.84,29.301486 L39.97,29.0867071 C34.8303973,27.3098384 29.7987458,25.2228748 24.9014969,22.836943 L23.9033345,22.3452971 C23.5308402,22.6185928 23.0711286,22.78 22.5737183,22.78 C22.3883934,22.78 22.2083017,22.7575942 22.0360042,22.7153437 C20.8939949,22.6049495 20,21.6212318 20,20.4239589 C20,19.1530399 21.0073593,18.1227566 22.25,18.1227566 C22.6514026,18.1227566 23.0282549,18.2302609 23.3545335,18.4186539 C24.212102,18.7363266 24.8237183,19.561738 24.8237183,20.53 L24.823,20.5317566 L25.8181407,21.0193342 C30.51536,23.2911294 35.3296749,25.301392 40.24,27.0411939 L41.35,27.3787036 L42.19,27.60371 L42.6899854,27.725509 L43.141516,27.8248103 C43.2842128,27.8543749 43.4192274,27.8805103 43.5469534,27.9035372 L43.9086589,27.963613 C44.0222012,27.9807434 44.1288484,27.9950859 44.2289942,28.0069609 L44.5103207,28.0355042 L44.755,28.051166 L44.9653936,28.0558698 L45.2218641,28.0465862 L45.356875,28.032309 L45.5113411,28.0035691 L45.5857289,27.9823312 L45.64,27.9616748 L45.6154382,27.9074455 L45.578615,27.8394563 L45.4943278,27.7106273 L45.4147266,27.6061475 L45.2532819,27.4203427 L45.113582,27.2763857 L44.9449928,27.1158015 L44.744743,26.9381122 C44.7085757,26.9070453 44.6709738,26.8752458 44.6318794,26.8427038 L44.3789426,26.6384607 L44.087417,26.4159179 C44.0354597,26.3772759 43.9817791,26.3378515 43.9263173,26.2976347 L43.5717123,26.0467461 C43.5088953,26.00332 43.4441818,25.9590817 43.377514,25.9140211 L42.953594,25.6337115 L42.48,25.334 L42.3317228,26.4342151 L42.668,26.661 L42.667,26.669 L42.4316036,26.6112526 L41.6033594,26.3893173 L40.5249703,26.0608446 L39.2072055,25.5861988 C34.8198616,23.9809795 30.4859127,22.1455823 26.2456128,20.0947369 L25.4192817,19.6896197 L25.4059896,19.6270209 C25.0565902,18.1742668 23.7742215,17.1 22.25,17.1 C20.4550746,17.1 19,18.5881871 19,20.4239589 C19,22.2597307 20.4550746,23.7479177 22.25,23.7479177 L22.4728219,23.740182 C22.8420422,23.7144823 23.1996578,23.6251788 23.5328117,23.4787248 L23.719,23.388 L24.4870865,23.7678904 C29.404383,26.1636114 34.4727084,28.2657862 39.6497718,30.0556057 L40.6053595,30.2956894 L41.689091,30.5956447 L42.114,30.704 L40.2437183,44.37 C40.1937183,45.75 38.9537183,46.93 36.5337183,47.89 C35.4535933,48.3058222 34.3438174,48.640092 33.2137183,48.89 C29.718768,49.6508082 26.150445,50.0230675 22.5737183,50 C15.7837183,50 5.00371827,48.47 4.90371827,44.37 L0.073718268,8.51 C0.0609397163,8.44446897 0.0547515745,8.379181 0.0546923909,8.31482113 L0.003718268,8.06 C-0.00123942267,8.01680847 -0.00123942267,7.97319153 0.003718268,7.93 C0.003718268,3.26 11.8937183,0 22.5737183,0 Z M22.5737183,20.28 C22.4356471,20.28 22.3237183,20.3919288 22.3237183,20.53 C22.3237183,20.8 22.8237183,20.8 22.8237183,20.53 C22.8237183,20.3919288 22.7117895,20.28 22.5737183,20.28 Z M22.5737183,2 C10.5937183,2 2.14371827,5.78 2.00371827,7.88 L2.00430184,7.89966967 C2.03509487,7.96882911 2.05861098,8.04252672 2.07371827,8.12 C2.43555918,9.51375761 6.18287171,11.2846765 12.2024552,12.3015041 C15.1484825,12.7905085 18.6353157,13.1 22.5337183,13.1 C34.3637183,13.1 42.4037183,10.25 43.0537183,8.17 L43.0537183,7.88 C43.0037183,5.78 34.5537183,2 22.5737183,2 Z" id="Combined-Shape" fill="currentColor"></path>
    </g>
</svg>