<?xml version="1.0" encoding="UTF-8"?>
<svg width="50px" height="38px" viewBox="0 0 50 38" version="1.1" xmlns="http://www.w3.org/2000/svg" xmlns:xlink="http://www.w3.org/1999/xlink">
    <title>Cw Icons / ServiceMapFilled / service</title>
    <g id="Cw-Icons-/-ServiceMapFilled-/-service" stroke="none" stroke-width="1" fill="none" fill-rule="evenodd">
        <path d="M42,21 L26,21 L26,29 L30.9090909,29 C31.2354405,29 31.5,29.3979698 31.5,29.8888889 L31.5,36.1111111 C31.5,36.6020302 31.2354405,37 30.9090909,37 L19.0909091,37 C18.7645595,37 18.5,36.6020302 18.5,36.1111111 L18.5,29.8888889 C18.5,29.3979698 18.7645595,29 19.0909091,29 L24,29 L24,21 L8,21 L8,29 L12.4090909,29 C12.7354405,29 13,29.3979698 13,29.8888889 L13,36.1111111 C13,36.6020302 12.7354405,37 12.4090909,37 L0.590909091,37 C0.264559455,37 0,36.6020302 0,36.1111111 L0,29.8888889 C0,29.3979698 0.264559455,29 0.590909091,29 L6,29 L6,20 C6,19.447715 6.447715,19 7,19 L24,19 L24,10 L15,10 C14.447716,10 14,9.60203022 14,9.11111111 L14,2.88888889 C14,2.39796978 14.447716,2 15,2 L35,2 C35.552284,2 36,2.39796978 36,2.88888889 L36,9.11111111 C36,9.60203022 35.552284,10 35,10 L26,10 L26,19 L43,19 C43.552284,19 44,19.447715 44,20 L44,29 L48.9090909,29 C49.2354405,29 49.5,29.3979698 49.5,29.8888889 L49.5,36.1111111 C49.5,36.6020302 49.2354405,37 48.9090909,37 L37.0909091,37 C36.7645595,37 36.5,36.6020302 36.5,36.1111111 L36.5,29.8888889 C36.5,29.3979698 36.7645595,29 37.0909091,29 L42,29 L42,21 Z" id="Combined-Shape" fill="#545B64" fill-rule="nonzero"></path>
    </g>
</svg>