<?xml version="1.0" encoding="UTF-8"?>
<svg width="53px" height="53px" viewBox="0 0 53 53" version="1.1" xmlns="http://www.w3.org/2000/svg" xmlns:xlink="http://www.w3.org/1999/xlink">
    <title>Cw Icons / ServiceMapFilled / servicelensunknownnode</title>
    <g id="Cw-Icons-/-ServiceMapFilled-/-servicelensunknownnode" stroke="none" stroke-width="1" fill="none" fill-rule="evenodd">
        <path d="M30.1227441,0.270571685 C32.0630299,0.550627818 33.5682894,2.10754197 33.7827448,4.05616951 C33.8562681,4.72423105 34.2921404,5.2973279 34.9163004,5.54659933 C35.5404603,5.79587076 36.2512067,5.68070025 36.7647098,5.24708005 C38.2905047,3.95864474 40.5025394,3.89023081 42.1050395,5.08191405 C42.8947802,5.66919682 43.650777,6.30001913 44.3695719,6.97136044 C45.5273945,8.05274578 46.5858087,9.2365684 47.531791,10.5086655 C48.5718566,11.9072799 48.6588134,13.7845778 47.7518436,15.3076328 L47.6279032,15.5042148 L47.3925761,15.8179684 C46.9577656,16.3428181 46.8528048,17.0666854 47.1310193,17.7185358 C47.4070144,18.4092681 47.9770957,18.8513404 48.6518742,18.9255566 C50.6006241,19.1398919 52.15769,20.6451961 52.4377616,22.5855892 C52.7985239,25.0850234 52.7985239,27.6233099 52.4377616,30.1227441 C52.1531456,32.0946221 50.551302,33.6127706 48.567001,33.7912605 C47.89416,33.8517833 47.3102654,34.2801707 47.0505752,34.9038206 C46.7908851,35.5274704 46.8981702,36.2436677 47.3292043,36.7638482 C48.5938591,38.2900592 48.6514742,40.4829843 47.4687055,42.0734968 C45.9339952,44.137278 44.1057352,45.9655379 42.041954,47.5002482 C40.5195603,48.6323611 38.4441684,48.6285781 36.929881,47.5150422 L36.7509311,47.3760927 L36.5478802,47.231755 C36.0556892,46.9303612 35.4436856,46.8780602 34.9014289,47.1028565 C34.281707,47.3597665 33.853675,47.9368985 33.7877206,48.6045122 C33.5932339,50.5731761 32.0807012,52.1551549 30.1227441,52.4377616 C27.6233099,52.7985239 25.0850234,52.7985239 22.5855892,52.4377616 C20.6137112,52.1531456 19.0955628,50.551302 18.9170728,48.567001 C18.8565501,47.89416 18.4281626,47.3102654 17.8045128,47.0505752 C17.1808629,46.7908851 16.4646656,46.8981702 15.9444851,47.3292043 C14.4182742,48.5938591 12.225349,48.6514742 10.6348366,47.4687055 C8.57105534,45.9339952 6.74279539,44.1057352 5.20808509,42.041954 C4.07597227,40.5195603 4.07975523,38.4441684 5.19329118,36.929881 L5.33224064,36.7509311 L5.47657834,36.5478802 C5.77797212,36.0556892 5.83027317,35.4436856 5.60547688,34.9014289 C5.34856684,34.281707 4.77143482,33.853675 4.10382111,33.7877206 C2.13515721,33.5932339 0.553178452,32.0807012 0.270571685,30.1227441 C-0.0901905617,27.6233099 -0.0901905617,25.0850234 0.270571685,22.5855892 C0.553903682,20.6226076 2.1430402,19.1080364 4.11736319,18.9192965 C4.79043731,18.8549525 5.37229757,18.4226221 5.62815412,17.7967577 C5.86268929,17.2230486 5.78781779,16.5734894 5.43846314,16.0706613 L5.33640547,15.9373316 L5.0959416,15.623437 C4.04963038,14.1197163 4.06601731,12.0966575 5.17654233,10.6032938 C6.71125263,8.53951258 8.53951258,6.71125263 10.6032938,5.17654233 C12.1417867,4.03245749 14.2424728,4.04963916 15.7583116,5.19371009 L15.9373316,5.33640547 L16.1401174,5.48439779 C16.6323835,5.79398502 17.2491262,5.8520286 17.7967577,5.62815412 C18.4226221,5.37229757 18.8549525,4.79043731 18.9192965,4.11736319 C19.1080364,2.1430402 20.6226076,0.553903682 22.5855892,0.270571685 C25.0850234,-0.0901905617 27.6233099,-0.0901905617 30.1227441,0.270571685 Z M26.8541667,16.8541667 C24.6150785,16.8541667 22.5478688,17.5900656 20.8812042,18.8331967 C18.4369389,20.6563242 16.8541667,23.5704073 16.8541667,26.8541667 C16.8541667,32.3770142 21.3313192,36.8541667 26.8541667,36.8541667 C32.3770142,36.8541667 36.8541667,32.3770142 36.8541667,26.8541667 C36.8541667,23.4596448 35.1628186,20.4601585 32.5768782,18.6524636 C30.9555238,17.5190599 28.9824923,16.8541667 26.8541667,16.8541667 Z" id="Combined-Shape" fill="currentColor"></path>
    </g>
</svg>