<?xml version="1.0" encoding="UTF-8"?>
<svg width="54px" height="48px" viewBox="0 0 54 48" version="1.1" xmlns="http://www.w3.org/2000/svg" xmlns:xlink="http://www.w3.org/1999/xlink">
    <title>Cw Icons / ServiceMapFilled / sns</title>
    <g id="Cw-Icons-/-ServiceMapFilled-/-sns" stroke="none" stroke-width="1" fill="none" fill-rule="evenodd">
        <path d="M27.0300205,0.0018151976 C32.1109845,-0.00737982672 37.0718674,1.546169 41.2400205,4.4518152 L40.1000205,6.0918152 C33.5841175,1.57558441 25.1987287,0.74216619 17.9213487,3.88749174 C11.2817017,6.75718538 6.42236037,12.5680198 4.72908181,19.5189596 C6.75833426,19.6245229 8.4303729,21.0782354 8.86808359,23.0010933 L13.9800205,23.0018152 L13.9800205,25.0018152 L8.86530621,25.001534 C8.67661668,25.820949 8.26034056,26.5781474 7.65493319,27.18087 C6.85818507,27.9740849 5.7953441,28.4385395 4.67709346,28.4875236 C6.85864881,38.9283286 16.1427936,46.0018152 27.0300205,46.0018152 C31.8400425,46.0080877 36.5293776,44.496302 40.4300205,41.6818152 L41.6000205,43.3018152 C37.3599218,46.3645906 32.2606008,48.0095329 27.0300205,48.0018422 C15.1178466,47.9851534 4.95780926,39.5853307 2.5827827,28.0667834 C1.0522025,27.3487516 -0.00531169843,25.7909546 2.00694283e-05,23.9885412 C0.00530506156,22.211727 1.04203151,20.6787533 2.54197529,19.9553301 C4.78769779,8.32223103 15.0601175,-0.142402854 27.0300205,0.0018151976 Z M46.9800205,5.5618152 C49.4653019,5.5618152 51.4800205,7.57653382 51.4800205,10.0618152 C51.4800205,12.5470966 49.4653019,14.5618152 46.9800205,14.5618152 C44.8171156,14.5618152 43.0106137,13.0358729 42.578348,11.0018217 L39.9800205,11.0018152 L39.98,23.001 L45.1084842,23.0010663 C45.2913644,22.1838687 45.7026701,21.4166472 46.3222503,20.7998268 C47.6105316,19.517284 49.5450318,19.1380911 51.2221725,19.8393638 C52.8993133,20.5406365 53.9881178,22.1839816 53.9800654,24.0018152 C53.9635617,26.4714782 51.9597324,28.4663818 49.4900205,28.4718152 C47.6721689,28.4718152 46.0337009,27.3756672 45.3399223,25.6954125 C45.2460065,25.4679586 45.1719106,25.2358772 45.1171855,25.0014076 L39.98,25.001 L39.9800205,37.0018152 L42.0818441,37.001242 C42.2621346,36.1669103 42.6795062,35.3830804 43.3125864,34.7556401 C44.6091833,33.4705942 46.5536523,33.0961974 48.2347144,33.8079116 C49.9157764,34.5196258 51.0002997,36.1764124 50.9800205,38.0018152 C50.9580675,40.4659386 48.9542417,42.4518258 46.4900205,42.4518258 C44.6645093,42.4557593 43.0174938,41.3564538 42.3208508,39.6690904 C42.2304417,39.4501073 42.1583643,39.2268516 42.1042172,39.0013117 L38.9800205,39.0018152 C38.4300205,39.0018152 37.9800205,38.0018152 37.9800205,38.0018152 L37.98,25.001 L29.9800205,25.0018152 L29.9800205,23.0018152 L37.98,23.001 L37.9800205,9.8818152 C37.9800205,9.8818152 38.4300205,8.8818152 38.9800205,9.0018152 L42.5937916,9.05189481 C43.0521759,7.05289135 44.8419684,5.5618152 46.9800205,5.5618152 Z M22.5993063,14.0033014 C24.3527085,14.0205533 30.9800205,14.2362024 30.9800205,16.9318152 C30.9800205,17.1256165 30.945808,17.3072116 30.8816484,17.4773672 L30.9300205,17.5018152 L24.9800205,29.7218152 L24.9800205,33.8418152 C24.8240199,34.1722813 24.5949096,34.4629436 24.3100205,34.6918152 C24.1300205,34.8018152 23.9000205,34.9718152 23.6400205,35.1518152 C22.6454192,35.9881846 21.4771955,36.5927916 20.2200205,36.9218152 C20.173458,36.9428385 20.1297712,36.9697227 20.0900205,37.0018152 L19.9800205,37.0018152 C19.5317376,36.7731688 19.1778605,36.3945203 18.9800205,35.9318152 L18.9800205,29.7318152 L13.6829023,17.6638389 C13.5710281,17.4443879 13.5100205,17.2043562 13.5100205,16.9418152 C13.5100205,14.2539721 19.9043919,14.022988 21.81125,14.0035317 L22.5993063,14.0033014 Z M22.2600205,15.8918152 C18.7000205,15.8918152 16.4700205,16.4918152 15.7100205,16.9318152 L15.7100205,16.9418152 C16.4700205,17.3918152 18.7100205,18.0018152 22.2600205,18.0018152 C25.8100205,18.0018152 28.0600205,17.3918152 28.8200205,16.9418152 C28.0600205,16.5018152 25.8200205,15.8918152 22.2600205,15.8918152 Z" id="Combined-Shape" fill="currentColor"></path>
    </g>
</svg>