<?xml version="1.0" encoding="UTF-8"?>
<svg width="35px" height="52px" viewBox="0 0 35 52" version="1.1" xmlns="http://www.w3.org/2000/svg" xmlns:xlink="http://www.w3.org/1999/xlink">
    <title>Cw Icons / ServiceMapFilled / sql</title>
    <g id="Cw-Icons-/-ServiceMapFilled-/-sql" stroke="none" stroke-width="1" fill="none" fill-rule="evenodd">
        <path d="M-0.0019389623,21.4019298 C0.660475396,23.8502998 3.84044262,25.7806884 8.31507952,26.8840114 L8.31507952,26.8840114 L8.96800871,27.0370874 L9.30092685,27.1092769 L9.30092685,27.1092769 L9.63801227,27.1785332 L10.3242796,27.3081439 L10.6732589,27.3684471 L10.6732589,27.3684471 L11.0260001,27.4257146 L11.7423633,27.5310405 L11.9236469,27.5554347 L11.9236469,27.5554347 L12.1057825,27.5790476 L12.8425896,27.665622 L13.6676179,27.7461116 C14.777353,27.8430192 15.9249191,27.8980369 17.0988078,27.908256 L17.0988078,27.908256 L17.9001714,27.908256 L18.6944647,27.8941483 L19.4800082,27.8661925 L20.1595364,27.8305199 C20.8352178,27.789667 21.4990843,27.7333457 22.1486629,27.6622076 L22.1486629,27.6622076 L22.8846811,27.574492 L23.6074379,27.4740909 L24.1990131,27.3808889 C24.5900314,27.3158955 24.9742139,27.2452126 25.3509276,27.169007 L25.3509276,27.169007 L26.0208093,27.0259083 L26.362579,26.9468356 C31.5672971,25.7102489 35.1139103,23.3669015 35.1299454,20.4101408 L35.1299454,20.4101408 L33.129,20.41 L33.1239512,20.5282321 C33.0233069,21.6825401 31.6709544,22.8923777 29.3841648,23.871939 L29.3841648,23.871939 L28.8951424,24.0722716 L28.5110703,24.2178186 L28.5110703,24.2178186 L28.1124624,24.3590669 L27.5588367,24.5402945 L27.0907765,24.6812048 C25.9798532,25.003101 24.7383773,25.2759011 23.3858034,25.4820801 L23.3858034,25.4820801 L22.66216,25.58456 L21.9185441,25.6741111 L21.1555901,25.750162 L20.3739325,25.812141 L19.6751381,25.85438 C18.9695682,25.8908857 18.2438846,25.91 17.5,25.91 C16.3664615,25.91 15.2751858,25.866374 14.2329404,25.7850319 L14.2329404,25.7850319 L13.4605553,25.717046 L12.707191,25.6354706 L12.118621,25.5607982 C10.3721048,25.3245508 8.79979598,24.9795075 7.44116326,24.5601354 L7.44116326,24.5601354 L6.88753755,24.381188 L6.58616757,24.2765794 C3.61326546,23.2180012 1.87,21.7896278 1.87,20.44 L1.87,20.44 L1.871,20.41 L-0.000938962296,20.409 L-7.10607788e-15,7.48 C-7.10607788e-15,3.26930556 7.41952739,0.089371142 17.214719,0.00185187864 L17.63,0 C27.68,0 35.26,3.21 35.26,7.52 L35.26,7.52 L35.26,44.52 C35.26,48.79 27.63,52 17.63,52 C7.63,52 -7.10607788e-15,48.79 -7.10607788e-15,44.48 L-7.10607788e-15,44.48 L-7.10607788e-15,33.25 C-7.10607788e-15,36.1541802 3.39945872,38.4498994 8.44507952,39.6940114 L8.44507952,39.6940114 L9.09800871,39.8470874 L9.43092685,39.9192769 L9.43092685,39.9192769 L9.76801227,39.9885332 L10.4542796,40.1181439 L10.8032589,40.1784471 L10.8032589,40.1784471 L11.1560001,40.2357146 L11.8723633,40.3410405 L12.0536469,40.3654347 L12.0536469,40.3654347 L12.2357825,40.3890476 L12.9725896,40.475622 L13.7976179,40.5561116 C14.907353,40.6530192 16.0549191,40.7080369 17.2288078,40.718256 L17.2288078,40.718256 L18.0301714,40.718256 L18.8244647,40.7041483 L19.6100082,40.6761925 L20.2895364,40.6405199 C20.9652178,40.599667 21.6290843,40.5433457 22.2786629,40.4722076 L22.2786629,40.4722076 L23.0146811,40.384492 L23.7374379,40.2840909 L24.3290131,40.1908889 C24.7200314,40.1258955 25.1042139,40.0552126 25.4809276,39.979007 L25.4809276,39.979007 L26.1508093,39.8359083 L26.492579,39.7568356 C31.6972971,38.5202489 35.2439103,36.1769015 35.2599454,33.2201408 L35.2599454,33.2201408 L33.259,33.22 L33.2539512,33.3382321 C33.1533069,34.4925401 31.8009544,35.7023777 29.5141648,36.681939 L29.5141648,36.681939 L29.0251424,36.8822716 L28.6410703,37.0278186 L28.6410703,37.0278186 L28.2424624,37.1690669 L27.6888367,37.3502945 L27.2207765,37.4912048 C26.1098532,37.813101 24.8683773,38.0859011 23.5158034,38.2920801 L23.5158034,38.2920801 L22.79216,38.39456 L22.0485441,38.4841111 L21.2855901,38.560162 L20.5039325,38.622141 L19.8051381,38.66438 C19.0995682,38.7008857 18.3738846,38.72 17.63,38.72 C16.4964615,38.72 15.4051858,38.676374 14.3629404,38.5950319 L14.3629404,38.5950319 L13.5905553,38.527046 L12.837191,38.4454706 L12.248621,38.3707982 C10.5021048,38.1345508 8.92979598,37.7895075 7.57116326,37.3701354 L7.57116326,37.3701354 L7.01753755,37.191188 L6.71616757,37.0865794 C3.74326546,36.0280012 2,34.5996278 2,33.25 L2,33.25 L2.001,33.22 L0.000122976393,33.2197806 C4.10168366e-05,33.2298467 -7.10607788e-15,33.2399198 -7.10607788e-15,33.25 Z M17.63,2 C8.42,2 2,4.94 2,7.53 C2,10.12 8.42,13 17.63,13 C26.84,13 33.26,10.07 33.26,7.48 C33.26,4.89 26.84,2 17.63,2 Z" id="Combined-Shape" fill="currentColor"></path>
    </g>
</svg>