<?xml version="1.0" encoding="UTF-8"?>
<svg width="58px" height="48px" viewBox="0 0 58 48" version="1.1" xmlns="http://www.w3.org/2000/svg" xmlns:xlink="http://www.w3.org/1999/xlink">
    <title>Cw Icons / ServiceMapFilled / sqs</title>
    <g id="Cw-Icons-/-ServiceMapFilled-/-sqs" stroke="none" stroke-width="1" fill="none" fill-rule="evenodd">
        <path d="M49.8700917,31.022673 L51.7600917,31.672673 C48.4217065,41.4644055 39.2152608,48.0404381 28.8700917,48.0227089 C18.5641394,48.0361342 9.38426137,41.5106303 6.01009167,31.772673 L7.87009167,31.122673 C10.9483848,40.108864 19.4071163,46.1373267 28.905906,46.1147105 C38.4046958,46.0920943 46.8346246,40.0234206 49.8700917,31.022673 Z M20.6700917,14.312673 C24.7700917,18.412673 33.1200917,18.412673 37.2200917,14.312673 C37.6101291,13.9249494 38.2400542,13.9249494 38.6300917,14.312673 C38.8209473,14.4997444 38.9289822,14.7554271 38.9300917,15.022673 C38.9289822,15.2899189 38.8209473,15.5456016 38.6300917,15.732673 C36.5895526,17.9924367 35.5129743,20.9602044 35.6300917,24.002673 C35.5129743,27.0451416 36.5895526,30.0129093 38.6300917,32.272673 C38.8209473,32.4597444 38.9289822,32.7154271 38.9300917,32.982673 C38.9300917,33.5349577 38.4823764,33.982673 37.9300917,33.982673 L37.9300917,34.022673 C37.6642887,34.0242098 37.4088105,33.9198595 37.2200917,33.732673 C33.1200917,29.632673 24.7700917,29.632673 20.6700917,33.732673 C20.2800542,34.1203966 19.6501291,34.1203966 19.2600917,33.732673 C19.0729052,33.5439542 18.9685549,33.288476 18.9700917,33.022673 C18.9685549,32.75687 19.0729052,32.5013918 19.2600917,32.312673 C21.3236965,30.0557123 22.4189066,27.0788955 22.3100917,24.022673 C22.4136194,20.9732885 21.3187695,18.0046298 19.2600917,15.752673 C19.0679026,15.5590799 18.9631433,15.2953755 18.9700917,15.022673 C18.9685549,14.75687 19.0729052,14.5013918 19.2600917,14.312673 C19.6501291,13.9249494 20.2800542,13.9249494 20.6700917,14.312673 Z M57.0225347,20.8252786 C58.5139918,23.0634187 58.2728158,26.020223 56.4694791,27.9856251 L56.2900917,28.172673 C55.1954957,29.2617116 53.7141594,29.8729425 52.1700917,29.8726731 C49.3937786,29.8682486 47.0071366,27.9034428 46.4695258,25.1796755 C45.9319149,22.4559082 47.3930383,19.7316394 49.9594626,18.6726779 C52.525887,17.6137164 55.4829662,18.5149405 57.0225347,20.8252786 Z M8.05649025,18.6196886 C10.2364448,19.5269845 11.6521761,21.661478 11.6401684,24.022673 C11.6430478,25.4782955 11.0977743,26.8780867 10.1187198,27.94633 L9.93009167,28.142673 C8.84966059,29.2125406 7.39060078,29.8126957 5.87009167,29.812673 C3.50895262,29.8329275 1.36957323,28.4245905 0.454739655,26.2477884 C-0.460093918,24.0709863 0.0309448717,21.5571768 1.69769259,19.8846518 C3.36444031,18.2121268 5.87653567,17.7123927 8.05649025,18.6196886 Z M16.9500917,19.902673 L20.3600917,23.312673 C20.5494043,23.5004396 20.65589,23.7560355 20.65589,24.022673 C20.65589,24.2893105 20.5494043,24.5449064 20.3600917,24.732673 L16.9500917,28.142673 L15.5400917,26.722673 L17.24,25.022 L12.8700917,25.022673 L12.8700917,23.022673 L17.24,23.022 L15.5400917,21.322673 L16.9500917,19.902673 Z M41.1400917,19.902673 L44.5300917,23.292673 C44.7194043,23.4804396 44.82589,23.7360355 44.82589,24.002673 C44.82589,24.2693105 44.7194043,24.5249064 44.5300917,24.712673 L41.1200917,28.122673 L39.7100917,26.702673 L41.39,25.022 L36.8700917,25.022673 L36.8700917,23.022673 L41.43,23.022 L39.7300917,21.322673 L41.1400917,19.902673 Z M45.9400917,7.112673 C48.523027,9.67397395 50.4833901,12.794133 51.6700917,16.232673 L49.7900917,16.892673 C47.2719869,9.69388635 41.2320192,4.29368777 33.7973568,2.59393021 C26.3626944,0.894172649 18.5761829,3.13327778 13.1800917,8.522673 C10.7938689,10.8781573 8.97761605,13.7479052 7.87009167,16.912673 L5.98009167,16.252673 C8.71003882,8.37902478 15.3035221,2.46706545 23.4272118,0.608944242 C31.5509014,-1.24917696 40.0587982,1.20866289 45.9400917,7.112673 Z" id="Combined-Shape" fill="currentColor"></path>
    </g>
</svg>