<?xml version="1.0" encoding="UTF-8"?>
<svg width="50px" height="50px" viewBox="0 0 50 50" version="1.1" xmlns="http://www.w3.org/2000/svg" xmlns:xlink="http://www.w3.org/1999/xlink">
    <title>Cw Icons / ServiceMapFilled / stepfunctions</title>
    <g id="Cw-Icons-/-ServiceMapFilled-/-stepfunctions" stroke="none" stroke-width="1" fill="none" fill-rule="evenodd">
        <path d="M25,0 C27.761423,0 30,2.238576 30,5 C30,7.41853896 28.282835,9.43601229 26.0011862,9.89974092 L26,12 L40,12 C40.552284,12 41,12.447715 41,13 L41,19 L39,19 L39,14 L11,14 L11,17 L19,17 C19.552284,17 20,17.447716 20,18 L20,23 C20,23.552284 19.552284,24 19,24 L11,24 L11,26 L19,26 C19.552284,26 20,26.447716 20,27 L20,32 C20,32.552284 19.552284,33 19,33 L11,33 L11,36 L39,36 L39,32 L41,32 L41,37 C41,37.552284 40.552284,38 40,38 L26,38 L26.0011862,40.100259 C28.282835,40.5639875 30,42.5814602 30,45 C30,47.761425 27.761423,50 25,50 C22.238577,50 20,47.761425 20,45 C20,42.5811074 21.7176659,40.563399 23.9998122,40.1000562 L24,38 L10,38 C9.447715,38 9,37.552284 9,37 L9,33 L1,33 C0.447715,33 0,32.552284 0,32 L0,27 C0,26.447716 0.447715,26 1,26 L9,26 L9,24 L1,24 C0.447715,24 0,23.552284 0,23 L0,18 C0,17.447716 0.447715,17 1,17 L9,17 L9,13 C9,12.447715 9.447715,12 10,12 L24,12 L23.9998122,9.89994373 C21.7176659,9.43660081 20,7.41889172 20,5 C20,2.238576 22.238577,0 25,0 Z M49,21 C49.552284,21 50,21.447716 50,22 L50,29 C50,29.552284 49.552284,30 49,30 L29,30 C28.447716,30 28,29.552284 28,29 L28,22 C28,21.447716 28.447716,21 29,21 L49,21 Z" id="Combined-Shape" fill="currentColor"></path>
    </g>
</svg>