<?xml version="1.0" encoding="UTF-8"?>
<svg width="18px" height="17px" viewBox="0 0 18 17" version="1.1" xmlns="http://www.w3.org/2000/svg" xmlns:xlink="http://www.w3.org/1999/xlink">
    <title>Cw Icons / ServiceMapFilled / synthetics</title>
    <g id="Cw-Icons-/-ServiceMapFilled-/-synthetics" stroke="none" stroke-width="1" fill="none" fill-rule="evenodd">
        <path d="M8.76,3.92 C14.83,3.92 16.27,9.27 16.27,9.27 L16.27,9.27 L16.27,14.99 C9.9,20.06 1.25,14.99 1.25,14.99 L1.25,14.99 L1.25001243,11.5653812 C1.2016372,11.8326564 0.987565399,12.0516823 0.721081893,12.0929902 L0.63,12.1 C0.28,12.1 0,11.82 0,11.47 L0,9.7 C0,9.38181818 0.231404959,9.1214876 0.536438768,9.07678437 L0.63,9.07 C0.94174668,9.07 1.19795851,9.29213941 1.25024,9.58802276 L1.25,9.04 C1.25,9.04 1.2542843,9.02476694 1.26337058,8.99596261 L1.28809917,8.92075131 C1.55008264,8.15140496 3.24181818,3.92 8.76,3.92 Z M16.91,9.09 C17.26,9.09 17.54,9.37 17.54,9.72 L17.54,11.49 C17.5309091,11.8081818 17.2986777,12.0685124 17.0010819,12.1132156 L16.91,12.12 C16.56,12.12 16.28,11.84 16.28,11.49 L16.28,9.72 C16.28,9.40181818 16.511405,9.1414876 16.8164388,9.09678437 L16.91,9.09 Z M8.77,0 C9.46587878,0 10.03,0.564121215 10.03,1.26 C10.03,1.95587878 9.46587878,2.52 8.77,2.52 C8.07412122,2.52 7.51,1.95587878 7.51,1.26 C7.51,0.564121215 8.07412122,0 8.77,0 Z" id="Combined-Shape" fill="currentColor"></path>
    </g>
</svg>