<?xml version="1.0" encoding="UTF-8"?>
<svg width="50px" height="48px" viewBox="0 0 50 48" version="1.1" xmlns="http://www.w3.org/2000/svg" xmlns:xlink="http://www.w3.org/1999/xlink">
    <title>Cw Icons / ServiceMapFilled / vpc</title>
    <g id="Cw-Icons-/-ServiceMapFilled-/-vpc" stroke="none" stroke-width="1" fill="none" fill-rule="evenodd">
        <path d="M38.3577492,16.8810284 L49.3577492,20.9510284 C49.7497561,21.0974924 50.0091086,21.4725559 50.0077545,21.8910284 L50.0074451,34.8083344 C49.9963125,35.4762857 49.6126953,47.5210284 38.0077439,47.5210284 C26.275276,47.5210284 26.0121098,34.4761538 26.0078069,34.0697675 L26.0077439,21.8910284 C26.0063899,21.4725559 26.2657423,21.0974924 26.6577492,20.9510284 L37.6577492,16.8810284 C37.8823809,16.790909 38.1331175,16.790909 38.3577492,16.8810284 Z M38.0077492,18.8810284 L28.0077492,22.5910284 L28.0077492,34.0610284 C28.0077492,34.5310284 28.1577492,45.5210284 38.0077492,45.5210284 C47.6175053,45.5210284 47.9946618,35.7458946 48.007343,34.832617 L48.0077492,22.5910284 L38.0077492,18.8810284 Z M38.3777492,21.1410284 L45.3777492,23.9010284 C45.7584703,24.0526557 46.0081459,24.4212246 46.0077492,24.8310284 L46.0077492,35.1910284 C46.017634,35.2506213 46.017634,35.3114355 46.0077492,35.3710284 C45.9277492,35.7110284 44.3677492,43.7810284 38.0077492,43.7810284 C31.6477492,43.7810284 30.0877492,35.7110284 30.0077492,35.3710284 C30.0028319,35.3111292 30.0028319,35.2509277 30.0077492,35.1910284 L30.0077492,24.8310284 C30.0073525,24.4212246 30.2570282,24.0526557 30.6377492,23.9010284 L37.6377492,21.1410284 C37.8753411,21.0464041 38.1401573,21.0464041 38.3777492,21.1410284 Z M30.2477492,4.1110284 C31.5563921,5.4062837 32.6201567,6.92739932 33.3877492,8.6010284 C34.4848911,7.71959611 35.8503965,7.23972857 37.2577492,7.2410284 C40.1577492,7.2410284 43.2577492,9.3110284 43.7677492,13.9110284 C46.2305112,14.4087436 48.4515588,15.7272702 50.0677492,17.6510284 L50.025,19.065 L39.1024301,15.0248359 C38.3998585,14.7429732 37.6156399,14.7429732 36.9130684,15.0248359 L25.9637314,19.0753047 C24.7817461,19.5169143 24.0036923,20.6420931 24.0077228,21.8974996 L24.0077492,32.7810284 L10.0077492,32.7810284 C4.51774921,32.7810284 0.337749213,29.1210284 0.00774921277,24.0910284 L0.00774921277,23.4010284 C-0.167582792,19.1034891 2.64866715,15.2544759 6.79774921,14.1210284 L6.79774921,13.3210284 C6.95425767,8.0268368 10.1185298,3.28625241 14.9477492,1.1110284 C20.1806804,-1.11842747 26.2442261,0.07050306 30.2477492,4.1110284 Z" id="Combined-Shape" fill="currentColor"></path>
    </g>
</svg>