<svg viewBox="0 0 64 64" fill="none" xmlns="http://www.w3.org/2000/svg"><style>.a{fill:#005EB8}.b{fill:#003B5C}@media(prefers-color-scheme:dark){.a{fill:#00A3E0}.b{fill:#B9D9EB}}</style><g class="a"><path d="M61.74 23.5a2.26 2.26 0 00-2.27 2.26 33.71 33.71 0 01-33.7 33.71 2.26 2.26 0 100 4.53A38.24 38.24 0 0064 25.76a2.26 2.26 0 00-2.26-2.26zM3.92 14A24.43 24.43 0 00.05 28.9c.86 13.73 13.3 24.14 25.03 23.02 4.6-.45 9.31-4.2 8.9-10.9-.19-2.92-1.62-4.64-3.93-5.96C27.84 33.8 25 33 21.79 32.1c-3.89-1.1-8.4-2.32-11.85-4.87-4.15-3.06-6.99-6.6-6.02-13.23z"/></g><path d="M48.08 38a24.43 24.43 0 003.87-14.9C51.09 9.36 38.65-1.05 26.92.07c-4.6.45-9.31 4.2-8.9 10.9.19 2.92 1.62 4.64 3.93 5.96C24.16 18.2 27 19 30.21 19.9c3.89 1.1 8.4 2.32 11.85 4.87 4.15 3.06 6.99 6.6 6.02 13.23z" class="b"/></svg>