<svg width="24" height="24" viewBox="0 0 24 24" fill="none" xmlns="http://www.w3.org/2000/svg">
<path fill-rule="evenodd" clip-rule="evenodd" d="M18.5 23.9184C19.1377 23.6757 19.1208 22.9092 19.1208 22.2802V19.7544H20.5714C22.465 19.7544 24 18.3575 24 16.6343V5.12003C24 3.39684 22.465 2 20.5714 2H3.42857C1.53497 2 0 3.39688 0 5.12003V16.6343C0 18.3575 1.53502 19.7544 3.42857 19.7544H12.1536L17 23.3852C17.492 23.8271 17.8621 24.161 18.5 23.9184Z" fill="#963CBD"/>
<path fill-rule="evenodd" clip-rule="evenodd" d="M18.5 23.9184C19.1377 23.6757 19.1208 22.9092 19.1208 22.2802V19.7544H20.5714C22.465 19.7544 24 18.3575 24 16.6343V5.12003C24 3.39684 22.465 2 20.5714 2H3.42857C1.53497 2 0 3.39688 0 5.12003V16.6343C0 18.3575 1.53502 19.7544 3.42857 19.7544H12.1536L17 23.3852C17.492 23.8271 17.8621 24.161 18.5 23.9184Z" fill="url(#paint0_linear_6509_78043)"/>
<path fill-rule="evenodd" clip-rule="evenodd" d="M18.5 23.9184C19.1377 23.6757 19.1208 22.9092 19.1208 22.2802V19.7544H20.5714C22.465 19.7544 24 18.3575 24 16.6343V5.12003C24 3.39684 22.465 2 20.5714 2H3.42857C1.53497 2 0 3.39688 0 5.12003V16.6343C0 18.3575 1.53502 19.7544 3.42857 19.7544H12.1536L17 23.3852C17.492 23.8271 17.8621 24.161 18.5 23.9184Z" fill="url(#paint1_linear_6509_78043)"/>
<path d="M18.5051 9.14062C18.2317 9.14062 18.0101 9.36222 18.0101 9.63556C18.0101 13.7084 14.7084 17.0101 10.6356 17.0101C10.3622 17.0101 10.1406 17.2317 10.1406 17.5051C10.1406 17.7784 10.3622 18 10.6356 18C15.2551 18 19 14.2551 19 9.63556C19 9.36222 18.7784 9.14062 18.5051 9.14062Z" fill="#FCFEFF"/>
<path d="M15.5178 12.3125C15.9938 11.536 16.4541 10.5008 16.3635 9.05139C16.1759 6.04909 13.4566 3.77149 10.8889 4.01832C9.88366 4.11495 8.85149 4.93433 8.94319 6.40198C8.98304 7.03978 9.29521 7.4162 9.80252 7.70561C10.2854 7.98108 10.9058 8.15557 11.609 8.35337C12.4585 8.59231 13.4439 8.86068 14.2013 9.4188C15.109 10.0877 15.7295 10.8631 15.5178 12.3125Z" fill="#FCFEFF"/>
<path d="M5.8572 7.0625C5.38123 7.83895 4.92092 8.87423 5.01148 10.3236C5.19908 13.3259 7.91837 15.6035 10.4861 15.3567C11.4913 15.2601 12.5235 14.4407 12.4318 12.973C12.392 12.3352 12.0798 11.9588 11.5725 11.6694C11.0896 11.3939 10.4692 11.2194 9.76596 11.0216C8.91645 10.7827 7.93106 10.5143 7.17371 9.9562C6.26601 9.28728 5.64551 8.51188 5.8572 7.0625Z" fill="#FCFEFF"/>
<defs>
<linearGradient id="paint0_linear_6509_78043" x1="50" y1="-10.2851" x2="15.53" y2="27.0953" gradientUnits="userSpaceOnUse">
<stop stop-color="#F65275"/>
<stop offset="1" stop-color="#F65275" stop-opacity="0"/>
</linearGradient>
<linearGradient id="paint1_linear_6509_78043" x1="12" y1="2" x2="12" y2="23.8402" gradientUnits="userSpaceOnUse">
<stop stop-color="#00A3E0"/>
<stop offset="1" stop-color="#00A3E0" stop-opacity="0"/>
</linearGradient>
</defs>
</svg>