<?xml version="1.0"?>
<svg width="870" height="300" xmlns="http://www.w3.org/2000/svg" xmlns:svg="http://www.w3.org/2000/svg" enable-background="new 0 0 872 420" version="1.1" xml:space="preserve">
 <style type="text/css">.st0{fill:#FFFFFF;}</style>

 <g class="layer">
  <title>Layer 1</title>
  <g id="svg_52">
   <g id="svg_2">
    <polygon class="st0" id="svg_3" points="142.89999389648438,145.80001831054688 114.69999694824219,53.899993896484375 92.30000305175781,53.899993896484375 64,145.80001831054688 36,53.79998779296875 10.300000190734863,53.79998779296875 51.29999923706055,187.89999389648438 72.0999984741211,187.89999389648438 103.5,90.79998779296875 134.8000030517578,187.89999389648438 155.60000610351562,187.89999389648438 196.5,53.899993896484375 171,53.899993896484375 "/>
    <polygon class="st0" id="svg_4" points="378.29998779296875,77.10000610351562 447.3999938964844,77.10000610351562 371.3999938964844,183.80001831054688 371.3999938964844,187.89999389648438 484.8999938964844,187.89999389648438 484.8999938964844,164.70001220703125 412.70001220703125,164.70001220703125 488.6000061035156,58.100006103515625 488.6000061035156,53.899993896484375 378.29998779296875,53.899993896484375 "/>
    <path class="st0" d="m319.7,68c-11.5,-12 -27.2,-18.3 -45.6,-18.3c-39,0 -68.4,30.6 -68.4,71.3c0,40.6 29.4,71.3 68.4,71.3c18.4,0 34.1,-6.3 45.6,-18.2l0,15.4l26.2,0l0,-137l-26.2,0l0,15.5zm-42.9,99.6c-25.8,0 -44.5,-19.6 -44.5,-46.6c0,-26.9 18.7,-46.4 44.5,-46.4c25.7,0 44.3,19.5 44.3,46.4c0,27 -18.6,46.6 -44.3,46.6z" id="svg_5"/>
    <path class="st0" d="m610.7,129.7c0,24.1 -13.2,37.8 -36.3,37.8c-23.2,0 -36.4,-13.8 -36.4,-37.8l0,-77.2l-26.2,0l0,79.3c0,44.6 33.8,60.4 62.7,60.4c28.9,0 62.5,-15.8 62.5,-60.4l0,-79.3l-26.2,0l0,77.2l-0.1,0z" id="svg_6"/>
    <path class="st0" d="m788.7,99c-0.7,-5.5 -2.2,-11 -4.2,-16.7s-5.1,-11 -9,-15.8c-3.9,-4.8 -9,-8.7 -15.3,-11.7c-6.3,-3 -14.1,-4.5 -23.3,-4.5c-12.1,0 -22.4,2.6 -30.9,7.8c-5.2,3.2 -9.7,7.1 -13.4,11.9l0,-52l-23.2,0l0,169.9l26.3,0l0,-69.7c0,-7.9 0.9,-14.7 2.7,-20.2c1.8,-5.5 4.2,-10 7.3,-13.4c3.1,-3.4 6.7,-5.9 10.9,-7.4c4.1,-1.5 8.5,-2.3 13.2,-2.3c7.1,0 12.9,1.4 17.3,4.3c4.4,2.9 7.9,6.7 10.3,11.4c2.4,4.7 4.1,9.8 5,15.3c0.9,5.5 1.3,10.9 1.3,16.1l0,65.9l26.3,0l0,-74.4c-0.2,-4.2 -0.6,-9 -1.3,-14.5z" id="svg_7"/>
    <circle cx="839.9" cy="169.4" id="svg_8" r="21.1"/>
   </g>
   <g id="svg_20">
    <g id="svg_21">
     <path class="st0" d="m23.13,269.25l0,-31.62l-12.13,0l0,-5.02l29.66,0l0,5.02l-12.13,0l0,31.62l-5.39,0z" id="svg_22"/>
     <path class="st0" d="m44.82,269.25l0,-36.64l4.78,0l0,19.73l0.61,0l0,16.79l-5.39,0l0,0.12zm19.24,0l0,-13.48c0,-1.1 -0.12,-2.21 -0.25,-3.31c-0.12,-1.1 -0.49,-2.21 -0.98,-3.19c-0.49,-0.98 -1.23,-1.72 -2.08,-2.33c-0.86,-0.61 -2.08,-0.86 -3.55,-0.86c-0.98,0 -1.84,0.12 -2.7,0.49c-0.86,0.37 -1.59,0.86 -2.21,1.47c-0.61,0.74 -1.1,1.59 -1.47,2.7c-0.37,1.1 -0.49,2.57 -0.49,4.17l-3.31,-1.23c0,-2.45 0.49,-4.66 1.35,-6.62s2.33,-3.43 4.04,-4.41c1.72,-1.1 3.8,-1.59 6.37,-1.59c1.84,0 3.43,0.25 4.78,0.86c1.35,0.61 2.33,1.47 3.19,2.45c0.86,0.98 1.47,2.08 1.84,3.19c0.37,1.23 0.74,2.33 0.86,3.43s0.25,2.08 0.25,2.94l0,15.2l-5.64,0l0,0.12z" id="svg_23"/>
     <path class="st0" d="m88.32,270.1c-2.7,0 -5.15,-0.61 -7.23,-1.84s-3.68,-2.82 -4.78,-5.02c-1.1,-2.08 -1.72,-4.66 -1.72,-7.48c0,-2.94 0.61,-5.64 1.72,-7.84c1.1,-2.21 2.7,-3.92 4.66,-5.15c1.96,-1.23 4.41,-1.84 6.98,-1.84c2.82,0 5.15,0.61 7.11,1.96c1.96,1.35 3.43,3.19 4.41,5.51c0.98,2.33 1.35,5.27 1.1,8.46l-5.27,0l0,-1.96c0,-3.19 -0.61,-5.51 -1.84,-7.11c-1.23,-1.47 -2.94,-2.33 -5.39,-2.33c-2.7,0 -4.66,0.86 -6,2.57s-1.96,4.04 -1.96,7.23c0,3.06 0.61,5.39 1.96,6.98s3.31,2.45 5.76,2.45c1.72,0 3.06,-0.37 4.29,-1.1c1.23,-0.74 2.21,-1.84 2.82,-3.19l5.15,1.59c-1.1,2.45 -2.7,4.41 -4.9,5.76s-4.17,2.33 -6.86,2.33zm-9.8,-12.99l0,-4.17l19.61,0l0,4.17l-19.61,0z" id="svg_24"/>
     <path class="st0" d="m132.07,270.1c-3.68,0 -6.74,-0.86 -9.31,-2.45c-2.57,-1.59 -4.53,-3.8 -5.88,-6.74c-1.35,-2.82 -2.08,-6.13 -2.08,-9.93c0,-3.8 0.74,-7.11 2.08,-9.93c1.35,-2.82 3.31,-5.15 5.88,-6.74c2.57,-1.59 5.64,-2.45 9.31,-2.45c3.68,0 6.74,0.86 9.31,2.45c2.57,1.59 4.53,3.8 5.88,6.74c1.35,2.82 2.08,6.13 2.08,9.93c0,3.8 -0.74,7.11 -2.08,9.93c-1.35,2.82 -3.31,5.15 -5.88,6.74c-2.57,1.59 -5.64,2.45 -9.31,2.45zm0,-5.15c2.57,0 4.78,-0.49 6.49,-1.72c1.72,-1.23 3.06,-2.82 3.92,-4.9c0.86,-2.08 1.35,-4.53 1.35,-7.35c0,-2.82 -0.49,-5.27 -1.35,-7.35c-0.86,-2.08 -2.21,-3.68 -3.92,-4.9c-1.72,-1.23 -3.92,-1.72 -6.49,-1.84c-2.57,0 -4.78,0.49 -6.49,1.72c-1.72,1.23 -3.06,2.82 -3.92,4.9c-0.86,2.08 -1.35,4.53 -1.35,7.35c0,2.82 0.37,5.27 1.23,7.35s2.21,3.68 3.92,4.9c1.84,1.23 4.04,1.84 6.62,1.84z" id="svg_25"/>
     <path class="st0" d="m154.5,281.5l0,-39.58l4.78,0l0,19.73l0.61,0l0,19.85l-5.39,0zm12.99,-11.4c-2.57,0 -4.78,-0.61 -6.62,-1.96c-1.84,-1.23 -3.06,-3.06 -4.04,-5.15c-0.86,-2.21 -1.35,-4.66 -1.35,-7.35c0,-2.7 0.49,-5.15 1.35,-7.35c0.86,-2.21 2.21,-3.92 4.04,-5.15c1.72,-1.23 3.92,-1.84 6.49,-1.84c2.57,0 4.78,0.61 6.62,1.84c1.84,1.23 3.31,2.94 4.29,5.15c0.98,2.21 1.47,4.66 1.47,7.35c0,2.7 -0.49,5.27 -1.47,7.35c-0.98,2.21 -2.45,3.92 -4.29,5.15c-1.84,1.23 -4.04,1.96 -6.49,1.96zm-0.74,-4.9c1.72,0 3.06,-0.49 4.17,-1.35c1.1,-0.86 1.96,-2.08 2.45,-3.55c0.49,-1.47 0.86,-3.06 0.86,-4.9c0,-1.84 -0.25,-3.43 -0.86,-4.9c-0.49,-1.47 -1.35,-2.57 -2.57,-3.43c-1.1,-0.86 -2.57,-1.35 -4.29,-1.35c-1.72,0 -3.06,0.37 -4.04,1.23c-1.1,0.86 -1.84,1.96 -2.33,3.43c-0.49,1.47 -0.74,3.19 -0.74,5.02c0,1.84 0.25,3.55 0.74,5.02c0.49,1.47 1.35,2.57 2.45,3.43c0.98,0.98 2.33,1.35 4.17,1.35z" id="svg_26"/>
     <path class="st0" d="m197.76,270.1c-2.7,0 -5.15,-0.61 -7.23,-1.84s-3.68,-2.82 -4.78,-5.02c-1.1,-2.08 -1.72,-4.66 -1.72,-7.48c0,-2.94 0.61,-5.64 1.72,-7.84c1.1,-2.21 2.7,-3.92 4.66,-5.15c1.96,-1.23 4.41,-1.84 6.98,-1.84c2.82,0 5.15,0.61 7.11,1.96c1.96,1.35 3.43,3.19 4.41,5.51c0.98,2.33 1.35,5.27 1.1,8.46l-5.27,0l0,-1.96c0,-3.19 -0.61,-5.51 -1.84,-7.11c-1.23,-1.47 -2.94,-2.33 -5.39,-2.33c-2.7,0 -4.66,0.86 -6,2.57s-1.96,4.04 -1.96,7.23c0,3.06 0.61,5.39 1.96,6.98s3.31,2.45 5.76,2.45c1.72,0 3.06,-0.37 4.29,-1.1c1.23,-0.74 2.21,-1.84 2.82,-3.19l5.15,1.59c-1.1,2.45 -2.7,4.41 -4.9,5.76s-4.29,2.33 -6.86,2.33zm-9.8,-12.99l0,-4.17l19.61,0l0,4.17l-19.61,0z" id="svg_27"/>
     <path class="st0" d="m215.16,269.25l0,-27.45l4.78,0l0,7.97l0.61,0l0,19.48l-5.39,0zm19.36,0l0,-13.48c0,-1.1 -0.12,-2.21 -0.25,-3.31c-0.12,-1.1 -0.49,-2.21 -0.98,-3.19c-0.49,-0.98 -1.23,-1.72 -2.08,-2.33c-0.86,-0.61 -2.08,-0.86 -3.55,-0.86c-0.98,0 -1.84,0.12 -2.7,0.49c-0.86,0.37 -1.59,0.86 -2.21,1.47c-0.61,0.74 -1.1,1.59 -1.47,2.7c-0.37,1.1 -0.49,2.57 -0.49,4.17l-3.31,-1.23c0,-2.45 0.49,-4.66 1.35,-6.62s2.33,-3.43 4.04,-4.41c1.72,-1.1 3.8,-1.59 6.37,-1.59c1.84,0 3.43,0.25 4.78,0.86c1.35,0.61 2.33,1.47 3.19,2.45c0.86,0.98 1.47,2.08 1.84,3.19c0.37,1.23 0.74,2.33 0.86,3.43s0.25,2.08 0.25,2.94l0,15.2l-5.64,0l0,0.12z" id="svg_28"/>
     <path class="st0" d="m270.06,270.1c-2.57,0 -5.02,-0.49 -7.11,-1.35s-3.8,-2.21 -5.15,-3.92c-1.35,-1.72 -2.21,-3.68 -2.7,-6l5.51,-0.86c0.61,2.21 1.72,3.92 3.55,5.27c1.84,1.23 3.8,1.84 6.25,1.84c1.47,0 2.82,-0.25 4.04,-0.74c1.23,-0.49 2.21,-1.1 2.94,-1.96c0.74,-0.86 1.1,-1.96 1.1,-3.19c0,-0.61 -0.12,-1.23 -0.37,-1.72c-0.25,-0.49 -0.49,-0.98 -0.98,-1.35c-0.37,-0.37 -0.86,-0.74 -1.47,-0.98c-0.61,-0.25 -1.23,-0.49 -1.84,-0.74l-9.44,-2.82c-0.86,-0.25 -1.84,-0.61 -2.82,-1.1c-0.98,-0.49 -1.84,-0.98 -2.57,-1.72c-0.74,-0.74 -1.47,-1.59 -1.96,-2.57c-0.49,-1.1 -0.74,-2.33 -0.74,-3.8c0,-2.21 0.61,-4.17 1.72,-5.76c1.1,-1.59 2.7,-2.7 4.66,-3.55c1.96,-0.86 4.17,-1.23 6.62,-1.23c2.45,0 4.66,0.49 6.62,1.35c1.96,0.86 3.55,2.08 4.9,3.68c1.35,1.59 2.21,3.55 2.7,5.76l-5.64,0.98c-0.25,-1.35 -0.74,-2.57 -1.59,-3.55s-1.84,-1.72 -3.06,-2.33c-1.23,-0.49 -2.45,-0.86 -3.92,-0.86c-1.35,0 -2.57,0.12 -3.68,0.61c-1.1,0.49 -2.08,1.1 -2.7,1.84s-0.98,1.72 -0.98,2.7c0,0.98 0.25,1.84 0.86,2.45s1.35,1.1 2.21,1.47s1.72,0.61 2.57,0.86l6.74,1.96c0.86,0.25 1.84,0.61 2.94,0.98c1.1,0.37 2.08,0.98 3.19,1.72c0.98,0.74 1.84,1.72 2.45,2.82s0.98,2.7 0.98,4.41c0,1.84 -0.37,3.43 -1.1,4.9c-0.74,1.35 -1.72,2.57 -3.06,3.55c-1.35,0.98 -2.82,1.59 -4.53,2.08c-1.47,0.61 -3.19,0.86 -5.15,0.86z" id="svg_29"/>
     <path class="st0" d="m301.55,270.1c-2.7,0 -5.15,-0.61 -7.11,-1.84c-1.96,-1.23 -3.55,-2.94 -4.66,-5.15c-1.1,-2.21 -1.59,-4.66 -1.59,-7.48c0,-2.82 0.61,-5.39 1.72,-7.6c1.1,-2.21 2.7,-3.92 4.66,-5.02c1.96,-1.23 4.41,-1.84 7.11,-1.84c2.7,0 5.15,0.61 7.11,1.84c1.96,1.23 3.55,2.94 4.66,5.15c1.1,2.21 1.59,4.66 1.59,7.48c0,2.82 -0.61,5.39 -1.72,7.6c-1.1,2.21 -2.7,3.92 -4.66,5.15s-4.41,1.72 -7.11,1.72zm0,-5.02c2.57,0 4.53,-0.86 5.88,-2.7c1.35,-1.72 1.96,-4.04 1.96,-6.86c0,-2.82 -0.61,-5.15 -1.96,-6.86c-1.35,-1.72 -3.31,-2.57 -5.88,-2.57c-1.84,0 -3.19,0.37 -4.41,1.23c-1.1,0.86 -1.96,1.96 -2.57,3.31c-0.61,1.47 -0.86,3.06 -0.86,4.9c0,2.94 0.61,5.15 1.96,6.86s3.31,2.7 5.88,2.7z" id="svg_30"/>
     <path class="st0" d="m331.08,269.98c-1.84,0 -3.43,-0.25 -4.78,-0.86c-1.35,-0.61 -2.33,-1.47 -3.19,-2.45c-0.86,-0.98 -1.47,-2.08 -1.84,-3.19c-0.37,-1.23 -0.74,-2.33 -0.86,-3.43c-0.12,-1.1 -0.25,-2.08 -0.25,-2.94l0,-15.2l5.39,0l0,13.48c0,1.1 0.12,2.21 0.25,3.31s0.49,2.21 0.98,3.19s1.23,1.72 2.08,2.33c0.86,0.61 2.08,0.86 3.55,0.86c0.98,0 1.84,-0.12 2.7,-0.49c0.86,-0.37 1.59,-0.86 2.21,-1.47c0.61,-0.74 1.1,-1.59 1.47,-2.7c0.37,-1.1 0.49,-2.57 0.49,-4.17l3.31,1.23c0,2.45 -0.49,4.66 -1.35,6.62c-0.98,1.96 -2.33,3.43 -4.04,4.41c-1.59,0.98 -3.68,1.47 -6.13,1.47zm9.07,-0.74l0,-7.97l-0.61,0l0,-19.48l5.39,0l0,27.45l-4.78,0z" id="svg_31"/>
     <path class="st0" d="m352.04,269.25l0,-27.45l4.78,0l0,6.62l-0.61,-0.86c0.37,-0.86 0.74,-1.72 1.35,-2.45c0.49,-0.74 1.23,-1.35 1.84,-1.84c0.74,-0.49 1.47,-0.86 2.33,-1.23c0.86,-0.25 1.72,-0.49 2.57,-0.49c0.86,0 1.72,0 2.57,0.12l0,5.02c-0.86,-0.25 -1.84,-0.25 -2.94,-0.25c-1.1,0.12 -2.08,0.49 -3.06,0.98c-0.86,0.61 -1.59,1.23 -2.08,2.08c-0.49,0.86 -0.86,1.72 -1.1,2.7c-0.25,0.98 -0.37,1.96 -0.37,3.06l0,13.85l-5.27,0l0,0.12z" id="svg_32"/>
     <path class="st0" d="m383.04,270.1c-2.82,0 -5.15,-0.61 -7.11,-1.84s-3.43,-2.94 -4.53,-5.15s-1.59,-4.66 -1.59,-7.48c0,-2.82 0.61,-5.39 1.59,-7.48c1.1,-2.21 2.57,-3.92 4.53,-5.15c1.96,-1.23 4.41,-1.84 7.11,-1.84c2.94,0 5.51,0.74 7.72,2.21c2.08,1.47 3.55,3.55 4.17,6.13l-5.27,1.47c-0.49,-1.59 -1.35,-2.7 -2.57,-3.55c-1.23,-0.86 -2.57,-1.23 -4.04,-1.23c-1.72,0 -3.19,0.37 -4.29,1.23c-1.1,0.86 -1.96,1.96 -2.45,3.31c-0.49,1.47 -0.86,3.06 -0.86,4.9c0,2.82 0.61,5.15 1.96,6.86s3.19,2.57 5.64,2.57c1.72,0 3.06,-0.37 4.17,-1.23c1.1,-0.74 1.84,-1.96 2.45,-3.43l5.39,1.23c-0.86,2.7 -2.33,4.78 -4.41,6.13c-2.21,1.59 -4.66,2.33 -7.6,2.33z" id="svg_33"/>
     <path class="st0" d="m411.72,270.1c-2.7,0 -5.15,-0.61 -7.23,-1.84s-3.68,-2.82 -4.78,-5.02c-1.1,-2.08 -1.72,-4.66 -1.72,-7.48c0,-2.94 0.61,-5.64 1.72,-7.84c1.1,-2.21 2.7,-3.92 4.66,-5.15c1.96,-1.23 4.41,-1.84 6.98,-1.84c2.82,0 5.15,0.61 7.11,1.96c1.96,1.35 3.43,3.19 4.41,5.51c0.98,2.33 1.35,5.27 1.1,8.46l-5.27,0l0,-1.96c0,-3.19 -0.61,-5.51 -1.84,-7.11c-1.23,-1.47 -2.94,-2.33 -5.39,-2.33c-2.7,0 -4.66,0.86 -6,2.57s-1.96,4.04 -1.96,7.23c0,3.06 0.61,5.39 1.96,6.98s3.31,2.45 5.76,2.45c1.72,0 3.06,-0.37 4.29,-1.1c1.23,-0.74 2.21,-1.84 2.82,-3.19l5.15,1.59c-1.1,2.45 -2.7,4.41 -4.9,5.76s-4.29,2.33 -6.86,2.33zm-9.8,-12.99l0,-4.17l19.61,0l0,4.17l-19.61,0z" id="svg_34"/>
     <path class="st0" d="m453.38,270.1c-2.57,0 -5.02,-0.49 -7.11,-1.35s-3.8,-2.21 -5.15,-3.92c-1.35,-1.72 -2.21,-3.68 -2.7,-6l5.51,-0.86c0.61,2.21 1.72,3.92 3.55,5.27c1.84,1.23 3.8,1.84 6.25,1.84c1.47,0 2.82,-0.25 4.04,-0.74c1.23,-0.49 2.21,-1.1 2.94,-1.96c0.74,-0.86 1.1,-1.96 1.1,-3.19c0,-0.61 -0.12,-1.23 -0.37,-1.72c-0.25,-0.49 -0.49,-0.98 -0.98,-1.35c-0.37,-0.37 -0.86,-0.74 -1.47,-0.98c-0.61,-0.25 -1.23,-0.49 -1.84,-0.74l-9.44,-2.82c-0.86,-0.25 -1.84,-0.61 -2.82,-1.1c-0.98,-0.49 -1.84,-0.98 -2.57,-1.72c-0.74,-0.74 -1.47,-1.59 -1.96,-2.57c-0.49,-1.1 -0.74,-2.33 -0.74,-3.8c0,-2.21 0.61,-4.17 1.72,-5.76c1.1,-1.59 2.7,-2.7 4.66,-3.55c1.96,-0.86 4.17,-1.23 6.62,-1.23c2.45,0 4.66,0.49 6.62,1.35s3.55,2.08 4.9,3.68c1.35,1.59 2.21,3.55 2.7,5.76l-5.64,0.98c-0.25,-1.35 -0.86,-2.57 -1.59,-3.55c-0.86,-0.98 -1.84,-1.72 -3.06,-2.33c-1.23,-0.49 -2.45,-0.86 -3.92,-0.86c-1.35,0 -2.57,0.12 -3.68,0.61c-1.1,0.49 -2.08,1.1 -2.7,1.84s-0.98,1.72 -0.98,2.7c0,0.98 0.25,1.84 0.86,2.45s1.35,1.1 2.21,1.47s1.72,0.61 2.57,0.86l6.74,1.96c0.86,0.25 1.84,0.61 2.94,0.98c1.1,0.37 2.08,0.98 3.06,1.72c0.98,0.74 1.84,1.72 2.45,2.82s0.98,2.7 0.98,4.41c0,1.84 -0.37,3.43 -1.1,4.9c-0.74,1.35 -1.72,2.57 -3.06,3.55c-1.35,0.98 -2.82,1.59 -4.53,2.08c-1.35,0.61 -3.06,0.86 -5.02,0.86z" id="svg_35"/>
     <path class="st0" d="m485.12,270.1c-2.7,0 -5.15,-0.61 -7.23,-1.84s-3.68,-2.82 -4.78,-5.02c-1.1,-2.08 -1.72,-4.66 -1.72,-7.48c0,-2.94 0.61,-5.64 1.72,-7.84s2.7,-3.92 4.66,-5.15c1.96,-1.23 4.41,-1.84 6.98,-1.84c2.82,0 5.15,0.61 7.11,1.96c1.96,1.35 3.43,3.19 4.41,5.51s1.35,5.27 1.1,8.46l-5.27,0l0,-1.96c0,-3.19 -0.61,-5.51 -1.84,-7.11s-2.94,-2.33 -5.39,-2.33c-2.7,0 -4.66,0.86 -6,2.57s-1.96,4.04 -1.96,7.23c0,3.06 0.61,5.39 1.96,6.98s3.31,2.45 5.76,2.45c1.72,0 3.06,-0.37 4.29,-1.1s2.21,-1.84 2.82,-3.19l5.15,1.59c-1.1,2.45 -2.7,4.41 -4.9,5.76s-4.17,2.33 -6.86,2.33zm-9.8,-12.99l0,-4.17l19.61,0l0,4.17l-19.61,0z" id="svg_36"/>
     <path class="st0" d="m515.14,270.1c-2.82,0 -5.15,-0.61 -7.11,-1.84c-1.96,-1.23 -3.43,-2.94 -4.53,-5.15c-0.98,-2.21 -1.59,-4.66 -1.59,-7.48c0,-2.82 0.61,-5.39 1.59,-7.48c1.1,-2.21 2.57,-3.92 4.53,-5.15c1.96,-1.23 4.41,-1.84 7.11,-1.84c2.94,0 5.51,0.74 7.72,2.21c2.08,1.47 3.55,3.55 4.17,6.13l-5.27,1.47c-0.49,-1.59 -1.35,-2.7 -2.57,-3.55c-1.23,-0.86 -2.57,-1.23 -4.04,-1.23c-1.72,0 -3.19,0.37 -4.29,1.23c-1.1,0.86 -1.96,1.96 -2.45,3.31c-0.49,1.47 -0.86,3.06 -0.86,4.9c0,2.82 0.61,5.15 1.96,6.86c1.23,1.72 3.19,2.57 5.64,2.57c1.72,0 3.06,-0.37 4.17,-1.23c1.1,-0.74 1.84,-1.96 2.45,-3.43l5.39,1.23c-0.86,2.7 -2.33,4.78 -4.41,6.13c-2.21,1.59 -4.66,2.33 -7.6,2.33z" id="svg_37"/>
     <path class="st0" d="m542.72,269.98c-1.84,0 -3.43,-0.25 -4.78,-0.86c-1.35,-0.61 -2.33,-1.47 -3.19,-2.45c-0.86,-0.98 -1.47,-2.08 -1.84,-3.19c-0.37,-1.23 -0.74,-2.33 -0.86,-3.43c-0.12,-1.1 -0.25,-2.08 -0.25,-2.94l0,-15.2l5.39,0l0,13.48c0,1.1 0.12,2.21 0.25,3.31c0.12,1.1 0.49,2.21 0.98,3.19c0.49,0.98 1.23,1.72 2.08,2.33c0.86,0.61 2.08,0.86 3.55,0.86c0.98,0 1.84,-0.12 2.7,-0.49c0.86,-0.37 1.59,-0.86 2.21,-1.47c0.61,-0.74 1.1,-1.59 1.47,-2.7c0.37,-1.1 0.49,-2.57 0.49,-4.17l3.31,1.23c0,2.45 -0.49,4.66 -1.35,6.62c-0.98,1.96 -2.33,3.43 -4.04,4.41s-3.68,1.47 -6.13,1.47zm9.07,-0.74l0,-7.97l-0.61,0l0,-19.48l5.39,0l0,27.45l-4.78,0z" id="svg_38"/>
     <path class="st0" d="m563.67,269.25l0,-27.45l4.78,0l0,6.62l-0.61,-0.86c0.37,-0.86 0.74,-1.72 1.35,-2.45c0.49,-0.74 1.23,-1.35 1.84,-1.84c0.74,-0.49 1.47,-0.86 2.33,-1.23c0.86,-0.25 1.72,-0.49 2.57,-0.49c0.86,0 1.72,0 2.57,0.12l0,5.02c-0.86,-0.25 -1.84,-0.25 -2.94,-0.25c-1.1,0.12 -2.08,0.49 -3.06,0.98c-0.86,0.61 -1.59,1.23 -2.08,2.08c-0.49,0.86 -0.86,1.72 -1.1,2.7s-0.37,1.96 -0.37,3.06l0,13.85l-5.27,0l0,0.12z" id="svg_39"/>
     <path class="st0" d="m584.01,237.38l0,-5.15l5.27,0l0,5.15l-5.27,0zm0,31.86l0,-27.45l5.27,0l0,27.45l-5.27,0z" id="svg_40"/>
     <path class="st0" d="m593.94,246.08l0,-4.29l18.75,0l0,4.29l-18.75,0zm18.75,23.16c-1.72,0.37 -3.43,0.49 -5.02,0.49c-1.72,0 -3.19,-0.37 -4.41,-0.98s-2.33,-1.47 -2.94,-2.82c-0.61,-1.1 -0.86,-2.33 -0.98,-3.43c0,-1.23 -0.12,-2.45 -0.12,-4.04l0,-24.26l5.39,0l0,24.02c0,1.1 0,2.08 0,2.82c0,0.86 0.25,1.47 0.49,2.08c0.61,1.1 1.59,1.59 2.94,1.84c1.35,0.12 2.94,0.12 4.66,-0.12l0,4.41z" id="svg_41"/>
     <path class="st0" d="m621.51,281.5l5.27,-14.46l0.12,4.29l-12.01,-29.41l5.51,0l8.95,22.79l-1.59,0l8.58,-22.79l5.39,0l-15.2,39.58l-5.02,0z" id="svg_42"/>
     <path class="st0" d="m656.07,269.25l0,-36.64l14.83,0c0.37,0 0.74,0 1.35,0s0.98,0.12 1.47,0.12c2.08,0.37 3.68,0.98 5.15,2.08c1.35,1.1 2.33,2.45 3.06,4.04c0.74,1.59 0.98,3.43 0.98,5.39c0,1.96 -0.37,3.8 -0.98,5.39c-0.74,1.59 -1.72,2.94 -3.06,4.04c-1.35,1.1 -3.06,1.72 -5.15,2.08c-0.49,0.12 -0.98,0.12 -1.47,0.12c-0.49,0 -0.98,0 -1.35,0l-9.44,0l0,13.11l-5.39,0l0,0.25zm5.27,-18.14l9.31,0c0.37,0 0.74,0 1.1,0s0.86,-0.12 1.23,-0.12c1.1,-0.25 1.96,-0.74 2.57,-1.47s1.1,-1.47 1.47,-2.33s0.49,-1.84 0.49,-2.7s-0.12,-1.84 -0.49,-2.7s-0.74,-1.72 -1.47,-2.33c-0.61,-0.74 -1.59,-1.1 -2.57,-1.47c-0.37,-0.12 -0.74,-0.12 -1.23,-0.25c-0.37,0 -0.74,0 -1.1,0l-9.31,0l0,13.36z" id="svg_43"/>
     <path class="st0" d="m688.54,269.25l0,-37.38l5.27,0l0,37.38l-5.27,0z" id="svg_44"/>
     <path class="st0" d="m709.25,270.1c-2.08,0 -3.68,-0.37 -5.15,-1.1c-1.35,-0.74 -2.45,-1.72 -3.06,-2.94c-0.74,-1.23 -1.1,-2.57 -1.1,-4.04c0,-1.35 0.25,-2.57 0.74,-3.68c0.49,-1.1 1.23,-1.96 2.21,-2.7c0.98,-0.74 2.21,-1.35 3.55,-1.84c1.23,-0.37 2.57,-0.61 4.17,-0.98c1.59,-0.25 3.19,-0.49 4.9,-0.74c1.72,-0.25 3.43,-0.49 5.02,-0.74l-1.96,1.1c0,-2.21 -0.37,-3.8 -1.35,-4.78c-0.98,-0.98 -2.57,-1.59 -4.78,-1.59c-1.47,0 -2.82,0.37 -3.92,0.98c-1.23,0.61 -2.08,1.72 -2.57,3.31l-4.9,-1.47c0.74,-2.33 1.96,-4.17 3.92,-5.64c1.96,-1.35 4.41,-2.08 7.6,-2.08c2.45,0 4.66,0.37 6.37,1.23c1.84,0.86 3.19,2.21 4.04,3.92c0.49,0.86 0.74,1.84 0.86,2.82s0.12,2.08 0.12,3.19l0,16.91l-4.66,0l0,-6.25l0.86,0.86c-1.1,2.08 -2.57,3.68 -4.29,4.66c-1.84,0.98 -4.04,1.59 -6.62,1.59zm0.98,-4.41c1.47,0 2.82,-0.25 3.92,-0.86s1.96,-1.23 2.57,-2.08c0.61,-0.86 1.1,-1.72 1.35,-2.57c0.25,-0.86 0.49,-1.72 0.49,-2.7c0,-0.98 0.12,-1.84 0.12,-2.45l1.72,0.61c-1.72,0.25 -3.19,0.49 -4.53,0.74s-2.57,0.37 -3.68,0.61c-1.1,0.25 -2.08,0.37 -2.94,0.74c-0.74,0.25 -1.35,0.61 -1.96,0.86s-0.98,0.74 -1.35,1.35s-0.49,1.1 -0.49,1.84c0,0.74 0.12,1.35 0.49,1.96c0.37,0.61 0.86,1.1 1.59,1.47c0.61,0.37 1.59,0.49 2.7,0.49z" id="svg_45"/>
     <path class="st0" d="m727.51,246.08l0,-4.29l18.75,0l0,4.29l-18.75,0zm18.75,23.16c-1.72,0.37 -3.43,0.49 -5.02,0.49c-1.72,0 -3.19,-0.37 -4.41,-0.98s-2.33,-1.47 -2.94,-2.82c-0.61,-1.1 -0.86,-2.33 -0.98,-3.43c0,-1.23 -0.12,-2.45 -0.12,-4.04l0,-24.26l5.39,0l0,24.02c0,1.1 0,2.08 0,2.82c0,0.86 0.25,1.47 0.49,2.08c0.61,1.1 1.59,1.59 2.94,1.84c1.35,0.12 2.94,0.12 4.66,-0.12l0,4.41z" id="svg_46"/>
     <path class="st0" d="m750.18,246.08l0,-4.29l16.79,0l0,4.29l-16.79,0zm4.53,23.16l0,-28.43c0,-0.74 0,-1.47 0.12,-2.21c0,-0.74 0.25,-1.59 0.49,-2.33s0.61,-1.47 1.23,-2.08c0.74,-0.74 1.47,-1.35 2.33,-1.59c0.86,-0.37 1.72,-0.49 2.45,-0.61c0.86,0 1.59,-0.12 2.33,-0.12l3.43,0l0,4.41l-3.19,0c-1.23,0 -2.21,0.37 -2.82,0.98s-0.98,1.47 -0.98,2.57l0,29.41l-5.39,0z" id="svg_47"/>
     <path class="st0" d="m782.04,270.1c-2.7,0 -5.15,-0.61 -7.11,-1.84c-1.96,-1.23 -3.55,-2.94 -4.66,-5.15c-1.1,-2.21 -1.59,-4.66 -1.59,-7.48c0,-2.82 0.61,-5.39 1.72,-7.6c1.1,-2.21 2.7,-3.92 4.66,-5.02c1.96,-1.23 4.41,-1.84 7.11,-1.84c2.7,0 5.15,0.61 7.11,1.84c1.96,1.23 3.55,2.94 4.66,5.15c1.1,2.21 1.59,4.66 1.59,7.48c0,2.82 -0.61,5.39 -1.72,7.6c-1.1,2.21 -2.7,3.92 -4.66,5.15c-2.08,1.1 -4.41,1.72 -7.11,1.72zm0,-5.02c2.57,0 4.53,-0.86 5.88,-2.7s1.96,-4.04 1.96,-6.86c0,-2.82 -0.61,-5.15 -1.96,-6.86c-1.35,-1.72 -3.31,-2.57 -5.88,-2.57c-1.84,0 -3.19,0.37 -4.41,1.23c-1.1,0.86 -1.96,1.96 -2.57,3.31c-0.61,1.47 -0.86,3.06 -0.86,4.9c0,2.94 0.61,5.15 1.96,6.86c1.35,1.84 3.31,2.7 5.88,2.7z" id="svg_48"/>
     <path class="st0" d="m801.16,269.25l0,-27.45l4.78,0l0,6.62l-0.61,-0.86c0.37,-0.86 0.74,-1.72 1.35,-2.45c0.49,-0.74 1.23,-1.35 1.84,-1.84c0.74,-0.49 1.47,-0.86 2.33,-1.23c0.86,-0.25 1.72,-0.49 2.57,-0.49c0.86,0 1.72,0 2.57,0.12l0,5.02c-0.86,-0.25 -1.84,-0.25 -2.94,-0.25c-1.1,0.12 -2.08,0.49 -3.06,0.98c-0.86,0.61 -1.59,1.23 -2.08,2.08c-0.49,0.86 -0.86,1.72 -1.1,2.7s-0.37,1.96 -0.37,3.06l0,13.85l-5.27,0l0,0.12z" id="svg_49"/>
     <path class="st0" d="m820.89,269.25l0,-27.45l4.78,0l0,7.97l0.61,0l0,19.48l-5.39,0zm16.42,0l0,-17.03c0,-1.96 -0.49,-3.55 -1.47,-4.66c-0.98,-1.1 -2.33,-1.72 -4.04,-1.72c-1.72,0 -3.06,0.61 -4.04,1.72c-0.98,1.1 -1.59,2.7 -1.59,4.53l-2.57,-1.59c0,-1.84 0.49,-3.43 1.35,-4.78c0.86,-1.35 2.08,-2.57 3.55,-3.31s3.19,-1.23 5.02,-1.23c1.96,0 3.55,0.37 5.02,1.23c1.35,0.86 2.45,1.96 3.19,3.43c0.74,1.47 1.1,3.19 1.1,5.15l0,18.26l-5.51,0zm16.42,0l0,-17.16c0,-1.96 -0.49,-3.55 -1.47,-4.66c-0.98,-1.1 -2.33,-1.72 -4.04,-1.72c-0.98,0 -1.96,0.25 -2.82,0.74c-0.86,0.49 -1.47,1.1 -2.08,2.08c-0.49,0.98 -0.74,2.08 -0.74,3.43l-2.57,-1.35c0,-1.96 0.37,-3.68 1.23,-5.02s1.96,-2.57 3.55,-3.43c1.47,-0.86 3.19,-1.23 4.9,-1.23c2.94,0 5.27,0.86 6.86,2.7c1.59,1.84 2.45,4.17 2.45,7.11l0,18.38l-5.27,0l0,0.12z" id="svg_50"/>
    </g>
   </g>
  </g>
 </g>
</svg>