<?xml version="1.0" encoding="utf-8"?>
<!-- Generator: Adobe Illustrator 25.2.3, SVG Export Plug-In . SVG Version: 6.00 Build 0)  -->
<svg version="1.1" id="Capa_1" xmlns="http://www.w3.org/2000/svg" xmlns:xlink="http://www.w3.org/1999/xlink" x="0px" y="0px"
	 width="709.787px" height="684.766px" viewBox="0 0 709.787 684.766" style="enable-background:new 0 0 709.787 684.766;"
	 xml:space="preserve">
<style type="text/css">
	.st0{fill:#4286F5;}
	.st1{fill:#1967D3;}
</style>
<g>
	<path class="st0" d="M416.554,527.748c-73.574,0-147.149,0.06-220.723-0.118c-5.743-0.014-9.843,1.532-13.922,5.65
		c-33.153,33.465-66.532,66.705-99.828,100.028c-5.311,5.315-10.916,10.08-18.852,10.735c-16.649,1.373-28.178-10.096-28.227-28.706
		c-0.129-49.761-0.161-99.523,0.08-149.284c0.057-11.876,1.276-23.732,3.804-35.428c14.51-67.13,53.024-115.597,116.168-141.759
		c68.684-28.457,134.009-18.567,193.967,25.468c3.973,2.918,6.357,4.208,11.184,0.459c114.08-88.585,280.627-27.141,310.568,114.446
		c4.747,22.447,4.539,45.276,3.504,67.991c-0.809,17.763-16.081,30.354-35.405,30.466c-26.995,0.157-53.992,0.051-80.988,0.052
		C510.775,527.75,463.665,527.748,416.554,527.748z M354.006,526.51c0-0.014,0-0.028,0-0.042c12.951,0,25.903,0.121,38.852-0.032
		c15.1-0.178,27.432-9.932,30.691-24.747c4.262-19.379,2.168-39.098-0.401-58.235c-6.394-47.632-27.358-88.183-63.839-120.209
		c-2.94-2.581-4.591-2.954-7.83-0.254c-33.799,28.167-53.382,64.612-62.75,107.032c-4.712,21.336-3.185,43.041-3.234,64.63
		c-0.043,18.583,13.284,31.712,32.039,31.843C329.689,526.579,341.848,526.51,354.006,526.51z"/>
	<path class="st0" d="M229.562,40.613c55.92-0.16,101.717,45.146,101.969,100.877c0.255,56.382-45.087,102.228-101.258,102.384
		c-56.241,0.156-101.989-45.46-101.969-101.673C128.325,86.315,173.718,40.774,229.562,40.613z"/>
	<path class="st0" d="M483.668,40.613c55.915-0.149,101.702,45.17,101.943,100.903c0.244,56.381-45.107,102.214-101.284,102.358
		c-56.236,0.144-101.974-45.484-101.943-101.699C382.415,86.291,427.819,40.762,483.668,40.613z"/>
	<path class="st1" d="M354.006,526.51c-12.158,0-24.316,0.069-36.473-0.016c-18.755-0.13-32.082-13.26-32.039-31.843
		c0.049-21.589-1.478-43.294,3.234-64.63c9.369-42.42,28.951-78.864,62.75-107.032c3.24-2.7,4.89-2.327,7.83,0.254
		c36.481,32.027,57.445,72.578,63.839,120.209c2.569,19.137,4.663,38.856,0.401,58.235c-3.258,14.816-15.591,24.569-30.691,24.747
		c-12.949,0.153-25.901,0.032-38.852,0.032C354.006,526.482,354.006,526.496,354.006,526.51z"/>
</g>
</svg>
