<svg xmlns="http://www.w3.org/2000/svg" fill="none" viewBox="0 0 90 90">
    <style>.a{fill:#00A3E0}.b{fill:#B9D9EB}</style>
    <path class="a" d="M75.737 37.5a2.263 2.263 0 0 0-2.262 2.263c0 18.618-15.094 33.712-33.712 33.712a2.263 2.263 0 1 0 0 4.525C60.88 78 78 60.88 78 39.763a2.263 2.263 0 0 0-2.263-2.263Z"/>
    <path class="a" d="M17.919 28c-2.176 3.55-4.28 8.282-3.867 14.908.858 13.725 13.29 24.137 25.027 23.008 4.596-.441 9.314-4.187 8.895-10.896-.182-2.916-1.61-4.637-3.928-5.96-2.208-1.26-5.044-2.057-8.259-2.961-3.883-1.092-8.388-2.32-11.85-4.87-4.15-3.059-6.986-6.603-6.018-13.229Z"/>
    <path class="b" d="M62.081 52c2.176-3.55 4.28-8.282 3.867-14.908-.858-13.725-13.29-24.137-25.027-23.008-4.596.441-9.314 4.187-8.895 10.896.182 2.916 1.61 4.637 3.928 5.96 2.208 1.26 5.044 2.057 8.259 2.961 3.883 1.092 8.388 2.32 11.85 4.87 4.15 3.059 6.986 6.603 6.018 13.229Z"/>
</svg>
