<svg height="28" width="259" viewBox="0 0 148 16" fill="none" xmlns="http://www.w3.org/2000/svg">
  <style>.a{fill:#00A3E0}.b{fill:#B9D9EB}.c{fill:#D9E1E2}</style>
  <g class="a">
    <path d="M13.72 5.88a.49.49 0 0 0-.49.49 7.28 7.28 0 0 1-7.28 7.28.49.49 0 1 0 0 .97c4.57 0 8.26-3.7 8.26-8.25a.49.49 0 0 0-.49-.5Z"/>
    <path d="M1.24 3.83A5.28 5.28 0 0 0 .4 7.05c.19 2.96 2.87 5.2 5.4 4.97 1-.1 2.02-.9 1.93-2.36-.04-.63-.35-1-.85-1.28a7.65 7.65 0 0 0-1.78-.64c-.84-.24-1.81-.5-2.56-1.06-.9-.66-1.51-1.42-1.3-2.85Z"/>
    <path fill-rule="evenodd" clip-rule="evenodd" d="M23.67 10.58c.68-.97 1.02-2.36 1.02-4.16 0-1.81-.34-3.2-1.02-4.16A3.33 3.33 0 0 0 20.77.8a3.4 3.4 0 0 0-2.95 1.45c-.68.96-1.02 2.34-1.02 4.15 0 1.82.34 3.22 1.02 4.19a3.36 3.36 0 0 0 2.93 1.44c1.26 0 2.24-.48 2.92-1.45Zm-4.3-1.32a6.74 6.74 0 0 1-.48-2.84c0-1.25.16-2.2.47-2.85.32-.65.78-.98 1.4-.98 1.22 0 1.83 1.28 1.83 3.83 0 2.54-.61 3.82-1.84 3.82-.61 0-1.07-.33-1.39-.98Zm8.7 2.56c.28.16.58.21.93.21.77 0 1.39-.36 1.83-1.13.44-.77.66-1.83.66-3.18 0-1.38-.21-2.44-.64-3.2-.43-.75-1.02-1.12-1.77-1.12-.78 0-1.4.46-1.8 1.3h-.11l-.32-1.09h-1.52V15.6h1.95v-3.57c0-.14-.03-.61-.11-1.3h.1c.17.5.53.92.8 1.09Zm-.5-6.18c.18-.37.46-.55.84-.55.37 0 .63.22.8.65.17.43.26 1.08.26 1.95 0 1.76-.35 2.65-1.04 2.65-.4 0-.69-.21-.86-.63a5.67 5.67 0 0 1-.26-2.01v-.26c0-.84.1-1.44.27-1.8Zm7.73 6.4a3.04 3.04 0 0 1-2.48-1.11c-.6-.75-.9-1.8-.9-3.15 0-1.38.27-2.45.82-3.23a2.64 2.64 0 0 1 2.28-1.15c.91 0 1.63.33 2.16.99.52.66.79 1.58.79 2.77v1.1h-4c.02.74.15 1.26.44 1.63.29.36.69.54 1.2.54.65 0 1.31-.2 2-.61v1.64a4.4 4.4 0 0 1-2.31.57ZM35 4.92c-.28 0-.51.15-.7.45-.18.3-.3.84-.33 1.47h2.05a3.3 3.3 0 0 0-.3-1.45c-.17-.31-.4-.47-.71-.47Zm7.83 1.92v4.97h1.94V6.46c0-1-.2-1.76-.57-2.28-.37-.52-.94-.78-1.7-.78a1.99 1.99 0 0 0-1.94 1.29h-.11l-.27-1.08h-1.57v8.2h2.06V7.89c0-1.02.03-1.71.23-2.14.2-.43.52-.65.94-.65.33 0 .56.16.7.47.15.31.29.68.29 1.3Z"/>
  </g>
  <g class="b">
    <path d="M10.77 9.01c.47-.77.93-1.79.84-3.22C11.42 2.83 8.74.58 6.2.82c-1 .1-2.02.9-1.93 2.36.04.63.35 1 .85 1.28a8.2 8.2 0 0 0 1.79.64c.83.24 1.8.5 2.55 1.05.9.66 1.51 1.43 1.3 2.86Z"/>
    <path fill-rule="evenodd" clip-rule="evenodd" d="M78.67 6.85v4.97h1.95v-5.4c0-1-.2-1.75-.59-2.26-.39-.51-.97-.76-1.74-.76-.82 0-1.49.48-1.89 1.3h-.1l.07-.84c.02-.18.03-.3.03-.46V.26h-1.94v11.56h2.05v-4c0-.9.03-1.56.22-2.03.18-.48.5-.72.96-.72.62 0 .98.57.98 1.78Zm-28.21 4.37c.52-.54.79-1.33.79-2.35 0-.63-.15-1.2-.43-1.7a4.6 4.6 0 0 0-1.51-1.46 4.84 4.84 0 0 1-1.13-.94c-.21-.27-.32-.6-.32-.96 0-.38.09-.67.27-.88a.95.95 0 0 1 .77-.33c.3 0 .58.05.85.16s.52.24.76.38l.68-1.63a4.7 4.7 0 0 0-2.44-.7c-.9 0-1.6.27-2.13.82a3.08 3.08 0 0 0-.79 2.22 3.51 3.51 0 0 0 .77 2.29c.24.3.6.6 1.08.93a5 5 0 0 1 1.17 1c.24.3.36.63.36 1s-.1.66-.3.87c-.2.22-.5.32-.89.32a4.3 4.3 0 0 1-2.28-.8v2.01c.68.38 1.5.56 2.46.56.99 0 1.74-.27 2.26-.81Zm2.12-.3c.6.74 1.43 1.11 2.48 1.11.9 0 1.66-.19 2.3-.57V9.82c-.68.4-1.34.6-2 .6-.5 0-.9-.17-1.2-.53-.29-.37-.41-.9-.43-1.64h4V7.16c0-1.19-.27-2.11-.8-2.77a2.6 2.6 0 0 0-2.15-1c-.98 0-1.74.4-2.28 1.16a5.51 5.51 0 0 0-.82 3.23c0 1.35.3 2.4.9 3.15Zm1.48-5.54c.19-.3.42-.45.7-.45.31 0 .55.16.73.47.17.31.28.84.3 1.45h-2.06c.03-.63.14-1.17.33-1.47Zm8.52 6.44-.32-1.08h-.1c-.3.49-.6.83-.9 1.02-.33.18-.73.27-1.21.27-.62 0-1.11-.23-1.47-.68a3.06 3.06 0 0 1-.53-1.91c0-.88.24-1.53.73-1.95a3.5 3.5 0 0 1 2.18-.71l1.12-.05v-.6c0-.77-.34-1.16-1.02-1.16-.5 0-1.08.2-1.74.58l-.7-1.37a5.02 5.02 0 0 1 2.72-.78c.9 0 1.59.25 2.05.76.47.5.7 1.21.7 2.14v5.52h-1.5Zm-1.7-1.34a1 1 0 0 0 .87-.48c.22-.33.33-.77.33-1.31v-.7l-.62.03c-.46.02-.8.15-1.01.39-.21.23-.32.58-.32 1.04 0 .69.25 1.03.74 1.03Zm8.18-6.92a3.1 3.1 0 0 0-.81-.16c-.34 0-.64.1-.9.33-.25.22-.45.44-.66.96h-.11l-.32-1.08h-1.52v8.2h2.05V7.5c0-.73.04-1.2.3-1.57.25-.38.62-.58 1.1-.58.22 0 .41.05.55.1l.32-1.9Zm3.03 8.47c-.99 0-1.74-.33-2.26-1.05a5.48 5.48 0 0 1-.77-3.18c0-1.47.25-2.56.73-3.29a2.52 2.52 0 0 1 2.24-1.11c.3 0 .65.07.99.16.33.1.74.2 1 .38l-.66 1.56a2.2 2.2 0 0 0-1.1-.37c-.41 0-.72.23-.9.67-.19.44-.28 1.1-.28 1.98 0 .86.1 1.5.27 1.94.19.42.49.63.9.63.5 0 1.01-.17 1.55-.52v1.75c-.52.32-1.09.45-1.71.45Z"/>
  </g>
  <path class="c" d="M90.82 6.37c0 1.77-.36 3.13-1.08 4.07a3.69 3.69 0 0 1-3.11 1.4H84V1.1h2.87a3.4 3.4 0 0 1 2.91 1.39c.7.92 1.04 2.2 1.04 3.87Zm-2.04.06c0-2.4-.66-3.6-1.98-3.6H86v7.26h.64c.73 0 1.27-.3 1.62-.9.34-.62.52-1.54.52-2.76Zm7.05 5.41-.39-1.12h-.04a2.9 2.9 0 0 1-.9 1c-.3.17-.7.27-1.16.27a1.7 1.7 0 0 1-1.43-.68 3.04 3.04 0 0 1-.51-1.88c0-.86.23-1.5.7-1.91a3.36 3.36 0 0 1 2.12-.7l1.1-.04v-.6c0-.75-.34-1.14-1-1.14-.49 0-1.05.2-1.69.58l-.67-1.35c.81-.52 1.7-.77 2.65-.77.86 0 1.52.25 1.97.74a3 3 0 0 1 .68 2.11v5.49h-1.43Zm-1.7-1.38c.36 0 .65-.16.86-.48.21-.32.32-.75.32-1.28V8l-.6.04c-.45.02-.77.15-.98.38-.2.23-.31.57-.31 1.03 0 .67.24 1 .72 1Zm8.65-1.01c0 .8-.24 1.42-.7 1.87-.47.44-1.16.67-2.07.67-.8 0-1.47-.16-2-.48V9.8a3.82 3.82 0 0 0 1.9.65c.3 0 .52-.07.68-.22a.78.78 0 0 0 .24-.6.95.95 0 0 0-.25-.65 4.24 4.24 0 0 0-.91-.68 3.82 3.82 0 0 1-1.28-1.12c-.26-.4-.38-.88-.38-1.42 0-.7.23-1.24.7-1.65.49-.4 1.14-.6 1.98-.6.72 0 1.4.18 2.04.56l-.64 1.4a2.99 2.99 0 0 0-1.38-.42c-.24 0-.43.06-.56.2a.69.69 0 0 0-.18.48c0 .22.07.42.22.59.16.17.45.38.87.64.5.3.87.57 1.07.78a2.32 2.32 0 0 1 .65 1.7Zm4.85 2.39V6.97c0-1.2-.3-1.8-.9-1.8-.45 0-.77.24-.95.71a5.9 5.9 0 0 0-.27 2.03v3.93h-1.95V.42h1.95v2.54c0 .33-.03.91-.09 1.75h.1c.4-.8 1-1.2 1.81-1.2.75 0 1.31.25 1.7.76.38.5.57 1.25.57 2.23v5.34h-1.97Zm6.79-8.33c.74 0 1.32.37 1.75 1.1.42.75.64 1.79.64 3.13a6.3 6.3 0 0 1-.65 3.14c-.42.74-1.02 1.1-1.77 1.1-.37 0-.7-.07-.98-.23a2.42 2.42 0 0 1-.8-.84h-.12l-.33.93h-1.44V.42h1.96V3.1l-.01.35c0 .13-.04.55-.1 1.29h.1c.25-.45.5-.77.78-.95.28-.18.6-.27.97-.27Zm-.68 1.66a.84.84 0 0 0-.8.52c-.17.35-.25.96-.26 1.83v.2c0 .95.08 1.62.24 2 .18.4.45.58.83.58.7 0 1.06-.86 1.06-2.6 0-1.68-.36-2.53-1.07-2.53Zm10.04 2.57c0 1.34-.28 2.38-.85 3.13a2.77 2.77 0 0 1-2.33 1.12 2.8 2.8 0 0 1-1.66-.52 3.25 3.25 0 0 1-1.1-1.47 6.02 6.02 0 0 1-.4-2.26c0-1.33.28-2.36.85-3.1a2.76 2.76 0 0 1 2.34-1.13c.96 0 1.73.38 2.3 1.15a5 5 0 0 1 .85 3.08Zm-4.34 0c0 .85.1 1.5.28 1.93.18.43.48.65.9.65.77 0 1.17-.86 1.17-2.58 0-.86-.1-1.5-.3-1.92-.18-.42-.47-.64-.88-.64-.4 0-.7.22-.9.64a5 5 0 0 0-.27 1.92Zm9.26 4.1-.38-1.12h-.04c-.3.48-.6.81-.9 1-.3.17-.7.27-1.17.27a1.7 1.7 0 0 1-1.42-.68 3.04 3.04 0 0 1-.51-1.88c0-.86.23-1.5.7-1.91a3.36 3.36 0 0 1 2.12-.7l1.09-.04v-.6c0-.75-.33-1.14-1-1.14-.48 0-1.04.2-1.68.58l-.68-1.35c.82-.52 1.7-.77 2.65-.77.87 0 1.53.25 1.98.74.45.5.68 1.2.68 2.11v5.49h-1.43Zm-1.69-1.38c.36 0 .64-.16.85-.48.22-.32.33-.75.33-1.28V8l-.6.04c-.45.02-.78.15-.99.38-.2.23-.3.57-.3 1.03 0 .67.23 1 .71 1Zm7.74-6.95c.24 0 .48.04.7.11l-.22 1.9a1.62 1.62 0 0 0-.54-.08c-.47 0-.84.19-1.1.57a2.9 2.9 0 0 0-.37 1.62v4.2h-1.95V3.67h1.6l.22 1.28h.07c.21-.51.45-.88.7-1.1.26-.22.55-.33.9-.33Zm3.28 8.48c-.75 0-1.35-.38-1.78-1.12a6.17 6.17 0 0 1-.66-3.1c0-1.33.22-2.38.64-3.13.43-.75 1.01-1.13 1.76-1.13.37 0 .7.1.96.28.28.18.53.49.76.92h.12a23 23 0 0 1-.1-1.56V.42h1.96v11.42h-1.45l-.33-1.07h-.07c-.42.81-1.02 1.22-1.81 1.22Zm.63-1.66c.36 0 .63-.16.8-.49.16-.33.25-.93.26-1.8v-.26c0-.95-.08-1.62-.25-2-.17-.39-.45-.58-.83-.58-.36 0-.63.22-.8.67a5.9 5.9 0 0 0-.24 1.93c0 .84.09 1.48.25 1.9.17.42.44.63.8.63Zm8.61-.88c0 .8-.24 1.42-.7 1.87-.47.44-1.16.67-2.07.67-.8 0-1.47-.16-2-.48V9.8a3.83 3.83 0 0 0 1.9.65c.3 0 .53-.07.68-.22a.78.78 0 0 0 .24-.6.95.95 0 0 0-.24-.65 4.24 4.24 0 0 0-.92-.68 3.82 3.82 0 0 1-1.28-1.12 2.6 2.6 0 0 1-.38-1.42c0-.7.24-1.24.71-1.65a3 3 0 0 1 1.97-.6c.72 0 1.4.18 2.05.56l-.64 1.4a2.98 2.98 0 0 0-1.38-.42c-.25 0-.44.06-.57.2a.69.69 0 0 0-.18.48c0 .22.07.42.23.59.15.17.44.38.86.64.51.3.87.57 1.07.78a2.36 2.36 0 0 1 .65 1.7Z"/>
</svg>
