<?xml version="1.0" encoding="utf-8"?>
<!-- Generator: Adobe Illustrator 25.2.3, SVG Export Plug-In . SVG Version: 6.00 Build 0)  -->
<svg version="1.1" id="Capa_1" xmlns="http://www.w3.org/2000/svg" xmlns:xlink="http://www.w3.org/1999/xlink" x="0px" y="0px"
	 width="820.1px" height="212.9px" viewBox="0 0 820.1 212.9" style="enable-background:new 0 0 820.1 212.9;" xml:space="preserve"
	>
<style type="text/css">
	.st0{fill:#007AFF;}
	.st1{fill:#3585F9;}
	.st2{fill:#FFFFFF;}
	.st3{opacity:0.4;}
	.st4{opacity:0.3;fill:#007AFF;}
</style>
<g>
	<polygon class="st2" points="69.7,179.7 33.5,61.1 56.2,61.1 81,142.5 106.1,61.1 125.8,61.1 150.9,142.5 175.7,61.1 198.3,61.1 
		162.1,179.7 143.6,179.7 116,93.8 88.2,179.7 	"/>
	<polygon class="st2" points="353.1,179.7 353.1,176.1 420.4,81.7 359.3,81.7 359.3,61.1 456.9,61.1 456.9,64.9 389.7,159.2 
		453.6,159.2 453.6,179.7 	"/>
	<g>
		<path class="st2" d="M307.4,73.6c-10.2-10.6-24-16.2-40.4-16.2c-34.5,0-60.6,27.1-60.6,63.1c0,36,26,63.1,60.6,63.1
			c16.3,0,30.2-5.6,40.4-16.1v13.6h23.2V59.9h-23.2V73.6z M269.4,161.8c-22.8,0-39.4-17.3-39.4-41.2c0-23.8,16.6-41.1,39.4-41.1
			c22.7,0,39.2,17.3,39.2,41.1C308.6,144.4,292.1,161.8,269.4,161.8z"/>
		<path class="st2" d="M565,59.9v68.3c0,21.3-11.7,33.5-32.1,33.5c-20.5,0-32.3-12.2-32.3-33.5V59.9h-23.2v70.2
			c0,39.5,29.9,53.5,55.5,53.5c25.5,0,55.4-14,55.4-53.5V59.9H565z"/>
	</g>
	<path class="st2" d="M616.9,179.7V29.3h20.5v77.6h2.7v72.8H616.9z M700.3,179.7v-58.3c0-4.6-0.4-9.3-1.2-14.2
		c-0.8-4.9-2.2-9.4-4.4-13.6c-2.2-4.2-5.2-7.5-9.1-10.1c-3.9-2.6-9-3.8-15.3-3.8c-4.1,0-8,0.7-11.6,2c-3.7,1.4-6.9,3.5-9.6,6.5
		c-2.7,3-4.9,7-6.5,11.9c-1.6,4.9-2.4,10.9-2.4,17.9l-14.3-5.4c0-10.8,2-20.3,6-28.5c4-8.2,9.8-14.7,17.4-19.3
		c7.5-4.6,16.7-6.9,27.3-6.9c8.2,0,15.1,1.3,20.7,4c5.6,2.6,10.1,6.1,13.6,10.4c3.5,4.3,6.1,9,8,14c1.8,5.1,3.1,10,3.7,14.8
		c0.7,4.8,1,9.1,1,12.7v65.9H700.3z"/>
	<circle class="st1" cx="767.9" cy="163.4" r="18.7"/>
</g>
</svg>
