<?xml version="1.0" encoding="utf-8"?>
<!-- Generator: Adobe Illustrator 25.2.3, SVG Export Plug-In . SVG Version: 6.00 Build 0)  -->
<svg version="1.1" id="Capa_1" xmlns="http://www.w3.org/2000/svg" xmlns:xlink="http://www.w3.org/1999/xlink" x="0px" y="0px"
	 width="305px" height="72.7px" viewBox="0 0 305 72.7" style="enable-background:new 0 0 305 72.7;" xml:space="preserve">
<style type="text/css">
	.st0{fill:#007AFF;}
</style>
<g>
	<polygon points="48.5,50.8 38.5,18.2 30.6,18.2 20.5,50.8 10.6,18.1 1.4,18.1 16,65.7 23.4,65.7 34.5,31.3 45.6,65.7 53,65.7 
		67.6,18.2 58.5,18.2 	"/>
	<polygon points="132.1,26.4 156.7,26.4 129.7,64.3 129.7,65.7 170,65.7 170,57.5 144.3,57.5 171.3,19.7 171.3,18.2 132.1,18.2 	"/>
	<path d="M111.3,23.2c-4.1-4.3-9.6-6.5-16.2-6.5c-13.9,0-24.3,10.9-24.3,25.3c0,14.4,10.4,25.3,24.3,25.3c6.5,0,12.1-2.2,16.2-6.5
		v5.5h9.3V17.7h-9.3V23.2z M96.1,58.5c-9.1,0-15.8-7-15.8-16.5c0-9.6,6.6-16.5,15.8-16.5c9.1,0,15.7,6.9,15.7,16.5
		C111.8,51.6,105.2,58.5,96.1,58.5z"/>
	<path d="M214.7,45.1c0,8.5-4.7,13.4-12.9,13.4c-8.2,0-12.9-4.9-12.9-13.4V17.7h-9.3v28.2c0,15.8,12,21.5,22.3,21.5
		c10.2,0,22.2-5.6,22.2-21.5V17.7h-9.3V45.1z"/>
	<path d="M277.9,34.2c-0.3-1.9-0.8-3.9-1.5-5.9c-0.7-2-1.8-3.9-3.2-5.6c-1.4-1.7-3.2-3.1-5.4-4.2c-2.2-1.1-5-1.6-8.3-1.6
		c-4.3,0-7.9,0.9-11,2.8c-1.9,1.1-3.4,2.5-4.8,4.2V5.4h-8.2v60.3h9.3V41c0-2.8,0.3-5.2,0.9-7.2c0.6-2,1.5-3.6,2.6-4.8
		c1.1-1.2,2.4-2.1,3.9-2.6c1.5-0.5,3-0.8,4.7-0.8c2.5,0,4.6,0.5,6.1,1.5c1.6,1,2.8,2.4,3.7,4.1c0.9,1.7,1.5,3.5,1.8,5.4
		c0.3,2,0.5,3.9,0.5,5.7v23.4h9.3V39.3C278.3,37.8,278.1,36.1,277.9,34.2z"/>
	<circle class="st0" cx="296" cy="59.2" r="7.5"/>
</g>
</svg>
