<svg width="491" height="380" viewBox="0 0 491 380" fill="none" xmlns="http://www.w3.org/2000/svg">
<rect x="34.9375" y="52.1173" width="454.908" height="283.673" rx="3" stroke="#78AEC3" stroke-opacity="0.15" stroke-width="2"/>
<rect x="232.027" y="63.9851" width="243.832" height="161.605" rx="3" stroke="#DCE9EE" stroke-opacity="0.2" stroke-width="2"/>
<rect x="246.286" y="99.4361" width="66.968" height="75.4449" rx="4" fill="#8EC1D5" fill-opacity="0.15"/>
<rect x="321.286" y="99.4361" width="66.968" height="75.4449" rx="4" fill="#8EC1D5" fill-opacity="0.15"/>
<rect x="396.286" y="99.4361" width="66.968" height="75.4449" rx="4" fill="#8EC1D5" fill-opacity="0.15"/>
<rect x="145.41" y="71.4622" width="63.3605" height="13.5631" rx="4" fill="#8EC1D5" fill-opacity="0.15"/>
<rect x="58.2393" y="161.88" width="63.3605" height="9.49017" rx="4" fill="#8EC1D5" fill-opacity="0.15"/>
<rect x="145.41" y="92.6545" width="63.3605" height="13.5631" rx="4" fill="#8EC1D5" fill-opacity="0.15"/>
<rect x="58.2393" y="176.709" width="38.3774" height="9.49017" rx="4" fill="#8EC1D5" fill-opacity="0.15"/>
<rect x="145.41" y="113.847" width="63.3605" height="13.5631" rx="4" fill="#8EC1D5" fill-opacity="0.15"/>
<rect x="58.2393" y="191.537" width="49.2025" height="9.49017" rx="4" fill="#8EC1D5" fill-opacity="0.15"/>
<rect x="58.2393" y="206.365" width="63.3605" height="9.49017" rx="4" fill="#8EC1D5" fill-opacity="0.15"/>
<rect x="246.286" y="74.0052" width="216.967" height="17.8016" rx="4" fill="#9EC3D2" fill-opacity="0.35"/>
<rect x="54.499" y="69.8009" width="65.2726" height="17.8016" rx="4" fill="#9EC3D2" fill-opacity="0.15"/>
<rect x="48.4248" y="239.806" width="244.832" height="84.6173" rx="3.5" stroke="#78AEC3" stroke-opacity="0.15"/>
<g filter="url(#filter0_d_4982_38814)">
<rect x="315.449" y="239.806" width="160.91" height="84.6173" rx="3.5" stroke="#78AEC3" stroke-opacity="0.15" shape-rendering="crispEdges"/>
</g>
<path d="M117.624 121.722C117.885 123.916 116.071 125.715 113.862 125.715C108.318 125.715 97.5714 125.715 85.2232 125.715C72.875 125.715 62.1286 125.715 56.5846 125.715C54.3755 125.715 52.5618 123.916 52.8225 121.722C54.7686 105.346 68.5328 92.6549 85.2232 92.6549C101.914 92.6549 115.678 105.346 117.624 121.722Z" fill="#9EC3D2" fill-opacity="0.35"/>
<rect width="20.0404" height="11.6096" rx="4" transform="matrix(4.37114e-08 -1 -1 -4.37114e-08 463.296 217.582)" fill="#9EC3D2" fill-opacity="0.35"/>
<rect width="27.8823" height="11.6096" rx="4" transform="matrix(4.60499e-08 -1 -1 -4.14917e-08 443.649 217.582)" fill="#9EC3D2" fill-opacity="0.35"/>
<rect width="20.0404" height="11.6096" rx="4" transform="matrix(4.60499e-08 -1 -1 -4.14917e-08 424.002 217.582)" fill="#9EC3D2" fill-opacity="0.35"/>
<rect width="33.1102" height="11.6096" rx="4" transform="matrix(4.60499e-08 -1 -1 -4.14917e-08 404.355 217.582)" fill="#9EC3D2" fill-opacity="0.35"/>
<rect width="33.1102" height="11.6096" rx="4" transform="matrix(4.60499e-08 -1 -1 -4.14917e-08 387.387 217.582)" fill="#9EC3D2" fill-opacity="0.35"/>
<rect width="9.14887" height="11.6096" rx="4" transform="matrix(4.60499e-08 -1 -1 -4.14917e-08 367.74 217.582)" fill="#9EC3D2" fill-opacity="0.35"/>
<rect width="25.704" height="11.6096" rx="4" transform="matrix(4.60499e-08 -1 -1 -4.14917e-08 350.772 217.582)" fill="#9EC3D2" fill-opacity="0.35"/>
<rect width="17.8621" height="11.6096" rx="4" transform="matrix(4.60499e-08 -1 -1 -4.14917e-08 331.125 217.582)" fill="#9EC3D2" fill-opacity="0.35"/>
<rect width="22.6544" height="11.6096" rx="4" transform="matrix(4.60499e-08 -1 -1 -4.14917e-08 311.478 217.582)" fill="#9EC3D2" fill-opacity="0.35"/>
<rect width="31.3676" height="11.6096" rx="4" transform="matrix(4.60499e-08 -1 -1 -4.14917e-08 291.831 217.582)" fill="#9EC3D2" fill-opacity="0.35"/>
<rect width="20.0404" height="11.6096" rx="4" transform="matrix(4.60499e-08 -1 -1 -4.14917e-08 274.863 217.582)" fill="#9EC3D2" fill-opacity="0.35"/>
<rect width="16.1194" height="11.6096" rx="4" transform="matrix(4.60499e-08 -1 -1 -4.14917e-08 257.896 217.582)" fill="#9EC3D2" fill-opacity="0.35"/>
<rect x="56.4019" y="316.446" width="38.994" height="11.02" rx="4" transform="rotate(-90 56.4019 316.446)" fill="#9EC3D2" fill-opacity="0.35"/>
<rect x="75.0513" y="316.446" width="54.2525" height="11.02" rx="4" transform="rotate(-90 75.0513 316.446)" fill="#9EC3D2" fill-opacity="0.35"/>
<rect x="93.7002" y="316.446" width="38.994" height="11.02" rx="4" transform="rotate(-90 93.7002 316.446)" fill="#9EC3D2" fill-opacity="0.35"/>
<rect x="112.35" y="316.446" width="64.4249" height="11.02" rx="4" transform="rotate(-90 112.35 316.446)" fill="#9EC3D2" fill-opacity="0.35"/>
<rect x="128.456" y="316.446" width="64.4249" height="11.02" rx="4" transform="rotate(-90 128.456 316.446)" fill="#9EC3D2" fill-opacity="0.35"/>
<rect x="147.105" y="316.446" width="17.8016" height="11.02" rx="4" transform="rotate(-90 147.105 316.446)" fill="#9EC3D2" fill-opacity="0.35"/>
<rect x="163.211" y="316.446" width="50.014" height="11.02" rx="4" transform="rotate(-90 163.211 316.446)" fill="#9EC3D2" fill-opacity="0.35"/>
<rect x="181.861" y="316.446" width="34.7555" height="11.02" rx="4" transform="rotate(-90 181.861 316.446)" fill="#9EC3D2" fill-opacity="0.35"/>
<rect x="200.51" y="316.446" width="44.0802" height="11.02" rx="4" transform="rotate(-90 200.51 316.446)" fill="#9EC3D2" fill-opacity="0.35"/>
<rect x="219.159" y="316.446" width="61.0341" height="11.02" rx="4" transform="rotate(-90 219.159 316.446)" fill="#9EC3D2" fill-opacity="0.35"/>
<rect x="235.266" y="316.446" width="38.994" height="11.02" rx="4" transform="rotate(-90 235.266 316.446)" fill="#9EC3D2" fill-opacity="0.35"/>
<rect x="251.372" y="316.446" width="31.3647" height="11.02" rx="4" transform="rotate(-90 251.372 316.446)" fill="#9EC3D2" fill-opacity="0.35"/>
<rect x="270.021" y="316.446" width="31.3647" height="11.02" rx="4" transform="rotate(-90 270.021 316.446)" fill="#9EC3D2" fill-opacity="0.35"/>
<path d="M414.273 287.866L414.994 288.267L415.207 288.258L416.997 287.756L417.201 288.291L417.058 288.743L416.67 288.994L415.704 288.944L414.32 288.249L414.273 287.866Z" fill="#9EC3D2" fill-opacity="0.35"/>
<path d="M417.501 282.076L417.655 282.578L419.396 282.704L419.518 281.673L419.854 281.523L419.946 281.146L419.396 281.272L418.785 282.027L417.501 282.076Z" fill="#9EC3D2" fill-opacity="0.35"/>
<path d="M421.054 276.605L421.335 278.404L422.035 278.53L422.1 278.853L421.598 279.196L422.533 279.812L424.349 279.278L424.494 278.645L425.637 278.062L426.076 276.711L426.403 276.423L426.063 275.941L427.17 275.382L427.028 275.22L426.518 275.246L426.471 275.63L425.786 275.625L425.773 275.112L425.552 274.897L425.182 275.173L425.192 275.426L424.632 275.599L423.598 275.545L422.256 276.695L421.054 276.605Z" fill="#9EC3D2" fill-opacity="0.35"/>
<path d="M401.601 274.109V274.774L401.834 275.134L402.002 275.118L402.29 274.689L402.123 274.497L402.057 274.022L401.834 273.853L401.601 274.109Z" fill="#9EC3D2" fill-opacity="0.35"/>
<path d="M413.209 274.127L414.058 275.031L413.808 275.27L413.208 275.184L412.462 274.638L412.502 274.28L413.209 274.127Z" fill="#9EC3D2" fill-opacity="0.35"/>
<path d="M398.88 295.326L399.483 297.164L399.468 297.745L398.587 298.519L398.455 299.776L401.847 299.801L402.95 300.127L403.859 300.03L403.329 299.487L403.331 297.937L404.374 297.9V297.296L403.528 297.267L403.358 295.834L403.001 295.838L402.808 295.696L402.598 295.706L402.319 296.148H401.245L400.996 295.943L401.07 295.653L400.777 295.302L398.88 295.326Z" fill="#9EC3D2" fill-opacity="0.35"/>
<path d="M398.514 294.824L398.822 295.15L399.22 294.842L399.103 294.523L399.004 294.518L398.514 294.824Z" fill="#9EC3D2" fill-opacity="0.35"/>
<path d="M366.52 304.204L366.863 304.467L365.561 306.048L365.103 306.462L365.262 308.269L366.267 309.266L365.423 310.471L364.783 310.696H364.052L364.257 311.636L363.113 311.957L363.387 312.747L362.702 314.534L363.548 315.099L363.091 316.02L362.313 317.018L362.725 317.714L361.719 317.845L360.896 317.018L360.758 314.44L359.479 310.062L359.866 308.532L359.043 306.575L359.591 304.036L360.094 303.546L359.97 303.175L360.617 302.692L362.059 302.773L362.864 303.476L363.796 303.489L364.75 303.966L364.469 304.503L364.536 305.046L365.887 304.994L366.52 304.204Z" fill="#9EC3D2" fill-opacity="0.35"/>
<path d="M363.596 318.728L363.642 319.555L364.42 319.499L365.082 319.141L363.962 318.953L363.596 318.728Z" fill="#9EC3D2" fill-opacity="0.35"/>
<path d="M397.469 271.273L397.354 271.467L397.452 271.606L397.864 271.537H398.214L398.594 271.8L399.401 271.68L399.995 271.391L400.147 271.196L400.124 270.945L399.59 270.618L398.875 270.624L398.814 270.956L398.062 271.256L397.469 271.273Z" fill="#9EC3D2" fill-opacity="0.35"/>
<path d="M447.035 305.617L446.974 309.281L446.285 309.694L446.223 310.055L447.163 310.57L449.482 310.21H450.673L451.112 309.692L453.744 309.279L455.624 309.744L455.499 310.364L455.75 310.983L457.192 310.777L457.253 311.086L456.313 311.653L456.626 311.86L457.315 311.653L457.128 313.357L458.444 314.183L459.197 313.977L459.573 314.286L461.767 314.027L463.836 311.291L464.589 311.136L466.093 308.865L466.469 306.904L465.529 305.924L465.905 305.718L465.152 303.807L464.338 303.342L464.463 300.762L463.71 300.297L463.523 298.852H463.147L461.892 302.258L461.203 302.311L459.636 301.02L460.514 299.109L458.885 298.851L457.066 299.264L456.564 300.451L455.75 300.605L455.688 299.779L452.366 301.431L452.428 302.051L451.927 302.618H450.672L447.976 303.547L447.035 305.617Z" fill="#9EC3D2" fill-opacity="0.35"/>
<path d="M458.444 315.476L458.131 316.508L458.193 317.23L459.133 317.178L460.199 315.836L458.444 315.476Z" fill="#9EC3D2" fill-opacity="0.35"/>
<path d="M413.508 273.814L413.329 274.062L414.161 274.955L414.452 274.878L414.929 275.287L415.135 274.571L415.653 274.638L415.632 274.433L414.781 273.824L414.618 274.182L413.508 273.814Z" fill="#9EC3D2" fill-opacity="0.35"/>
<path d="M399.972 272.546L399.907 272.634L401.092 273.634L401.527 273.111L401.511 272.905L401.132 272.528L399.972 272.546Z" fill="#9EC3D2" fill-opacity="0.35"/>
<path d="M435.445 280.368L435.213 280.71L435.814 281.643L435.832 282.37L435.941 282.565L436.646 282.575L437.045 282.262L437.335 282.405L437.393 282.848L437.625 282.73L437.639 282.164L437.445 282.145L437.323 281.664L436.832 281.65L436.709 281.382L437.01 281.055L437.015 280.893H436.142L435.445 280.368Z" fill="#9EC3D2" fill-opacity="0.35"/>
<path d="M394.108 269.309L393.995 269.54L395.21 270.196L395.292 270.204L395.369 270.022L395.54 269.923L395.267 269.673H395.079L394.823 269.435L394.108 269.309Z" fill="#9EC3D2" fill-opacity="0.35"/>
<path d="M392.161 286.312L392.804 286.27L393.859 287.489L392.88 288.093L392.171 287.944L391.219 287.954L391.065 288.41L390.266 288.442L390.048 288.198L390.33 287.456L392.161 286.312Z" fill="#9EC3D2" fill-opacity="0.35"/>
<path d="M402.912 273.044L402.941 273.764L403.237 274.269L404.352 274.285L404.854 273.995L405.347 273.835L405.227 273.375L405.338 273.13L405.087 273.023L404.742 273.046L404.472 273.269L403.338 273.276L402.912 273.044Z" fill="#9EC3D2" fill-opacity="0.35"/>
<path d="M407.289 293.81L408.043 293.797L407.847 294.337L407.656 294.472H407.423L407.257 294.107L407.289 293.81Z" fill="#9EC3D2" fill-opacity="0.35"/>
<path d="M393.596 289.952H393.97L393.991 289.083L394.464 288.521L394.443 287.544L394.014 287.535L393.277 288.005L393.584 288.485L393.596 289.952Z" fill="#9EC3D2" fill-opacity="0.35"/>
<path d="M450.322 289.917L449.813 290.421L450.23 290.528L450.465 290.26L450.322 289.917Z" fill="#9EC3D2" fill-opacity="0.35"/>
<path d="M358.259 297.648L359.713 297.129L360.193 297.167L360.513 298.259L362.729 298.861L363.095 299.783L364.009 299.877L364.397 300.667L364.123 301.382L362.637 301.475L362.089 302.623L360.923 302.605L360.557 302.548L359.884 303.082L359.552 303.056L358.409 300.892L358.725 300.505L358.837 298.974L358.554 298.063L358.259 297.648Z" fill="#9EC3D2" fill-opacity="0.35"/>
<path d="M368.07 307.186L369.174 305.451L369.215 303.992L371.275 302.906H372.429L373.335 301.652L373.5 299.243L373.129 298.599L375.312 296.971L375.395 295.173L372.428 293.986L368.845 293.071L367.156 292.935L367.61 292.155L367.487 290.969L367.117 290.869L366.571 291.756L366.285 292.049L365.55 291.783L363.078 292.495L362.255 291.648L362.388 290.762L361.61 291.409L360.752 291.031L360.665 291.131L360.667 291.438L361.407 291.763L360.296 292.72L359.594 292.714L358.884 292.124L358.08 292.144L357.981 292.846L358.442 293.303L357.898 294.728L357.262 294.769L356.249 295.292L356.002 296.318L356.88 297.087L357.041 296.938L357.658 296.802L358.184 297.527L359.692 296.998L360.276 297.026L360.679 298.191L362.83 298.749L363.2 299.678L364.116 299.768L364.552 300.656L364.257 301.446L364.642 301.859L364.586 302.474L365.618 302.394L366.563 303.37L366.489 304.056L367.049 304.443L365.706 306.105L368.07 307.186Z" fill="#9EC3D2" fill-opacity="0.35"/>
<path d="M354.884 281.237L354.662 281.181L354.644 281.531L354.918 281.757L355.105 281.531L354.884 281.237ZM355.327 281.786L355.02 281.926L355.31 282.263L355.463 282.094L355.327 281.786ZM356.319 282.038L355.994 282.024L356.027 282.193L356.266 282.475L356.471 282.291L356.319 282.038ZM356.165 281.702L355.635 281.518L355.533 281.083L355.737 281.012L355.943 281.35L356.147 281.476L356.165 281.702ZM355.652 280.815L355.379 280.759L355.327 280.478L355.038 280.394L355.225 280.239L355.566 280.337L355.822 280.465L355.652 280.815Z" fill="#9EC3D2" fill-opacity="0.35"/>
<path d="M435.415 279.641L435.689 279.948L436.614 279.953L436.521 279.535L435.415 279.641Z" fill="#9EC3D2" fill-opacity="0.35"/>
<path d="M402.395 303.198L402.774 303.294L402.721 304.181L403.112 304.224L404.009 303.563L405.087 303.658L405.373 303.066L406.737 302.048L405.099 300.507L405.078 300.255L404.897 300.211L404.401 300.585L403.111 300.611L402.93 301.925L402.424 302.02L402.395 303.198Z" fill="#9EC3D2" fill-opacity="0.35"/>
<path d="M402.774 267.832L403.039 268.189L402.933 268.473L402.951 268.698L403.048 268.968L403.596 268.714L404.277 268.728L404.753 268.888H405.964L406.318 268.197L406.53 267.936V267.761L405.77 266.887L405.098 266.669L404.55 266.619L404.073 266.743L404.091 267.135L403.429 267.82L402.774 267.832Z" fill="#9EC3D2" fill-opacity="0.35"/>
<path d="M348.691 284.597L348.682 285.124H348.831L349.336 284.353H348.993L348.691 284.597Z" fill="#9EC3D2" fill-opacity="0.35"/>
<path d="M340.504 250.848L340.855 251.283L341.032 251.863L341.912 252.043L342.529 251.501L343.057 251.719L344.553 251.827L345.61 251.464L345.787 252.66H346.403V252.153L347.02 252.189L348.561 253.675L349.573 254.182L349.045 254.871L349.266 255.051L351.243 255.377L351.287 256.102L351.815 256.174L351.948 255.087L352.784 254.907L353.4 255.668L354.72 256.174L355.381 256.283L355.821 255.848L355.865 255.159L356.656 254.76L356.92 255.341L356.215 256.356L356.303 256.862L356.699 256.357L357.491 255.776L357.535 255.015L357.095 254.434L357.228 253.964L358.284 253.529L358.768 253.819L358.857 256.356L359.604 255.813L360.044 256.031L359.427 256.901L360.219 257.045L361.364 255.595L362.332 256.428L361.937 257.914L360.968 258.349L360.045 257.986L358.373 258.276L358.549 258.747L358.11 259.328L356.746 259.581L355.205 260.56L353.841 262.046L353.664 262.517L354.588 262.807L354.94 263.532L356.216 264.583L358.241 265.308L357.801 266.974L357.757 267.445L358.285 267.735L358.99 266.974L359.078 265.524L360.179 265.488L360.707 264.654L360.796 263.387L362.204 261.14L363.964 261.647L364.888 262.698L364.492 263.749L365.197 264.075L366.913 263.132L367.397 265.705L368.982 267.263L369.026 268.06L367.266 268.422L366.43 269.147L364.671 268.821L363.791 268.785L362.25 269.763L363.174 269.583L364.319 269.402L364.54 269.62L364.233 270.417L364.277 271.142L364.805 271.432L365.333 271.324L365.598 270.998H365.949L365.377 271.867L364.276 271.903L363.792 272.483H363.175L362.999 272.049L363.879 271.324L362.822 271.614L362.775 270.383L362.471 270.238L361.547 270.565L361.458 271.181H359.345L357.54 272.197L355.119 272.85L354.856 272.559L356.075 271.072L355.383 270.527L354.943 269.837L354.047 269.278L353.086 269.213L351.363 268.227L338.87 266.55L338.663 265.858L337.518 264.989V264.264L337.695 263.611L337.606 263.249L337.167 262.886L337.078 262.306L338.223 261.653L337.518 258.537L336.55 258.501L335.67 257.558L340.504 250.847L340.504 250.848Z" fill="#9EC3D2" fill-opacity="0.35"/>
<path d="M336.194 262.363L335.894 262.833L335.998 263.167L336.194 263.267L336.148 263.402L335.938 263.452L335.998 263.947L336.224 264.133L336.404 263.973L336.178 263.491L336.312 263.106L336.643 262.747L336.403 262.413L336.194 262.363ZM337.187 265.184L336.917 265.271L337.413 265.742L337.533 266.299L338.03 266.732L338.451 266.67V266.101L337.94 265.841L337.187 265.184ZM364.292 253.295L363.98 253.554L364.254 253.909L365.547 254.037L364.724 253.327L364.292 253.295ZM348.544 249.004L348.583 249.585L347.173 250.779L347.527 251.746L348.544 251.521L349.133 250.81L350.62 250.358L351.834 250.293L350.894 249.454L350.424 249.744L350.071 249.648L349.875 249.293L349.444 248.938L348.544 249.004ZM350.386 247.295L350.073 247.747L351.601 248.199L352.149 247.521L352.384 247.973H352.777L353.52 247.296L352.619 247.103L352.266 246.877L351.795 247.264L350.386 247.295ZM353.05 248.198L351.836 248.617V248.939L353.403 249.423L353.05 249.745L353.285 250.164L354.264 249.809H355.087L355.48 250.324L356.146 249.775L355.988 249.258L355.44 249.42L355.363 248.775L355.637 248.388H355.363L354.932 248.613L354.736 248.742L354.854 249.194L354.542 249.387L354.071 249.355L353.953 248.775L353.05 248.198ZM354.656 247.198L354.537 247.52L355.281 247.81L355.829 247.552L355.79 247.358L354.656 247.198ZM355.243 246.649L354.695 246.811L354.734 247.036L355.948 246.971L355.909 246.746L355.243 246.649ZM357.868 247.198L357.79 247.423L357.594 247.648V247.971L358.338 247.874L359.121 248.423H359.395V247.874L358.612 247.164L357.868 247.198ZM359.867 247.843L360.179 248.133L359.905 248.52L360.102 248.939L360.964 248.552V248.262L360.455 247.778L359.867 247.843ZM361.003 247.101L361.041 247.617H362.1L362.374 247.81L362.335 248.035L361.395 248.132L362.061 248.874L362.962 249.003L364.215 248.551L362.413 246.324L361.865 246.615L361.904 247.002L361.276 246.808L361.003 247.101ZM351.875 250.747L350.387 251.069L349.525 251.682L349.603 252.36L351.17 252.747L350.816 253.392L349.68 252.811L349.367 253.295L350.111 253.714L350.073 254.391L351.208 254.65L352.579 254.584L352.814 254.229L353.832 255.165L354.537 254.972L354.655 254.326L355.164 254.616L355.242 253.971L354.615 253.649L354.654 251.617L354.106 251.262L353.519 251.908L351.875 250.747ZM356.654 252.166L356.145 251.973L355.872 252.263L356.419 252.973L356.458 253.65L357.633 253.07V252.231L358.065 251.876L357.633 251.617H356.928L356.654 252.166ZM359.162 251.876L358.338 252.425L358.534 253.102H359.043L359.278 252.747L359.632 253.037L359.985 253.005L360.925 252.36L359.162 251.876ZM359.082 250.81L358.886 251.132L359.748 251.391L359.983 251.101L359.082 250.81ZM358.573 249.584L357.711 249.681L357.202 250.068L358.142 250.1L357.868 250.68L358.064 250.939L358.338 250.907L359.004 250.036L358.573 249.584ZM360.063 249.359L359.592 249.488L359.67 250.004L360.453 250.422L360.492 250.744L360.257 250.938L360.376 251.583L363.391 252.389L364.215 252.614L365.038 252.034L364.059 251.388L363.158 251.582L361.905 251.485L361.435 251.098L361.317 250.034L360.534 249.712L360.063 249.359ZM362.529 252.715L361.667 252.65L360.649 252.971L360.101 253.584L360.259 255.261L361.942 255.326L363.548 255.972L364.685 257.036L365.547 257.004L365.312 258.003L364.529 259.067L363.667 259.389L363.039 259.293L362.727 259.067L362.257 259.583L362.453 260.098L363.119 260.13L363.942 259.808L364.648 261.292L366.411 262.228L367.624 260.97L366.607 259.616L367.195 259.067L368.018 260.197L369.506 259.132L369.232 258.648L368.214 258.907L367.51 257.326L368.176 256.423L366.843 255.263L366.099 255.682L365.395 254.424L363.907 254.585L363.515 253.069L362.301 253.747L362.183 254.585H361.517L361.594 253.843L362.529 252.715ZM363.039 249.649V249.94L362.177 250.101L362.413 250.423L363.391 250.745L364.489 250.842L365.272 251.294L366.055 250.939L365.506 250.487H366.212L366.642 250.1L367.701 249.971V249.778L367.113 249.456L367.19 249.101L368.835 249.326L371.264 248.552L370.363 248.327L370.598 248.068H372.478L372.791 247.81L368.99 246.713L368.089 246.454L367.11 247.035L366.013 246.293L365.425 246.261L365.306 246.875L364.562 246.327L363.7 246.552L363.858 246.907L365.151 247.133L365.073 247.648L365.778 248.003L367.503 247.648L367.542 248.132L366.132 248.681L365.27 248.132L364.487 248.197L365.27 249.101L364.877 249.263L364.289 248.843L363.858 249.069L364.251 249.681H364.917L364.759 250.262L364.212 250.196L363.506 249.583L363.039 249.649ZM359.548 258.528L358.801 259.296L358.755 260.142L359.408 259.835H360.202L360.762 260.258L361.276 259.911L359.548 258.528ZM368.649 268.52L366.782 269.981L366.969 270.327L369.256 271.019L369.583 270.558L369.395 269.79L368.648 269.867L368.227 269.482L368.927 268.906L368.649 268.52Z" fill="#9EC3D2" fill-opacity="0.35"/>
<path d="M399.014 295.182L400.836 295.156L401.206 295.585L401.191 295.901L401.327 296.002H402.232L402.491 295.584H402.861L403.011 295.708L403.518 295.697L403.668 297.152L404.544 297.176V297.288L406.899 298.156L407.009 298.325H407.501L407.447 297.715L406.556 297.366L406.611 296.904L406.995 296.17L407.871 296.147L407.118 294.105L407.132 293.238L408.323 291.716L408.337 291.502L408.158 291.423L408.165 291.01L407.948 290.994L407.729 290.766L404.134 290.633L403.474 291.157L402.395 290.577L402.015 290.767L401.74 292.663L401.058 293.093L400.853 293.475L400.889 294.039L399.659 294.861L399.332 294.739L399.376 294.896L399.014 295.182Z" fill="#9EC3D2" fill-opacity="0.35"/>
<path d="M400.124 290.61L400.947 291.338L401.272 290.994L401.79 291.012L401.901 290.677L402.41 290.417L403.467 291.012L404.076 290.518L406.442 290.603L404.248 288.752L404.543 288.602L404.583 288.276L404.085 288.084H403.353L402.174 289.038L402.134 289.431L401.199 289.407L401.17 289.574L400.56 289.523L400.011 290.376L400.124 290.61Z" fill="#9EC3D2" fill-opacity="0.35"/>
<path d="M399.301 291.833L399.29 292.043L400.134 292.06L400.164 293.852L399.392 293.835L398.945 293.55L398.599 293.709L398.583 293.789L398.762 293.86L398.813 294.228L398.336 294.563L398.438 294.74L398.967 294.405H399.221L399.302 294.605L399.638 294.722L400.715 293.977L400.694 293.433L400.919 292.99L401.61 292.571L401.795 291.154L401.304 291.156L400.735 291.793L399.301 291.833Z" fill="#9EC3D2" fill-opacity="0.35"/>
<path d="M396.105 271.166L395.334 271.836L395.35 271.904L395.666 271.823L395.951 272.146L396.432 272.008L396.764 272.219L396.9 272.155L397.31 271.63L397.206 271.549L396.801 271.541L396.605 271.213L396.105 271.166Z" fill="#9EC3D2" fill-opacity="0.35"/>
<path d="M388.889 291L389.644 290.563L390.585 290.428L391.544 290.597L391.054 289.992L390.911 289.623L391.054 288.53L390.198 288.563L389.809 288.26L388.993 288.277L388.604 288.328L388.645 289.067L388.44 289.135L388.194 289.505L388.826 290.11L388.889 291Z" fill="#9EC3D2" fill-opacity="0.35"/>
<path d="M362.911 318.051L362.156 319.406L363.458 319.518L363.482 318.616L362.911 318.051ZM362.655 317.839L362.087 318.351L362.018 318.953L360.921 318.445L359.755 317.072L359.412 316.582L359.893 316.074L359.847 315.434L359.299 315.246L358.865 314.984L358.957 314.626L359.527 314.494L359.642 312.425L358.752 312.011L358.17 301.241L358.321 301.028L359.459 303.172L359.822 303.177L359.941 303.52L359.457 303.999L358.9 306.579L359.692 308.566L359.326 310.071L360.616 314.495L360.752 317.082L361.676 317.956L362.655 317.839ZM358.89 312.426L358.662 312.707L358.776 313.197L359.004 313.216L359.119 312.595L358.89 312.426Z" fill="#9EC3D2" fill-opacity="0.35"/>
<path d="M396.972 290.644L397.541 291.071L397.5 291.733L400.621 291.674L400.875 291.44L399.981 290.653L399.849 290.368L400.418 289.498L400.031 288.92L399.706 288.778V288.484L400.082 288.284L400.103 287.371L399.805 287.344L399.8 287.823L398.489 289.823L397.687 289.856L397.137 290.165L396.972 290.644Z" fill="#9EC3D2" fill-opacity="0.35"/>
<path d="M430.998 268.378L430.387 269.634L429.544 269.598L428.655 271.188L429.409 271.973L427.855 273.727L427.056 273.618L426.522 274.166L426.655 274.495L427.277 274.532L427.587 275.116L428.21 275.226L430.12 277.237V278.261L431.052 278.736L432.074 278.591L433.362 279.212L434.917 279.577L435.671 279.504L436.515 279.43L438.291 278.48L438.869 278.553L439.09 278.982L439.579 279.102L440.246 279.906L439.802 280.71L440.069 281.259L440.823 281.478L440.955 282.137L441.844 282.21L441.977 281.881L443.265 281.332L444.063 281.368L444.996 282.208L445.618 281.989L446.017 282.025L446.196 282.428L446.507 282.465L446.95 281.953L448.726 281.405L450.325 279.832L450.858 278.333L450.814 277.346L450.148 277.236L450.547 276.871L450.458 276.286L448.771 274.897V274.203L449.258 273.691L449.747 273.508L449.791 273.105H448.547L448.324 273.653L447.746 273.544L447.036 272.923L447.479 271.973L448.101 271.424L448.679 271.46L448.59 272.3L448.901 272.52L449.656 271.899L449.923 271.863L449.834 271.388L450.545 270.693L451.078 270.729L451.389 269.925L451.753 269.768L451.791 269.267L451.437 268.963L451.407 268.172L452.088 268.136L452.043 266.096L451.566 266.33L451.39 266.853L450.593 266.851L448.284 265.79L446.616 264.147L444.924 264.132L444.493 264.439L445.041 265.464L444.85 266.425L444.168 266.656L443.784 266.632L443.756 267.583L444.155 267.657L444.866 267.401L445.798 267.767V268.132L445.132 268.168L444.598 269.118L444.11 269.154L442.379 271.018L440.559 271.677L439.315 271.75L438.472 271.275L437.273 271.788L435.985 271.459L435.674 270.764L433.499 270.654L432.345 269.119H431.857L431.465 268.407L430.998 268.378Z" fill="#9EC3D2" fill-opacity="0.35"/>
<path d="M446.799 282.831L446.377 282.928L446.073 283.234L446.326 283.636L446.696 283.664L447.119 283.358L447.219 282.955L446.799 282.831Z" fill="#9EC3D2" fill-opacity="0.35"/>
<path d="M357.379 287.106L357.015 287.076L354.608 288.697L354.354 289.268L354.025 289.298L354.172 290.558L353.333 292.24L354.244 292.871L355.412 292.932L356.214 293.893L357.38 293.924L357.343 294.644H357.779L358.253 293.323L357.815 292.873L357.924 292.033L358.836 291.972L358.726 290.02L356.683 289.48L356.21 288.429L357.379 287.106Z" fill="#9EC3D2" fill-opacity="0.35"/>
<path d="M350.956 287.857L351.202 288.25L351.402 288.466L351.133 289.118L350.621 288.823L349.783 288.196V287.782L350.956 287.857Z" fill="#9EC3D2" fill-opacity="0.35"/>
<path d="M351.569 282.362V282.545L352.51 282.56L352.953 282.349L353.022 282.503L353.943 282.687L354.764 283.292L354.576 283.503L354.61 283.742L355.294 283.883L355.977 283.63L356.285 283.377L355.841 283.194L353.553 282.096L352.751 282.025L351.569 282.362Z" fill="#9EC3D2" fill-opacity="0.35"/>
<path d="M381.025 285.772L380.689 285.93L380.929 286.087L381.217 285.968L381.025 285.772ZM381.85 286.09L381.631 286.248L381.786 286.484L382.161 286.347L381.85 286.09ZM381.371 286.536L381.09 286.673L381.392 287.004L381.631 286.901L381.371 286.536Z" fill="#9EC3D2" fill-opacity="0.35"/>
<path d="M408.526 277.008L408.743 277.136L408.069 277.658L407.748 277.649L407.509 277.512L407.541 277.256L408.029 277.23L408.526 277.008Z" fill="#9EC3D2" fill-opacity="0.35"/>
<path d="M398.847 270.514H399.629L400.048 270.759L400.824 270.232L400.071 269.793L399.325 269.498L398.815 269.573L398.122 269.937L398.847 270.514Z" fill="#9EC3D2" fill-opacity="0.35"/>
<path d="M395.792 268.061L396.423 267.978V267.614L396.951 267.543L397.241 267.782L397.546 267.809L398.023 267.64L398.449 267.738L398.823 268.004L398.875 268.999L399.249 269.406L398.756 269.462L397.938 269.882L398.007 270.023L398.739 270.583L398.687 270.863L398.007 271.143L397.377 271.157L397.223 271.423H396.9L396.746 271.143L396.184 271.03L396.166 270.568L395.882 270.439L395.905 270.129L395.822 269.907L395.417 269.602L395.502 269.125L395.943 268.957L395.792 268.061Z" fill="#9EC3D2" fill-opacity="0.35"/>
<path d="M396.786 265.696L396.053 266.359L396.027 266.791L396.361 267.503L396.884 267.422L396.819 266.84L397.179 266.511L397.173 266.252L396.918 265.714L396.786 265.696ZM397.166 266.912L396.949 266.95V267.215L397.179 267.361L397.383 267.319L397.333 267.068L397.166 266.912ZM397.846 266.66L397.652 266.699L397.436 266.861L397.528 267.187L397.792 267.272L397.519 267.361L397.467 267.475H397.877L398 267.292L397.843 267.229L397.894 267.068L398.081 266.867L398.03 266.693L397.846 266.66Z" fill="#9EC3D2" fill-opacity="0.35"/>
<path d="M413.52 287.36L413.419 287.845L414.119 287.836L414.13 287.123L413.874 286.995L413.52 287.36Z" fill="#9EC3D2" fill-opacity="0.35"/>
<path d="M361.856 284.955L361.701 285.225L361.888 285.43L362.121 285.264L361.856 284.955Z" fill="#9EC3D2" fill-opacity="0.35"/>
<path d="M359.036 284.314L358.101 283.814L357.512 283.644L357.393 284.566L357.512 284.558L357.667 284.802L357.87 284.61L358.462 284.481L358.976 284.571L359.036 284.314Z" fill="#9EC3D2" fill-opacity="0.35"/>
<path d="M396.276 276.669L395.555 276.471L392.555 276.931L391.901 277.337L392.3 279.022L391.108 279.061L390.39 280.004L388.682 280.339L388.687 281.025L394.314 284.541L395.273 284.607L398.473 282.564L398.153 282.235L397.553 282.168L397.192 281.675V279.631L396.952 279.434L396.992 278.907L396.353 278.38L396.273 277.82L396.552 277.655L396.432 277.061L396.276 276.669Z" fill="#9EC3D2" fill-opacity="0.35"/>
<path d="M353.221 292.314L352.386 292.739L352.326 293.369L352.158 293.575L352.684 293.988L352.456 294.191L352.509 294.711L353.451 294.895L354.877 293.516L354.873 293.035L354.189 292.999L353.221 292.314Z" fill="#9EC3D2" fill-opacity="0.35"/>
<path d="M346.997 292.651L346.887 293.048L346.684 293.215L346.824 293.42L347.182 293.305L347.353 293.061L347.244 292.805L346.997 292.651Z" fill="#9EC3D2" fill-opacity="0.35"/>
<path d="M404.03 264.565L403.041 264.536L402.414 264.849L402.405 265.081L402.811 265.395L404.075 265.569L404.03 264.565Z" fill="#9EC3D2" fill-opacity="0.35"/>
<path d="M401.92 264.689L401.652 264.762L401.92 264.8L402.041 264.915L402.187 264.773L402.042 264.57L401.92 264.689ZM402.033 264.981L401.653 265.12L401.521 265.305L401.653 265.426L402.135 265.28L402.368 265.154L402.033 264.981Z" fill="#9EC3D2" fill-opacity="0.35"/>
<path d="M404.766 278.917L405.237 278.927L406.156 279.135L406.592 279.145L407.133 278.775H407.386L407.845 278.983H408.427L408.531 278.978L408.899 279.841L409.003 280.12L409.1 280.537L408.927 280.641L408.628 280.518L408.283 279.6L407.973 279.582L407.95 279.893L408.157 280.433L409.812 282.108L409.848 282.827L409.365 283.282L404.835 283.24L404.766 278.917Z" fill="#9EC3D2" fill-opacity="0.35"/>
<path d="M410.911 286.373L410.866 285.522L411.566 284.855L411.756 284.974L412.1 285.915L413.754 286.921L413.453 287.223L412.243 286.373L410.911 286.373Z" fill="#9EC3D2" fill-opacity="0.35"/>
<path d="M391.767 273.421H389.515L389.062 273.254L388.842 273.267L388.577 273.717L388.671 274.18L389.532 274.246L389.641 274.541L389.267 276.267L389.283 276.576L389.892 276.846L390.595 276.885L392.001 276.602L392.689 275.895L392.704 275.174L393.924 274.273L393.986 273.875L392.876 273.862L391.767 273.421Z" fill="#9EC3D2" fill-opacity="0.35"/>
<path d="M385.982 280.457L385.673 280.603L385.816 280.722L385.982 280.457ZM384.908 280.485L384.525 280.564L384.716 280.801H385.003L384.908 280.485ZM383.997 280.248L383.756 280.446L384.092 280.682L384.283 280.327L383.997 280.248ZM394.018 275.184L393.737 275.262L393.799 275.469H394.205L394.377 275.314L394.018 275.184Z" fill="#9EC3D2" fill-opacity="0.35"/>
<path d="M409.635 288.836L410.921 286.497L412.198 286.503L413.331 287.307L413.251 287.969H414.129L414.219 288.368L415.64 289.062L416.516 289.099L414.85 290.561L412.562 291.138H411.995L410.985 290.433L410.586 290.296L409.812 289.364L409.301 289.37L409.241 288.943L409.635 288.836Z" fill="#9EC3D2" fill-opacity="0.35"/>
<path d="M402.09 260.706L402.456 260.838L402.682 261.184L402.456 261.424L401.322 262.438L401.127 262.972L401.387 263.746L402.262 264.28L403.428 263.827L404.368 263.72L405.242 262.572L404.594 261.317L403.976 260.116L404.074 259.342L403.686 259.288L403.585 258.724L403.062 258.027L402.482 258.354L402.255 259.115L401.64 258.813L400.784 258.643L400.593 258.825L400.922 259.068L401.521 259.059L402.003 259.696L402.09 260.706Z" fill="#9EC3D2" fill-opacity="0.35"/>
<path d="M366.959 317.197L366.494 317.155L366.031 317.409L366.367 317.706L366.959 317.197ZM367.422 317.006L367.268 317.409L366.83 317.726L366.856 317.831L367.603 317.598L367.913 317.28L367.422 317.006Z" fill="#9EC3D2" fill-opacity="0.35"/>
<path d="M393.894 269.624L393.504 269.702L392.723 270.396L392.488 270.409L392.175 270.229L391.972 270.268L391.817 270.666L390.675 270.692L390.707 270.899L391.488 271.323L392.395 271.915L392.379 272.623L391.895 273.317L392.943 273.729L394.006 273.754L394.335 273.445L395.006 273.458L395.194 273.6L395.865 273.561L396.21 273.2L395.771 272.776L395.739 272.505L395.833 272.21L395.614 271.953L395.239 272.042L395.192 271.811L396.021 271.064V270.614L395.541 270.486L395.248 270.321L393.894 269.624Z" fill="#9EC3D2" fill-opacity="0.35"/>
<path d="M365.93 290.286L366.964 290.813L366.423 291.69L366.227 291.892L365.653 291.622L365.67 290.676L365.93 290.286ZM419.863 301.919L419.46 301.941L419.434 302.228L419.702 302.273L420.105 302.118L419.863 301.919ZM415.128 297.866L415.262 298.11H415.478L415.585 297.8L415.128 297.866ZM362.386 285.698L362.199 285.84L362.338 286.071L362.603 286.007L362.386 285.698ZM396.974 273.704L396.629 273.987L396.597 274.245L396.878 274.386L396.988 274.373L397.05 273.999L396.974 273.704ZM361.42 284.737L361.155 284.826L361.248 285.018L361.559 284.852L361.497 284.8L361.42 284.737Z" fill="#9EC3D2" fill-opacity="0.35"/>
<path d="M398.486 291.849L398.465 292.208L397.468 292.191L396.859 293.154L398.292 294.435L398.646 294.192L398.636 293.941L398.392 293.849V293.672L398.942 293.388L399.43 293.69L399.969 293.698L399.958 292.184L399.104 292.151L399.094 291.833L398.486 291.849Z" fill="#9EC3D2" fill-opacity="0.35"/>
<path d="M391.371 265.347L391.048 265.747L391.176 265.907H391.922V266.174L391.728 266.388L391.857 266.948L392.278 267.615L392.6 268.228L393.118 268.389L393.344 268.71L393.313 269.003L392.989 269.163L392.957 269.296L393.183 269.402L392.989 269.616L392.535 269.776L391.66 269.697L390.298 270.204L389.845 270.017L391.141 269.404L390.979 269.324L390.298 269.271L390.719 268.764L390.784 268.336L391.335 268.283L391.238 267.456L390.589 267.43L390.395 267.244L390.427 266.63L390.038 266.656L390.427 265.589L391.14 265.161L391.371 265.347Z" fill="#9EC3D2" fill-opacity="0.35"/>
<path d="M390.011 267.136L389.428 267.189L389.396 267.617L389.784 267.83L390.205 267.751L390.368 267.511L390.011 267.136Z" fill="#9EC3D2" fill-opacity="0.35"/>
<path d="M410.69 273.3L411.268 273.916L411.989 274.188L412.432 274.186L413.194 274.017L413.385 273.774L411.132 273.085L410.69 273.3Z" fill="#9EC3D2" fill-opacity="0.35"/>
<path d="M391.056 289.6L391.255 289.979L391.77 290.641L392.057 290.632L392.837 290.269L392.782 288.206L392.178 288.061L391.332 288.08L391.056 289.6Z" fill="#9EC3D2" fill-opacity="0.35"/>
<path d="M369.287 251.051L369.047 251.365L369.48 251.718L369.288 252.072L369.913 252.739L370.682 252.543L371.691 252.465L372.844 253.485L373.613 255.173L372.989 256.233L373.853 256.115L374.335 256.35L374.382 256.862L373.325 256.9L373.902 257.371L374.622 257.489L373.037 259.216L372.845 260.276L373.181 261.14L372.941 261.651L373.374 262.75L374.19 263.496L374.43 263.457L374.958 263.339L375.005 263.967L375.341 264.36L375.965 264.321L376.446 262.868L377.887 261.415L380.05 260.709L381.395 259.335L382.018 259.57H383.315L384.372 258.707L385.669 258.275L385.813 257.608L384.997 257.019L384.277 256.823L383.892 255.998L384.805 255.567L386.247 256.195L386.728 255.763L385.959 255.409L387.593 253.603L387.305 252.818L386.536 252.779L386.824 252.073L387.786 251.719L389.755 250.306L389.18 249.796L386.969 249.953L385.815 250.896L386.489 249.678L385.72 249.521L385.287 250.149L384.664 249.718L382.933 249.875L383.415 249.247L386.249 249.169L385.528 248.383L382.453 247.913L381.204 248.07L381.252 248.581L379.955 248.228L380.003 247.874L379.089 248.031L378.896 248.424L379.858 248.698L378.849 249.288L378.128 248.62L377.119 248.385L376.974 249.013H375.965L375.58 248.346L373.995 248.15L373.13 248.503L373.083 248.974L371.979 248.856L371.305 249.091L371.353 249.641V249.916L370.104 250.112L369.528 249.799L369.143 250.308L369.719 250.819L370.92 250.701L371.016 251.016L370.102 251.37L369.286 251.051H369.287Z" fill="#9EC3D2" fill-opacity="0.35"/>
<path d="M373.132 257.176L373.42 257.53L373.275 257.962H372.987L372.602 257.607L372.697 257.333L373.132 257.176ZM385.143 256.195L385.959 256.391L385.911 256.941L385.047 256.587L384.855 256.391L385.143 256.195Z" fill="#9EC3D2" fill-opacity="0.35"/>
<path d="M384.44 286.898L384.417 287.059L385.64 287.044L385.702 286.895L385.675 286.745L385.324 286.862L384.44 286.898Z" fill="#9EC3D2" fill-opacity="0.35"/>
<path d="M385.063 288.284L385.601 288.96L386.3 288.464L387.018 288.438L387.615 289.086L388.122 289.359L388.313 289.056L388.483 288.978L388.47 288.311L388.133 287.52L387.098 287.614L385.817 287.53L385.81 287.798L385.063 288.284Z" fill="#9EC3D2" fill-opacity="0.35"/>
<path d="M396.799 291.096L396.718 291.38L396.961 291.488L397.195 291.345L397.114 291.052L396.799 291.096ZM397.532 291.858L397.521 292.059L398.323 292.091L398.313 291.865L397.532 291.858Z" fill="#9EC3D2" fill-opacity="0.35"/>
<path d="M402.077 275.24L402.057 275.432L402.875 275.769L403.266 275.891L403.061 276.068L402.605 276.106L402.54 276.274L402.697 276.565L403.208 276.787L403.431 276.803L403.459 276.305L403.793 275.976L402.881 275.095L403.002 274.796L403.216 274.789L403.541 275.003L403.746 274.919L403.811 274.62L404.573 274.709L404.805 274.168L404.406 274.398L403.235 274.375L402.473 274.697L402.077 275.24Z" fill="#9EC3D2" fill-opacity="0.35"/>
<path d="M403.852 277.116L404.14 277.123L404.26 277.269H404.679L404.958 277.186L405.052 277.278L404.866 277.477L404.048 277.5L403.899 277.34L403.742 277.263L403.852 277.116Z" fill="#9EC3D2" fill-opacity="0.35"/>
<path d="M346.981 285.913L348.029 286.54L349.086 285.467L348.905 285.245L348.545 285.234V284.606L348.274 284.472L347.456 284.671L347.769 285.26L346.981 285.913Z" fill="#9EC3D2" fill-opacity="0.35"/>
<path d="M384.742 287.792L384.989 288.192L385.683 287.704L385.691 287.554L384.872 287.457L384.742 287.792Z" fill="#9EC3D2" fill-opacity="0.35"/>
<path d="M362.913 289.178L364.188 290.122L363.681 290.602L363.64 290.886L364.307 291.447L364.29 291.987L363.131 292.348L362.437 291.581L362.586 290.66L362.289 289.974L362.913 289.178Z" fill="#9EC3D2" fill-opacity="0.35"/>
<path d="M349.22 285.518L350.852 285.467L351.337 285.938L351.034 285.881L350.453 285.901L349.693 286.485L349.368 287.076L349.154 286.983L349.152 286.336L348.682 286.079L349.22 285.518Z" fill="#9EC3D2" fill-opacity="0.35"/>
<path d="M400.117 272L399.493 272.421H398.861L398.785 272.785L399.075 272.847L399.22 272.67L399.447 272.834L399.629 273.353L400.878 273.83L401.002 273.715L399.735 272.646L399.864 272.452L401.068 272.414L401.189 272.1L400.405 272.119L400.117 272Z" fill="#9EC3D2" fill-opacity="0.35"/>
<path d="M356.872 283.583L357.48 283.635L357.407 284.244L357.347 284.565L356.639 284.533L356.513 284.688L356.296 284.675L356.218 284.342L356.966 284.291L356.92 283.944L356.577 283.829L356.872 283.583Z" fill="#9EC3D2" fill-opacity="0.35"/>
<path d="M400.315 271.198L400.11 271.46L400.126 271.862L400.453 271.999L401.459 272.023L402.859 271.059L402.866 270.845L402.715 270.783L401.702 271.158L400.315 271.198Z" fill="#9EC3D2" fill-opacity="0.35"/>
<path d="M440.2 289.675L440.151 290.004L441.35 291.651H441.699L444.199 295.069L445.2 295.151L445.7 293.957L444.899 293.546L444.749 292.888L440.2 289.675ZM452.046 294.229L452.446 294.629L452.186 295.23V295.344H452.776L452.984 293.842L453.175 293.886L453.522 295.257L453.852 295.33L454.164 294.743L453.852 293.857L453.592 293.471L454.408 292.985L454.217 292.769L453.436 293.184H453.228L452.846 292.726L452.968 292.525L453.611 292.268L454.583 292.511L454.878 292.496L455.608 291.939L455.313 291.697L454.636 292.125H454.201L453.542 291.868L453.074 291.883L452.553 292.569L452.223 293.755L452.046 294.229ZM456.403 291.542L456.073 292.199L456.594 292.756H456.767L456.993 292.385L457.115 292.257L456.889 292.056L456.559 291.956L456.403 291.542ZM457.428 293.701L456.716 293.829L456.508 294.015L456.681 294.258L457.149 294.115L457.444 293.972L457.878 294.258L458.069 294.129L457.723 293.786L457.428 293.701ZM445.622 295.559L445.136 295.83L445.24 296.058L446.786 296.344L447.567 296.458L447.897 296.744L448.782 296.802L449.199 297.087L449.581 297.015L449.929 296.758L449.286 296.516L448.731 296.13L447.29 295.844L445.622 295.559ZM450.675 296.802L450.294 296.974L450.52 297.174L451.075 297.003L450.675 296.802ZM451.334 296.673L451.403 296.945L451.803 297.03L451.958 296.873L451.785 296.657L451.334 296.673ZM452.29 297.388L451.804 297.446L452.239 297.746H452.585L452.29 297.388ZM452.428 296.916L452.324 297.088L453.104 297.187L453.712 296.901L453.366 296.816L452.811 296.945L452.603 296.802L452.428 296.916ZM454.981 297.017L454.078 297.632L454.165 297.789L454.546 297.732L454.997 297.388L455.882 297.288L455.709 297.046L454.981 297.017ZM459.538 292.818L458.801 292.886L458.328 293.169L458.524 293.492L459.326 293.614V293.735L458.819 294.072L459.065 294.772L459.31 294.785L459.522 294.098H459.915L460.079 294.77L461.992 296.064L462.042 297.075L462.696 297.654L462.99 297.641L463.056 294.072L461.944 293.439L460.896 294.019L460.52 294.208L459.898 293.884L459.882 292.861L459.538 292.818ZM450.659 290.661L450.251 291.914L448.037 292.525L447.375 291.89L447.053 291.962L447.654 293.856L448.553 293.939L449.753 294.31V294.681L450.302 294.599L451.102 293.693V292.952L451.553 292.211L452.053 292.293L451.452 291.264L451.36 290.601L450.659 290.661Z" fill="#9EC3D2" fill-opacity="0.35"/>
<path d="M390.203 267.869L390.042 268.736L388.617 269.163H388.162L387.839 268.977V268.817L388.553 268.443L388.358 268.122L388.39 267.669L389.007 267.695L389.29 267.152L389.252 267.634L389.732 267.944L390.203 267.869Z" fill="#9EC3D2" fill-opacity="0.35"/>
<path d="M408.898 278.195L408.619 278.921L408.981 279.792L409.396 278.519V278.247L408.898 278.195Z" fill="#9EC3D2" fill-opacity="0.35"/>
<path d="M431.1 289.017L431.909 288.693L432.39 287.272L432.369 285.529L435.122 283.1V282.524L435.689 282.343L435.667 281.678L435.056 280.706L435.406 280.185L436.171 280.761L437.154 280.797V281.121L436.848 281.391L436.913 281.535L437.438 281.552L437.547 282.037H437.701L438.095 281.461L438.292 279.951L438.947 279.572L438.968 279.051L438.706 278.637L438.292 278.619L436.667 279.497L436.769 280.062L435.627 280.059L435.224 279.656L435.005 279.679L435.08 280.239L432.611 280.095L431.082 279.538L431.001 278.852L429.981 278.335L429.968 277.271L429.269 276.617L427.661 276.742L427.836 277.314L428.624 277.835L427.261 280.114L426.35 280.17L426.2 280.445L427.098 281.123L427.053 281.809L426.136 281.797L426.038 282.138L426.8 282.111L426.821 282.381L426.275 282.615L426.625 283.154L427.302 283.335L427.716 283.084L427.913 282.635L428.153 282.545L428.438 282.779L428.351 283.355L428.155 283.625L428.199 284.093L431.1 289.017Z" fill="#9EC3D2" fill-opacity="0.35"/>
<path d="M412.253 276.313L411.978 277.427L410.836 278.203L410.909 278.57L412.024 278.632L413.799 279.813L414.792 279.79L414.818 279.517L415.182 279.198L415.691 279.433L415.759 279.381L414.774 278.311L414.308 278.288L413.688 277.637L413.811 277.158L414.001 277.138L414.066 276.925L413.221 276.199L412.253 276.313Z" fill="#9EC3D2" fill-opacity="0.35"/>
<path d="M413.197 275.291L412.981 275.474L413.002 275.765L413.271 276.072L414.223 276.924L414.078 277.265H413.912L413.829 277.606L414.368 278.169L414.865 278.204L415.859 279.328L416.418 279.363L416.852 279.618L416.874 280.13L418.593 280.948H419.234L419.628 280.675L420.125 280.658L420.415 281.204L422.272 281.415L422.327 280.857L422.942 280.675L422.97 280.476L422.48 279.93L421.39 279.214L421.962 278.788L421.922 278.6L421.205 278.509L420.901 276.531L420.865 276.076L418.92 275.468L418.058 275.627L417.575 276.111L417.148 276.087L417.024 276.173L416.072 276.122L414.87 275.406L414.423 275.006L414.218 275.046L413.848 275.391L413.197 275.291Z" fill="#9EC3D2" fill-opacity="0.35"/>
<path d="M384.346 260.76L384 260.6L383.534 260.841L383.133 261.144L383.143 261.313L383.662 261.366L383.631 261.669L383.447 261.821L383.491 261.919L384.011 261.946V262.437L384.758 262.544L385.201 262.75L385.7 262.767L386.555 262.419L387.215 261.706L387.226 261.223L386.825 260.946L386.489 260.714L386.337 260.803L386.11 261.044L385.85 261.017L385.59 260.784L385.254 260.81L384.767 261.141L384.473 261.399L384.31 261.284L384.3 260.998L384.462 260.908L384.346 260.76Z" fill="#9EC3D2" fill-opacity="0.35"/>
<path d="M395.991 272.263L395.882 272.49L395.912 272.737L396.334 273.14L396.998 273.121L398.465 274.513L399.38 274.73L399.921 275.147L400.05 276.098L400.339 275.96L400.591 275.441L400.529 275.069L400.958 275.037L401.02 274.826L399.81 274.353L398.661 273.43L398.204 272.879L398.092 272.355L398.677 272.241L398.527 271.895L398.168 271.649L397.859 271.637L397.428 271.734L397.022 272.198L396.776 272.331L396.396 272.141L395.991 272.263Z" fill="#9EC3D2" fill-opacity="0.35"/>
<path d="M399.555 276.023L399.299 275.91L398.424 276.023L398.454 276.216L399.241 276.54L399.359 276.645L399.566 276.67L399.555 276.023ZM396.926 274.631L396.458 274.825L396.52 275.571L396.895 275.623L397.176 275.404V274.697L396.926 274.631Z" fill="#9EC3D2" fill-opacity="0.35"/>
<path d="M354.764 284.191L354.149 284.318V284.458L354.508 284.627H354.884L355.123 284.402L354.764 284.191Z" fill="#9EC3D2" fill-opacity="0.35"/>
<path d="M409.531 278.587L409.096 279.826L409.077 280.016H409.761L410.526 279.464L410.545 279.255L410.232 278.993L410.792 278.614L410.711 278.261L410.558 278.29L410.091 278.563L409.531 278.587Z" fill="#9EC3D2" fill-opacity="0.35"/>
<path d="M454.467 275.07L454.178 275.307L454.297 275.64L454.549 275.655L454.719 276.378L454.922 276.559L455.277 276.295L455.308 275.497L454.899 275.142L454.467 275.07ZM455.973 274.401L455.43 274.761L455.309 275.216L455.679 275.424L456.216 274.965L456.292 274.453L455.973 274.401ZM455.345 273.707L454.482 274.514V274.902L455.015 274.85L455.85 274.25L456.408 274.166L456.543 274.296L456.546 274.693L456.687 274.902H456.944L457.304 274.542L457.456 274.068L458.182 274.053L458.893 273.358L458.522 272.203L458.352 271.591L458.723 271.341L457.878 270.298L457.685 270.174L457.302 270.298L457.204 270.73V271.078L457.407 271.273L457.474 272.191L456.951 272.72L456.647 272.567L456.41 272.998L456.359 273.401L456.545 273.638L456.426 273.818L456.038 273.554H455.767L455.531 273.665L455.345 273.707ZM456.799 267.42L456.529 267.615L456.665 268.033L456.902 268.227L456.884 268.867L456.581 268.964L456.344 269.395L457.036 270.174L457.492 270.048L457.577 269.853L457.087 269.492L457.391 269.172L457.713 269.213L458.414 269.598L458.489 269.167L458.822 268.669L459.288 268.283L458.784 268.095L458.591 267.794L458.338 267.933L458.12 268.155L457.646 268.072L457.157 267.807L456.799 267.42ZM459.348 266.989L458.875 267.532L458.908 267.796L459.145 267.712L459.702 267.142L459.348 266.989ZM459.974 266.196L459.805 266.571L459.822 266.821L460.11 266.668L460.38 266.223V266.057L459.974 266.196Z" fill="#9EC3D2" fill-opacity="0.35"/>
<path d="M409.872 290.967L410.342 291.716L409.778 292.682L409.704 292.975L412.519 294.397L413.392 293.277L412.95 292.984L412.941 291.508L413.494 291.014L412.612 291.254L411.946 291.261L410.904 290.542L410.575 290.427L409.966 290.473L409.859 290.62L409.872 290.967Z" fill="#9EC3D2" fill-opacity="0.35"/>
<path d="M425.063 272.585L425.008 272.95L425.052 273.176L426.59 273.597L425.24 274.042L425.087 273.938L424.795 274.091L424.809 274.175L424.964 274.232L425.912 274.253L426.392 274.134L427.009 273.499L427.781 273.608L428.712 272.554L426.221 272.277L425.876 272.96L425.442 272.579L425.063 272.585Z" fill="#9EC3D2" fill-opacity="0.35"/>
<path d="M443.38 287.061L444.102 287.692L445.447 286.878L445.565 285.593L444.871 285.985L444.51 285.82L444.021 285.767L443.747 285.609L443.614 285.615L443.256 286.096L443.314 286.318L443.678 286.484L443.634 286.936L443.38 287.061Z" fill="#9EC3D2" fill-opacity="0.35"/>
<path d="M414.618 297.423L414.698 297.643L415.048 297.688L415.182 297.401L414.618 297.423Z" fill="#9EC3D2" fill-opacity="0.35"/>
<path d="M450.058 271.872L450.383 271.983L450.483 272.913L451.127 272.943L451.735 272.362L451.525 272.208L451.55 271.585L452.108 271.033L451.824 270.614L452.009 270.441L452.111 270.008L451.788 269.888L451.512 270.002L451.171 270.848L450.62 270.809L449.982 271.424L450.058 271.872Z" fill="#9EC3D2" fill-opacity="0.35"/>
<path d="M451.836 272.439L452.928 273.167L453.114 273.872L453.076 274.25L452.543 274.741L452.083 274.761L451.562 273.841L451.364 273.402L451.574 273.269L451.525 273.085L451.265 272.99L451.836 272.439Z" fill="#9EC3D2" fill-opacity="0.35"/>
<path d="M415.607 279.51L415.209 279.334L414.933 279.56L414.963 280.014L415.605 280.214L415.607 279.51Z" fill="#9EC3D2" fill-opacity="0.35"/>
<path d="M414.441 271.056L415.165 270.803L415.974 270.78L416.031 271.791H415.557L415.195 272.273L415.668 272.916L416.366 273.238L416.43 273.606L416.686 273.537L416.923 273.307L417.313 273.376L417.509 273.699H418.011V273.285L417.704 272.55L417.564 271.954L418.456 271.632L419.656 271.792L420.408 272.412L422.11 272.275L423.059 273.377L424.174 273.422L424.481 273.01L424.872 272.94L424.928 272.481L425.513 272.458L425.82 272.757L426.127 272.16L428.776 272.459L429.221 271.977L428.468 271.219L429.472 269.428L430.281 269.474L430.839 268.373L429.724 268.281L429.083 267.775L427.316 267.943L425.04 266.145L424.238 266.727L421.805 265.824L418.821 267.018L418.738 267.868L419.435 268.533L418.075 269.161L416.31 269.13L415.94 268.686L414.557 268.624L413.246 269.313L413.217 270.254L414.441 271.056Z" fill="#9EC3D2" fill-opacity="0.35"/>
<path d="M442.495 281.786L442.067 281.963L441.712 282.809L442.306 283.427L442.206 284.11L442.306 284.143L443.293 283.751L444.618 284.961L444.586 285.723L444.874 285.851L445.586 285.378L445.527 285.004L443.473 283.409L443.492 283.165L443.749 283.019L443.57 282.612L442.72 282.498L442.495 281.786Z" fill="#9EC3D2" fill-opacity="0.35"/>
<path d="M409.054 277.383L409.064 277.665L408.92 278.092L409.418 278.127L409.45 277.521L409.054 277.383Z" fill="#9EC3D2" fill-opacity="0.35"/>
<path d="M362.37 286.276L362.245 286.494L362.448 286.673L362.713 286.558L362.37 286.276Z" fill="#9EC3D2" fill-opacity="0.35"/>
<path d="M432.79 288.3L432.834 288.693L432.878 288.979L432.619 289.015L432.749 289.658L433.139 289.836L433.746 289.551L433.573 288.873L433.617 288.624L433.054 288.196L432.79 288.3Z" fill="#9EC3D2" fill-opacity="0.35"/>
<path d="M386.786 289.908L388.726 290.968L388.68 290.166L388.093 289.601L387.521 289.187L386.786 289.908Z" fill="#9EC3D2" fill-opacity="0.35"/>
<path d="M405.734 305.243L406.273 304.903L406.527 304.912L406.834 305.225L406.803 305.539L406.285 305.695V305.817L405.714 305.79L405.577 305.451L405.734 305.243Z" fill="#9EC3D2" fill-opacity="0.35"/>
<path d="M401.9 266.558L401.461 266.619L401.497 266.957L402.182 266.999L402.442 267.173L402.51 267.475L402.721 267.716L403.348 267.695L403.949 267.069L403.914 266.698L402.783 266.553L401.9 266.558Z" fill="#9EC3D2" fill-opacity="0.35"/>
<path d="M395.417 270.291L395.572 270.405L395.752 270.418L395.792 270.129L395.74 269.966L395.49 270.063L395.417 270.291Z" fill="#9EC3D2" fill-opacity="0.35"/>
<path d="M404.083 265.678L402.783 265.505L402.561 265.976L402.187 266.068L401.99 265.872L401.794 265.569L401.582 265.696L401.461 266.22V266.505L401.92 266.442L402.873 266.456L404.022 266.631L404.481 266.521L404.455 266.099L404.083 265.678Z" fill="#9EC3D2" fill-opacity="0.35"/>
<path d="M397.366 279.634L397.642 279.597L397.723 279.077H397.861L398.424 278.321L399.815 278.651L400.195 279.134L401.562 279.645L402.274 279.399L402.204 279.154L401.894 278.908L401.929 278.738L402.434 278.388H403.435L403.814 278.804L404.618 278.899L404.722 284.226L404.126 284.207L400.518 282.674L400.127 282.854L398.645 282.551L398.242 282.116L397.655 282.05L397.357 281.615L397.366 279.634Z" fill="#9EC3D2" fill-opacity="0.35"/>
<path d="M391.754 277.36H389.714L389.315 278.085L388.394 278.447L387.634 280.128L386.153 280.853L384.074 283.653L386.114 283.62L386.194 282.797H386.713V281.676H388.514L388.554 280.226L390.275 279.897L390.996 278.941L392.116 278.908L391.754 277.36Z" fill="#9EC3D2" fill-opacity="0.35"/>
<path d="M404.557 270.925L405.105 271.613L405.059 272.003L405.255 272.01L405.719 271.368L405.161 270.801L404.845 270.695L404.557 270.925Z" fill="#9EC3D2" fill-opacity="0.35"/>
<path d="M401.397 273.48L401.138 273.779L401.212 273.963L401.52 274.009L401.762 273.74L401.397 273.48Z" fill="#9EC3D2" fill-opacity="0.35"/>
<path d="M417.199 297.667L416.822 298.397L416.178 299.327L415.049 299.393L414.564 299.858L414.645 301.276L413.946 301.94L414.027 303.07L414.619 303.623L415.318 303.557L416.018 303.135L415.857 302.471L417.471 300.19L417.147 299.902L417.471 299.349L417.82 299.437L417.928 299.216L417.605 298.087L417.416 297.622L417.199 297.667Z" fill="#9EC3D2" fill-opacity="0.35"/>
<path d="M402.82 273.856L402.225 274.016L402.254 274.429L402.393 274.575L403.1 274.306L402.82 273.856Z" fill="#9EC3D2" fill-opacity="0.35"/>
<path d="M386.661 286.537L387.205 286.233L390.23 286.218L389.53 282.242L390.329 282.223L394.192 284.633L394.711 284.694L394.516 286.033L392.086 286.214L390.212 287.357L389.87 288.14L388.568 288.185L388.236 287.404L387.238 287.462L387.276 287.206L386.661 286.537Z" fill="#9EC3D2" fill-opacity="0.35"/>
<path d="M441.429 287.665L440.94 287.024L441.295 286.617L440.959 286.113L440.643 286.063L440.582 285.218L440.109 284.468L439.971 284.647L439.655 285.086L439.259 285.135L439.061 284.923L438.962 284.353L438.665 283.897L437.456 282.965L437.753 282.805L437.809 282.131L438.25 281.525L438.441 280.016L439.081 279.659L439.102 279.109L439.485 279.213L440.09 279.928L439.641 280.713L439.944 281.329L440.691 281.569L440.827 282.241L441.83 282.368L441.553 282.759L440.288 283.167L440.15 283.833L441.08 284.81L441.118 285.331L440.901 285.51L440.921 285.673L441.613 286.503L441.633 287.365L441.429 287.665Z" fill="#9EC3D2" fill-opacity="0.35"/>
<path d="M431.599 268.392L432.627 267.278L433.862 267.744L434.701 267.927L435.729 267.157L435.032 266.736L435.491 266.206L436.862 266.602L437.337 267.239L438.196 267.257L438.644 266.985L439.568 266.954L439.77 267.235L441.305 267.298L442.277 266.488L443.621 266.603L443.544 267.706L444.132 267.816L444.855 267.548L445.62 267.857L445.602 268.013L445.047 268.026L444.469 269.017L444.021 269.053L442.275 270.917L440.492 271.559L439.377 271.63L438.451 271.142L437.268 271.659L436.102 271.363L435.771 270.671L433.563 270.544L432.432 268.978L431.882 268.949L431.599 268.392Z" fill="#9EC3D2" fill-opacity="0.35"/>
<path d="M384.088 283.768L384.473 284.18L384.394 285.959L384.954 285.629L385.353 285.563L385.913 285.727L386.553 286.452L387.153 286.123L390.074 286.09L389.353 282.103L390.127 282.1L388.685 281.198L388.687 281.784L386.862 281.786L386.853 282.904L386.328 282.903L386.261 283.729L384.088 283.768Z" fill="#9EC3D2" fill-opacity="0.35"/>
<path d="M399.585 277.099L399.29 277.148L399.301 277.415L399.566 277.488L399.684 277.407L399.585 277.099Z" fill="#9EC3D2" fill-opacity="0.35"/>
<path d="M420.858 301.431L420.59 301.718L420.643 302.028L421.208 301.652L420.858 301.431Z" fill="#9EC3D2" fill-opacity="0.35"/>
<path d="M428.524 290.135L428.577 290.512L428.872 290.6L428.925 290.268L428.524 290.135ZM428.901 290.932L428.874 291.397L429.09 291.485L429.279 291.175L428.901 290.932ZM428.955 291.841L428.766 291.995L428.982 292.15L429.251 291.995L428.955 291.841Z" fill="#9EC3D2" fill-opacity="0.35"/>
<path d="M409.223 298.602L409.773 299.072L409.762 299.672L409.868 299.925L410.598 299.281L410.513 298.463L410.122 298.219L409.775 296.782L409.172 296.765L409.446 297.8L409.223 298.602Z" fill="#9EC3D2" fill-opacity="0.35"/>
<path d="M336.841 276.371L337.694 278.567L337.297 278.749L337.341 279.185L338.092 279.657V280.531L339.019 281.258L338.622 279.112L338.092 277.693L338.224 276.711L338.666 276.747L338.843 277.075L338.666 277.911L340.963 281.584V282.894L342.818 284.675L344.85 285.439L345.689 285.039L346.882 285.839L347.589 285.257L347.28 284.601L348.296 284.347L348.605 284.493L348.914 284.239H349.4L350.283 282.965L349.841 282.638L348.119 282.965L347.721 283.911L346.705 284.057L345.513 283.657L344.983 282.276L345.383 280.533L344.564 280.115L344.173 278.441L343.846 278.327L343.249 278.823L342.564 278.524L342.295 277.408L339.58 277.175L338.177 276.313L336.841 276.37L336.841 276.371Z" fill="#9EC3D2" fill-opacity="0.35"/>
<path d="M442.007 289.369L442.362 290.02L442.441 290.866L442.917 291.468L443.958 291.983L444.163 291.851L444.462 291.802L444.419 291.483L444.043 290.735L443.491 289.778L443.445 289.946L442.78 289.921L442.303 289.361L442.007 289.369Z" fill="#9EC3D2" fill-opacity="0.35"/>
<path d="M447.56 291.891L448.094 292.395L450.14 291.816L450.544 290.539L451.456 290.486L452.29 289.992L451.209 289.348L450.961 288.994L450.428 289.799L450.624 290.261L450.299 290.647L449.685 290.518L448.199 291.409L448.238 291.924L447.56 291.891Z" fill="#9EC3D2" fill-opacity="0.35"/>
<path d="M408.165 303.494L408.64 303.816L409.76 303.259L409.94 302.431V301.065L411.737 299.864L412.045 299.873L413.133 299.02L412.964 297.261L410.141 297.552L410.247 298.11L410.66 298.403L410.777 299.36L409.804 300.136L409.571 299.701L409.613 299.127L409.053 298.63L407.679 299.153L408.958 299.684L409.001 301.233L408.154 302.26L408.165 303.494Z" fill="#9EC3D2" fill-opacity="0.35"/>
<path d="M400.281 304.747L400.873 304.782L401.221 305.069L402.046 305.078L402.248 303.164V301.911L402.776 301.824L402.978 300.51L404.321 300.475L404.795 300.154L403.991 300.127L402.903 300.249L401.73 299.901H398.433L398.518 300.666L399.617 301.989L399.426 302.667L399.437 303.024L400.281 304.747Z" fill="#9EC3D2" fill-opacity="0.35"/>
<path d="M472.738 304.532L472.676 304.791L473.49 305.719L473.928 305.874L473.991 305.513L472.738 304.532Z" fill="#9EC3D2" fill-opacity="0.35"/>
<path d="M393.981 287.427L394.431 287.418L394.837 286.92L395.519 286.82L396.246 287.183L397.795 287.219L398.993 286.82L399.443 286.504L399.477 286.088L400.313 285.399L400.533 283.879L399.984 282.937L398.578 282.657L395.323 284.73L394.862 284.694L394.664 286.133L393.003 286.269L393.981 287.427Z" fill="#9EC3D2" fill-opacity="0.35"/>
<path d="M394.101 289.935L394.794 289.962L395.629 290.723L396.035 290.814L396.354 290.687L396.838 290.632L397.002 290.081L397.661 289.727L398.375 289.7L399.683 287.735L399.661 287.291L399.058 286.912L397.849 287.346L396.232 287.328L395.462 286.929L394.912 287.029L394.626 287.436L394.605 288.585L394.144 289.119L394.101 289.935Z" fill="#9EC3D2" fill-opacity="0.35"/>
<path d="M351.02 285.999L351.407 286.062L351.419 286.711L350.969 287.762L349.755 287.663L349.485 287.157L349.845 286.542L350.529 286.022L351.02 285.999Z" fill="#9EC3D2" fill-opacity="0.35"/>
<path d="M395.606 268.118L394.806 268.44L394.976 268.566L394.993 268.888L394.824 268.86L394.637 268.622L394.19 269.201L394.877 269.318L395.133 269.539L395.269 269.542L395.359 269.042L395.792 268.893L395.606 268.118Z" fill="#9EC3D2" fill-opacity="0.35"/>
<path d="M403.622 258.57L403.979 258.356L403.947 258.116L403.721 258.009L403.754 257.716H403.948V257.556L403.105 257.37L401.842 257.477L401.713 257.93L401.421 257.85L401.227 257.583L400.61 257.609L400.544 258.116L400.253 258.222L400.091 257.955L398.794 258.809L399.054 259.049L398.568 259.235L397.465 261.022L397.077 261.236L397.109 261.396L397.497 261.556L397.4 261.903L396.751 261.876L396.557 261.689L396.136 262.09L395.877 262.25L395.811 262.624L395.585 262.731L395.002 262.838L394.71 263.586L394.905 264.813L395.131 265.374L395.39 265.587L395.974 265.561L396.816 264.894L397.139 264.441L397.238 265.108L397.789 264.308L397.82 262.065L398.269 261.834L398.403 260.597L399.763 258.996L400.412 258.809L400.703 258.516L401.675 258.702L402.161 258.942L402.324 258.275L403.135 257.875L403.622 258.57Z" fill="#9EC3D2" fill-opacity="0.35"/>
<path d="M398.817 251.613L398.525 251.373L397.879 251.631H396.691L396.504 252.197L397.17 252.677L397.461 252.643L397.878 252.06L398.232 252.266L397.981 252.677L397.855 253.278L398.147 253.654L398.772 252.797L399.586 251.99L399.273 251.767L398.817 251.613ZM399.17 250.584L398.649 250.978L398.961 251.372H399.523L399.753 251.629L400.44 251.921L401.231 251.544L401.774 251.167L401.587 250.858L401.044 250.601L400.648 250.893L400.378 250.618L400.169 250.635L399.899 251.116L399.503 250.79L399.461 250.568L399.17 250.584ZM400.357 252.351L399.94 252.66L399.587 252.883L399.753 253.122L400.087 253.207L400.629 253.001L400.881 252.744L400.651 252.435L400.357 252.351Z" fill="#9EC3D2" fill-opacity="0.35"/>
<path d="M431.138 278.845L431.219 279.461L432.646 279.989L434.934 280.128L434.847 279.676L433.319 279.332L432.022 278.701L431.138 278.845Z" fill="#9EC3D2" fill-opacity="0.35"/>
<path d="M473.865 313.411L474.053 315.114L473.801 315.888L472.861 316.456L472.924 317.127V317.849L473.175 318.108L475.745 316.301V315.888H475.118L474.24 313.463L473.865 313.411ZM471.985 317.127L472.487 317.901L471.107 318.986L470.981 319.553L470.041 319.655L468.474 320.842L467.032 320.275L466.907 319.861L469.539 318.933L471.985 317.127Z" fill="#9EC3D2" fill-opacity="0.35"/>
<path d="M418.273 284.372L419.579 283.756L419.81 282.854L419.524 282.72L419.643 281.752L419.892 281.634L420.159 281.976L421.747 282.655V283.032L419.823 285.346L418.938 285.37L418.273 284.372Z" fill="#9EC3D2" fill-opacity="0.35"/>
<path d="M351.524 288.526L351.266 289.184L352.117 289.364L352.646 289.45L352.735 288.94L353.303 288.706L353.806 288.918L354.004 289.177L354.244 289.154L354.433 288.684L353.804 288.472L353.327 288.26L352.85 288.525L352.283 288.759L351.704 288.569L351.524 288.526Z" fill="#9EC3D2" fill-opacity="0.35"/>
<path d="M352.308 294.288L351.965 294.571L351.989 295.023L354.982 299.482L358.09 301.119L358.57 300.461L358.685 299.013L358.434 298.11L357.588 296.944L357.084 297.075L356.856 297.281L355.851 296.34L356.102 295.23L357.268 294.609L357.176 294.025L355.989 293.988L355.372 293.142L355.029 293.048L355.053 293.556L353.523 295.042L352.379 294.817L352.308 294.288Z" fill="#9EC3D2" fill-opacity="0.35"/>
<path d="M463.218 294.11L463.153 297.639L463.775 297.612L464.593 296.831L465.28 296.858L465.721 297.181L465.868 298.178L467.275 298.784L467.635 298.676V298.312L466.506 297.544L465.95 296.492L466.392 296.317L466.064 295.738L465.411 295.725L465.247 295.106L463.513 294.15L463.218 294.11Z" fill="#9EC3D2" fill-opacity="0.35"/>
<path d="M468.542 295.083L468.374 295.115L468.272 295.486L467.95 295.657L466.983 295.796L467.022 296.093L468.04 296.051L468.685 295.722L468.647 295.149L468.542 295.083ZM468.116 294.213L467.96 294.393L468.81 295.009L468.927 295.369L469.158 295.348L469.185 294.977L468.927 294.786L468.116 294.213Z" fill="#9EC3D2" fill-opacity="0.35"/>
<path d="M452.018 286.781L451.866 287.018L451.782 287.31L450.937 288.186L450.988 288.366L451.343 288.325L452.44 287.322L452.018 286.781ZM453.385 286.448L453.367 287.171L453.689 287.435L453.807 287.949L454.129 288.006L454.28 287.685L454.028 287.532L453.961 286.628L453.385 286.448ZM454.299 286.727L454.281 287.366L454.467 287.616L454.787 287.31L454.703 286.754L454.299 286.727ZM454.5 286.169L454.822 286.517L454.973 286.851H455.262L455.211 286.28L454.889 286.1L454.5 286.169ZM455.126 287.477L455.193 287.894L454.601 288.284L454.111 288.326L453.588 288.785L453.606 288.995L454.096 288.869L454.433 288.689L454.721 289.286L455.228 289.578L455.431 289.522L455.616 289.341L455.212 289.008L455.449 288.855L455.719 289.035L455.904 288.785L455.719 288.479L455.686 287.798L455.126 287.477ZM452.373 283.235L451.917 283.499L451.866 284.334L452.577 285.46L452.814 285.613L453.117 285.446L453.641 285.515L453.741 285.89L454.129 285.918L454.315 285.71L454.078 285.446L453.791 285.224L453.183 285.169L452.861 284.737L453.233 284.278L453.266 283.875L453.013 283.361L452.373 283.235ZM452.61 285.725L452.744 286.114L452.981 286.24L453.15 286.06L452.88 285.754L452.61 285.725Z" fill="#9EC3D2" fill-opacity="0.35"/>
<path d="M422.646 279.895L423.105 280.453L423.061 280.74L422.45 280.938L422.406 281.406H423.105L423.346 281.244H424.678L425.88 282.108L426.033 281.693H426.929L426.951 281.172L426.034 280.453L426.23 280.057L427.17 280.004L428.437 277.846L427.737 277.397L427.476 276.642L429.179 276.516L428.174 275.347L427.638 275.228L427.42 275.445L427.255 275.455L426.25 275.976L426.579 276.426L426.208 276.75L425.748 278.135L424.612 278.728L424.458 279.377L422.646 279.895Z" fill="#9EC3D2" fill-opacity="0.35"/>
<path d="M402.916 269.055L403.065 269.28L403.101 269.52L402.978 269.753L402.695 270.198L402.456 270.285L402.147 270.175L401.961 270.183L401.511 270.321L400.998 270.197L400.168 269.716L399.355 269.36L399.028 268.952L398.966 267.992L399.602 267.54L400.432 267.315L400.704 267.292L400.768 267.46L401.121 267.575L402.095 267.59L402.395 267.583L402.89 268.203L402.766 268.456L402.82 268.755L402.915 269.055L402.916 269.055Z" fill="#9EC3D2" fill-opacity="0.35"/>
<path d="M360.439 284.403L359.972 284.274L359.598 284.467L359.785 284.645L360.423 284.722L360.439 284.403Z" fill="#9EC3D2" fill-opacity="0.35"/>
<path d="M388.688 274.322L388.578 275.571L388.265 275.802L388.297 275.944L388.516 276.24L388.375 276.6L388.609 276.666L389.157 276.614L389.125 276.253L389.484 274.579L389.406 274.348L388.688 274.322Z" fill="#9EC3D2" fill-opacity="0.35"/>
<path d="M384.668 277.958L384.477 278.156L384.668 278.354L384.956 278.235L384.668 277.958ZM378.388 275.157L378.148 275.355L378.579 275.553L378.627 275.277L378.388 275.157ZM379.683 275.038L379.395 275.195L379.636 275.353L380.019 275.273L379.683 275.038ZM379.874 275.591L379.731 275.907L379.922 276.105L380.162 275.948L379.874 275.591ZM381.025 276.222L380.929 276.42L381.072 276.539L381.456 276.341L381.025 276.222Z" fill="#9EC3D2" fill-opacity="0.35"/>
<path d="M364.098 301.506L364.487 301.852L364.441 302.586L365.561 302.53L366.407 303.415L366.338 304.205L365.791 304.882L364.671 304.919L364.625 304.543L364.944 303.922L363.847 303.357H362.933L362.248 302.755L362.746 301.591L364.098 301.506Z" fill="#9EC3D2" fill-opacity="0.35"/>
<path d="M417.257 281.221L417.165 281.8L417.437 281.969L417.685 281.951L417.777 281.221L417.562 281.096L417.257 281.221Z" fill="#9EC3D2" fill-opacity="0.35"/>
<path d="M403.042 270.909L402.996 271.123L401.973 271.818L402.829 272.844L403.377 273.157H404.363L404.688 272.935L405.124 272.889L405.449 273.049L406.025 272.513L405.914 272.245L405.329 272.122L404.93 272.106L404.949 271.647L404.419 270.965L403.042 270.909Z" fill="#9EC3D2" fill-opacity="0.35"/>
<path d="M401.871 271.911L401.509 272.133H401.333L401.213 272.439L401.64 272.845L401.669 273.167L401.488 273.375L402.116 273.909L402.793 273.74L402.737 272.952L401.871 271.911Z" fill="#9EC3D2" fill-opacity="0.35"/>
<path d="M457.071 254.352L457.382 255.23L458.004 255.376L458.626 254.572L458.271 254.023L458.403 253.548H459.336L459.113 253.913L459.202 255.23L457.869 257.936L458.002 258.521L457.958 259.508L460.443 262.47L460.931 262.579L460.975 260.167L461.463 259.801L460.93 258.851L461.373 258.448L460.396 257.388L459.863 257.425L459.686 255.67L461.063 255.377L461.151 254.865L461.862 254.719L462.261 255.012L462.748 253.404L463.591 252.234L464.257 251.941L464.835 251.977V251.429L463.902 251.283L462.614 250.405L463.237 249.82L462.703 248.833L463.147 248.467L463.68 249.052L465.012 249.455L466.477 249.565L466.655 249.053L465.901 248.432L466.744 247.482L464.834 246.933L464.346 247.738L463.724 247.079L460.217 246.092L456.886 246.567L456.399 246.786V247.005L457.109 247.299L457.02 247.993L455.733 247.554L452.891 248.468L452.404 247.628H450.449L449.56 248.396L446.409 247.812L443.523 248.287L443.168 249.017L443.612 249.127L443.567 249.676L440.77 249.931L440.949 250.662L438.373 250.296L438.995 249.346L436.374 249.236L436.597 250.224L435.754 250.553L435.044 250.005L432.159 250.408L431.049 251.248L431.005 251.759L430.294 251.795L430.206 251.211L432.471 249.602V248.505L431.006 248.176L429.096 248.687L428.298 248.028H427.942L427.499 248.759L427.854 249.088L425.321 250.222L423.147 251.575L421.814 253.073V253.694L423.235 254.169L422.524 254.608L421.015 254.17L420.393 254.608L419.46 253.731L419.282 254.06L420.303 256.692L420.57 256.766L421.281 256.473L421.636 256.692V257.167L420.969 256.948L420.57 257.203L420.837 257.678L420.615 258.922L419.238 259.031L419.15 258.629L419.949 258.226L420.127 257.129L419.238 256.178L418.927 254.534L417.507 254.35L417.375 254.935L417.641 255.228L417.064 255.631L417.286 256.728L418.129 257.021L418.307 257.825L417.463 257.387L415.288 257.058L415.021 257.642L413.289 258.153L413.022 257.788L410.757 258.812L410.713 259.507L409.824 259.616L410.091 259.105V258.594L409.202 258.338L408.624 258.522L409.112 259.29L409.467 259.801V260.204L408.801 260.094L408.668 259.984L408.002 260.569L408.357 261.08L406.848 261.044L407.336 261.557L407.203 261.776H406.405L405.827 261.447L405.695 260.533L404.762 260.24V259.874L406.716 260.204L407.782 260.277L408.226 259.729L407.826 259.144L404.985 258.23L404.005 258.429L403.669 258.665L403.774 259.206L404.191 259.265L404.093 260.117L405.379 262.586L404.45 263.79L404.386 264.062L404.858 264.333L404.432 264.563L404.15 264.567L404.203 265.628L404.593 266.08L404.598 266.519L405.098 266.556L405.863 266.795L406.672 267.704L406.681 267.944L406.418 268.312L407.022 268.285L407.611 268.423L408.406 269.343L410.364 269.489L410.279 270.583L409.604 271.056L409.744 271.24L409.077 271.825L408.901 272.374L409.3 272.849L410.588 273.214L411.122 272.958L414.541 274.018L414.673 273.725L413.963 273.177V272.482L413.519 272.372L413.608 271.788L414.318 271.093L413.045 270.314L413.132 269.229L414.495 268.497L416.094 268.571L416.361 268.974L418.004 269.047L419.204 268.499L418.582 267.95L418.714 266.926L421.822 265.684L424.212 266.564L425.011 265.979L427.364 267.807L429.14 267.661L429.762 268.173L431.45 268.318L432.559 267.076L433.98 267.588L434.734 267.698L435.488 267.149L434.822 266.784L435.4 266.053L437.043 266.492L437.398 267.077L438.109 267.113L438.552 266.857L439.752 266.821L439.884 267.077L441.26 267.15L442.193 266.346L444.103 266.53L444.681 266.346L444.857 265.468L444.279 264.408L444.857 264.006H446.677L448.408 265.688L450.628 266.711H451.294L451.382 266.272L452.181 265.87L452.269 268.246L451.559 268.282V268.867L451.958 269.27L451.884 269.793L452.179 269.892L452.358 269.527L452.625 269.6L452.801 269.746L453.6 269.6L454.398 267.699L454.487 265.322L453.465 263.42L452.178 262.141L451.555 262.215V262.618L450.046 262.143L450.624 261.119L451.112 258.413L453.154 257.902L454.131 257.391H455.196L454.928 257.684L455.195 258.049L456.128 257.245L456.662 257.281L456.573 256.806L455.729 256.66L456.306 254.942L457.07 254.354L457.071 254.352Z" fill="#9EC3D2" fill-opacity="0.35"/>
<path d="M401.485 267.068L401.22 267.468L402.173 267.476H402.367L402.331 267.25L402.182 267.107L401.485 267.068ZM460.971 262.885L460.752 263.108L460.77 263.456L460.972 263.441L461.31 262.955L460.971 262.885ZM468.259 249.365L467.842 249.587L467.743 249.87L467.939 250.052L468.381 249.931L468.822 250.052L469.068 250.113L469.043 249.446L468.259 249.365ZM409.34 249.423L409.644 249.522L409.43 249.823V250.249L408.974 250.474H408.488L408.214 250.199L408.244 249.898L408.458 249.672H408.884L409.34 249.423ZM410.495 249.147V249.447L410.799 249.648L411.225 249.624L411.591 249.348V249.147H411.256L410.983 249.222L410.769 249.021L410.495 249.147ZM412.23 249.173L412.444 249.548L412.87 249.573L413.174 249.473L413.022 249.122L412.627 249.047L412.23 249.173ZM413.964 248.672L413.63 248.621L413.326 248.873L413.477 249.098L413.569 249.449L413.965 249.199L414.057 248.923L413.964 248.672ZM415.819 251.327L415.727 251.678L415.027 252.179L413.536 252.455L412.318 254.108L412.104 254.584L413.322 254.836L413.504 254.235L413.87 253.308L414.813 252.907L415.604 252.406L416.182 252.205H416.486V251.529L415.819 251.327ZM411.895 254.984L412.716 255.06L412.991 255.836L413.69 256.437L413.446 256.838H413.021L412.625 256.463L411.743 256.438L411.377 256.037V255.761L411.926 255.636L411.895 254.984ZM424.734 246.443L424.338 246.242H423.882L423.791 246.467L423.305 246.693L422.939 246.792L422.879 247.093L423.731 247.143L424.734 246.443ZM425.676 246.518L425.462 246.893L425.036 246.869L424.367 247.27L424.185 247.771H424.611L424.855 247.445L425.432 247.795L425.98 247.595L426.376 247.319L426.224 246.893L426.01 246.593L425.676 246.518ZM426.559 246.793L426.773 247.495L427.107 248.146L427.473 247.621L428.173 247.495V247.119L427.717 246.844L426.559 246.793ZM443.253 245.67L443.728 245.996L444.065 245.882L444.164 245.425L443.471 245.033L443.015 245.279L441.906 245.361V245.77L440.736 245.785V246.454L442.103 247.286L442.46 247.073L442.381 246.485L443.254 246.307L443.075 246.029L442.759 245.768L443.253 245.67ZM444.521 245.279L444.837 245.768L446.067 245.654L446.405 245.295L446.325 244.985L445.988 244.87L445.671 245.067L444.76 245.23L444.521 245.279ZM444.442 247.188L443.826 247.058L443.472 247.368L443.313 247.792L444.145 247.728L444.779 247.466L444.442 247.188ZM460.376 244.365L459.861 244.235L459.267 244.414L458.97 244.773L459.347 245.182L460.338 244.823L460.536 244.643L460.376 244.365ZM460.566 263.734V264.346L460.803 264.416L460.972 264.193V263.721L460.566 263.734ZM453.656 261.522L453.64 262.413L455.008 264.139L455.497 265.64L456.359 266.975L456.697 267.072L456.984 266.877L457.119 266.557L455.886 265.458L455.919 264.888L456.189 264.791L456.257 264.457L453.841 261.662L453.656 261.522ZM463.184 258.754L462.847 258.782L463.05 259.019L463.473 259.256L463.591 259.144L463.184 258.754ZM463.842 258.922L463.893 259.159L464.416 259.284L464.468 259.117L463.842 258.922ZM466.713 259.83L466.934 260.154L467.302 260.134L467.375 259.911L466.713 259.83ZM470.418 260.335L470.713 260.78L470.933 260.578V260.275L470.418 260.335Z" fill="#9EC3D2" fill-opacity="0.35"/>
<path d="M407.573 292.899L408.07 293.273L408.048 293.673L407.278 293.686V293.244L407.573 292.899Z" fill="#9EC3D2" fill-opacity="0.35"/>
<path d="M415.732 280.386L416.971 281.797L417.37 282.057L417.549 282.689L419.455 282.812L419.671 282.905L419.457 283.684L418.204 284.288L416.372 284.741L415.395 285.521L414.234 284.968L413.531 285.47L412.552 284.164L411.881 283.912L411.637 283.61V282.957L409.194 280.543L409.102 280.115H409.805L410.66 279.512L410.69 279.21L410.446 279.009L410.936 278.683L411.975 278.733L413.747 279.94L414.793 279.902L414.86 280.113L415.732 280.386Z" fill="#9EC3D2" fill-opacity="0.35"/>
<path d="M469.688 295.73L469.907 296.228L470.294 296.536L470.41 296.451L470.372 296.121L469.933 295.687L469.688 295.73ZM470.757 296.472L470.784 296.801L471.029 296.992L471.261 296.875L471.055 296.524L470.757 296.472ZM471.066 297.29L470.859 297.47L471.078 297.799L471.336 297.863L471.324 297.641L471.066 297.29ZM471.57 297.099L471.75 297.46L472.098 297.799L472.291 297.545L472.032 297.184L471.57 297.099ZM472.473 297.641L472.575 298.086L472.821 298.362L473.027 298.013L472.473 297.641ZM472.755 298.638L472.665 298.765L472.962 299.085L473.169 299.095L473.04 298.68L472.755 298.638ZM472.098 299.274L471.789 299.391L472.059 299.698L472.291 299.591L472.098 299.274Z" fill="#9EC3D2" fill-opacity="0.35"/>
<path d="M418.975 295.561L418.867 295.739L419.162 295.938L419.378 295.739L418.975 295.561ZM420.482 294.234L420.158 294.411L420.401 294.721H420.724L420.482 294.234ZM420.616 295.009L420.4 295.208L420.561 295.407L420.856 295.452L420.882 295.031L420.616 295.009Z" fill="#9EC3D2" fill-opacity="0.35"/>
<path d="M404.762 288.239L404.241 287.988L403.766 287.222L403.792 286.508L404.451 286.045L404.483 284.337L404.918 284.347L404.868 283.398L409.427 283.431L410.079 282.894L411.485 284.733L410.714 285.474V286.608L409.774 288.26L409.562 288.644L408.804 287.756L408.25 288.331L407.625 288.47L405.593 288.303L404.707 288.561L404.762 288.239Z" fill="#9EC3D2" fill-opacity="0.35"/>
<path d="M400.488 258.922L400.834 259.183H401.483L401.839 259.744L401.937 260.704L401.063 261.211V261.717L400.446 262.412L400.089 262.438L399.603 263.105L399.635 263.746L400.478 264.253L400.413 264.546L400.089 264.946L399.604 265.292L399.635 266.44L398.89 266.654L398.63 267.107H398.273L398.079 266.307L397.268 265.291L397.934 264.38L397.98 262.128L398.44 261.922L398.551 260.634L399.86 259.102L400.488 258.922Z" fill="#9EC3D2" fill-opacity="0.35"/>
<path d="M400.624 265.505L400.251 265.746L400.439 266.099L400.769 265.837L400.624 265.505Z" fill="#9EC3D2" fill-opacity="0.35"/>
<path d="M444.042 292.026L444.182 292.091L444.498 292.07L444.472 291.875L444.214 291.909L444.042 292.026Z" fill="#9EC3D2" fill-opacity="0.35"/>
<path d="M399.972 271.543L399.523 271.762L398.686 271.912L398.853 272.308L399.44 272.313L399.981 271.944L399.972 271.543Z" fill="#9EC3D2" fill-opacity="0.35"/>
<path d="M400.156 270.841L400.278 270.929L400.294 271.079L401.642 271.055L402.638 270.703L402.623 270.347L402.432 270.416L402.158 270.296L401.99 270.29L401.549 270.435L400.948 270.316L400.156 270.841Z" fill="#9EC3D2" fill-opacity="0.35"/>
<path d="M385.684 289.034L386.682 289.822L387.394 289.116L386.949 288.546L386.335 288.596L385.684 289.034Z" fill="#9EC3D2" fill-opacity="0.35"/>
<path d="M385.606 287.193L384.422 287.17L384.641 287.604L384.763 287.336L386.249 287.463L386.414 287.458L387.11 287.479L387.135 287.227L386.499 286.604L385.79 285.82L385.35 285.669L385.011 285.74L384.315 286.153L384.156 286.384L384.107 286.616L384.363 286.766L385.218 286.756L385.768 286.634L385.83 286.855L385.781 287.146L385.606 287.193Z" fill="#9EC3D2" fill-opacity="0.35"/>
<path d="M417.141 287.722L417.913 287.48L418.186 287.614L418.156 288.175L417.445 289.832L413.591 293.205L413.144 292.954L413.114 291.53L413.694 290.986L414.924 290.675L416.727 289.119L417.199 288.775L417.332 288.273L417.141 287.722Z" fill="#9EC3D2" fill-opacity="0.35"/>
<path d="M364.34 290.19L364.701 290.46L365.259 290.178L365.768 290.191L365.702 290.352L365.489 290.716L365.455 291.622L364.439 291.959L364.489 291.379L363.833 290.879L363.867 290.622L364.34 290.19Z" fill="#9EC3D2" fill-opacity="0.35"/>
<path d="M409.503 288.738L409.086 288.888L409.218 289.481H409.738L410.442 290.317L409.877 290.376L409.732 290.592L409.718 290.902L408.022 290.877L407.848 290.662L406.663 290.607L404.486 288.776L404.703 288.67L405.627 288.442L407.65 288.567L408.338 288.441L408.794 287.941L409.503 288.738Z" fill="#9EC3D2" fill-opacity="0.35"/>
<path d="M395.721 292.502L395.924 292.418L396.076 292.519L395.924 292.711L395.74 292.652L395.721 292.502ZM396.129 291.975L396.435 291.933L396.537 292.092L396.385 292.226L396.234 292.209L396.129 291.975Z" fill="#9EC3D2" fill-opacity="0.35"/>
<path d="M348.177 286.599L349.007 286.937L348.995 286.401L348.569 286.189L348.177 286.599Z" fill="#9EC3D2" fill-opacity="0.35"/>
<path d="M409.137 276.905L409.075 277.272L409.573 277.442L409.552 278.459L410.05 278.45L410.548 278.143L410.736 278.117L411.866 277.382L412.094 276.315L409.834 276.503L409.596 276.93L409.137 276.905Z" fill="#9EC3D2" fill-opacity="0.35"/>
<path d="M408.112 303.598L407.668 303.658L407.477 304.085L407.817 304.338H408.228L408.576 303.929L408.112 303.598Z" fill="#9EC3D2" fill-opacity="0.35"/>
<path d="M399.617 286.56L399.64 286.134L400.477 285.469L400.702 283.834L400.144 282.963L400.535 282.799L404.316 284.409L404.293 285.988L403.626 286.452V287.266L404.063 287.956H403.292L402.017 288.988L401.983 289.299L401.042 289.289L401.03 289.431L400.492 289.373L400.125 288.805L399.849 288.694L399.884 288.521L400.23 288.304V287.291L399.752 287.23L399.174 286.879L399.617 286.56Z" fill="#9EC3D2" fill-opacity="0.35"/>
<path d="M392.979 290.206L393.452 289.98L393.442 288.486L393.134 288.078L392.937 288.214L392.979 290.206Z" fill="#9EC3D2" fill-opacity="0.35"/>
<path d="M441.534 282.874L442.106 283.476V284.208L442.304 284.289L443.214 283.931L443.392 283.98L444.479 285.005L444.44 285.706L444.085 285.656L443.769 285.493L443.532 285.509L443.117 286.078L443.196 286.387L443.532 286.533L443.513 286.875L443.276 286.973L442.465 286.517V286.11L442.129 286.094L441.991 286.273L441.92 288.095L442.445 288.878L443.374 289.61L443.336 289.822L442.84 289.806L442.387 289.253H441.911L441.318 288.862L441.139 288.454L441.396 288.112L441.484 287.803L441.763 287.399L441.751 286.469L441.069 285.663L441.04 285.565L441.261 285.383L441.21 284.743L440.302 283.804L440.409 283.262L441.534 282.874Z" fill="#9EC3D2" fill-opacity="0.35"/>
<path d="M423.893 274.409L424.619 273.672H424.893L424.989 273.837L424.653 274.036V274.2L424.874 274.33L425.936 274.382L426.282 274.261L426.439 274.287L426.545 274.564L427.176 274.616L427.493 275.162L427.397 275.326L427.272 275.335L427.146 275.127L426.873 275.11L426.399 275.162L426.367 275.526L425.894 275.5L425.915 275.041L425.569 274.764L425.043 275.119L425.053 275.353L424.59 275.483H424.317L424.338 274.677L423.893 274.409Z" fill="#9EC3D2" fill-opacity="0.35"/>
<path d="M417.473 273.795L417.363 274.175H416.63V274.689L417.418 275.113L417.174 275.695V275.964L417.501 276.009L417.936 275.539L418.915 275.36L421.006 276.009L421.033 276.478L422.201 276.567L423.505 275.449L423.342 275.09L422.473 274.934L420.027 273.636L419.918 273.166H418.994L418.586 273.793H418.178L417.473 273.795Z" fill="#9EC3D2" fill-opacity="0.35"/>
<path d="M396.458 276.645L397.435 276.323L397.756 276.494L397.769 276.702L397.619 276.862L397.641 277.146L397.792 277.213V277.724L397.619 277.961L397.641 278.112L398.297 278.301L397.769 278.973L397.562 278.963L397.527 279.502L397.297 279.531L397.101 279.389L397.147 278.841L396.504 278.33L396.422 277.885L396.733 277.686L396.458 276.645Z" fill="#9EC3D2" fill-opacity="0.35"/>
<path d="M406.125 274.354L405.654 274.116L405.395 273.946L404.957 274.099L404.655 274.724L405.109 274.641L405.428 274.442L406.131 274.599L405.733 274.912L404.676 274.871L404.285 275.22V275.391L404.535 275.561V275.749L404.43 275.971L404.534 276.159L404.867 276.023L405.199 276.314L405.116 276.519L404.992 276.656L405.177 276.826L406.089 276.979L406.731 276.757V276.433L407.041 276.484L407.787 276.842L408.594 276.74L408.946 276.467L409.174 276.535V276.842H409.484L409.753 276.416L412.114 276.211L413.144 276.109L412.872 275.817L412.867 275.423L413.073 275.221L412.321 274.727L412.361 274.301H411.948L411.262 274.026L410.868 274.367L409.419 274.332L408.55 273.907L407.715 273.968L406.787 274.424L406.125 274.354Z" fill="#9EC3D2" fill-opacity="0.35"/>
<path d="M362.416 287.828L362.229 287.97L362.025 287.995V288.2L362.4 288.482L362.555 288.277L362.649 288.046L362.617 287.854L362.416 287.828Z" fill="#9EC3D2" fill-opacity="0.35"/>
<path d="M451.68 279.675L451.055 280.064L451.022 280.815L451.563 281.329L451.696 281.232L451.68 279.675Z" fill="#9EC3D2" fill-opacity="0.35"/>
<path d="M410.092 297.424L412.912 297.141L412.218 296.044L412.181 294.993L412.406 294.49L409.469 292.983L408.549 293.107L408.229 293.301L408.201 293.741L407.994 294.352L407.778 294.561L407.469 294.585L408.043 296.158L409.027 296.632L409.885 296.649L410.092 297.424Z" fill="#9EC3D2" fill-opacity="0.35"/>
<path d="M403.642 268.822L403.129 269.058L403.256 269.503L402.783 270.319L402.787 270.678L403.01 270.793L404.437 270.851L404.837 270.581L405.264 270.698L405.877 271.366L405.429 272.025L405.962 272.152L406.66 271.495L407.059 271.554L407.43 271.765L407.103 272.118L407.545 272.68H408.015L408.257 272.305L408.756 272.222L408.77 271.918L407.844 271.801L407.872 271.473H408.77L409.738 270.839L410.166 270.534L410.236 269.573L408.328 269.433L407.545 268.531L407.004 268.379L406.349 268.402L406.054 268.998L404.711 269.013L404.275 268.848L403.642 268.822Z" fill="#9EC3D2" fill-opacity="0.35"/>
<path d="M407.658 292.782L408.193 293.192L408.529 293.017L409.437 292.895L409.593 292.909L409.651 292.627L410.164 291.746L409.733 291.013L408.335 291.02L408.326 291.322L408.514 291.469L408.485 291.771L407.658 292.782Z" fill="#9EC3D2" fill-opacity="0.35"/>
<path d="M338.832 266.684L338.655 267.265L338.039 266.938H337.731L337.555 267.555L335.397 271.505L335.97 274.947L336.675 275.237L336.807 276.18H338.26L339.668 277.049L342.439 277.267L342.747 278.426L343.187 278.681L343.804 278.174L344.288 278.354L344.728 280.021L345.475 280.419L346.092 279.476L347.984 278.353L349.216 278.823L350.272 278.896L350.316 278.353L352.516 278.389L352.956 278.788L353.044 279.693L352.781 280.2L353.088 281.069H353.749L354.41 280.236L354.146 279.838L353.883 278.968L354.279 277.989L356.083 276.722L357.447 276.396L357.27 275.344L359.162 273.677L361.055 273.423L360.748 272.555L362.596 271.686V270.527L362.419 270.454L361.758 270.635L361.67 271.345L359.474 271.367L357.752 272.301L355.051 273.023L354.62 272.591L355.846 271.075L355.24 270.603L354.829 269.962L353.975 269.402L353.047 269.338L351.295 268.361L338.832 266.684Z" fill="#9EC3D2" fill-opacity="0.35"/>
<path d="M324.77 251.525L325.381 252.459L325.774 252.387V252.063L324.77 251.525ZM321.323 259.742L321.293 260.177L321.674 260.104V259.911L321.323 259.742ZM320.736 259.935L319.973 260.25L320.092 260.588L320.385 260.395L320.971 260.177L320.736 259.935ZM317.565 260.346L317.037 260.249L316.948 260.443L317.007 260.805L317.565 260.346ZM316.448 260.322L315.948 260.154L315.771 260.419L316.095 260.685L316.448 260.322ZM329 250.303L327.518 250.591L327.823 251.955L329.436 252.315L329.523 252.602L327.125 253.213L325.773 255.044L326.252 256.983L327.037 257.413L327.648 256.946L327.823 257.234L327.081 257.952L324.203 259.029L322.371 259.388L322.326 259.927L326.556 258.922L328.3 258.526L329.913 256.91L331.702 255.941L330.786 257.198L331.79 257.306L333.491 256.695L333.797 257.7L334.974 257.915L336.194 258.884L336.281 259.602L336.106 259.781L336.323 260.462H336.629L336.673 259.313H337.021L337.108 262.149L337.981 261.538L337.37 258.594H336.454L335.451 257.553L340.379 250.731L335.495 247.608L330.044 248.47L329.827 249.834L331.004 250.409L330.567 251.343L329 250.303Z" fill="#9EC3D2" fill-opacity="0.35"/>
<path d="M365.618 306.187L365.255 306.503L365.405 308.204L366.543 308.474L367.99 307.288L365.618 306.187Z" fill="#9EC3D2" fill-opacity="0.35"/>
<path d="M423.669 275.452L424.213 275.475V274.714L423.698 274.468L424.567 273.573H424.921L425.274 273.909L426.198 273.619L424.92 273.261L424.871 273.044L424.567 273.105L424.269 273.529L422.981 273.495L422.035 272.402L420.375 272.536L419.583 271.895L418.488 271.744L417.693 272.008L418.154 273.261L418.159 273.683L418.495 273.689L418.907 273.047L420.002 273.059L420.165 273.551L422.513 274.824L423.421 274.995L423.669 275.452Z" fill="#9EC3D2" fill-opacity="0.35"/>
<path d="M362.386 286.827L362.169 286.956L362.34 287.213L362.621 287.085L362.386 286.827ZM362.121 287.327L361.918 287.493L361.995 287.595H362.245L362.322 287.428L362.121 287.327Z" fill="#9EC3D2" fill-opacity="0.35"/>
<path d="M356.801 287.993L356.879 288.367L357.453 288.516L357.584 287.827L358.19 287.314L358.796 287.895L360.19 288.206L361.37 288.003L362.174 288.813L362.78 289.123L362.116 289.951L362.338 290.577L361.959 290.962L361.564 291.231L360.711 290.88L360.515 291.042V291.542L361.139 291.784L360.22 292.596L359.614 292.556L359.005 292.008L358.875 289.949L356.794 289.369L356.416 288.463L356.801 287.993Z" fill="#9EC3D2" fill-opacity="0.35"/>
<path d="M444.189 287.78L444.399 288.05L444.438 288.359L444.991 288.409L445.662 287.676L446.295 287.531L446.631 286.783L446.474 285.578L445.821 284.846L445.135 284.397L444.26 283.17L444.887 282.312L443.989 281.47L443.27 281.445L442.623 281.729L442.816 282.409L443.679 282.533L443.91 283.057L443.606 283.219L443.625 283.349L445.648 284.966L445.727 285.441L445.606 286.943L444.189 287.78Z" fill="#9EC3D2" fill-opacity="0.35"/>
<path d="M475.252 301.176L475.033 301.415L475.125 301.685L475.234 301.746L475.434 301.535L475.252 301.176ZM475.361 301.911L475.379 302.105L475.616 302.166L475.78 302.091L475.616 301.88L475.361 301.911ZM475.708 303.652L475.598 303.787L475.762 303.937L476.036 303.862L475.708 303.652Z" fill="#9EC3D2" fill-opacity="0.35"/>
<path d="M413.61 285.583L413.865 286.201V286.805L414.476 287.258L418.783 285.824L418.824 285.43L418.133 284.417L416.4 284.869L415.405 285.668L414.252 285.111L413.61 285.583Z" fill="#9EC3D2" fill-opacity="0.35"/>
<path d="M418.492 287.087L418.868 287.432L419.377 287.18L419.561 287.129L419.328 286.945L418.88 287.053L418.492 287.087Z" fill="#9EC3D2" fill-opacity="0.35"/>
<path d="M406.926 302.101L405.53 303.155L405.198 303.806L404.092 303.694L403.172 304.362L402.561 304.313L402.61 303.389L402.393 303.327L402.241 305.217L401.156 305.208L400.829 304.893L400.35 304.889L400.787 305.913L401.566 306.515L401.009 307.045L401.37 307.709L402.204 307.969L402.868 307.507L404.771 307.516L404.908 307.377L405.752 307.256L408.609 304.931L408.598 304.199L408.293 304.523H407.836L407.279 304.142L407.562 303.567L408.048 303.486L408.003 302.306L406.926 302.101ZM406.257 304.772L406.524 304.763L406.957 305.147L406.944 305.592L406.437 305.801L406.405 305.949L405.632 305.956L405.389 305.479L405.611 305.13L406.257 304.772Z" fill="#9EC3D2" fill-opacity="0.35"/>
<path d="M403.461 299.368L404.021 300.003L404.889 300.046L405.196 300.185L406.104 300.194L406.887 299.297L409.074 298.497L409.265 297.793L409.011 296.783L407.87 296.252L407.108 296.296L406.729 296.983L406.739 297.296L407.637 297.653L407.69 298.428L406.918 298.463L406.727 298.202L404.582 297.453L404.519 298.028L403.504 298.054L403.461 299.368Z" fill="#9EC3D2" fill-opacity="0.35"/>
<path d="M405.248 300.465L406.833 301.928L408.048 302.181L408.863 301.137L408.799 299.754L407.478 299.196L406.981 299.38L406.241 300.302L405.216 300.294L405.248 300.465Z" fill="#9EC3D2" fill-opacity="0.35"/>
<path d="M171.724 161.769C172.031 159.581 174.067 158.032 176.198 158.612C191.213 162.7 201.2 177.414 198.98 193.229C196.572 210.383 180.713 222.336 163.559 219.928C147.744 217.708 136.349 204.056 136.554 188.495C136.583 186.286 138.633 184.757 140.821 185.064L163.959 188.312C166.146 188.619 168.169 187.095 168.476 184.907L171.724 161.769Z" fill="#9EC3D2" fill-opacity="0.35"/>
<path d="M165.279 179.916C165.72 182.88 162.865 185.259 160.029 184.29L140.04 177.461C139.295 177.207 138.599 176.752 138.267 176.038C134.899 168.806 150.227 157.89 159.468 157.778C161.043 157.759 162.176 159.084 162.408 160.642L165.279 179.916Z" fill="#9EC3D2" fill-opacity="0.35"/>
<rect x="48.4248" y="63.4851" width="74.4449" height="74.4449" rx="3.5" stroke="#78AEC3" stroke-opacity="0.15"/>
<rect x="48.4248" y="151.646" width="165.996" height="74.4449" rx="3.5" stroke="#78AEC3" stroke-opacity="0.15"/>
<rect x="139.976" y="63.4851" width="74.4449" height="74.4449" rx="3.5" stroke="#78AEC3" stroke-opacity="0.15"/>
<rect x="0.0297852" y="0.405975" width="230.149" height="84.7561" rx="4" fill="#9FC4D2" fill-opacity="0.15"/>
<rect x="10.1592" y="11.8176" width="209" height="3.42302" rx="1.71151" fill="#B5D5E5" fill-opacity="0.35"/>
<rect x="10.1592" y="23.2583" width="209" height="3.42302" rx="1.71151" fill="#B5D5E5" fill-opacity="0.35"/>
<rect x="10.1592" y="34.6991" width="209" height="3.42302" rx="1.71151" fill="#B5D5E5" fill-opacity="0.35"/>
<rect x="10.1592" y="46.1397" width="209" height="3.42302" rx="1.71151" fill="#B5D5E5" fill-opacity="0.35"/>
<rect x="10.1592" y="57.5803" width="209" height="3.42302" rx="1.71151" fill="#B5D5E5" fill-opacity="0.35"/>
<rect x="10.1592" y="69.0208" width="209" height="3.42302" rx="1.71151" fill="#B5D5E5" fill-opacity="0.35"/>
<circle cx="18.2093" cy="61.733" r="2.19322" fill="#ADCAD6" stroke="#ADCAD6"/>
<circle cx="67.2713" cy="48.5808" r="2.19322" fill="#ADCAD6" stroke="#ADCAD6"/>
<circle cx="96.9408" cy="72.4438" r="2.19322" fill="#ADCAD6" stroke="#ADCAD6"/>
<circle cx="129.03" cy="42.8605" r="2.19322" fill="#ADCAD6" stroke="#ADCAD6"/>
<circle cx="181.114" cy="40.0908" r="2.19322" fill="#ADCAD6" stroke="#ADCAD6"/>
<circle cx="246.286" cy="16.2224" r="2.19322" fill="#ADCAD6" stroke="#ADCAD6"/>
<line x1="18.0798" y1="61.2502" x2="67.1421" y2="48.1256" stroke="#ADCAD6"/>
<line x1="96.6278" y1="72.8334" x2="66.9585" y2="48.9984" stroke="#ADCAD6"/>
<line x1="96.602" y1="72.076" x2="128.691" y2="42.493" stroke="#ADCAD6"/>
<line x1="181.14" y1="40.5901" x2="129.056" y2="43.36" stroke="#ADCAD6"/>
<line x1="180.94" y1="39.6221" x2="245.264" y2="15.7536" stroke="#ADCAD6"/>
<rect x="238.786" y="294.406" width="171.977" height="84.7561" rx="4" fill="#9FC4D2" fill-opacity="0.15"/>
<rect x="244.152" y="306.684" width="157.761" height="3.42302" rx="1.71151" fill="#B5D5E5" fill-opacity="0.35"/>
<rect x="244.152" y="318.125" width="157.761" height="3.42302" rx="1.71151" fill="#B5D5E5" fill-opacity="0.35"/>
<rect x="244.152" y="329.566" width="157.761" height="3.42302" rx="1.71151" fill="#B5D5E5" fill-opacity="0.35"/>
<rect x="244.152" y="341.006" width="157.761" height="3.42302" rx="1.71151" fill="#B5D5E5" fill-opacity="0.35"/>
<rect x="244.152" y="352.447" width="157.761" height="3.42302" rx="1.71151" fill="#B5D5E5" fill-opacity="0.35"/>
<rect x="244.152" y="363.887" width="157.761" height="3.42302" rx="1.71151" fill="#B5D5E5" fill-opacity="0.35"/>
<circle cx="2.69322" cy="2.69322" r="2.69322" transform="matrix(1 0 0 -1 247.525 323.357)" fill="#ADCAD6"/>
<circle cx="282.105" cy="351.773" r="2.69322" fill="#ADCAD6"/>
<circle cx="2.69322" cy="2.69322" r="2.69322" transform="matrix(1 0 0 -1 296.588 336.509)" fill="#ADCAD6"/>
<circle cx="2.69322" cy="2.69322" r="2.69322" transform="matrix(1 0 0 -1 328.474 341.006)" fill="#ADCAD6"/>
<circle cx="2.69322" cy="2.69322" r="2.69322" transform="matrix(1 0 0 -1 388.889 335.826)" fill="#ADCAD6"/>
<circle cx="2.69322" cy="2.69322" r="2.69322" transform="matrix(1 0 0 -1 400.42 316.809)" fill="#ADCAD6"/>
<circle cx="2.69322" cy="2.69322" r="2.69322" transform="matrix(1 0 0 -1 326.257 312.646)" fill="#ADCAD6"/>
<circle cx="360.837" cy="362.483" r="2.69322" fill="#ADCAD6"/>
<circle cx="2.69322" cy="2.69322" r="2.69322" transform="matrix(1 0 0 -1 358.346 342.229)" fill="#ADCAD6"/>
<g filter="url(#filter1_dd_4982_38814)">
<circle cx="2.69322" cy="2.69322" r="2.69322" transform="matrix(1 0 0 -1 414.977 328.958)" fill="#ADCAD6"/>
</g>
<g filter="url(#filter2_dd_4982_38814)">
<circle cx="2.69322" cy="2.69322" r="2.69322" transform="matrix(1 0 0 -1 434.152 312.801)" fill="#ADCAD6"/>
</g>
<line y1="-0.5" x2="50.7875" y2="-0.5" transform="matrix(0.966032 0.258422 0.258422 -0.966032 250.219 320.663)" stroke="#ADCAD6"/>
<line x1="281.976" y1="351.29" x2="331.039" y2="338.165" stroke="#ADCAD6"/>
<line y1="-0.5" x2="38.0576" y2="-0.5" transform="matrix(-0.77959 0.62629 0.62629 0.77959 328.95 309.953)" stroke="#ADCAD6"/>
<line x1="360.524" y1="362.873" x2="330.854" y2="339.038" stroke="#ADCAD6"/>
<line y1="-0.5" x2="43.6446" y2="-0.5" transform="matrix(0.735232 0.677816 0.677816 -0.735232 328.95 309.953)" stroke="#ADCAD6"/>
<line x1="360.498" y1="362.116" x2="392.587" y2="332.533" stroke="#ADCAD6"/>
<line x1="403.541" y1="314.375" x2="392.009" y2="333.392" stroke="#ADCAD6"/>
<line x1="417.784" y1="326.752" x2="361.153" y2="340.023" stroke="#ADCAD6"/>
<g filter="url(#filter3_dd_4982_38814)">
<line x1="417.348" y1="325.882" x2="436.523" y2="309.725" stroke="#ADCAD6"/>
</g>
<defs>
<filter id="filter0_d_4982_38814" x="312.949" y="238.306" width="165.91" height="89.6173" filterUnits="userSpaceOnUse" color-interpolation-filters="sRGB">
<feFlood flood-opacity="0" result="BackgroundImageFix"/>
<feColorMatrix in="SourceAlpha" type="matrix" values="0 0 0 0 0 0 0 0 0 0 0 0 0 0 0 0 0 0 127 0" result="hardAlpha"/>
<feOffset dy="1"/>
<feGaussianBlur stdDeviation="1"/>
<feComposite in2="hardAlpha" operator="out"/>
<feColorMatrix type="matrix" values="0 0 0 0 0 0 0 0 0 0 0 0 0 0 0 0 0 0 0.05 0"/>
<feBlend mode="normal" in2="BackgroundImageFix" result="effect1_dropShadow_4982_38814"/>
<feBlend mode="normal" in="SourceGraphic" in2="effect1_dropShadow_4982_38814" result="shape"/>
</filter>
<filter id="filter1_dd_4982_38814" x="409.977" y="319.572" width="15.3862" height="15.3864" filterUnits="userSpaceOnUse" color-interpolation-filters="sRGB">
<feFlood flood-opacity="0" result="BackgroundImageFix"/>
<feColorMatrix in="SourceAlpha" type="matrix" values="0 0 0 0 0 0 0 0 0 0 0 0 0 0 0 0 0 0 127 0" result="hardAlpha"/>
<feOffset dy="1"/>
<feGaussianBlur stdDeviation="2.5"/>
<feComposite in2="hardAlpha" operator="out"/>
<feColorMatrix type="matrix" values="0 0 0 0 0 0 0 0 0 0 0 0 0 0 0 0 0 0 0.05 0"/>
<feBlend mode="normal" in2="BackgroundImageFix" result="effect1_dropShadow_4982_38814"/>
<feColorMatrix in="SourceAlpha" type="matrix" values="0 0 0 0 0 0 0 0 0 0 0 0 0 0 0 0 0 0 127 0" result="hardAlpha"/>
<feOffset dy="2"/>
<feGaussianBlur stdDeviation="1"/>
<feComposite in2="hardAlpha" operator="out"/>
<feColorMatrix type="matrix" values="0 0 0 0 0 0 0 0 0 0 0 0 0 0 0 0 0 0 0.05 0"/>
<feBlend mode="normal" in2="effect1_dropShadow_4982_38814" result="effect2_dropShadow_4982_38814"/>
<feBlend mode="normal" in="SourceGraphic" in2="effect2_dropShadow_4982_38814" result="shape"/>
</filter>
<filter id="filter2_dd_4982_38814" x="429.152" y="303.414" width="15.3862" height="15.3864" filterUnits="userSpaceOnUse" color-interpolation-filters="sRGB">
<feFlood flood-opacity="0" result="BackgroundImageFix"/>
<feColorMatrix in="SourceAlpha" type="matrix" values="0 0 0 0 0 0 0 0 0 0 0 0 0 0 0 0 0 0 127 0" result="hardAlpha"/>
<feOffset dy="1"/>
<feGaussianBlur stdDeviation="2.5"/>
<feComposite in2="hardAlpha" operator="out"/>
<feColorMatrix type="matrix" values="0 0 0 0 0 0 0 0 0 0 0 0 0 0 0 0 0 0 0.05 0"/>
<feBlend mode="normal" in2="BackgroundImageFix" result="effect1_dropShadow_4982_38814"/>
<feColorMatrix in="SourceAlpha" type="matrix" values="0 0 0 0 0 0 0 0 0 0 0 0 0 0 0 0 0 0 127 0" result="hardAlpha"/>
<feOffset dy="2"/>
<feGaussianBlur stdDeviation="1"/>
<feComposite in2="hardAlpha" operator="out"/>
<feColorMatrix type="matrix" values="0 0 0 0 0 0 0 0 0 0 0 0 0 0 0 0 0 0 0.05 0"/>
<feBlend mode="normal" in2="effect1_dropShadow_4982_38814" result="effect2_dropShadow_4982_38814"/>
<feBlend mode="normal" in="SourceGraphic" in2="effect2_dropShadow_4982_38814" result="shape"/>
</filter>
<filter id="filter3_dd_4982_38814" x="412.026" y="305.343" width="29.8193" height="26.9222" filterUnits="userSpaceOnUse" color-interpolation-filters="sRGB">
<feFlood flood-opacity="0" result="BackgroundImageFix"/>
<feColorMatrix in="SourceAlpha" type="matrix" values="0 0 0 0 0 0 0 0 0 0 0 0 0 0 0 0 0 0 127 0" result="hardAlpha"/>
<feOffset dy="1"/>
<feGaussianBlur stdDeviation="2.5"/>
<feComposite in2="hardAlpha" operator="out"/>
<feColorMatrix type="matrix" values="0 0 0 0 0 0 0 0 0 0 0 0 0 0 0 0 0 0 0.05 0"/>
<feBlend mode="normal" in2="BackgroundImageFix" result="effect1_dropShadow_4982_38814"/>
<feColorMatrix in="SourceAlpha" type="matrix" values="0 0 0 0 0 0 0 0 0 0 0 0 0 0 0 0 0 0 127 0" result="hardAlpha"/>
<feOffset dy="2"/>
<feGaussianBlur stdDeviation="1"/>
<feComposite in2="hardAlpha" operator="out"/>
<feColorMatrix type="matrix" values="0 0 0 0 0 0 0 0 0 0 0 0 0 0 0 0 0 0 0.05 0"/>
<feBlend mode="normal" in2="effect1_dropShadow_4982_38814" result="effect2_dropShadow_4982_38814"/>
<feBlend mode="normal" in="SourceGraphic" in2="effect2_dropShadow_4982_38814" result="shape"/>
</filter>
</defs>
</svg>
