<svg width="461" height="344" viewBox="0 0 461 344" fill="none" xmlns="http://www.w3.org/2000/svg">
<rect x="27.723" y="38.2207" width="432.639" height="270.5" rx="4" fill="#F8FAFB"/>
<g filter="url(#filter0_d_531_20301)">
<rect x="40.967" y="49.458" width="71.4377" height="71.4377" rx="4" fill="white"/>
<rect x="40.967" y="132.936" width="158.126" height="71.4377" rx="4" fill="white"/>
<rect x="127.655" y="49.458" width="71.4377" height="71.4377" rx="4" fill="white"/>
</g>
<g filter="url(#filter1_d_531_20301)">
<rect x="40.967" y="49.458" width="71.4377" height="71.4377" rx="4" fill="white"/>
<rect x="40.967" y="132.936" width="158.126" height="71.4377" rx="4" fill="white"/>
<rect x="127.655" y="49.458" width="71.4377" height="71.4377" rx="4" fill="white"/>
</g>
<g filter="url(#filter2_d_531_20301)">
<rect x="214.344" y="49.458" width="232.774" height="154.915" rx="4" fill="white"/>
</g>
<rect x="228.792" y="83.9731" width="63.411" height="71.4377" rx="4" fill="#F8FAFB"/>
<rect x="300.23" y="83.9731" width="62.6083" height="71.4377" rx="4" fill="#F8FAFB"/>
<rect x="370.865" y="83.9731" width="63.411" height="71.4377" rx="4" fill="#F8FAFB"/>
<rect x="133.274" y="57.4849" width="59.9952" height="12.8427" rx="4" fill="#F8FAFB"/>
<rect x="127.357" y="143.101" width="59.9952" height="8.9861" rx="4" fill="#F8FAFB"/>
<rect x="133.274" y="77.5518" width="59.9952" height="12.8427" rx="4" fill="#F8FAFB"/>
<rect x="127.357" y="157.142" width="36.339" height="8.9861" rx="4" fill="#F8FAFB"/>
<rect x="133.274" y="97.6182" width="59.9952" height="12.8427" rx="4" fill="#F8FAFB"/>
<rect x="127.357" y="171.182" width="46.5891" height="8.9861" rx="4" fill="#F8FAFB"/>
<rect x="127.357" y="185.223" width="59.9952" height="8.9861" rx="4" fill="#F8FAFB"/>
<rect x="227.187" y="59.8926" width="211.102" height="16.8561" rx="4" fill="#DCE9EE"/>
<rect x="47.1922" y="55.9116" width="61.8056" height="16.8561" rx="4" fill="#F8FAFB"/>
<g filter="url(#filter3_d_531_20301)">
<rect x="40.967" y="216.414" width="232.774" height="81.0697" rx="4" fill="white"/>
</g>
<g filter="url(#filter4_d_531_20301)">
<rect x="293.808" y="216.414" width="153.31" height="81.0697" rx="4" fill="white"/>
</g>
<path d="M106.938 104.864C107.214 107.056 105.404 108.856 103.194 108.856C97.8872 108.856 87.8245 108.856 76.2845 108.856C64.7445 108.856 54.6819 108.856 49.3747 108.856C47.1655 108.856 45.3552 107.056 45.6306 104.864C47.566 89.4602 60.5524 77.5518 76.2845 77.5518C92.0167 77.5518 105.003 89.4602 106.938 104.864Z" fill="#DCE9EE"/>
<rect x="48.9937" y="289.457" width="36.9228" height="10.4347" rx="4" transform="rotate(-90 48.9937 289.457)" fill="#DCE9EE"/>
<rect x="66.6525" y="289.457" width="51.3709" height="10.4347" rx="4" transform="rotate(-90 66.6525 289.457)" fill="#DCE9EE"/>
<rect x="84.3112" y="289.457" width="36.9228" height="10.4347" rx="4" transform="rotate(-90 84.3112 289.457)" fill="#DCE9EE"/>
<rect x="101.97" y="289.457" width="61.003" height="10.4347" rx="4" transform="rotate(-90 101.97 289.457)" fill="#DCE9EE"/>
<rect x="117.221" y="289.457" width="61.003" height="10.4347" rx="4" transform="rotate(-90 117.221 289.457)" fill="#DCE9EE"/>
<rect x="134.879" y="289.457" width="16.8561" height="10.4347" rx="4" transform="rotate(-90 134.879 289.457)" fill="#DCE9EE"/>
<rect x="150.13" y="289.457" width="47.3576" height="10.4347" rx="4" transform="rotate(-90 150.13 289.457)" fill="#DCE9EE"/>
<rect x="167.789" y="289.457" width="32.9095" height="10.4347" rx="4" transform="rotate(-90 167.789 289.457)" fill="#DCE9EE"/>
<rect x="185.448" y="289.457" width="41.7389" height="10.4347" rx="4" transform="rotate(-90 185.448 289.457)" fill="#DCE9EE"/>
<rect x="203.107" y="289.457" width="57.7923" height="10.4347" rx="4" transform="rotate(-90 203.107 289.457)" fill="#DCE9EE"/>
<rect x="218.357" y="289.457" width="36.9228" height="10.4347" rx="4" transform="rotate(-90 218.357 289.457)" fill="#DCE9EE"/>
<rect x="233.608" y="289.457" width="29.6988" height="10.4347" rx="4" transform="rotate(-90 233.608 289.457)" fill="#DCE9EE"/>
<rect width="18.976" height="10.993" rx="4" transform="matrix(4.37114e-08 -1 -1 -4.37114e-08 434.276 195.844)" fill="#DCE9EE"/>
<rect width="26.4013" height="10.993" rx="4" transform="matrix(4.60499e-08 -1 -1 -4.14917e-08 415.672 195.844)" fill="#DCE9EE"/>
<rect width="18.976" height="10.993" rx="4" transform="matrix(4.60499e-08 -1 -1 -4.14917e-08 397.069 195.844)" fill="#DCE9EE"/>
<rect width="31.3516" height="10.993" rx="4" transform="matrix(4.60499e-08 -1 -1 -4.14917e-08 378.465 195.844)" fill="#DCE9EE"/>
<rect width="31.3516" height="10.993" rx="4" transform="matrix(4.60499e-08 -1 -1 -4.14917e-08 362.399 195.844)" fill="#DCE9EE"/>
<rect width="8.66294" height="10.993" rx="4" transform="matrix(4.60499e-08 -1 -1 -4.14917e-08 343.795 195.844)" fill="#DCE9EE"/>
<rect width="24.3387" height="10.993" rx="4" transform="matrix(4.60499e-08 -1 -1 -4.14917e-08 327.729 195.844)" fill="#DCE9EE"/>
<rect width="16.9134" height="10.993" rx="4" transform="matrix(4.60499e-08 -1 -1 -4.14917e-08 309.125 195.844)" fill="#DCE9EE"/>
<rect width="21.4511" height="10.993" rx="4" transform="matrix(4.60499e-08 -1 -1 -4.14917e-08 290.522 195.844)" fill="#DCE9EE"/>
<rect width="29.7015" height="10.993" rx="4" transform="matrix(4.60499e-08 -1 -1 -4.14917e-08 271.918 195.844)" fill="#DCE9EE"/>
<rect width="18.976" height="10.993" rx="4" transform="matrix(4.60499e-08 -1 -1 -4.14917e-08 255.852 195.844)" fill="#DCE9EE"/>
<rect width="15.2633" height="10.993" rx="4" transform="matrix(4.60499e-08 -1 -1 -4.14917e-08 239.785 195.844)" fill="#DCE9EE"/>
<rect x="251.267" y="289.457" width="29.6988" height="10.4347" rx="4" transform="rotate(-90 251.267 289.457)" fill="#DCE9EE"/>
<path d="M387.857 262.394L388.539 262.774L388.742 262.766L390.436 262.29L390.629 262.797L390.493 263.225L390.127 263.463L389.211 263.415L387.901 262.758L387.857 262.394Z" fill="#DCE9EE"/>
<path d="M390.913 256.912L391.059 257.388L392.708 257.506L392.823 256.53L393.142 256.388L393.229 256.031L392.708 256.15L392.129 256.865L390.913 256.912Z" fill="#DCE9EE"/>
<path d="M394.278 251.731L394.544 253.435L395.206 253.554L395.268 253.86L394.793 254.185L395.678 254.768L397.398 254.262L397.535 253.664L398.617 253.111L399.033 251.832L399.342 251.559L399.021 251.103L400.068 250.573L399.934 250.42L399.451 250.445L399.407 250.809L398.758 250.803L398.746 250.318L398.537 250.114L398.186 250.375L398.196 250.615L397.666 250.779L396.687 250.728L395.416 251.816L394.278 251.731Z" fill="#DCE9EE"/>
<path d="M375.858 249.368V249.998L376.079 250.338L376.238 250.323L376.51 249.917L376.352 249.735L376.29 249.285L376.079 249.125L375.858 249.368Z" fill="#DCE9EE"/>
<path d="M386.85 249.386L387.653 250.241L387.417 250.467L386.848 250.386L386.142 249.869L386.18 249.53L386.85 249.386Z" fill="#DCE9EE"/>
<path d="M373.281 269.458L373.852 271.199L373.838 271.749L373.004 272.481L372.879 273.672L376.091 273.695L377.135 274.004L377.996 273.912L377.494 273.398L377.496 271.93L378.483 271.896V271.323L377.682 271.296L377.521 269.94L377.183 269.943L377.001 269.809L376.802 269.818L376.538 270.236H375.521L375.285 270.042L375.355 269.767L375.077 269.435L373.281 269.458Z" fill="#DCE9EE"/>
<path d="M372.935 268.983L373.226 269.292L373.603 269L373.493 268.698L373.399 268.693L372.935 268.983Z" fill="#DCE9EE"/>
<path d="M342.641 277.865L342.965 278.113L341.732 279.611L341.299 280.003L341.449 281.713L342.401 282.658L341.601 283.798L340.995 284.012H340.303L340.497 284.902L339.415 285.205L339.674 285.954L339.025 287.646L339.826 288.181L339.393 289.053L338.657 289.998L339.046 290.657L338.095 290.781L337.315 289.998L337.185 287.557L335.973 283.412L336.34 281.963L335.56 280.11L336.079 277.705L336.556 277.242L336.438 276.89L337.051 276.433L338.416 276.51L339.179 277.176L340.06 277.188L340.964 277.639L340.698 278.148L340.762 278.662L342.041 278.613L342.641 277.865Z" fill="#DCE9EE"/>
<path d="M339.872 291.618L339.915 292.4L340.651 292.347L341.279 292.008L340.218 291.83L339.872 291.618Z" fill="#DCE9EE"/>
<path d="M371.945 246.682L371.836 246.867L371.93 246.998L372.32 246.932H372.651L373.01 247.181L373.775 247.068L374.337 246.794L374.481 246.61L374.459 246.372L373.954 246.063L373.276 246.068L373.219 246.383L372.507 246.667L371.945 246.682Z" fill="#DCE9EE"/>
<path d="M418.879 279.202L418.821 282.672L418.168 283.063L418.109 283.405L418.999 283.893L421.196 283.551H422.324L422.739 283.061L425.232 282.67L427.012 283.111L426.893 283.697L427.13 284.284L428.496 284.088L428.554 284.381L427.664 284.918L427.96 285.114L428.612 284.918L428.435 286.531L429.682 287.313L430.394 287.118L430.751 287.411L432.828 287.166L434.787 284.575L435.5 284.429L436.924 282.278L437.28 280.422L436.39 279.493L436.746 279.298L436.033 277.489L435.262 277.049L435.381 274.606L434.668 274.166L434.491 272.797H434.134L432.946 276.022L432.294 276.072L430.81 274.849L431.642 273.041L430.099 272.796L428.377 273.187L427.902 274.311L427.131 274.457L427.072 273.675L423.927 275.239L423.986 275.826L423.51 276.363H422.322L419.769 277.242L418.879 279.202Z" fill="#DCE9EE"/>
<path d="M429.682 288.537L429.385 289.515L429.444 290.198L430.334 290.149L431.343 288.879L429.682 288.537Z" fill="#DCE9EE"/>
<path d="M387.132 249.089L386.963 249.324L387.751 250.169L388.026 250.096L388.477 250.483L388.673 249.805L389.164 249.869L389.143 249.675L388.338 249.098L388.184 249.437L387.132 249.089Z" fill="#DCE9EE"/>
<path d="M374.315 247.888L374.253 247.972L375.376 248.918L375.788 248.423L375.773 248.228L375.413 247.871L374.315 247.888Z" fill="#DCE9EE"/>
<path d="M407.904 255.294L407.685 255.618L408.253 256.501L408.27 257.191L408.374 257.375L409.042 257.385L409.419 257.088L409.694 257.223L409.749 257.643L409.968 257.531L409.982 256.995L409.798 256.977L409.682 256.522L409.217 256.508L409.102 256.255L409.386 255.945L409.391 255.791H408.564L407.904 255.294Z" fill="#DCE9EE"/>
<path d="M368.763 244.823L368.656 245.042L369.807 245.663L369.884 245.671L369.957 245.498L370.119 245.404L369.86 245.168H369.683L369.44 244.942L368.763 244.823Z" fill="#DCE9EE"/>
<path d="M366.919 260.923L367.528 260.884L368.527 262.037L367.6 262.609L366.929 262.468L366.027 262.478L365.881 262.909L365.125 262.939L364.918 262.709L365.186 262.006L366.919 260.923Z" fill="#DCE9EE"/>
<path d="M377.099 248.36L377.126 249.041L377.407 249.52L378.463 249.535L378.938 249.26L379.405 249.108L379.291 248.673L379.396 248.441L379.159 248.34L378.832 248.362L378.576 248.572L377.502 248.579L377.099 248.36Z" fill="#DCE9EE"/>
<path d="M381.243 268.023L381.958 268.011L381.772 268.522L381.591 268.65H381.371L381.213 268.304L381.243 268.023Z" fill="#DCE9EE"/>
<path d="M368.278 264.37H368.632L368.653 263.547L369.1 263.015L369.08 262.089L368.673 262.081L367.976 262.526L368.267 262.98L368.278 264.37Z" fill="#DCE9EE"/>
<path d="M421.991 264.337L421.509 264.814L421.904 264.915L422.126 264.661L421.991 264.337Z" fill="#DCE9EE"/>
<path d="M334.818 271.657L336.195 271.166L336.649 271.201L336.953 272.235L339.051 272.805L339.397 273.679L340.262 273.768L340.63 274.516L340.37 275.192L338.963 275.281L338.445 276.368L337.341 276.35L336.994 276.297L336.357 276.803L336.042 276.778L334.96 274.728L335.259 274.362L335.365 272.913L335.097 272.05L334.818 271.657Z" fill="#DCE9EE"/>
<path d="M344.108 280.688L345.153 279.045L345.192 277.664L347.142 276.636H348.235L349.093 275.448L349.249 273.167L348.898 272.558L350.965 271.016L351.044 269.313L348.235 268.19L344.842 267.323L343.242 267.194L343.672 266.456L343.556 265.332L343.206 265.238L342.689 266.078L342.418 266.355L341.722 266.103L339.381 266.778L338.602 265.975L338.727 265.137L337.991 265.749L337.179 265.391L337.096 265.486L337.098 265.777L337.799 266.084L336.747 266.991L336.082 266.985L335.41 266.426L334.649 266.445L334.555 267.11L334.991 267.543L334.476 268.892L333.874 268.93L332.915 269.426L332.681 270.398L333.512 271.125L333.665 270.984L334.249 270.856L334.747 271.542L336.174 271.042L336.728 271.068L337.11 272.171L339.146 272.699L339.497 273.579L340.364 273.664L340.777 274.505L340.498 275.253L340.862 275.644L340.809 276.226L341.786 276.151L342.681 277.075L342.611 277.724L343.141 278.091L341.87 279.664L344.108 280.688Z" fill="#DCE9EE"/>
<path d="M331.622 256.117L331.412 256.064L331.395 256.396L331.654 256.61L331.832 256.396L331.622 256.117ZM332.042 256.637L331.751 256.77L332.025 257.089L332.171 256.929L332.042 256.637ZM332.981 256.876L332.673 256.863L332.705 257.023L332.931 257.289L333.125 257.115L332.981 256.876ZM332.835 256.558L332.333 256.384L332.237 255.971L332.43 255.904L332.624 256.224L332.818 256.344L332.835 256.558ZM332.35 255.718L332.09 255.665L332.042 255.398L331.768 255.319L331.945 255.173L332.268 255.266L332.511 255.386L332.35 255.718Z" fill="#DCE9EE"/>
<path d="M407.876 254.607L408.135 254.897L409.011 254.902L408.923 254.505L407.876 254.607Z" fill="#DCE9EE"/>
<path d="M376.609 276.912L376.969 277.002L376.919 277.843L377.288 277.884L378.138 277.258L379.159 277.348L379.43 276.787L380.721 275.823L379.17 274.364L379.15 274.125L378.979 274.084L378.509 274.438L377.288 274.463L377.117 275.707L376.637 275.797L376.609 276.912Z" fill="#DCE9EE"/>
<path d="M376.969 243.424L377.22 243.762L377.119 244.031L377.136 244.245L377.228 244.5L377.747 244.26L378.391 244.273L378.843 244.425H379.989L380.324 243.77L380.525 243.522V243.357L379.805 242.53L379.169 242.324L378.651 242.276L378.199 242.393L378.216 242.765L377.589 243.413L376.969 243.424Z" fill="#DCE9EE"/>
<path d="M325.758 259.299L325.75 259.798H325.891L326.369 259.068H326.044L325.758 259.299Z" fill="#DCE9EE"/>
<path d="M318.006 227.343L318.339 227.754L318.506 228.304L319.339 228.475L319.923 227.961L320.424 228.167L321.84 228.269L322.841 227.926L323.008 229.058H323.592V228.578L324.176 228.612L325.635 230.019L326.593 230.499L326.093 231.151L326.302 231.322L328.175 231.631L328.216 232.318L328.717 232.386L328.842 231.356L329.634 231.186L330.217 231.906L331.467 232.386L332.093 232.488L332.509 232.077L332.551 231.424L333.301 231.047L333.55 231.597L332.882 232.558L332.966 233.037L333.341 232.559L334.091 232.009L334.132 231.288L333.716 230.738L333.841 230.293L334.842 229.881L335.3 230.156L335.384 232.558L336.092 232.044L336.508 232.251L335.924 233.074L336.674 233.21L337.758 231.838L338.675 232.626L338.3 234.033L337.383 234.445L336.509 234.102L334.926 234.376L335.093 234.822L334.676 235.372L333.385 235.612L331.926 236.539L330.635 237.946L330.467 238.392L331.342 238.666L331.675 239.353L332.883 240.348L334.8 241.034L334.384 242.612L334.342 243.058L334.843 243.332L335.51 242.612L335.594 241.239L336.636 241.205L337.136 240.416L337.22 239.215L338.553 237.088L340.22 237.568L341.095 238.563L340.72 239.558L341.387 239.867L343.012 238.974L343.47 241.411L344.971 242.886L345.013 243.64L343.346 243.983L342.555 244.67L340.889 244.361L340.056 244.327L338.597 245.253L339.472 245.082L340.556 244.911L340.765 245.118L340.474 245.872L340.516 246.559L341.016 246.833L341.516 246.731L341.767 246.422H342.1L341.558 247.245L340.516 247.279L340.057 247.829H339.473L339.306 247.417L340.139 246.731L339.139 247.006L339.094 245.84L338.806 245.703L337.931 246.012L337.847 246.596H335.846L334.137 247.557L331.845 248.176L331.596 247.9L332.75 246.493L332.095 245.977L331.678 245.323L330.83 244.794L329.92 244.732L328.288 243.799L316.459 242.21L316.263 241.556L315.179 240.732V240.046L315.346 239.428L315.262 239.085L314.846 238.742L314.762 238.192L315.846 237.574L315.179 234.624L314.262 234.589L313.429 233.697L318.006 227.341L318.006 227.343Z" fill="#DCE9EE"/>
<path d="M313.925 238.246L313.641 238.691L313.74 239.007L313.925 239.102L313.882 239.23L313.682 239.277L313.739 239.746L313.953 239.922L314.124 239.77L313.91 239.314L314.037 238.95L314.35 238.61L314.122 238.294L313.925 238.246ZM314.866 240.917L314.61 240.999L315.079 241.445L315.193 241.973L315.664 242.383L316.062 242.324V241.785L315.578 241.539L314.866 240.917ZM340.531 229.66L340.235 229.905L340.494 230.241L341.719 230.363L340.939 229.69L340.531 229.66ZM325.619 225.597L325.656 226.146L324.321 227.277L324.656 228.193L325.619 227.98L326.176 227.307L327.585 226.879L328.735 226.817L327.844 226.023L327.399 226.298L327.065 226.206L326.879 225.87L326.471 225.534L325.619 225.597ZM327.363 223.978L327.067 224.406L328.514 224.834L329.033 224.192L329.255 224.621H329.627L330.331 223.979L329.477 223.796L329.143 223.583L328.698 223.949L327.363 223.978ZM329.886 224.834L328.736 225.23V225.535L330.22 225.993L329.885 226.298L330.108 226.695L331.035 226.358H331.815L332.186 226.846L332.817 226.327L332.668 225.837L332.149 225.99L332.076 225.379L332.335 225.013H332.076L331.667 225.227L331.482 225.348L331.594 225.776L331.298 225.959L330.853 225.929L330.741 225.379L329.886 224.834ZM331.406 223.886L331.294 224.191L331.999 224.466L332.517 224.221L332.48 224.038L331.406 223.886ZM331.962 223.367L331.443 223.52L331.48 223.733L332.629 223.672L332.593 223.458L331.962 223.367ZM334.448 223.886L334.374 224.099L334.188 224.313V224.618L334.893 224.526L335.634 225.046H335.894V224.527L335.152 223.854L334.448 223.886ZM336.34 224.497L336.636 224.772L336.377 225.138L336.563 225.535L337.379 225.168V224.894L336.897 224.436L336.34 224.497ZM337.416 223.795L337.453 224.283H338.455L338.714 224.466L338.677 224.679L337.787 224.771L338.418 225.474L339.271 225.595L340.457 225.168L338.751 223.059L338.232 223.334L338.269 223.7L337.675 223.517L337.416 223.795ZM328.773 227.247L327.364 227.552L326.548 228.133L326.621 228.774L328.105 229.14L327.77 229.752L326.695 229.202L326.399 229.66L327.103 230.056L327.066 230.698L328.142 230.942L329.44 230.881L329.662 230.544L330.626 231.43L331.294 231.247L331.406 230.636L331.887 230.911L331.961 230.3L331.367 229.995L331.404 228.071L330.885 227.735L330.33 228.346L328.773 227.247ZM333.299 228.591L332.817 228.408L332.557 228.682L333.076 229.355L333.113 229.996L334.226 229.446V228.652L334.634 228.316L334.226 228.071H333.558L333.299 228.591ZM335.673 228.316L334.893 228.835L335.079 229.477H335.561L335.783 229.14L336.118 229.415L336.452 229.385L337.342 228.774L335.673 228.316ZM335.597 227.307L335.412 227.612L336.228 227.857L336.451 227.582L335.597 227.307ZM335.116 226.146L334.299 226.238L333.817 226.604L334.707 226.634L334.448 227.184L334.634 227.429L334.893 227.398L335.524 226.574L335.116 226.146ZM336.526 225.933L336.081 226.055L336.154 226.543L336.895 226.939L336.932 227.244L336.71 227.428L336.822 228.039L339.678 228.802L340.457 229.015L341.237 228.465L340.31 227.854L339.457 228.037L338.271 227.946L337.826 227.579L337.714 226.572L336.972 226.267L336.526 225.933ZM338.861 229.11L338.045 229.048L337.081 229.353L336.562 229.933L336.711 231.521L338.306 231.583L339.826 232.194L340.902 233.202L341.719 233.172L341.496 234.118L340.755 235.125L339.939 235.43L339.344 235.339L339.048 235.125L338.604 235.613L338.789 236.102L339.42 236.132L340.2 235.826L340.867 237.232L342.537 238.118L343.686 236.927L342.722 235.645L343.279 235.125L344.059 236.195L345.468 235.187L345.208 234.729L344.244 234.974L343.577 233.476L344.208 232.622L342.946 231.523L342.242 231.919L341.574 230.728L340.166 230.882L339.794 229.446L338.645 230.087L338.533 230.881H337.903L337.976 230.179L338.861 229.11ZM339.344 226.208V226.483L338.528 226.636L338.751 226.94L339.678 227.245L340.717 227.337L341.458 227.765L342.199 227.428L341.68 227.001H342.348L342.756 226.634L343.758 226.512V226.329L343.201 226.024L343.275 225.688L344.832 225.901L347.133 225.169L346.279 224.955L346.502 224.711H348.282L348.578 224.466L344.979 223.427L344.126 223.182L343.199 223.732L342.16 223.03L341.603 222.999L341.491 223.581L340.787 223.061L339.97 223.275L340.119 223.611L341.344 223.825L341.27 224.313L341.938 224.649L343.571 224.313L343.608 224.771L342.273 225.29L341.456 224.771L340.715 224.832L341.456 225.688L341.085 225.841L340.528 225.445L340.12 225.658L340.491 226.238H341.122L340.973 226.787L340.454 226.726L339.787 226.145L339.344 226.208ZM336.039 234.615L335.331 235.342L335.288 236.143L335.906 235.852H336.657L337.188 236.252L337.675 235.924L336.039 234.615ZM344.656 244.076L342.888 245.459L343.066 245.787L345.23 246.442L345.54 246.006L345.363 245.278L344.655 245.351L344.257 244.987L344.919 244.442L344.656 244.076Z" fill="#DCE9EE"/>
<path d="M373.409 269.322L375.133 269.297L375.483 269.703L375.47 270.002L375.599 270.098H376.455L376.701 269.703H377.051L377.193 269.82L377.673 269.809L377.815 271.187L378.645 271.21V271.316L380.875 272.138L380.978 272.298H381.445L381.393 271.721L380.55 271.39L380.602 270.952L380.965 270.258L381.795 270.236L381.082 268.302L381.095 267.481L382.223 266.04L382.236 265.838L382.067 265.762L382.073 265.371L381.868 265.356L381.66 265.14L378.256 265.014L377.632 265.511L376.61 264.961L376.25 265.141L375.989 266.937L375.343 267.344L375.149 267.705L375.184 268.24L374.019 269.018L373.709 268.903L373.751 269.051L373.409 269.322Z" fill="#DCE9EE"/>
<path d="M374.459 264.993L375.239 265.682L375.547 265.357L376.037 265.373L376.142 265.056L376.624 264.81L377.625 265.373L378.201 264.905L380.442 264.986L378.364 263.233L378.643 263.091L378.682 262.782L378.21 262.601H377.517L376.401 263.505L376.363 263.876L375.478 263.853L375.449 264.012L374.872 263.964L374.352 264.771L374.459 264.993Z" fill="#DCE9EE"/>
<path d="M373.68 266.151L373.67 266.35L374.469 266.366L374.497 268.063L373.766 268.046L373.343 267.777L373.015 267.928L373 268.003L373.169 268.07L373.218 268.418L372.766 268.736L372.863 268.903L373.363 268.586H373.604L373.681 268.776L373.999 268.886L375.019 268.181L374.999 267.665L375.212 267.246L375.866 266.849L376.042 265.508L375.577 265.51L375.038 266.113L373.68 266.151Z" fill="#DCE9EE"/>
<path d="M370.653 246.581L369.924 247.216L369.939 247.28L370.238 247.203L370.508 247.51L370.963 247.379L371.278 247.578L371.407 247.518L371.795 247.021L371.696 246.944L371.313 246.936L371.127 246.626L370.653 246.581Z" fill="#DCE9EE"/>
<path d="M363.821 265.362L364.536 264.948L365.426 264.821L366.335 264.981L365.871 264.408L365.736 264.058L365.871 263.023L365.06 263.054L364.692 262.767L363.919 262.784L363.551 262.832L363.59 263.532L363.396 263.596L363.163 263.946L363.762 264.519L363.821 265.362Z" fill="#DCE9EE"/>
<path d="M339.223 290.976L338.508 292.259L339.741 292.365L339.763 291.511L339.223 290.976ZM338.98 290.775L338.443 291.26L338.378 291.83L337.339 291.349L336.235 290.049L335.91 289.585L336.365 289.104L336.322 288.498L335.803 288.32L335.392 288.072L335.479 287.733L336.019 287.608L336.128 285.649L335.285 285.257L334.734 275.059L334.876 274.857L335.954 276.887L336.298 276.893L336.411 277.217L335.952 277.67L335.425 280.114L336.175 281.995L335.828 283.42L337.049 287.609L337.179 290.059L338.053 290.886L338.98 290.775ZM335.415 285.65L335.199 285.916L335.308 286.38L335.524 286.398L335.632 285.81L335.415 285.65Z" fill="#DCE9EE"/>
<path d="M371.475 265.024L372.013 265.429L371.975 266.056L374.929 266L375.171 265.778L374.324 265.033L374.199 264.764L374.737 263.94L374.371 263.393L374.063 263.258V262.98L374.419 262.79L374.44 261.926L374.157 261.9L374.152 262.354L372.911 264.247L372.151 264.279L371.631 264.571L371.475 265.024Z" fill="#DCE9EE"/>
<path d="M403.693 243.941L403.115 245.131L402.316 245.096L401.474 246.602L402.189 247.345L400.717 249.007L399.961 248.903L399.456 249.422L399.581 249.734L400.17 249.768L400.464 250.322L401.053 250.426L402.862 252.33V253.3L403.745 253.749L404.712 253.612L405.932 254.2L407.404 254.546L408.118 254.476L408.918 254.406L410.599 253.507L411.146 253.576L411.355 253.982L411.819 254.096L412.45 254.857L412.03 255.619L412.283 256.138L412.997 256.346L413.122 256.969L413.964 257.039L414.089 256.727L415.309 256.208L416.065 256.242L416.948 257.037L417.537 256.83L417.915 256.864L418.084 257.246L418.378 257.28L418.798 256.796L420.48 256.276L421.994 254.787L422.499 253.368L422.457 252.433L421.826 252.329L422.204 251.983L422.12 251.429L420.522 250.114V249.457L420.984 248.972L421.446 248.799L421.488 248.417H420.31L420.099 248.937L419.552 248.833L418.879 248.245L419.299 247.345L419.888 246.826L420.435 246.86L420.351 247.655L420.646 247.863L421.36 247.275L421.613 247.241L421.529 246.791L422.202 246.133L422.707 246.168L423.001 245.406L423.346 245.257L423.382 244.783L423.047 244.496L423.018 243.747L423.663 243.713L423.621 241.781L423.169 242.002L423.002 242.497L422.248 242.496L420.061 241.491L418.482 239.935L416.879 239.921L416.471 240.211L416.99 241.182L416.809 242.093L416.164 242.311L415.8 242.288L415.773 243.189L416.152 243.259L416.825 243.017L417.707 243.363V243.709L417.076 243.743L416.571 244.643L416.109 244.677L414.47 246.442L412.747 247.065L411.569 247.134L410.771 246.685L409.635 247.17L408.415 246.858L408.121 246.2L406.061 246.097L404.969 244.643H404.507L404.135 243.969L403.693 243.941Z" fill="#DCE9EE"/>
<path d="M418.655 257.627L418.255 257.719L417.968 258.008L418.207 258.389L418.558 258.415L418.958 258.126L419.053 257.744L418.655 257.627Z" fill="#DCE9EE"/>
<path d="M333.985 261.675L333.64 261.646L331.361 263.182L331.12 263.722L330.809 263.75L330.948 264.944L330.153 266.536L331.016 267.134L332.122 267.191L332.882 268.102L333.986 268.131L333.951 268.813H334.364L334.812 267.562L334.397 267.135L334.501 266.34L335.364 266.282L335.26 264.434L333.326 263.923L332.878 262.927L333.985 261.675Z" fill="#DCE9EE"/>
<path d="M327.903 262.386L328.136 262.758L328.325 262.963L328.071 263.58L327.585 263.301L326.792 262.707V262.315L327.903 262.386Z" fill="#DCE9EE"/>
<path d="M328.484 257.182V257.356L329.374 257.37L329.794 257.17L329.859 257.317L330.732 257.49L331.508 258.063L331.331 258.263L331.363 258.49L332.01 258.623L332.657 258.383L332.948 258.144L332.528 257.97L330.362 256.931L329.603 256.864L328.484 257.182Z" fill="#DCE9EE"/>
<path d="M356.374 260.412L356.057 260.561L356.284 260.709L356.557 260.598L356.374 260.412ZM357.155 260.712L356.948 260.863L357.095 261.086L357.45 260.956L357.155 260.712ZM356.702 261.135L356.436 261.265L356.722 261.578L356.948 261.481L356.702 261.135Z" fill="#DCE9EE"/>
<path d="M382.415 252.113L382.62 252.235L381.983 252.728L381.678 252.72L381.452 252.59L381.482 252.348L381.944 252.324L382.415 252.113Z" fill="#DCE9EE"/>
<path d="M373.25 245.964H373.991L374.388 246.196L375.122 245.697L374.409 245.281L373.703 245.002L373.219 245.073L372.563 245.418L373.25 245.964Z" fill="#DCE9EE"/>
<path d="M370.357 243.642L370.954 243.563V243.218L371.455 243.151L371.729 243.377L372.018 243.403L372.47 243.243L372.873 243.336L373.228 243.587L373.276 244.529L373.631 244.915L373.164 244.968L372.389 245.366L372.455 245.499L373.148 246.029L373.099 246.294L372.455 246.56L371.858 246.573L371.712 246.825H371.406L371.261 246.56L370.728 246.453L370.712 246.015L370.443 245.893L370.465 245.599L370.386 245.389L370.002 245.101L370.083 244.649L370.501 244.489L370.357 243.642Z" fill="#DCE9EE"/>
<path d="M371.299 241.402L370.605 242.03L370.58 242.439L370.896 243.113L371.392 243.036L371.33 242.486L371.671 242.174L371.665 241.929L371.424 241.419L371.299 241.402ZM371.658 242.553L371.453 242.59V242.84L371.671 242.978L371.864 242.939L371.817 242.701L371.658 242.553ZM372.302 242.315L372.118 242.352L371.914 242.505L372.001 242.814L372.251 242.894L371.993 242.979L371.943 243.087H372.332L372.448 242.913L372.299 242.853L372.347 242.701L372.525 242.511L372.476 242.346L372.302 242.315Z" fill="#DCE9EE"/>
<path d="M387.144 261.915L387.049 262.375L387.711 262.366L387.721 261.691L387.479 261.569L387.144 261.915Z" fill="#DCE9EE"/>
<path d="M338.224 259.638L338.077 259.894L338.254 260.088L338.475 259.931L338.224 259.638Z" fill="#DCE9EE"/>
<path d="M335.554 259.031L334.669 258.558L334.11 258.396L333.998 259.27L334.11 259.262L334.257 259.493L334.45 259.311L335.01 259.19L335.497 259.274L335.554 259.031Z" fill="#DCE9EE"/>
<path d="M370.815 251.792L370.133 251.604L367.292 252.041L366.673 252.425L367.051 254.02L365.922 254.057L365.243 254.95L363.625 255.267L363.63 255.917L368.958 259.246L369.866 259.309L372.896 257.374L372.593 257.062L372.025 256.999L371.683 256.532V254.597L371.455 254.41L371.494 253.911L370.888 253.412L370.813 252.882L371.077 252.726L370.963 252.164L370.815 251.792Z" fill="#DCE9EE"/>
<path d="M330.048 266.606L329.257 267.008L329.2 267.605L329.041 267.8L329.539 268.191L329.323 268.384L329.374 268.876L330.265 269.05L331.615 267.744L331.612 267.289L330.964 267.255L330.048 266.606Z" fill="#DCE9EE"/>
<path d="M324.154 266.925L324.05 267.301L323.858 267.46L323.99 267.654L324.329 267.545L324.492 267.314L324.388 267.071L324.154 266.925Z" fill="#DCE9EE"/>
<path d="M378.158 240.331L377.221 240.303L376.627 240.6L376.619 240.82L377.004 241.117L378.2 241.282L378.158 240.331Z" fill="#DCE9EE"/>
<path d="M376.159 240.448L375.906 240.518L376.159 240.553L376.275 240.663L376.412 240.528L376.275 240.336L376.159 240.448ZM376.267 240.725L375.907 240.857L375.782 241.032L375.907 241.146L376.364 241.008L376.584 240.889L376.267 240.725Z" fill="#DCE9EE"/>
<path d="M378.854 253.92L379.301 253.93L380.171 254.127L380.584 254.137L381.096 253.787H381.335L381.771 253.984H382.321L382.42 253.978L382.768 254.796L382.866 255.06L382.959 255.455L382.794 255.553L382.512 255.437L382.185 254.568L381.891 254.55L381.869 254.845L382.065 255.356L383.633 256.942L383.666 257.623L383.21 258.054L378.92 258.014L378.854 253.92Z" fill="#DCE9EE"/>
<path d="M384.673 260.981L384.631 260.175L385.294 259.543L385.473 259.656L385.799 260.547L387.365 261.5L387.081 261.786L385.935 260.981L384.673 260.981Z" fill="#DCE9EE"/>
<path d="M366.546 248.717H364.414L363.984 248.558L363.777 248.57L363.526 248.997L363.615 249.436L364.43 249.497L364.533 249.777L364.179 251.411L364.194 251.704L364.77 251.96L365.436 251.996L366.768 251.729L367.419 251.059L367.434 250.377L368.588 249.524L368.647 249.146L367.596 249.134L366.546 248.717Z" fill="#DCE9EE"/>
<path d="M361.069 255.379L360.776 255.517L360.911 255.629L361.069 255.379ZM360.052 255.405L359.689 255.48L359.87 255.705H360.142L360.052 255.405ZM359.188 255.181L358.961 255.368L359.279 255.592L359.46 255.256L359.188 255.181ZM368.677 250.386L368.411 250.46L368.47 250.655H368.855L369.018 250.509L368.677 250.386Z" fill="#DCE9EE"/>
<path d="M383.465 263.313L384.683 261.098L385.892 261.103L386.965 261.865L386.889 262.492H387.721L387.806 262.87L389.151 263.527L389.981 263.562L388.403 264.947L386.237 265.492H385.7L384.743 264.825L384.365 264.695L383.633 263.813L383.149 263.819L383.092 263.414L383.465 263.313Z" fill="#DCE9EE"/>
<path d="M376.321 236.677L376.668 236.802L376.881 237.13L376.668 237.357L375.594 238.317L375.409 238.823L375.655 239.555L376.483 240.061L377.588 239.632L378.477 239.531L379.306 238.444L378.692 237.256L378.107 236.118L378.2 235.385L377.832 235.335L377.736 234.8L377.241 234.14L376.692 234.45L376.477 235.171L375.894 234.885L375.084 234.723L374.904 234.896L375.215 235.126L375.782 235.117L376.238 235.72L376.321 236.677Z" fill="#DCE9EE"/>
<path d="M343.055 290.167L342.616 290.128L342.177 290.368L342.495 290.65L343.055 290.167ZM343.494 289.987L343.348 290.368L342.933 290.669L342.959 290.768L343.666 290.547L343.959 290.246L343.494 289.987Z" fill="#DCE9EE"/>
<path d="M368.56 245.121L368.191 245.195L367.451 245.853L367.229 245.865L366.933 245.694L366.741 245.731L366.594 246.108L365.513 246.133L365.543 246.328L366.282 246.73L367.141 247.291L367.126 247.961L366.667 248.618L367.659 249.008L368.667 249.032L368.978 248.74L369.614 248.752L369.791 248.886L370.426 248.849L370.753 248.507L370.338 248.105L370.308 247.85L370.396 247.57L370.189 247.326L369.834 247.411L369.789 247.192L370.574 246.485V246.059L370.12 245.938L369.842 245.781L368.56 245.121Z" fill="#DCE9EE"/>
<path d="M342.082 264.686L343.061 265.184L342.549 266.015L342.363 266.207L341.82 265.951L341.835 265.055L342.082 264.686ZM393.15 275.701L392.768 275.721L392.744 275.993L392.998 276.036L393.379 275.89L393.15 275.701ZM388.666 271.863L388.793 272.094H388.997L389.099 271.801L388.666 271.863ZM338.726 260.342L338.548 260.476L338.68 260.694L338.931 260.634L338.726 260.342ZM371.476 248.985L371.15 249.253L371.12 249.496L371.386 249.63L371.49 249.618L371.548 249.264L371.476 248.985ZM337.811 259.431L337.56 259.516L337.648 259.698L337.942 259.54L337.884 259.491L337.811 259.431Z" fill="#DCE9EE"/>
<path d="M372.908 266.166L372.888 266.506L371.945 266.49L371.367 267.402L372.724 268.614L373.06 268.385L373.05 268.147L372.819 268.059V267.892L373.34 267.623L373.802 267.909L374.312 267.917L374.302 266.483L373.494 266.452L373.484 266.151L372.908 266.166Z" fill="#DCE9EE"/>
<path d="M366.171 241.071L365.865 241.45L365.987 241.602H366.693V241.855L366.509 242.057L366.631 242.587L367.03 243.219L367.335 243.8L367.826 243.952L368.04 244.255L368.01 244.533L367.703 244.685L367.673 244.81L367.887 244.911L367.703 245.114L367.273 245.265L366.445 245.19L365.156 245.67L364.726 245.494L365.954 244.913L365.8 244.837L365.155 244.787L365.554 244.307L365.616 243.902L366.137 243.852L366.045 243.068L365.431 243.044L365.247 242.867L365.277 242.286L364.909 242.311L365.277 241.301L365.953 240.896L366.171 241.071Z" fill="#DCE9EE"/>
<path d="M364.883 242.765L364.331 242.816L364.301 243.221L364.669 243.423L365.067 243.348L365.221 243.121L364.883 242.765Z" fill="#DCE9EE"/>
<path d="M384.464 248.602L385.011 249.186L385.694 249.443L386.114 249.441L386.835 249.281L387.016 249.05L384.883 248.398L384.464 248.602Z" fill="#DCE9EE"/>
<path d="M365.873 264.036L366.061 264.396L366.549 265.022L366.82 265.014L367.56 264.67L367.507 262.716L366.935 262.579L366.134 262.597L365.873 264.036Z" fill="#DCE9EE"/>
<path d="M345.261 227.535L345.033 227.832L345.443 228.167L345.261 228.502L345.853 229.133L346.581 228.947L347.536 228.874L348.629 229.84L349.356 231.438L348.766 232.442L349.584 232.33L350.04 232.553L350.084 233.037L349.084 233.073L349.63 233.519L350.312 233.631L348.811 235.266L348.629 236.27L348.947 237.088L348.72 237.572L349.13 238.612L349.902 239.319L350.13 239.282L350.63 239.17L350.675 239.765L350.993 240.137L351.583 240.1L352.039 238.724L353.404 237.349L355.451 236.68L356.725 235.378L357.315 235.602H358.543L359.544 234.784L360.772 234.375L360.909 233.744L360.136 233.186L359.454 233L359.089 232.219L359.954 231.81L361.319 232.405L361.774 231.996L361.047 231.662L362.594 229.951L362.321 229.208L361.593 229.171L361.866 228.502L362.776 228.167L364.641 226.829L364.096 226.346L362.003 226.495L360.911 227.388L361.548 226.235L360.82 226.086L360.41 226.681L359.82 226.272L358.182 226.421L358.637 225.826L361.321 225.752L360.638 225.009L357.727 224.563L356.545 224.712L356.59 225.196L355.362 224.861L355.407 224.526L354.542 224.675L354.359 225.047L355.269 225.307L354.314 225.865L353.631 225.233L352.676 225.011L352.539 225.605H351.583L351.219 224.974L349.718 224.788L348.899 225.123L348.854 225.568L347.809 225.456L347.171 225.679L347.216 226.2V226.46L346.034 226.646L345.488 226.349L345.124 226.831L345.669 227.315L346.807 227.203L346.897 227.501L346.032 227.836L345.26 227.535H345.261Z" fill="#DCE9EE"/>
<path d="M348.901 233.334L349.174 233.67L349.036 234.078H348.764L348.399 233.743L348.489 233.483L348.901 233.334ZM360.274 232.405L361.047 232.591L361.002 233.112L360.183 232.777L360.001 232.591L360.274 232.405Z" fill="#DCE9EE"/>
<path d="M359.608 261.478L359.587 261.63L360.744 261.616L360.803 261.475L360.778 261.333L360.445 261.444L359.608 261.478Z" fill="#DCE9EE"/>
<path d="M360.199 262.791L360.708 263.431L361.37 262.96L362.049 262.936L362.615 263.55L363.095 263.808L363.276 263.521L363.436 263.448L363.425 262.816L363.105 262.067L362.125 262.156L360.912 262.077L360.905 262.33L360.199 262.791Z" fill="#DCE9EE"/>
<path d="M371.311 265.452L371.234 265.722L371.464 265.824L371.686 265.689L371.609 265.411L371.311 265.452ZM372.005 266.174L371.995 266.364L372.754 266.395L372.744 266.181L372.005 266.174Z" fill="#DCE9EE"/>
<path d="M376.308 250.439L376.29 250.621L377.064 250.94L377.434 251.056L377.24 251.223L376.809 251.259L376.747 251.419L376.896 251.693L377.38 251.904L377.591 251.919L377.617 251.448L377.933 251.136L377.07 250.302L377.184 250.019L377.387 250.012L377.694 250.215L377.889 250.135L377.951 249.852L378.672 249.937L378.892 249.424L378.514 249.642L377.405 249.62L376.684 249.925L376.308 250.439Z" fill="#DCE9EE"/>
<path d="M377.989 252.215L378.262 252.222L378.376 252.36H378.773L379.036 252.281L379.125 252.369L378.95 252.557L378.175 252.579L378.034 252.427L377.885 252.355L377.989 252.215Z" fill="#DCE9EE"/>
<path d="M324.139 260.546L325.131 261.139L326.132 260.123L325.961 259.912L325.62 259.903V259.308L325.364 259.181L324.589 259.369L324.885 259.927L324.139 260.546Z" fill="#DCE9EE"/>
<path d="M359.894 262.324L360.128 262.703L360.786 262.241L360.792 262.099L360.018 262.007L359.894 262.324Z" fill="#DCE9EE"/>
<path d="M339.225 263.637L340.432 264.531L339.952 264.985L339.914 265.254L340.544 265.785L340.529 266.297L339.432 266.638L338.774 265.912L338.915 265.04L338.634 264.391L339.225 263.637Z" fill="#DCE9EE"/>
<path d="M326.259 260.171L327.804 260.123L328.263 260.569L327.977 260.515L327.427 260.534L326.707 261.087L326.399 261.646L326.197 261.558L326.195 260.946L325.75 260.702L326.259 260.171Z" fill="#DCE9EE"/>
<path d="M374.453 247.372L373.862 247.769H373.263L373.191 248.114L373.466 248.173L373.603 248.006L373.818 248.16L373.991 248.653L375.173 249.104L375.29 248.995L374.091 247.983L374.213 247.799L375.353 247.763L375.468 247.466L374.725 247.484L374.453 247.372Z" fill="#DCE9EE"/>
<path d="M333.504 258.339L334.08 258.388L334.011 258.965L333.954 259.269L333.284 259.239L333.165 259.385L332.959 259.373L332.886 259.057L333.593 259.009L333.55 258.681L333.225 258.572L333.504 258.339Z" fill="#DCE9EE"/>
<path d="M374.64 246.611L374.446 246.86L374.461 247.24L374.771 247.37L375.723 247.393L377.049 246.48L377.056 246.277L376.912 246.219L375.954 246.574L374.64 246.611Z" fill="#DCE9EE"/>
<path d="M412.406 264.107L412.36 264.419L413.496 265.979H413.826L416.194 269.215L417.141 269.293L417.614 268.162L416.856 267.773L416.714 267.149L412.406 264.107ZM423.624 268.419L424.002 268.798L423.756 269.367V269.475H424.314L424.512 268.053L424.693 268.094L425.021 269.393L425.333 269.462L425.629 268.906L425.333 268.067L425.087 267.702L425.86 267.241L425.679 267.037L424.94 267.43H424.742L424.381 266.996L424.497 266.806L425.106 266.563L426.026 266.793L426.305 266.779L426.996 266.251L426.717 266.022L426.076 266.427H425.664L425.04 266.184L424.597 266.198L424.103 266.847L423.791 267.971L423.624 268.419ZM427.749 265.875L427.436 266.497L427.93 267.025H428.094L428.308 266.673L428.423 266.552L428.21 266.362L427.897 266.267L427.749 265.875ZM428.72 267.919L428.046 268.041L427.848 268.217L428.012 268.447L428.455 268.312L428.734 268.177L429.146 268.447L429.327 268.325L428.999 268L428.72 267.919ZM417.541 269.679L417.081 269.936L417.179 270.151L418.643 270.422L419.383 270.53L419.695 270.801L420.533 270.855L420.928 271.126L421.289 271.058L421.619 270.814L421.01 270.585L420.485 270.22L419.12 269.949L417.541 269.679ZM422.326 270.855L421.965 271.018L422.178 271.208L422.704 271.046L422.326 270.855ZM422.949 270.734L423.015 270.991L423.393 271.072L423.54 270.923L423.376 270.719L422.949 270.734ZM423.855 271.411L423.394 271.466L423.806 271.75H424.134L423.855 271.411ZM423.985 270.964L423.886 271.126L424.626 271.22L425.201 270.95L424.873 270.869L424.348 270.991L424.15 270.855L423.985 270.964ZM426.403 271.059L425.548 271.642L425.63 271.791L425.991 271.736L426.418 271.41L427.256 271.316L427.092 271.086L426.403 271.059ZM430.717 267.083L430.02 267.148L429.572 267.415L429.757 267.722L430.517 267.837V267.952L430.037 268.27L430.27 268.933L430.502 268.946L430.703 268.295H431.074L431.23 268.932L433.042 270.157L433.088 271.114L433.707 271.662L433.986 271.65L434.048 268.27L432.996 267.672L432.004 268.22L431.647 268.399L431.058 268.093L431.043 267.124L430.717 267.083ZM422.31 265.041L421.924 266.228L419.828 266.806L419.2 266.204L418.896 266.273L419.465 268.066L420.316 268.144L421.452 268.496V268.847L421.972 268.769L422.73 267.912V267.211L423.157 266.509L423.63 266.586L423.061 265.612L422.974 264.984L422.31 265.041Z" fill="#DCE9EE"/>
<path d="M365.065 243.46L364.913 244.28L363.563 244.685H363.133L362.827 244.509V244.357L363.503 244.003L363.319 243.699L363.349 243.27L363.933 243.295L364.201 242.781L364.165 243.237L364.619 243.531L365.065 243.46Z" fill="#DCE9EE"/>
<path d="M382.767 253.237L382.503 253.924L382.846 254.749L383.239 253.544V253.286L382.767 253.237Z" fill="#DCE9EE"/>
<path d="M403.79 263.484L404.556 263.177L405.012 261.832L404.991 260.181L407.598 257.881V257.336L408.135 257.165L408.115 256.535L407.536 255.615L407.867 255.121L408.592 255.667L409.522 255.701V256.007L409.233 256.263L409.294 256.399L409.791 256.416L409.895 256.875H410.041L410.414 256.329L410.6 254.9L411.22 254.541L411.24 254.048L410.992 253.656L410.6 253.639L409.061 254.47L409.158 255.005L408.077 255.002L407.695 254.62L407.488 254.642L407.558 255.173L405.221 255.036L403.773 254.508L403.696 253.859L402.73 253.37L402.718 252.362L402.056 251.743L400.534 251.861L400.699 252.403L401.445 252.897L400.155 255.054L399.292 255.107L399.15 255.367L400 256.01L399.958 256.659L399.09 256.648L398.997 256.971L399.718 256.945L399.738 257.2L399.221 257.422L399.552 257.933L400.193 258.104L400.586 257.866L400.772 257.441L401 257.356L401.269 257.578L401.187 258.123L401.001 258.379L401.043 258.822L403.79 263.484Z" fill="#DCE9EE"/>
<path d="M385.944 251.455L385.683 252.509L384.602 253.245L384.671 253.592L385.727 253.651L387.408 254.769L388.348 254.747L388.373 254.489L388.718 254.187L389.2 254.41L389.264 254.36L388.331 253.347L387.89 253.325L387.303 252.709L387.42 252.255L387.599 252.236L387.661 252.035L386.861 251.347L385.944 251.455Z" fill="#DCE9EE"/>
<path d="M386.838 250.487L386.633 250.661L386.653 250.936L386.908 251.227L387.809 252.034L387.672 252.357H387.515L387.436 252.679L387.947 253.213L388.417 253.245L389.359 254.31L389.887 254.343L390.299 254.585L390.319 255.069L391.947 255.844H392.555L392.928 255.586L393.398 255.569L393.672 256.086L395.431 256.286L395.483 255.758L396.065 255.585L396.092 255.397L395.628 254.88L394.596 254.202L395.138 253.798L395.1 253.621L394.42 253.535L394.133 251.661L394.099 251.231L392.257 250.655L391.441 250.805L390.984 251.263L390.579 251.241L390.462 251.322L389.56 251.274L388.422 250.596L387.999 250.218L387.805 250.256L387.455 250.582L386.838 250.487Z" fill="#DCE9EE"/>
<path d="M359.519 236.728L359.192 236.576L358.75 236.804L358.37 237.091L358.38 237.251L358.872 237.302L358.842 237.589L358.668 237.733L358.71 237.826L359.202 237.852V238.316L359.909 238.417L360.329 238.612L360.801 238.628L361.611 238.299L362.236 237.624L362.247 237.167L361.867 236.904L361.549 236.684L361.405 236.769L361.189 236.997L360.943 236.971L360.697 236.751L360.379 236.776L359.918 237.089L359.64 237.333L359.486 237.224L359.475 236.953L359.629 236.869L359.519 236.728Z" fill="#DCE9EE"/>
<path d="M370.546 247.621L370.443 247.835L370.471 248.069L370.871 248.45L371.5 248.433L372.888 249.751L373.755 249.956L374.267 250.351L374.389 251.252L374.663 251.121L374.901 250.63L374.842 250.277L375.249 250.247L375.308 250.047L374.162 249.599L373.074 248.726L372.641 248.203L372.535 247.707L373.089 247.599L372.947 247.272L372.608 247.038L372.315 247.027L371.907 247.119L371.522 247.559L371.289 247.685L370.929 247.504L370.546 247.621Z" fill="#DCE9EE"/>
<path d="M373.921 251.18L373.678 251.074L372.85 251.18L372.878 251.364L373.623 251.67L373.735 251.77L373.931 251.793L373.921 251.18ZM371.431 249.863L370.988 250.046L371.047 250.753L371.402 250.802L371.668 250.594V249.924L371.431 249.863Z" fill="#DCE9EE"/>
<path d="M331.508 258.915L330.926 259.035V259.168L331.266 259.328H331.622L331.848 259.114L331.508 258.915Z" fill="#DCE9EE"/>
<path d="M383.366 253.609L382.955 254.782L382.936 254.961H383.584L384.309 254.438L384.327 254.24L384.031 253.993L384.561 253.634L384.484 253.3L384.339 253.327L383.897 253.586L383.366 253.609Z" fill="#DCE9EE"/>
<path d="M425.916 250.278L425.643 250.502L425.755 250.818L425.994 250.832L426.155 251.517L426.347 251.688L426.683 251.438L426.712 250.683L426.325 250.347L425.916 250.278ZM427.342 249.645L426.827 249.986L426.713 250.416L427.064 250.614L427.572 250.179L427.643 249.694L427.342 249.645ZM426.747 248.987L425.93 249.752V250.119L426.434 250.07L427.225 249.502L427.753 249.422L427.882 249.545L427.885 249.921L428.018 250.119H428.261L428.602 249.778L428.746 249.329L429.434 249.316L430.106 248.657L429.755 247.563L429.594 246.983L429.946 246.747L429.146 245.76L428.963 245.642L428.6 245.76L428.507 246.169V246.498L428.699 246.683L428.763 247.552L428.268 248.053L427.98 247.908L427.756 248.316L427.707 248.698L427.883 248.922L427.771 249.093L427.403 248.843H427.147L426.923 248.948L426.747 248.987ZM428.124 243.035L427.869 243.219L427.997 243.614L428.221 243.799L428.205 244.405L427.917 244.496L427.693 244.905L428.349 245.642L428.78 245.523L428.861 245.338L428.397 244.997L428.685 244.693L428.989 244.732L429.653 245.097L429.724 244.688L430.04 244.217L430.481 243.852L430.004 243.674L429.821 243.389L429.582 243.52L429.375 243.731L428.926 243.651L428.463 243.401L428.124 243.035ZM430.538 242.626L430.09 243.14L430.121 243.39L430.346 243.311L430.873 242.771L430.538 242.626ZM431.13 241.875L430.97 242.231L430.987 242.467L431.259 242.322L431.515 241.901V241.744L431.13 241.875Z" fill="#DCE9EE"/>
<path d="M383.689 265.331L384.135 266.04L383.6 266.955L383.531 267.232L386.196 268.579L387.022 267.518L386.604 267.241L386.596 265.843L387.119 265.376L386.284 265.602L385.654 265.609L384.667 264.929L384.356 264.819L383.779 264.863L383.677 265.003L383.689 265.331Z" fill="#DCE9EE"/>
<path d="M398.074 247.925L398.022 248.271L398.064 248.485L399.519 248.884L398.241 249.305L398.096 249.206L397.82 249.351L397.833 249.43L397.98 249.485L398.877 249.504L399.332 249.392L399.917 248.791L400.647 248.894L401.529 247.896L399.17 247.634L398.844 248.28L398.432 247.919L398.074 247.925Z" fill="#DCE9EE"/>
<path d="M415.418 261.633L416.102 262.23L417.375 261.459L417.487 260.242L416.829 260.613L416.488 260.457L416.024 260.406L415.765 260.257L415.639 260.263L415.3 260.718L415.355 260.929L415.7 261.086L415.658 261.514L415.418 261.633Z" fill="#DCE9EE"/>
<path d="M388.183 271.444L388.26 271.652L388.59 271.695L388.718 271.423L388.183 271.444Z" fill="#DCE9EE"/>
<path d="M421.741 247.25L422.049 247.355L422.143 248.236L422.754 248.264L423.329 247.714L423.13 247.568L423.154 246.978L423.682 246.455L423.413 246.059L423.588 245.894L423.685 245.485L423.379 245.371L423.118 245.479L422.795 246.28L422.273 246.243L421.669 246.826L421.741 247.25Z" fill="#DCE9EE"/>
<path d="M423.424 247.787L424.458 248.476L424.635 249.143L424.599 249.501L424.094 249.966L423.659 249.985L423.165 249.114L422.977 248.698L423.177 248.573L423.13 248.399L422.884 248.309L423.424 247.787Z" fill="#DCE9EE"/>
<path d="M389.12 254.482L388.743 254.315L388.482 254.53L388.511 254.959L389.118 255.149L389.12 254.482Z" fill="#DCE9EE"/>
<path d="M388.016 246.477L388.702 246.238L389.468 246.216L389.521 247.173H389.073L388.73 247.63L389.178 248.238L389.839 248.543L389.899 248.892L390.142 248.826L390.366 248.609L390.736 248.674L390.921 248.979H391.396V248.588L391.105 247.892L390.973 247.328L391.817 247.023L392.954 247.175L393.666 247.761L395.277 247.631L396.176 248.675L397.232 248.718L397.523 248.327L397.893 248.261L397.945 247.827L398.499 247.804L398.79 248.088L399.081 247.523L401.589 247.806L402.011 247.349L401.298 246.632L402.248 244.936L403.014 244.98L403.543 243.937L402.487 243.849L401.88 243.371L400.207 243.529L398.052 241.827L397.292 242.378L394.989 241.524L392.163 242.654L392.084 243.458L392.745 244.089L391.457 244.683L389.785 244.653L389.436 244.233L388.125 244.174L386.884 244.827L386.857 245.718L388.016 246.477Z" fill="#DCE9EE"/>
<path d="M414.579 256.637L414.174 256.805L413.838 257.606L414.4 258.191L414.306 258.838L414.4 258.869L415.336 258.498L416.59 259.644L416.56 260.365L416.833 260.486L417.507 260.039L417.451 259.685L415.505 258.174L415.524 257.943L415.767 257.805L415.598 257.419L414.793 257.311L414.579 256.637Z" fill="#DCE9EE"/>
<path d="M382.915 252.468L382.925 252.735L382.788 253.14L383.26 253.173L383.29 252.599L382.915 252.468Z" fill="#DCE9EE"/>
<path d="M338.711 260.889L338.592 261.095L338.784 261.265L339.035 261.155L338.711 260.889Z" fill="#DCE9EE"/>
<path d="M405.39 262.806L405.432 263.177L405.474 263.448L405.228 263.482L405.352 264.091L405.721 264.26L406.295 263.99L406.131 263.348L406.173 263.112L405.64 262.707L405.39 262.806Z" fill="#DCE9EE"/>
<path d="M361.83 264.328L363.667 265.332L363.623 264.572L363.067 264.037L362.525 263.645L361.83 264.328Z" fill="#DCE9EE"/>
<path d="M379.771 278.848L380.281 278.527L380.522 278.535L380.813 278.832L380.783 279.129L380.293 279.276V279.391L379.753 279.367L379.622 279.046L379.771 278.848Z" fill="#DCE9EE"/>
<path d="M376.141 242.218L375.726 242.276L375.759 242.596L376.408 242.636L376.654 242.8L376.719 243.087L376.919 243.315L377.513 243.294L378.081 242.702L378.048 242.351L376.977 242.214L376.141 242.218Z" fill="#DCE9EE"/>
<path d="M370.002 245.753L370.15 245.86L370.32 245.873L370.357 245.599L370.308 245.445L370.072 245.537L370.002 245.753Z" fill="#DCE9EE"/>
<path d="M378.208 241.385L376.977 241.221L376.767 241.667L376.412 241.754L376.227 241.568L376.041 241.282L375.839 241.402L375.726 241.898V242.168L376.16 242.109L377.062 242.122L378.15 242.287L378.585 242.183L378.56 241.784L378.208 241.385Z" fill="#DCE9EE"/>
<path d="M371.848 254.6L372.109 254.564L372.186 254.072H372.316L372.85 253.356L374.167 253.669L374.526 254.126L375.821 254.61L376.495 254.377L376.429 254.145L376.135 253.912L376.168 253.751L376.647 253.42H377.594L377.953 253.814L378.715 253.904L378.813 258.947L378.248 258.93L374.832 257.478L374.462 257.649L373.058 257.362L372.677 256.95L372.122 256.887L371.839 256.475L371.848 254.6Z" fill="#DCE9EE"/>
<path d="M366.534 252.446H364.602L364.224 253.133L363.352 253.476L362.632 255.067L361.231 255.754L359.262 258.405L361.193 258.373L361.269 257.594H361.761V256.533H363.466L363.504 255.16L365.133 254.849L365.816 253.943L366.876 253.912L366.534 252.446Z" fill="#DCE9EE"/>
<path d="M378.657 246.353L379.176 247.005L379.132 247.374L379.318 247.381L379.758 246.772L379.229 246.236L378.93 246.135L378.657 246.353Z" fill="#DCE9EE"/>
<path d="M375.665 248.773L375.42 249.056L375.49 249.23L375.781 249.273L376.01 249.019L375.665 248.773Z" fill="#DCE9EE"/>
<path d="M390.627 271.675L390.271 272.367L389.66 273.247L388.591 273.309L388.133 273.75L388.209 275.092L387.547 275.721L387.624 276.791L388.184 277.314L388.847 277.252L389.509 276.853L389.357 276.223L390.885 274.063L390.579 273.791L390.885 273.268L391.216 273.351L391.318 273.142L391.012 272.072L390.833 271.632L390.627 271.675Z" fill="#DCE9EE"/>
<path d="M377.012 249.128L376.449 249.28L376.476 249.671L376.608 249.809L377.277 249.555L377.012 249.128Z" fill="#DCE9EE"/>
<path d="M361.711 261.136L362.226 260.848L365.091 260.834L364.428 257.069L365.184 257.051L368.843 259.333L369.334 259.39L369.149 260.659L366.848 260.83L365.073 261.913L364.75 262.654L363.517 262.697L363.203 261.957L362.258 262.012L362.294 261.77L361.711 261.136Z" fill="#DCE9EE"/>
<path d="M413.571 262.204L413.107 261.597L413.443 261.211L413.125 260.734L412.826 260.688L412.769 259.887L412.321 259.177L412.19 259.346L411.89 259.762L411.515 259.809L411.328 259.608L411.234 259.068L410.953 258.636L409.809 257.754L410.09 257.602L410.142 256.964L410.56 256.39L410.741 254.961L411.347 254.623L411.367 254.103L411.73 254.201L412.302 254.878L411.878 255.621L412.164 256.205L412.871 256.432L413 257.068L413.95 257.188L413.688 257.559L412.49 257.945L412.36 258.576L413.24 259.5L413.276 259.994L413.071 260.163L413.089 260.318L413.745 261.104L413.763 261.92L413.571 262.204Z" fill="#DCE9EE"/>
<path d="M404.262 243.955L405.236 242.9L406.405 243.341L407.2 243.515L408.173 242.785L407.513 242.387L407.948 241.885L409.246 242.26L409.696 242.863L410.509 242.88L410.934 242.622L411.808 242.593L411.999 242.859L413.453 242.919L414.373 242.152L415.646 242.261L415.573 243.306L416.13 243.409L416.814 243.155L417.539 243.448L417.522 243.596L416.996 243.608L416.449 244.546L416.024 244.58L414.371 246.346L412.683 246.954L411.627 247.021L410.751 246.559L409.63 247.048L408.526 246.768L408.213 246.113L406.122 245.993L405.051 244.51L404.531 244.482L404.262 243.955Z" fill="#DCE9EE"/>
<path d="M359.275 258.514L359.64 258.904L359.564 260.588L360.095 260.276L360.473 260.213L361.003 260.369L361.609 261.056L362.178 260.744L364.943 260.712L364.26 256.938L364.993 256.935L363.628 256.08L363.63 256.636L361.902 256.637L361.893 257.696L361.396 257.695L361.333 258.477L359.275 258.514Z" fill="#DCE9EE"/>
<path d="M373.949 252.199L373.67 252.246L373.68 252.499L373.931 252.567L374.043 252.491L373.949 252.199Z" fill="#DCE9EE"/>
<path d="M394.092 275.239L393.838 275.511L393.888 275.805L394.424 275.448L394.092 275.239Z" fill="#DCE9EE"/>
<path d="M401.351 264.543L401.401 264.9L401.68 264.983L401.731 264.669L401.351 264.543ZM401.707 265.298L401.682 265.738L401.886 265.821L402.065 265.528L401.707 265.298ZM401.759 266.158L401.58 266.304L401.785 266.451L402.039 266.304L401.759 266.158Z" fill="#DCE9EE"/>
<path d="M383.075 272.56L383.596 273.005L383.585 273.574L383.686 273.813L384.377 273.204L384.297 272.429L383.927 272.198L383.598 270.837L383.027 270.821L383.286 271.801L383.075 272.56Z" fill="#DCE9EE"/>
<path d="M314.538 251.51L315.346 253.589L314.969 253.762L315.011 254.174L315.722 254.621V255.449L316.6 256.137L316.224 254.105L315.722 252.761L315.847 251.832L316.265 251.866L316.433 252.176L316.266 252.968L318.441 256.446V257.686L320.197 259.373L322.121 260.096L322.916 259.717L324.045 260.475L324.715 259.924L324.422 259.303L325.384 259.063L325.677 259.201L325.969 258.96H326.429L327.265 257.754L326.847 257.444L325.216 257.754L324.84 258.65L323.878 258.788L322.749 258.409L322.247 257.101L322.626 255.45L321.85 255.055L321.48 253.47L321.171 253.362L320.605 253.831L319.956 253.548L319.702 252.492L317.131 252.271L315.802 251.455L314.537 251.509L314.538 251.51Z" fill="#DCE9EE"/>
<path d="M414.118 263.817L414.454 264.434L414.529 265.235L414.979 265.805L415.965 266.292L416.159 266.168L416.442 266.122L416.401 265.82L416.045 265.111L415.523 264.205L415.479 264.364L414.85 264.341L414.398 263.81L414.118 263.817Z" fill="#DCE9EE"/>
<path d="M419.376 266.206L419.881 266.683L421.819 266.135L422.202 264.926L423.065 264.875L423.854 264.408L422.831 263.798L422.596 263.463L422.091 264.225L422.277 264.662L421.969 265.028L421.388 264.906L419.981 265.749L420.018 266.237L419.376 266.206Z" fill="#DCE9EE"/>
<path d="M382.073 277.192L382.523 277.497L383.584 276.97L383.754 276.186V274.892L385.455 273.755L385.747 273.764L386.777 272.956L386.617 271.29L383.944 271.566L384.045 272.094L384.436 272.372L384.546 273.278L383.625 274.013L383.405 273.601L383.445 273.057L382.914 272.587L381.613 273.082L382.824 273.585L382.865 275.052L382.063 276.024L382.073 277.192Z" fill="#DCE9EE"/>
<path d="M374.608 278.379L375.169 278.412L375.498 278.684L376.28 278.692L376.47 276.88V275.693L376.971 275.611L377.161 274.366L378.433 274.334L378.882 274.029L378.121 274.005L377.091 274.119L375.98 273.79H372.858L372.938 274.515L373.979 275.767L373.798 276.409L373.808 276.747L374.608 278.379Z" fill="#DCE9EE"/>
<path d="M443.216 278.175L443.158 278.42L443.928 279.299L444.344 279.446L444.402 279.104L443.216 278.175Z" fill="#DCE9EE"/>
<path d="M368.642 261.979L369.069 261.97L369.454 261.499L370.099 261.404L370.787 261.748L372.254 261.782L373.388 261.404L373.815 261.104L373.847 260.711L374.638 260.059L374.847 258.619L374.327 257.727L372.995 257.462L369.913 259.425L369.477 259.391L369.289 260.754L367.717 260.882L368.642 261.979Z" fill="#DCE9EE"/>
<path d="M368.756 264.353L369.412 264.379L370.203 265.1L370.588 265.186L370.889 265.066L371.348 265.014L371.503 264.491L372.128 264.156L372.803 264.131L374.041 262.27L374.021 261.85L373.449 261.491L372.305 261.902L370.774 261.885L370.044 261.507L369.524 261.601L369.253 261.987L369.233 263.075L368.796 263.581L368.756 264.353Z" fill="#DCE9EE"/>
<path d="M327.963 260.626L328.33 260.686L328.341 261.3L327.915 262.296L326.766 262.203L326.51 261.723L326.851 261.14L327.498 260.649L327.963 260.626Z" fill="#DCE9EE"/>
<path d="M370.182 243.695L369.424 244L369.584 244.119L369.601 244.424L369.441 244.398L369.264 244.173L368.84 244.721L369.491 244.832L369.733 245.041L369.862 245.043L369.948 244.57L370.357 244.43L370.182 243.695Z" fill="#DCE9EE"/>
<path d="M377.772 234.654L378.11 234.452L378.08 234.225L377.865 234.124L377.896 233.846H378.08V233.694L377.282 233.518L376.086 233.619L375.964 234.048L375.687 233.973L375.503 233.72L374.919 233.745L374.857 234.224L374.581 234.325L374.428 234.072L373.2 234.881L373.446 235.108L372.986 235.284L371.942 236.976L371.574 237.179L371.604 237.331L371.972 237.482L371.88 237.81L371.266 237.784L371.081 237.608L370.683 237.987L370.438 238.139L370.376 238.493L370.162 238.594L369.609 238.696L369.333 239.404L369.517 240.566L369.731 241.097L369.977 241.299L370.529 241.274L371.327 240.643L371.633 240.214L371.726 240.845L372.248 240.087L372.278 237.964L372.703 237.746L372.83 236.574L374.118 235.058L374.732 234.881L375.008 234.604L375.928 234.78L376.388 235.007L376.542 234.375L377.31 233.996L377.772 234.654Z" fill="#DCE9EE"/>
<path d="M373.221 228.067L372.945 227.84L372.333 228.084H371.209L371.031 228.619L371.662 229.075L371.938 229.042L372.333 228.49L372.668 228.685L372.43 229.075L372.311 229.643L372.587 230L373.179 229.188L373.95 228.424L373.653 228.213L373.221 228.067ZM373.556 227.092L373.062 227.466L373.358 227.839H373.89L374.108 228.082L374.759 228.358L375.508 228.001L376.021 227.645L375.844 227.352L375.331 227.109L374.955 227.385L374.7 227.125L374.502 227.141L374.246 227.596L373.872 227.287L373.831 227.077L373.556 227.092ZM374.68 228.766L374.285 229.058L373.951 229.269L374.108 229.496L374.425 229.577L374.938 229.381L375.176 229.138L374.958 228.845L374.68 228.766Z" fill="#DCE9EE"/>
<path d="M403.826 253.852L403.902 254.436L405.254 254.936L407.42 255.067L407.338 254.639L405.891 254.314L404.663 253.716L403.826 253.852Z" fill="#DCE9EE"/>
<path d="M444.283 286.582L444.461 288.195L444.223 288.928L443.333 289.465L443.392 290.101V290.785L443.63 291.03L446.064 289.319V288.928H445.47L444.638 286.632L444.283 286.582ZM442.503 290.102L442.979 290.834L441.672 291.861L441.553 292.398L440.663 292.495L439.179 293.619L437.814 293.082L437.695 292.69L440.187 291.811L442.503 290.102Z" fill="#DCE9EE"/>
<path d="M391.644 259.086L392.881 258.503L393.1 257.649L392.829 257.521L392.941 256.605L393.177 256.493L393.43 256.817L394.934 257.46V257.817L393.112 260.008L392.274 260.031L391.644 259.086Z" fill="#DCE9EE"/>
<path d="M328.44 263.019L328.196 263.642L329.003 263.813L329.503 263.894L329.588 263.411L330.125 263.19L330.602 263.391L330.789 263.635L331.016 263.614L331.196 263.169L330.6 262.968L330.148 262.767L329.697 263.019L329.16 263.24L328.611 263.06L328.44 263.019Z" fill="#DCE9EE"/>
<path d="M329.183 268.475L328.859 268.743L328.881 269.171L331.715 273.393L334.657 274.943L335.112 274.32L335.221 272.949L334.984 272.094L334.182 270.99L333.705 271.114L333.49 271.31L332.538 270.418L332.775 269.367L333.88 268.779L333.792 268.227L332.668 268.191L332.084 267.39L331.76 267.301L331.782 267.783L330.333 269.189L329.251 268.976L329.183 268.475Z" fill="#DCE9EE"/>
<path d="M434.202 268.307L434.14 271.648L434.729 271.622L435.504 270.883L436.154 270.909L436.572 271.215L436.712 272.158L438.043 272.732L438.385 272.63V272.285L437.316 271.558L436.789 270.562L437.207 270.397L436.897 269.849L436.279 269.836L436.123 269.249L434.482 268.345L434.202 268.307Z" fill="#DCE9EE"/>
<path d="M439.243 269.228L439.084 269.258L438.987 269.61L438.683 269.772L437.767 269.903L437.804 270.185L438.768 270.145L439.379 269.833L439.342 269.29L439.243 269.228ZM438.84 268.404L438.692 268.575L439.497 269.158L439.608 269.499L439.827 269.479L439.852 269.128L439.607 268.947L438.84 268.404Z" fill="#DCE9EE"/>
<path d="M423.597 261.367L423.453 261.592L423.373 261.868L422.573 262.697L422.622 262.868L422.958 262.829L423.997 261.88L423.597 261.367ZM424.892 261.052L424.875 261.736L425.179 261.987L425.291 262.473L425.595 262.526L425.739 262.223L425.5 262.078L425.436 261.222L424.892 261.052ZM425.757 261.315L425.74 261.921L425.915 262.157L426.219 261.868L426.139 261.341L425.757 261.315ZM425.947 260.787L426.252 261.117L426.395 261.433H426.668L426.62 260.893L426.315 260.722L425.947 260.787ZM426.54 262.026L426.603 262.421L426.043 262.79L425.579 262.83L425.084 263.265L425.1 263.463L425.564 263.344L425.884 263.174L426.156 263.739L426.636 264.016L426.829 263.962L427.004 263.791L426.621 263.475L426.846 263.331L427.101 263.501L427.277 263.265L427.101 262.975L427.07 262.33L426.54 262.026ZM423.933 258.009L423.502 258.259L423.453 259.05L424.126 260.116L424.351 260.261L424.638 260.102L425.133 260.168L425.229 260.524L425.596 260.55L425.772 260.353L425.548 260.103L425.275 259.892L424.7 259.84L424.395 259.432L424.747 258.997L424.779 258.615L424.539 258.129L423.933 258.009ZM424.157 260.367L424.284 260.736L424.508 260.855L424.669 260.684L424.413 260.394L424.157 260.367Z" fill="#DCE9EE"/>
<path d="M395.785 254.847L396.22 255.375L396.178 255.647L395.6 255.834L395.557 256.277H396.22L396.448 256.124H397.709L398.847 256.942L398.993 256.55H399.841L399.861 256.056L398.993 255.375L399.179 255.001L400.069 254.95L401.268 252.906L400.606 252.481L400.358 251.766L401.971 251.647L401.019 250.54L400.512 250.428L400.305 250.633L400.15 250.642L399.197 251.136L399.509 251.562L399.158 251.869L398.722 253.18L397.647 253.742L397.501 254.356L395.785 254.847Z" fill="#DCE9EE"/>
<path d="M377.103 244.583L377.244 244.796L377.278 245.023L377.161 245.243L376.894 245.664L376.668 245.748L376.374 245.643L376.199 245.65L375.772 245.782L375.287 245.664L374.501 245.209L373.731 244.871L373.421 244.485L373.363 243.576L373.965 243.148L374.751 242.935L375.008 242.913L375.069 243.072L375.403 243.181L376.325 243.196L376.61 243.189L377.078 243.775L376.961 244.016L377.012 244.299L377.102 244.582L377.103 244.583Z" fill="#DCE9EE"/>
<path d="M336.882 259.115L336.44 258.994L336.086 259.176L336.263 259.345L336.867 259.417L336.882 259.115Z" fill="#DCE9EE"/>
<path d="M363.63 249.57L363.526 250.753L363.23 250.972L363.26 251.105L363.467 251.386L363.334 251.727L363.556 251.789L364.075 251.74L364.045 251.398L364.385 249.813L364.311 249.594L363.63 249.57Z" fill="#DCE9EE"/>
<path d="M359.824 253.012L359.643 253.2L359.824 253.387L360.097 253.275L359.824 253.012ZM353.878 250.36L353.651 250.548L354.058 250.735L354.104 250.474L353.878 250.36ZM355.104 250.248L354.832 250.397L355.059 250.546L355.422 250.471L355.104 250.248ZM355.285 250.772L355.15 251.071L355.331 251.258L355.558 251.11L355.285 250.772ZM356.374 251.369L356.284 251.557L356.419 251.669L356.782 251.481L356.374 251.369Z" fill="#DCE9EE"/>
<path d="M340.347 275.31L340.715 275.638L340.671 276.333L341.732 276.279L342.533 277.117L342.468 277.865L341.95 278.506L340.889 278.542L340.845 278.185L341.148 277.597L340.109 277.063H339.244L338.595 276.492L339.067 275.39L340.347 275.31Z" fill="#DCE9EE"/>
<path d="M390.682 256.102L390.595 256.651L390.853 256.811L391.087 256.793L391.174 256.103L390.971 255.984L390.682 256.102Z" fill="#DCE9EE"/>
<path d="M377.223 246.338L377.179 246.54L376.211 247.199L377.02 248.17L377.539 248.467H378.473L378.781 248.256L379.194 248.213L379.502 248.364L380.047 247.857L379.942 247.603L379.388 247.487L379.01 247.472L379.028 247.037L378.526 246.391L377.223 246.338Z" fill="#DCE9EE"/>
<path d="M376.114 247.287L375.771 247.497H375.604L375.49 247.787L375.895 248.171L375.922 248.476L375.751 248.673L376.345 249.179L376.987 249.019L376.934 248.273L376.114 247.287Z" fill="#DCE9EE"/>
<path d="M428.382 230.661L428.676 231.492L429.265 231.63L429.854 230.868L429.518 230.349L429.643 229.899H430.526L430.315 230.245L430.399 231.492L429.137 234.054L429.263 234.608L429.221 235.543L431.575 238.347L432.037 238.451L432.079 236.166L432.541 235.82L432.035 234.921L432.455 234.539L431.53 233.536L431.025 233.57L430.858 231.909L432.161 231.631L432.245 231.146L432.918 231.008L433.296 231.286L433.757 229.763L434.556 228.655L435.186 228.378L435.733 228.412V227.893L434.85 227.754L433.63 226.923L434.22 226.37L433.714 225.434L434.134 225.088L434.64 225.642L435.901 226.023L437.288 226.127L437.457 225.643L436.743 225.055L437.541 224.156L435.732 223.636L435.27 224.397L434.681 223.774L431.361 222.839L428.207 223.289L427.745 223.496V223.704L428.418 223.982L428.334 224.639L427.114 224.224L424.424 225.089L423.962 224.294H422.112L421.27 225.021L418.285 224.468L415.553 224.917L415.217 225.609L415.637 225.713L415.595 226.232L412.947 226.474L413.116 227.166L410.676 226.82L411.265 225.921L408.784 225.817L408.995 226.752L408.197 227.064L407.525 226.544L404.793 226.926L403.742 227.721L403.7 228.205L403.027 228.24L402.943 227.686L405.088 226.163V225.124L403.701 224.812L401.893 225.296L401.137 224.673H400.8L400.38 225.364L400.716 225.676L398.318 226.75L396.259 228.031L394.997 229.45V230.038L396.342 230.488L395.67 230.903L394.241 230.488L393.652 230.903L392.769 230.072L392.6 230.384L393.567 232.876L393.819 232.946L394.492 232.668L394.828 232.876V233.326L394.197 233.118L393.819 233.36L394.072 233.81L393.861 234.987L392.558 235.091L392.475 234.71L393.231 234.329L393.4 233.29L392.558 232.39L392.264 230.833L390.919 230.659L390.794 231.213L391.046 231.49L390.499 231.871L390.71 232.911L391.508 233.188L391.677 233.949L390.877 233.534L388.818 233.222L388.565 233.776L386.925 234.26L386.672 233.914L384.527 234.883L384.486 235.541L383.644 235.645L383.897 235.161V234.677L383.055 234.435L382.508 234.609L382.97 235.336L383.306 235.82V236.201L382.675 236.098L382.55 235.994L381.919 236.547L382.255 237.032L380.826 236.997L381.288 237.483L381.163 237.69H380.407L379.859 237.378L379.734 236.513L378.851 236.235V235.89L380.702 236.202L381.711 236.271L382.131 235.752L381.752 235.198L379.062 234.333L378.134 234.521L377.816 234.744L377.915 235.257L378.31 235.313L378.218 236.119L379.436 238.457L378.555 239.597L378.495 239.854L378.942 240.111L378.538 240.329L378.271 240.333L378.321 241.338L378.691 241.766L378.696 242.181L379.169 242.217L379.893 242.442L380.66 243.304L380.668 243.53L380.419 243.879L380.991 243.853L381.548 243.984L382.302 244.855L384.155 244.993L384.075 246.03L383.436 246.477L383.568 246.652L382.937 247.205L382.77 247.725L383.148 248.175L384.367 248.521L384.873 248.279L388.11 249.282L388.236 249.005L387.563 248.485V247.828L387.143 247.724L387.227 247.17L387.899 246.513L386.694 245.774L386.777 244.748L388.067 244.055L389.581 244.124L389.834 244.506L391.39 244.575L392.526 244.056L391.936 243.537L392.062 242.567L395.005 241.39L397.268 242.224L398.024 241.67L400.252 243.401L401.934 243.263L402.523 243.747L404.121 243.885L405.172 242.708L406.517 243.193L407.231 243.297L407.945 242.778L407.314 242.432L407.862 241.74L409.418 242.156L409.753 242.71L410.426 242.744L410.846 242.502L411.982 242.468L412.107 242.71L413.41 242.779L414.293 242.018L416.102 242.191L416.649 242.018L416.816 241.186L416.269 240.183L416.816 239.802H418.54L420.179 241.394L422.281 242.363H422.911L422.995 241.948L423.751 241.566L423.835 243.817L423.163 243.851V244.404L423.54 244.786L423.47 245.281L423.75 245.375L423.919 245.029L424.171 245.099L424.339 245.237L425.095 245.099L425.851 243.298L425.935 241.048L424.967 239.247L423.748 238.036L423.159 238.106V238.487L421.73 238.037L422.277 237.068L422.739 234.506L424.673 234.022L425.598 233.538H426.607L426.353 233.815L426.606 234.162L427.489 233.4L427.994 233.434L427.91 232.984L427.11 232.846L427.658 231.219L428.381 230.662L428.382 230.661Z" fill="#DCE9EE"/>
<path d="M375.748 242.701L375.497 243.08L376.4 243.087H376.583L376.549 242.873L376.408 242.738L375.748 242.701ZM432.074 238.741L431.867 238.951L431.884 239.281L432.076 239.267L432.395 238.806L432.074 238.741ZM438.975 225.938L438.58 226.149L438.487 226.417L438.673 226.589L439.091 226.474L439.509 226.589L439.741 226.647L439.718 226.015L438.975 225.938ZM383.186 225.993L383.473 226.087L383.271 226.372V226.775L382.839 226.989H382.379L382.12 226.728L382.148 226.443L382.35 226.229H382.754L383.186 225.993ZM384.28 225.732V226.016L384.567 226.206L384.97 226.183L385.317 225.922V225.732H385L384.741 225.803L384.539 225.613L384.28 225.732ZM385.922 225.756L386.125 226.112L386.528 226.135L386.816 226.041L386.673 225.709L386.298 225.637L385.922 225.756ZM387.564 225.282L387.247 225.234L386.96 225.472L387.103 225.686L387.191 226.018L387.565 225.781L387.652 225.52L387.564 225.282ZM389.321 227.796L389.233 228.128L388.571 228.603L387.159 228.864L386.006 230.429L385.803 230.881L386.956 231.119L387.129 230.55L387.475 229.672L388.368 229.292L389.117 228.817L389.664 228.628H389.952V227.988L389.321 227.796ZM385.605 231.259L386.383 231.331L386.642 232.066L387.305 232.635L387.074 233.015H386.671L386.296 232.659L385.461 232.636L385.115 232.256V231.995L385.634 231.876L385.605 231.259ZM397.762 223.171L397.387 222.981H396.956L396.869 223.195L396.409 223.408L396.062 223.502L396.005 223.787L396.812 223.835L397.762 223.171ZM398.654 223.242L398.452 223.598L398.049 223.574L397.414 223.954L397.242 224.429H397.645L397.876 224.12L398.423 224.452L398.942 224.262L399.317 224.001L399.173 223.598L398.97 223.313L398.654 223.242ZM399.491 223.503L399.693 224.168L400.009 224.784L400.356 224.287L401.018 224.168V223.812L400.587 223.551L399.491 223.503ZM415.297 222.44L415.747 222.749L416.066 222.641L416.16 222.207L415.504 221.837L415.072 222.069L414.022 222.147V222.534L412.914 222.549V223.182L414.209 223.97L414.547 223.768L414.472 223.212L415.298 223.042L415.129 222.78L414.83 222.533L415.297 222.44ZM416.498 222.069L416.798 222.533L417.962 222.425L418.282 222.084L418.206 221.791L417.887 221.682L417.587 221.868L416.724 222.023L416.498 222.069ZM416.423 223.877L415.84 223.754L415.505 224.048L415.354 224.449L416.142 224.388L416.743 224.141L416.423 223.877ZM431.511 221.204L431.023 221.081L430.461 221.25L430.18 221.59L430.537 221.977L431.475 221.637L431.663 221.468L431.511 221.204ZM431.691 239.545V240.124L431.915 240.19L432.075 239.979V239.532L431.691 239.545ZM425.148 237.45L425.133 238.293L426.428 239.927L426.891 241.349L427.708 242.613L428.027 242.705L428.3 242.52L428.427 242.217L427.259 241.177L427.291 240.636L427.547 240.545L427.611 240.229L425.324 237.582L425.148 237.45ZM434.17 234.829L433.851 234.855L434.043 235.079L434.443 235.304L434.555 235.198L434.17 234.829ZM434.793 234.988L434.841 235.212L435.336 235.331L435.385 235.172L434.793 234.988ZM437.511 235.848L437.72 236.154L438.069 236.135L438.138 235.924L437.511 235.848ZM441.019 236.326L441.299 236.747L441.508 236.556V236.269L441.019 236.326Z" fill="#DCE9EE"/>
<path d="M381.513 267.16L381.983 267.514L381.963 267.893L381.234 267.905V267.487L381.513 267.16Z" fill="#DCE9EE"/>
<path d="M389.238 255.312L390.411 256.648L390.789 256.894L390.958 257.493L392.764 257.609L392.968 257.696L392.765 258.435L391.579 259.006L389.844 259.436L388.919 260.174L387.82 259.65L387.154 260.126L386.227 258.889L385.592 258.651L385.361 258.365V257.746L383.047 255.46L382.96 255.055H383.626L384.436 254.484L384.464 254.198L384.233 254.008L384.697 253.699L385.681 253.747L387.359 254.89L388.349 254.853L388.413 255.053L389.238 255.312Z" fill="#DCE9EE"/>
<path d="M440.329 269.841L440.536 270.312L440.902 270.604L441.013 270.523L440.976 270.211L440.561 269.8L440.329 269.841ZM441.341 270.544L441.366 270.855L441.598 271.036L441.818 270.925L441.622 270.593L441.341 270.544ZM441.633 271.318L441.438 271.489L441.645 271.8L441.889 271.861L441.877 271.65L441.633 271.318ZM442.11 271.137L442.281 271.479L442.61 271.8L442.793 271.559L442.548 271.218L442.11 271.137ZM442.965 271.65L443.062 272.072L443.295 272.333L443.49 272.002L442.965 271.65ZM443.233 272.594L443.148 272.715L443.429 273.017L443.625 273.027L443.502 272.634L443.233 272.594ZM442.61 273.196L442.317 273.307L442.573 273.598L442.793 273.497L442.61 273.196Z" fill="#DCE9EE"/>
<path d="M392.309 269.681L392.207 269.849L392.486 270.038L392.691 269.849L392.309 269.681ZM393.736 268.424L393.429 268.591L393.659 268.885H393.965L393.736 268.424ZM393.863 269.158L393.659 269.346L393.811 269.535L394.09 269.578L394.115 269.179L393.863 269.158Z" fill="#DCE9EE"/>
<path d="M378.851 262.748L378.358 262.51L377.908 261.784L377.933 261.109L378.557 260.67L378.587 259.053L378.998 259.062L378.951 258.164L383.268 258.195L383.885 257.687L385.217 259.427L384.487 260.13V261.203L383.597 262.767L383.396 263.131L382.678 262.29L382.154 262.835L381.562 262.967L379.638 262.808L378.799 263.052L378.851 262.748Z" fill="#DCE9EE"/>
<path d="M374.804 234.988L375.132 235.235H375.746L376.084 235.766L376.176 236.675L375.348 237.155V237.634L374.764 238.292L374.426 238.317L373.966 238.948L373.996 239.555L374.794 240.035L374.733 240.313L374.426 240.692L373.966 241.02L373.996 242.107L373.291 242.309L373.045 242.738H372.707L372.523 241.98L371.755 241.018L372.386 240.155L372.429 238.024L372.864 237.828L372.97 236.609L374.21 235.158L374.804 234.988Z" fill="#DCE9EE"/>
<path d="M374.933 241.221L374.58 241.449L374.757 241.784L375.07 241.535L374.933 241.221Z" fill="#DCE9EE"/>
<path d="M416.044 266.334L416.177 266.395L416.477 266.375L416.452 266.191L416.207 266.222L416.044 266.334Z" fill="#DCE9EE"/>
<path d="M374.315 246.938L373.89 247.146L373.098 247.288L373.256 247.662L373.812 247.668L374.324 247.318L374.315 246.938Z" fill="#DCE9EE"/>
<path d="M374.489 246.274L374.605 246.357L374.62 246.499L375.897 246.476L376.84 246.143L376.825 245.806L376.644 245.871L376.385 245.758L376.226 245.752L375.808 245.889L375.239 245.777L374.489 246.274Z" fill="#DCE9EE"/>
<path d="M360.786 263.5L361.731 264.247L362.405 263.578L361.984 263.038L361.403 263.086L360.786 263.5Z" fill="#DCE9EE"/>
<path d="M360.712 261.757L359.591 261.735L359.799 262.147L359.914 261.893L361.321 262.013L361.478 262.009L362.137 262.027L362.16 261.789L361.558 261.199L360.887 260.457L360.47 260.314L360.149 260.382L359.49 260.773L359.34 260.992L359.293 261.21L359.535 261.353L360.345 261.343L360.866 261.228L360.924 261.437L360.878 261.713L360.712 261.757Z" fill="#DCE9EE"/>
<path d="M390.572 262.258L391.303 262.029L391.562 262.156L391.534 262.687L390.86 264.256L387.211 267.449L386.788 267.212L386.759 265.864L387.308 265.348L388.473 265.055L390.181 263.581L390.628 263.255L390.753 262.779L390.572 262.258Z" fill="#DCE9EE"/>
<path d="M340.576 264.595L340.917 264.851L341.446 264.583L341.928 264.595L341.866 264.749L341.664 265.093L341.632 265.951L340.67 266.27L340.717 265.721L340.096 265.247L340.128 265.004L340.576 264.595Z" fill="#DCE9EE"/>
<path d="M383.34 263.22L382.945 263.362L383.07 263.924H383.562L384.23 264.716L383.694 264.772L383.557 264.975L383.543 265.269L381.937 265.246L381.773 265.042L380.651 264.99L378.59 263.256L378.795 263.155L379.67 262.939L381.585 263.059L382.237 262.939L382.669 262.465L383.34 263.22Z" fill="#DCE9EE"/>
<path d="M370.29 266.784L370.482 266.705L370.626 266.8L370.482 266.982L370.308 266.926L370.29 266.784ZM370.677 266.285L370.966 266.245L371.063 266.396L370.919 266.523L370.776 266.507L370.677 266.285Z" fill="#DCE9EE"/>
<path d="M325.272 261.195L326.058 261.515L326.046 261.008L325.643 260.807L325.272 261.195Z" fill="#DCE9EE"/>
<path d="M382.993 252.016L382.935 252.363L383.406 252.524L383.386 253.487L383.858 253.479L384.33 253.187L384.507 253.163L385.578 252.467L385.794 251.457L383.654 251.635L383.428 252.039L382.993 252.016Z" fill="#DCE9EE"/>
<path d="M382.023 277.291L381.603 277.348L381.422 277.752L381.743 277.991H382.133L382.463 277.604L382.023 277.291Z" fill="#DCE9EE"/>
<path d="M373.979 261.158L374.001 260.754L374.794 260.125L375.007 258.577L374.479 257.751L374.848 257.596L378.428 259.121L378.406 260.617L377.776 261.055V261.826L378.189 262.48H377.459L376.252 263.456L376.22 263.752L375.329 263.742L375.317 263.876L374.808 263.821L374.46 263.284L374.199 263.179L374.232 263.015L374.56 262.809V261.85L374.107 261.793L373.56 261.46L373.979 261.158Z" fill="#DCE9EE"/>
<path d="M367.694 264.61L368.142 264.396L368.132 262.981L367.841 262.595L367.654 262.724L367.694 264.61Z" fill="#DCE9EE"/>
<path d="M413.669 257.668L414.211 258.238V258.931L414.399 259.007L415.26 258.668L415.429 258.715L416.458 259.686L416.422 260.349L416.085 260.302L415.786 260.148L415.562 260.163L415.168 260.701L415.244 260.994L415.562 261.132L415.543 261.456L415.319 261.549L414.551 261.117V260.731L414.233 260.716L414.103 260.886L414.036 262.611L414.532 263.352L415.412 264.045L415.376 264.246L414.907 264.232L414.477 263.708H414.027L413.465 263.337L413.296 262.951L413.539 262.627L413.623 262.335L413.887 261.952L413.875 261.072L413.229 260.309L413.202 260.216L413.412 260.043L413.363 259.438L412.503 258.548L412.604 258.035L413.669 257.668Z" fill="#DCE9EE"/>
<path d="M396.966 249.652L397.654 248.955H397.913L398.003 249.11L397.685 249.299V249.455L397.894 249.578L398.9 249.627L399.228 249.512L399.377 249.536L399.477 249.799L400.074 249.848L400.374 250.365L400.284 250.521L400.165 250.529L400.047 250.332L399.787 250.316L399.339 250.365L399.309 250.71L398.86 250.685L398.881 250.25L398.553 249.988L398.054 250.324L398.065 250.546L397.626 250.669H397.367L397.387 249.906L396.966 249.652Z" fill="#DCE9EE"/>
<path d="M390.886 249.071L390.783 249.43H390.088V249.917L390.834 250.319L390.604 250.87V251.124L390.913 251.167L391.325 250.722L392.252 250.553L394.232 251.167L394.258 251.611L395.363 251.696L396.598 250.637L396.444 250.297L395.621 250.149L393.306 248.92L393.202 248.476H392.327L391.94 249.069H391.554L390.886 249.071Z" fill="#DCE9EE"/>
<path d="M370.988 251.77L371.913 251.465L372.217 251.626L372.229 251.823L372.087 251.975L372.108 252.244L372.251 252.307V252.791L372.087 253.015L372.108 253.159L372.729 253.338L372.229 253.974L372.033 253.964L372 254.475L371.782 254.503L371.596 254.368L371.64 253.849L371.031 253.365L370.954 252.944L371.248 252.755L370.988 251.77Z" fill="#DCE9EE"/>
<path d="M380.142 249.6L379.696 249.374L379.45 249.214L379.036 249.359L378.75 249.951L379.18 249.872L379.482 249.684L380.147 249.832L379.771 250.129L378.769 250.089L378.4 250.42V250.582L378.636 250.743V250.921L378.537 251.132L378.635 251.309L378.95 251.181L379.264 251.456L379.186 251.65L379.069 251.78L379.244 251.941L380.107 252.086L380.715 251.876V251.569L381.009 251.617L381.716 251.956L382.48 251.859L382.812 251.601L383.028 251.665V251.956H383.322L383.577 251.553L385.812 251.358L386.788 251.262L386.53 250.985L386.525 250.612L386.721 250.421L386.008 249.953L386.046 249.55H385.655L385.006 249.29L384.632 249.613L383.261 249.58L382.438 249.176L381.648 249.234L380.768 249.666L380.142 249.6Z" fill="#DCE9EE"/>
<path d="M338.754 262.358L338.577 262.492L338.384 262.517V262.711L338.739 262.978L338.886 262.783L338.975 262.565L338.944 262.383L338.754 262.358Z" fill="#DCE9EE"/>
<path d="M423.277 254.638L422.685 255.007L422.654 255.718L423.166 256.205L423.292 256.113L423.277 254.638Z" fill="#DCE9EE"/>
<path d="M383.898 271.444L386.568 271.177L385.911 270.138L385.876 269.143L386.089 268.667L383.308 267.24L382.437 267.357L382.134 267.54L382.107 267.958L381.911 268.536L381.707 268.734L381.414 268.756L381.958 270.246L382.89 270.695L383.702 270.711L383.898 271.444Z" fill="#DCE9EE"/>
<path d="M377.79 244.362L377.305 244.585L377.425 245.006L376.977 245.779L376.981 246.119L377.192 246.228L378.543 246.283L378.922 246.028L379.327 246.138L379.907 246.771L379.482 247.395L379.987 247.515L380.648 246.893L381.026 246.949L381.378 247.149L381.068 247.482L381.486 248.015H381.931L382.16 247.66L382.632 247.582L382.646 247.293L381.769 247.183L381.796 246.872H382.646L383.563 246.272L383.968 245.983L384.034 245.073L382.227 244.94L381.486 244.086L380.974 243.942L380.353 243.965L380.074 244.529L378.803 244.543L378.389 244.387L377.79 244.362Z" fill="#DCE9EE"/>
<path d="M381.593 267.049L382.1 267.437L382.418 267.272L383.278 267.157L383.425 267.169L383.48 266.902L383.966 266.068L383.558 265.374L382.234 265.381L382.226 265.667L382.403 265.806L382.376 266.092L381.593 267.049Z" fill="#DCE9EE"/>
<path d="M316.423 242.338L316.256 242.887L315.672 242.578H315.381L315.213 243.162L313.171 246.902L313.712 250.162L314.38 250.436L314.506 251.329H315.881L317.214 252.152L319.839 252.359L320.13 253.456L320.546 253.697L321.13 253.217L321.589 253.388L322.006 254.966L322.713 255.343L323.297 254.45L325.089 253.386L326.255 253.832L327.256 253.9L327.297 253.386L329.38 253.421L329.797 253.798L329.88 254.655L329.631 255.135L329.922 255.958H330.548L331.173 255.17L330.924 254.792L330.675 253.969L331.049 253.042L332.757 251.842L334.049 251.533L333.882 250.538L335.673 248.959L337.465 248.719L337.174 247.897L338.924 247.074V245.976L338.757 245.908L338.131 246.079L338.048 246.751L335.968 246.772L334.338 247.656L331.78 248.34L331.372 247.931L332.533 246.495L331.959 246.048L331.57 245.442L330.761 244.911L329.883 244.851L328.224 243.925L316.423 242.338Z" fill="#DCE9EE"/>
<path d="M303.107 227.983L303.687 228.868L304.058 228.8V228.493L303.107 227.983ZM299.844 235.764L299.815 236.176L300.176 236.107V235.924L299.844 235.764ZM299.288 235.947L298.566 236.245L298.678 236.565L298.955 236.382L299.511 236.176L299.288 235.947ZM296.285 236.336L295.785 236.244L295.702 236.428L295.757 236.77L296.285 236.336ZM295.228 236.314L294.755 236.154L294.587 236.405L294.893 236.657L295.228 236.314ZM307.113 226.827L305.709 227.099L305.999 228.391L307.526 228.731L307.608 229.003L305.338 229.582L304.058 231.315L304.511 233.151L305.254 233.559L305.833 233.117L305.999 233.389L305.296 234.069L302.571 235.089L300.836 235.429L300.794 235.939L304.799 234.988L306.451 234.613L307.978 233.083L309.671 232.165L308.804 233.355L309.755 233.457L311.366 232.879L311.655 233.831L312.769 234.034L313.925 234.952L314.007 235.631L313.842 235.801L314.047 236.446H314.337L314.379 235.358H314.708L314.79 238.043L315.617 237.465L315.038 234.677H314.172L313.221 233.692L317.887 227.231L313.263 224.274L308.102 225.09L307.896 226.383L309.01 226.926L308.597 227.811L307.113 226.827Z" fill="#DCE9EE"/>
<path d="M341.786 279.742L341.442 280.042L341.585 281.652L342.662 281.908L344.032 280.785L341.786 279.742Z" fill="#DCE9EE"/>
<path d="M396.754 250.639L397.269 250.661V249.941L396.781 249.708L397.604 248.86H397.939L398.273 249.179L399.148 248.904L397.938 248.565L397.892 248.36L397.604 248.417L397.322 248.819L396.102 248.787L395.207 247.752L393.634 247.879L392.885 247.272L391.848 247.129L391.095 247.379L391.532 248.565L391.536 248.965L391.854 248.97L392.244 248.363L393.282 248.374L393.435 248.84L395.659 250.046L396.518 250.207L396.754 250.639Z" fill="#DCE9EE"/>
<path d="M338.726 261.411L338.52 261.533L338.683 261.776L338.948 261.655L338.726 261.411ZM338.475 261.884L338.282 262.041L338.356 262.138H338.592L338.666 261.979L338.475 261.884Z" fill="#DCE9EE"/>
<path d="M333.438 262.514L333.511 262.869L334.055 263.009L334.179 262.357L334.752 261.872L335.326 262.422L336.646 262.716L337.764 262.524L338.525 263.291L339.099 263.585L338.47 264.368L338.681 264.962L338.321 265.326L337.948 265.581L337.14 265.249L336.954 265.402V265.875L337.545 266.104L336.675 266.873L336.101 266.835L335.524 266.317L335.402 264.367L333.431 263.817L333.073 262.96L333.438 262.514Z" fill="#DCE9EE"/>
<path d="M416.184 262.313L416.383 262.569L416.419 262.862L416.943 262.908L417.579 262.215L418.178 262.077L418.496 261.369L418.347 260.228L417.73 259.535L417.079 259.11L416.251 257.948L416.845 257.136L415.995 256.338L415.314 256.314L414.701 256.583L414.884 257.227L415.7 257.345L415.92 257.841L415.632 257.994L415.65 258.117L417.565 259.649L417.641 260.098L417.525 261.52L416.184 262.313Z" fill="#DCE9EE"/>
<path d="M445.597 274.997L445.39 275.224L445.477 275.479L445.58 275.537L445.77 275.337L445.597 274.997ZM445.7 275.693L445.717 275.877L445.941 275.935L446.097 275.864L445.941 275.664L445.7 275.693ZM446.028 277.342L445.925 277.47L446.08 277.612L446.339 277.541L446.028 277.342Z" fill="#DCE9EE"/>
<path d="M387.229 260.233L387.47 260.818V261.389L388.049 261.819L392.128 260.461L392.166 260.088L391.512 259.128L389.871 259.556L388.929 260.313L387.836 259.786L387.229 260.233Z" fill="#DCE9EE"/>
<path d="M391.852 261.657L392.208 261.983L392.69 261.745L392.864 261.697L392.643 261.522L392.219 261.624L391.852 261.657Z" fill="#DCE9EE"/>
<path d="M380.9 275.873L379.579 276.871L379.264 277.488L378.217 277.381L377.345 278.014L376.767 277.968L376.813 277.093L376.607 277.034L376.464 278.824L375.437 278.815L375.127 278.517L374.673 278.513L375.087 279.483L375.825 280.053L375.298 280.554L375.639 281.183L376.429 281.43L377.058 280.992L378.86 281.001L378.989 280.869L379.789 280.754L382.494 278.553L382.484 277.86L382.194 278.166H381.761L381.234 277.806L381.502 277.261L381.962 277.185L381.92 276.067L380.9 275.873ZM380.266 278.402L380.519 278.394L380.929 278.758L380.917 279.179L380.437 279.377L380.407 279.517L379.675 279.523L379.445 279.072L379.654 278.741L380.266 278.402Z" fill="#DCE9EE"/>
<path d="M377.619 273.285L378.15 273.886L378.971 273.928L379.262 274.059L380.122 274.067L380.863 273.219L382.934 272.461L383.115 271.794L382.874 270.838L381.794 270.335L381.072 270.376L380.713 271.027L380.723 271.323L381.573 271.661L381.623 272.395L380.893 272.428L380.712 272.181L378.681 271.472L378.621 272.017L377.66 272.041L377.619 273.285Z" fill="#DCE9EE"/>
<path d="M379.311 274.324L380.812 275.709L381.963 275.949L382.734 274.96L382.674 273.651L381.422 273.123L380.952 273.297L380.252 274.17L379.281 274.162L379.311 274.324Z" fill="#DCE9EE"/>
<path d="M84.3043 143.205C84.6114 141.018 86.6475 139.466 88.7748 140.062C102.878 144.01 112.234 157.88 110.142 172.783C107.862 189.026 92.8455 200.345 76.6026 198.065C61.6996 195.973 50.9418 183.159 51.0295 168.514C51.0427 166.305 53.0946 164.775 55.2822 165.082L76.7703 168.098C78.958 168.406 80.9805 166.881 81.2876 164.693L84.3043 143.205Z" fill="#F8FAFB"/>
<path d="M78.1793 159.832C78.6207 162.797 75.7658 165.176 72.9298 164.207L54.3935 157.874C53.6484 157.62 52.9497 157.166 52.6268 156.448C49.5636 149.636 63.8503 139.431 72.589 139.219C74.1638 139.18 75.3013 140.506 75.5333 142.064L78.1793 159.832Z" fill="#F8FAFB"/>
<g filter="url(#filter5_dd_531_20301)">
<rect x="5.30823" y="4.92236" width="217.925" height="80.2543" rx="4" fill="white"/>
</g>
<rect x="12.1082" y="16.5488" width="199.911" height="3.24121" rx="1.62061" fill="#F8FAFB"/>
<rect x="12.1082" y="27.3818" width="199.911" height="3.24121" rx="1.62061" fill="#F8FAFB"/>
<rect x="12.1082" y="38.2148" width="199.911" height="3.24121" rx="1.62061" fill="#F8FAFB"/>
<rect x="12.1082" y="49.0479" width="199.911" height="3.24121" rx="1.62061" fill="#F8FAFB"/>
<rect x="12.1082" y="59.8809" width="199.911" height="3.24121" rx="1.62061" fill="#F8FAFB"/>
<rect x="12.1082" y="70.7134" width="199.911" height="3.24121" rx="1.62061" fill="#F8FAFB"/>
<circle cx="22.522" cy="63.1215" r="2.55017" fill="#DCE9EE"/>
<circle cx="68.9784" cy="50.6683" r="2.55017" fill="#DCE9EE"/>
<circle cx="97.0718" cy="73.2635" r="2.55017" fill="#DCE9EE"/>
<circle cx="127.456" cy="45.2513" r="2.55017" fill="#DCE9EE"/>
<circle cx="176.272" cy="33.1732" r="2.55017" fill="#DCE9EE"/>
<circle cx="207.983" cy="22.4515" r="2.55017" fill="#DCE9EE"/>
<line x1="22.3928" y1="62.6391" x2="68.8492" y2="50.2116" stroke="#DCE9EE"/>
<line x1="96.7587" y1="73.6535" x2="68.6652" y2="51.0844" stroke="#DCE9EE"/>
<line x1="96.7329" y1="72.8961" x2="127.117" y2="44.8843" stroke="#DCE9EE"/>
<line x1="176.392" y1="33.6582" x2="127.576" y2="45.7368" stroke="#DCE9EE"/>
<line x1="176.112" y1="32.6992" x2="207.822" y2="21.9775" stroke="#DCE9EE"/>
<g filter="url(#filter6_dd_531_20301)">
<rect x="223.233" y="256.948" width="162.842" height="80.2543" rx="4" fill="white"/>
</g>
<rect x="228.315" y="268.574" width="149.381" height="3.24121" rx="1.62061" fill="#F8FAFB"/>
<rect x="228.315" y="279.407" width="149.381" height="3.24121" rx="1.62061" fill="#F8FAFB"/>
<rect x="228.315" y="290.24" width="149.381" height="3.24121" rx="1.62061" fill="#F8FAFB"/>
<rect x="228.315" y="301.073" width="149.381" height="3.24121" rx="1.62061" fill="#F8FAFB"/>
<rect x="228.315" y="311.906" width="149.381" height="3.24121" rx="1.62061" fill="#F8FAFB"/>
<rect x="228.315" y="322.739" width="149.381" height="3.24121" rx="1.62061" fill="#F8FAFB"/>
<circle cx="2.55017" cy="2.55017" r="2.55017" transform="matrix(1 0 0 -1 231.508 284.361)" fill="#DCE9EE"/>
<circle cx="264.252" cy="311.268" r="2.55017" fill="#DCE9EE"/>
<circle cx="2.55017" cy="2.55017" r="2.55017" transform="matrix(1 0 0 -1 277.965 296.815)" fill="#DCE9EE"/>
<circle cx="2.55017" cy="2.55017" r="2.55017" transform="matrix(1 0 0 -1 308.158 301.073)" fill="#DCE9EE"/>
<circle cx="2.55017" cy="2.55017" r="2.55017" transform="matrix(1 0 0 -1 365.363 296.169)" fill="#DCE9EE"/>
<circle cx="2.55017" cy="2.55017" r="2.55017" transform="matrix(1 0 0 -1 376.282 278.162)" fill="#DCE9EE"/>
<circle cx="2.55017" cy="2.55017" r="2.55017" transform="matrix(1 0 0 -1 306.058 274.22)" fill="#DCE9EE"/>
<circle cx="338.802" cy="321.409" r="2.55017" fill="#DCE9EE"/>
<circle cx="2.55017" cy="2.55017" r="2.55017" transform="matrix(1 0 0 -1 336.443 302.231)" fill="#DCE9EE"/>
<g filter="url(#filter7_dd_531_20301)">
<circle cx="2.55017" cy="2.55017" r="2.55017" transform="matrix(1 0 0 -1 390.066 289.665)" fill="#DCE9EE"/>
</g>
<g filter="url(#filter8_dd_531_20301)">
<circle cx="2.55017" cy="2.55017" r="2.55017" transform="matrix(1 0 0 -1 408.222 274.366)" fill="#DCE9EE"/>
</g>
<line y1="-0.5" x2="48.0899" y2="-0.5" transform="matrix(0.966032 0.258422 0.258422 -0.966032 234.059 281.811)" stroke="#DCE9EE"/>
<line x1="264.122" y1="310.785" x2="310.579" y2="298.358" stroke="#DCE9EE"/>
<line y1="-0.5" x2="36.0362" y2="-0.5" transform="matrix(-0.77959 0.62629 0.62629 0.77959 308.608 271.669)" stroke="#DCE9EE"/>
<line x1="338.488" y1="321.799" x2="310.395" y2="299.23" stroke="#DCE9EE"/>
<line y1="-0.5" x2="41.3265" y2="-0.5" transform="matrix(0.735232 0.677816 0.677816 -0.735232 308.608 271.669)" stroke="#DCE9EE"/>
<line x1="338.463" y1="321.042" x2="368.847" y2="293.03" stroke="#DCE9EE"/>
<line x1="379.26" y1="275.871" x2="368.341" y2="293.877" stroke="#DCE9EE"/>
<line x1="392.73" y1="287.602" x2="339.107" y2="300.168" stroke="#DCE9EE"/>
<g filter="url(#filter9_dd_531_20301)">
<line x1="392.294" y1="286.733" x2="410.45" y2="271.434" stroke="#DCE9EE"/>
</g>
<defs>
<filter id="filter0_d_531_20301" x="38.967" y="48.458" width="162.126" height="158.916" filterUnits="userSpaceOnUse" color-interpolation-filters="sRGB">
<feFlood flood-opacity="0" result="BackgroundImageFix"/>
<feColorMatrix in="SourceAlpha" type="matrix" values="0 0 0 0 0 0 0 0 0 0 0 0 0 0 0 0 0 0 127 0" result="hardAlpha"/>
<feOffset dy="1"/>
<feGaussianBlur stdDeviation="1"/>
<feComposite in2="hardAlpha" operator="out"/>
<feColorMatrix type="matrix" values="0 0 0 0 0 0 0 0 0 0 0 0 0 0 0 0 0 0 0.05 0"/>
<feBlend mode="normal" in2="BackgroundImageFix" result="effect1_dropShadow_531_20301"/>
<feBlend mode="normal" in="SourceGraphic" in2="effect1_dropShadow_531_20301" result="shape"/>
</filter>
<filter id="filter1_d_531_20301" x="38.967" y="48.458" width="162.126" height="158.916" filterUnits="userSpaceOnUse" color-interpolation-filters="sRGB">
<feFlood flood-opacity="0" result="BackgroundImageFix"/>
<feColorMatrix in="SourceAlpha" type="matrix" values="0 0 0 0 0 0 0 0 0 0 0 0 0 0 0 0 0 0 127 0" result="hardAlpha"/>
<feOffset dy="1"/>
<feGaussianBlur stdDeviation="1"/>
<feComposite in2="hardAlpha" operator="out"/>
<feColorMatrix type="matrix" values="0 0 0 0 0 0 0 0 0 0 0 0 0 0 0 0 0 0 0.05 0"/>
<feBlend mode="normal" in2="BackgroundImageFix" result="effect1_dropShadow_531_20301"/>
<feBlend mode="normal" in="SourceGraphic" in2="effect1_dropShadow_531_20301" result="shape"/>
</filter>
<filter id="filter2_d_531_20301" x="212.344" y="48.458" width="236.774" height="158.916" filterUnits="userSpaceOnUse" color-interpolation-filters="sRGB">
<feFlood flood-opacity="0" result="BackgroundImageFix"/>
<feColorMatrix in="SourceAlpha" type="matrix" values="0 0 0 0 0 0 0 0 0 0 0 0 0 0 0 0 0 0 127 0" result="hardAlpha"/>
<feOffset dy="1"/>
<feGaussianBlur stdDeviation="1"/>
<feComposite in2="hardAlpha" operator="out"/>
<feColorMatrix type="matrix" values="0 0 0 0 0 0 0 0 0 0 0 0 0 0 0 0 0 0 0.05 0"/>
<feBlend mode="normal" in2="BackgroundImageFix" result="effect1_dropShadow_531_20301"/>
<feBlend mode="normal" in="SourceGraphic" in2="effect1_dropShadow_531_20301" result="shape"/>
</filter>
<filter id="filter3_d_531_20301" x="38.967" y="215.414" width="236.774" height="85.0698" filterUnits="userSpaceOnUse" color-interpolation-filters="sRGB">
<feFlood flood-opacity="0" result="BackgroundImageFix"/>
<feColorMatrix in="SourceAlpha" type="matrix" values="0 0 0 0 0 0 0 0 0 0 0 0 0 0 0 0 0 0 127 0" result="hardAlpha"/>
<feOffset dy="1"/>
<feGaussianBlur stdDeviation="1"/>
<feComposite in2="hardAlpha" operator="out"/>
<feColorMatrix type="matrix" values="0 0 0 0 0 0 0 0 0 0 0 0 0 0 0 0 0 0 0.05 0"/>
<feBlend mode="normal" in2="BackgroundImageFix" result="effect1_dropShadow_531_20301"/>
<feBlend mode="normal" in="SourceGraphic" in2="effect1_dropShadow_531_20301" result="shape"/>
</filter>
<filter id="filter4_d_531_20301" x="291.808" y="215.414" width="157.31" height="85.0698" filterUnits="userSpaceOnUse" color-interpolation-filters="sRGB">
<feFlood flood-opacity="0" result="BackgroundImageFix"/>
<feColorMatrix in="SourceAlpha" type="matrix" values="0 0 0 0 0 0 0 0 0 0 0 0 0 0 0 0 0 0 127 0" result="hardAlpha"/>
<feOffset dy="1"/>
<feGaussianBlur stdDeviation="1"/>
<feComposite in2="hardAlpha" operator="out"/>
<feColorMatrix type="matrix" values="0 0 0 0 0 0 0 0 0 0 0 0 0 0 0 0 0 0 0.05 0"/>
<feBlend mode="normal" in2="BackgroundImageFix" result="effect1_dropShadow_531_20301"/>
<feBlend mode="normal" in="SourceGraphic" in2="effect1_dropShadow_531_20301" result="shape"/>
</filter>
<filter id="filter5_dd_531_20301" x="0.308228" y="0.922363" width="227.925" height="90.2544" filterUnits="userSpaceOnUse" color-interpolation-filters="sRGB">
<feFlood flood-opacity="0" result="BackgroundImageFix"/>
<feColorMatrix in="SourceAlpha" type="matrix" values="0 0 0 0 0 0 0 0 0 0 0 0 0 0 0 0 0 0 127 0" result="hardAlpha"/>
<feOffset dy="1"/>
<feGaussianBlur stdDeviation="2.5"/>
<feComposite in2="hardAlpha" operator="out"/>
<feColorMatrix type="matrix" values="0 0 0 0 0 0 0 0 0 0 0 0 0 0 0 0 0 0 0.05 0"/>
<feBlend mode="normal" in2="BackgroundImageFix" result="effect1_dropShadow_531_20301"/>
<feColorMatrix in="SourceAlpha" type="matrix" values="0 0 0 0 0 0 0 0 0 0 0 0 0 0 0 0 0 0 127 0" result="hardAlpha"/>
<feOffset dy="2"/>
<feGaussianBlur stdDeviation="1"/>
<feComposite in2="hardAlpha" operator="out"/>
<feColorMatrix type="matrix" values="0 0 0 0 0 0 0 0 0 0 0 0 0 0 0 0 0 0 0.05 0"/>
<feBlend mode="normal" in2="effect1_dropShadow_531_20301" result="effect2_dropShadow_531_20301"/>
<feBlend mode="normal" in="SourceGraphic" in2="effect2_dropShadow_531_20301" result="shape"/>
</filter>
<filter id="filter6_dd_531_20301" x="218.233" y="252.948" width="172.842" height="90.2544" filterUnits="userSpaceOnUse" color-interpolation-filters="sRGB">
<feFlood flood-opacity="0" result="BackgroundImageFix"/>
<feColorMatrix in="SourceAlpha" type="matrix" values="0 0 0 0 0 0 0 0 0 0 0 0 0 0 0 0 0 0 127 0" result="hardAlpha"/>
<feOffset dy="1"/>
<feGaussianBlur stdDeviation="2.5"/>
<feComposite in2="hardAlpha" operator="out"/>
<feColorMatrix type="matrix" values="0 0 0 0 0 0 0 0 0 0 0 0 0 0 0 0 0 0 0.05 0"/>
<feBlend mode="normal" in2="BackgroundImageFix" result="effect1_dropShadow_531_20301"/>
<feColorMatrix in="SourceAlpha" type="matrix" values="0 0 0 0 0 0 0 0 0 0 0 0 0 0 0 0 0 0 127 0" result="hardAlpha"/>
<feOffset dy="2"/>
<feGaussianBlur stdDeviation="1"/>
<feComposite in2="hardAlpha" operator="out"/>
<feColorMatrix type="matrix" values="0 0 0 0 0 0 0 0 0 0 0 0 0 0 0 0 0 0 0.05 0"/>
<feBlend mode="normal" in2="effect1_dropShadow_531_20301" result="effect2_dropShadow_531_20301"/>
<feBlend mode="normal" in="SourceGraphic" in2="effect2_dropShadow_531_20301" result="shape"/>
</filter>
<filter id="filter7_dd_531_20301" x="385.066" y="280.564" width="15.1003" height="15.1006" filterUnits="userSpaceOnUse" color-interpolation-filters="sRGB">
<feFlood flood-opacity="0" result="BackgroundImageFix"/>
<feColorMatrix in="SourceAlpha" type="matrix" values="0 0 0 0 0 0 0 0 0 0 0 0 0 0 0 0 0 0 127 0" result="hardAlpha"/>
<feOffset dy="1"/>
<feGaussianBlur stdDeviation="2.5"/>
<feComposite in2="hardAlpha" operator="out"/>
<feColorMatrix type="matrix" values="0 0 0 0 0 0 0 0 0 0 0 0 0 0 0 0 0 0 0.05 0"/>
<feBlend mode="normal" in2="BackgroundImageFix" result="effect1_dropShadow_531_20301"/>
<feColorMatrix in="SourceAlpha" type="matrix" values="0 0 0 0 0 0 0 0 0 0 0 0 0 0 0 0 0 0 127 0" result="hardAlpha"/>
<feOffset dy="2"/>
<feGaussianBlur stdDeviation="1"/>
<feComposite in2="hardAlpha" operator="out"/>
<feColorMatrix type="matrix" values="0 0 0 0 0 0 0 0 0 0 0 0 0 0 0 0 0 0 0.05 0"/>
<feBlend mode="normal" in2="effect1_dropShadow_531_20301" result="effect2_dropShadow_531_20301"/>
<feBlend mode="normal" in="SourceGraphic" in2="effect2_dropShadow_531_20301" result="shape"/>
</filter>
<filter id="filter8_dd_531_20301" x="403.222" y="265.266" width="15.1003" height="15.1001" filterUnits="userSpaceOnUse" color-interpolation-filters="sRGB">
<feFlood flood-opacity="0" result="BackgroundImageFix"/>
<feColorMatrix in="SourceAlpha" type="matrix" values="0 0 0 0 0 0 0 0 0 0 0 0 0 0 0 0 0 0 127 0" result="hardAlpha"/>
<feOffset dy="1"/>
<feGaussianBlur stdDeviation="2.5"/>
<feComposite in2="hardAlpha" operator="out"/>
<feColorMatrix type="matrix" values="0 0 0 0 0 0 0 0 0 0 0 0 0 0 0 0 0 0 0.05 0"/>
<feBlend mode="normal" in2="BackgroundImageFix" result="effect1_dropShadow_531_20301"/>
<feColorMatrix in="SourceAlpha" type="matrix" values="0 0 0 0 0 0 0 0 0 0 0 0 0 0 0 0 0 0 127 0" result="hardAlpha"/>
<feOffset dy="2"/>
<feGaussianBlur stdDeviation="1"/>
<feComposite in2="hardAlpha" operator="out"/>
<feColorMatrix type="matrix" values="0 0 0 0 0 0 0 0 0 0 0 0 0 0 0 0 0 0 0.05 0"/>
<feBlend mode="normal" in2="effect1_dropShadow_531_20301" result="effect2_dropShadow_531_20301"/>
<feBlend mode="normal" in="SourceGraphic" in2="effect2_dropShadow_531_20301" result="shape"/>
</filter>
<filter id="filter9_dd_531_20301" x="386.972" y="267.051" width="28.8005" height="26.064" filterUnits="userSpaceOnUse" color-interpolation-filters="sRGB">
<feFlood flood-opacity="0" result="BackgroundImageFix"/>
<feColorMatrix in="SourceAlpha" type="matrix" values="0 0 0 0 0 0 0 0 0 0 0 0 0 0 0 0 0 0 127 0" result="hardAlpha"/>
<feOffset dy="1"/>
<feGaussianBlur stdDeviation="2.5"/>
<feComposite in2="hardAlpha" operator="out"/>
<feColorMatrix type="matrix" values="0 0 0 0 0 0 0 0 0 0 0 0 0 0 0 0 0 0 0.05 0"/>
<feBlend mode="normal" in2="BackgroundImageFix" result="effect1_dropShadow_531_20301"/>
<feColorMatrix in="SourceAlpha" type="matrix" values="0 0 0 0 0 0 0 0 0 0 0 0 0 0 0 0 0 0 127 0" result="hardAlpha"/>
<feOffset dy="2"/>
<feGaussianBlur stdDeviation="1"/>
<feComposite in2="hardAlpha" operator="out"/>
<feColorMatrix type="matrix" values="0 0 0 0 0 0 0 0 0 0 0 0 0 0 0 0 0 0 0.05 0"/>
<feBlend mode="normal" in2="effect1_dropShadow_531_20301" result="effect2_dropShadow_531_20301"/>
<feBlend mode="normal" in="SourceGraphic" in2="effect2_dropShadow_531_20301" result="shape"/>
</filter>
</defs>
</svg>
