<svg width="492" height="380" viewBox="0 0 492 380" fill="none" xmlns="http://www.w3.org/2000/svg">
<rect x="35.1953" y="52.1173" width="454.908" height="283.673" rx="3" stroke="#78AEC3" stroke-opacity="0.15" stroke-width="2"/>
<rect x="232.285" y="63.9851" width="243.832" height="161.605" rx="3" stroke="#DCE9EE" stroke-opacity="0.2" stroke-width="2"/>
<rect x="246.543" y="99.4361" width="66.968" height="75.4449" rx="4" fill="#8EC1D5" fill-opacity="0.15"/>
<rect x="321.543" y="99.4361" width="66.968" height="75.4449" rx="4" fill="#8EC1D5" fill-opacity="0.15"/>
<rect x="396.543" y="99.4361" width="66.968" height="75.4449" rx="4" fill="#8EC1D5" fill-opacity="0.15"/>
<rect x="145.667" y="71.4622" width="63.3605" height="13.5631" rx="4" fill="#8EC1D5" fill-opacity="0.15"/>
<rect x="58.4971" y="161.88" width="63.3605" height="9.49017" rx="4" fill="#8EC1D5" fill-opacity="0.15"/>
<rect x="145.667" y="92.6545" width="63.3605" height="13.5631" rx="4" fill="#8EC1D5" fill-opacity="0.15"/>
<rect x="58.4971" y="176.709" width="38.3774" height="9.49017" rx="4" fill="#8EC1D5" fill-opacity="0.15"/>
<rect x="145.667" y="113.847" width="63.3605" height="13.5631" rx="4" fill="#8EC1D5" fill-opacity="0.15"/>
<rect x="58.4971" y="191.537" width="49.2025" height="9.49017" rx="4" fill="#8EC1D5" fill-opacity="0.15"/>
<rect x="58.4971" y="206.365" width="63.3605" height="9.49017" rx="4" fill="#8EC1D5" fill-opacity="0.15"/>
<rect x="246.544" y="74.0052" width="216.967" height="17.8016" rx="4" fill="#9EC3D2" fill-opacity="0.35"/>
<rect x="54.7568" y="69.8009" width="65.2726" height="17.8016" rx="4" fill="#9EC3D2" fill-opacity="0.15"/>
<rect x="48.6826" y="239.806" width="244.832" height="84.6173" rx="3.5" stroke="#78AEC3" stroke-opacity="0.15"/>
<g filter="url(#filter0_d_4982_38710)">
<rect x="315.707" y="239.806" width="160.91" height="84.6173" rx="3.5" stroke="#78AEC3" stroke-opacity="0.15" shape-rendering="crispEdges"/>
</g>
<path d="M117.882 121.722C118.142 123.916 116.329 125.715 114.12 125.715C108.576 125.715 97.8292 125.715 85.481 125.715C73.1329 125.715 62.3864 125.715 56.8424 125.715C54.6333 125.715 52.8196 123.916 53.0803 121.722C55.0265 105.346 68.7906 92.6549 85.481 92.6549C102.171 92.6549 115.936 105.346 117.882 121.722Z" fill="#9EC3D2" fill-opacity="0.35"/>
<rect width="20.0404" height="11.6096" rx="4" transform="matrix(4.37114e-08 -1 -1 -4.37114e-08 463.554 217.582)" fill="#9EC3D2" fill-opacity="0.35"/>
<rect width="27.8823" height="11.6096" rx="4" transform="matrix(4.60499e-08 -1 -1 -4.14917e-08 443.907 217.582)" fill="#9EC3D2" fill-opacity="0.35"/>
<rect width="20.0404" height="11.6096" rx="4" transform="matrix(4.60499e-08 -1 -1 -4.14917e-08 424.26 217.582)" fill="#9EC3D2" fill-opacity="0.35"/>
<rect width="33.1102" height="11.6096" rx="4" transform="matrix(4.60499e-08 -1 -1 -4.14917e-08 404.613 217.582)" fill="#9EC3D2" fill-opacity="0.35"/>
<rect width="33.1102" height="11.6096" rx="4" transform="matrix(4.60499e-08 -1 -1 -4.14917e-08 387.645 217.582)" fill="#9EC3D2" fill-opacity="0.35"/>
<rect width="9.14887" height="11.6096" rx="4" transform="matrix(4.60499e-08 -1 -1 -4.14917e-08 367.998 217.582)" fill="#9EC3D2" fill-opacity="0.35"/>
<rect width="25.704" height="11.6096" rx="4" transform="matrix(4.60499e-08 -1 -1 -4.14917e-08 351.03 217.582)" fill="#9EC3D2" fill-opacity="0.35"/>
<rect width="17.8621" height="11.6096" rx="4" transform="matrix(4.60499e-08 -1 -1 -4.14917e-08 331.383 217.582)" fill="#9EC3D2" fill-opacity="0.35"/>
<rect width="22.6544" height="11.6096" rx="4" transform="matrix(4.60499e-08 -1 -1 -4.14917e-08 311.736 217.582)" fill="#9EC3D2" fill-opacity="0.35"/>
<rect width="31.3676" height="11.6096" rx="4" transform="matrix(4.60499e-08 -1 -1 -4.14917e-08 292.089 217.582)" fill="#9EC3D2" fill-opacity="0.35"/>
<rect width="20.0404" height="11.6096" rx="4" transform="matrix(4.60499e-08 -1 -1 -4.14917e-08 275.121 217.582)" fill="#9EC3D2" fill-opacity="0.35"/>
<rect width="16.1194" height="11.6096" rx="4" transform="matrix(4.60499e-08 -1 -1 -4.14917e-08 258.153 217.582)" fill="#9EC3D2" fill-opacity="0.35"/>
<rect x="56.6597" y="316.446" width="38.994" height="11.02" rx="4" transform="rotate(-90 56.6597 316.446)" fill="#9EC3D2" fill-opacity="0.35"/>
<rect x="75.3091" y="316.446" width="54.2525" height="11.02" rx="4" transform="rotate(-90 75.3091 316.446)" fill="#9EC3D2" fill-opacity="0.35"/>
<rect x="93.958" y="316.446" width="38.994" height="11.02" rx="4" transform="rotate(-90 93.958 316.446)" fill="#9EC3D2" fill-opacity="0.35"/>
<rect x="112.607" y="316.446" width="64.4249" height="11.02" rx="4" transform="rotate(-90 112.607 316.446)" fill="#9EC3D2" fill-opacity="0.35"/>
<rect x="128.714" y="316.446" width="64.4249" height="11.02" rx="4" transform="rotate(-90 128.714 316.446)" fill="#9EC3D2" fill-opacity="0.35"/>
<rect x="147.363" y="316.446" width="17.8016" height="11.02" rx="4" transform="rotate(-90 147.363 316.446)" fill="#9EC3D2" fill-opacity="0.35"/>
<rect x="163.469" y="316.446" width="50.014" height="11.02" rx="4" transform="rotate(-90 163.469 316.446)" fill="#9EC3D2" fill-opacity="0.35"/>
<rect x="182.119" y="316.446" width="34.7555" height="11.02" rx="4" transform="rotate(-90 182.119 316.446)" fill="#9EC3D2" fill-opacity="0.35"/>
<rect x="200.768" y="316.446" width="44.0802" height="11.02" rx="4" transform="rotate(-90 200.768 316.446)" fill="#9EC3D2" fill-opacity="0.35"/>
<rect x="219.417" y="316.446" width="61.0341" height="11.02" rx="4" transform="rotate(-90 219.417 316.446)" fill="#9EC3D2" fill-opacity="0.35"/>
<rect x="235.523" y="316.446" width="38.994" height="11.02" rx="4" transform="rotate(-90 235.523 316.446)" fill="#9EC3D2" fill-opacity="0.35"/>
<rect x="251.629" y="316.446" width="31.3647" height="11.02" rx="4" transform="rotate(-90 251.629 316.446)" fill="#9EC3D2" fill-opacity="0.35"/>
<rect x="270.279" y="316.446" width="31.3647" height="11.02" rx="4" transform="rotate(-90 270.279 316.446)" fill="#9EC3D2" fill-opacity="0.35"/>
<path d="M414.531 287.866L415.252 288.267L415.465 288.258L417.255 287.756L417.458 288.291L417.315 288.743L416.928 288.994L415.961 288.944L414.578 288.249L414.531 287.866Z" fill="#9EC3D2" fill-opacity="0.35"/>
<path d="M417.759 282.076L417.913 282.578L419.654 282.704L419.776 281.673L420.112 281.523L420.204 281.146L419.654 281.272L419.043 282.027L417.759 282.076Z" fill="#9EC3D2" fill-opacity="0.35"/>
<path d="M421.312 276.605L421.593 278.404L422.292 278.53L422.358 278.853L421.856 279.196L422.791 279.812L424.607 279.278L424.752 278.645L425.895 278.062L426.333 276.711L426.66 276.423L426.321 275.941L427.427 275.382L427.286 275.22L426.775 275.246L426.729 275.63L426.044 275.625L426.031 275.112L425.81 274.897L425.439 275.173L425.45 275.426L424.89 275.599L423.856 275.545L422.514 276.695L421.312 276.605Z" fill="#9EC3D2" fill-opacity="0.35"/>
<path d="M401.859 274.109V274.774L402.092 275.134L402.26 275.118L402.548 274.689L402.38 274.497L402.315 274.022L402.092 273.853L401.859 274.109Z" fill="#9EC3D2" fill-opacity="0.35"/>
<path d="M413.467 274.127L414.315 275.031L414.066 275.27L413.465 275.184L412.72 274.638L412.76 274.28L413.467 274.127Z" fill="#9EC3D2" fill-opacity="0.35"/>
<path d="M399.138 295.326L399.74 297.164L399.726 297.745L398.845 298.519L398.713 299.776L402.105 299.801L403.208 300.127L404.117 300.03L403.587 299.487L403.589 297.937L404.632 297.9V297.296L403.785 297.267L403.616 295.834L403.259 295.838L403.066 295.696L402.856 295.706L402.577 296.148H401.503L401.254 295.943L401.328 295.653L401.034 295.302L399.138 295.326Z" fill="#9EC3D2" fill-opacity="0.35"/>
<path d="M398.772 294.824L399.08 295.15L399.477 294.842L399.361 294.523L399.262 294.518L398.772 294.824Z" fill="#9EC3D2" fill-opacity="0.35"/>
<path d="M366.778 304.204L367.121 304.467L365.819 306.048L365.361 306.462L365.52 308.269L366.525 309.266L365.681 310.471L365.041 310.696H364.309L364.514 311.636L363.371 311.957L363.645 312.747L362.96 314.534L363.806 315.099L363.348 316.02L362.571 317.018L362.982 317.714L361.977 317.845L361.154 317.018L361.016 314.44L359.737 310.062L360.124 308.532L359.301 306.575L359.848 304.036L360.352 303.546L360.228 303.175L360.875 302.692L362.317 302.773L363.122 303.476L364.053 303.489L365.007 303.966L364.726 304.503L364.794 305.046L366.145 304.994L366.778 304.204Z" fill="#9EC3D2" fill-opacity="0.35"/>
<path d="M363.854 318.728L363.9 319.555L364.678 319.499L365.34 319.141L364.22 318.953L363.854 318.728Z" fill="#9EC3D2" fill-opacity="0.35"/>
<path d="M397.726 271.273L397.611 271.467L397.71 271.606L398.122 271.537H398.472L398.852 271.8L399.659 271.68L400.252 271.391L400.404 271.196L400.382 270.945L399.848 270.618L399.133 270.624L399.072 270.956L398.319 271.256L397.726 271.273Z" fill="#9EC3D2" fill-opacity="0.35"/>
<path d="M447.293 305.617L447.231 309.281L446.543 309.694L446.48 310.055L447.42 310.57L449.74 310.21H450.931L451.37 309.692L454.002 309.279L455.882 309.744L455.757 310.364L456.008 310.983L457.45 310.777L457.511 311.086L456.571 311.653L456.884 311.86L457.573 311.653L457.385 313.357L458.702 314.183L459.455 313.977L459.831 314.286L462.025 314.027L464.094 311.291L464.847 311.136L466.35 308.865L466.726 306.904L465.787 305.924L466.163 305.718L465.41 303.807L464.596 303.342L464.721 300.762L463.968 300.297L463.781 298.852H463.404L462.15 302.258L461.461 302.311L459.894 301.02L460.772 299.109L459.143 298.851L457.324 299.264L456.822 300.451L456.008 300.605L455.946 299.779L452.624 301.431L452.686 302.051L452.184 302.618H450.929L448.233 303.547L447.293 305.617Z" fill="#9EC3D2" fill-opacity="0.35"/>
<path d="M458.702 315.476L458.389 316.508L458.451 317.23L459.391 317.178L460.456 315.836L458.702 315.476Z" fill="#9EC3D2" fill-opacity="0.35"/>
<path d="M413.766 273.814L413.587 274.062L414.419 274.955L414.709 274.878L415.186 275.287L415.393 274.571L415.911 274.638L415.89 274.433L415.039 273.824L414.876 274.182L413.766 273.814Z" fill="#9EC3D2" fill-opacity="0.35"/>
<path d="M400.23 272.546L400.164 272.634L401.35 273.634L401.785 273.111L401.769 272.905L401.389 272.528L400.23 272.546Z" fill="#9EC3D2" fill-opacity="0.35"/>
<path d="M435.703 280.368L435.471 280.71L436.072 281.643L436.089 282.37L436.199 282.565L436.904 282.575L437.303 282.262L437.593 282.405L437.651 282.848L437.883 282.73L437.897 282.164L437.702 282.145L437.581 281.664L437.089 281.65L436.967 281.382L437.268 281.055L437.272 280.893H436.4L435.703 280.368Z" fill="#9EC3D2" fill-opacity="0.35"/>
<path d="M394.366 269.309L394.253 269.54L395.468 270.196L395.55 270.204L395.627 270.022L395.798 269.923L395.525 269.673H395.337L395.081 269.435L394.366 269.309Z" fill="#9EC3D2" fill-opacity="0.35"/>
<path d="M392.419 286.312L393.062 286.27L394.116 287.489L393.137 288.093L392.429 287.944L391.476 287.954L391.323 288.41L390.524 288.442L390.305 288.198L390.588 287.456L392.419 286.312Z" fill="#9EC3D2" fill-opacity="0.35"/>
<path d="M403.17 273.044L403.198 273.764L403.495 274.269L404.61 274.285L405.112 273.995L405.605 273.835L405.484 273.375L405.596 273.13L405.345 273.023L405 273.046L404.73 273.269L403.595 273.276L403.17 273.044Z" fill="#9EC3D2" fill-opacity="0.35"/>
<path d="M407.547 293.81L408.301 293.797L408.105 294.337L407.914 294.472H407.681L407.515 294.107L407.547 293.81Z" fill="#9EC3D2" fill-opacity="0.35"/>
<path d="M393.853 289.952H394.228L394.249 289.083L394.722 288.521L394.701 287.544L394.271 287.535L393.535 288.005L393.842 288.485L393.853 289.952Z" fill="#9EC3D2" fill-opacity="0.35"/>
<path d="M450.58 289.917L450.071 290.421L450.488 290.528L450.723 290.26L450.58 289.917Z" fill="#9EC3D2" fill-opacity="0.35"/>
<path d="M358.516 297.648L359.971 297.129L360.451 297.167L360.771 298.259L362.987 298.861L363.353 299.783L364.266 299.877L364.655 300.667L364.381 301.382L362.895 301.475L362.347 302.623L361.181 302.605L360.815 302.548L360.142 303.082L359.81 303.056L358.667 300.892L358.983 300.505L359.094 298.974L358.812 298.063L358.516 297.648Z" fill="#9EC3D2" fill-opacity="0.35"/>
<path d="M368.328 307.186L369.432 305.451L369.472 303.992L371.533 302.906H372.687L373.593 301.652L373.757 299.243L373.386 298.599L375.57 296.971L375.653 295.173L372.686 293.986L369.103 293.071L367.414 292.935L367.868 292.155L367.745 290.969L367.375 290.869L366.829 291.756L366.543 292.049L365.808 291.783L363.336 292.495L362.513 291.648L362.646 290.762L361.868 291.409L361.01 291.031L360.923 291.131L360.925 291.438L361.665 291.763L360.554 292.72L359.852 292.714L359.142 292.124L358.338 292.144L358.239 292.846L358.7 293.303L358.156 294.728L357.52 294.769L356.507 295.292L356.26 296.318L357.138 297.087L357.299 296.938L357.916 296.802L358.442 297.527L359.949 296.998L360.534 297.026L360.937 298.191L363.087 298.749L363.458 299.678L364.374 299.768L364.81 300.656L364.515 301.446L364.9 301.859L364.844 302.474L365.876 302.394L366.821 303.37L366.747 304.056L367.307 304.443L365.964 306.105L368.328 307.186Z" fill="#9EC3D2" fill-opacity="0.35"/>
<path d="M355.142 281.237L354.919 281.181L354.902 281.531L355.176 281.757L355.363 281.531L355.142 281.237ZM355.585 281.786L355.278 281.926L355.568 282.263L355.721 282.094L355.585 281.786ZM356.577 282.038L356.252 282.024L356.285 282.193L356.524 282.475L356.729 282.291L356.577 282.038ZM356.423 281.702L355.893 281.518L355.791 281.083L355.995 281.012L356.2 281.35L356.405 281.476L356.423 281.702ZM355.91 280.815L355.636 280.759L355.585 280.478L355.296 280.394L355.483 280.239L355.824 280.337L356.08 280.465L355.91 280.815Z" fill="#9EC3D2" fill-opacity="0.35"/>
<path d="M435.673 279.641L435.947 279.948L436.872 279.953L436.778 279.535L435.673 279.641Z" fill="#9EC3D2" fill-opacity="0.35"/>
<path d="M402.652 303.198L403.032 303.294L402.979 304.181L403.369 304.224L404.267 303.563L405.345 303.658L405.631 303.066L406.995 302.048L405.357 300.507L405.336 300.255L405.155 300.211L404.659 300.585L403.369 300.611L403.188 301.925L402.682 302.02L402.652 303.198Z" fill="#9EC3D2" fill-opacity="0.35"/>
<path d="M403.032 267.832L403.297 268.189L403.191 268.473L403.209 268.698L403.306 268.968L403.854 268.714L404.534 268.728L405.011 268.888H406.222L406.576 268.197L406.787 267.936V267.761L406.027 266.887L405.356 266.669L404.808 266.619L404.331 266.743L404.349 267.135L403.687 267.82L403.032 267.832Z" fill="#9EC3D2" fill-opacity="0.35"/>
<path d="M348.949 284.597L348.94 285.124H349.089L349.594 284.353H349.251L348.949 284.597Z" fill="#9EC3D2" fill-opacity="0.35"/>
<path d="M340.762 250.848L341.113 251.283L341.29 251.863L342.17 252.043L342.787 251.501L343.315 251.719L344.811 251.827L345.868 251.464L346.045 252.66H346.661V252.153L347.278 252.189L348.818 253.675L349.831 254.182L349.303 254.871L349.523 255.051L351.501 255.377L351.545 256.102L352.073 256.174L352.206 255.087L353.042 254.907L353.658 255.668L354.978 256.174L355.639 256.283L356.078 255.848L356.123 255.159L356.914 254.76L357.178 255.341L356.473 256.356L356.561 256.862L356.957 256.357L357.749 255.776L357.793 255.015L357.353 254.434L357.485 253.964L358.542 253.529L359.026 253.819L359.114 256.356L359.862 255.813L360.302 256.031L359.685 256.901L360.477 257.045L361.622 255.595L362.59 256.428L362.195 257.914L361.226 258.349L360.302 257.986L358.631 258.276L358.807 258.747L358.367 259.328L357.004 259.581L355.463 260.56L354.099 262.046L353.922 262.517L354.846 262.807L355.198 263.532L356.474 264.583L358.498 265.308L358.059 266.974L358.015 267.445L358.543 267.735L359.248 266.974L359.336 265.524L360.437 265.488L360.965 264.654L361.054 263.387L362.462 261.14L364.222 261.647L365.146 262.698L364.75 263.749L365.455 264.075L367.17 263.132L367.654 265.705L369.239 267.263L369.283 268.06L367.524 268.422L366.688 269.147L364.928 268.821L364.049 268.785L362.508 269.763L363.432 269.583L364.577 269.402L364.798 269.62L364.49 270.417L364.534 271.142L365.063 271.432L365.591 271.324L365.856 270.998H366.207L365.635 271.867L364.534 271.903L364.05 272.483H363.433L363.257 272.049L364.137 271.324L363.08 271.614L363.032 270.383L362.728 270.238L361.805 270.565L361.716 271.181H359.603L357.798 272.197L355.377 272.85L355.114 272.559L356.333 271.072L355.641 270.527L355.201 269.837L354.305 269.278L353.344 269.213L351.621 268.227L339.128 266.55L338.921 265.858L337.776 264.989V264.264L337.953 263.611L337.864 263.249L337.425 262.886L337.336 262.306L338.481 261.653L337.776 258.537L336.808 258.501L335.928 257.558L340.762 250.847L340.762 250.848Z" fill="#9EC3D2" fill-opacity="0.35"/>
<path d="M336.452 262.363L336.152 262.833L336.256 263.167L336.452 263.267L336.406 263.402L336.196 263.452L336.256 263.947L336.482 264.133L336.662 263.973L336.436 263.491L336.57 263.106L336.901 262.747L336.66 262.413L336.452 262.363ZM337.445 265.184L337.175 265.271L337.671 265.742L337.791 266.299L338.288 266.732L338.708 266.67V266.101L338.198 265.841L337.445 265.184ZM364.55 253.295L364.237 253.554L364.511 253.909L365.805 254.037L364.982 253.327L364.55 253.295ZM348.802 249.004L348.841 249.585L347.431 250.779L347.785 251.746L348.802 251.521L349.391 250.81L350.878 250.358L352.092 250.293L351.152 249.454L350.682 249.744L350.329 249.648L350.133 249.293L349.702 248.938L348.802 249.004ZM350.644 247.295L350.331 247.747L351.859 248.199L352.407 247.521L352.642 247.973H353.034L353.778 247.296L352.877 247.103L352.523 246.877L352.053 247.264L350.644 247.295ZM353.308 248.198L352.094 248.617V248.939L353.661 249.423L353.308 249.745L353.543 250.164L354.522 249.809H355.345L355.738 250.324L356.403 249.775L356.246 249.258L355.698 249.42L355.621 248.775L355.895 248.388H355.621L355.189 248.613L354.994 248.742L355.112 249.194L354.799 249.387L354.329 249.355L354.211 248.775L353.308 248.198ZM354.914 247.198L354.795 247.52L355.539 247.81L356.087 247.552L356.048 247.358L354.914 247.198ZM355.5 246.649L354.953 246.811L354.991 247.036L356.206 246.971L356.167 246.746L355.5 246.649ZM358.126 247.198L358.048 247.423L357.852 247.648V247.971L358.596 247.874L359.379 248.423H359.653V247.874L358.87 247.164L358.126 247.198ZM360.124 247.843L360.437 248.133L360.163 248.52L360.359 248.939L361.221 248.552V248.262L360.712 247.778L360.124 247.843ZM361.26 247.101L361.299 247.617H362.358L362.632 247.81L362.593 248.035L361.652 248.132L362.319 248.874L363.22 249.003L364.473 248.551L362.67 246.324L362.123 246.615L362.161 247.002L361.534 246.808L361.26 247.101ZM352.133 250.747L350.645 251.069L349.783 251.682L349.86 252.36L351.428 252.747L351.074 253.392L349.938 252.811L349.625 253.295L350.369 253.714L350.33 254.391L351.466 254.65L352.837 254.584L353.072 254.229L354.09 255.165L354.795 254.972L354.913 254.326L355.422 254.616L355.5 253.971L354.873 253.649L354.911 251.617L354.364 251.262L353.777 251.908L352.133 250.747ZM356.912 252.166L356.403 251.973L356.129 252.263L356.677 252.973L356.716 253.65L357.891 253.07V252.231L358.323 251.876L357.891 251.617H357.186L356.912 252.166ZM359.419 251.876L358.596 252.425L358.792 253.102H359.301L359.536 252.747L359.89 253.037L360.243 253.005L361.183 252.36L359.419 251.876ZM359.34 250.81L359.144 251.132L360.006 251.391L360.241 251.101L359.34 250.81ZM358.831 249.584L357.969 249.681L357.46 250.068L358.4 250.1L358.126 250.68L358.322 250.939L358.596 250.907L359.262 250.036L358.831 249.584ZM360.32 249.359L359.85 249.488L359.928 250.004L360.711 250.422L360.75 250.744L360.515 250.938L360.634 251.583L363.649 252.389L364.473 252.614L365.296 252.034L364.317 251.388L363.416 251.582L362.163 251.485L361.693 251.098L361.575 250.034L360.792 249.712L360.32 249.359ZM362.787 252.715L361.925 252.65L360.907 252.971L360.359 253.584L360.516 255.261L362.2 255.326L363.806 255.972L364.943 257.036L365.805 257.004L365.57 258.003L364.787 259.067L363.925 259.389L363.297 259.293L362.985 259.067L362.515 259.583L362.711 260.098L363.377 260.13L364.2 259.808L364.905 261.292L366.668 262.228L367.882 260.97L366.865 259.616L367.453 259.067L368.276 260.197L369.764 259.132L369.49 258.648L368.472 258.907L367.767 257.326L368.433 256.423L367.101 255.263L366.357 255.682L365.652 254.424L364.165 254.585L363.772 253.069L362.559 253.747L362.44 254.585H361.774L361.852 253.843L362.787 252.715ZM363.297 249.649V249.94L362.435 250.101L362.67 250.423L363.649 250.745L364.747 250.842L365.53 251.294L366.312 250.939L365.764 250.487H366.469L366.9 250.1L367.959 249.971V249.778L367.37 249.456L367.448 249.101L369.093 249.326L371.522 248.552L370.621 248.327L370.856 248.068H372.736L373.048 247.81L369.248 246.713L368.347 246.454L367.368 247.035L366.271 246.293L365.682 246.261L365.564 246.875L364.82 246.327L363.958 246.552L364.115 246.907L365.409 247.133L365.331 247.648L366.036 248.003L367.761 247.648L367.8 248.132L366.39 248.681L365.528 248.132L364.745 248.197L365.528 249.101L365.135 249.263L364.547 248.843L364.116 249.069L364.508 249.681H365.175L365.017 250.262L364.469 250.196L363.764 249.583L363.297 249.649ZM359.806 258.528L359.059 259.296L359.013 260.142L359.666 259.835H360.459L361.019 260.258L361.534 259.911L359.806 258.528ZM368.907 268.52L367.04 269.981L367.227 270.327L369.513 271.019L369.84 270.558L369.653 269.79L368.906 269.867L368.485 269.482L369.185 268.906L368.907 268.52Z" fill="#9EC3D2" fill-opacity="0.35"/>
<path d="M399.272 295.182L401.094 295.156L401.463 295.585L401.449 295.901L401.585 296.002H402.49L402.749 295.584H403.119L403.269 295.708L403.776 295.697L403.926 297.152L404.802 297.176V297.288L407.157 298.156L407.266 298.325H407.759L407.704 297.715L406.814 297.366L406.869 296.904L407.252 296.17L408.129 296.147L407.376 294.105L407.39 293.238L408.581 291.716L408.594 291.502L408.416 291.423L408.423 291.01L408.206 290.994L407.987 290.766L404.391 290.633L403.732 291.157L402.653 290.577L402.273 290.767L401.998 292.663L401.315 293.093L401.11 293.475L401.147 294.039L399.917 294.861L399.59 294.739L399.634 294.896L399.272 295.182Z" fill="#9EC3D2" fill-opacity="0.35"/>
<path d="M400.382 290.61L401.205 291.338L401.53 290.994L402.048 291.012L402.159 290.677L402.668 290.417L403.725 291.012L404.334 290.518L406.7 290.603L404.505 288.752L404.8 288.602L404.841 288.276L404.343 288.084H403.611L402.432 289.038L402.392 289.431L401.457 289.407L401.427 289.574L400.818 289.523L400.268 290.376L400.382 290.61Z" fill="#9EC3D2" fill-opacity="0.35"/>
<path d="M399.559 291.833L399.548 292.043L400.392 292.06L400.422 293.852L399.65 293.835L399.203 293.55L398.857 293.709L398.841 293.789L399.019 293.86L399.07 294.228L398.594 294.563L398.696 294.74L399.224 294.405H399.479L399.56 294.605L399.896 294.722L400.973 293.977L400.952 293.433L401.177 292.99L401.867 292.571L402.053 291.154L401.562 291.156L400.993 291.793L399.559 291.833Z" fill="#9EC3D2" fill-opacity="0.35"/>
<path d="M396.362 271.166L395.592 271.836L395.608 271.904L395.924 271.823L396.209 272.146L396.689 272.008L397.022 272.219L397.158 272.155L397.568 271.63L397.464 271.549L397.059 271.541L396.863 271.213L396.362 271.166Z" fill="#9EC3D2" fill-opacity="0.35"/>
<path d="M389.146 291L389.902 290.563L390.842 290.428L391.802 290.597L391.312 289.992L391.169 289.623L391.312 288.53L390.455 288.563L390.067 288.26L389.25 288.277L388.862 288.328L388.902 289.067L388.698 289.135L388.452 289.505L389.084 290.11L389.146 291Z" fill="#9EC3D2" fill-opacity="0.35"/>
<path d="M363.168 318.051L362.414 319.406L363.716 319.518L363.739 318.616L363.168 318.051ZM362.912 317.839L362.345 318.351L362.276 318.953L361.179 318.445L360.013 317.072L359.67 316.582L360.151 316.074L360.105 315.434L359.557 315.246L359.123 314.984L359.215 314.626L359.785 314.494L359.9 312.425L359.01 312.011L358.428 301.241L358.578 301.028L359.716 303.172L360.08 303.177L360.199 303.52L359.714 303.999L359.158 306.579L359.95 308.566L359.584 310.071L360.873 314.495L361.01 317.082L361.934 317.956L362.912 317.839ZM359.147 312.426L358.919 312.707L359.034 313.197L359.262 313.216L359.377 312.595L359.147 312.426Z" fill="#9EC3D2" fill-opacity="0.35"/>
<path d="M397.23 290.644L397.799 291.071L397.758 291.733L400.878 291.674L401.133 291.44L400.239 290.653L400.107 290.368L400.676 289.498L400.289 288.92L399.964 288.778V288.484L400.34 288.284L400.361 287.371L400.063 287.344L400.058 287.823L398.747 289.823L397.944 289.856L397.395 290.165L397.23 290.644Z" fill="#9EC3D2" fill-opacity="0.35"/>
<path d="M431.256 268.378L430.644 269.634L429.801 269.598L428.912 271.188L429.667 271.973L428.112 273.727L427.314 273.618L426.78 274.166L426.913 274.495L427.535 274.532L427.845 275.116L428.468 275.226L430.377 277.237V278.261L431.31 278.736L432.331 278.591L433.62 279.212L435.174 279.577L435.929 279.504L436.773 279.43L438.549 278.48L439.127 278.553L439.347 278.982L439.837 279.102L440.503 279.906L440.06 280.71L440.327 281.259L441.081 281.478L441.213 282.137L442.102 282.21L442.234 281.881L443.523 281.332L444.321 281.368L445.254 282.208L445.876 281.989L446.275 282.025L446.454 282.428L446.764 282.465L447.208 281.953L448.984 281.405L450.583 279.832L451.116 278.333L451.072 277.346L450.406 277.236L450.805 276.871L450.716 276.286L449.029 274.897V274.203L449.516 273.691L450.004 273.508L450.048 273.105H448.805L448.582 273.653L448.004 273.544L447.294 272.923L447.737 271.973L448.359 271.424L448.937 271.46L448.848 272.3L449.159 272.52L449.914 271.899L450.181 271.863L450.092 271.388L450.803 270.693L451.336 270.729L451.647 269.925L452.011 269.768L452.048 269.267L451.695 268.963L451.665 268.172L452.346 268.136L452.301 266.096L451.824 266.33L451.648 266.853L450.851 266.851L448.542 265.79L446.874 264.147L445.182 264.132L444.751 264.439L445.298 265.464L445.107 266.425L444.425 266.656L444.042 266.632L444.013 267.583L444.413 267.657L445.123 267.401L446.056 267.767V268.132L445.39 268.168L444.856 269.118L444.368 269.154L442.637 271.018L440.817 271.677L439.573 271.75L438.73 271.275L437.531 271.788L436.243 271.459L435.932 270.764L433.757 270.654L432.603 269.119H432.115L431.723 268.407L431.256 268.378Z" fill="#9EC3D2" fill-opacity="0.35"/>
<path d="M447.056 282.831L446.635 282.928L446.331 283.234L446.583 283.636L446.954 283.664L447.377 283.358L447.477 282.955L447.056 282.831Z" fill="#9EC3D2" fill-opacity="0.35"/>
<path d="M357.637 287.106L357.273 287.076L354.866 288.697L354.612 289.268L354.283 289.298L354.429 290.558L353.59 292.24L354.502 292.871L355.67 292.932L356.472 293.893L357.638 293.924L357.601 294.644H358.037L358.511 293.323L358.072 292.873L358.182 292.033L359.093 291.972L358.984 290.02L356.941 289.48L356.468 288.429L357.637 287.106Z" fill="#9EC3D2" fill-opacity="0.35"/>
<path d="M351.214 287.857L351.46 288.25L351.66 288.466L351.391 289.118L350.879 288.823L350.041 288.196V287.782L351.214 287.857Z" fill="#9EC3D2" fill-opacity="0.35"/>
<path d="M351.827 282.362V282.545L352.767 282.56L353.211 282.349L353.279 282.503L354.201 282.687L355.021 283.292L354.834 283.503L354.868 283.742L355.551 283.883L356.235 283.63L356.542 283.377L356.099 283.194L353.811 282.096L353.009 282.025L351.827 282.362Z" fill="#9EC3D2" fill-opacity="0.35"/>
<path d="M381.282 285.772L380.947 285.93L381.187 286.087L381.475 285.968L381.282 285.772ZM382.107 286.09L381.889 286.248L382.044 286.484L382.419 286.347L382.107 286.09ZM381.629 286.536L381.348 286.673L381.65 287.004L381.888 286.901L381.629 286.536Z" fill="#9EC3D2" fill-opacity="0.35"/>
<path d="M408.783 277.008L409 277.136L408.327 277.658L408.006 277.649L407.767 277.512L407.799 277.256L408.286 277.23L408.783 277.008Z" fill="#9EC3D2" fill-opacity="0.35"/>
<path d="M399.104 270.514H399.887L400.306 270.759L401.082 270.232L400.329 269.793L399.583 269.498L399.072 269.573L398.38 269.937L399.104 270.514Z" fill="#9EC3D2" fill-opacity="0.35"/>
<path d="M396.05 268.061L396.68 267.978V267.614L397.209 267.543L397.498 267.782L397.804 267.809L398.281 267.64L398.707 267.738L399.081 268.004L399.132 268.999L399.507 269.406L399.014 269.462L398.196 269.882L398.265 270.023L398.997 270.583L398.945 270.863L398.265 271.143L397.634 271.157L397.481 271.423H397.158L397.004 271.143L396.442 271.03L396.424 270.568L396.14 270.439L396.163 270.129L396.08 269.907L395.675 269.602L395.76 269.125L396.201 268.957L396.05 268.061Z" fill="#9EC3D2" fill-opacity="0.35"/>
<path d="M397.044 265.696L396.311 266.359L396.285 266.791L396.619 267.503L397.142 267.422L397.077 266.84L397.437 266.511L397.43 266.252L397.176 265.714L397.044 265.696ZM397.424 266.912L397.206 266.95V267.215L397.437 267.361L397.641 267.319L397.591 267.068L397.424 266.912ZM398.104 266.66L397.909 266.699L397.694 266.861L397.786 267.187L398.049 267.272L397.777 267.361L397.725 267.475H398.135L398.258 267.292L398.1 267.229L398.151 267.068L398.339 266.867L398.288 266.693L398.104 266.66Z" fill="#9EC3D2" fill-opacity="0.35"/>
<path d="M413.778 287.36L413.677 287.845L414.377 287.836L414.388 287.123L414.132 286.995L413.778 287.36Z" fill="#9EC3D2" fill-opacity="0.35"/>
<path d="M362.114 284.955L361.958 285.225L362.146 285.43L362.379 285.264L362.114 284.955Z" fill="#9EC3D2" fill-opacity="0.35"/>
<path d="M359.294 284.314L358.359 283.814L357.769 283.644L357.651 284.566L357.769 284.558L357.925 284.802L358.128 284.61L358.72 284.481L359.234 284.571L359.294 284.314Z" fill="#9EC3D2" fill-opacity="0.35"/>
<path d="M396.534 276.669L395.813 276.471L392.813 276.931L392.159 277.337L392.558 279.022L391.366 279.061L390.648 280.004L388.94 280.339L388.945 281.025L394.572 284.541L395.531 284.607L398.731 282.564L398.411 282.235L397.811 282.168L397.45 281.675V279.631L397.209 279.434L397.25 278.907L396.61 278.38L396.531 277.82L396.81 277.655L396.689 277.061L396.534 276.669Z" fill="#9EC3D2" fill-opacity="0.35"/>
<path d="M353.479 292.314L352.644 292.739L352.583 293.369L352.416 293.575L352.942 293.988L352.714 294.191L352.767 294.711L353.709 294.895L355.135 293.516L355.131 293.035L354.447 292.999L353.479 292.314Z" fill="#9EC3D2" fill-opacity="0.35"/>
<path d="M347.255 292.651L347.145 293.048L346.942 293.215L347.081 293.42L347.44 293.305L347.611 293.061L347.502 292.805L347.255 292.651Z" fill="#9EC3D2" fill-opacity="0.35"/>
<path d="M404.288 264.565L403.299 264.536L402.672 264.849L402.663 265.081L403.069 265.395L404.333 265.569L404.288 264.565Z" fill="#9EC3D2" fill-opacity="0.35"/>
<path d="M402.177 264.689L401.91 264.762L402.177 264.8L402.299 264.915L402.444 264.773L402.299 264.57L402.177 264.689ZM402.291 264.981L401.91 265.12L401.779 265.305L401.91 265.426L402.393 265.28L402.626 265.154L402.291 264.981Z" fill="#9EC3D2" fill-opacity="0.35"/>
<path d="M405.023 278.917L405.495 278.927L406.414 279.135L406.85 279.145L407.391 278.775H407.643L408.103 278.983H408.685L408.789 278.978L409.156 279.841L409.261 280.12L409.358 280.537L409.184 280.641L408.886 280.518L408.541 279.6L408.23 279.582L408.208 279.893L408.414 280.433L410.07 282.108L410.105 282.827L409.623 283.282L405.093 283.24L405.023 278.917Z" fill="#9EC3D2" fill-opacity="0.35"/>
<path d="M411.168 286.373L411.124 285.522L411.824 284.855L412.013 284.974L412.358 285.915L414.012 286.921L413.711 287.223L412.501 286.373L411.168 286.373Z" fill="#9EC3D2" fill-opacity="0.35"/>
<path d="M392.025 273.421H389.773L389.319 273.254L389.1 273.267L388.835 273.717L388.929 274.18L389.79 274.246L389.899 274.541L389.524 276.267L389.54 276.576L390.149 276.846L390.853 276.885L392.259 276.602L392.946 275.895L392.962 275.174L394.182 274.273L394.243 273.875L393.134 273.862L392.025 273.421Z" fill="#9EC3D2" fill-opacity="0.35"/>
<path d="M386.24 280.457L385.931 280.603L386.074 280.722L386.24 280.457ZM385.166 280.485L384.783 280.564L384.974 280.801H385.261L385.166 280.485ZM384.254 280.248L384.014 280.446L384.35 280.682L384.541 280.327L384.254 280.248ZM394.276 275.184L393.995 275.262L394.057 275.469H394.463L394.635 275.314L394.276 275.184Z" fill="#9EC3D2" fill-opacity="0.35"/>
<path d="M409.893 288.836L411.179 286.497L412.456 286.503L413.589 287.307L413.509 287.969H414.387L414.477 288.368L415.898 289.062L416.774 289.099L415.108 290.561L412.82 291.138H412.253L411.243 290.433L410.843 290.296L410.07 289.364L409.559 289.37L409.499 288.943L409.893 288.836Z" fill="#9EC3D2" fill-opacity="0.35"/>
<path d="M402.348 260.706L402.714 260.838L402.94 261.184L402.714 261.424L401.58 262.438L401.385 262.972L401.645 263.746L402.519 264.28L403.686 263.827L404.625 263.72L405.5 262.572L404.851 261.317L404.234 260.116L404.332 259.342L403.944 259.288L403.843 258.724L403.32 258.027L402.74 258.354L402.512 259.115L401.897 258.813L401.042 258.643L400.851 258.825L401.179 259.068L401.778 259.059L402.261 259.696L402.348 260.706Z" fill="#9EC3D2" fill-opacity="0.35"/>
<path d="M367.216 317.197L366.752 317.155L366.289 317.409L366.625 317.706L367.216 317.197ZM367.68 317.006L367.526 317.409L367.087 317.726L367.114 317.831L367.861 317.598L368.17 317.28L367.68 317.006Z" fill="#9EC3D2" fill-opacity="0.35"/>
<path d="M394.152 269.624L393.762 269.702L392.981 270.396L392.746 270.409L392.433 270.229L392.23 270.268L392.075 270.666L390.933 270.692L390.965 270.899L391.746 271.323L392.653 271.915L392.637 272.623L392.153 273.317L393.2 273.729L394.264 273.754L394.593 273.445L395.264 273.458L395.452 273.6L396.123 273.561L396.467 273.2L396.029 272.776L395.997 272.505L396.091 272.21L395.872 271.953L395.497 272.042L395.45 271.811L396.279 271.064V270.614L395.799 270.486L395.506 270.321L394.152 269.624Z" fill="#9EC3D2" fill-opacity="0.35"/>
<path d="M366.188 290.286L367.222 290.813L366.681 291.69L366.485 291.892L365.911 291.622L365.927 290.676L366.188 290.286ZM420.121 301.919L419.718 301.941L419.692 302.228L419.96 302.273L420.363 302.118L420.121 301.919ZM415.386 297.866L415.52 298.11H415.736L415.843 297.8L415.386 297.866ZM362.644 285.698L362.456 285.84L362.596 286.071L362.861 286.007L362.644 285.698ZM397.232 273.704L396.887 273.987L396.855 274.245L397.136 274.386L397.246 274.373L397.307 273.999L397.232 273.704ZM361.677 284.737L361.413 284.826L361.506 285.018L361.817 284.852L361.755 284.8L361.677 284.737Z" fill="#9EC3D2" fill-opacity="0.35"/>
<path d="M398.744 291.849L398.723 292.208L397.726 292.191L397.116 293.154L398.55 294.435L398.904 294.192L398.894 293.941L398.65 293.849V293.672L399.2 293.388L399.687 293.69L400.227 293.698L400.216 292.184L399.362 292.151L399.351 291.833L398.744 291.849Z" fill="#9EC3D2" fill-opacity="0.35"/>
<path d="M391.629 265.347L391.305 265.747L391.434 265.907H392.18V266.174L391.986 266.388L392.115 266.948L392.535 267.615L392.858 268.228L393.376 268.389L393.602 268.71L393.57 269.003L393.247 269.163L393.215 269.296L393.441 269.402L393.247 269.616L392.793 269.776L391.918 269.697L390.556 270.204L390.102 270.017L391.399 269.404L391.237 269.324L390.556 269.271L390.977 268.764L391.042 268.336L391.593 268.283L391.496 267.456L390.847 267.43L390.653 267.244L390.685 266.63L390.296 266.656L390.685 265.589L391.398 265.161L391.629 265.347Z" fill="#9EC3D2" fill-opacity="0.35"/>
<path d="M390.269 267.136L389.685 267.189L389.654 267.617L390.042 267.83L390.463 267.751L390.626 267.511L390.269 267.136Z" fill="#9EC3D2" fill-opacity="0.35"/>
<path d="M410.948 273.3L411.525 273.916L412.247 274.188L412.69 274.186L413.452 274.017L413.643 273.774L411.39 273.085L410.948 273.3Z" fill="#9EC3D2" fill-opacity="0.35"/>
<path d="M391.314 289.6L391.513 289.979L392.028 290.641L392.314 290.632L393.095 290.269L393.04 288.206L392.436 288.061L391.59 288.08L391.314 289.6Z" fill="#9EC3D2" fill-opacity="0.35"/>
<path d="M369.545 251.051L369.305 251.365L369.738 251.718L369.545 252.072L370.171 252.739L370.939 252.543L371.949 252.465L373.102 253.485L373.871 255.173L373.247 256.233L374.111 256.115L374.592 256.35L374.639 256.862L373.583 256.9L374.159 257.371L374.88 257.489L373.295 259.216L373.103 260.276L373.439 261.14L373.198 261.651L373.631 262.75L374.448 263.496L374.688 263.457L375.216 263.339L375.263 263.967L375.599 264.36L376.223 264.321L376.704 262.868L378.145 261.415L380.308 260.709L381.653 259.335L382.276 259.57H383.573L384.629 258.707L385.927 258.275L386.071 257.608L385.255 257.019L384.534 256.823L384.149 255.998L385.063 255.567L386.505 256.195L386.985 255.763L386.217 255.409L387.851 253.603L387.563 252.818L386.794 252.779L387.082 252.073L388.043 251.719L390.013 250.306L389.438 249.796L387.227 249.953L386.073 250.896L386.747 249.678L385.978 249.521L385.545 250.149L384.922 249.718L383.191 249.875L383.672 249.247L386.506 249.169L385.785 248.383L382.711 247.913L381.462 248.07L381.51 248.581L380.213 248.228L380.26 247.874L379.347 248.031L379.154 248.424L380.116 248.698L379.107 249.288L378.386 248.62L377.377 248.385L377.232 249.013H376.223L375.837 248.346L374.253 248.15L373.388 248.503L373.34 248.974L372.236 248.856L371.563 249.091L371.611 249.641V249.916L370.362 250.112L369.786 249.799L369.4 250.308L369.977 250.819L371.178 250.701L371.273 251.016L370.36 251.37L369.544 251.051H369.545Z" fill="#9EC3D2" fill-opacity="0.35"/>
<path d="M373.39 257.176L373.678 257.53L373.533 257.962H373.245L372.86 257.607L372.955 257.333L373.39 257.176ZM385.401 256.195L386.217 256.391L386.169 256.941L385.305 256.587L385.113 256.391L385.401 256.195Z" fill="#9EC3D2" fill-opacity="0.35"/>
<path d="M384.698 286.898L384.675 287.059L385.897 287.044L385.959 286.895L385.933 286.745L385.581 286.862L384.698 286.898Z" fill="#9EC3D2" fill-opacity="0.35"/>
<path d="M385.321 288.284L385.859 288.96L386.558 288.464L387.276 288.438L387.873 289.086L388.38 289.359L388.571 289.056L388.74 288.978L388.728 288.311L388.391 287.52L387.355 287.614L386.074 287.53L386.068 287.798L385.321 288.284Z" fill="#9EC3D2" fill-opacity="0.35"/>
<path d="M397.057 291.096L396.976 291.38L397.219 291.488L397.453 291.345L397.372 291.052L397.057 291.096ZM397.79 291.858L397.779 292.059L398.581 292.091L398.571 291.865L397.79 291.858Z" fill="#9EC3D2" fill-opacity="0.35"/>
<path d="M402.334 275.24L402.315 275.432L403.133 275.769L403.524 275.891L403.319 276.068L402.863 276.106L402.798 276.274L402.955 276.565L403.466 276.787L403.689 276.803L403.717 276.305L404.051 275.976L403.139 275.095L403.26 274.796L403.473 274.789L403.798 275.003L404.003 274.919L404.069 274.62L404.831 274.709L405.063 274.168L404.664 274.398L403.493 274.375L402.731 274.697L402.334 275.24Z" fill="#9EC3D2" fill-opacity="0.35"/>
<path d="M404.11 277.116L404.398 277.123L404.518 277.269H404.937L405.216 277.186L405.31 277.278L405.124 277.477L404.306 277.5L404.157 277.34L404 277.263L404.11 277.116Z" fill="#9EC3D2" fill-opacity="0.35"/>
<path d="M347.239 285.913L348.287 286.54L349.343 285.467L349.163 285.245L348.802 285.234V284.606L348.532 284.472L347.714 284.671L348.027 285.26L347.239 285.913Z" fill="#9EC3D2" fill-opacity="0.35"/>
<path d="M385 287.792L385.247 288.192L385.941 287.704L385.948 287.554L385.13 287.457L385 287.792Z" fill="#9EC3D2" fill-opacity="0.35"/>
<path d="M363.171 289.178L364.446 290.122L363.939 290.602L363.898 290.886L364.565 291.447L364.548 291.987L363.389 292.348L362.695 291.581L362.844 290.66L362.547 289.974L363.171 289.178Z" fill="#9EC3D2" fill-opacity="0.35"/>
<path d="M349.477 285.518L351.11 285.467L351.594 285.938L351.292 285.881L350.711 285.901L349.951 286.485L349.626 287.076L349.412 286.983L349.41 286.336L348.94 286.079L349.477 285.518Z" fill="#9EC3D2" fill-opacity="0.35"/>
<path d="M400.375 272L399.751 272.421H399.118L399.043 272.785L399.332 272.847L399.478 272.67L399.705 272.834L399.887 273.353L401.136 273.83L401.26 273.715L399.993 272.646L400.122 272.452L401.326 272.414L401.447 272.1L400.663 272.119L400.375 272Z" fill="#9EC3D2" fill-opacity="0.35"/>
<path d="M357.13 283.583L357.737 283.635L357.665 284.244L357.605 284.565L356.897 284.533L356.771 284.688L356.554 284.675L356.476 284.342L357.224 284.291L357.178 283.944L356.835 283.829L357.13 283.583Z" fill="#9EC3D2" fill-opacity="0.35"/>
<path d="M400.573 271.198L400.368 271.46L400.384 271.862L400.711 271.999L401.716 272.023L403.117 271.059L403.124 270.845L402.972 270.783L401.96 271.158L400.573 271.198Z" fill="#9EC3D2" fill-opacity="0.35"/>
<path d="M440.457 289.675L440.408 290.004L441.608 291.651H441.957L444.457 295.069L445.458 295.151L445.957 293.957L445.157 293.546L445.007 292.888L440.457 289.675ZM452.304 294.229L452.703 294.629L452.443 295.23V295.344H453.033L453.242 293.842L453.433 293.886L453.779 295.257L454.109 295.33L454.422 294.743L454.109 293.857L453.849 293.471L454.666 292.985L454.475 292.769L453.694 293.184H453.485L453.104 292.726L453.226 292.525L453.869 292.268L454.841 292.511L455.136 292.496L455.866 291.939L455.571 291.697L454.894 292.125H454.459L453.8 291.868L453.332 291.883L452.811 292.569L452.48 293.755L452.304 294.229ZM456.661 291.542L456.331 292.199L456.852 292.756H457.025L457.251 292.385L457.373 292.257L457.147 292.056L456.817 291.956L456.661 291.542ZM457.686 293.701L456.974 293.829L456.766 294.015L456.939 294.258L457.407 294.115L457.701 293.972L458.136 294.258L458.327 294.129L457.981 293.786L457.686 293.701ZM445.88 295.559L445.394 295.83L445.498 296.058L447.044 296.344L447.825 296.458L448.155 296.744L449.04 296.802L449.457 297.087L449.839 297.015L450.187 296.758L449.544 296.516L448.989 296.13L447.547 295.844L445.88 295.559ZM450.933 296.802L450.552 296.974L450.778 297.174L451.332 297.003L450.933 296.802ZM451.592 296.673L451.661 296.945L452.06 297.03L452.216 296.873L452.043 296.657L451.592 296.673ZM452.548 297.388L452.062 297.446L452.497 297.746H452.843L452.548 297.388ZM452.686 296.916L452.581 297.088L453.362 297.187L453.97 296.901L453.624 296.816L453.069 296.945L452.86 296.802L452.686 296.916ZM455.239 297.017L454.336 297.632L454.423 297.789L454.804 297.732L455.255 297.388L456.14 297.288L455.967 297.046L455.239 297.017ZM459.795 292.818L459.059 292.886L458.586 293.169L458.782 293.492L459.584 293.614V293.735L459.077 294.072L459.323 294.772L459.568 294.785L459.78 294.098H460.173L460.337 294.77L462.25 296.064L462.3 297.075L462.953 297.654L463.248 297.641L463.314 294.072L462.202 293.439L461.154 294.019L460.778 294.208L460.156 293.884L460.14 292.861L459.795 292.818ZM450.917 290.661L450.509 291.914L448.295 292.525L447.632 291.89L447.311 291.962L447.912 293.856L448.811 293.939L450.01 294.31V294.681L450.56 294.599L451.36 293.693V292.952L451.811 292.211L452.311 292.293L451.71 291.264L451.618 290.601L450.917 290.661Z" fill="#9EC3D2" fill-opacity="0.35"/>
<path d="M390.461 267.869L390.3 268.736L388.874 269.163H388.42L388.097 268.977V268.817L388.81 268.443L388.616 268.122L388.648 267.669L389.265 267.695L389.548 267.152L389.51 267.634L389.989 267.944L390.461 267.869Z" fill="#9EC3D2" fill-opacity="0.35"/>
<path d="M409.156 278.195L408.877 278.921L409.239 279.792L409.654 278.519V278.247L409.156 278.195Z" fill="#9EC3D2" fill-opacity="0.35"/>
<path d="M431.358 289.017L432.167 288.693L432.648 287.272L432.627 285.529L435.38 283.1V282.524L435.947 282.343L435.925 281.678L435.314 280.706L435.664 280.185L436.429 280.761L437.411 280.797V281.121L437.106 281.391L437.171 281.535L437.696 281.552L437.805 282.037H437.959L438.353 281.461L438.549 279.951L439.205 279.572L439.226 279.051L438.964 278.637L438.549 278.619L436.924 279.497L437.027 280.062L435.885 280.059L435.482 279.656L435.263 279.679L435.337 280.239L432.869 280.095L431.34 279.538L431.258 278.852L430.238 278.335L430.226 277.271L429.527 276.617L427.919 276.742L428.094 277.314L428.881 277.835L427.519 280.114L426.607 280.17L426.457 280.445L427.355 281.123L427.311 281.809L426.394 281.797L426.296 282.138L427.057 282.111L427.079 282.381L426.533 282.615L426.882 283.154L427.559 283.335L427.974 283.084L428.171 282.635L428.411 282.545L428.696 282.779L428.609 283.355L428.413 283.625L428.457 284.093L431.358 289.017Z" fill="#9EC3D2" fill-opacity="0.35"/>
<path d="M412.511 276.313L412.236 277.427L411.094 278.203L411.166 278.57L412.281 278.632L414.057 279.813L415.05 279.79L415.076 279.517L415.44 279.198L415.949 279.433L416.017 279.381L415.032 278.311L414.566 278.288L413.946 277.637L414.069 277.158L414.258 277.138L414.324 276.925L413.479 276.199L412.511 276.313Z" fill="#9EC3D2" fill-opacity="0.35"/>
<path d="M413.455 275.291L413.239 275.474L413.26 275.765L413.528 276.072L414.481 276.924L414.335 277.265H414.17L414.087 277.606L414.626 278.169L415.123 278.204L416.117 279.328L416.675 279.363L417.11 279.618L417.131 280.13L418.85 280.948H419.492L419.886 280.675L420.383 280.658L420.673 281.204L422.53 281.415L422.585 280.857L423.199 280.675L423.228 280.476L422.738 279.93L421.648 279.214L422.22 278.788L422.18 278.6L421.463 278.509L421.159 276.531L421.123 276.076L419.178 275.468L418.316 275.627L417.833 276.111L417.405 276.087L417.282 276.173L416.33 276.122L415.128 275.406L414.681 275.006L414.476 275.046L414.106 275.391L413.455 275.291Z" fill="#9EC3D2" fill-opacity="0.35"/>
<path d="M384.604 260.76L384.258 260.6L383.791 260.841L383.39 261.144L383.401 261.313L383.92 261.366L383.888 261.669L383.705 261.821L383.749 261.919L384.268 261.946V262.437L385.016 262.544L385.459 262.75L385.957 262.767L386.813 262.419L387.473 261.706L387.484 261.223L387.083 260.946L386.747 260.714L386.595 260.803L386.367 261.044L386.108 261.017L385.848 260.784L385.512 260.81L385.024 261.141L384.731 261.399L384.568 261.284L384.557 260.998L384.72 260.908L384.604 260.76Z" fill="#9EC3D2" fill-opacity="0.35"/>
<path d="M396.249 272.263L396.14 272.49L396.17 272.737L396.592 273.14L397.256 273.121L398.722 274.513L399.638 274.73L400.179 275.147L400.307 276.098L400.597 275.96L400.849 275.441L400.786 275.069L401.216 275.037L401.278 274.826L400.068 274.353L398.919 273.43L398.462 272.879L398.35 272.355L398.935 272.241L398.785 271.895L398.426 271.649L398.117 271.637L397.686 271.734L397.279 272.198L397.034 272.331L396.654 272.141L396.249 272.263Z" fill="#9EC3D2" fill-opacity="0.35"/>
<path d="M399.813 276.023L399.557 275.91L398.682 276.023L398.712 276.216L399.498 276.54L399.617 276.645L399.823 276.67L399.813 276.023ZM397.184 274.631L396.716 274.825L396.778 275.571L397.153 275.623L397.433 275.404V274.697L397.184 274.631Z" fill="#9EC3D2" fill-opacity="0.35"/>
<path d="M355.022 284.191L354.407 284.318V284.458L354.766 284.627H355.142L355.38 284.402L355.022 284.191Z" fill="#9EC3D2" fill-opacity="0.35"/>
<path d="M409.789 278.587L409.354 279.826L409.334 280.016H410.018L410.784 279.464L410.803 279.255L410.49 278.993L411.05 278.614L410.969 278.261L410.815 278.29L410.349 278.563L409.789 278.587Z" fill="#9EC3D2" fill-opacity="0.35"/>
<path d="M454.724 275.07L454.436 275.307L454.555 275.64L454.807 275.655L454.977 276.378L455.18 276.559L455.535 276.295L455.566 275.497L455.157 275.142L454.724 275.07ZM456.231 274.401L455.687 274.761L455.567 275.216L455.937 275.424L456.474 274.965L456.549 274.453L456.231 274.401ZM455.603 273.707L454.74 274.514V274.902L455.272 274.85L456.107 274.25L456.665 274.166L456.801 274.296L456.804 274.693L456.945 274.902H457.201L457.562 274.542L457.714 274.068L458.44 274.053L459.15 273.358L458.779 272.203L458.61 271.591L458.981 271.341L458.136 270.298L457.943 270.174L457.56 270.298L457.462 270.73V271.078L457.665 271.273L457.732 272.191L457.209 272.72L456.905 272.567L456.668 272.998L456.617 273.401L456.803 273.638L456.684 273.818L456.295 273.554H456.025L455.789 273.665L455.603 273.707ZM457.057 267.42L456.787 267.615L456.923 268.033L457.16 268.227L457.142 268.867L456.838 268.964L456.602 269.395L457.294 270.174L457.75 270.048L457.835 269.853L457.345 269.492L457.649 269.172L457.97 269.213L458.671 269.598L458.747 269.167L459.08 268.669L459.546 268.283L459.042 268.095L458.849 267.794L458.596 267.933L458.377 268.155L457.904 268.072L457.414 267.807L457.057 267.42ZM459.606 266.989L459.133 267.532L459.166 267.796L459.403 267.712L459.96 267.142L459.606 266.989ZM460.232 266.196L460.062 266.571L460.08 266.821L460.368 266.668L460.638 266.223V266.057L460.232 266.196Z" fill="#9EC3D2" fill-opacity="0.35"/>
<path d="M410.13 290.967L410.6 291.716L410.036 292.682L409.962 292.975L412.777 294.397L413.649 293.277L413.208 292.984L413.199 291.508L413.752 291.014L412.87 291.254L412.204 291.261L411.162 290.542L410.833 290.427L410.224 290.473L410.117 290.62L410.13 290.967Z" fill="#9EC3D2" fill-opacity="0.35"/>
<path d="M425.321 272.585L425.266 272.95L425.31 273.176L426.848 273.597L425.498 274.042L425.345 273.938L425.053 274.091L425.067 274.175L425.222 274.232L426.169 274.253L426.65 274.134L427.267 273.499L428.039 273.608L428.97 272.554L426.479 272.277L426.134 272.96L425.699 272.579L425.321 272.585Z" fill="#9EC3D2" fill-opacity="0.35"/>
<path d="M443.638 287.061L444.36 287.692L445.705 286.878L445.823 285.593L445.129 285.985L444.768 285.82L444.278 285.767L444.005 285.609L443.872 285.615L443.513 286.096L443.572 286.318L443.935 286.484L443.892 286.936L443.638 287.061Z" fill="#9EC3D2" fill-opacity="0.35"/>
<path d="M414.875 297.423L414.956 297.643L415.306 297.688L415.44 297.401L414.875 297.423Z" fill="#9EC3D2" fill-opacity="0.35"/>
<path d="M450.316 271.872L450.641 271.983L450.74 272.913L451.385 272.943L451.993 272.362L451.783 272.208L451.807 271.585L452.366 271.033L452.081 270.614L452.267 270.441L452.369 270.008L452.046 269.888L451.77 270.002L451.429 270.848L450.878 270.809L450.24 271.424L450.316 271.872Z" fill="#9EC3D2" fill-opacity="0.35"/>
<path d="M452.094 272.439L453.186 273.167L453.372 273.872L453.334 274.25L452.801 274.741L452.341 274.761L451.82 273.841L451.622 273.402L451.832 273.269L451.782 273.085L451.523 272.99L452.094 272.439Z" fill="#9EC3D2" fill-opacity="0.35"/>
<path d="M415.865 279.51L415.467 279.334L415.191 279.56L415.221 280.014L415.863 280.214L415.865 279.51Z" fill="#9EC3D2" fill-opacity="0.35"/>
<path d="M414.699 271.056L415.423 270.803L416.232 270.78L416.288 271.791H415.815L415.453 272.273L415.926 272.916L416.624 273.238L416.687 273.606L416.944 273.537L417.181 273.307L417.571 273.376L417.767 273.699H418.269V273.285L417.961 272.55L417.822 271.954L418.714 271.632L419.913 271.792L420.666 272.412L422.367 272.275L423.317 273.377L424.432 273.422L424.739 273.01L425.13 272.94L425.185 272.481L425.77 272.458L426.078 272.757L426.385 272.16L429.034 272.459L429.479 271.977L428.726 271.219L429.73 269.428L430.539 269.474L431.097 268.373L429.982 268.281L429.341 267.775L427.574 267.943L425.298 266.145L424.495 266.727L422.063 265.824L419.078 267.018L418.996 267.868L419.693 268.533L418.333 269.161L416.568 269.13L416.198 268.686L414.815 268.624L413.504 269.313L413.475 270.254L414.699 271.056Z" fill="#9EC3D2" fill-opacity="0.35"/>
<path d="M442.752 281.786L442.325 281.963L441.97 282.809L442.563 283.427L442.464 284.11L442.563 284.143L443.551 283.751L444.876 284.961L444.844 285.723L445.132 285.851L445.844 285.378L445.785 285.004L443.73 283.409L443.75 283.165L444.006 283.019L443.828 282.612L442.978 282.498L442.752 281.786Z" fill="#9EC3D2" fill-opacity="0.35"/>
<path d="M409.312 277.383L409.322 277.665L409.178 278.092L409.676 278.127L409.708 277.521L409.312 277.383Z" fill="#9EC3D2" fill-opacity="0.35"/>
<path d="M362.628 286.276L362.503 286.494L362.706 286.673L362.971 286.558L362.628 286.276Z" fill="#9EC3D2" fill-opacity="0.35"/>
<path d="M433.047 288.3L433.092 288.693L433.136 288.979L432.876 289.015L433.007 289.658L433.397 289.836L434.004 289.551L433.831 288.873L433.875 288.624L433.311 288.196L433.047 288.3Z" fill="#9EC3D2" fill-opacity="0.35"/>
<path d="M387.044 289.908L388.984 290.968L388.938 290.166L388.351 289.601L387.779 289.187L387.044 289.908Z" fill="#9EC3D2" fill-opacity="0.35"/>
<path d="M405.991 305.243L406.53 304.903L406.785 304.912L407.092 305.225L407.061 305.539L406.543 305.695V305.817L405.972 305.79L405.835 305.451L405.991 305.243Z" fill="#9EC3D2" fill-opacity="0.35"/>
<path d="M402.158 266.558L401.719 266.619L401.754 266.957L402.44 266.999L402.7 267.173L402.768 267.475L402.979 267.716L403.606 267.695L404.207 267.069L404.172 266.698L403.041 266.553L402.158 266.558Z" fill="#9EC3D2" fill-opacity="0.35"/>
<path d="M395.675 270.291L395.83 270.405L396.01 270.418L396.05 270.129L395.998 269.966L395.748 270.063L395.675 270.291Z" fill="#9EC3D2" fill-opacity="0.35"/>
<path d="M404.341 265.678L403.041 265.505L402.819 265.976L402.444 266.068L402.248 265.872L402.052 265.569L401.839 265.696L401.719 266.22V266.505L402.178 266.442L403.131 266.456L404.279 266.631L404.739 266.521L404.713 266.099L404.341 265.678Z" fill="#9EC3D2" fill-opacity="0.35"/>
<path d="M397.624 279.634L397.9 279.597L397.981 279.077H398.119L398.682 278.321L400.073 278.651L400.452 279.134L401.82 279.645L402.532 279.399L402.462 279.154L402.151 278.908L402.187 278.738L402.692 278.388H403.693L404.072 278.804L404.876 278.899L404.98 284.226L404.383 284.207L400.775 282.674L400.385 282.854L398.902 282.551L398.5 282.116L397.913 282.05L397.615 281.615L397.624 279.634Z" fill="#9EC3D2" fill-opacity="0.35"/>
<path d="M392.012 277.36H389.972L389.573 278.085L388.652 278.447L387.891 280.128L386.411 280.853L384.332 283.653L386.372 283.62L386.452 282.797H386.971V281.676H388.772L388.812 280.226L390.533 279.897L391.253 278.941L392.373 278.908L392.012 277.36Z" fill="#9EC3D2" fill-opacity="0.35"/>
<path d="M404.815 270.925L405.363 271.613L405.317 272.003L405.513 272.01L405.977 271.368L405.419 270.801L405.103 270.695L404.815 270.925Z" fill="#9EC3D2" fill-opacity="0.35"/>
<path d="M401.655 273.48L401.396 273.779L401.47 273.963L401.778 274.009L402.02 273.74L401.655 273.48Z" fill="#9EC3D2" fill-opacity="0.35"/>
<path d="M417.457 297.667L417.08 298.397L416.435 299.327L415.306 299.393L414.822 299.858L414.903 301.276L414.204 301.94L414.284 303.07L414.877 303.623L415.576 303.557L416.276 303.135L416.115 302.471L417.729 300.19L417.405 299.902L417.729 299.349L418.078 299.437L418.186 299.216L417.863 298.087L417.674 297.622L417.457 297.667Z" fill="#9EC3D2" fill-opacity="0.35"/>
<path d="M403.078 273.856L402.483 274.016L402.511 274.429L402.651 274.575L403.358 274.306L403.078 273.856Z" fill="#9EC3D2" fill-opacity="0.35"/>
<path d="M386.919 286.537L387.463 286.233L390.488 286.218L389.788 282.242L390.586 282.223L394.45 284.633L394.969 284.694L394.773 286.033L392.344 286.214L390.47 287.357L390.128 288.14L388.826 288.185L388.494 287.404L387.496 287.462L387.534 287.206L386.919 286.537Z" fill="#9EC3D2" fill-opacity="0.35"/>
<path d="M441.687 287.665L441.197 287.024L441.552 286.617L441.217 286.113L440.9 286.063L440.84 285.218L440.367 284.468L440.229 284.647L439.913 285.086L439.517 285.135L439.319 284.923L439.22 284.353L438.923 283.897L437.714 282.965L438.011 282.805L438.066 282.131L438.508 281.525L438.699 280.016L439.339 279.659L439.36 279.109L439.743 279.213L440.348 279.928L439.899 280.713L440.202 281.329L440.948 281.569L441.085 282.241L442.088 282.368L441.811 282.759L440.546 283.167L440.408 283.833L441.337 284.81L441.376 285.331L441.159 285.51L441.178 285.673L441.871 286.503L441.891 287.365L441.687 287.665Z" fill="#9EC3D2" fill-opacity="0.35"/>
<path d="M431.856 268.392L432.885 267.278L434.12 267.744L434.959 267.927L435.987 267.157L435.289 266.736L435.749 266.206L437.12 266.602L437.595 267.239L438.453 267.257L438.902 266.985L439.826 266.954L440.028 267.235L441.563 267.298L442.535 266.488L443.879 266.603L443.801 267.706L444.39 267.816L445.112 267.548L445.878 267.857L445.86 268.013L445.305 268.026L444.727 269.017L444.278 269.053L442.533 270.917L440.75 271.559L439.635 271.63L438.709 271.142L437.525 271.659L436.359 271.363L436.029 270.671L433.82 270.544L432.69 268.978L432.14 268.949L431.856 268.392Z" fill="#9EC3D2" fill-opacity="0.35"/>
<path d="M384.346 283.768L384.731 284.18L384.651 285.959L385.212 285.629L385.611 285.563L386.171 285.727L386.811 286.452L387.411 286.123L390.332 286.09L389.611 282.103L390.385 282.1L388.943 281.198L388.945 281.784L387.12 281.786L387.111 282.904L386.586 282.903L386.519 283.729L384.346 283.768Z" fill="#9EC3D2" fill-opacity="0.35"/>
<path d="M399.843 277.099L399.548 277.148L399.559 277.415L399.824 277.488L399.942 277.407L399.843 277.099Z" fill="#9EC3D2" fill-opacity="0.35"/>
<path d="M421.116 301.431L420.848 301.718L420.901 302.028L421.466 301.652L421.116 301.431Z" fill="#9EC3D2" fill-opacity="0.35"/>
<path d="M428.782 290.135L428.835 290.512L429.13 290.6L429.183 290.268L428.782 290.135ZM429.158 290.932L429.132 291.397L429.347 291.485L429.537 291.175L429.158 290.932ZM429.213 291.841L429.024 291.995L429.24 292.15L429.509 291.995L429.213 291.841Z" fill="#9EC3D2" fill-opacity="0.35"/>
<path d="M409.481 298.602L410.031 299.072L410.02 299.672L410.126 299.925L410.856 299.281L410.771 298.463L410.38 298.219L410.033 296.782L409.43 296.765L409.704 297.8L409.481 298.602Z" fill="#9EC3D2" fill-opacity="0.35"/>
<path d="M337.099 276.371L337.952 278.567L337.555 278.749L337.599 279.185L338.35 279.657V280.531L339.277 281.258L338.88 279.112L338.35 277.693L338.482 276.711L338.924 276.747L339.101 277.075L338.924 277.911L341.221 281.584V282.894L343.076 284.675L345.108 285.439L345.947 285.039L347.14 285.839L347.847 285.257L347.538 284.601L348.554 284.347L348.863 284.493L349.172 284.239H349.658L350.541 282.965L350.099 282.638L348.377 282.965L347.979 283.911L346.963 284.057L345.77 283.657L345.24 282.276L345.641 280.533L344.821 280.115L344.431 278.441L344.104 278.327L343.507 278.823L342.821 278.524L342.553 277.408L339.837 277.175L338.435 276.313L337.099 276.37L337.099 276.371Z" fill="#9EC3D2" fill-opacity="0.35"/>
<path d="M442.265 289.369L442.62 290.02L442.699 290.866L443.175 291.468L444.216 291.983L444.421 291.851L444.72 291.802L444.676 291.483L444.3 290.735L443.749 289.778L443.702 289.946L443.038 289.921L442.561 289.361L442.265 289.369Z" fill="#9EC3D2" fill-opacity="0.35"/>
<path d="M447.818 291.891L448.351 292.395L450.398 291.816L450.802 290.539L451.714 290.486L452.548 289.992L451.466 289.348L451.219 288.994L450.686 289.799L450.881 290.261L450.556 290.647L449.943 290.518L448.457 291.409L448.496 291.924L447.818 291.891Z" fill="#9EC3D2" fill-opacity="0.35"/>
<path d="M408.423 303.494L408.898 303.816L410.018 303.259L410.198 302.431V301.065L411.995 299.864L412.303 299.873L413.391 299.02L413.221 297.261L410.399 297.552L410.505 298.11L410.918 298.403L411.034 299.36L410.062 300.136L409.829 299.701L409.871 299.127L409.311 298.63L407.937 299.153L409.216 299.684L409.259 301.233L408.412 302.26L408.423 303.494Z" fill="#9EC3D2" fill-opacity="0.35"/>
<path d="M400.539 304.747L401.131 304.782L401.479 305.069L402.304 305.078L402.505 303.164V301.911L403.034 301.824L403.235 300.51L404.578 300.475L405.053 300.154L404.249 300.127L403.161 300.249L401.988 299.901H398.691L398.776 300.666L399.875 301.989L399.684 302.667L399.694 303.024L400.539 304.747Z" fill="#9EC3D2" fill-opacity="0.35"/>
<path d="M472.996 304.532L472.934 304.791L473.748 305.719L474.186 305.874L474.248 305.513L472.996 304.532Z" fill="#9EC3D2" fill-opacity="0.35"/>
<path d="M394.238 287.427L394.689 287.418L395.095 286.92L395.777 286.82L396.503 287.183L398.053 287.219L399.251 286.82L399.701 286.504L399.735 286.088L400.57 285.399L400.791 283.879L400.242 282.937L398.835 282.657L395.581 284.73L395.12 284.694L394.921 286.133L393.261 286.269L394.238 287.427Z" fill="#9EC3D2" fill-opacity="0.35"/>
<path d="M394.359 289.935L395.052 289.962L395.887 290.723L396.293 290.814L396.612 290.687L397.096 290.632L397.26 290.081L397.919 289.727L398.633 289.7L399.94 287.735L399.919 287.291L399.315 286.912L398.107 287.346L396.49 287.328L395.719 286.929L395.17 287.029L394.884 287.436L394.862 288.585L394.401 289.119L394.359 289.935Z" fill="#9EC3D2" fill-opacity="0.35"/>
<path d="M351.278 285.999L351.665 286.062L351.677 286.711L351.227 287.762L350.013 287.663L349.742 287.157L350.103 286.542L350.786 286.022L351.278 285.999Z" fill="#9EC3D2" fill-opacity="0.35"/>
<path d="M395.864 268.118L395.064 268.44L395.233 268.566L395.251 268.888L395.082 268.86L394.895 268.622L394.447 269.201L395.135 269.318L395.391 269.539L395.527 269.542L395.617 269.042L396.049 268.893L395.864 268.118Z" fill="#9EC3D2" fill-opacity="0.35"/>
<path d="M403.88 258.57L404.237 258.356L404.205 258.116L403.979 258.009L404.011 257.716H404.206V257.556L403.363 257.37L402.1 257.477L401.97 257.93L401.679 257.85L401.484 257.583L400.868 257.609L400.802 258.116L400.511 258.222L400.348 257.955L399.051 258.809L399.311 259.049L398.825 259.235L397.723 261.022L397.335 261.236L397.366 261.396L397.755 261.556L397.658 261.903L397.009 261.876L396.814 261.689L396.394 262.09L396.134 262.25L396.069 262.624L395.843 262.731L395.26 262.838L394.968 263.586L395.162 264.813L395.389 265.374L395.648 265.587L396.231 265.561L397.074 264.894L397.397 264.441L397.495 265.108L398.046 264.308L398.078 262.065L398.527 261.834L398.661 260.597L400.021 258.996L400.669 258.809L400.961 258.516L401.933 258.702L402.419 258.942L402.581 258.275L403.393 257.875L403.88 258.57Z" fill="#9EC3D2" fill-opacity="0.35"/>
<path d="M399.075 251.613L398.783 251.373L398.136 251.631H396.949L396.762 252.197L397.428 252.677L397.719 252.643L398.136 252.06L398.49 252.266L398.238 252.677L398.113 253.278L398.405 253.654L399.03 252.797L399.844 251.99L399.531 251.767L399.075 251.613ZM399.428 250.584L398.907 250.978L399.219 251.372H399.781L400.011 251.629L400.698 251.921L401.489 251.544L402.032 251.167L401.844 250.858L401.302 250.601L400.906 250.893L400.636 250.618L400.427 250.635L400.157 251.116L399.761 250.79L399.719 250.568L399.428 250.584ZM400.615 252.351L400.198 252.66L399.845 252.883L400.011 253.122L400.345 253.207L400.887 253.001L401.139 252.744L400.909 252.435L400.615 252.351Z" fill="#9EC3D2" fill-opacity="0.35"/>
<path d="M431.395 278.845L431.477 279.461L432.904 279.989L435.191 280.128L435.105 279.676L433.577 279.332L432.279 278.701L431.395 278.845Z" fill="#9EC3D2" fill-opacity="0.35"/>
<path d="M474.123 313.411L474.31 315.114L474.059 315.888L473.119 316.456L473.181 317.127V317.849L473.432 318.108L476.003 316.301V315.888H475.376L474.498 313.463L474.123 313.411ZM472.243 317.127L472.745 317.901L471.365 318.986L471.239 319.553L470.299 319.655L468.732 320.842L467.29 320.275L467.165 319.861L469.797 318.933L472.243 317.127Z" fill="#9EC3D2" fill-opacity="0.35"/>
<path d="M418.531 284.372L419.837 283.756L420.068 282.854L419.782 282.72L419.901 281.752L420.15 281.634L420.417 281.976L422.005 282.655V283.032L420.081 285.346L419.196 285.37L418.531 284.372Z" fill="#9EC3D2" fill-opacity="0.35"/>
<path d="M351.781 288.526L351.523 289.184L352.375 289.364L352.903 289.45L352.993 288.94L353.561 288.706L354.064 288.918L354.262 289.177L354.502 289.154L354.691 288.684L354.062 288.472L353.585 288.26L353.108 288.525L352.541 288.759L351.962 288.569L351.781 288.526Z" fill="#9EC3D2" fill-opacity="0.35"/>
<path d="M352.566 294.288L352.223 294.571L352.246 295.023L355.239 299.482L358.347 301.119L358.828 300.461L358.943 299.013L358.692 298.11L357.846 296.944L357.342 297.075L357.114 297.281L356.109 296.34L356.36 295.23L357.526 294.609L357.434 294.025L356.247 293.988L355.63 293.142L355.287 293.048L355.311 293.556L353.78 295.042L352.637 294.817L352.566 294.288Z" fill="#9EC3D2" fill-opacity="0.35"/>
<path d="M463.476 294.11L463.41 297.639L464.033 297.612L464.851 296.831L465.538 296.858L465.979 297.181L466.126 298.178L467.533 298.784L467.893 298.676V298.312L466.764 297.544L466.208 296.492L466.649 296.317L466.322 295.738L465.669 295.725L465.504 295.106L463.771 294.15L463.476 294.11Z" fill="#9EC3D2" fill-opacity="0.35"/>
<path d="M468.799 295.083L468.632 295.115L468.53 295.486L468.208 295.657L467.241 295.796L467.28 296.093L468.298 296.051L468.943 295.722L468.904 295.149L468.799 295.083ZM468.374 294.213L468.218 294.393L469.068 295.009L469.185 295.369L469.416 295.348L469.443 294.977L469.184 294.786L468.374 294.213Z" fill="#9EC3D2" fill-opacity="0.35"/>
<path d="M452.276 286.781L452.124 287.018L452.039 287.31L451.195 288.186L451.246 288.366L451.601 288.325L452.698 287.322L452.276 286.781ZM453.643 286.448L453.625 287.171L453.947 287.435L454.065 287.949L454.386 288.006L454.538 287.685L454.285 287.532L454.218 286.628L453.643 286.448ZM454.557 286.727L454.539 287.366L454.724 287.616L455.045 287.31L454.961 286.754L454.557 286.727ZM454.758 286.169L455.079 286.517L455.231 286.851H455.519L455.468 286.28L455.147 286.1L454.758 286.169ZM455.384 287.477L455.451 287.894L454.859 288.284L454.369 288.326L453.846 288.785L453.864 288.995L454.353 288.869L454.691 288.689L454.979 289.286L455.486 289.578L455.689 289.522L455.874 289.341L455.47 289.008L455.707 288.855L455.977 289.035L456.162 288.785L455.977 288.479L455.943 287.798L455.384 287.477ZM452.631 283.235L452.175 283.499L452.124 284.334L452.835 285.46L453.072 285.613L453.375 285.446L453.898 285.515L453.999 285.89L454.387 285.918L454.573 285.71L454.336 285.446L454.048 285.224L453.44 285.169L453.119 284.737L453.49 284.278L453.524 283.875L453.271 283.361L452.631 283.235ZM452.868 285.725L453.002 286.114L453.238 286.24L453.408 286.06L453.138 285.754L452.868 285.725Z" fill="#9EC3D2" fill-opacity="0.35"/>
<path d="M422.904 279.895L423.363 280.453L423.319 280.74L422.708 280.938L422.663 281.406H423.363L423.603 281.244H424.936L426.138 282.108L426.291 281.693H427.187L427.208 281.172L426.292 280.453L426.488 280.057L427.428 280.004L428.695 277.846L427.995 277.397L427.734 276.642L429.437 276.516L428.432 275.347L427.896 275.228L427.678 275.445L427.513 275.455L426.508 275.976L426.837 276.426L426.465 276.75L426.006 278.135L424.87 278.728L424.716 279.377L422.904 279.895Z" fill="#9EC3D2" fill-opacity="0.35"/>
<path d="M403.174 269.055L403.323 269.28L403.359 269.52L403.235 269.753L402.953 270.198L402.714 270.285L402.404 270.175L402.219 270.183L401.768 270.321L401.256 270.197L400.426 269.716L399.613 269.36L399.286 268.952L399.224 267.992L399.86 267.54L400.69 267.315L400.962 267.292L401.026 267.46L401.378 267.575L402.352 267.59L402.653 267.583L403.147 268.203L403.024 268.456L403.077 268.755L403.173 269.055L403.174 269.055Z" fill="#9EC3D2" fill-opacity="0.35"/>
<path d="M360.697 284.403L360.23 284.274L359.856 284.467L360.043 284.645L360.681 284.722L360.697 284.403Z" fill="#9EC3D2" fill-opacity="0.35"/>
<path d="M388.945 274.322L388.836 275.571L388.523 275.802L388.555 275.944L388.773 276.24L388.632 276.6L388.867 276.666L389.415 276.614L389.383 276.253L389.742 274.579L389.664 274.348L388.945 274.322Z" fill="#9EC3D2" fill-opacity="0.35"/>
<path d="M384.926 277.958L384.735 278.156L384.926 278.354L385.213 278.235L384.926 277.958ZM378.646 275.157L378.406 275.355L378.837 275.553L378.884 275.277L378.646 275.157ZM379.941 275.038L379.653 275.195L379.893 275.353L380.277 275.273L379.941 275.038ZM380.132 275.591L379.989 275.907L380.18 276.105L380.42 275.948L380.132 275.591ZM381.282 276.222L381.187 276.42L381.33 276.539L381.713 276.341L381.282 276.222Z" fill="#9EC3D2" fill-opacity="0.35"/>
<path d="M364.356 301.506L364.744 301.852L364.699 302.586L365.819 302.53L366.665 303.415L366.596 304.205L366.049 304.882L364.928 304.919L364.882 304.543L365.202 303.922L364.104 303.357H363.191L362.506 302.755L363.004 301.591L364.356 301.506Z" fill="#9EC3D2" fill-opacity="0.35"/>
<path d="M417.515 281.221L417.423 281.8L417.695 281.969L417.942 281.951L418.034 281.221L417.82 281.096L417.515 281.221Z" fill="#9EC3D2" fill-opacity="0.35"/>
<path d="M403.3 270.909L403.254 271.123L402.231 271.818L403.086 272.844L403.635 273.157H404.62L404.945 272.935L405.382 272.889L405.707 273.049L406.283 272.513L406.172 272.245L405.587 272.122L405.187 272.106L405.207 271.647L404.676 270.965L403.3 270.909Z" fill="#9EC3D2" fill-opacity="0.35"/>
<path d="M402.129 271.911L401.767 272.133H401.591L401.47 272.439L401.898 272.845L401.927 273.167L401.746 273.375L402.373 273.909L403.051 273.74L402.995 272.952L402.129 271.911Z" fill="#9EC3D2" fill-opacity="0.35"/>
<path d="M457.329 254.352L457.64 255.23L458.262 255.376L458.884 254.572L458.529 254.023L458.661 253.548H459.594L459.371 253.913L459.46 255.23L458.127 257.936L458.26 258.521L458.215 259.508L460.701 262.47L461.189 262.579L461.233 260.167L461.721 259.801L461.188 258.851L461.631 258.448L460.654 257.388L460.121 257.425L459.944 255.67L461.32 255.377L461.409 254.865L462.12 254.719L462.519 255.012L463.006 253.404L463.849 252.234L464.515 251.941L465.093 251.977V251.429L464.16 251.283L462.872 250.405L463.494 249.82L462.961 248.833L463.404 248.467L463.938 249.052L465.27 249.455L466.735 249.565L466.913 249.053L466.159 248.432L467.002 247.482L465.092 246.933L464.604 247.738L463.982 247.079L460.475 246.092L457.144 246.567L456.656 246.786V247.005L457.367 247.299L457.278 247.993L455.99 247.554L453.149 248.468L452.661 247.628H450.707L449.818 248.396L446.666 247.812L443.781 248.287L443.426 249.017L443.869 249.127L443.825 249.676L441.028 249.931L441.207 250.662L438.63 250.296L439.253 249.346L436.632 249.236L436.855 250.224L436.012 250.553L435.302 250.005L432.417 250.408L431.307 251.248L431.263 251.759L430.552 251.795L430.464 251.211L432.729 249.602V248.505L431.264 248.176L429.354 248.687L428.556 248.028H428.2L427.757 248.759L428.112 249.088L425.579 250.222L423.404 251.575L422.072 253.073V253.694L423.492 254.169L422.782 254.608L421.273 254.17L420.651 254.608L419.718 253.731L419.54 254.06L420.561 256.692L420.828 256.766L421.538 256.473L421.894 256.692V257.167L421.227 256.948L420.828 257.203L421.095 257.678L420.872 258.922L419.496 259.031L419.408 258.629L420.206 258.226L420.385 257.129L419.496 256.178L419.185 254.534L417.765 254.35L417.632 254.935L417.899 255.228L417.322 255.631L417.544 256.728L418.387 257.021L418.565 257.825L417.721 257.387L415.546 257.058L415.279 257.642L413.547 258.153L413.28 257.788L411.015 258.812L410.971 259.507L410.081 259.616L410.349 259.105V258.594L409.459 258.338L408.882 258.522L409.37 259.29L409.725 259.801V260.204L409.058 260.094L408.926 259.984L408.26 260.569L408.615 261.08L407.106 261.044L407.594 261.557L407.461 261.776H406.663L406.085 261.447L405.953 260.533L405.02 260.24V259.874L406.974 260.204L408.04 260.277L408.483 259.729L408.084 259.144L405.243 258.23L404.262 258.429L403.927 258.665L404.031 259.206L404.448 259.265L404.351 260.117L405.637 262.586L404.708 263.79L404.644 264.062L405.116 264.333L404.69 264.563L404.407 264.567L404.461 265.628L404.851 266.08L404.856 266.519L405.356 266.556L406.121 266.795L406.93 267.704L406.939 267.944L406.676 268.312L407.28 268.285L407.868 268.423L408.664 269.343L410.622 269.489L410.536 270.583L409.862 271.056L410.001 271.24L409.335 271.825L409.158 272.374L409.558 272.849L410.846 273.214L411.379 272.958L414.798 274.018L414.931 273.725L414.22 273.177V272.482L413.777 272.372L413.865 271.788L414.576 271.093L413.302 270.314L413.39 269.229L414.753 268.497L416.352 268.571L416.619 268.974L418.262 269.047L419.462 268.499L418.839 267.95L418.972 266.926L422.08 265.684L424.47 266.564L425.269 265.979L427.622 267.807L429.398 267.661L430.02 268.173L431.707 268.318L432.817 267.076L434.237 267.588L434.992 267.698L435.746 267.149L435.08 266.784L435.658 266.053L437.301 266.492L437.656 267.077L438.366 267.113L438.81 266.857L440.009 266.821L440.142 267.077L441.518 267.15L442.45 266.346L444.36 266.53L444.938 266.346L445.115 265.468L444.537 264.408L445.115 264.006H446.935L448.666 265.688L450.886 266.711H451.552L451.64 266.272L452.439 265.87L452.527 268.246L451.817 268.282V268.867L452.216 269.27L452.142 269.793L452.437 269.892L452.616 269.527L452.883 269.6L453.059 269.746L453.858 269.6L454.656 267.699L454.745 265.322L453.723 263.42L452.435 262.141L451.813 262.215V262.618L450.304 262.143L450.882 261.119L451.37 258.413L453.412 257.902L454.389 257.391H455.454L455.186 257.684L455.453 258.049L456.386 257.245L456.919 257.281L456.831 256.806L455.986 256.66L456.564 254.942L457.328 254.354L457.329 254.352Z" fill="#9EC3D2" fill-opacity="0.35"/>
<path d="M401.742 267.068L401.477 267.468L402.431 267.476H402.625L402.588 267.25L402.44 267.107L401.742 267.068ZM461.228 262.885L461.01 263.108L461.027 263.456L461.23 263.441L461.567 262.955L461.228 262.885ZM468.517 249.365L468.1 249.587L468.001 249.87L468.197 250.052L468.639 249.931L469.08 250.052L469.326 250.113L469.301 249.446L468.517 249.365ZM409.598 249.423L409.902 249.522L409.688 249.823V250.249L409.232 250.474H408.746L408.472 250.199L408.502 249.898L408.716 249.672H409.142L409.598 249.423ZM410.753 249.147V249.447L411.057 249.648L411.483 249.624L411.848 249.348V249.147H411.514L411.24 249.222L411.027 249.021L410.753 249.147ZM412.488 249.173L412.702 249.548L413.128 249.573L413.432 249.473L413.28 249.122L412.884 249.047L412.488 249.173ZM414.221 248.672L413.887 248.621L413.583 248.873L413.735 249.098L413.827 249.449L414.223 249.199L414.315 248.923L414.221 248.672ZM416.077 251.327L415.985 251.678L415.285 252.179L413.794 252.455L412.576 254.108L412.362 254.584L413.58 254.836L413.762 254.235L414.128 253.308L415.071 252.907L415.862 252.406L416.44 252.205H416.744V251.529L416.077 251.327ZM412.153 254.984L412.974 255.06L413.248 255.836L413.948 256.437L413.704 256.838H413.278L412.882 256.463L412.001 256.438L411.635 256.037V255.761L412.183 255.636L412.153 254.984ZM424.992 246.443L424.596 246.242H424.14L424.049 246.467L423.563 246.693L423.197 246.792L423.137 247.093L423.988 247.143L424.992 246.443ZM425.934 246.518L425.72 246.893L425.294 246.869L424.625 247.27L424.443 247.771H424.868L425.112 247.445L425.69 247.795L426.238 247.595L426.634 247.319L426.482 246.893L426.268 246.593L425.934 246.518ZM426.817 246.793L427.031 247.495L427.365 248.146L427.731 247.621L428.431 247.495V247.119L427.975 246.844L426.817 246.793ZM443.51 245.67L443.986 245.996L444.323 245.882L444.422 245.425L443.729 245.033L443.273 245.279L442.164 245.361V245.77L440.994 245.785V246.454L442.361 247.286L442.718 247.073L442.639 246.485L443.511 246.307L443.333 246.029L443.017 245.768L443.51 245.67ZM444.779 245.279L445.095 245.768L446.325 245.654L446.662 245.295L446.583 244.985L446.245 244.87L445.929 245.067L445.018 245.23L444.779 245.279ZM444.699 247.188L444.084 247.058L443.729 247.368L443.57 247.792L444.402 247.728L445.037 247.466L444.699 247.188ZM460.634 244.365L460.119 244.235L459.525 244.414L459.228 244.773L459.605 245.182L460.596 244.823L460.794 244.643L460.634 244.365ZM460.824 263.734V264.346L461.061 264.416L461.23 264.193V263.721L460.824 263.734ZM453.914 261.522L453.898 262.413L455.266 264.139L455.755 265.64L456.617 266.975L456.954 267.072L457.242 266.877L457.377 266.557L456.143 265.458L456.177 264.888L456.447 264.791L456.515 264.457L454.099 261.662L453.914 261.522ZM463.442 258.754L463.105 258.782L463.308 259.019L463.73 259.256L463.849 259.144L463.442 258.754ZM464.099 258.922L464.151 259.159L464.674 259.284L464.725 259.117L464.099 258.922ZM466.971 259.83L467.191 260.154L467.559 260.134L467.633 259.911L466.971 259.83ZM470.676 260.335L470.97 260.78L471.191 260.578V260.275L470.676 260.335Z" fill="#9EC3D2" fill-opacity="0.35"/>
<path d="M407.831 292.899L408.328 293.273L408.306 293.673L407.536 293.686V293.244L407.831 292.899Z" fill="#9EC3D2" fill-opacity="0.35"/>
<path d="M415.99 280.386L417.228 281.797L417.628 282.057L417.807 282.689L419.713 282.812L419.929 282.905L419.715 283.684L418.462 284.288L416.63 284.741L415.653 285.521L414.492 284.968L413.789 285.47L412.81 284.164L412.139 283.912L411.895 283.61V282.957L409.451 280.543L409.36 280.115H410.063L410.918 279.512L410.947 279.21L410.704 279.009L411.194 278.683L412.233 278.733L414.005 279.94L415.051 279.902L415.118 280.113L415.99 280.386Z" fill="#9EC3D2" fill-opacity="0.35"/>
<path d="M469.946 295.73L470.165 296.228L470.552 296.536L470.668 296.451L470.629 296.121L470.191 295.687L469.946 295.73ZM471.015 296.472L471.042 296.801L471.287 296.992L471.519 296.875L471.312 296.524L471.015 296.472ZM471.324 297.29L471.117 297.47L471.336 297.799L471.594 297.863L471.582 297.641L471.324 297.29ZM471.828 297.099L472.008 297.46L472.356 297.799L472.549 297.545L472.29 297.184L471.828 297.099ZM472.731 297.641L472.833 298.086L473.079 298.362L473.285 298.013L472.731 297.641ZM473.013 298.638L472.923 298.765L473.22 299.085L473.427 299.095L473.298 298.68L473.013 298.638ZM472.356 299.274L472.046 299.391L472.317 299.698L472.548 299.591L472.356 299.274Z" fill="#9EC3D2" fill-opacity="0.35"/>
<path d="M419.232 295.561L419.125 295.739L419.42 295.938L419.636 295.739L419.232 295.561ZM420.74 294.234L420.416 294.411L420.658 294.721H420.982L420.74 294.234ZM420.874 295.009L420.658 295.208L420.819 295.407L421.114 295.452L421.14 295.031L420.874 295.009Z" fill="#9EC3D2" fill-opacity="0.35"/>
<path d="M405.02 288.239L404.499 287.988L404.024 287.222L404.05 286.508L404.709 286.045L404.741 284.337L405.175 284.347L405.126 283.398L409.685 283.431L410.337 282.894L411.743 284.733L410.972 285.474V286.608L410.032 288.26L409.819 288.644L409.061 287.756L408.508 288.331L407.883 288.47L405.851 288.303L404.965 288.561L405.02 288.239Z" fill="#9EC3D2" fill-opacity="0.35"/>
<path d="M400.746 258.922L401.092 259.183H401.74L402.097 259.744L402.195 260.704L401.321 261.211V261.717L400.704 262.412L400.347 262.438L399.861 263.105L399.893 263.746L400.736 264.253L400.671 264.546L400.347 264.946L399.861 265.292L399.893 266.44L399.148 266.654L398.888 267.107H398.531L398.337 266.307L397.526 265.291L398.192 264.38L398.238 262.128L398.697 261.922L398.809 260.634L400.118 259.102L400.746 258.922Z" fill="#9EC3D2" fill-opacity="0.35"/>
<path d="M400.882 265.505L400.509 265.746L400.696 266.099L401.027 265.837L400.882 265.505Z" fill="#9EC3D2" fill-opacity="0.35"/>
<path d="M444.3 292.026L444.44 292.091L444.756 292.07L444.73 291.875L444.472 291.909L444.3 292.026Z" fill="#9EC3D2" fill-opacity="0.35"/>
<path d="M400.23 271.543L399.781 271.762L398.944 271.912L399.111 272.308L399.698 272.313L400.239 271.944L400.23 271.543Z" fill="#9EC3D2" fill-opacity="0.35"/>
<path d="M400.414 270.841L400.536 270.929L400.551 271.079L401.9 271.055L402.896 270.703L402.88 270.347L402.69 270.416L402.416 270.296L402.248 270.29L401.807 270.435L401.206 270.316L400.414 270.841Z" fill="#9EC3D2" fill-opacity="0.35"/>
<path d="M385.941 289.034L386.94 289.822L387.652 289.116L387.206 288.546L386.593 288.596L385.941 289.034Z" fill="#9EC3D2" fill-opacity="0.35"/>
<path d="M385.864 287.193L384.68 287.17L384.899 287.604L385.021 287.336L386.507 287.463L386.672 287.458L387.368 287.479L387.392 287.227L386.757 286.604L386.048 285.82L385.608 285.669L385.269 285.74L384.573 286.153L384.414 286.384L384.365 286.616L384.621 286.766L385.476 286.756L386.026 286.634L386.088 286.855L386.039 287.146L385.864 287.193Z" fill="#9EC3D2" fill-opacity="0.35"/>
<path d="M417.398 287.722L418.17 287.48L418.444 287.614L418.414 288.175L417.702 289.832L413.849 293.205L413.402 292.954L413.372 291.53L413.951 290.986L415.181 290.675L416.985 289.119L417.457 288.775L417.589 288.273L417.398 287.722Z" fill="#9EC3D2" fill-opacity="0.35"/>
<path d="M364.598 290.19L364.958 290.46L365.516 290.178L366.025 290.191L365.96 290.352L365.746 290.716L365.713 291.622L364.697 291.959L364.746 291.379L364.091 290.879L364.124 290.622L364.598 290.19Z" fill="#9EC3D2" fill-opacity="0.35"/>
<path d="M409.761 288.738L409.344 288.888L409.476 289.481H409.995L410.7 290.317L410.135 290.376L409.989 290.592L409.976 290.902L408.279 290.877L408.106 290.662L406.921 290.607L404.744 288.776L404.961 288.67L405.884 288.442L407.907 288.567L408.595 288.441L409.052 287.941L409.761 288.738Z" fill="#9EC3D2" fill-opacity="0.35"/>
<path d="M395.979 292.502L396.182 292.418L396.334 292.519L396.182 292.711L395.998 292.652L395.979 292.502ZM396.387 291.975L396.693 291.933L396.795 292.092L396.643 292.226L396.492 292.209L396.387 291.975Z" fill="#9EC3D2" fill-opacity="0.35"/>
<path d="M348.435 286.599L349.265 286.937L349.253 286.401L348.827 286.189L348.435 286.599Z" fill="#9EC3D2" fill-opacity="0.35"/>
<path d="M409.394 276.905L409.333 277.272L409.831 277.442L409.81 278.459L410.308 278.45L410.806 278.143L410.993 278.117L412.124 277.382L412.352 276.315L410.092 276.503L409.854 276.93L409.394 276.905Z" fill="#9EC3D2" fill-opacity="0.35"/>
<path d="M408.369 303.598L407.926 303.658L407.735 304.085L408.074 304.338H408.486L408.834 303.929L408.369 303.598Z" fill="#9EC3D2" fill-opacity="0.35"/>
<path d="M399.875 286.56L399.898 286.134L400.735 285.469L400.96 283.834L400.402 282.963L400.793 282.799L404.574 284.409L404.55 285.988L403.884 286.452V287.266L404.321 287.956H403.55L402.275 288.988L402.241 289.299L401.3 289.289L401.288 289.431L400.75 289.373L400.383 288.805L400.107 288.694L400.142 288.521L400.488 288.304V287.291L400.009 287.23L399.432 286.879L399.875 286.56Z" fill="#9EC3D2" fill-opacity="0.35"/>
<path d="M393.237 290.206L393.71 289.98L393.699 288.486L393.392 288.078L393.194 288.214L393.237 290.206Z" fill="#9EC3D2" fill-opacity="0.35"/>
<path d="M441.791 282.874L442.364 283.476V284.208L442.562 284.289L443.472 283.931L443.65 283.98L444.737 285.005L444.698 285.706L444.343 285.656L444.026 285.493L443.79 285.509L443.374 286.078L443.454 286.387L443.79 286.533L443.77 286.875L443.534 286.973L442.722 286.517V286.11L442.387 286.094L442.249 286.273L442.178 288.095L442.703 288.878L443.632 289.61L443.593 289.822L443.098 289.806L442.645 289.253H442.169L441.576 288.862L441.397 288.454L441.654 288.112L441.742 287.803L442.021 287.399L442.009 286.469L441.327 285.663L441.298 285.565L441.519 285.383L441.468 284.743L440.56 283.804L440.666 283.262L441.791 282.874Z" fill="#9EC3D2" fill-opacity="0.35"/>
<path d="M424.151 274.409L424.877 273.672H425.151L425.246 273.837L424.911 274.036V274.2L425.131 274.33L426.193 274.382L426.539 274.261L426.697 274.287L426.803 274.564L427.434 274.616L427.751 275.162L427.655 275.326L427.529 275.335L427.404 275.127L427.13 275.11L426.657 275.162L426.625 275.526L426.152 275.5L426.173 275.041L425.827 274.764L425.3 275.119L425.311 275.353L424.848 275.483H424.574L424.596 274.677L424.151 274.409Z" fill="#9EC3D2" fill-opacity="0.35"/>
<path d="M417.73 273.795L417.621 274.175H416.888V274.689L417.675 275.113L417.432 275.695V275.964L417.759 276.009L418.193 275.539L419.172 275.36L421.264 276.009L421.291 276.478L422.458 276.567L423.762 275.449L423.6 275.09L422.73 274.934L420.285 273.636L420.176 273.166H419.252L418.844 273.793H418.435L417.73 273.795Z" fill="#9EC3D2" fill-opacity="0.35"/>
<path d="M396.716 276.645L397.693 276.323L398.014 276.494L398.026 276.702L397.877 276.862L397.899 277.146L398.049 277.213V277.724L397.877 277.961L397.899 278.112L398.555 278.301L398.027 278.973L397.82 278.963L397.784 279.502L397.555 279.531L397.358 279.389L397.404 278.841L396.761 278.33L396.68 277.885L396.991 277.686L396.716 276.645Z" fill="#9EC3D2" fill-opacity="0.35"/>
<path d="M406.383 274.354L405.912 274.116L405.652 273.946L405.215 274.099L404.913 274.724L405.367 274.641L405.686 274.442L406.389 274.599L405.991 274.912L404.933 274.871L404.543 275.22V275.391L404.792 275.561V275.749L404.688 275.971L404.792 276.159L405.124 276.023L405.457 276.314L405.373 276.519L405.25 276.656L405.435 276.826L406.347 276.979L406.988 276.757V276.433L407.299 276.484L408.045 276.842L408.852 276.74L409.204 276.467L409.431 276.535V276.842H409.742L410.011 276.416L412.372 276.211L413.402 276.109L413.129 275.817L413.124 275.423L413.331 275.221L412.579 274.727L412.619 274.301H412.206L411.52 274.026L411.126 274.367L409.677 274.332L408.808 273.907L407.973 273.968L407.045 274.424L406.383 274.354Z" fill="#9EC3D2" fill-opacity="0.35"/>
<path d="M362.674 287.828L362.486 287.97L362.283 287.995V288.2L362.658 288.482L362.813 288.277L362.907 288.046L362.875 287.854L362.674 287.828Z" fill="#9EC3D2" fill-opacity="0.35"/>
<path d="M451.938 279.675L451.313 280.064L451.28 280.815L451.82 281.329L451.954 281.232L451.938 279.675Z" fill="#9EC3D2" fill-opacity="0.35"/>
<path d="M410.35 297.424L413.17 297.141L412.476 296.044L412.439 294.993L412.663 294.49L409.727 292.983L408.807 293.107L408.487 293.301L408.458 293.741L408.252 294.352L408.036 294.561L407.727 294.585L408.301 296.158L409.285 296.632L410.143 296.649L410.35 297.424Z" fill="#9EC3D2" fill-opacity="0.35"/>
<path d="M403.9 268.822L403.387 269.058L403.514 269.503L403.041 270.319L403.045 270.678L403.268 270.793L404.695 270.851L405.094 270.581L405.522 270.698L406.135 271.366L405.686 272.025L406.22 272.152L406.918 271.495L407.317 271.554L407.688 271.765L407.361 272.118L407.803 272.68H408.273L408.515 272.305L409.013 272.222L409.027 271.918L408.101 271.801L408.13 271.473H409.028L409.996 270.839L410.424 270.534L410.494 269.573L408.586 269.433L407.803 268.531L407.262 268.379L406.607 268.402L406.312 268.998L404.969 269.013L404.532 268.848L403.9 268.822Z" fill="#9EC3D2" fill-opacity="0.35"/>
<path d="M407.916 292.782L408.451 293.192L408.787 293.017L409.695 292.895L409.851 292.909L409.909 292.627L410.422 291.746L409.99 291.013L408.593 291.02L408.584 291.322L408.772 291.469L408.743 291.771L407.916 292.782Z" fill="#9EC3D2" fill-opacity="0.35"/>
<path d="M339.09 266.684L338.913 267.265L338.297 266.938H337.989L337.812 267.555L335.655 271.505L336.227 274.947L336.933 275.237L337.065 276.18H338.517L339.926 277.049L342.697 277.267L343.005 278.426L343.445 278.681L344.061 278.174L344.546 278.354L344.986 280.021L345.733 280.419L346.35 279.476L348.242 278.353L349.474 278.823L350.53 278.896L350.574 278.353L352.774 278.389L353.214 278.788L353.302 279.693L353.038 280.2L353.346 281.069H354.007L354.668 280.236L354.404 279.838L354.141 278.968L354.537 277.989L356.341 276.722L357.705 276.396L357.528 275.344L359.42 273.677L361.313 273.423L361.005 272.555L362.854 271.686V270.527L362.677 270.454L362.016 270.635L361.928 271.345L359.731 271.367L358.01 272.301L355.309 273.023L354.878 272.591L356.104 271.075L355.498 270.603L355.086 269.962L354.233 269.402L353.305 269.338L351.552 268.361L339.09 266.684Z" fill="#9EC3D2" fill-opacity="0.35"/>
<path d="M325.028 251.525L325.639 252.459L326.032 252.387V252.063L325.028 251.525ZM321.581 259.742L321.551 260.177L321.932 260.104V259.911L321.581 259.742ZM320.994 259.935L320.231 260.25L320.349 260.588L320.643 260.395L321.229 260.177L320.994 259.935ZM317.822 260.346L317.295 260.249L317.206 260.443L317.264 260.805L317.822 260.346ZM316.706 260.322L316.206 260.154L316.029 260.419L316.353 260.685L316.706 260.322ZM329.258 250.303L327.775 250.591L328.081 251.955L329.694 252.315L329.78 252.602L327.383 253.213L326.031 255.044L326.51 256.983L327.295 257.413L327.906 256.946L328.081 257.234L327.339 257.952L324.461 259.029L322.628 259.388L322.584 259.927L326.814 258.922L328.558 258.526L330.171 256.91L331.959 255.941L331.044 257.198L332.048 257.306L333.749 256.695L334.055 257.7L335.231 257.915L336.452 258.884L336.539 259.602L336.364 259.781L336.581 260.462H336.887L336.931 259.313H337.279L337.366 262.149L338.239 261.538L337.628 258.594H336.712L335.709 257.553L340.636 250.731L335.753 247.608L330.302 248.47L330.085 249.834L331.262 250.409L330.825 251.343L329.258 250.303Z" fill="#9EC3D2" fill-opacity="0.35"/>
<path d="M365.875 306.187L365.513 306.503L365.663 308.204L366.801 308.474L368.248 307.288L365.875 306.187Z" fill="#9EC3D2" fill-opacity="0.35"/>
<path d="M423.927 275.452L424.471 275.475V274.714L423.955 274.468L424.825 273.573H425.178L425.532 273.909L426.455 273.619L425.178 273.261L425.129 273.044L424.825 273.105L424.527 273.529L423.238 273.495L422.293 272.402L420.632 272.536L419.841 271.895L418.746 271.744L417.951 272.008L418.412 273.261L418.417 273.683L418.753 273.689L419.164 273.047L420.26 273.059L420.422 273.551L422.77 274.824L423.678 274.995L423.927 275.452Z" fill="#9EC3D2" fill-opacity="0.35"/>
<path d="M362.644 286.827L362.427 286.956L362.598 287.213L362.879 287.085L362.644 286.827ZM362.379 287.327L362.176 287.493L362.253 287.595H362.503L362.58 287.428L362.379 287.327Z" fill="#9EC3D2" fill-opacity="0.35"/>
<path d="M357.059 287.993L357.137 288.367L357.711 288.516L357.842 287.827L358.448 287.314L359.054 287.895L360.448 288.206L361.628 288.003L362.432 288.813L363.038 289.123L362.373 289.951L362.596 290.577L362.216 290.962L361.822 291.231L360.969 290.88L360.773 291.042V291.542L361.397 291.784L360.478 292.596L359.872 292.556L359.262 292.008L359.133 289.949L357.052 289.369L356.674 288.463L357.059 287.993Z" fill="#9EC3D2" fill-opacity="0.35"/>
<path d="M444.447 287.78L444.657 288.05L444.696 288.359L445.249 288.409L445.92 287.676L446.553 287.531L446.889 286.783L446.731 285.578L446.079 284.846L445.393 284.397L444.518 283.17L445.145 282.312L444.247 281.47L443.528 281.445L442.881 281.729L443.074 282.409L443.936 282.533L444.168 283.057L443.864 283.219L443.883 283.349L445.906 284.966L445.985 285.441L445.864 286.943L444.447 287.78Z" fill="#9EC3D2" fill-opacity="0.35"/>
<path d="M475.51 301.176L475.291 301.415L475.383 301.685L475.492 301.746L475.692 301.535L475.51 301.176ZM475.619 301.911L475.637 302.105L475.873 302.166L476.038 302.091L475.873 301.88L475.619 301.911ZM475.965 303.652L475.856 303.787L476.02 303.937L476.294 303.862L475.965 303.652Z" fill="#9EC3D2" fill-opacity="0.35"/>
<path d="M413.868 285.583L414.122 286.201V286.805L414.734 287.258L419.041 285.824L419.082 285.43L418.391 284.417L416.658 284.869L415.663 285.668L414.509 285.111L413.868 285.583Z" fill="#9EC3D2" fill-opacity="0.35"/>
<path d="M418.75 287.087L419.126 287.432L419.635 287.18L419.818 287.129L419.585 286.945L419.138 287.053L418.75 287.087Z" fill="#9EC3D2" fill-opacity="0.35"/>
<path d="M407.184 302.101L405.788 303.155L405.456 303.806L404.35 303.694L403.43 304.362L402.819 304.313L402.868 303.389L402.65 303.327L402.499 305.217L401.414 305.208L401.087 304.893L400.608 304.889L401.045 305.913L401.824 306.515L401.267 307.045L401.628 307.709L402.462 307.969L403.126 307.507L405.029 307.516L405.165 307.377L406.01 307.256L408.867 304.931L408.856 304.199L408.551 304.523H408.093L407.537 304.142L407.82 303.567L408.306 303.486L408.261 302.306L407.184 302.101ZM406.514 304.772L406.781 304.763L407.215 305.147L407.202 305.592L406.695 305.801L406.663 305.949L405.89 305.956L405.647 305.479L405.868 305.13L406.514 304.772Z" fill="#9EC3D2" fill-opacity="0.35"/>
<path d="M403.719 299.368L404.279 300.003L405.147 300.046L405.454 300.185L406.362 300.194L407.145 299.297L409.332 298.497L409.523 297.793L409.269 296.783L408.128 296.252L407.366 296.296L406.986 296.983L406.997 297.296L407.895 297.653L407.948 298.428L407.176 298.463L406.985 298.202L404.84 297.453L404.777 298.028L403.762 298.054L403.719 299.368Z" fill="#9EC3D2" fill-opacity="0.35"/>
<path d="M405.506 300.465L407.091 301.928L408.306 302.181L409.121 301.137L409.057 299.754L407.736 299.196L407.239 299.38L406.499 300.302L405.474 300.294L405.506 300.465Z" fill="#9EC3D2" fill-opacity="0.35"/>
<path d="M171.982 161.769C172.289 159.581 174.324 158.032 176.456 158.612C191.471 162.7 201.458 177.414 199.238 193.229C196.829 210.383 180.971 222.336 163.817 219.928C148.002 217.708 136.607 204.056 136.812 188.495C136.841 186.286 138.891 184.757 141.079 185.064L164.216 188.312C166.404 188.619 168.426 187.095 168.734 184.907L171.982 161.769Z" fill="#9EC3D2" fill-opacity="0.35"/>
<path d="M165.536 179.916C165.978 182.88 163.123 185.259 160.287 184.29L140.298 177.461C139.553 177.207 138.857 176.752 138.525 176.038C135.157 168.806 150.485 157.89 159.726 157.778C161.301 157.759 162.434 159.084 162.666 160.642L165.536 179.916Z" fill="#9EC3D2" fill-opacity="0.35"/>
<rect x="48.6826" y="63.4851" width="74.4449" height="74.4449" rx="3.5" stroke="#78AEC3" stroke-opacity="0.15"/>
<rect x="48.6826" y="151.646" width="165.996" height="74.4449" rx="3.5" stroke="#78AEC3" stroke-opacity="0.15"/>
<rect x="140.234" y="63.4851" width="74.4449" height="74.4449" rx="3.5" stroke="#78AEC3" stroke-opacity="0.15"/>
<rect x="0.287598" y="0.405975" width="230.149" height="84.7561" rx="4" fill="#9FC4D2" fill-opacity="0.15"/>
<rect x="10.417" y="11.8176" width="209" height="3.42302" rx="1.71151" fill="#B5D5E5" fill-opacity="0.35"/>
<rect x="10.417" y="23.2583" width="209" height="3.42302" rx="1.71151" fill="#B5D5E5" fill-opacity="0.35"/>
<rect x="10.417" y="34.6991" width="209" height="3.42302" rx="1.71151" fill="#B5D5E5" fill-opacity="0.35"/>
<rect x="10.417" y="46.1397" width="209" height="3.42302" rx="1.71151" fill="#B5D5E5" fill-opacity="0.35"/>
<rect x="10.417" y="57.5803" width="209" height="3.42302" rx="1.71151" fill="#B5D5E5" fill-opacity="0.35"/>
<rect x="10.417" y="69.0208" width="209" height="3.42302" rx="1.71151" fill="#B5D5E5" fill-opacity="0.35"/>
<circle cx="18.4671" cy="61.733" r="2.19322" fill="#ADCAD6" stroke="#ADCAD6"/>
<circle cx="67.5292" cy="48.5808" r="2.19322" fill="#ADCAD6" stroke="#ADCAD6"/>
<circle cx="97.1986" cy="72.4438" r="2.19322" fill="#ADCAD6" stroke="#ADCAD6"/>
<circle cx="129.287" cy="42.8605" r="2.19322" fill="#ADCAD6" stroke="#ADCAD6"/>
<circle cx="181.371" cy="40.0908" r="2.19322" fill="#ADCAD6" stroke="#ADCAD6"/>
<circle cx="246.544" cy="16.2224" r="2.19322" fill="#ADCAD6" stroke="#ADCAD6"/>
<line x1="18.3376" y1="61.2502" x2="67.3999" y2="48.1256" stroke="#ADCAD6"/>
<line x1="96.8856" y1="72.8334" x2="67.2163" y2="48.9984" stroke="#ADCAD6"/>
<line x1="96.8598" y1="72.076" x2="128.949" y2="42.493" stroke="#ADCAD6"/>
<line x1="181.398" y1="40.5901" x2="129.314" y2="43.36" stroke="#ADCAD6"/>
<line x1="181.198" y1="39.6221" x2="245.521" y2="15.7536" stroke="#ADCAD6"/>
<rect x="239.044" y="294.406" width="171.977" height="84.7561" rx="4" fill="#9FC4D2" fill-opacity="0.15"/>
<rect x="244.41" y="306.684" width="157.761" height="3.42302" rx="1.71151" fill="#B5D5E5" fill-opacity="0.35"/>
<rect x="244.41" y="318.125" width="157.761" height="3.42302" rx="1.71151" fill="#B5D5E5" fill-opacity="0.35"/>
<rect x="244.41" y="329.566" width="157.761" height="3.42302" rx="1.71151" fill="#B5D5E5" fill-opacity="0.35"/>
<rect x="244.41" y="341.006" width="157.761" height="3.42302" rx="1.71151" fill="#B5D5E5" fill-opacity="0.35"/>
<rect x="244.41" y="352.447" width="157.761" height="3.42302" rx="1.71151" fill="#B5D5E5" fill-opacity="0.35"/>
<rect x="244.41" y="363.887" width="157.761" height="3.42302" rx="1.71151" fill="#B5D5E5" fill-opacity="0.35"/>
<circle cx="2.69322" cy="2.69322" r="2.69322" transform="matrix(1 0 0 -1 247.783 323.357)" fill="#ADCAD6"/>
<circle cx="282.363" cy="351.773" r="2.69322" fill="#ADCAD6"/>
<circle cx="2.69322" cy="2.69322" r="2.69322" transform="matrix(1 0 0 -1 296.846 336.509)" fill="#ADCAD6"/>
<circle cx="2.69322" cy="2.69322" r="2.69322" transform="matrix(1 0 0 -1 328.732 341.006)" fill="#ADCAD6"/>
<circle cx="2.69322" cy="2.69322" r="2.69322" transform="matrix(1 0 0 -1 389.146 335.826)" fill="#ADCAD6"/>
<circle cx="2.69322" cy="2.69322" r="2.69322" transform="matrix(1 0 0 -1 400.678 316.809)" fill="#ADCAD6"/>
<circle cx="2.69322" cy="2.69322" r="2.69322" transform="matrix(1 0 0 -1 326.515 312.646)" fill="#ADCAD6"/>
<circle cx="361.095" cy="362.483" r="2.69322" fill="#ADCAD6"/>
<circle cx="2.69322" cy="2.69322" r="2.69322" transform="matrix(1 0 0 -1 358.604 342.229)" fill="#ADCAD6"/>
<g filter="url(#filter1_dd_4982_38710)">
<circle cx="2.69322" cy="2.69322" r="2.69322" transform="matrix(1 0 0 -1 415.235 328.958)" fill="#ADCAD6"/>
</g>
<g filter="url(#filter2_dd_4982_38710)">
<circle cx="2.69322" cy="2.69322" r="2.69322" transform="matrix(1 0 0 -1 434.41 312.801)" fill="#ADCAD6"/>
</g>
<line y1="-0.5" x2="50.7875" y2="-0.5" transform="matrix(0.966032 0.258422 0.258422 -0.966032 250.477 320.663)" stroke="#ADCAD6"/>
<line x1="282.234" y1="351.29" x2="331.296" y2="338.165" stroke="#ADCAD6"/>
<line y1="-0.5" x2="38.0576" y2="-0.5" transform="matrix(-0.77959 0.62629 0.62629 0.77959 329.208 309.953)" stroke="#ADCAD6"/>
<line x1="360.782" y1="362.873" x2="331.112" y2="339.038" stroke="#ADCAD6"/>
<line y1="-0.5" x2="43.6446" y2="-0.5" transform="matrix(0.735232 0.677816 0.677816 -0.735232 329.208 309.953)" stroke="#ADCAD6"/>
<line x1="360.756" y1="362.116" x2="392.845" y2="332.533" stroke="#ADCAD6"/>
<line x1="403.799" y1="314.375" x2="392.267" y2="333.392" stroke="#ADCAD6"/>
<line x1="418.042" y1="326.752" x2="361.411" y2="340.023" stroke="#ADCAD6"/>
<g filter="url(#filter3_dd_4982_38710)">
<line x1="417.606" y1="325.882" x2="436.781" y2="309.725" stroke="#ADCAD6"/>
</g>
<defs>
<filter id="filter0_d_4982_38710" x="313.207" y="238.306" width="165.91" height="89.6173" filterUnits="userSpaceOnUse" color-interpolation-filters="sRGB">
<feFlood flood-opacity="0" result="BackgroundImageFix"/>
<feColorMatrix in="SourceAlpha" type="matrix" values="0 0 0 0 0 0 0 0 0 0 0 0 0 0 0 0 0 0 127 0" result="hardAlpha"/>
<feOffset dy="1"/>
<feGaussianBlur stdDeviation="1"/>
<feComposite in2="hardAlpha" operator="out"/>
<feColorMatrix type="matrix" values="0 0 0 0 0 0 0 0 0 0 0 0 0 0 0 0 0 0 0.05 0"/>
<feBlend mode="normal" in2="BackgroundImageFix" result="effect1_dropShadow_4982_38710"/>
<feBlend mode="normal" in="SourceGraphic" in2="effect1_dropShadow_4982_38710" result="shape"/>
</filter>
<filter id="filter1_dd_4982_38710" x="410.235" y="319.572" width="15.3862" height="15.3864" filterUnits="userSpaceOnUse" color-interpolation-filters="sRGB">
<feFlood flood-opacity="0" result="BackgroundImageFix"/>
<feColorMatrix in="SourceAlpha" type="matrix" values="0 0 0 0 0 0 0 0 0 0 0 0 0 0 0 0 0 0 127 0" result="hardAlpha"/>
<feOffset dy="1"/>
<feGaussianBlur stdDeviation="2.5"/>
<feComposite in2="hardAlpha" operator="out"/>
<feColorMatrix type="matrix" values="0 0 0 0 0 0 0 0 0 0 0 0 0 0 0 0 0 0 0.05 0"/>
<feBlend mode="normal" in2="BackgroundImageFix" result="effect1_dropShadow_4982_38710"/>
<feColorMatrix in="SourceAlpha" type="matrix" values="0 0 0 0 0 0 0 0 0 0 0 0 0 0 0 0 0 0 127 0" result="hardAlpha"/>
<feOffset dy="2"/>
<feGaussianBlur stdDeviation="1"/>
<feComposite in2="hardAlpha" operator="out"/>
<feColorMatrix type="matrix" values="0 0 0 0 0 0 0 0 0 0 0 0 0 0 0 0 0 0 0.05 0"/>
<feBlend mode="normal" in2="effect1_dropShadow_4982_38710" result="effect2_dropShadow_4982_38710"/>
<feBlend mode="normal" in="SourceGraphic" in2="effect2_dropShadow_4982_38710" result="shape"/>
</filter>
<filter id="filter2_dd_4982_38710" x="429.41" y="303.414" width="15.3862" height="15.3864" filterUnits="userSpaceOnUse" color-interpolation-filters="sRGB">
<feFlood flood-opacity="0" result="BackgroundImageFix"/>
<feColorMatrix in="SourceAlpha" type="matrix" values="0 0 0 0 0 0 0 0 0 0 0 0 0 0 0 0 0 0 127 0" result="hardAlpha"/>
<feOffset dy="1"/>
<feGaussianBlur stdDeviation="2.5"/>
<feComposite in2="hardAlpha" operator="out"/>
<feColorMatrix type="matrix" values="0 0 0 0 0 0 0 0 0 0 0 0 0 0 0 0 0 0 0.05 0"/>
<feBlend mode="normal" in2="BackgroundImageFix" result="effect1_dropShadow_4982_38710"/>
<feColorMatrix in="SourceAlpha" type="matrix" values="0 0 0 0 0 0 0 0 0 0 0 0 0 0 0 0 0 0 127 0" result="hardAlpha"/>
<feOffset dy="2"/>
<feGaussianBlur stdDeviation="1"/>
<feComposite in2="hardAlpha" operator="out"/>
<feColorMatrix type="matrix" values="0 0 0 0 0 0 0 0 0 0 0 0 0 0 0 0 0 0 0.05 0"/>
<feBlend mode="normal" in2="effect1_dropShadow_4982_38710" result="effect2_dropShadow_4982_38710"/>
<feBlend mode="normal" in="SourceGraphic" in2="effect2_dropShadow_4982_38710" result="shape"/>
</filter>
<filter id="filter3_dd_4982_38710" x="412.284" y="305.343" width="29.8193" height="26.9222" filterUnits="userSpaceOnUse" color-interpolation-filters="sRGB">
<feFlood flood-opacity="0" result="BackgroundImageFix"/>
<feColorMatrix in="SourceAlpha" type="matrix" values="0 0 0 0 0 0 0 0 0 0 0 0 0 0 0 0 0 0 127 0" result="hardAlpha"/>
<feOffset dy="1"/>
<feGaussianBlur stdDeviation="2.5"/>
<feComposite in2="hardAlpha" operator="out"/>
<feColorMatrix type="matrix" values="0 0 0 0 0 0 0 0 0 0 0 0 0 0 0 0 0 0 0.05 0"/>
<feBlend mode="normal" in2="BackgroundImageFix" result="effect1_dropShadow_4982_38710"/>
<feColorMatrix in="SourceAlpha" type="matrix" values="0 0 0 0 0 0 0 0 0 0 0 0 0 0 0 0 0 0 127 0" result="hardAlpha"/>
<feOffset dy="2"/>
<feGaussianBlur stdDeviation="1"/>
<feComposite in2="hardAlpha" operator="out"/>
<feColorMatrix type="matrix" values="0 0 0 0 0 0 0 0 0 0 0 0 0 0 0 0 0 0 0.05 0"/>
<feBlend mode="normal" in2="effect1_dropShadow_4982_38710" result="effect2_dropShadow_4982_38710"/>
<feBlend mode="normal" in="SourceGraphic" in2="effect2_dropShadow_4982_38710" result="shape"/>
</filter>
</defs>
</svg>
